<svg viewBox="0 0 20 14" fill="none" xmlns="http://www.w3.org/2000/svg">
<g>
<path d="M23.7037 -0.026001H0V13.974H23.7037V-0.026001Z" fill="#DE2910"/>
<path d="M3.33338 1.37402L4.50869 5.17217L1.43091 2.82588H5.23585L2.15807 5.17347L3.33338 1.37402Z" fill="#FFDE00"/>
<path d="M6.92708 0.729797L6.81597 2.05461L6.16289 0.913871L7.32955 1.43369L6.09375 1.73183L6.92708 0.729797Z" fill="#FFDE00"/>
<path d="M8.47766 2.28657L7.88383 3.46232L7.70358 2.14398L8.5863 3.10065L7.33691 2.8725L8.47766 2.28657Z" fill="#FFDE00"/>
<path d="M8.62722 4.63437L7.62969 5.45622L7.97907 4.17548L8.41487 5.42641L7.36426 4.68233L8.62722 4.63437Z" fill="#FFDE00"/>
<path d="M6.90244 5.61816L6.84442 6.94816L6.14689 5.83465L7.33331 6.3039L6.11108 6.65649L6.90244 5.61816Z" fill="#FFDE00"/>
</g>
</svg>
