<svg viewBox="0 0 20 14" fill="none" xmlns="http://www.w3.org/2000/svg">
<g>
<path d="M-3.62842 -0.0761108V14.0782H23.3321V-0.0761108H-3.62842Z" fill="#012169"/>
<path d="M-3.62842 -0.0761108L23.3321 14.0782L-3.62842 -0.0761108ZM23.3321 -0.0761108L-3.62842 14.0769L23.3321 -0.0761108Z" fill="black"/>
<path d="M22.7298 15.3441L9.852 8.58261L-3.02577 15.3441L-4.23071 12.8098L6.83719 6.99984L-4.23071 1.18984L-3.02577 -1.34442L9.852 5.41706L22.7298 -1.34442L23.9347 1.18984L12.8668 6.99984L23.9347 12.8098L22.7298 15.3441Z" fill="white"/>
<path d="M-3.62842 -0.0761108L23.3321 14.0782L-3.62842 -0.0761108ZM23.3321 -0.0761108L-3.62842 14.0769L23.3321 -0.0761108Z" fill="black"/>
<path d="M22.9297 14.9213L9.85196 8.05356L-3.22582 14.9213L-4.03076 13.2323L7.84331 6.99967L-4.03076 0.767077L-3.22582 -0.921997L9.85196 5.94578L22.9297 -0.921997L23.7347 0.767077L11.8606 6.99967L23.7347 13.2323L22.9297 14.9213Z" fill="#C8102E"/>
<path d="M9.85182 -0.0761108V14.0782V-0.0761108ZM-3.62842 7.00037H23.3321H-3.62842Z" fill="black"/>
<path d="M12.0987 14.0769H7.60491V9.35963H-3.62842V4.64111H7.60491V-0.0761108H12.0987V4.64111H23.3321V9.35963H12.0987V14.0769Z" fill="white"/>
<path d="M9.85182 -0.0761108V14.0782V-0.0761108ZM-3.62842 7.00037H23.3321H-3.62842Z" fill="black"/>
<path d="M11.2 14.0769H8.50367V8.41593H-3.62842V5.58482H8.50367V-0.0761108H11.2V5.58482H23.3321V8.41593H11.2V14.0769Z" fill="#C8102E"/>
</g>
</svg>
