<svg viewBox="0 0 20 14" fill="none" xmlns="http://www.w3.org/2000/svg"><path d="M-3.628-.076v14.154h26.96V-.076h-26.96Z" fill="#012169"/><path d="m-3.628-.076 26.96 14.154L-3.628-.076Zm26.96 0-26.96 14.153L23.332-.076Z" fill="#000"/><path d="M22.73 15.344 9.852 8.583l-12.878 6.761-1.205-2.534L6.837 7-4.23 1.19l1.205-2.534L9.852 5.417 22.73-1.344l1.205 2.534L12.867 7l11.068 5.81-1.205 2.534Z" fill="#fff"/><path d="m-3.628-.076 26.96 14.154L-3.628-.076Zm26.96 0-26.96 14.153L23.332-.076Z" fill="#000"/><path d="M22.93 14.921 9.852 8.054-3.226 14.92l-.805-1.689L7.843 7-4.03.767l.805-1.689L9.852 5.946 22.93-.922l.805 1.69L11.86 7l11.874 6.232-.805 1.69Z" fill="#C8102E"/><path d="M9.852-.076v14.154V-.076ZM-3.628 7h26.96-26.96Z" fill="#000"/><path d="M12.099 14.077H7.605V9.36H-3.628V4.64H7.605V-.076h4.494V4.64h11.233v4.72H12.1v4.717Z" fill="#fff"/><path d="M9.852-.076v14.154V-.076ZM-3.628 7h26.96-26.96Z" fill="#000"/><path d="M11.2 14.077H8.504V8.416H-3.628V5.585H8.504V-.076H11.2v5.66h12.132v2.832H11.2v5.66Z" fill="#C8102E"/></svg>
