<svg viewBox="0 0 20 14" fill="none" xmlns="http://www.w3.org/2000/svg"><path d="M21.87-.157H-2.165v14.314H21.87V-.157Z" fill="#fff"/><path d="m2.999 4.354 1.89-2.977-1.89 2.977Zm.71.497 1.89-2.978-1.89 2.978Zm.708.496 1.89-2.977-1.89 2.977Z" fill="#000"/><path d="M4.653 5.512 4.18 5.18l1.89-2.978.473.332-1.89 2.978Zm-.709-.497-.472-.332 1.89-2.977.473.332-1.89 2.977Zm-.708-.496-.473-.332 1.89-2.978.473.332-1.89 2.978Zm10.16 7.111 1.89-2.977-1.89 2.977Zm.709.497 1.89-2.978-1.89 2.978Zm.708.496 1.89-2.977-1.89 2.977Z" fill="#000"/><path d="m15.051 12.79-.473-.331 1.89-2.978.473.332-1.89 2.978Zm-.709-.496-.473-.332 1.89-2.977.474.331-1.89 2.978Zm-.71-.496-.472-.332 1.89-2.978.473.332-1.89 2.978Z" fill="#000"/><path d="m13.87 9.813 2.362 1.653-2.363-1.653Z" fill="#000"/><path d="m13.949 9.686-.158.248 2.364 1.655.157-.248-2.363-1.655Z" fill="#fff"/><path d="M9.852 10.58c1.882 0 3.408-1.603 3.408-3.58s-1.526-3.579-3.408-3.579C7.969 3.421 6.443 5.023 6.443 7s1.526 3.58 3.409 3.58Z" fill="#CD2E3A"/><path d="M7.016 5.015c-.523.824-.311 1.933.473 2.481.784.549 1.84.327 2.363-.496.522-.823 1.579-1.045 2.362-.496.784.548.995 1.657.473 2.48-1.045 1.644-3.16 2.09-4.726.994-1.565-1.097-1.99-3.319-.945-4.963Z" fill="#0047A0"/><path d="M4.89 12.623 2.999 9.646l1.89 2.977Zm.709-.496-1.89-2.978 1.89 2.978Zm.708-.497-1.89-2.977 1.89 2.977Z" fill="#000"/><path d="m4.653 12.79-1.89-2.977.473-.332 1.89 2.978-.473.332Zm.709-.496-1.89-2.978.472-.331 1.89 2.977-.472.332Zm.71-.496L4.18 8.82l.473-.332 1.89 2.978-.471.332Zm9.214-6.451-1.89-2.977 1.89 2.977Zm.709-.496-1.89-2.978 1.89 2.978Zm.71-.497-1.89-2.977 1.89 2.977ZM15.05 5.512l-1.89-2.978.473-.332 1.89 2.978-.473.332Zm.709-.497-1.89-2.977.473-.332 1.89 2.977-.473.332Zm.709-.496-1.89-2.978.472-.332 1.89 2.978-.472.332Z" fill="#000"/><path d="m4.299 10.886.708-.496-.708.496Zm9.57-6.699.827-.58-.827.58Zm1.536-1.073.709-.497-.709.497Z" fill="#000"/><path d="m4.379 11.01-.157-.248.709-.497.157.248-.709.498Zm9.57-6.699-.158-.247.827-.58.157.248-.827.58Zm1.535-1.073-.157-.248.709-.496.156.248-.708.496Z" fill="#fff"/></svg>
