<svg viewBox="0 0 20 14" fill="none" xmlns="http://www.w3.org/2000/svg"><path d="M21.771-1.344h-23.84v16.687h23.84V-1.344Z" fill="red"/><path d="M7.467-1.344h-9.535v16.687h9.535V-1.344Z" fill="#060"/><path fill-rule="evenodd" clip-rule="evenodd" d="M10.575 9.586c-1.2-.038-6.702-3.647-6.743-4.218l.303-.535c.544.835 6.174 4.344 6.725 4.219l-.285.534Z" fill="#FF0"/><path d="M10.575 9.599c-.64-.021-2.455-1.044-3.814-1.911-1.403-.897-2.92-2.003-2.94-2.32v-.007l.31-.53c0-.004.004-.004.007-.004.004 0 .008 0 .008.004.278.425 1.887 1.544 3.357 2.465 1.732 1.085 3.11 1.802 3.356 1.748.004 0 .008 0 .013.004.003.004.003.008 0 .013l-.287.534c.001.004-.002.004-.01.004Zm-6.73-4.226c.028.263 1.255 1.23 2.928 2.298 1.35.863 3.154 1.877 3.795 1.907l.274-.51c-.346.017-1.915-.859-3.35-1.752C6.038 6.407 4.449 5.3 4.139 4.859l-.293.514Z" fill="#000"/><path fill-rule="evenodd" clip-rule="evenodd" d="M4.075 4.763C3.968 5.068 5.51 6.07 7.37 7.26c1.86 1.184 3.46 1.918 3.58 1.814.008-.013.06-.103.056-.103-.024.033-.075.045-.163.02-.501-.15-1.812-.784-3.433-1.814-1.621-1.03-3.032-1.984-3.251-2.388a.218.218 0 0 1-.023-.117H4.13l-.048.088-.008.004Zm6.531 4.84c-.02.037-.06.04-.13.033-.45-.054-1.813-.747-3.425-1.76-1.876-1.181-3.425-2.253-3.258-2.533l.048-.083.007.004c-.15.475 3.056 2.403 3.246 2.523 1.855 1.206 3.42 1.915 3.56 1.732l-.048.083Z" fill="#FF0"/><path d="M10.53 9.654c-.015 0-.035 0-.058-.004-.457-.055-1.836-.764-3.429-1.764-2.13-1.34-3.199-2.146-3.27-2.463a.113.113 0 0 1 .012-.088l.043-.083c.004-.004.008-.008.013-.004l.007.004c.004 0 .004.003.007.003v.008c-.051.158.287.685 3.115 2.432.063.042.108.066.127.08 1.832 1.192 3.409 1.91 3.545 1.731.004-.004.012-.004.016-.004.004.004.007.013.004.017l-.052.092c-.015.034-.043.043-.08.043Zm-6.698-4.36-.028.055a.082.082 0 0 0-.008.071c.072.313 1.136 1.114 3.262 2.445 1.589 1 2.964 1.706 3.417 1.76.072.008.104.008.12-.024l.028-.05a.24.24 0 0 1-.055.007c-.39 0-1.813-.672-3.48-1.757-.017-.013-.06-.037-.128-.079-2.075-1.29-3.128-2.102-3.128-2.428Zm7.077 3.796c-.294 0-1.804-.71-3.549-1.823C5.362 5.99 3.955 5.065 4.063 4.76l.007-.013.048-.088c.004-.004.004-.004.013-.004h.003c.004 0 .008 0 .008.004.004.004.004.004.004.008a.215.215 0 0 0 .023.113c.23.429 1.856 1.497 3.246 2.382 1.526.973 2.88 1.648 3.428 1.815.075.02.127.017.147-.017 0-.004.004-.004.007-.004.004 0 .008 0 .013.004.003.008.003.008-.048.11l-.008.012s0 .004-.004.004c-.006 0-.018.004-.041.004ZM4.085 4.768c-.103.309 1.697 1.46 3.29 2.479C9.283 8.465 10.82 9.15 10.94 9.061l.003-.007c.013-.021.02-.038.029-.051-.032.013-.08.008-.135-.008-.552-.167-1.907-.842-3.433-1.815-1.39-.884-3.02-1.96-3.255-2.39a.26.26 0 0 1-.023-.092l-.04.07Z" fill="#000"/><path fill-rule="evenodd" clip-rule="evenodd" d="M7.476 5.715c1.2-.007 2.686-.17 3.536-.53l-.183-.312c-.505.292-1.995.483-3.366.513-1.617-.017-2.761-.175-3.333-.575l-.175.333c1.054.466 2.134.568 3.52.571Z" fill="#FF0"/><path d="M7.476 5.727c-1.39-.004-2.463-.104-3.52-.571-.004 0-.004-.004-.008-.008V5.14l.176-.333c0-.004.004-.004.007-.004h.008c.532.376 1.588.559 3.326.575 1.235-.024 2.817-.195 3.356-.513.004-.004.013 0 .016.004l.183.312c0 .004.004.008 0 .008 0 .004-.004.004-.007.008-.9.376-2.416.522-3.537.53Zm-3.5-.587c1.053.463 2.117.559 3.5.568 1.112-.008 2.622-.15 3.52-.521l-.171-.292c-.557.312-2.126.483-3.357.51-1.732-.017-2.789-.2-3.33-.572l-.162.307Z" fill="#000"/><path fill-rule="evenodd" clip-rule="evenodd" d="M11.06 5.193c-.03.05-.585.25-1.407.4-.557.089-1.279.168-2.185.168a15.05 15.05 0 0 1-2.094-.137c-.862-.142-1.304-.339-1.47-.409.016-.033.023-.054.04-.088.472.196.916.318 1.441.4.528.076 1.224.142 2.078.138.902 0 1.617-.083 2.169-.171.842-.141 1.299-.325 1.363-.408l.064.107Zm-.159-.316c-.091.075-.544.246-1.343.38-.532.079-1.212.15-2.078.154-.822 0-1.494-.058-2.006-.134-.811-.112-1.243-.312-1.399-.37.016-.03.032-.055.048-.083.12.062.536.242 1.36.363.505.075 1.18.13 1.998.13.862 0 1.534-.076 2.062-.155.803-.117 1.236-.33 1.299-.384l.06.099Z" fill="#FF0"/><path d="M7.451 5.77c-.73 0-1.43-.045-2.077-.137-.835-.138-1.284-.33-1.455-.4l-.016-.008c-.003 0-.003-.004-.007-.008s0-.008 0-.008a.164.164 0 0 0 .016-.038l.023-.05c.004-.004.008-.008.016-.004.454.188.898.312 1.439.4a14.78 14.78 0 0 0 2.058.138h.016c.734 0 1.446-.055 2.169-.171.83-.142 1.291-.322 1.36-.405.003-.004.003-.004.007-.004.003 0 .007.004.007.004l.06.11c.003.003.003.007 0 .012v.004c-.044.058-.62.26-1.412.405-.684.108-1.418.167-2.189.167-.002-.007-.006-.007-.015-.007Zm-3.528-.564.007.004c.17.072.62.263 1.451.4.648.093 1.347.138 2.074.138h.016c.767 0 1.503-.058 2.185-.167.811-.146 1.335-.342 1.396-.388l-.049-.088c-.091.088-.52.26-1.359.405-.723.112-1.434.167-2.173.17-.723 0-1.422-.045-2.078-.137a6.193 6.193 0 0 1-1.434-.396c-.008.013-.012.024-.02.041-.007.002-.012.01-.016.018Zm3.54.213c-.723 0-1.41-.045-1.99-.137a5.268 5.268 0 0 1-1.334-.347c-.023-.007-.048-.02-.068-.024-.003 0-.003-.004-.007-.008s0-.008 0-.008c.016-.03.032-.054.048-.083.004-.004.007-.007.016-.004.072.038.47.23 1.354.363.402.059 1.07.13 1.976.13h.02c.938 0 1.624-.088 2.057-.154.767-.113 1.216-.322 1.296-.384.003-.004.007-.004.007-.004.004 0 .007.004.007.004l.06.104v.004c0 .004 0 .007-.004.007-.088.076-.536.247-1.35.384-.68.104-1.36.154-2.079.154.003.003-.004.003-.008.003ZM4.09 4.898c.016.004.032.013.052.02.198.08.616.247 1.33.343a13.6 13.6 0 0 0 1.987.133h.016c.72 0 1.399-.05 2.074-.154.786-.133 1.227-.297 1.33-.37l-.047-.084c-.088.059-.502.267-1.295.38a13.38 13.38 0 0 1-2.062.154h-.02c-.91 0-1.578-.07-1.979-.13-.858-.129-1.26-.312-1.354-.358a.294.294 0 0 1-.032.066Z" fill="#000"/><path fill-rule="evenodd" clip-rule="evenodd" d="M3.531 7.237c.74.417 2.38.626 3.933.643 1.415.004 3.258-.23 3.946-.613l-.02-.418c-.215.356-2.189.693-3.942.681-1.753-.012-3.377-.297-3.922-.668l.005.375Z" fill="#FF0"/><path d="M7.484 7.889h-.02c-1.376-.013-3.135-.188-3.937-.643-.004-.004-.008-.008-.008-.013l-.003-.376c0-.004.003-.008.003-.013.004-.004.008 0 .013 0 .548.37 2.194.65 3.913.664 1.736.013 3.719-.326 3.934-.672.003-.004.007-.007.012-.004.004 0 .007.004.007.013l.02.418c0 .004-.004.008-.007.013-.69.387-2.532.613-3.927.613Zm-3.942-.66c.802.451 2.55.626 3.92.638h.02c1.387 0 3.219-.226 3.914-.61l-.016-.375c-.298.35-2.201.671-3.934.658-1.708-.013-3.341-.288-3.91-.654l.006.343Z" fill="#000"/><path fill-rule="evenodd" clip-rule="evenodd" d="M11.446 7.176v.1c-.104.129-.751.325-1.566.462a15.4 15.4 0 0 1-2.436.175 14.41 14.41 0 0 1-2.308-.167c-.934-.141-1.534-.393-1.653-.467v-.116c.361.25 1.34.434 1.664.492.588.096 1.347.167 2.296.167 1.001 0 1.804-.075 2.42-.175.589-.088 1.42-.317 1.583-.471Zm0-.354v.1c-.104.13-.751.325-1.566.462a15.4 15.4 0 0 1-2.436.175 14.41 14.41 0 0 1-2.308-.167c-.934-.141-1.534-.393-1.653-.467V6.81c.361.25 1.34.434 1.664.492.588.096 1.347.167 2.296.167 1.001 0 1.804-.075 2.42-.175.589-.088 1.42-.317 1.583-.471Z" fill="#FF0"/><path d="M7.445 7.926c-.847 0-1.625-.055-2.313-.168-.895-.136-1.514-.378-1.656-.47-.004-.004-.004-.004-.004-.008v-.117c0-.004.004-.007.007-.013h.013c.361.25 1.363.439 1.66.493.684.109 1.454.167 2.296.167.89 0 1.705-.058 2.42-.175.58-.088 1.411-.317 1.573-.466.004-.004.007-.004.012-.004s.008.004.008.013v.1c0 .003 0 .003-.004.007-.107.134-.77.333-1.573.467-.723.115-1.545.174-2.44.174Zm-3.95-.651c.108.062.68.317 1.645.463.687.112 1.462.167 2.308.167.894 0 1.713-.059 2.433-.175.779-.134 1.445-.33 1.558-.46V7.2c-.203.154-1.005.376-1.566.459-.72.116-1.533.175-2.423.175a14.28 14.28 0 0 1-2.3-.168c-.294-.05-1.276-.233-1.653-.483l-.002.092Zm3.95.297a14.44 14.44 0 0 1-2.313-.168c-.893-.137-1.513-.38-1.656-.471-.004-.004-.004-.004-.004-.008v-.117c0-.004.004-.008.007-.013.004-.004.008 0 .013 0 .361.254 1.363.438 1.66.493.684.109 1.454.167 2.296.167.89 0 1.705-.058 2.42-.175.58-.088 1.411-.318 1.573-.472.004-.004.007-.004.007-.004.004 0 .008.004.008.008v.104c0 .004 0 .004-.004.008-.107.133-.77.333-1.573.466-.718.123-1.54.182-2.434.182Zm-3.95-.651c.108.062.68.318 1.645.463.687.112 1.462.167 2.308.167.894 0 1.713-.058 2.433-.175.779-.134 1.445-.33 1.558-.459v-.071c-.203.154-1.005.376-1.566.459-.715.116-1.533.175-2.423.175a14.28 14.28 0 0 1-2.3-.168c-.294-.05-1.272-.233-1.653-.483l-.002.092Z" fill="#000"/><path fill-rule="evenodd" clip-rule="evenodd" d="M7.46 9.516c-1.7-.013-3.154-.489-3.464-.562l.222.366c.545.243 1.963.597 3.254.56 1.292-.038 2.42-.147 3.215-.552l.231-.383c-.538.267-2.385.571-3.458.571Z" fill="#FF0"/><path d="M7.278 9.89c-1.22 0-2.527-.325-3.06-.562-.003 0-.003-.004-.003-.004l-.222-.366c-.004-.004-.004-.008 0-.013.004-.004.007-.004.012-.004.036.007.088.024.156.041.493.141 1.807.513 3.306.521 1.08-.004 2.925-.308 3.457-.571.004-.004.012 0 .012.003.004.004.004.008 0 .013l-.23.384-.004.004c-.831.425-2.039.517-3.219.551-.074.004-.138.004-.205.004ZM4.23 9.312c.564.247 1.979.593 3.246.555 1.18-.037 2.384-.13 3.206-.547l.206-.346c-.575.263-2.367.555-3.432.555-1.498-.008-2.814-.384-3.31-.521a1.036 1.036 0 0 1-.127-.038l.211.342Z" fill="#000"/><path fill-rule="evenodd" clip-rule="evenodd" d="M10.778 9.24c-.036.055-.068.109-.104.158a8.638 8.638 0 0 1-1.216.326c-.508.109-1.298.192-1.998.192-1.507-.025-2.737-.334-3.318-.597l-.048-.083.008-.013.079.034c1.03.388 2.189.542 3.286.572.695.004 1.395-.083 1.96-.188.866-.184 1.215-.318 1.323-.38l.028-.02Zm.199-.346c0 .004.004.004 0 0-.024.05-.048.092-.075.137-.2.076-.744.243-1.537.36-.521.075-.847.146-1.888.167-1.947-.05-3.21-.451-3.509-.551l-.043-.088c1.128.308 2.28.526 3.552.547.95-.021 1.354-.096 1.875-.168.926-.15 1.39-.308 1.53-.359 0-.003-.004-.003-.008-.007l.103-.038Z" fill="#FF0"/><path d="M7.46 9.932c-1.533-.024-2.749-.338-3.322-.596-.003 0-.003-.004-.003-.004l-.048-.083c-.004-.004 0-.008 0-.013l.007-.013c.004-.004.007-.008.012-.004l.08.034c.922.346 2.022.538 3.28.568H7.5c.754 0 1.462-.104 1.927-.188.966-.205 1.252-.342 1.319-.38l.028-.017c.004-.004.007 0 .012.004.004.004.004.008 0 .013l-.103.158-.004.004a9.144 9.144 0 0 1-1.216.33 11.13 11.13 0 0 1-2.001.187Zm-3.31-.617c.617.28 1.88.572 3.31.593.664 0 1.467-.08 1.996-.192a8.476 8.476 0 0 0 1.212-.326c.024-.037.052-.075.075-.116-.084.045-.393.184-1.314.376-.47.088-1.192.192-1.96.192-1.259-.034-2.368-.226-3.29-.572l-.068-.03.04.075Zm3.33.26c-1.74-.046-2.948-.367-3.512-.551-.004 0-.004-.004-.007-.004l-.044-.088c-.003-.004 0-.008 0-.013.004-.004.008-.004.013-.004 1.291.355 2.42.526 3.548.547a11.79 11.79 0 0 0 1.709-.147c.055-.007.107-.017.163-.024.893-.147 1.359-.301 1.513-.35v-.004c0-.004.004-.008.008-.008l.098-.038c.004 0 .013 0 .013.004V8.9c.003.004.003.008 0 .013a2.451 2.451 0 0 1-.08.138c0 .003-.003.003-.003.003-.27.1-.831.255-1.537.36-.075.012-.15.02-.222.033-.413.053-.774.112-1.66.129Zm-3.5-.572c.563.188 1.767.5 3.5.547.886-.017 1.247-.071 1.663-.134.072-.013.144-.02.223-.033.698-.104 1.259-.254 1.53-.355.019-.038.042-.076.062-.11l-.063.025v.008c0 .004-.003.004-.007.008l-.016.004c-.156.05-.624.205-1.518.35-.055.007-.11.017-.163.024-.44.066-.861.126-1.712.147-1.128-.02-2.25-.192-3.532-.542l.032.06Zm6.997-.109.007-.008-.007.008Z" fill="#000"/><path fill-rule="evenodd" clip-rule="evenodd" d="M10.996 6.908C11 8.08 10.428 9.136 9.966 9.6a3.613 3.613 0 0 1-2.526 1.102c-1.129.02-2.19-.75-2.476-1.089-.557-.663-1.008-1.506-1.025-2.636.068-1.281.549-2.174 1.244-2.787.695-.614 1.617-.91 2.387-.89.89.025 1.928.484 2.642 1.39.474.592.677 1.24.784 2.22ZM7.452 2.887c2.165 0 3.946 1.849 3.946 4.117 0 2.269-1.78 4.118-3.946 4.118-2.166 0-3.93-1.848-3.93-4.118 0-2.27 1.768-4.117 3.93-4.117Z" fill="#FF0"/><path d="M7.452 11.134c-2.173 0-3.942-1.852-3.942-4.13 0-2.277 1.768-4.13 3.942-4.13 1.053 0 2.042.43 2.793 1.21A4.194 4.194 0 0 1 11.409 7a4.187 4.187 0 0 1-1.164 2.917 3.818 3.818 0 0 1-2.793 1.217Zm0-8.235c-2.162 0-3.917 1.84-3.917 4.105 0 2.266 1.755 4.106 3.917 4.106 2.17 0 3.934-1.845 3.934-4.106C11.389 4.744 9.62 2.9 7.452 2.9Zm-.055 7.81c-1.157 0-2.186-.797-2.436-1.093-.68-.809-1.017-1.673-1.03-2.644.063-1.181.485-2.123 1.248-2.795.652-.572 1.57-.914 2.397-.893.977.025 1.995.562 2.65 1.393.45.572.672 1.193.783 2.224.004 1.134-.532 2.194-1.03 2.698a3.59 3.59 0 0 1-2.534 1.102c-.016.008-.032.008-.048.008Zm.1-7.4c-.803 0-1.677.333-2.305.889-.76.667-1.177 1.602-1.24 2.778.013.963.346 1.828 1.021 2.629.247.291 1.272 1.085 2.42 1.085h.048c.953-.017 1.824-.397 2.519-1.097.496-.5 1.03-1.552 1.024-2.682-.11-1.027-.33-1.644-.779-2.212-.655-.83-1.664-1.36-2.634-1.384-.024-.006-.047-.006-.074-.006Z" fill="#000"/><path fill-rule="evenodd" clip-rule="evenodd" d="M7.464 2.874c2.166 0 3.933 1.857 3.933 4.13 0 2.274-1.767 4.13-3.933 4.13-2.165 0-3.933-1.856-3.933-4.13 0-2.273 1.768-4.13 3.933-4.13Zm-3.847 4.13c0 2.223 1.736 4.038 3.846 4.038 2.11 0 3.846-1.818 3.846-4.038 0-2.223-1.736-4.038-3.846-4.038-2.11 0-3.846 1.815-3.846 4.038Z" fill="#FF0"/><path d="M7.464 11.147c-2.177 0-3.945-1.856-3.945-4.143s1.768-4.143 3.945-4.143c2.178 0 3.946 1.856 3.946 4.143s-1.769 4.143-3.946 4.143Zm0-8.26c-2.161 0-3.92 1.849-3.92 4.117 0 2.269 1.759 4.118 3.92 4.118 2.162 0 3.921-1.848 3.921-4.117 0-2.27-1.759-4.118-3.92-4.118Zm0 8.168c-1.024 0-1.99-.421-2.722-1.189a4.132 4.132 0 0 1-1.136-2.862 4.13 4.13 0 0 1 1.136-2.862c.731-.768 1.7-1.189 2.722-1.189 1.025 0 1.99.421 2.723 1.189a4.126 4.126 0 0 1 1.136 2.862 4.131 4.131 0 0 1-1.136 2.862c-.732.768-1.698 1.189-2.723 1.189Zm0-8.081c-2.113 0-3.834 1.807-3.834 4.03 0 2.22 1.72 4.03 3.834 4.03S11.3 9.227 11.3 7.004c.004-2.22-1.72-4.03-3.835-4.03Z" fill="#000"/><path fill-rule="evenodd" clip-rule="evenodd" d="M7.468 3.216c1.976 0 3.604 1.703 3.604 3.784 0 2.082-1.63 3.784-3.604 3.784-1.974 0-3.603-1.702-3.603-3.784 0-2.081 1.628-3.784 3.603-3.784ZM3.952 7c0 2.032 1.59 3.692 3.516 3.692 1.927 0 3.516-1.66 3.516-3.692 0-2.03-1.589-3.691-3.516-3.691S3.952 4.969 3.952 7Z" fill="#FF0"/><path d="M7.468 10.797c-.958 0-1.863-.397-2.55-1.113A3.868 3.868 0 0 1 3.851 7c0-1.01.378-1.961 1.065-2.682a3.5 3.5 0 0 1 2.551-1.113c.958 0 1.863.396 2.55 1.113A3.867 3.867 0 0 1 11.085 7a3.864 3.864 0 0 1-1.065 2.682c-.688.718-1.593 1.115-2.55 1.115Zm0-7.568C5.485 3.23 3.877 4.922 3.877 7c0 2.082 1.613 3.771 3.591 3.771 1.983 0 3.591-1.694 3.591-3.77 0-2.077-1.612-3.772-3.59-3.772Zm0 7.476c-.938 0-1.82-.388-2.491-1.089A3.758 3.758 0 0 1 3.94 7c0-.985.369-1.914 1.037-2.616a3.422 3.422 0 0 1 2.491-1.089c.938 0 1.82.388 2.491 1.09A3.757 3.757 0 0 1 10.996 7c0 .985-.369 1.915-1.037 2.616-.671.705-1.553 1.089-2.49 1.089Zm0-7.385c-1.93 0-3.505 1.653-3.505 3.68 0 2.031 1.573 3.68 3.505 3.68S10.973 9.03 10.973 7 9.399 3.32 7.468 3.32Z" fill="#000"/><path fill-rule="evenodd" clip-rule="evenodd" d="M7.627 2.857H7.29v8.301h.338V2.857Z" fill="#FF0"/><path d="M7.627 11.168h-.338c-.008 0-.013-.004-.013-.013V2.853c0-.004 0-.004.004-.008.004-.003.004-.003.007-.003h.339c.007 0 .012.003.012.013v8.301c0 .004 0 .004-.004.008-.003.004-.003.004-.007.004Zm-.326-.021h.314V2.87H7.3v8.277Z" fill="#000"/><path fill-rule="evenodd" clip-rule="evenodd" d="M7.591 2.808h.088v8.399h-.088V2.808Zm-.334 0h.087v8.399h-.087V2.808Z" fill="#FF0"/><path d="M7.344 11.218h-.088c-.007 0-.012-.004-.012-.013V2.811c0-.007.004-.013.012-.013h.088c.008 0 .012.004.012.013v8.4c0 .003 0 .003-.003.007-.005.004-.005 0-.009 0Zm-.075-.026h.063V2.819h-.063v8.373Zm.41.026H7.59c-.007 0-.012-.004-.012-.013V2.808c0-.004 0-.004.003-.008.004-.004.004-.004.008-.004h.087c.008 0 .013.004.013.013v8.399c0 .003 0 .003-.004.007s-.004.003-.007.003Zm-.077-.026h.063V2.819h-.063v8.373Z" fill="#000"/><path fill-rule="evenodd" clip-rule="evenodd" d="M11.4 7.163v-.308l-.237-.233-1.351-.376-1.947-.209-2.344.126-1.67.416-.338.263v.309l.854-.401 2.028-.334h1.947l1.43.167.994.25.635.33Z" fill="#FF0"/><path d="M11.401 7.175h-.003l-.636-.33-.99-.25-1.43-.167H6.395l-2.022.333-.85.4H3.51c-.004-.003-.004-.003-.004-.007v-.308c0-.004 0-.008.004-.008l.338-.263h.004l1.669-.418 2.348-.125 1.947.208 1.35.376s.004 0 .004.004l.239.233c.003.004.003.004.003.008v.309c0 .004-.003.007-.003.007l-.008-.002Zm-3.06-.771 1.432.167.994.25.62.325v-.284l-.232-.225L9.81 6.26l-1.947-.209-2.345.126-1.665.417-.33.26v.284l.838-.397h.004l2.026-.333 1.952-.005Z" fill="#000"/><path fill-rule="evenodd" clip-rule="evenodd" d="M7.464 6.366c.93 0 1.832.092 2.547.238.74.154 1.256.35 1.435.567v.11c-.215-.272-.914-.467-1.451-.585a12.959 12.959 0 0 0-2.527-.238c-.973 0-1.883.1-2.583.243-.56.116-1.311.35-1.402.58v-.114c.052-.158.607-.396 1.39-.558a13.135 13.135 0 0 1 2.591-.243Zm.004-.355c.93 0 1.832.092 2.547.237.74.155 1.255.35 1.434.568v.109c-.214-.27-.913-.467-1.45-.585a12.959 12.959 0 0 0-2.527-.237c-.973 0-1.88.1-2.58.243-.54.108-1.318.35-1.406.579v-.113c.052-.158.62-.4 1.39-.558.7-.147 1.61-.243 2.592-.243Z" fill="#FF0"/><path d="M3.483 7.288c-.004 0-.004 0 0 0-.008 0-.013-.008-.013-.013v-.113c.056-.17.644-.408 1.4-.567.75-.155 1.672-.238 2.598-.243v.013-.013h.028c.874 0 1.768.083 2.524.237.77.164 1.268.36 1.442.572 0 .004.004.004.004.008v.109c0 .004-.004.008-.008.013-.004 0-.007 0-.012-.004-.226-.288-1.002-.484-1.446-.58a13.052 13.052 0 0 0-2.527-.237c-.91 0-1.827.088-2.58.243-.611.13-1.306.359-1.394.571-.009.004-.012.004-.016.004Zm4.008-.842c.867 0 1.757.083 2.504.237.434.092 1.184.284 1.438.562v-.07c-.17-.206-.662-.401-1.425-.56a13.047 13.047 0 0 0-2.517-.237h-.028c-.922 0-1.84.088-2.59.243-.835.175-1.33.413-1.383.55v.067c.167-.238.938-.452 1.39-.547a13.352 13.352 0 0 1 2.583-.243c.012-.002.021-.002.028-.002Zm-4.008.492s-.004 0 0 0c-.008 0-.013-.004-.013-.013V6.81c.056-.172.656-.418 1.4-.568.75-.154 1.672-.237 2.598-.243h.023c.875 0 1.768.083 2.524.238.77.163 1.268.359 1.442.571 0 .004.004.004.004.008v.109c0 .004-.004.008-.008.013-.003 0-.007 0-.012-.004-.226-.288-1.001-.484-1.446-.58a13.052 13.052 0 0 0-2.527-.237c-.906 0-1.823.088-2.574.243-.62.125-1.319.367-1.399.571-.005.004-.008.008-.012.008ZM7.49 6.09c.867 0 1.757.083 2.504.238.434.092 1.184.284 1.438.562v-.07c-.17-.205-.662-.4-1.425-.559a12.822 12.822 0 0 0-2.544-.237c-.922 0-1.843.088-2.59.242-.802.164-1.33.409-1.383.551v.066c.16-.225.903-.446 1.396-.547a13.33 13.33 0 0 1 2.579-.242c.01-.003.018-.003.025-.003Z" fill="#000"/><path fill-rule="evenodd" clip-rule="evenodd" d="M7.449 4.205c1.461-.008 2.742.217 3.325.53l.215.388c-.508-.288-1.887-.588-3.536-.542-1.346.008-2.781.154-3.505.559l.255-.446c.591-.327 1.986-.489 3.245-.489Z" fill="#FF0"/><path d="M3.948 5.148c-.003 0-.007 0-.007-.004-.004-.003-.004-.007 0-.013l.254-.445.004-.004c.616-.333 2.078-.489 3.25-.489 1.412-.008 2.718.2 3.33.53l.004.004.215.388c.004.004 0 .013 0 .013-.004.003-.008.003-.012.003-.533-.3-1.915-.584-3.533-.537-.945.003-2.658.088-3.496.558-.005-.004-.009-.004-.009-.004Zm.262-.446-.23.409c.857-.455 2.539-.534 3.472-.542 1.585-.042 2.948.23 3.509.526l-.19-.35c-.613-.325-1.911-.534-3.318-.526-1.177-.001-2.63.149-3.243.483Z" fill="#000"/><path fill-rule="evenodd" clip-rule="evenodd" d="M7.468 4.52c.835-.003 1.64.046 2.285.168.597.117 1.168.292 1.248.388l.063.116c-.198-.137-.691-.288-1.323-.413-.636-.126-1.442-.167-2.273-.167-.942-.004-1.677.05-2.305.163-.663.13-1.125.317-1.24.404l.064-.125c.222-.117.571-.264 1.16-.371.648-.12 1.388-.157 2.321-.162Zm0-.353c.799-.004 1.589.045 2.205.163.485.1.965.254 1.14.393l.092.154c-.16-.184-.747-.359-1.272-.455-.612-.109-1.366-.154-2.165-.163-.838.004-1.614.058-2.217.171-.572.113-.946.25-1.1.355l.079-.13c.215-.12.564-.229 1.005-.317.608-.113 1.386-.167 2.233-.171Z" fill="#FF0"/><path d="M11.064 5.206h-.007c-.195-.133-.675-.284-1.318-.413-.568-.113-1.331-.168-2.27-.164-.942-.004-1.672.05-2.3.164-.659.13-1.12.312-1.235.404-.004.004-.013.004-.016 0-.004-.004-.004-.008-.004-.017l.063-.125c0-.004.003-.004.003-.004.298-.159.68-.284 1.165-.376.587-.113 1.263-.164 2.324-.167.898 0 1.69.054 2.286.167.607.12 1.171.291 1.255.393l.063.12c.004.004 0 .013-.004.017l-.005.001Zm-3.537-.6c.914 0 1.657.054 2.214.167.612.12 1.077.263 1.291.393l-.04-.08c-.075-.087-.647-.262-1.239-.379-.596-.113-1.382-.171-2.28-.167-1.06.004-1.732.054-2.32.167-.481.092-.859.213-1.158.37l-.04.08c.16-.096.6-.263 1.208-.384.632-.116 1.363-.167 2.305-.163.02-.004.04-.004.06-.004Zm3.375.284c-.004 0-.008 0-.008-.004-.163-.188-.783-.36-1.263-.451-.557-.1-1.263-.154-2.165-.163-.874.003-1.641.062-2.214.17-.509.1-.917.234-1.096.356-.004.004-.013.004-.016 0-.004-.004-.004-.008 0-.017l.079-.13.003-.003c.215-.117.565-.23 1.01-.322.57-.109 1.342-.167 2.232-.171.875 0 1.637.054 2.205.163.521.104.982.263 1.145.393 0 0 .004 0 .004.004l.09.154c.005.004 0 .013-.003.017.004-.001 0 .004-.003.004Zm-3.434-.643c.903.008 1.614.062 2.17.163.44.083.993.234 1.215.405l-.051-.083c-.163-.126-.62-.284-1.133-.388-.568-.109-1.33-.163-2.2-.158-.887.004-1.658.062-2.23.171-.44.092-.786.2-1 .318l-.052.083c.198-.113.587-.238 1.06-.33.577-.119 1.343-.177 2.221-.181Z" fill="#000"/><path fill-rule="evenodd" clip-rule="evenodd" d="M9.419 8.723a9.699 9.699 0 0 0-1.955-.154c-2.44.03-3.225.526-3.325.675l-.183-.312c.62-.472 1.95-.74 3.52-.71.814.014 1.517.072 2.11.193l-.167.308Z" fill="#FF0"/><path d="M4.142 9.253c-.004 0-.007-.004-.007-.004l-.183-.312c-.004-.004 0-.013.004-.017.623-.476 1.943-.743 3.528-.713.862.017 1.553.079 2.114.192.003 0 .007.004.007.007v.013l-.167.313c-.003.004-.007.008-.012.004a9.32 9.32 0 0 0-1.95-.155c-2.372.03-3.21.505-3.314.672h-.02Zm-.167-.322.167.288c.143-.179 1.005-.638 3.322-.667a9.699 9.699 0 0 1 1.95.154l.156-.288c-.556-.113-1.239-.175-2.093-.188-1.57-.028-2.882.235-3.502.701Z" fill="#000"/><path fill-rule="evenodd" clip-rule="evenodd" d="M7.452 8.523c.679.013 1.343.041 1.986.167l-.048.088c-.596-.116-1.236-.158-1.94-.158-.902-.008-1.812.08-2.602.322-.25.075-.663.242-.707.38l-.048-.08c.012-.083.261-.254.73-.392.913-.278 1.764-.323 2.629-.327Zm.032-.36c.704.014 1.43.046 2.133.197l-.048.092c-.636-.134-1.248-.175-2.081-.192-.903 0-1.863.071-2.734.333-.282.088-.766.27-.782.421l-.048-.088c.012-.133.43-.308.81-.425.878-.266 1.837-.337 2.75-.337Z" fill="#FF0"/><path d="M4.142 9.328c-.004 0-.007 0-.007-.004l-.048-.08v-.007c.016-.092.277-.267.74-.4.866-.264 1.676-.318 2.625-.326.643.008 1.33.038 1.986.167.004 0 .008.004.008.008V8.7l-.048.088c-.004.004-.008.008-.013.004a9.537 9.537 0 0 0-1.94-.154c-.997-.008-1.87.1-2.602.321-.266.08-.659.247-.698.376.006-.006.006-.006-.003-.006Zm-.036-.092.032.058c.076-.137.466-.297.704-.367.731-.221 1.609-.329 2.606-.321.74-.004 1.37.045 1.935.154l.036-.066c-.652-.126-1.331-.154-1.97-.163-.946.007-1.752.066-2.62.325-.465.137-.703.305-.723.38Zm-.134-.213c-.004 0-.008-.004-.008-.004l-.048-.088v-.008c.013-.175.627-.376.819-.434.75-.23 1.624-.338 2.753-.338.688.013 1.422.045 2.137.196.004 0 .007.003.007.007v.013l-.048.092c-.004.004-.007.008-.012.004-.675-.141-1.324-.179-2.082-.192-1.12.004-1.986.11-2.73.334-.365.112-.762.287-.775.408-.006.006-.01.006-.013.01Zm-.036-.1.032.059c.08-.18.708-.38.783-.4.743-.226 1.613-.334 2.737-.334.76.013 1.402.05 2.078.188L9.6 8.37c-.707-.147-1.434-.179-2.117-.192-1.125.004-1.999.109-2.746.338-.476.14-.786.302-.802.407Z" fill="#000"/><path fill-rule="evenodd" clip-rule="evenodd" d="m10.948 8.977-.293.476-.842-.785-2.186-1.543-2.464-1.419-1.279-.458.274-.53.092-.055.795.209 2.622 1.42 1.51 1 1.271.959.516.626-.016.1Z" fill="#FF0"/><path d="M10.655 9.465c-.004 0-.004 0-.008-.004l-.842-.784L7.62 7.133 5.156 5.715 3.88 5.256c-.003 0-.003-.004-.007-.008-.004-.003 0-.007 0-.007l.274-.53.004-.004.091-.055h.008l.795.209L7.67 6.279l1.51 1 1.271.96.516.626a.012.012 0 0 1 .004.008l-.016.1v.004l-.294.475c.001.013-.004.013-.008.013ZM3.9 5.24l1.268.455 2.463 1.419 2.185 1.543.835.777.286-.463.016-.092-.512-.622-1.272-.96-1.51-1-2.623-1.42-.786-.204-.088.05-.262.517Z" fill="#000"/><path fill-rule="evenodd" clip-rule="evenodd" d="M3.836 5.26c.222-.158 1.871.613 3.6 1.702 1.72 1.097 3.365 2.332 3.214 2.565l-.048.08-.023.016c.003-.004.028-.033-.004-.12-.072-.254-1.24-1.23-3.174-2.458-1.888-1.181-3.457-1.894-3.616-1.69l.05-.095Zm7.172 3.709c.142-.296-1.387-1.503-3.282-2.682-1.94-1.155-3.337-1.836-3.592-1.631l-.055.109c0 .004.003-.008.016-.017.048-.042.123-.042.16-.042.44.008 1.695.614 3.456 1.674.77.472 3.262 2.148 3.25 2.62 0 .041.004.05-.012.071l.06-.102Z" fill="#FF0"/><path d="M10.583 9.64c-.004 0-.008 0-.008-.003-.003-.004-.003-.013.004-.017 0 0 .024-.03-.007-.109-.076-.26-1.308-1.273-3.17-2.453C5.421 5.82 3.94 5.185 3.8 5.364c-.004.004-.012.004-.016.004-.004-.004-.007-.008-.004-.017l.048-.1.004-.004c.235-.167 1.888.614 3.611 1.703 1.55.985 3.155 2.164 3.226 2.516.004.024.004.05-.007.066l-.048.079s0 .004-.004.004l-.024.017c0 .005-.003.009-.003.009ZM3.896 5.316c.434 0 1.895.709 3.516 1.723 1.892 1.197 3.104 2.194 3.18 2.465a.226.226 0 0 1 .015.08l.036-.059a.063.063 0 0 0 .004-.045c-.072-.339-1.712-1.54-3.219-2.5-1.68-1.064-3.349-1.856-3.583-1.706l-.029.059a.16.16 0 0 1 .08-.017Zm7.048 3.767c-.003 0-.003 0-.007-.004s-.007-.013-.004-.017l.008-.008c.003-.007.003-.016.003-.037V9c.008-.467-2.527-2.17-3.245-2.607C5.942 5.336 4.687 4.726 4.246 4.72h-.008c-.035 0-.103 0-.143.037-.007.004-.007.013-.012.013-.004.004-.008.008-.016.008-.004 0-.008-.008-.008-.013V4.76l.056-.109s0-.004.004-.004c.306-.242 2.13.75 3.603 1.631 1.713 1.064 3.445 2.37 3.287 2.699l-.056.092c-.001.005-.005.009-.008.013.007 0 .003 0 0 0ZM4.246 4.697c.444.007 1.705.617 3.464 1.677.509.308 3.265 2.116 3.258 2.629v.008L11 8.96c.131-.272-1.311-1.445-3.278-2.667-2.07-1.23-3.342-1.811-3.58-1.631l-.028.054c.043-.02.095-.02.127-.02h.005Z" fill="#000"/><path d="M5.107 7.459c0 .68.267 1.294.695 1.74.43.45 1.014.733 1.66.733.652 0 1.24-.28 1.67-.726.43-.445.691-1.068.691-1.747V4.155L5.107 4.15v3.308Z" fill="#fff"/><path d="M7.464 9.95c-.623 0-1.216-.264-1.669-.74a2.533 2.533 0 0 1-.699-1.735V4.142l4.745.004v3.317c0 .664-.247 1.284-.695 1.756a2.32 2.32 0 0 1-1.682.73ZM5.12 7.445v.013c0 .65.247 1.268.691 1.732.45.472 1.037.73 1.653.73a2.27 2.27 0 0 0 1.66-.722 2.489 2.489 0 0 0 .688-1.727v-3.3L5.12 4.168v3.278Z" fill="#000"/><path d="M5.195 7.463c0 .651.255 1.243.668 1.674.414.429.978.696 1.598.696.623 0 1.187-.267 1.597-.692.409-.43.663-1.018.663-1.669V4.268H5.2l-.004 3.195Zm3.616-2.24V7.48a1.418 1.418 0 0 1-.393.997 1.33 1.33 0 0 1-.952.413c-.37 0-.7-.163-.946-.42a1.46 1.46 0 0 1-.398-.998V5.22l2.69.004Z" fill="red"/><path d="M7.46 9.841c-.604 0-1.171-.25-1.605-.7a2.41 2.41 0 0 1-.671-1.678h.02c0 .626.234 1.214.662 1.66.429.446.994.693 1.59.693.6 0 1.163-.247 1.588-.693.425-.442.66-1.03.66-1.656V4.263h-4.5L5.2 7.455h-.02l.004-3.212h4.542v3.216a2.41 2.41 0 0 1-.668 1.677 2.154 2.154 0 0 1-1.598.705Zm0-.938c-.353 0-.691-.15-.953-.425a1.473 1.473 0 0 1-.401-1.006V5.206h.012l2.701.004.004.004v2.262c0 .058-.004.125-.007.179-.036.312-.17.6-.39.83a1.353 1.353 0 0 1-.966.418ZM6.124 5.227V7.47c0 .366.144.73.398.992.258.271.592.418.942.418.358 0 .695-.147.95-.414.214-.225.349-.51.384-.818.008-.054.008-.116.008-.175V5.231l-2.682-.004Z" fill="#000"/><path d="M5.489 5.097c.003-.23.162-.284.162-.284s.167.058.167.288l-.33-.004Z" fill="#FF0"/><path d="m5.354 4.818-.028.263h.163c0-.216.159-.254.163-.254.003 0 .159.05.163.254h.166l-.028-.267-.599.004Z" fill="#FF0"/><path d="M5.501 5.093h-.186l.028-.28.004-.007h.612l.032.287h-.186v-.007c-.004-.2-.15-.247-.156-.247 0 0-.147.03-.15.247l.002.007Zm.326-.02h.143l-.028-.247H5.68a.281.281 0 0 1 .147.246Zm-.489 0h.143a.287.287 0 0 1 .088-.213c.016-.017.036-.025.052-.034h-.258l-.025.247Z" fill="#000"/><path d="M5.319 5.085h.671c.016 0 .024.017.024.034s-.013.033-.024.033h-.67c-.017 0-.024-.016-.024-.033-.005-.022.007-.034.024-.034Z" fill="#FF0"/><path d="M5.99 5.16h-.672c-.02 0-.036-.02-.036-.04 0-.025.017-.042.036-.042h.672c.02 0 .036.02.036.041 0 .02-.016.042-.036.042Zm-.672-.067c-.007 0-.016.008-.016.021 0 .013.008.02.016.02h.672c.007 0 .016-.007.016-.02 0-.013-.007-.02-.016-.02h-.672Z" fill="#000"/><path d="M5.56 5.082c0-.138.092-.18.092-.175 0 0 .091.041.095.175H5.56Z" fill="#FF0"/><path d="M5.756 5.093H5.56V5.08h-.013c0-.088.036-.141.068-.167 0 0 .029-.02.036-.02.007 0 .099.045.104.187v.013Zm-.183-.02h.163c-.004-.104-.068-.147-.084-.155-.016.008-.075.046-.079.154Z" fill="#000"/><path d="M5.33 4.71h.644c.012 0 .023.012.023.029s-.012.03-.023.03H5.33c-.013 0-.024-.013-.024-.03-.001-.017.011-.03.024-.03Z" fill="#FF0"/><path d="M5.978 4.777h-.644c-.02 0-.035-.017-.035-.041 0-.021.016-.042.035-.042h.644c.02 0 .035.017.035.042-.003.024-.02.041-.035.041ZM5.33 4.72c-.008 0-.016.007-.016.02 0 .013.007.021.016.021h.643c.007 0 .016-.008.016-.02 0-.014-.007-.021-.016-.021H5.33Z" fill="#000"/><path d="M5.345 4.768h.617c.012 0 .023.013.023.03 0 .016-.012.03-.023.03h-.617c-.012 0-.023-.014-.023-.03 0-.017.009-.03.023-.03Z" fill="#FF0"/><path d="M5.962 4.835h-.616c-.02 0-.032-.016-.032-.041 0-.02.016-.042.032-.042h.616c.02 0 .032.017.032.042s-.012.041-.032.041Zm-.62-.058c-.007 0-.012.008-.012.02 0 .009.007.022.012.022h.616c.008 0 .013-.008.013-.021 0-.008-.008-.02-.013-.02h-.616Z" fill="#000"/><path d="M5.544 4.326h.048v.037h.036v-.037h.052v.037h.036v-.037h.052v.083c0 .013-.013.02-.02.02h-.175c-.013 0-.024-.007-.024-.02l-.005-.083Z" fill="#FF0"/><path d="M5.744 4.439h-.176c-.016 0-.032-.017-.032-.034v-.088l.008-.004h.063v.038h.016v-.038h.071v.038h.016v-.038h.072v.096c-.006.017-.022.03-.038.03Zm-.19-.105v.071c0 .004.007.013.012.013h.175a.013.013 0 0 0 .012-.013V4.33h-.032v.037h-.055V4.33h-.032v.037h-.056V4.33l-.025.004Z" fill="#000"/><path d="m5.727 4.438.012.271h-.17l.012-.27h.146Z" fill="#FF0"/><path d="M5.747 4.719h-.19l.012-.292h.167l.011.292Zm-.17-.022h.15l-.012-.25h-.13l-.008.25Z" fill="#000"/><path d="m5.517 4.563.004.146h-.163l.004-.146h.155Z" fill="#FF0"/><path d="m5.35 4.719.005-.168h.175l.004.168H5.35Zm.024-.147-.003.126h.143l-.004-.126h-.136Z" fill="#000"/><path d="m5.939 4.563.003.146H5.78l.004-.146h.156Z" fill="#FF0"/><path d="m5.772 4.719.003-.168h.176l.003.168h-.182Zm.023-.147-.004.126h.144l-.004-.126h-.136Z" fill="#000"/><path d="M5.335 4.456h.048v.037h.036v-.037h.048v.037h.036v-.037h.048v.083c0 .012-.007.02-.02.02h-.173c-.012 0-.023-.008-.023-.02v-.083Z" fill="#FF0"/><path d="M5.528 4.572h-.17c-.016 0-.032-.017-.032-.033V4.45l.007-.003h.059v.037h.016v-.037h.068v.037h.016v-.037h.068v.095c0 .017-.016.03-.032.03Zm-.186-.105v.072c0 .003.003.013.012.013h.17c.004 0 .013-.004.013-.013v-.076h-.029v.038h-.055v-.038h-.029v.038H5.37v-.038l-.028.004Z" fill="#000"/><path d="M5.756 4.456h.048v.037h.036v-.037h.048v.037h.036v-.037h.048v.083c0 .012-.008.02-.02.02h-.17c-.013 0-.024-.008-.024-.02l-.002-.083Z" fill="#FF0"/><path d="M5.95 4.572h-.17c-.016 0-.032-.017-.032-.033V4.45l.007-.003h.06v.037h.016v-.037h.068v.037h.016v-.037h.068v.095a.034.034 0 0 1-.032.03Zm-.182-.105v.072c0 .003.003.013.012.013h.17c.004 0 .013-.004.013-.013v-.076h-.029v.038H5.88v-.038h-.03v.038h-.056v-.038l-.027.004Zm-.132.055c0-.025.036-.025.036 0v.062h-.036v-.062Zm-.21.092c0-.025.032-.025.032 0v.05h-.032v-.05Zm.421 0c0-.025.032-.025.032 0v.05h-.032v-.05Z" fill="#000"/><path d="M5.489 7.03c.003-.23.162-.284.162-.284s.167.058.167.287l-.33-.004Z" fill="#FF0"/><path d="m5.354 6.75-.028.263h.163c0-.217.159-.254.163-.254.003 0 .159.05.163.254h.166l-.028-.267-.599.003Z" fill="#FF0"/><path d="M5.501 7.025h-.186l.028-.28.004-.008h.612l.032.288h-.186v-.008c-.004-.2-.15-.246-.156-.246 0 0-.147.03-.15.246l.002.008Zm.326-.02h.143l-.028-.247H5.68a.281.281 0 0 1 .147.246Zm-.489 0h.143a.287.287 0 0 1 .088-.213c.016-.017.036-.025.052-.034h-.258l-.025.246Z" fill="#000"/><path d="M5.319 7.017h.671c.016 0 .024.017.024.033 0 .017-.013.034-.024.034h-.67c-.017 0-.024-.017-.024-.034-.005-.02.007-.033.024-.033Z" fill="#FF0"/><path d="M5.99 7.092h-.672c-.02 0-.036-.02-.036-.041 0-.025.017-.042.036-.042h.672c.02 0 .036.021.036.042 0 .02-.016.041-.036.041Zm-.672-.067c-.007 0-.016.008-.016.02 0 .013.008.021.016.021h.672c.007 0 .016-.008.016-.02 0-.013-.007-.021-.016-.021h-.672Z" fill="#000"/><path d="M5.56 7.013c0-.138.092-.179.092-.175 0 0 .091.041.095.175H5.56Z" fill="#FF0"/><path d="M5.756 7.024H5.56v-.012h-.013c0-.089.036-.142.068-.168 0 0 .029-.02.036-.02.007 0 .099.045.104.188v.012Zm-.183-.02h.163c-.004-.104-.068-.147-.084-.155-.016.01-.075.047-.079.155Z" fill="#000"/><path d="M5.33 6.64h.644c.012 0 .023.014.023.03 0 .017-.012.03-.023.03H5.33c-.013 0-.024-.013-.024-.03-.001-.016.011-.03.024-.03Z" fill="#FF0"/><path d="M5.978 6.708h-.644c-.02 0-.035-.016-.035-.041 0-.02.016-.042.035-.042h.644c.02 0 .035.017.035.042-.003.025-.02.041-.035.041ZM5.33 6.65c-.008 0-.016.008-.016.02 0 .014.007.022.016.022h.643c.007 0 .016-.008.016-.021 0-.013-.007-.02-.016-.02H5.33Z" fill="#000"/><path d="M5.345 6.7h.617c.012 0 .023.012.023.029s-.012.03-.023.03h-.617c-.012 0-.023-.013-.023-.03s.009-.03.023-.03Z" fill="#FF0"/><path d="M5.962 6.767h-.616c-.02 0-.032-.017-.032-.041 0-.021.016-.042.032-.042h.616c.02 0 .032.017.032.042 0 .024-.012.041-.032.041Zm-.62-.058c-.007 0-.012.008-.012.02 0 .008.007.021.012.021h.616c.008 0 .013-.007.013-.02 0-.008-.008-.021-.013-.021h-.616Z" fill="#000"/><path d="M5.544 6.257h.048v.038h.036v-.038h.052v.038h.036v-.038h.052v.083c0 .013-.013.021-.02.021h-.175c-.013 0-.024-.008-.024-.02l-.005-.084Z" fill="#FF0"/><path d="M5.744 6.374h-.176c-.016 0-.032-.017-.032-.034v-.088l.008-.004h.063v.038h.016v-.038h.071v.038h.016v-.038h.072v.096c-.006.013-.022.03-.038.03Zm-.19-.104v.071c0 .004.007.013.012.013h.175a.012.012 0 0 0 .012-.013v-.075h-.032v.038h-.055v-.038h-.032v.038h-.056v-.038l-.025.004Z" fill="#000"/><path d="m5.727 6.37.012.27h-.17l.012-.27h.146Z" fill="#FF0"/><path d="M5.747 6.65h-.19l.012-.292h.167l.011.292Zm-.17-.02h.15l-.012-.251h-.13l-.008.25Z" fill="#000"/><path d="m5.517 6.496.004.146h-.163l.004-.146h.155Z" fill="#FF0"/><path d="m5.35 6.65.005-.167h.175l.004.167H5.35Zm.024-.147-.003.126h.143l-.004-.126h-.136Z" fill="#000"/><path d="m5.939 6.496.003.146H5.78l.004-.146h.156Z" fill="#FF0"/><path d="m5.772 6.65.003-.167h.176l.003.167h-.182Zm.023-.147-.004.126h.144l-.004-.126h-.136Z" fill="#000"/><path d="M5.335 6.39h.048v.038h.036v-.037h.048v.037h.036v-.037h.048v.083c0 .013-.007.02-.02.02h-.173c-.012 0-.023-.007-.023-.02V6.39Z" fill="#FF0"/><path d="M5.528 6.504h-.17c-.016 0-.032-.017-.032-.034v-.088l.007-.004h.059v.037h.016v-.037h.068v.037h.016v-.037h.068v.096c0 .017-.016.03-.032.03ZM5.342 6.4v.071c0 .004.003.013.012.013h.17c.004 0 .013-.004.013-.013v-.075h-.029v.038h-.055v-.038h-.029v.038H5.37v-.038l-.028.004Z" fill="#000"/><path d="M5.756 6.39h.048v.038h.036v-.037h.048v.037h.036v-.037h.048v.083c0 .013-.008.02-.02.02h-.17c-.013 0-.024-.007-.024-.02l-.002-.083Z" fill="#FF0"/><path d="M5.95 6.504h-.17c-.016 0-.032-.017-.032-.034v-.088l.007-.004h.06v.037h.016v-.037h.068v.037h.016v-.037h.068v.096a.034.034 0 0 1-.032.03ZM5.769 6.4v.071c0 .004.003.013.012.013h.17c.004 0 .013-.004.013-.013v-.075h-.029v.038H5.88v-.038h-.03v.038h-.056v-.038l-.027.004Zm-.133.053c0-.025.036-.025.036 0v.062h-.036v-.062Zm-.21.096c0-.025.032-.025.032 0v.05h-.032v-.05Zm.421 0c0-.025.032-.025.032 0v.05h-.032v-.05Z" fill="#000"/><path d="M6.209 9.044c-.15-.167-.08-.321-.08-.321s.16-.083.314.079l-.234.242Z" fill="#FF0"/><path d="m5.922 8.944.16.209.114-.12c-.146-.155-.059-.297-.059-.301.004-.004.143-.083.287.058l.114-.12-.202-.168-.414.442Z" fill="#FF0"/><path d="m6.081 9.165-.166-.216-.004-.008.004-.004.424-.451.219.179-.131.137-.007-.008c-.14-.137-.275-.058-.275-.058s-.083.133.06.284l.007.008-.13.137Zm-.147-.22.147.192.104-.11c-.075-.082-.088-.163-.079-.216a.205.205 0 0 1 .016-.062l-.188.196Zm.31-.25c.048 0 .115.016.183.079l.104-.11-.187-.154-.187.201a.304.304 0 0 1 .075-.017h.012Z" fill="#000"/><path d="m6.073 9.16.473-.5c.012-.012.028-.007.04.004.011.013.011.034.003.042l-.473.5c-.012.013-.028.008-.04-.004-.01-.011-.01-.032-.003-.041Z" fill="#FF0"/><path d="M6.101 9.223c-.012 0-.02-.004-.032-.013a.045.045 0 0 1-.004-.058l.473-.5c.007-.008.016-.014.028-.008.013 0 .02.004.029.013a.045.045 0 0 1 .004.058l-.473.5a.05.05 0 0 1-.025.008Zm-.02-.053c-.007.008-.003.02.004.03.007.008.02.008.028.004l.473-.5c.008-.009.004-.021-.003-.03-.004-.004-.008-.008-.017-.008-.003 0-.007 0-.012.004l-.473.5Z" fill="#000"/><path d="M6.244 8.977c-.091-.096-.056-.192-.056-.192s.092-.042.187.054l-.131.138Z" fill="#FF0"/><path d="m6.248 8.99-.007-.008a.22.22 0 0 1-.068-.158c0-.017.004-.042.012-.046h.004c.004 0 .099-.041.195.059l.007.008-.143.145Zm-.052-.196a.192.192 0 0 0 .048.171l.115-.12c-.071-.076-.143-.06-.163-.05Z" fill="#000"/><path d="m5.831 8.886.453-.48c.008-.007.029-.007.036.005.012.013.012.03.004.037l-.453.48c-.008.008-.029.008-.036-.004-.011-.013-.016-.03-.004-.038Z" fill="#FF0"/><path d="M5.854 8.945a.043.043 0 0 1-.028-.013c-.016-.017-.016-.042-.004-.055l.453-.48c.008-.007.016-.007.024-.007.012 0 .02.004.028.013.016.017.016.041.004.054l-.452.475c-.009.009-.016.013-.025.013Zm-.016-.05c-.003.003-.003.016.004.024a.018.018 0 0 0 .024.004l.453-.48c.003-.004.003-.017-.004-.025-.004-.003-.007-.003-.012-.003-.004 0-.008 0-.008.003l-.457.476Z" fill="#000"/><path d="m5.879 8.914.433-.459c.008-.007.024-.007.036.004.012.013.012.03.004.038l-.434.459c-.007.008-.023.008-.035-.004-.013-.008-.013-.025-.004-.038Z" fill="#FF0"/><path d="M5.902 8.973a.043.043 0 0 1-.028-.013.04.04 0 0 1-.004-.054l.433-.459c.013-.013.036-.013.052.004.008.008.013.02.013.03a.063.063 0 0 1-.008.024l-.434.46c-.004.008-.011.008-.024.008Zm.43-.513c-.004 0-.008 0-.008.004l-.433.459c-.004.004-.004.017.004.024a.018.018 0 0 0 .023.004l.434-.459c.003-.003.003-.007.003-.007a.034.034 0 0 0-.007-.017c-.009-.003-.012-.008-.016-.008Z" fill="#000"/><path d="m5.724 8.455.035-.037.024.025.023-.025-.023-.025.036-.037.023.024.024-.024-.024-.025.036-.038.056.059c.007.008.007.02 0 .033l-.124.13c-.007.008-.023.008-.032 0l-.054-.06Z" fill="#FF0"/><path d="M5.792 8.53a.03.03 0 0 1-.02-.007l-.063-.066.007-.008.008.008-.008-.008.04-.041.023.024.013-.013-.024-.024.048-.05.024.024.012-.013-.023-.025.048-.05.063.066a.034.034 0 0 1 .007.02.063.063 0 0 1-.007.025l-.124.13a.041.041 0 0 1-.024.009Zm-.056-.074.048.05c.004.004.013.004.016 0l.124-.13c.004-.003.004-.003.004-.007s0-.004-.004-.008l-.048-.05-.02.02.023.025-.04.041-.023-.024-.02.02.024.025-.04.041-.023-.024-.02.02Z" fill="#000"/><path d="m5.926 8.397.19.18-.12.125-.175-.196.105-.109Z" fill="#FF0"/><path d="m5.994 8.723-.187-.213.12-.126.203.196-.136.143Zm-.16-.213.16.184.107-.113-.175-.167-.091.096Z" fill="#000"/><path d="m5.863 8.644.104.1-.115.12-.095-.104.106-.116Z" fill="#FF0"/><path d="m5.85 8.877-.107-.12.124-.13.114.113-.13.137Zm-.078-.12.079.092.098-.11-.087-.082-.09.1Z" fill="#000"/><path d="m6.16 8.326.104.1-.115.12-.095-.103.106-.117Z" fill="#FF0"/><path d="m6.15 8.565-.108-.121.124-.13.115.113-.131.138Zm-.084-.121.079.092.099-.109-.088-.083-.09.1Z" fill="#000"/><path d="m5.664 8.705.032-.033.024.024.023-.024-.023-.025.035-.037.024.024.023-.024-.023-.025.036-.038.055.059c.008.007.008.02 0 .03l-.12.13c-.007.007-.023.007-.032 0l-.054-.06Z" fill="#FF0"/><path d="M5.736 8.781a.031.031 0 0 1-.02-.007l-.063-.066.008-.008.007.008-.007-.008.04-.042.023.025.012-.013-.023-.025.048-.05.023.024.013-.013-.024-.024.048-.05.063.065a.032.032 0 0 1 0 .046l-.12.13a.076.076 0 0 1-.028.008Zm-.06-.075.049.05a.01.01 0 0 0 .016 0l.12-.129c.003-.004.003-.013 0-.017l-.048-.05-.02.02.023.025-.04.042-.023-.025-.02.02.024.025-.04.044-.025-.025-.015.02Z" fill="#000"/><path d="m5.962 8.393.032-.033.023.024.024-.024-.024-.025.036-.038.024.025.023-.025-.023-.024.036-.038.055.058a.024.024 0 0 1 0 .03l-.12.13c-.007.008-.023.008-.032 0l-.054-.06Z" fill="#FF0"/><path d="M6.03 8.465a.031.031 0 0 1-.02-.008l-.06-.062v-.008l.044-.045.023.024.012-.013-.023-.024.048-.05.024.024.012-.013-.024-.025.049-.05.063.066a.033.033 0 0 1 0 .045l-.12.13c-.009.009-.021.009-.029.009Zm-.056-.072.048.051a.012.012 0 0 0 .016 0l.12-.13c.004-.003.004-.013 0-.016l-.048-.051-.02.02.023.025-.04.042-.023-.025-.02.021.024.025-.04.041-.023-.025-.017.022Zm-.052.134c-.02-.017.008-.046.024-.025l.043.045-.024.025-.043-.045Zm-.087.22c-.016-.016.007-.041.023-.024l.033.034-.024.024-.032-.034Zm.299-.312c-.017-.017.007-.042.023-.025l.032.034-.023.025-.032-.034Z" fill="#000"/><path d="M7.305 5.097c.003-.23.163-.284.163-.284s.166.058.166.288l-.33-.004Z" fill="#FF0"/><path d="m7.17 4.818-.028.263h.163c0-.216.16-.254.163-.254.003 0 .159.05.163.254h.166l-.028-.267-.599.004Z" fill="#FF0"/><path d="M7.317 5.093h-.186l.028-.284h.616l.032.288h-.186V5.09c-.004-.2-.15-.246-.156-.246 0 0-.147.03-.15.246l.002.004Zm.326-.02h.143l-.028-.247h-.262a.32.32 0 0 1 .063.046.287.287 0 0 1 .084.2Zm-.489 0h.143a.287.287 0 0 1 .088-.213c.016-.017.036-.025.052-.034h-.258l-.025.246Z" fill="#000"/><path d="M7.134 5.085h.672c.016 0 .024.017.024.034s-.013.033-.024.033h-.672c-.016 0-.023-.016-.023-.033-.005-.022.007-.034.023-.034Z" fill="#FF0"/><path d="M7.806 5.16h-.672c-.02 0-.036-.02-.036-.04 0-.025.016-.042.036-.042h.672c.02 0 .036.02.036.041 0 .02-.016.042-.036.042Zm-.672-.067c-.007 0-.016.008-.016.021 0 .013.008.02.016.02h.672c.007 0 .016-.007.016-.02 0-.013-.008-.02-.016-.02h-.672Z" fill="#000"/><path d="M7.376 5.082c0-.138.092-.18.092-.175 0 0 .09.041.095.175h-.187Z" fill="#FF0"/><path d="M7.571 5.093h-.195V5.08h-.012c0-.088.036-.141.068-.167 0 0 .028-.02.035-.02.008 0 .1.045.104.187v.013Zm-.183-.02h.163c-.003-.104-.067-.147-.084-.155-.016.008-.075.046-.079.154Z" fill="#000"/><path d="M7.146 4.71h.644c.012 0 .023.012.023.029s-.012.03-.023.03h-.643c-.013 0-.024-.013-.024-.03s.011-.03.023-.03Z" fill="#FF0"/><path d="M7.794 4.777h-.643c-.02 0-.036-.017-.036-.041 0-.021.016-.042.036-.042h.643c.02 0 .036.017.036.042-.004.024-.02.041-.036.041Zm-.648-.058c-.007 0-.016.007-.016.02 0 .013.007.021.016.021h.645c.007 0 .016-.008.016-.02 0-.014-.008-.021-.016-.021h-.645Z" fill="#000"/><path d="M7.162 4.768h.616c.012 0 .023.013.023.03 0 .016-.012.03-.023.03h-.616c-.013 0-.024-.014-.024-.03 0-.017.008-.03.024-.03Z" fill="#FF0"/><path d="M7.778 4.835h-.616c-.02 0-.032-.016-.032-.041 0-.02.016-.042.032-.042h.616c.02 0 .032.017.032.042s-.012.041-.032.041Zm-.616-.058c-.007 0-.012.008-.012.02 0 .009.007.022.012.022h.616c.007 0 .012-.008.012-.021 0-.008-.007-.02-.012-.02h-.616Z" fill="#000"/><path d="M7.36 4.326h.049v.037h.036v-.037h.052v.037h.035v-.037h.052v.083c0 .013-.012.02-.02.02H7.39c-.012 0-.023-.007-.023-.02l-.005-.083Z" fill="#FF0"/><path d="M7.56 4.439h-.176c-.016 0-.032-.017-.032-.034v-.088l.007-.004h.064v.038h.015v-.038h.072v.038h.016v-.038h.072v.096c-.006.017-.022.03-.039.03Zm-.19-.105v.071c0 .004.007.013.012.013h.174c.003 0 .012-.004.012-.013V4.33h-.032v.037H7.48V4.33h-.032v.037h-.055V4.33l-.024.004Z" fill="#000"/><path d="m7.543 4.438.012.271h-.17l.012-.27h.146Z" fill="#FF0"/><path d="M7.563 4.719h-.19l.013-.292h.166l.011.292Zm-.17-.022h.15l-.012-.25h-.13l-.008.25Z" fill="#000"/><path d="m7.337 4.563.004.146h-.163l.004-.146h.155Z" fill="#FF0"/><path d="m7.165 4.719.004-.168h.175l.004.168h-.183Zm.025-.147-.004.126h.143l-.003-.126H7.19Z" fill="#000"/><path d="m7.758 4.563.004.146h-.163l.004-.146h.155Z" fill="#FF0"/><path d="m7.588 4.719.003-.168h.174l.004.168h-.181Zm.023-.147-.004.126h.144l-.004-.126H7.61Z" fill="#000"/><path d="M7.15 4.456h.05v.037h.036v-.037h.048v.037h.036v-.037h.048v.083c0 .012-.007.02-.02.02h-.17c-.013 0-.024-.008-.024-.02l-.002-.083Z" fill="#FF0"/><path d="M7.344 4.572h-.17c-.016 0-.032-.017-.032-.033V4.45l.007-.003h.06v.037h.016v-.037h.067v.037h.017v-.037h.067v.095c0 .017-.016.03-.032.03Zm-.182-.105v.072c0 .003.003.013.012.013h.17c.004 0 .013-.004.013-.013v-.076h-.029v.038h-.055v-.038h-.029v.038H7.19v-.038l-.027.004Z" fill="#000"/><path d="M7.572 4.456h.048v.037h.035v-.037h.049v.037h.035v-.037h.049v.083c0 .012-.008.02-.02.02h-.17c-.013 0-.024-.008-.024-.02l-.002-.083Z" fill="#FF0"/><path d="M7.765 4.572h-.17c-.016 0-.032-.017-.032-.033V4.45l.007-.003h.059v.037h.016v-.037h.068v.037h.016v-.037h.068v.095c0 .017-.016.03-.032.03Zm-.183-.105v.072c0 .003.004.013.013.013h.17a.013.013 0 0 0 .012-.013v-.076H7.75v.038h-.056v-.038h-.027v.038h-.055v-.038l-.029.004Zm-.13.055c0-.025.036-.025.036 0v.062h-.036v-.062Zm-.211.092c0-.025.033-.025.033 0v.05H7.24v-.05Zm.422 0c0-.025.032-.025.032 0v.05h-.032v-.05Z" fill="#000"/><path d="M9.438 5.097c-.004-.23-.163-.284-.163-.284s-.167.058-.167.288l.33-.004Z" fill="#FF0"/><path d="m9.574 4.818.028.263H9.44c0-.216-.159-.254-.163-.254-.003 0-.159.05-.163.254h-.166l.028-.267.599.004Z" fill="#FF0"/><path d="M9.427 5.093v-.007c0-.213-.15-.247-.15-.247s-.147.046-.151.247v.007h-.188l.032-.287h.616v.007l.029.275-.188.005Zm-.469-.02h.143a.275.275 0 0 1 .147-.245h-.262l-.028.245Zm.346-.247c.016.008.035.017.052.034.039.034.087.096.087.213h.143l-.023-.243-.26-.004Z" fill="#000"/><path d="M9.61 5.085h-.672c-.016 0-.023.017-.023.034s.012.033.023.033h.672c.016 0 .023-.016.023-.033.004-.022-.007-.034-.023-.034Z" fill="#FF0"/><path d="M9.61 5.16h-.672c-.02 0-.036-.02-.036-.04 0-.025.016-.042.036-.042h.672c.02 0 .035.02.035.041 0 .02-.016.042-.035.042Zm-.672-.067c-.008 0-.016.008-.016.021 0 .013.007.02.016.02h.672c.007 0 .016-.007.016-.02 0-.013-.008-.02-.016-.02h-.672Z" fill="#000"/><path d="M9.366 5.082c0-.138-.091-.18-.091-.175 0 0-.091.041-.095.175h.186Z" fill="#FF0"/><path d="M9.375 5.093h-.202V5.08c0-.141.095-.188.104-.188.008 0 .035.021.035.021.032.025.068.075.068.167l-.005.013Zm-.182-.02h.163c-.004-.11-.068-.147-.08-.155-.012.004-.08.046-.083.154Z" fill="#000"/><path d="M9.598 4.71h-.643c-.013 0-.024.012-.024.029s.013.03.024.03h.643c.012 0 .023-.013.023-.03s-.01-.03-.023-.03Z" fill="#FF0"/><path d="M9.598 4.777h-.644c-.02 0-.035-.017-.035-.041 0-.021.016-.042.035-.042h.644c.02 0 .036.017.036.042 0 .024-.017.041-.036.041ZM8.95 4.72c-.008 0-.016.007-.016.02 0 .013.007.021.016.021h.643c.007 0 .016-.008.016-.02 0-.014-.008-.021-.016-.021H8.95Z" fill="#000"/><path d="M9.582 4.768h-.616c-.013 0-.024.013-.024.03 0 .016.012.03.024.03h.616c.012 0 .023-.014.023-.03 0-.017-.007-.03-.023-.03Z" fill="#FF0"/><path d="M9.581 4.835h-.616c-.02 0-.032-.016-.032-.041 0-.02.016-.042.032-.042h.616c.02 0 .032.017.032.042.004.025-.012.041-.032.041Zm-.616-.058c-.007 0-.012.008-.012.02 0 .009.007.022.012.022h.616c.008 0 .013-.008.013-.021 0-.008-.008-.02-.013-.02h-.616Z" fill="#000"/><path d="M9.383 4.326h-.049v.037H9.3v-.037h-.052v.037H9.21v-.037h-.05v.083c0 .013.012.02.02.02h.174c.013 0 .024-.007.024-.02l.004-.083Z" fill="#FF0"/><path d="M9.36 4.439h-.176c-.02 0-.032-.013-.032-.034v-.096h.071v.038h.017v-.038h.071v.038h.016v-.038h.063l.008.004V4.4c-.003.025-.019.038-.039.038Zm-.187-.105v.075c0 .008.007.013.012.013h.175c.008 0 .013-.004.013-.013v-.072h-.029v.038H9.29v-.038h-.032v.038H9.2v-.038h-.028v-.003Z" fill="#000"/><path d="m9.2 4.438-.012.271h.17l-.012-.27H9.2Z" fill="#FF0"/><path d="m9.18 4.719.012-.292h.167l.012.292H9.18Zm.028-.273-.012.25h.15l-.012-.25h-.126Z" fill="#000"/><path d="m9.411 4.563-.004.146h.163l-.003-.146H9.41Z" fill="#FF0"/><path d="M9.577 4.719h-.182l.007-.168h.175v.168Zm-.162-.022h.143l-.004-.126h-.135l-.004.126Z" fill="#000"/><path d="m8.985 4.563-.004.146h.163l-.003-.146h-.156Z" fill="#FF0"/><path d="M9.157 4.719h-.183l.008-.168h.175v.168Zm-.163-.022h.143l-.004-.126H9l-.005.126Z" fill="#000"/><path d="M9.594 4.456h-.048v.037H9.51v-.037h-.048v.037h-.036v-.037h-.048v.083c0 .012.007.02.02.02h.17c.012 0 .023-.008.023-.02l.003-.083Z" fill="#FF0"/><path d="M9.57 4.572h-.171a.033.033 0 0 1-.032-.034v-.096h.068v.038h.016v-.038h.068v.038h.016v-.038h.06l.007.004v.089c0 .024-.012.037-.033.037Zm-.183-.105v.075c0 .008.003.013.012.013h.17c.008 0 .013-.004.013-.013v-.07h-.029v.038h-.055v-.038h-.029v.038h-.055v-.038l-.027-.005Z" fill="#000"/><path d="M9.173 4.456h-.049v.037H9.09v-.037h-.05v.037h-.035v-.037h-.048v.083c0 .012.007.02.02.02h.17c.013 0 .024-.008.024-.02l.002-.083Z" fill="#FF0"/><path d="M9.149 4.572h-.17a.033.033 0 0 1-.033-.034v-.096h.068v.038h.016v-.038h.068v.038h.016v-.038h.06l.007.004v.089c0 .024-.013.037-.032.037Zm-.183-.105v.075c0 .008.004.013.012.013h.17c.008 0 .013-.004.013-.013v-.07h-.029v.038h-.055v-.038H9.05v.038h-.056v-.038l-.028-.005Zm.326.055c0-.025-.036-.025-.036 0v.062h.036v-.062Zm.21.092c0-.025-.032-.025-.032 0v.05h.032v-.05Zm-.42 0c0-.025-.032-.025-.032 0v.05h.032v-.05Z" fill="#000"/><path d="M9.438 7.03c-.004-.23-.163-.284-.163-.284s-.167.058-.167.287l.33-.004Z" fill="#FF0"/><path d="m9.574 6.75.028.263H9.44c0-.217-.159-.254-.163-.254-.003 0-.159.05-.163.254h-.166l.028-.267.599.003Z" fill="#FF0"/><path d="M9.427 7.025v-.008c0-.213-.15-.246-.15-.246s-.147.045-.151.246v.008h-.188l.032-.288h.616v.008l.029.275-.188.005Zm-.469-.02h.143a.275.275 0 0 1 .147-.246h-.262l-.028.245Zm.346-.247c.016.008.035.017.052.034.039.033.087.095.087.212h.143l-.023-.242-.26-.004Z" fill="#000"/><path d="M9.61 7.017h-.672c-.016 0-.023.017-.023.033 0 .017.012.034.023.034h.672c.016 0 .023-.017.023-.034.004-.02-.007-.033-.023-.033Z" fill="#FF0"/><path d="M9.61 7.092h-.672c-.02 0-.036-.02-.036-.041 0-.025.016-.042.036-.042h.672c.02 0 .035.021.035.042 0 .02-.016.041-.035.041Zm-.672-.067c-.008 0-.016.008-.016.02 0 .013.007.021.016.021h.672c.007 0 .016-.008.016-.02 0-.013-.008-.021-.016-.021h-.672Z" fill="#000"/><path d="M9.366 7.013c0-.138-.091-.179-.091-.175 0 0-.091.041-.095.175h.186Z" fill="#FF0"/><path d="M9.375 7.024h-.202v-.012c0-.142.095-.188.104-.188.008 0 .035.02.035.02.032.025.068.075.068.168l-.005.012Zm-.182-.02h.163c-.004-.11-.068-.147-.08-.155-.012.004-.08.047-.083.155Z" fill="#000"/><path d="M9.598 6.64h-.643c-.013 0-.024.014-.024.03 0 .017.013.03.024.03h.643c.012 0 .023-.013.023-.03 0-.016-.01-.03-.023-.03Z" fill="#FF0"/><path d="M9.598 6.708h-.644c-.02 0-.035-.016-.035-.041 0-.02.016-.042.035-.042h.644c.02 0 .036.017.036.042s-.017.041-.036.041ZM8.95 6.65c-.008 0-.016.008-.016.02 0 .014.007.022.016.022h.643c.007 0 .016-.008.016-.021 0-.013-.008-.02-.016-.02H8.95Z" fill="#000"/><path d="M9.582 6.7h-.616c-.013 0-.024.012-.024.029s.012.03.024.03h.616c.012 0 .023-.013.023-.03s-.007-.03-.023-.03Z" fill="#FF0"/><path d="M9.581 6.767h-.616c-.02 0-.032-.017-.032-.041 0-.021.016-.042.032-.042h.616c.02 0 .032.017.032.042.004.024-.012.041-.032.041Zm-.616-.058c-.007 0-.012.008-.012.02 0 .008.007.021.012.021h.616c.008 0 .013-.007.013-.02 0-.008-.008-.021-.013-.021h-.616Z" fill="#000"/><path d="M9.383 6.257h-.049v.038H9.3v-.038h-.052v.038H9.21v-.038h-.05v.083c0 .013.012.021.02.021h.174c.013 0 .024-.008.024-.02l.004-.084Z" fill="#FF0"/><path d="M9.36 6.374h-.176c-.02 0-.032-.013-.032-.034v-.096h.071v.038h.017v-.038h.071v.038h.016v-.034h.063l.008.004v.088a.04.04 0 0 1-.039.034Zm-.187-.108v.076c0 .007.007.013.012.013h.175c.008 0 .013-.004.013-.013V6.27h-.029v.038H9.29V6.27h-.032v.038H9.2V6.27h-.028v-.004Z" fill="#000"/><path d="m9.2 6.37-.012.27h.17l-.012-.27H9.2Z" fill="#FF0"/><path d="m9.18 6.65.012-.292h.167l.012.292H9.18Zm.028-.272-.012.25h.15l-.012-.25h-.126Z" fill="#000"/><path d="m9.411 6.496-.004.146h.163l-.003-.146H9.41Z" fill="#FF0"/><path d="M9.577 6.65h-.182l.007-.167h.175v.167Zm-.162-.02h.143l-.004-.127h-.135l-.004.126Z" fill="#000"/><path d="m8.985 6.496-.004.146h.163l-.003-.146h-.156Z" fill="#FF0"/><path d="M9.157 6.65h-.183l.008-.167h.175v.167Zm-.163-.02h.143l-.004-.127H9l-.005.126Z" fill="#000"/><path d="M9.594 6.39h-.048v.038H9.51v-.037h-.048v.037h-.036v-.037h-.048v.083c0 .013.007.02.02.02h.17c.012 0 .023-.007.023-.02l.003-.083Z" fill="#FF0"/><path d="M9.57 6.504h-.171a.033.033 0 0 1-.032-.034v-.096h.068v.038h.016v-.038h.068v.038h.016v-.038h.06l.007.004v.088c0 .025-.012.038-.033.038ZM9.386 6.4v.075c0 .008.003.013.012.013h.17c.008 0 .013-.004.013-.013v-.07h-.029v.037h-.055v-.038h-.029v.038h-.055v-.038L9.387 6.4Z" fill="#000"/><path d="M9.173 6.39h-.049v.038H9.09v-.037h-.05v.037h-.035v-.037h-.048v.083c0 .013.007.02.02.02h.17c.013 0 .024-.007.024-.02l.002-.083Z" fill="#FF0"/><path d="M9.149 6.504h-.17a.033.033 0 0 1-.033-.034v-.096h.068v.038h.016v-.038h.068v.038h.016v-.038h.06l.007.004v.088c0 .025-.013.038-.032.038ZM8.966 6.4v.075c0 .008.004.013.012.013h.17c.008 0 .013-.004.013-.013v-.07h-.029v.037h-.055v-.038H9.05v.038h-.056v-.038L8.966 6.4Zm.326.053c0-.025-.036-.025-.036 0v.062h.036v-.062Zm.21.096c0-.025-.032-.025-.032 0v.05h.032v-.05Zm-.42 0c0-.025-.032-.025-.032 0v.05h.032v-.05Z" fill="#000"/><path d="M8.72 9.044c.15-.167.079-.321.079-.321s-.16-.083-.314.079l.235.242Z" fill="#FF0"/><path d="m9.005 8.944-.16.209-.114-.12c.147-.155.06-.297.06-.301-.005-.004-.144-.083-.287.058l-.115-.12.202-.168.414.442Z" fill="#FF0"/><path d="m8.847 9.165-.131-.137.007-.008c.143-.15.06-.284.06-.284s-.135-.08-.275.058l-.007.008-.13-.137.218-.18.433.46-.004.007-.171.213Zm-.104-.137.104.109.147-.192-.183-.192a.249.249 0 0 1 .016.062.285.285 0 0 1-.084.213Zm-.342-.363.104.109a.247.247 0 0 1 .27-.063l-.183-.197-.191.15Z" fill="#000"/><path d="m8.854 9.16-.473-.5c-.012-.012-.028-.007-.04.004-.012.013-.012.034-.003.042l.473.5c.012.013.028.008.04-.004.012-.011.012-.032.003-.041Z" fill="#FF0"/><path d="M8.827 9.223a.056.056 0 0 1-.023-.008l-.473-.5a.045.045 0 0 1 .004-.058.037.037 0 0 1 .028-.013c.012 0 .02.004.028.008l.473.5a.045.045 0 0 1-.004.058.067.067 0 0 1-.033.013Zm-.465-.562a.022.022 0 0 0-.016.007c-.008.008-.008.021-.004.03l.473.5c.007.008.02.005.028-.003s.008-.021.004-.03l-.473-.5c-.004 0-.009-.004-.012-.004Z" fill="#000"/><path d="M8.68 8.977c.092-.096.056-.192.056-.192s-.092-.042-.187.054l.131.138Z" fill="#FF0"/><path d="m8.68 8.99-.143-.15.007-.009c.095-.1.19-.058.195-.058h.004c.003.004.007.03.012.046a.21.21 0 0 1-.068.158l-.007.013Zm-.116-.15.115.12c.071-.08.055-.15.048-.171-.016-.004-.088-.02-.163.05Z" fill="#000"/><path d="m9.098 8.886-.454-.48c-.007-.007-.028-.007-.035.005-.013.013-.013.03-.004.037l.453.48c.007.008.028.008.036-.004.011-.013.011-.03.004-.038Z" fill="#FF0"/><path d="M9.073 8.945a.056.056 0 0 1-.024-.008l-.453-.48c-.012-.013-.012-.037.004-.054a.037.037 0 0 1 .028-.013c.008 0 .016.004.024.008l.453.48c.012.012.012.037-.004.054a.034.034 0 0 1-.028.013Zm-.448-.538c-.004 0-.008.004-.013.004a.02.02 0 0 0-.003.024l.453.48c.003.004.016.004.023-.004a.02.02 0 0 0 .004-.025l-.453-.48c-.004.005-.008 0-.011 0Z" fill="#000"/><path d="m9.05 8.914-.434-.459c-.008-.007-.024-.007-.036.004-.012.013-.012.03-.004.038l.434.459c.007.008.023.008.036-.004a.034.034 0 0 0 .003-.038Z" fill="#FF0"/><path d="M9.021 8.973a.056.056 0 0 1-.023-.008l-.433-.459a.038.038 0 0 1-.008-.024.04.04 0 0 1 .012-.03c.008-.008.017-.013.024-.013.012 0 .02.004.023.008l.434.458c.012.013.012.038-.004.055-.005.009-.012.013-.025.013Zm-.424-.513a.03.03 0 0 0-.016.007c-.004.004-.008.008-.008.017 0 .004 0 .004.004.008l.433.459c.004.004.016.004.024-.004a.02.02 0 0 0 .003-.025l-.433-.457c0-.005-.004-.005-.007-.005Z" fill="#000"/><path d="m9.204 8.455-.036-.037-.024.025-.023-.025.023-.025-.035-.037-.024.024-.023-.024.023-.025-.036-.038-.055.059c-.008.008-.008.02 0 .033l.123.13a.024.024 0 0 0 .032 0l.055-.06Z" fill="#FF0"/><path d="M9.137 8.53a.056.056 0 0 1-.023-.007l-.124-.13c-.007-.007-.007-.016-.007-.024s.003-.017.007-.021l.063-.066.048.05-.023.025.012.013.024-.025.048.051-.024.025.013.013.023-.025.043.045.004.008-.06.062c-.008.003-.017.007-.024.007Zm-.088-.225-.048.05c-.004.005-.004.005-.004.009 0 .003 0 .007.004.007l.124.13c.003.004.012.004.016 0l.048-.05-.02-.021-.023.024-.04-.041.024-.025-.02-.02-.024.024-.04-.041.024-.025-.02-.02Z" fill="#000"/><path d="m9.001 8.397-.19.18.12.125.175-.196-.105-.109Z" fill="#FF0"/><path d="m8.93 8.722-.135-.14.203-.197.12.126-.188.211Zm-.103-.14.108.112.159-.184-.091-.096-.176.167Z" fill="#000"/><path d="m9.061 8.644-.103.1.115.12.095-.104-.107-.116Z" fill="#FF0"/><path d="m9.077 8.877-.131-.137.111-.104.008.008.007-.008.007.008.108.113-.11.12Zm-.103-.137.1.109.078-.092-.095-.1-.083.083Z" fill="#000"/><path d="m8.767 8.326-.104.1.115.12.095-.103-.106-.117Z" fill="#FF0"/><path d="m8.779 8.565-.131-.138.115-.113.123.13-.107.12Zm-.099-.138.099.109.079-.092-.095-.1-.083.083Z" fill="#000"/><path d="m9.265 8.705-.032-.033-.024.024-.023-.024.023-.025-.036-.037-.023.024-.024-.024.024-.025-.036-.038-.055.059c-.008.007-.008.02 0 .03l.12.13c.007.007.023.007.031 0l.055-.06Z" fill="#FF0"/><path d="M9.193 8.781a.056.056 0 0 1-.023-.008l-.12-.13a.03.03 0 0 1 0-.045l.063-.066.048.05-.024.025.013.013.023-.024.048.05-.023.025.012.013.024-.025.043.046v.007l-.06.063c-.008.002-.017.006-.024.006Zm-.08-.22-.048.05c-.004.004-.004.013 0 .017l.12.13c.003.004.012.004.015 0l.049-.05-.02-.022-.024.025-.04-.041.024-.025-.02-.02-.023.024-.04-.042.024-.024-.017-.022Z" fill="#000"/><path d="m8.966 8.393-.032-.033-.024.024-.023-.024.023-.025-.036-.038-.023.025-.024-.025.024-.024-.036-.038-.056.058a.024.024 0 0 0 0 .03l.12.13a.024.024 0 0 0 .032 0l.055-.06Z" fill="#FF0"/><path d="M8.898 8.465a.056.056 0 0 1-.023-.008l-.12-.13a.033.033 0 0 1 0-.045l.063-.066.048.05-.023.025.012.013.024-.025.048.051-.024.025.013.013.023-.025.043.045-.003.008-.06.058c-.01.01-.013.01-.02.01Zm-.084-.218-.048.05c-.003.004-.003.014 0 .017l.12.13a.012.012 0 0 0 .016 0l.048-.05-.02-.021-.023.024-.04-.041.024-.025-.02-.02-.023.024-.04-.041.024-.025-.018-.022Zm.191.28c.02-.017-.008-.046-.024-.025l-.043.045.024.025.043-.045Zm.087.22c.016-.016-.007-.041-.023-.024l-.032.034.023.024.032-.034Zm-.297-.312c.016-.017-.007-.042-.023-.025l-.032.034.023.025.032-.034Z" fill="#000"/><path d="M7.174 7.1a.35.35 0 0 0 .088.237.28.28 0 0 0 .211.1.279.279 0 0 0 .211-.1.355.355 0 0 0 .088-.237v-.45h-.596v.45" fill="#039"/><path d="M7.312 6.883a.06.06 0 0 0 .06-.062.06.06 0 0 0-.06-.062.06.06 0 0 0-.06.062.06.06 0 0 0 .06.062Zm.331 0a.06.06 0 0 0 .06-.062.06.06 0 0 0-.06-.062.06.06 0 0 0-.059.062.06.06 0 0 0 .06.062Zm-.168.167a.06.06 0 0 0 .06-.063.06.06 0 0 0-.06-.062.06.06 0 0 0-.06.062.06.06 0 0 0 .06.062Zm-.163.176a.06.06 0 0 0 .06-.063.06.06 0 0 0-.06-.062.06.06 0 0 0-.06.062.06.06 0 0 0 .06.063Zm.331 0a.06.06 0 0 0 .06-.063.06.06 0 0 0-.06-.062.06.06 0 0 0-.059.062.06.06 0 0 0 .06.063Z" fill="#fff"/><path d="M7.174 6.015a.35.35 0 0 0 .088.237c.056.063.127.1.211.1a.279.279 0 0 0 .211-.1.355.355 0 0 0 .088-.237v-.451h-.596v.451" fill="#039"/><path d="M7.312 5.798a.06.06 0 0 0 .06-.062.06.06 0 0 0-.06-.062.06.06 0 0 0-.06.062.06.06 0 0 0 .06.062Zm.331 0a.06.06 0 0 0 .06-.062.06.06 0 0 0-.06-.062.06.06 0 0 0-.059.062.06.06 0 0 0 .06.062Zm-.168.168a.06.06 0 0 0 .06-.062.06.06 0 0 0-.06-.063.06.06 0 0 0-.06.063.06.06 0 0 0 .06.062Zm-.163.174a.06.06 0 0 0 .06-.061.06.06 0 0 0-.06-.063.06.06 0 0 0-.06.063.06.06 0 0 0 .06.062Zm.331 0a.06.06 0 0 0 .06-.061.06.06 0 0 0-.06-.063.06.06 0 0 0-.059.063.06.06 0 0 0 .06.062Z" fill="#fff"/><path d="M6.347 7.1c0 .092.032.175.087.237a.28.28 0 0 0 .211.1.279.279 0 0 0 .212-.1.355.355 0 0 0 .087-.237v-.45h-.596v.45" fill="#039"/><path d="M6.486 6.883a.06.06 0 0 0 .06-.062.06.06 0 0 0-.06-.062.06.06 0 0 0-.059.062.06.06 0 0 0 .06.062Zm.33 0a.06.06 0 0 0 .06-.062.06.06 0 0 0-.06-.062.06.06 0 0 0-.059.062.06.06 0 0 0 .06.062Zm-.166.167a.06.06 0 0 0 .059-.063.06.06 0 0 0-.06-.062.06.06 0 0 0-.059.062.06.06 0 0 0 .06.062Zm-.164.176a.06.06 0 0 0 .06-.063.06.06 0 0 0-.06-.062.06.06 0 0 0-.059.062.06.06 0 0 0 .06.063Zm.33 0a.06.06 0 0 0 .06-.063.06.06 0 0 0-.06-.062.06.06 0 0 0-.059.062.06.06 0 0 0 .06.063Z" fill="#fff"/><path d="M8 7.1a.35.35 0 0 0 .088.237c.055.062.127.1.21.1a.279.279 0 0 0 .212-.1.355.355 0 0 0 .088-.237v-.45H8v.45Z" fill="#039"/><path d="M8.136 6.883a.06.06 0 0 0 .059-.062.06.06 0 0 0-.06-.062.06.06 0 0 0-.059.062.06.06 0 0 0 .06.062Zm.33 0a.06.06 0 0 0 .059-.062.06.06 0 0 0-.06-.062.06.06 0 0 0-.059.062.06.06 0 0 0 .06.062Zm-.164.167a.06.06 0 0 0 .06-.063.06.06 0 0 0-.06-.062.06.06 0 0 0-.059.062.06.06 0 0 0 .06.062Zm-.166.176a.06.06 0 0 0 .059-.063.06.06 0 0 0-.06-.062.06.06 0 0 0-.059.062.06.06 0 0 0 .06.063Zm.33 0a.06.06 0 0 0 .059-.063.06.06 0 0 0-.06-.062.06.06 0 0 0-.059.062.06.06 0 0 0 .06.063Z" fill="#fff"/><path d="M7.174 8.177a.35.35 0 0 0 .088.237c.056.063.127.1.211.1a.279.279 0 0 0 .211-.1.355.355 0 0 0 .088-.237v-.451h-.596v.451" fill="#039"/><path d="M7.312 7.959a.06.06 0 0 0 .06-.062.06.06 0 0 0-.06-.063.06.06 0 0 0-.06.063.06.06 0 0 0 .06.062Zm.331 0a.06.06 0 0 0 .06-.062.06.06 0 0 0-.06-.063.06.06 0 0 0-.059.063.06.06 0 0 0 .06.062Zm-.168.167a.06.06 0 0 0 .06-.062.06.06 0 0 0-.06-.062.06.06 0 0 0-.06.062.06.06 0 0 0 .06.062Zm-.163.175a.06.06 0 0 0 .06-.062.06.06 0 0 0-.06-.062.06.06 0 0 0-.06.062.06.06 0 0 0 .06.062Zm.331 0a.06.06 0 0 0 .06-.062.06.06 0 0 0-.06-.062.06.06 0 0 0-.059.062.06.06 0 0 0 .06.062Z" fill="#fff"/></svg>
