<svg viewBox="0 0 20 14" fill="none" xmlns="http://www.w3.org/2000/svg"><path d="M21.821-1.378H-2.117v16.757H21.82V-1.378Z" fill="#E30A17"/><path d="M6.36 11.19c2.204 0 3.99-1.876 3.99-4.19 0-2.314-1.786-4.19-3.99-4.19-2.203 0-3.99 1.876-3.99 4.19 0 2.314 1.787 4.19 3.99 4.19Z" fill="#fff"/><path d="M7.358 10.35c1.763 0 3.191-1.5 3.191-3.35S9.121 3.649 7.36 3.649c-1.763 0-3.192 1.5-3.192 3.35 0 1.852 1.429 3.352 3.191 3.352Z" fill="#E30A17"/><path d="m9.52 7 3.608 1.232-2.23-3.224v3.985l2.23-3.224L9.52 7Z" fill="#fff"/></svg>
