<svg viewBox="0 0 20 20" fill="none" xmlns="http://www.w3.org/2000/svg"><path d="M15.167 18.333a.656.656 0 0 1-.457-.186.628.628 0 0 1-.19-.447v-1.845a.627.627 0 0 0-.19-.448.655.655 0 0 0-.914 0 .626.626 0 0 0-.19.448v.876a.627.627 0 0 1-.19.448.654.654 0 0 1-.914 0 .626.626 0 0 1-.19-.448v-.876a.627.627 0 0 0-.19-.448.654.654 0 0 0-.914 0 .627.627 0 0 0-.19.448v.238c0 .169-.068.33-.19.449a.655.655 0 0 1-.915 0 .627.627 0 0 1-.19-.449v-.238a.627.627 0 0 0-.19-.448.655.655 0 0 0-.915 0 .627.627 0 0 0-.19.448v.876a.627.627 0 0 1-.189.448.654.654 0 0 1-.915 0 .627.627 0 0 1-.19-.448v-.876a.627.627 0 0 0-.189-.448.655.655 0 0 0-.915 0 .627.627 0 0 0-.19.448V17.7a.627.627 0 0 1-.189.448.654.654 0 0 1-.915 0 .627.627 0 0 1-.19-.448V7.243a5.641 5.641 0 0 1 1.367-3.54A5.861 5.861 0 0 1 8.86 1.777a5.948 5.948 0 0 1 3.827.532 5.763 5.763 0 0 1 2.648 2.757c.311.687.48 1.427.497 2.177a.042.042 0 0 1-.019.04V17.7a.628.628 0 0 1-.19.447.655.655 0 0 1-.457.186ZM9.336 8.905c-.165 0-.231.062-.231.216 0 .374.422.678.941.678.52 0 .94-.304.94-.678 0-.153-.066-.216-.23-.216a2.033 2.033 0 0 0-.262.026l-.008.002a3.144 3.144 0 0 1-.44.04 3.161 3.161 0 0 1-.44-.04 2.015 2.015 0 0 0-.27-.028Zm2.816-3.077c-.572 0-1.038.522-1.038 1.164 0 .642.466 1.163 1.038 1.163.573 0 1.037-.522 1.037-1.163s-.465-1.164-1.037-1.164Zm-4.305 0c-.571 0-1.036.522-1.036 1.164 0 .642.465 1.163 1.036 1.163.572 0 1.037-.522 1.037-1.163S8.42 5.828 7.847 5.828Z" fill="currentcolor"/></svg>