<svg viewBox="0 0 20 20" xmlns="http://www.w3.org/2000/svg">
<path d="M10.8333 17.5V19.1667H9.16667V17.5H2.50001C2.27899 17.5 2.06703 17.4122 1.91075 17.2559C1.75447 17.0996 1.66667 16.8877 1.66667 16.6667V3.33334C1.66667 3.11232 1.75447 2.90036 1.91075 2.74408C2.06703 2.5878 2.27899 2.5 2.50001 2.5H7.50001C7.97299 2.49944 8.44066 2.5998 8.87177 2.79437C9.30289 2.98895 9.68752 3.27327 10 3.62834C10.3125 3.27327 10.6971 2.98895 11.1282 2.79437C11.5594 2.5998 12.027 2.49944 12.5 2.5H17.5C17.721 2.5 17.933 2.5878 18.0893 2.74408C18.2455 2.90036 18.3333 3.11232 18.3333 3.33334V16.6667C18.3333 16.8877 18.2455 17.0996 18.0893 17.2559C17.933 17.4122 17.721 17.5 17.5 17.5H10.8333ZM16.6667 15.8333V4.16667H12.5C12.058 4.16667 11.6341 4.34226 11.3215 4.65482C11.0089 4.96738 10.8333 5.39131 10.8333 5.83334V15.8333H16.6667ZM9.16667 15.8333V5.83334C9.16667 5.39131 8.99108 4.96738 8.67852 4.65482C8.36596 4.34226 7.94203 4.16667 7.50001 4.16667H3.33334V15.8333H9.16667Z" />
</svg>
