<svg viewBox="0 0 20 20" xmlns="http://www.w3.org/2000/svg">
<g clip-path="url(#clip0_526_11112)">
<path d="M10 18.3334C5.39752 18.3334 1.66669 14.6026 1.66669 10.0001C1.66669 5.39758 5.39752 1.66675 10 1.66675C11.2939 1.66578 12.5702 1.96656 13.7275 2.5452C14.8847 3.12384 15.8911 3.9644 16.6667 5.00008H14.4084C13.446 4.15155 12.2593 3.59872 10.9906 3.40792C9.7219 3.21712 8.42508 3.39646 7.25576 3.92443C6.08644 4.45239 5.09431 5.30655 4.39841 6.38441C3.70251 7.46226 3.33241 8.71802 3.33252 10.001C3.33263 11.284 3.70294 12.5397 4.39901 13.6174C5.09509 14.6952 6.08737 15.5492 7.25677 16.0769C8.42618 16.6047 9.72303 16.7838 10.9917 16.5928C12.2604 16.4018 13.447 15.8488 14.4092 15.0001H16.6675C15.8919 16.0359 14.8854 16.8765 13.7279 17.4552C12.5705 18.0338 11.294 18.3345 10 18.3334ZM15.8334 13.3334V10.8334H9.16669V9.16675H15.8334V6.66675L20 10.0001L15.8334 13.3334Z" />
</g>
<defs>
<clipPath id="clip0_526_11112">
<rect width="20" height="20" />
</clipPath>
</defs>
</svg>
