<svg viewBox="0 0 20 20" xmlns="http://www.w3.org/2000/svg"><path d="M16.238 4.137a14.845 14.845 0 0 0-3.664-1.136.056.056 0 0 0-.059.028c-.158.281-.334.648-.456.937a13.703 13.703 0 0 0-4.115 0 9.483 9.483 0 0 0-.464-.937A.058.058 0 0 0 7.422 3c-1.286.221-2.516.61-3.664 1.136a.052.052 0 0 0-.024.021C1.4 7.644.76 11.045 1.074 14.403a.062.062 0 0 0 .024.042 14.926 14.926 0 0 0 4.494 2.273.058.058 0 0 0 .064-.021c.346-.473.654-.972.92-1.496a.057.057 0 0 0-.032-.08 9.831 9.831 0 0 1-1.404-.668.058.058 0 0 1-.006-.096 7.67 7.67 0 0 0 .279-.219.056.056 0 0 1 .058-.008c2.946 1.345 6.135 1.345 9.046 0a.056.056 0 0 1 .06.008 7.7 7.7 0 0 0 .279.219.058.058 0 0 1-.005.096 9.228 9.228 0 0 1-1.405.668.057.057 0 0 0-.03.08c.27.524.578 1.022.918 1.495.014.02.04.029.063.021a14.877 14.877 0 0 0 4.502-2.272.058.058 0 0 0 .023-.041c.376-3.883-.628-7.255-2.66-10.245a.046.046 0 0 0-.024-.022Zm-9.223 8.221c-.887 0-1.618-.814-1.618-1.814S6.114 8.73 7.015 8.73c.908 0 1.632.821 1.618 1.814 0 1-.717 1.814-1.618 1.814Zm5.981 0c-.887 0-1.618-.814-1.618-1.814s.717-1.814 1.618-1.814c.908 0 1.632.821 1.618 1.814 0 1-.71 1.814-1.618 1.814Z"/></svg>
