<svg viewBox="0 0 20 20" xmlns="http://www.w3.org/2000/svg">
  <path fill-rule="evenodd" clip-rule="evenodd" d="M3 3C2.73478 3 2.48043 3.10536 2.29289 3.29289C2.10536 3.48043 2 3.73478 2 4V16C2 16.2652 2.10536 16.5196 2.29289 16.7071C2.48043 16.8946 2.73478 17 3 17C3.26522 17 3.51957 16.8946 3.70711 16.7071C3.89464 16.5196 4 16.2652 4 16V4C4 3.73478 3.89464 3.48043 3.70711 3.29289C3.51957 3.10536 3.26522 3 3 3ZM13.293 12.293C13.1108 12.4816 13.01 12.7342 13.0123 12.9964C13.0146 13.2586 13.1198 13.5094 13.3052 13.6948C13.4906 13.8802 13.7414 13.9854 14.0036 13.9877C14.2658 13.99 14.5184 13.8892 14.707 13.707L17.707 10.707C17.8945 10.5195 17.9998 10.2652 17.9998 10C17.9998 9.73484 17.8945 9.48053 17.707 9.293L14.707 6.293C14.6148 6.19749 14.5044 6.12131 14.3824 6.0689C14.2604 6.01649 14.1292 5.9889 13.9964 5.98775C13.8636 5.9866 13.7319 6.0119 13.609 6.06218C13.4861 6.11246 13.3745 6.18671 13.2806 6.2806C13.1867 6.3745 13.1125 6.48615 13.0622 6.60905C13.0119 6.73194 12.9866 6.86362 12.9877 6.9964C12.9889 7.12918 13.0165 7.2604 13.0689 7.3824C13.1213 7.50441 13.1975 7.61475 13.293 7.707L14.586 9H7C6.73478 9 6.48043 9.10536 6.29289 9.29289C6.10536 9.48043 6 9.73478 6 10C6 10.2652 6.10536 10.5196 6.29289 10.7071C6.48043 10.8946 6.73478 11 7 11H14.586L13.293 12.293Z" />
</svg>