<svg viewBox="0 0 36 37" fill="none" xmlns="http://www.w3.org/2000/svg"><circle cx="18" cy="18.5" r="18" fill="#fff"/><path d="M27.372 9.717A22.302 22.302 0 0 0 21.802 8c-.264.471-.502.956-.714 1.453a20.707 20.707 0 0 0-6.182 0c-.212-.497-.45-.982-.714-1.453a22.458 22.458 0 0 0-5.574 1.72c-3.526 5.226-4.481 10.321-4.003 15.344a22.438 22.438 0 0 0 6.831 3.436 16.543 16.543 0 0 0 1.464-2.364 14.523 14.523 0 0 1-2.305-1.102c.194-.14.383-.285.565-.425a16.024 16.024 0 0 0 13.66 0c.184.15.373.295.565.425a14.58 14.58 0 0 1-2.309 1.104c.42.828.91 1.618 1.463 2.362a22.338 22.338 0 0 0 6.836-3.434c.56-5.825-.958-10.873-4.013-15.35ZM13.515 21.975c-1.332 0-2.432-1.21-2.432-2.7 0-1.489 1.062-2.71 2.428-2.71 1.365 0 2.457 1.221 2.433 2.71-.023 1.49-1.072 2.7-2.43 2.7Zm8.97 0c-1.334 0-2.43-1.21-2.43-2.7 0-1.489 1.063-2.71 2.43-2.71 1.368 0 2.45 1.221 2.427 2.71-.023 1.49-1.07 2.7-2.427 2.7Z" fill="#000"/></svg>
