<svg viewBox="0 0 36 37" fill="none" xmlns="http://www.w3.org/2000/svg"><g clip-path="url(#a)"><circle cx="17.999" cy="19.1" r="16.8" fill="#000"/><path fill-rule="evenodd" clip-rule="evenodd" d="M18.015.5C8.053.5 0 8.635 0 18.7c0 8.045 5.16 14.855 12.318 17.265.895.182 1.223-.391 1.223-.873 0-.422-.03-1.868-.03-3.375-5.01 1.085-6.055-2.17-6.055-2.17-.805-2.109-1.998-2.651-1.998-2.651-1.64-1.115.12-1.115.12-1.115 1.819.12 2.773 1.868 2.773 1.868 1.61 2.772 4.206 1.989 5.25 1.507.149-1.175.626-1.989 1.133-2.44-3.997-.423-8.202-1.99-8.202-8.98 0-1.99.715-3.616 1.849-4.882-.179-.452-.805-2.32.18-4.821 0 0 1.52-.482 4.95 1.868a17.274 17.274 0 0 1 4.504-.603c1.521 0 3.072.212 4.503.603 3.43-2.35 4.952-1.868 4.952-1.868.984 2.5.357 4.37.178 4.821 1.164 1.266 1.85 2.893 1.85 4.881 0 6.991-4.206 8.528-8.232 8.98.656.573 1.223 1.657 1.223 3.375 0 2.44-.03 4.4-.03 5.002 0 .482.328 1.055 1.223.874C30.84 33.555 36 26.746 36 18.7 36.03 8.635 27.947.5 18.015.5Z" fill="#fff"/></g><defs><clipPath id="a"><path fill="#fff" transform="translate(0 .5)" d="M0 0h36v36H0z"/></clipPath></defs></svg>
