<svg width="23" height="22" viewBox="0 0 23 22" fill="none" xmlns="http://www.w3.org/2000/svg">
<path d="M11.0767 0.000267279C8.45139 -0.0180258 5.90613 0.903236 3.90074 2.59761C1.89536 4.29198 0.562107 6.64772 0.141865 9.23922C-0.278378 11.8307 0.242104 14.4871 1.60927 16.7283C2.97644 18.9696 5.10014 20.648 7.59667 21.4603C8.14667 21.5503 8.32667 21.1803 8.32667 20.9103V19.0703C5.29667 19.7103 4.65667 17.6103 4.65667 17.6103C4.10667 16.3203 3.37667 15.9603 3.37667 15.9603C2.45667 15.3103 3.47667 15.3103 3.47667 15.3103C4.57667 15.3103 5.20667 16.4103 5.20667 16.4103C6.12667 18.0603 7.77667 17.6103 8.41667 17.3303C8.41618 17.0543 8.47278 16.7813 8.58292 16.5283C8.69307 16.2753 8.85436 16.0479 9.05667 15.8603C6.58667 15.5903 4.01667 14.6703 4.01667 10.3603C4.01667 9.26027 4.47667 8.26027 5.21667 7.52027C5.02057 7.05674 4.91953 6.55857 4.91953 6.05527C4.91953 5.55197 5.02057 5.05379 5.21667 4.59027C5.21667 4.59027 6.12667 4.31027 8.32667 5.69027C10.1267 5.20027 12.0267 5.20027 13.8267 5.69027C15.9267 4.31027 16.8467 4.59027 16.8467 4.59027C17.0428 5.05379 17.1438 5.55197 17.1438 6.05527C17.1438 6.55857 17.0428 7.05674 16.8467 7.52027C17.6767 8.26027 18.0467 9.26027 18.0467 10.4603C18.0467 14.6703 15.4767 15.5903 13.0067 15.8603C13.4567 16.2303 13.8267 16.7803 13.8267 17.8803V20.9103C13.8267 21.1803 13.9267 21.5503 14.5567 21.4603C17.0532 20.648 19.1769 18.9696 20.5441 16.7283C21.9112 14.4871 22.4317 11.8307 22.0115 9.23922C21.5912 6.64772 20.258 4.29198 18.2526 2.59761C16.2472 0.903236 13.702 -0.0180258 11.0767 0.000267279Z" fill="white"/>
</svg>
