<svg width="14" height="14" viewBox="0 0 14 14" fill="none" xmlns="http://www.w3.org/2000/svg"><g clip-path="url(#a)" fill="#845EEE"><path d="M6.074 6.457c-.18.303-2.984.354-4.514-.504-1.53-.858-.787-3.48.765-4.168 1.552-.688 3.93 4.37 3.75 4.672Zm-.021 1.05c.18.302-1.177 2.686-2.707 3.543-1.53.858-3.498-1.078-3.336-2.727.162-1.65 5.863-1.118 6.043-.816Zm.926.543c.36 0 1.807 2.332 1.807 4.047 0 1.715-2.71 2.4-4.101 1.44-1.39-.96 1.934-5.488 2.294-5.488Zm.947-.507c.18-.303 2.984-.353 4.514.504 1.53.858.787 3.48-.765 4.168-1.552.689-3.93-4.37-3.75-4.672Zm.021-1.05c-.18-.302 1.177-2.685 2.707-3.543 1.53-.857 3.498 1.078 3.336 2.727-.162 1.65-5.863 1.118-6.043.816Zm-.926-.543c-.36 0-1.807-2.332-1.807-4.047 0-1.715 2.71-2.4 4.101-1.44 1.39.96-1.934 5.488-2.294 5.488Z"/></g><defs><clipPath id="a"><path fill="#fff" d="M0 0h14v14H0z"/></clipPath></defs></svg>
