<svg viewBox="0 0 20 20" xmlns="http://www.w3.org/2000/svg">
<path d="M11 3C10.7347 3 10.4804 3.10536 10.2929 3.29289C10.1053 3.48043 9.99996 3.73478 9.99996 4C9.99996 4.26522 10.1053 4.51957 10.2929 4.70711C10.4804 4.89464 10.7347 5 11 5H13.586L7.29296 11.293C7.19745 11.3852 7.12127 11.4956 7.06886 11.6176C7.01645 11.7396 6.98886 11.8708 6.98771 12.0036C6.98655 12.1364 7.01186 12.2681 7.06214 12.391C7.11242 12.5139 7.18667 12.6255 7.28056 12.7194C7.37446 12.8133 7.48611 12.8875 7.60901 12.9378C7.7319 12.9881 7.86358 13.0134 7.99636 13.0123C8.12914 13.0111 8.26036 12.9835 8.38236 12.9311C8.50437 12.8787 8.61471 12.8025 8.70696 12.707L15 6.414V9C15 9.26522 15.1053 9.51957 15.2929 9.70711C15.4804 9.89464 15.7347 10 16 10C16.2652 10 16.5195 9.89464 16.7071 9.70711C16.8946 9.51957 17 9.26522 17 9V4C17 3.73478 16.8946 3.48043 16.7071 3.29289C16.5195 3.10536 16.2652 3 16 3H11Z" />
<path d="M5 5C4.46957 5 3.96086 5.21071 3.58579 5.58579C3.21071 5.96086 3 6.46957 3 7V15C3 15.5304 3.21071 16.0391 3.58579 16.4142C3.96086 16.7893 4.46957 17 5 17H13C13.5304 17 14.0391 16.7893 14.4142 16.4142C14.7893 16.0391 15 15.5304 15 15V12C15 11.7348 14.8946 11.4804 14.7071 11.2929C14.5196 11.1054 14.2652 11 14 11C13.7348 11 13.4804 11.1054 13.2929 11.2929C13.1054 11.4804 13 11.7348 13 12V15H5V7H8C8.26522 7 8.51957 6.89464 8.70711 6.70711C8.89464 6.51957 9 6.26522 9 6C9 5.73478 8.89464 5.48043 8.70711 5.29289C8.51957 5.10536 8.26522 5 8 5H5Z" />
</svg>
