<svg viewBox="0 0 20 20" xmlns="http://www.w3.org/2000/svg">
<path d="M1.66669 15H7.50002V16.6667H1.66669V15ZM1.66669 9.16671H9.16669V10.8334H1.66669V9.16671ZM1.66669 3.33337H18.3334V5.00004H1.66669V3.33337ZM17.2284 10.8542L18.1917 10.5284L19.025 11.9717L18.2617 12.6425C18.3578 13.0981 18.3578 13.5687 18.2617 14.0242L19.025 14.695L18.1917 16.1384L17.2284 15.8125C16.8867 16.1209 16.48 16.3584 16.0325 16.5042L15.8334 17.5H14.1667L13.9667 16.5034C13.5244 16.3588 13.1173 16.1232 12.7717 15.8117L11.8084 16.1384L10.975 14.695L11.7384 14.0242C11.6423 13.5687 11.6423 13.0981 11.7384 12.6425L10.975 11.9717L11.8084 10.5284L12.7717 10.8542C13.1134 10.5459 13.52 10.3084 13.9675 10.1625L14.1667 9.16671H15.8334L16.0334 10.1634C16.48 10.3084 16.8867 10.5467 17.2284 10.855V10.8542ZM15 15C15.442 15 15.866 14.8244 16.1785 14.5119C16.4911 14.1993 16.6667 13.7754 16.6667 13.3334C16.6667 12.8913 16.4911 12.4674 16.1785 12.1549C15.866 11.8423 15.442 11.6667 15 11.6667C14.558 11.6667 14.1341 11.8423 13.8215 12.1549C13.5089 12.4674 13.3334 12.8913 13.3334 13.3334C13.3334 13.7754 13.5089 14.1993 13.8215 14.5119C14.1341 14.8244 14.558 15 15 15Z" />
</svg>
