<svg viewBox="0 0 22 22" xmlns="http://www.w3.org/2000/svg">
  <path fill-rule="evenodd" clip-rule="evenodd" d="M12.6389 3.4872C12.2209 1.7712 9.77892 1.7712 9.36092 3.4872C9.29851 3.74505 9.17611 3.98453 9.00366 4.18615C8.83122 4.38776 8.61361 4.54581 8.36855 4.64744C8.12348 4.74907 7.85789 4.7914 7.59337 4.77099C7.32886 4.75059 7.0729 4.66801 6.84632 4.53C5.33712 3.6104 3.61012 5.33739 4.52972 6.84659C5.12372 7.82119 4.59682 9.09279 3.48802 9.36229C1.77092 9.77919 1.77092 12.2223 3.48802 12.6381C3.74595 12.7006 3.98547 12.8231 4.18708 12.9957C4.3887 13.1682 4.5467 13.386 4.64823 13.6312C4.74976 13.8764 4.79195 14.1421 4.77136 14.4067C4.75076 14.6713 4.66797 14.9273 4.52972 15.1538C3.61012 16.663 5.33712 18.39 6.84632 17.4704C7.07285 17.3321 7.32884 17.2494 7.59342 17.2288C7.85801 17.2082 8.12372 17.2503 8.36892 17.3519C8.61411 17.4534 8.83187 17.6114 9.00444 17.813C9.17702 18.0146 9.29953 18.2542 9.36202 18.5121C9.77892 20.2292 12.222 20.2292 12.6378 18.5121C12.7005 18.2543 12.8232 18.0149 12.9958 17.8135C13.1684 17.612 13.3861 17.4541 13.6312 17.3526C13.8763 17.2511 14.1419 17.2089 14.4065 17.2293C14.671 17.2498 14.9269 17.3324 15.1535 17.4704C16.6627 18.39 18.3897 16.663 17.4701 15.1538C17.3321 14.9272 17.2495 14.6713 17.2291 14.4067C17.2086 14.1422 17.2508 13.8766 17.3523 13.6315C17.4538 13.3864 17.6117 13.1687 17.8132 12.996C18.0147 12.8234 18.254 12.7008 18.5118 12.6381C20.2289 12.2212 20.2289 9.77809 18.5118 9.36229C18.2539 9.29981 18.0144 9.17729 17.8128 9.00472C17.6111 8.83214 17.4531 8.61439 17.3516 8.36919C17.2501 8.12399 17.2079 7.85828 17.2285 7.5937C17.2491 7.32911 17.3319 7.07313 17.4701 6.84659C18.3897 5.33739 16.6627 3.6104 15.1535 4.53C14.927 4.66824 14.671 4.75104 14.4064 4.77163C14.1418 4.79223 13.8761 4.75004 13.6309 4.64851C13.3857 4.54698 13.168 4.38897 12.9954 4.18736C12.8228 3.98574 12.7003 3.74622 12.6378 3.4883L12.6389 3.4872ZM10.9999 14.3002C11.8751 14.3002 12.7145 13.9525 13.3334 13.3336C13.9522 12.7148 14.2999 11.8754 14.2999 11.0002C14.2999 10.125 13.9522 9.28561 13.3334 8.66674C12.7145 8.04787 11.8751 7.70019 10.9999 7.70019C10.1247 7.70019 9.28534 8.04787 8.66647 8.66674C8.0476 9.28561 7.69992 10.125 7.69992 11.0002C7.69992 11.8754 8.0476 12.7148 8.66647 13.3336C9.28534 13.9525 10.1247 14.3002 10.9999 14.3002Z" />
</svg>