<svg viewBox="0 0 20 20" xmlns="http://www.w3.org/2000/svg">
<path d="M10 18.3334C5.39751 18.3334 1.66667 14.6026 1.66667 10.0001C1.66667 5.39758 5.39751 1.66675 10 1.66675C14.6025 1.66675 18.3333 5.39758 18.3333 10.0001C18.3333 14.6026 14.6025 18.3334 10 18.3334ZM10 16.6667C11.7681 16.6667 13.4638 15.9644 14.7141 14.7141C15.9643 13.4639 16.6667 11.7682 16.6667 10.0001C16.6667 8.23197 15.9643 6.53628 14.7141 5.28604C13.4638 4.03579 11.7681 3.33341 10 3.33341C8.2319 3.33341 6.5362 4.03579 5.28596 5.28604C4.03572 6.53628 3.33334 8.23197 3.33334 10.0001C3.33334 11.7682 4.03572 13.4639 5.28596 14.7141C6.5362 15.9644 8.2319 16.6667 10 16.6667ZM9.16667 12.5001H10.8333V14.1667H9.16667V12.5001ZM10.8333 11.1292V11.6667H9.16667V10.4167C9.16667 10.1957 9.25447 9.98377 9.41075 9.82749C9.56703 9.67121 9.77899 9.58342 10 9.58342C10.2367 9.5834 10.4686 9.51616 10.6686 9.38952C10.8686 9.26288 11.0286 9.08205 11.1298 8.86807C11.2311 8.65408 11.2695 8.41574 11.2406 8.18078C11.2117 7.94582 11.1166 7.7239 10.9665 7.54084C10.8164 7.35778 10.6174 7.22111 10.3927 7.14672C10.1679 7.07234 9.9267 7.0633 9.69703 7.12067C9.46735 7.17803 9.25869 7.29944 9.09531 7.47076C8.93194 7.64208 8.82057 7.85628 8.77417 8.08842L7.13917 7.76091C7.24053 7.25432 7.4746 6.78372 7.81744 6.39724C8.16028 6.01075 8.5996 5.72223 9.0905 5.56118C9.58139 5.40013 10.1062 5.37232 10.6114 5.48059C11.1166 5.58887 11.5839 5.82934 11.9657 6.17744C12.3475 6.52553 12.6299 6.96875 12.7843 7.4618C12.9386 7.95485 12.9592 8.48004 12.8441 8.98367C12.7289 9.48731 12.4821 9.95133 12.1288 10.3283C11.7755 10.7053 11.3285 10.9817 10.8333 11.1292Z" />
</svg>
