<svg width="18" height="14" viewBox="0 0 18 14" fill="none" xmlns="http://www.w3.org/2000/svg"><path d="M17.468 1.713a6.987 6.987 0 0 1-2.001.549A3.497 3.497 0 0 0 17 .333a6.965 6.965 0 0 1-2.213.846 3.485 3.485 0 0 0-5.939 3.178A9.895 9.895 0 0 1 1.665.716a3.485 3.485 0 0 0 1.078 4.653 3.473 3.473 0 0 1-1.578-.436v.044a3.487 3.487 0 0 0 2.796 3.417c-.514.14-1.052.16-1.575.06a3.488 3.488 0 0 0 3.256 2.421 6.993 6.993 0 0 1-5.16 1.443 9.857 9.857 0 0 0 5.342 1.567c6.411 0 9.917-5.31 9.917-9.917 0-.15-.004-.301-.011-.45a7.079 7.079 0 0 0 1.74-1.804h-.002Z" fill="#A5A8B6"/></svg>
