<svg viewBox="0 0 36 37" fill="none" xmlns="http://www.w3.org/2000/svg"><circle cx="17.999" cy="18.5" r="18" fill="#fff"/><g clip-path="url(#a)"><path d="M26.893 9.513 5.611 17.75a.275.275 0 0 0-.037.017c-.172.098-1.377.835.321 1.495l.018.007 5.068 1.637a.28.28 0 0 0 .233-.029l12.57-7.842a.275.275 0 0 1 .1-.038c.175-.029.679-.083.36.321-.36.46-8.945 8.153-9.898 9.006a.29.29 0 0 0-.095.192l-.416 4.957a.325.325 0 0 0 .13.26.316.316 0 0 0 .375-.029l3.01-2.69a.28.28 0 0 1 .351-.019l5.253 3.815.017.011c.127.078 1.5.878 1.897-.907l3.626-17.242c.005-.054.054-.655-.375-1.01-.45-.37-1.089-.183-1.185-.163a.275.275 0 0 0-.04.015Z" fill="#000"/></g><defs><clipPath id="a"><path fill="#fff" transform="translate(4.999 7.5)" d="M0 0h23.5v23.5H0z"/></clipPath></defs></svg>
