<svg width="470" height="258" viewBox="0 0 470 258" fill="none" xmlns="http://www.w3.org/2000/svg"><path d="M13.533 190.092v-21.307L88.96 49.637h16.79v31.364H95.096l-53.95 85.397v1.364h103.382v22.33H13.533Zm82.756 34.091v-40.569l.17-9.716V49.638h24.972v174.545H96.289Z" fill="url(#a)"/><path d="M235.096 227.08c-13.466-.057-24.971-3.608-34.517-10.653-9.545-7.046-16.846-17.301-21.903-30.767-5.057-13.466-7.585-29.688-7.585-48.665 0-18.92 2.528-35.085 7.585-48.494 5.113-13.41 12.443-23.637 21.988-30.682 9.603-7.046 21.08-10.568 34.432-10.568 13.353 0 24.801 3.55 34.347 10.653 9.545 7.046 16.846 17.273 21.903 30.682 5.114 13.352 7.671 29.489 7.671 48.409 0 19.034-2.529 35.284-7.585 48.75-5.057 13.409-12.358 23.665-21.904 30.767-9.545 7.046-21.023 10.568-34.432 10.568Zm0-22.755c11.818 0 21.051-5.767 27.699-17.302 6.705-11.534 10.057-28.21 10.057-50.028 0-14.489-1.534-26.733-4.602-36.733-3.012-10.057-7.358-17.67-13.04-22.84-5.625-5.228-12.33-7.842-20.114-7.842-11.761 0-20.994 5.796-27.699 17.387-6.704 11.59-10.085 28.267-10.142 50.028 0 14.546 1.506 26.847 4.517 36.903 3.069 10 7.415 17.586 13.04 22.756 5.625 5.114 12.387 7.671 20.284 7.671Z" fill="url(#b)"/><path d="M325.686 190.092v-21.307l75.426-119.148h16.79v31.364h-10.653L353.3 166.398v1.364h103.381v22.33H325.686Zm82.756 34.091v-40.569l.17-9.716V49.638h24.972v174.545h-25.142Z" fill="url(#c)"/><path d="M254.651 106.141c-.609-1.937 2.514-4.164 4.363-3.207l.007.001c.374.781.401 1.598-.127 2.176-.824.906-2.591 1.245-4.243 1.037v-.007Z" fill="#fff"/><path d="M259.013 102.934c-1.849-.956-4.972 1.271-4.363 3.207-1.716-.22-3.307-1.03-3.563-2.417-.315-1.701 2.118-3.417 4.556-3.201 1.463.124 2.812 1.228 3.37 2.411Z" fill="#000"/><path d="M193.57 163.839a14.945 14.945 0 0 1-.267-6.428c.838-4.9 3.793-8.537 6.441-12.547a61.295 61.295 0 0 0 2.195-3.6l-.083-.049c-.3-.704-.297-1.526-.728-2.218-1.26-2.036-3.077-3.697-4.111-5.87-2.029-4.293.701-10.67 5.187-12.131 2.69-.878 7.699 1.265 9.748-.527l.047-.047c1.268-1.541 2.4-5.649 2.827-6.999 1.139-3.546 2.027-7.216 2.989-10.803 2.653-9.872 7.025-20.426 13.838-28.175 12.508-14.25 34.868-15.22 50.89-6.981 3.37 1.733 7.167 3.884 9.698 6.774a40.51 40.51 0 0 1 6.182 9.402c3.169 6.703 3.713 14.426 3.76 21.683.014 2.438.101 4.99.058 7.431-.04 2.377-.047 10.699-.407 13.235h-.007c-.329 3.613.11 5.069 1.264 7.062 2.081 3.597 6.791 5.028 8.798 8.757 3.071 5.68 1.144 12.355-4.721 15.046-1.509.695-3.241 1.274-4.893.835l-.174.025c.731 4.612 2.07 9.192 3.149 13.675.913 3.809 1.958 7.368 1.656 11.343-.668 8.833-9.856 15.613-18.459 12.724l-.151.445c-7.719 4.257-12.514-1.622-19.378-4.303a20.533 20.533 0 0 0-2.877-.887l-.049.199c-4.647 3.036-9.639 4.615-15.172 3.203-2.114-.541-4.068-1.988-5.866-3.158-3.232-2.092-6.918-3.522-10.815-3.472-2.121.02-4.262.66-6.346 1-4.759.773-13.677-.932-15.115-6.427l-.031-.298c-3.602.379-7.326.094-10.678-1.256-6.402-2.566-10.662-9.801-8.597-16.611l.198-.052Zm77.204-62.109c4.373-.263 7.828-4.603 7.726-9.694-.101-5.097-3.726-9.011-8.099-8.747-2.396.147-4.519 1.516-5.929 3.566-1.163 1.691-1.843 3.832-1.798 6.135.054 2.838 1.212 5.314 2.977 6.9 1.404 1.259 3.19 1.96 5.123 1.84Zm-11.881 3.381c.528-.578.502-1.395.128-2.176l-.008-.001c-.557-1.183-1.906-2.287-3.369-2.411-2.438-.216-4.871 1.5-4.557 3.201.256 1.387 1.848 2.197 3.564 2.424 1.652.208 3.419-.131 4.242-1.037ZM250.825 90.9c1.108-4.608-1.041-8.945-4.807-9.694-3.011-.593-6.141 1.295-7.838 4.437-.426.78-.756 1.645-.982 2.56-.859 3.565.24 6.968 2.523 8.674.667.498 1.437.85 2.284 1.021 3.767.743 7.713-2.39 8.82-6.998Z" fill="#fff"/><path d="M283.345 185.873c-1.885 1.075-1.161 3.953.577 5.243a.801.801 0 0 0 .096.063c4.009 2.327 8.499 4.871 13.822 3.632-6.635 2.989-12.286-.885-18.178-3.814-1.626-.809-3.365.555-4.052 2.519-.553 1.994 1.211 2.235.864 2.162-.367-.089-1.816-.979-2.19-1.175-3.039-1.582-5.606-3.69-8.242-3.524-2.147.14-3.524 2.13-5.629 2.402-1.852.245-2.792-1.193-5.37-1.138-2.654 0-4.92 1.339-5.506 1.2-4.14-.972-6.644-4.192-10.679-5.566-4.127-1.402-9.071.285-13.243.58 2.38-1.961-2.514-4.474-4.031-4.967a43.926 43.926 0 0 0-4.366-1.137c-1.238-.267-3.208-.415-4.631-.364-1.013.027-2.021.084-2.938.067 1.995-.121 2.915-1.591 2.327-2.368-.427-.608-1.416-.944-2.037-1.099-1.531-.393-3.864-1.463-5.241-2.134 2.734.974 7.074 1.513 9.871 1.193 1.597-.176 3.263-.433 4.912-.972.213-.072 2.342-.945 2.523-1.069 1.961-.927 1.829-2.985.634-4.799-.777-1.169-2.188-1.576-2.717-2.328-.985-1.4-.521-3.029 1.662-3.394 2.937-.49 6.446 3.346 7.625 5.294 2.662 4.398 7.227 7.772 12.532 7.701 4.624-.08 6.821-3.304 12.303-3.453 7.603-.207 11.481 9.089 20.907 9.623 4.438.253 12.662-2.447 15.334-5.816-.253.471-1.867 3.235-2.018 3.454-1.124 1.62-3.238 3.025-4.921 3.984.007 0-.007-.001 0 0Z" fill="#ECECEC"/><path d="M270.774 101.73c-1.934.119-3.72-.581-5.123-1.84l.023-.028c1.197.785 1.85-.175 1.897-.677.11-1.132-1.667-2.531-1.63-3.43.037-1.23 1.657-1.082 1.849-2.144.295-1.661-2.074-1.938-1.827-3.292.254-1.353 2.375-1.922 2.228-3.432-.223-2.343-2.774-1.363-3.698-.017l-.021-.015c1.41-2.05 3.532-3.42 5.929-3.567 4.373-.263 7.998 3.65 8.099 8.748.102 5.09-3.354 9.43-7.726 9.694Zm5.479-10.078c.078-1.192-.757-2.22-1.863-2.292-1.105-.072-2.066.84-2.144 2.031-.077 1.192.751 2.212 1.864 2.285 1.113.072 2.066-.832 2.143-2.024Zm-33.794-6.157c-.071-2.571-3.395-1.244-4.223.18l-.056-.032c1.697-3.142 4.827-5.03 7.839-4.438 3.766.75 5.914 5.087 4.807 9.695-1.107 4.608-5.054 7.74-8.82 6.998a5.686 5.686 0 0 1-2.285-1.021l.016-.02c1.159.695 1.577-.071 1.647-.377.246-1.116-1.844-2.139-1.814-3.038.044-1.23 1.609-.905 1.822-1.966.257-1.281-1.404-1.807-1.042-2.822.449-1.255 2.152-1.49 2.109-3.159Zm6.231 3.319c.074-1.142-.72-2.117-1.776-2.185-1.056-.069-1.977.794-2.051 1.936-.075 1.142.727 2.117 1.783 2.186 1.056.068 1.97-.803 2.044-1.937Z" fill="#000"/><path d="M264.493 86.87c.924-1.346 3.476-2.326 3.699.017.147 1.51-1.974 2.079-2.228 3.432-.247 1.354 2.122 1.631 1.827 3.292-.192 1.062-1.812.913-1.849 2.144-.037.9 1.74 2.298 1.63 3.43-.047.502-.701 1.462-1.897.677l-.023.028c-1.765-1.586-2.924-4.063-2.977-6.9-.045-2.303.635-4.444 1.798-6.135l.02.016Zm9.898 2.49c1.106.072 1.941 1.1 1.863 2.292-.077 1.192-1.038 2.096-2.143 2.024-1.106-.072-1.941-1.093-1.864-2.285.078-1.192 1.031-2.103 2.144-2.03Zm-27.478-2.731c1.056.069 1.851 1.043 1.776 2.185-.074 1.142-.988 2.005-2.044 1.937-1.055-.069-1.857-1.051-1.783-2.186.074-1.135.996-2.005 2.051-1.936Zm-7.344 6.813c-.03.9 2.06 1.922 1.814 3.039-.07.305-.487 1.071-1.647.376l-.015.02c-2.283-1.706-3.382-5.109-2.523-8.673a10.7 10.7 0 0 1 .982-2.561l.055.032c.828-1.424 4.153-2.751 4.223-.18.043 1.67-1.659 1.905-2.109 3.16-.361 1.014 1.299 1.54 1.043 2.822-.214 1.06-1.779.735-1.823 1.965Z" fill="#fff"/><path d="M221.134 166.9c2.014.629 5.585 6.039 7.693 8.108 4.997 4.89 12.576 8.102 19.436 5.187 1.201-.506 2.602-.862 3.604-1.741m-29.421-1.784c1.85-.276 4.037-.985 5.397-2.368m-22.963-38.436c-.969 1.805-1.923 3.617-2.94 5.397a61.523 61.523 0 0 1-2.196 3.6c-2.647 4.01-5.602 7.647-6.44 12.547a14.93 14.93 0 0 0 .267 6.428c2.452 9.303 13.652 15.389 23.034 13.952" stroke="#000" stroke-width=".705" stroke-linecap="round" stroke-linejoin="round"/><path d="M193.372 163.891c-2.065 6.81 2.195 14.046 8.598 16.611 3.351 1.35 7.076 1.636 10.677 1.257a30.162 30.162 0 0 0 3.667-.613m41.244-3.036c3.981 2.321 7.912 5.512 12.309 6.987 7.382 2.478 17.295.296 21.41-6.756" stroke="#000" stroke-width=".705" stroke-linecap="round" stroke-linejoin="round"/><path d="M279.225 190.328c2.92 1.683 5.664 3.844 8.897 5.021.106.035.218.079.325.107 8.602 2.889 17.79-3.891 18.458-12.724.302-3.975-.743-7.534-1.656-11.343-1.079-4.483-2.418-9.063-3.149-13.675a44.184 44.184 0 0 1-.475-4.12m-13.33 42.307c-7.719 4.257-12.514-1.621-19.378-4.303a20.533 20.533 0 0 0-2.877-.887 30.044 30.044 0 0 0-3.152-.544" stroke="#000" stroke-width=".705" stroke-linecap="round" stroke-linejoin="round"/><path d="M265.991 190.91c-4.646 3.037-9.638 4.616-15.171 3.204-2.114-.542-4.068-1.988-5.867-3.158-3.231-2.092-6.917-3.522-10.814-3.473-2.122.021-4.262.661-6.346 1.001-4.759.772-13.677-.932-15.115-6.427m-10.823-40.842c-.3-.705-.297-1.527-.728-2.218-1.259-2.036-3.077-3.697-4.111-5.87-2.028-4.293.701-10.671 5.188-12.131 2.689-.878 7.698 1.265 9.748-.527m90.324 37.22c1.651.439 3.383-.14 4.893-.835 5.864-2.691 7.791-9.366 4.721-15.046-2.008-3.729-6.717-5.16-8.798-8.757-1.154-1.993-1.593-3.449-1.265-7.062.033-.272.058-.559.092-.86" stroke="#000" stroke-width=".705" stroke-linecap="round" stroke-linejoin="round"/><path d="M301.834 125.989c.36-2.536.367-10.858.406-13.235.044-2.442-.043-4.993-.057-7.431-.048-7.257-.591-14.98-3.761-21.683a40.474 40.474 0 0 0-6.181-9.402c-2.531-2.89-6.328-5.04-9.699-6.774-16.021-8.239-38.381-7.27-50.889 6.98-6.814 7.75-11.185 18.304-13.839 28.176-.961 3.587-1.849 7.257-2.988 10.803-.427 1.35-1.559 5.458-2.828 6.998" stroke="#000" stroke-width=".705" stroke-linecap="round" stroke-linejoin="round"/><path d="M239.72 96.877c-2.283-1.706-3.382-5.11-2.522-8.673a10.65 10.65 0 0 1 .981-2.561c1.697-3.142 4.827-5.03 7.839-4.437 3.766.75 5.914 5.086 4.806 9.694-1.107 4.608-5.053 7.74-8.82 6.998a5.677 5.677 0 0 1-2.284-1.021Zm25.931 3.013c-1.764-1.586-2.923-4.063-2.976-6.9-.045-2.303.635-4.444 1.798-6.135 1.409-2.05 3.532-3.42 5.928-3.566 4.373-.264 7.998 3.65 8.099 8.747.102 5.09-3.353 9.43-7.726 9.694-1.933.12-3.719-.581-5.123-1.84Z" stroke="#000" stroke-width=".705" stroke-linecap="round" stroke-linejoin="round"/><path d="M239.736 96.857c1.159.695 1.577-.07 1.647-.376.246-1.116-1.844-2.14-1.814-3.039.044-1.23 1.609-.905 1.822-1.965.257-1.282-1.404-1.808-1.042-2.823.449-1.254 2.152-1.49 2.109-3.158-.071-2.572-3.395-1.245-4.223.18m27.439 14.186c1.197.785 1.85-.175 1.897-.677.11-1.132-1.667-2.531-1.63-3.43.037-1.23 1.657-1.082 1.849-2.144.295-1.661-2.074-1.938-1.827-3.292.254-1.353 2.375-1.922 2.228-3.432-.223-2.343-2.774-1.363-3.698-.017a1.98 1.98 0 0 0-.105.16m-19.526 1.536c.074-1.142.996-2.005 2.051-1.937 1.056.069 1.851 1.044 1.776 2.185-.074 1.142-.988 2.006-2.044 1.937-1.055-.069-1.857-1.05-1.783-2.186Zm27.385 2.825c.078-1.192 1.031-2.103 2.144-2.03 1.113.072 1.941 1.099 1.863 2.291-.077 1.192-1.038 2.096-2.143 2.024-1.106-.072-1.941-1.093-1.864-2.285Zm-13.234 11.543c-.558-1.183-1.907-2.287-3.37-2.411-2.438-.216-4.871 1.5-4.556 3.201.256 1.387 1.847 2.197 3.563 2.424 1.652.208 3.419-.131 4.243-1.037.528-.578.501-1.395.127-2.176" stroke="#000" stroke-width=".705" stroke-linecap="round" stroke-linejoin="round"/><path d="m259.021 102.935-.007-.001c-1.849-.957-4.972 1.27-4.363 3.207" stroke="#000" stroke-width=".705" stroke-linecap="round" stroke-linejoin="round"/><path d="m302.78 73.661 2.797-7.486a3.45 3.45 0 1 0-6.463-2.415l-2.797 7.486-5.501 14.72a3.45 3.45 0 1 0 6.463 2.415l5.501-14.72Zm-15.055 20.576a3.42 3.42 0 1 0 6.409 2.393 3.42 3.42 0 0 0-6.409-2.393Z" fill="#fff" stroke="#000" stroke-width=".733"/><path d="M200.579 216.427c9.546 7.046 21.052 10.597 34.518 10.654v-22.756c-7.898 0-14.66-2.557-20.285-7.671-5.625-5.17-9.971-12.755-13.039-22.755-3.012-10.057-4.517-22.358-4.517-36.904.056-21.761 3.437-38.437 10.142-50.028 6.704-11.591 15.937-17.386 27.699-17.386V47.25c-13.353 0-24.83 3.523-34.432 10.568-9.546 7.046-16.875 17.273-21.989 30.682-5.057 13.409-7.585 29.574-7.585 48.494 0 18.978 2.528 35.199 7.585 48.665 5.057 13.466 12.358 23.722 21.903 30.767Z" fill="url(#d)"/><defs><linearGradient id="a" x1="456.681" y1="115.038" x2="189.712" y2="369.453" gradientUnits="userSpaceOnUse"><stop stop-color="#B6509E"/><stop offset="1" stop-color="#2EBAC6"/></linearGradient><linearGradient id="b" x1="456.681" y1="115.038" x2="189.712" y2="369.453" gradientUnits="userSpaceOnUse"><stop stop-color="#B6509E"/><stop offset="1" stop-color="#2EBAC6"/></linearGradient><linearGradient id="c" x1="456.681" y1="115.038" x2="189.712" y2="369.453" gradientUnits="userSpaceOnUse"><stop stop-color="#B6509E"/><stop offset="1" stop-color="#2EBAC6"/></linearGradient><linearGradient id="d" x1="294" y1="63" x2="143.767" y2="95.993" gradientUnits="userSpaceOnUse"><stop stop-color="#B6509E"/><stop offset="1" stop-color="#2EBAC6"/></linearGradient></defs></svg>
