<svg width="470" height="258" viewBox="0 0 470 258" fill="none" xmlns="http://www.w3.org/2000/svg"><path d="M13.533 190.092v-21.307L88.959 49.637h16.79v31.364H95.095l-53.949 85.398v1.363h103.381v22.33H13.533Zm82.755 34.091v-40.568l.17-9.716V49.637h24.972v174.546H96.288Z" fill="url(#a)"/><path d="M235.096 227.081c-13.466-.057-24.972-3.608-34.517-10.654-9.546-7.045-16.847-17.301-21.904-30.767-5.056-13.466-7.585-29.687-7.585-48.665 0-18.92 2.529-35.085 7.585-48.494 5.114-13.41 12.444-23.636 21.989-30.682 9.602-7.045 21.08-10.568 34.432-10.568 13.352 0 24.801 3.551 34.346 10.653 9.546 7.046 16.847 17.273 21.904 30.682 5.113 13.352 7.67 29.489 7.67 48.409 0 19.034-2.528 35.284-7.585 48.75-5.057 13.409-12.358 23.665-21.903 30.767-9.546 7.046-21.023 10.569-34.432 10.569Zm0-22.756c11.818 0 21.051-5.767 27.699-17.301 6.704-11.534 10.056-28.211 10.056-50.029 0-14.488-1.534-26.733-4.602-36.733-3.011-10.056-7.358-17.67-13.04-22.84-5.625-5.228-12.329-7.841-20.113-7.841-11.762 0-20.995 5.795-27.699 17.386-6.705 11.59-10.085 28.267-10.142 50.028 0 14.546 1.506 26.847 4.517 36.904 3.068 10 7.415 17.585 13.04 22.755 5.625 5.114 12.386 7.671 20.284 7.671Z" fill="url(#b)"/><path d="M325.686 190.092v-21.307l75.426-119.148h16.79v31.364h-10.654l-53.949 85.398v1.363H456.68v22.33H325.686Zm82.756 34.091v-40.568l.17-9.716V49.637h24.972v174.546h-25.142Z" fill="url(#c)"/><mask id="d" style="mask-type:alpha" maskUnits="userSpaceOnUse" x="197" y="73" width="127" height="151"><path d="M324 143.5c0 21.934-4.971 67.648-23 78.5-13.975 8.412-39.186-15.5-54.5-15.5-9.749 0-18.864-1.477-25.5-5.5-17-9.5-23.5-33.887-23.5-62 0-38.936 27.93-66 63-66s63.5 31.564 63.5 70.5Z" fill="#fff"/></mask><g mask="url(#d)"><path d="M250.493 69.024c2.291-.249 4.6-.303 6.901-.16 1.613.083 3.225.149 4.833.253 1.954.12 3.897.37 5.818.75 3.308.656 6.393 1.91 9.503 3.129 1.234.481 2.439 1.036 3.654 1.562 3.853 1.657 7.206 4.093 10.383 6.78a43.62 43.62 0 0 1 5.968 5.992 38.294 38.294 0 0 1 7.28 14.937 48.265 48.265 0 0 1 1.207 14.192 99.027 99.027 0 0 1-1.054 9.931c-.649 4.202-1.192 8.418-1.823 12.62-.383 2.614-.814 5.222-1.237 7.832-.558 3.576-1.125 7.15-1.671 10.728a340.49 340.49 0 0 0-.911 6.306c-1.216 9.211-1.433 18.422-.079 27.646.453 3.068.9 6.139 1.218 9.222a18.878 18.878 0 0 1-2.141 10.998c-2.326 4.38-6.648 5.816-10.743 5.149a13.704 13.704 0 0 1-5.717-2.33 10.158 10.158 0 0 1-3.387-3.857 46.23 46.23 0 0 1-1.065-2.357 9.498 9.498 0 0 0-2.54-3.654 2.546 2.546 0 0 1-.349-.419c.122-.139.209-.322.345-.362a3.982 3.982 0 0 1 2.545-.076 2.446 2.446 0 0 1 1.412.939c.223.336.469.656.738.956a.396.396 0 0 0 .466.135.41.41 0 0 0 .144-.096.783.783 0 0 0 .21-.596c-.458-1.097-1.143-1.99-2.349-2.356-2.316-.727-4.322-.14-6.081 1.426-.644.573-1.211 1.233-1.855 1.784a16.961 16.961 0 0 1-2.16 1.72 6.393 6.393 0 0 1-6.114.516 6.18 6.18 0 0 1-3.267-3.168 16.315 16.315 0 0 1-.746-2.11c-.248-.764-.439-1.551-.727-2.297a6.37 6.37 0 0 0-.821-1.507 3.646 3.646 0 0 0-4.315-1.28 9.89 9.89 0 0 0-1.953 1.079c-.616.418-1.148.958-1.748 1.41a25.98 25.98 0 0 1-2.507 1.802 8.56 8.56 0 0 1-6.012.967 8.556 8.556 0 0 1-5.135-3.272 25.214 25.214 0 0 1-1.664-2.817c-.364-.653-.633-1.361-1.018-2.002a9.997 9.997 0 0 0-1.233-1.655 3.697 3.697 0 0 0-4.745-.579 7.407 7.407 0 0 0-1.331 1.081c-.562.578-1.05 1.22-1.578 1.844a9.543 9.543 0 0 1-2.292 2.071 6.443 6.443 0 0 1-4.661.795 6.444 6.444 0 0 1-3.951-2.598 17.872 17.872 0 0 1-1.447-2.744c-.364-.78-.605-1.617-.966-2.387-.946-2.074-2.48-3.406-4.82-3.736-1.277-.177-2.261.324-3.152 1.071a.426.426 0 0 0-.155.294.756.756 0 0 0 .076.483.488.488 0 0 0 .43.162c.327-.107.64-.254.931-.438a2.864 2.864 0 0 1 2.951-.089c.45.246.879.529 1.283.846a.373.373 0 0 1 .078.318.379.379 0 0 1-.202.258c-.214.08-.434.147-.655.217a8.028 8.028 0 0 0-2.818 1.64c-.691.607-1.372 1.229-2.059 1.841a10.883 10.883 0 0 1-6.582 2.72 12.924 12.924 0 0 1-6.74-1.149c-3.346-1.589-5.226-4.255-5.67-7.897-.274-2.2.054-4.351.543-6.493a17.617 17.617 0 0 1 2.141-5.239 493.632 493.632 0 0 1 4.619-7.476 92.698 92.698 0 0 0 8.028-15.795 155.412 155.412 0 0 0 5.151-15.891c1.198-4.433 2.381-8.875 3.596-13.309.973-3.544 1.979-7.08 2.98-10.614.861-3.04 1.705-6.088 2.624-9.111a69.085 69.085 0 0 1 5.19-12.937 40.495 40.495 0 0 1 14.548-15.561 35.156 35.156 0 0 1 6.236-2.968 53.358 53.358 0 0 1 12.216-3.02Z" fill="#fff"/><path d="M306.065 127.181c-.396 2.612-.733 5.231-1.104 7.848-.278 1.934-.555 3.865-.858 5.798-.488 3.058-1.011 6.118-1.491 9.183-.44 2.837-.85 5.677-1.266 8.52-.273 1.874-.53 3.752-.791 5.629a97.837 97.837 0 0 0 .264 29.504c.404 2.433.672 4.89.905 7.348a19.913 19.913 0 0 1-2.171 11.01c-3.214 6.358-9.859 7.162-14.586 5.413a15.161 15.161 0 0 1-4.792-2.717 12.683 12.683 0 0 1-3.413-4.923 25.425 25.425 0 0 0-1.066-2.356 5.199 5.199 0 0 0-2.076-2.259.768.768 0 0 0-.951.084c-.431.375-.828.796-1.26 1.175-.782.705-1.53 1.418-2.355 2.018a7.695 7.695 0 0 1-6.815 1.195 7.694 7.694 0 0 1-3.078-1.783 7.662 7.662 0 0 1-1.942-2.973c-.263-.697-.43-1.431-.664-2.14a16.265 16.265 0 0 0-.831-2.263c-.816-1.614-2.313-2.096-3.924-1.245-.742.439-1.449.935-2.114 1.485-.825.622-1.596 1.316-2.447 1.911-2.745 1.913-5.727 2.191-8.894 1.195a9.336 9.336 0 0 1-5.505-4.445c-.595-1.047-1.095-2.153-1.675-3.211a9.61 9.61 0 0 0-1.119-1.736 2.633 2.633 0 0 0-.815-.71 2.649 2.649 0 0 0-3.046.321 17.818 17.818 0 0 0-1.801 1.844c-.508.55-.96 1.147-1.489 1.675a7.648 7.648 0 0 1-2.959 1.888 7.686 7.686 0 0 1-9.197-3.414c-.48-.849-.88-1.746-1.287-2.631-.243-.523-.414-1.075-.644-1.6-.313-.725-.56-.843-1.357-.682a5.908 5.908 0 0 0-2.6 1.298c-.662.552-1.285 1.151-1.919 1.736-3.879 3.589-8.481 4.346-13.366 2.887-5.326-1.575-8.271-5.634-8.197-11.412.021-1.427.251-2.852.386-4.28a20.733 20.733 0 0 1 2.264-5.772 306.746 306.746 0 0 1 4.767-7.784 91.01 91.01 0 0 0 8.646-17.391 157.813 157.813 0 0 0 4.283-13.45c1.393-5.16 2.847-10.298 4.272-15.446 1.207-4.375 2.369-8.76 3.634-13.118 1.005-3.471 2.025-6.948 3.24-10.353 2.354-6.603 5.659-12.672 10.627-17.743a38.152 38.152 0 0 1 14.803-9.564 54.975 54.975 0 0 1 12.416-2.951 47 47 0 0 1 6.733-.148c1.84.066 3.678.224 5.522.308 3.289.15 6.539.782 9.644 1.875a104.251 104.251 0 0 1 9.621 3.868c3.797 1.755 7.146 4.194 10.307 6.894a43.808 43.808 0 0 1 6.382 6.552 39.868 39.868 0 0 1 7.091 15.041 50.514 50.514 0 0 1 1.171 14.713c-.162 3.464-.599 6.878-1.113 10.284Zm-18.466 89.708c4.104.668 8.425-.768 10.743-5.149a18.879 18.879 0 0 0 2.167-10.993c-.318-3.083-.766-6.154-1.219-9.222-1.353-9.224-1.136-18.435.08-27.646.275-2.105.578-4.207.91-6.306a1138.39 1138.39 0 0 1 1.672-10.728c.41-2.612.84-5.221 1.237-7.832.614-4.205 1.157-8.421 1.822-12.62.519-3.29.87-6.604 1.055-9.931a48.232 48.232 0 0 0-1.208-14.192 38.27 38.27 0 0 0-7.28-14.937 43.686 43.686 0 0 0-5.971-5.993c-3.177-2.687-6.531-5.123-10.384-6.78-1.203-.523-2.399-1.076-3.654-1.562-3.109-1.22-6.194-2.472-9.503-3.128-1.92-.38-3.864-.63-5.818-.75-1.608-.105-3.22-.17-4.832-.254a40.611 40.611 0 0 0-6.902.16 53.38 53.38 0 0 0-12.22 3.019 35.179 35.179 0 0 0-6.253 2.965 40.495 40.495 0 0 0-14.548 15.56 69.111 69.111 0 0 0-5.187 12.925c-.919 3.024-1.763 6.071-2.624 9.111-1.001 3.534-2.007 7.07-2.98 10.614-1.215 4.435-2.398 8.876-3.596 13.31a155.395 155.395 0 0 1-5.151 15.89 92.663 92.663 0 0 1-8.003 15.8 449.57 449.57 0 0 0-4.618 7.476 17.617 17.617 0 0 0-2.134 5.263c-.484 2.139-.817 4.293-.543 6.494.457 3.644 2.327 6.291 5.67 7.896a12.927 12.927 0 0 0 6.74 1.149 10.888 10.888 0 0 0 6.582-2.719c.687-.613 1.368-1.235 2.059-1.842a8.053 8.053 0 0 1 2.799-1.631c.221-.07.441-.136.655-.217a.374.374 0 0 0 .123-.576 9.232 9.232 0 0 0-1.299-.871 2.875 2.875 0 0 0-2.967.081c-.29.184-.603.331-.931.438a.484.484 0 0 1-.429-.162.75.75 0 0 1-.077-.483.426.426 0 0 1 .155-.294c.911-.756 1.895-1.257 3.152-1.071 2.34.33 3.874 1.662 4.82 3.736.358.787.599 1.624.966 2.388.403.951.888 1.866 1.449 2.735a6.444 6.444 0 0 0 8.612 1.802 9.539 9.539 0 0 0 2.292-2.07c.526-.612 1.018-1.253 1.578-1.844.4-.411.847-.773 1.331-1.081a3.7 3.7 0 0 1 4.746.579 9.99 9.99 0 0 1 1.232 1.655c.385.641.654 1.348 1.018 2.002a25.201 25.201 0 0 0 1.664 2.816 8.561 8.561 0 0 0 11.161 2.322c.877-.55 1.72-1.152 2.525-1.803.6-.452 1.132-.992 1.748-1.41a9.942 9.942 0 0 1 1.953-1.079 3.643 3.643 0 0 1 4.314 1.28c.341.466.617.976.821 1.515.278.745.478 1.533.726 2.298.2.719.449 1.424.746 2.109a6.184 6.184 0 0 0 3.267 3.168 6.398 6.398 0 0 0 6.114-.516 17.123 17.123 0 0 0 2.161-1.719c.647-.568 1.213-1.228 1.854-1.785 1.759-1.565 3.765-2.153 6.081-1.426 1.204.375 1.888 1.276 2.349 2.357a.776.776 0 0 1-.21.596.4.4 0 0 1-.61-.039 8.422 8.422 0 0 1-.738-.956 2.441 2.441 0 0 0-1.412-.939 3.982 3.982 0 0 0-2.545.075c-.138.054-.225.235-.345.363.101.151.218.292.349.419a9.504 9.504 0 0 1 2.541 3.654c.339.792.682 1.585 1.065 2.357a10.139 10.139 0 0 0 3.387 3.856 13.714 13.714 0 0 0 5.7 2.323Z" fill="#2F282B"/><path d="M282.441 120.102a10.335 10.335 0 0 1-4.015 6.475 8.238 8.238 0 0 1-3.907 1.715 8.287 8.287 0 0 1-4.249-.462 7.277 7.277 0 0 1-4.393-4.382c-2.444-6.093 1.723-12.401 6.933-13.603a7.903 7.903 0 0 1 9.283 5.039 8.894 8.894 0 0 1 .348 5.218Zm-16.012-1.793a7.676 7.676 0 0 0 .147 3.697 6.684 6.684 0 0 0 2.469 3.843c.719.472 1.485.867 2.286 1.178.207.097.587.27.706-.124.024-.112-.214-.355-.38-.478-.323-.23-.71-.387-1.013-.653a3.913 3.913 0 0 1-1.56-2.951 1.671 1.671 0 0 1 .831-1.589c.293-.182.634-.301.911-.49.157-.123.284-.28.37-.46a1.281 1.281 0 0 0-.418-1.592 7.768 7.768 0 0 0-.794-.388c-.999-.51-1.212-1.071-.757-2.095.162-.367.372-.713.623-1.027.474-.575.98-1.099 1.496-1.665.272-.291.59-.546.871-.835a.794.794 0 0 0 .254-.922c-.133-.299-.628-.405-1.086-.189-.469.218-.915.48-1.333.784-1.841 1.434-3.017 3.285-3.607 5.96l-.016-.004Zm-25.562 3.311c-3.176-.601-5.097-2.316-6.124-4.952-2.269-5.786 1.548-12.181 6.958-13.459a7.871 7.871 0 0 1 5.309.562 7.835 7.835 0 0 1 3.721 3.817c2.422 5.317-.574 11.783-5.762 13.644a7.252 7.252 0 0 1-4.102.388Zm-5.441-10.421a9.015 9.015 0 0 0 .155 4.396 6.772 6.772 0 0 0 2.893 3.952c.678.419 1.371.868 2.218.884a.325.325 0 0 0 .258-.141.337.337 0 0 0-.062-.306c-.334-.224-.7-.398-1.023-.629a4.242 4.242 0 0 1-1.763-2.475c-.285-1.125.032-1.847 1.044-2.438.255-.124.499-.27.729-.437a1.225 1.225 0 0 0 .411-.997 1.21 1.21 0 0 0-.542-.933c-.335-.216-.73-.34-1.084-.529a1.237 1.237 0 0 1-.635-1.597c.151-.433.368-.839.643-1.206.491-.637 1.042-1.222 1.584-1.812.31-.34.67-.634.987-.967a.707.707 0 0 0 .129-.932.77.77 0 0 0-.956-.118c-.424.179-.83.399-1.21.658a9.513 9.513 0 0 0-3.776 5.627Zm18.637 25.583a8.929 8.929 0 0 1-5.128-2.885 5.089 5.089 0 0 1-1.349-3.102c-.129-2.161 1.407-3.626 3.565-3.326.512.08 1.013.221 1.492.42a18.222 18.222 0 0 0 6.06 1.296 4.444 4.444 0 0 1 2.605.792 2.677 2.677 0 0 1 1.141 2.862 4.318 4.318 0 0 1-.703 1.653 4.352 4.352 0 0 1-1.315 1.227 8.363 8.363 0 0 1-5.628 1.191 6.076 6.076 0 0 0-.74-.128Zm-4.069-3.374c1.319 1.255 2.706 2.189 4.398 2.411 1.458.19 2.973.199 4.308-.636-1.103-2.422-6.102-3.683-8.702-1.791l-.004.016Zm63.624-13.119a4.25 4.25 0 0 1-.041 1.894 1.738 1.738 0 0 1-.98 1.278 1.754 1.754 0 0 1-1.615-.066 5.482 5.482 0 0 1-1.498-1.193c-1.196-1.277-2.393-2.563-3.506-3.917a42.854 42.854 0 0 0-5.509-5.367 83.397 83.397 0 0 0-20.02-12.461c-2.6-1.176-5.244-2.24-7.93-3.192l.436-1.216c1.967.691 3.92 1.43 5.858 2.217 7.305 2.98 13.993 6.997 20.334 11.63a59.026 59.026 0 0 1 10.346 9.947c.526.632 1.041 1.279 1.594 1.872.251.207.527.381.823.517.662-.679.458-1.385.294-2.053a55.519 55.519 0 0 0-2.572-8.158c-.151-.36-.285-.716-.473-1.07l1.246-.436c1.586 3.057 2.448 6.404 3.213 9.774Z" fill="#2F282B"/><path d="M312.228 120.172c.164.668.366 1.387-.294 2.053a3.82 3.82 0 0 1-.823-.516c-.561-.596-1.05-1.237-1.594-1.872a59.012 59.012 0 0 0-10.335-9.937c-6.341-4.632-13.05-8.654-20.333-11.63a123.332 123.332 0 0 0-5.859-2.217 273.712 273.712 0 0 0-6.686-2.263c-2.989-.984-6.05-1.346-9.137-1.644-2.901-.289-5.822-.547-8.738-.682a87.31 87.31 0 0 0-20.404 1.386c-1.66.321-3.336.596-4.985.971a60.396 60.396 0 0 0-13.31 4.854 38.06 38.06 0 0 1-2.066.972c-.294.078-.598.12-.903.125-.029-.316-.129-.564-.055-.745a6.18 6.18 0 0 1 .732-1.375 54.935 54.935 0 0 1 5.444-6.151 23.376 23.376 0 0 1 9.839-5.531 61.76 61.76 0 0 1 11.017-1.985c5.233-.525 10.497-.68 15.754-.46a76.636 76.636 0 0 1 14.952 1.932c1.079.261 2.175.465 3.261.697a78.768 78.768 0 0 1 13.647 4.511l.862.372a105.506 105.506 0 0 1 13.503 6.91 50.533 50.533 0 0 1 8.699 6.459 22.503 22.503 0 0 1 4.773 6.513c.166.35.322.71.473 1.07a55.564 55.564 0 0 1 2.566 8.183Zm-2.963-3.072a.763.763 0 0 0 .071-.635 1.62 1.62 0 0 0-.41-.563c-1.462-1.508-2.844-3.099-4.416-4.5a77.594 77.594 0 0 0-14.062-10.071 103.537 103.537 0 0 0-9.677-4.918c-2.852-1.212-5.79-2.19-8.707-3.223a65.764 65.764 0 0 0-12.772-3.133c-2.429-.34-4.883-.486-7.325-.75a68.9 68.9 0 0 0-11.552-.25c-5.545.314-11.053.881-16.466 2.193a61.777 61.777 0 0 0-11.313 3.719c-.38.15-.746.333-1.095.547a.748.748 0 0 0-.252.587.5.5 0 0 0 .659.402 9.769 9.769 0 0 0 1.484-.507 72.313 72.313 0 0 1 14.278-4.157 96.722 96.722 0 0 1 14.099-1.492 83.15 83.15 0 0 1 10.153.291c3.88.302 7.661.901 11.441 1.548 3.767.976 7.464 1.99 11.129 3.292a82.423 82.423 0 0 1 10.787 4.606c4.603 2.415 9.112 5.003 13.247 8.186a72.034 72.034 0 0 1 9.023 8.038c.315.341.67.642 1.057.898a.643.643 0 0 0 .599-.113l.02.005Z" fill="#16727E"/><path d="M309.313 116.46a.78.78 0 0 1-.07.635.645.645 0 0 1-.616.091 5.777 5.777 0 0 1-1.057-.898 72.034 72.034 0 0 0-9.023-8.038c-4.139-3.188-8.643-5.774-13.247-8.186a82.462 82.462 0 0 0-10.787-4.606c-3.665-1.303-7.362-2.316-11.129-3.291-3.78-.647-7.582-1.251-11.441-1.549a83.135 83.135 0 0 0-10.153-.29c-4.731.151-9.443.65-14.099 1.49a72.314 72.314 0 0 0-14.278 4.159c-.48.208-.977.378-1.485.507a.505.505 0 0 1-.658-.403.727.727 0 0 1 .252-.587 7.208 7.208 0 0 1 1.095-.547 61.784 61.784 0 0 1 11.313-3.719c5.413-1.311 10.921-1.879 16.466-2.194 3.85-.24 7.715-.156 11.552.25 2.442.265 4.896.41 7.325.751a65.789 65.789 0 0 1 12.772 3.133c2.917 1.034 5.855 2.011 8.707 3.223a103.61 103.61 0 0 1 9.648 4.93 77.68 77.68 0 0 1 14.063 10.07c1.563 1.399 2.954 2.993 4.415 4.5.186.155.335.349.435.569Zm1.097-5.965-1.246.436a22.521 22.521 0 0 0-4.773-6.513 50.556 50.556 0 0 0-8.699-6.46 105.57 105.57 0 0 0-13.503-6.909l.52-1.198a99.801 99.801 0 0 1 15.946 8.393c3.465 2.241 6.657 4.752 9.209 8.007.16.147.337.275.528.379.078-.363.155-.621.189-.884l1.306.165c-.052.242-.063.502-.094.748a6.38 6.38 0 0 0 .617 3.836Z" fill="#2F282B"/><path d="m309.877 105.893-1.305-.166c.435-3.881.916-7.748 1.269-11.634.285-3.31.189-6.643-.286-9.934-1.097-7.925-4.531-14.632-10.456-20.066-4.396-4.037-9.567-6.845-15.086-9.055a102.31 102.31 0 0 0-6.778-2.409c-2.615-.843-5.228-1.703-8.003-1.921-2.331-.189-4.655-.49-6.985-.704a54.198 54.198 0 0 0-14.487.544c-10.385 1.837-18.375 7.143-23.775 16.227a52.644 52.644 0 0 0-4.722 10.682c-.629 1.938-1.266 3.874-1.887 5.814-.193.613-.36 1.231-.54 1.847-.18.616-.353 1.16-.595 1.94.531-.208.863-.303 1.159-.458a32.308 32.308 0 0 1 7.942-2.708c5.849-1.262 11.785-1.698 17.747-1.788a96.259 96.259 0 0 1 10.326.323c2.335.15 4.659.438 6.96.86 3.034.65 6.079 1.248 9.103 1.947a57.543 57.543 0 0 1 5.896 1.697c2.477.875 4.911 1.87 7.334 2.878l-.519 1.198-.863-.373a78.703 78.703 0 0 0-13.647-4.51l-3.26-.698a76.753 76.753 0 0 0-14.953-1.932 111.24 111.24 0 0 0-15.753.46 61.75 61.75 0 0 0-11.018 1.986 23.376 23.376 0 0 0-9.838 5.53 54.807 54.807 0 0 0-5.444 6.152 6.145 6.145 0 0 0-.733 1.374c-.073.181.024.442.056.745a3.8 3.8 0 0 0 .903-.125c.697-.287 1.385-.633 2.066-.972a60.392 60.392 0 0 1 13.31-4.853c1.649-.376 3.325-.65 4.985-.971a87.294 87.294 0 0 1 20.404-1.387c2.916.135 5.84.377 8.738.682 3.087.299 6.148.66 9.137 1.645 2.24.732 4.47 1.475 6.686 2.263l-.436 1.216a105.179 105.179 0 0 0-4.865-1.595 49.788 49.788 0 0 0-6.819-1.646 111.391 111.391 0 0 0-8.553-.992 92.642 92.642 0 0 0-23.737 1.088 69.104 69.104 0 0 0-11.8 3.205c-2.13.8-4.183 1.793-6.276 2.706-.536.235-1.052.512-1.591.738a6.572 6.572 0 0 1-1.16.384c-1.762.347-2.887-.848-2.369-2.57a4.77 4.77 0 0 1 .796-1.531c2.239-2.846 4.53-5.645 7.391-7.917.558-.417.968-1 1.171-1.665a417.782 417.782 0 0 1 3.273-10.508c1.782-5.526 4.233-10.716 7.889-15.288a33.357 33.357 0 0 1 14.423-10.47c5.134-1.956 10.493-2.668 15.964-2.759 2.98-.012 5.96.137 8.924.448.187.003.373-.01.557-.043.115-.195.215-.398.301-.607.534-1.513 1.762-2.093 3.214-2.345.117-.01.235-.011.352-.003a15.926 15.926 0 0 1 6.965 1.49c1.608.78 2.565 2 2.307 3.904.004.154.03.307.079.453.921.346 1.889.736 2.877 1.074a55.11 55.11 0 0 1 15.192 7.843c7.835 5.846 12.497 13.579 13.9 23.246a53.22 53.22 0 0 1-.042 14.112c-.333 2.625-.682 5.26-1.015 7.902Zm-32.555-54.877c.251-1.172-.283-1.853-1.204-2.3a14.065 14.065 0 0 0-6.614-1.414c-.35.005-.695.08-1.015.22a1.391 1.391 0 0 0-.936 1.544c1.668.235 3.284.45 4.892.693 1.609.244 3.138 1.212 4.877 1.257Z" fill="#2F282B"/><path d="M308.572 105.727c-.03.264-.112.522-.189.885a2.714 2.714 0 0 1-.529-.379c-2.551-3.255-5.777-5.773-9.209-8.008a99.742 99.742 0 0 0-15.946-8.392c-2.413-1.014-4.855-2.012-7.335-2.878a57.453 57.453 0 0 0-5.895-1.697c-3.02-.715-6.069-1.298-9.103-1.947a59.815 59.815 0 0 0-6.96-.86 96.27 96.27 0 0 0-10.327-.324c-5.962.09-11.894.51-17.746 1.79a32.307 32.307 0 0 0-7.942 2.707c-.296.155-.628.25-1.159.459.242-.782.419-1.364.595-1.941s.347-1.234.539-1.848c.625-1.938 1.267-3.873 1.888-5.813a52.646 52.646 0 0 1 4.721-10.682c5.401-9.084 13.39-14.39 23.776-16.227a54.198 54.198 0 0 1 14.487-.544c2.329.214 4.654.515 6.984.704 2.776.218 5.388 1.078 8.004 1.921 2.285.729 4.552 1.523 6.778 2.41 5.521 2.197 10.677 5.014 15.086 9.054 5.924 5.433 9.359 12.14 10.456 20.066.475 3.29.571 6.624.286 9.934-.344 3.862-.826 7.737-1.26 11.61Zm-30.155-35.875c1.13-2.293.568-4.337-1.481-5.49a5.922 5.922 0 0 0-6.09.006 27.21 27.21 0 0 0-1.518.953c-.336-.477-.621-.93-.936-1.365a6.026 6.026 0 0 0-5.193-2.642c-2.337.024-3.799 1.37-4.032 3.667a6.317 6.317 0 0 0 1.438 4.547 17.908 17.908 0 0 0 6.273 5.098c.259.131.548.193.838.18a17.935 17.935 0 0 0 7.937-2.155 6.447 6.447 0 0 0 2.764-2.799Z" fill="#40B4C4"/><path d="M276.934 64.36c2.05 1.154 2.612 3.198 1.482 5.491a6.453 6.453 0 0 1-2.789 2.794 17.938 17.938 0 0 1-7.937 2.154 1.688 1.688 0 0 1-.839-.179 17.914 17.914 0 0 1-6.272-5.098 6.309 6.309 0 0 1-1.438-4.548c.241-2.317 1.695-3.642 4.031-3.666a6.027 6.027 0 0 1 5.194 2.642c.315.434.612.89.936 1.365.533-.322 1.016-.655 1.518-.953a5.906 5.906 0 0 1 6.114-.002Z" fill="#16727E"/><path d="M246.773 111.977a1.062 1.062 0 0 0 1.262-.812 1.062 1.062 0 0 0-.819-1.258 1.06 1.06 0 0 0-1.261.813 1.061 1.061 0 0 0 .818 1.257Zm31.493 6.736a1.06 1.06 0 0 0 1.261-.813 1.06 1.06 0 0 0-.818-1.257 1.06 1.06 0 0 0-1.261.813 1.06 1.06 0 0 0 .818 1.257Z" fill="#fff"/></g><mask id="e" style="mask-type:alpha" maskUnits="userSpaceOnUse" x="197" y="31" width="144" height="136"><path d="M242.602 33.069c9.929-7.787 59.142 11.346 62.118 12.754 8.801 14.745 28.016 48.743 34.463 66.778 8.059 22.545-15.132 39.662-16.741 43.062-1.288 2.721-19.025 8.684-27.732 11.326-20.43-1.172-62.089-3.583-65.292-3.851-3.203-.267-16.636-7.354-22.952-10.864l-6.625-14.581c-.601-18.147-1.812-54.862-1.849-56.544-.045-2.102 34.681-40.293 44.61-48.08Z" fill="#C4C4C4"/></mask><g mask="url(#e)"><path d="M250.488 69.022c2.291-.249 4.6-.303 6.901-.16 1.613.083 3.225.149 4.833.253 1.954.12 3.897.371 5.818.751 3.309.655 6.393 1.909 9.503 3.127 1.234.482 2.439 1.037 3.654 1.563 3.853 1.657 7.206 4.093 10.384 6.78a43.68 43.68 0 0 1 5.967 5.992 38.281 38.281 0 0 1 7.28 14.937 48.265 48.265 0 0 1 1.207 14.192 99.027 99.027 0 0 1-1.054 9.931c-.649 4.202-1.191 8.418-1.822 12.62-.384 2.614-.815 5.222-1.237 7.832-.559 3.576-1.126 7.15-1.672 10.728a340.49 340.49 0 0 0-.911 6.306c-1.216 9.211-1.433 18.422-.079 27.646.453 3.068.901 6.139 1.219 9.222a18.887 18.887 0 0 1-2.142 10.998c-2.326 4.38-6.648 5.816-10.743 5.149a13.7 13.7 0 0 1-5.716-2.33 10.152 10.152 0 0 1-3.388-3.857 46.23 46.23 0 0 1-1.065-2.357 9.498 9.498 0 0 0-2.54-3.654 2.546 2.546 0 0 1-.349-.419c.122-.139.209-.321.345-.362a3.982 3.982 0 0 1 2.545-.076 2.446 2.446 0 0 1 1.412.939c.223.336.469.656.738.957a.403.403 0 0 0 .466.134.4.4 0 0 0 .144-.096.783.783 0 0 0 .21-.596c-.457-1.097-1.143-1.989-2.349-2.356-2.316-.727-4.322-.14-6.081 1.426-.644.573-1.211 1.233-1.854 1.784a17.041 17.041 0 0 1-2.161 1.72 6.393 6.393 0 0 1-6.114.516 6.184 6.184 0 0 1-3.267-3.168 16.315 16.315 0 0 1-.746-2.11c-.248-.764-.439-1.551-.727-2.297a6.37 6.37 0 0 0-.821-1.507 3.646 3.646 0 0 0-4.315-1.28 9.89 9.89 0 0 0-1.953 1.079c-.616.418-1.148.958-1.748 1.41a25.809 25.809 0 0 1-2.507 1.802 8.56 8.56 0 0 1-6.012.967 8.559 8.559 0 0 1-5.135-3.272 25.214 25.214 0 0 1-1.664-2.817c-.364-.653-.633-1.361-1.018-2.002a9.99 9.99 0 0 0-1.232-1.655 3.7 3.7 0 0 0-4.746-.579 7.407 7.407 0 0 0-1.331 1.081c-.562.578-1.05 1.22-1.578 1.844a9.543 9.543 0 0 1-2.292 2.071 6.442 6.442 0 0 1-4.661.795 6.444 6.444 0 0 1-3.951-2.598 17.872 17.872 0 0 1-1.447-2.744c-.364-.78-.605-1.616-.966-2.387-.946-2.074-2.48-3.406-4.82-3.736-1.277-.177-2.26.324-3.152 1.071a.426.426 0 0 0-.155.294.756.756 0 0 0 .076.483.488.488 0 0 0 .43.162c.328-.107.64-.254.931-.438a2.864 2.864 0 0 1 2.951-.089c.45.246.879.529 1.283.846a.388.388 0 0 1 .076.15.38.38 0 0 1-.069.32.371.371 0 0 1-.13.106c-.215.08-.435.147-.656.217a8.045 8.045 0 0 0-2.818 1.64c-.691.607-1.372 1.229-2.059 1.841a10.883 10.883 0 0 1-6.582 2.72 12.926 12.926 0 0 1-6.74-1.149c-3.346-1.589-5.226-4.255-5.67-7.897-.274-2.2.054-4.351.543-6.493a17.62 17.62 0 0 1 2.142-5.239 493.574 493.574 0 0 1 4.618-7.476 92.698 92.698 0 0 0 8.028-15.795 155.585 155.585 0 0 0 5.152-15.891c1.198-4.433 2.38-8.875 3.595-13.309.973-3.544 1.979-7.08 2.98-10.614.861-3.04 1.705-6.088 2.624-9.111a69.081 69.081 0 0 1 5.19-12.937 40.493 40.493 0 0 1 14.548-15.561 35.15 35.15 0 0 1 6.236-2.968 53.368 53.368 0 0 1 12.216-3.02Z" fill="#fff"/><path d="M306.062 127.179c-.396 2.612-.733 5.231-1.104 7.848a440.213 440.213 0 0 1-.858 5.798c-.488 3.058-1.011 6.118-1.491 9.183-.44 2.837-.85 5.677-1.266 8.52-.273 1.874-.53 3.752-.791 5.629a97.837 97.837 0 0 0 .264 29.504c.404 2.433.672 4.89.905 7.348a19.905 19.905 0 0 1-2.171 11.01c-3.214 6.358-9.859 7.162-14.586 5.413a15.161 15.161 0 0 1-4.792-2.717 12.683 12.683 0 0 1-3.413-4.923 25.425 25.425 0 0 0-1.066-2.356 5.199 5.199 0 0 0-2.076-2.259.769.769 0 0 0-.951.084c-.431.375-.828.796-1.26 1.175-.782.705-1.53 1.418-2.355 2.018a7.695 7.695 0 0 1-6.815 1.195 7.694 7.694 0 0 1-3.078-1.783 7.662 7.662 0 0 1-1.942-2.973c-.262-.697-.43-1.431-.664-2.14a16.312 16.312 0 0 0-.831-2.263c-.816-1.614-2.313-2.096-3.923-1.245-.743.439-1.45.936-2.115 1.485-.825.622-1.596 1.316-2.447 1.911-2.745 1.913-5.727 2.191-8.893 1.195a9.333 9.333 0 0 1-5.506-4.444c-.595-1.048-1.095-2.154-1.675-3.212a9.61 9.61 0 0 0-1.119-1.736 2.641 2.641 0 0 0-1.846-1.036 2.649 2.649 0 0 0-2.015.647 17.818 17.818 0 0 0-1.801 1.844c-.508.55-.96 1.147-1.489 1.675a7.648 7.648 0 0 1-2.959 1.888 7.686 7.686 0 0 1-9.197-3.414c-.48-.849-.88-1.746-1.287-2.631-.243-.523-.414-1.075-.644-1.6-.313-.725-.56-.843-1.357-.682a5.908 5.908 0 0 0-2.6 1.298c-.662.552-1.285 1.151-1.919 1.736-3.879 3.589-8.481 4.346-13.366 2.887-5.326-1.575-8.271-5.634-8.197-11.412.021-1.427.251-2.852.386-4.28a20.733 20.733 0 0 1 2.264-5.772 303.92 303.92 0 0 1 4.768-7.784 91.065 91.065 0 0 0 8.645-17.391 157.813 157.813 0 0 0 4.283-13.45c1.393-5.159 2.847-10.297 4.272-15.446 1.208-4.375 2.369-8.76 3.634-13.118 1.005-3.471 2.025-6.948 3.24-10.353 2.354-6.603 5.659-12.672 10.627-17.743a38.15 38.15 0 0 1 14.803-9.564 54.994 54.994 0 0 1 12.416-2.951 47.22 47.22 0 0 1 6.733-.148c1.84.066 3.678.224 5.522.308 3.289.15 6.539.782 9.644 1.875a104.307 104.307 0 0 1 9.621 3.868c3.797 1.755 7.146 4.194 10.307 6.894a43.798 43.798 0 0 1 6.382 6.552 39.884 39.884 0 0 1 7.092 15.041 50.548 50.548 0 0 1 1.17 14.713c-.162 3.464-.599 6.878-1.113 10.284Zm-18.466 89.708c4.104.668 8.426-.768 10.743-5.149a18.877 18.877 0 0 0 2.167-10.993c-.318-3.083-.766-6.154-1.218-9.222-1.354-9.224-1.137-18.435.079-27.646.275-2.105.578-4.207.91-6.306a1138.39 1138.39 0 0 1 1.672-10.728c.41-2.612.841-5.221 1.237-7.832.614-4.205 1.157-8.421 1.822-12.62.519-3.29.87-6.604 1.055-9.931a48.268 48.268 0 0 0-1.207-14.192 38.286 38.286 0 0 0-7.281-14.937 43.692 43.692 0 0 0-5.971-5.993c-3.177-2.687-6.531-5.122-10.384-6.78-1.203-.523-2.399-1.076-3.654-1.562-3.109-1.22-6.194-2.472-9.503-3.128a43.8 43.8 0 0 0-5.817-.75c-1.609-.105-3.221-.17-4.833-.253a40.6 40.6 0 0 0-6.902.16 53.38 53.38 0 0 0-12.22 3.018 35.172 35.172 0 0 0-6.253 2.965 40.493 40.493 0 0 0-14.548 15.56 69.092 69.092 0 0 0-5.187 12.926c-.919 3.023-1.763 6.07-2.624 9.11-1.001 3.534-2.007 7.071-2.98 10.614-1.215 4.435-2.397 8.876-3.596 13.31a155.395 155.395 0 0 1-5.151 15.89 92.71 92.71 0 0 1-8.003 15.801 445.395 445.395 0 0 0-4.618 7.475 17.617 17.617 0 0 0-2.134 5.263c-.484 2.139-.817 4.293-.543 6.494.457 3.644 2.327 6.291 5.67 7.896a12.917 12.917 0 0 0 6.74 1.149 10.888 10.888 0 0 0 6.582-2.719c.687-.612 1.368-1.235 2.059-1.842a8.053 8.053 0 0 1 2.799-1.631c.221-.07.441-.136.655-.217a.374.374 0 0 0 .124-.576 9.3 9.3 0 0 0-1.3-.871 2.87 2.87 0 0 0-2.967.081 4.14 4.14 0 0 1-.93.438.486.486 0 0 1-.43-.162.75.75 0 0 1-.077-.483.426.426 0 0 1 .155-.294c.911-.756 1.895-1.257 3.152-1.071 2.34.33 3.874 1.662 4.82 3.736.358.787.599 1.624.966 2.388.403.951.888 1.866 1.449 2.735a6.444 6.444 0 0 0 8.612 1.802 9.562 9.562 0 0 0 2.293-2.07c.525-.612 1.017-1.253 1.577-1.844.4-.411.847-.773 1.331-1.081a3.698 3.698 0 0 1 4.746.579 9.99 9.99 0 0 1 1.232 1.655c.385.641.654 1.348 1.018 2.002a25.201 25.201 0 0 0 1.664 2.816 8.56 8.56 0 0 0 11.161 2.322c.877-.55 1.72-1.152 2.525-1.803.6-.452 1.132-.992 1.748-1.41a9.942 9.942 0 0 1 1.953-1.079 3.643 3.643 0 0 1 4.315 1.28c.34.466.616.976.82 1.515.279.745.478 1.533.726 2.298.2.719.449 1.424.746 2.109a6.184 6.184 0 0 0 3.267 3.168 6.398 6.398 0 0 0 6.114-.516 17.123 17.123 0 0 0 2.161-1.719c.647-.568 1.213-1.228 1.854-1.785 1.759-1.565 3.765-2.153 6.081-1.426 1.204.375 1.888 1.276 2.35 2.357a.793.793 0 0 1-.211.596.397.397 0 0 1-.48.074.403.403 0 0 1-.13-.113 8.422 8.422 0 0 1-.738-.956 2.441 2.441 0 0 0-1.412-.939 3.982 3.982 0 0 0-2.545.075c-.138.054-.225.235-.345.363.101.151.218.292.349.419a9.504 9.504 0 0 1 2.541 3.654c.339.792.682 1.585 1.065 2.357a10.139 10.139 0 0 0 3.387 3.856 13.714 13.714 0 0 0 5.7 2.323Z" fill="#2F282B"/><path d="M282.437 120.1a10.335 10.335 0 0 1-4.015 6.475 8.238 8.238 0 0 1-3.907 1.715 8.287 8.287 0 0 1-4.249-.462 7.295 7.295 0 0 1-4.393-4.381c-2.444-6.094 1.723-12.402 6.933-13.604a7.903 7.903 0 0 1 9.283 5.039 8.894 8.894 0 0 1 .348 5.218Zm-16.012-1.793a7.675 7.675 0 0 0 .147 3.697 6.684 6.684 0 0 0 2.469 3.843c.719.472 1.485.867 2.286 1.178.207.097.587.27.706-.124.024-.112-.213-.355-.38-.478-.323-.23-.71-.387-1.013-.653a3.913 3.913 0 0 1-1.56-2.951 1.68 1.68 0 0 1 .184-.915c.148-.281.372-.515.647-.674.293-.182.634-.301.911-.49.157-.123.284-.28.37-.46a1.281 1.281 0 0 0-.418-1.592 7.768 7.768 0 0 0-.794-.388c-.999-.51-1.212-1.071-.757-2.095.162-.367.372-.713.623-1.027.474-.575.98-1.099 1.496-1.665.272-.291.59-.546.871-.835a.794.794 0 0 0 .254-.922c-.133-.299-.628-.405-1.086-.189-.469.218-.915.48-1.333.784-1.841 1.434-3.017 3.285-3.607 5.96l-.016-.004Zm-25.562 3.311c-3.176-.601-5.097-2.316-6.124-4.952-2.268-5.786 1.549-12.181 6.959-13.458a7.863 7.863 0 0 1 5.308.561 7.841 7.841 0 0 1 3.722 3.817c2.421 5.317-.574 11.783-5.763 13.644a7.252 7.252 0 0 1-4.102.388Zm-5.441-10.421a9.015 9.015 0 0 0 .156 4.396 6.763 6.763 0 0 0 2.893 3.952c.677.419 1.37.869 2.217.884a.325.325 0 0 0 .258-.141.333.333 0 0 0-.062-.306c-.333-.224-.699-.398-1.022-.628a4.247 4.247 0 0 1-1.763-2.476c-.285-1.125.031-1.847 1.043-2.438.256-.124.5-.27.729-.437a1.214 1.214 0 0 0 .412-.997 1.224 1.224 0 0 0-.542-.933c-.336-.216-.73-.34-1.084-.529a1.231 1.231 0 0 1-.636-1.597 4.49 4.49 0 0 1 .644-1.206c.491-.637 1.041-1.222 1.584-1.812.309-.34.67-.634.987-.967a.706.706 0 0 0 .129-.932.772.772 0 0 0-.957-.118 6.98 6.98 0 0 0-1.21.658 9.518 9.518 0 0 0-3.776 5.627Zm18.638 25.583a8.929 8.929 0 0 1-5.128-2.885 5.082 5.082 0 0 1-1.348-3.102c-.13-2.161 1.406-3.626 3.564-3.326.512.08 1.013.221 1.492.42a18.223 18.223 0 0 0 6.061 1.296 4.441 4.441 0 0 1 2.604.792 2.677 2.677 0 0 1 1.141 2.862 4.329 4.329 0 0 1-2.018 2.88 8.357 8.357 0 0 1-5.628 1.191 6.28 6.28 0 0 0-.74-.128Zm-4.068-3.374c1.318 1.255 2.705 2.189 4.397 2.411 1.458.19 2.973.199 4.309-.636-1.104-2.422-6.103-3.683-8.703-1.791l-.003.016Zm63.623-13.118a4.26 4.26 0 0 1-.042 1.893 1.735 1.735 0 0 1-.98 1.278 1.76 1.76 0 0 1-1.615-.066 5.444 5.444 0 0 1-1.498-1.193c-1.195-1.276-2.393-2.562-3.505-3.917a42.788 42.788 0 0 0-5.51-5.366 83.35 83.35 0 0 0-20.02-12.462c-2.6-1.175-5.243-2.24-7.929-3.192l.435-1.215c1.968.69 3.921 1.43 5.859 2.216 7.304 2.981 13.992 6.998 20.334 11.63a59.026 59.026 0 0 1 10.345 9.948c.527.632 1.042 1.278 1.594 1.872.251.207.528.38.823.516.662-.678.459-1.385.295-2.052a55.531 55.531 0 0 0-2.572-8.159c-.152-.359-.286-.716-.473-1.07l1.246-.436c1.586 3.058 2.448 6.405 3.213 9.775Z" fill="#2F282B"/><path d="M312.225 120.171c.164.668.365 1.387-.295 2.053a3.844 3.844 0 0 1-.823-.516c-.56-.596-1.05-1.237-1.593-1.872a59.047 59.047 0 0 0-10.335-9.937c-6.342-4.632-13.051-8.654-20.334-11.63a123.6 123.6 0 0 0-5.858-2.217 274.732 274.732 0 0 0-6.686-2.263c-2.99-.984-6.05-1.346-9.138-1.644-2.9-.289-5.821-.547-8.737-.682a87.31 87.31 0 0 0-20.404 1.386c-1.66.321-3.336.596-4.985.971a60.396 60.396 0 0 0-13.31 4.854c-.681.338-1.367.676-2.066.971-.295.079-.598.12-.903.126-.029-.316-.129-.564-.056-.745a6.18 6.18 0 0 1 .732-1.375 54.851 54.851 0 0 1 5.445-6.151 23.373 23.373 0 0 1 9.838-5.531 61.777 61.777 0 0 1 11.018-1.984 111.36 111.36 0 0 1 15.753-.462 76.8 76.8 0 0 1 14.953 1.933c1.079.261 2.175.465 3.26.697a78.703 78.703 0 0 1 13.647 4.511l.863.372a105.495 105.495 0 0 1 13.502 6.91 50.494 50.494 0 0 1 8.699 6.459 22.506 22.506 0 0 1 4.774 6.513c.166.35.321.71.472 1.07a55.449 55.449 0 0 1 2.567 8.183Zm-2.963-3.072a.76.76 0 0 0 .07-.635 1.607 1.607 0 0 0-.41-.563c-1.461-1.508-2.843-3.099-4.415-4.5a77.663 77.663 0 0 0-14.062-10.071 103.561 103.561 0 0 0-9.677-4.918c-2.853-1.212-5.791-2.19-8.707-3.223a65.789 65.789 0 0 0-12.772-3.133c-2.43-.34-4.884-.486-7.325-.75a68.916 68.916 0 0 0-11.552-.25c-5.546.314-11.053.881-16.466 2.193a61.762 61.762 0 0 0-11.314 3.719c-.38.15-.746.333-1.094.546a.743.743 0 0 0-.253.587.501.501 0 0 0 .659.403 9.791 9.791 0 0 0 1.485-.507 72.314 72.314 0 0 1 14.278-4.157 96.71 96.71 0 0 1 14.098-1.492 83.151 83.151 0 0 1 10.154.291c3.88.302 7.661.901 11.441 1.548 3.766.976 7.463 1.99 11.129 3.292a82.436 82.436 0 0 1 10.787 4.606c4.602 2.416 9.111 5.003 13.247 8.186a72.105 72.105 0 0 1 9.023 8.038c.314.341.669.642 1.057.898a.639.639 0 0 0 .598-.113l.021.005Z" fill="#16727E"/><path d="M309.31 116.458a.78.78 0 0 1-.07.635.64.64 0 0 1-.616.091 5.777 5.777 0 0 1-1.057-.898 72.034 72.034 0 0 0-9.023-8.038c-4.139-3.188-8.643-5.774-13.247-8.185a82.377 82.377 0 0 0-10.786-4.607c-3.666-1.303-7.363-2.316-11.13-3.291-3.779-.647-7.582-1.251-11.441-1.549a83.129 83.129 0 0 0-10.153-.29c-4.731.151-9.443.65-14.099 1.49a72.313 72.313 0 0 0-14.278 4.159c-.48.208-.977.378-1.484.507a.505.505 0 0 1-.659-.403.728.728 0 0 1 .252-.587 7.208 7.208 0 0 1 1.095-.547 61.777 61.777 0 0 1 11.313-3.719c5.413-1.311 10.921-1.879 16.466-2.193 3.85-.24 7.715-.157 11.552.25 2.442.264 4.896.41 7.325.75a65.774 65.774 0 0 1 12.772 3.133c2.917 1.034 5.855 2.011 8.707 3.223a103.386 103.386 0 0 1 9.648 4.93 77.68 77.68 0 0 1 14.063 10.07c1.563 1.399 2.954 2.993 4.415 4.5.186.155.335.349.435.569Zm1.096-5.965-1.246.436a22.503 22.503 0 0 0-4.773-6.513 50.512 50.512 0 0 0-8.699-6.459 105.571 105.571 0 0 0-13.503-6.91l.52-1.198a99.785 99.785 0 0 1 15.946 8.393c3.465 2.241 6.658 4.752 9.209 8.007.16.147.337.275.528.379.078-.363.155-.621.189-.884l1.306.166c-.052.241-.063.501-.094.747a6.387 6.387 0 0 0 .617 3.836Z" fill="#2F282B"/><path d="m309.874 105.891-1.306-.166c.436-3.881.916-7.748 1.27-11.633a43.445 43.445 0 0 0-.286-9.934c-1.097-7.926-4.532-14.633-10.456-20.067-4.396-4.037-9.568-6.845-15.086-9.054a102.66 102.66 0 0 0-6.778-2.41c-2.616-.843-5.228-1.703-8.004-1.92-2.33-.19-4.655-.49-6.984-.705a54.207 54.207 0 0 0-14.488.544c-10.385 1.837-18.374 7.143-23.775 16.227a52.637 52.637 0 0 0-4.721 10.682c-.629 1.938-1.267 3.874-1.888 5.814-.192.613-.36 1.231-.539 1.847-.18.616-.354 1.16-.595 1.94.531-.208.863-.303 1.159-.458a32.28 32.28 0 0 1 7.942-2.708c5.849-1.262 11.784-1.698 17.746-1.788a96.278 96.278 0 0 1 10.327.323 59.91 59.91 0 0 1 6.96.86c3.034.65 6.079 1.248 9.103 1.947a57.453 57.453 0 0 1 5.895 1.698c2.478.874 4.912 1.87 7.335 2.877l-.519 1.198-.863-.373a78.74 78.74 0 0 0-13.647-4.51l-3.261-.698a76.759 76.759 0 0 0-14.952-1.932 111.258 111.258 0 0 0-15.754.46 61.74 61.74 0 0 0-11.017 1.986 23.375 23.375 0 0 0-9.839 5.53 54.908 54.908 0 0 0-5.444 6.152 6.182 6.182 0 0 0-.732 1.374c-.074.181.024.442.055.745a3.79 3.79 0 0 0 .904-.125c.697-.287 1.384-.633 2.066-.972a60.389 60.389 0 0 1 13.309-4.853c1.65-.376 3.325-.65 4.985-.972a87.303 87.303 0 0 1 20.404-1.386c2.917.135 5.841.377 8.738.682 3.088.299 6.148.66 9.137 1.645a271.43 271.43 0 0 1 6.686 2.263l-.435 1.216a105.216 105.216 0 0 0-4.866-1.595 49.774 49.774 0 0 0-6.818-1.646 111.4 111.4 0 0 0-8.553-.992 92.64 92.64 0 0 0-23.737 1.088 69.054 69.054 0 0 0-11.8 3.205c-2.13.8-4.183 1.793-6.276 2.706-.537.235-1.052.512-1.591.738a6.572 6.572 0 0 1-1.16.384c-1.762.347-2.887-.848-2.37-2.57.17-.555.44-1.073.797-1.531 2.239-2.846 4.529-5.645 7.39-7.917.558-.417.968-1 1.172-1.665a413.923 413.923 0 0 1 3.272-10.508c1.783-5.525 4.234-10.716 7.889-15.287a33.37 33.37 0 0 1 14.423-10.47c5.134-1.956 10.493-2.669 15.965-2.76 2.98-.013 5.959.137 8.924.447a2.9 2.9 0 0 0 .557-.042c.114-.195.215-.398.3-.607.534-1.513 1.763-2.093 3.215-2.345.117-.01.234-.011.351-.003a15.933 15.933 0 0 1 6.966 1.49c1.608.78 2.565 2 2.307 3.904.003.154.03.307.078.453.921.346 1.89.736 2.878 1.074a55.113 55.113 0 0 1 15.192 7.843c7.835 5.846 12.496 13.579 13.9 23.246a53.262 53.262 0 0 1-.042 14.113c-.334 2.624-.682 5.259-1.015 7.901Zm-32.555-54.877c.25-1.172-.283-1.854-1.205-2.3a14.058 14.058 0 0 0-6.613-1.414 2.63 2.63 0 0 0-1.016.22 1.389 1.389 0 0 0-.935 1.545c1.668.234 3.283.449 4.892.692 1.609.244 3.137 1.212 4.877 1.257Z" fill="#2F282B"/><path d="M308.567 105.725c-.03.264-.111.521-.189.884a2.666 2.666 0 0 1-.528-.379c-2.551-3.255-5.778-5.773-9.209-8.007a99.801 99.801 0 0 0-15.946-8.393c-2.413-1.013-4.856-2.011-7.335-2.877a57.519 57.519 0 0 0-5.896-1.697c-3.02-.716-6.068-1.298-9.103-1.947a59.803 59.803 0 0 0-6.959-.86 96.312 96.312 0 0 0-10.327-.324c-5.962.09-11.894.51-17.747 1.789a32.307 32.307 0 0 0-7.942 2.707c-.296.155-.627.25-1.159.46.242-.782.419-1.364.595-1.942.176-.577.348-1.234.54-1.847.625-1.939 1.267-3.874 1.888-5.813a52.589 52.589 0 0 1 4.721-10.682c5.401-9.084 13.39-14.39 23.775-16.227a54.205 54.205 0 0 1 14.488-.545c2.329.215 4.653.516 6.984.704 2.776.219 5.388 1.078 8.004 1.922 2.285.728 4.552 1.523 6.777 2.409 5.522 2.197 10.678 5.014 15.086 9.055 5.925 5.433 9.36 12.14 10.456 20.066.476 3.29.572 6.623.287 9.934-.344 3.861-.827 7.737-1.261 11.61ZM278.413 69.85c1.13-2.293.568-4.337-1.482-5.491a5.918 5.918 0 0 0-6.089.006c-.498.282-1.009.618-1.519.954-.336-.478-.62-.931-.935-1.365a6.007 6.007 0 0 0-2.254-1.99 6.031 6.031 0 0 0-2.94-.652c-2.336.024-3.799 1.369-4.031 3.666a6.312 6.312 0 0 0 1.437 4.548 17.925 17.925 0 0 0 6.273 5.098c.26.13.548.193.838.18a17.939 17.939 0 0 0 7.938-2.156 6.457 6.457 0 0 0 2.764-2.798Z" fill="#40B4C4"/><path d="M276.931 64.358c2.05 1.154 2.612 3.198 1.482 5.49a6.454 6.454 0 0 1-2.789 2.794 17.94 17.94 0 0 1-7.937 2.155 1.688 1.688 0 0 1-.839-.18 17.914 17.914 0 0 1-6.272-5.097 6.314 6.314 0 0 1-1.438-4.548c.241-2.317 1.695-3.643 4.032-3.666a6.025 6.025 0 0 1 5.193 2.642c.315.434.612.89.936 1.365.533-.323 1.016-.656 1.518-.954a5.906 5.906 0 0 1 6.114-.001Z" fill="#16727E"/><path d="M276.113 48.727c.922.446 1.464 1.129 1.205 2.3-1.741-.059-3.225-1.009-4.876-1.262-1.651-.252-3.224-.458-4.892-.693a1.39 1.39 0 0 1 .935-1.545c.321-.14.666-.214 1.016-.219a14.058 14.058 0 0 1 6.612 1.419Z" fill="#40B4C4"/><path d="M246.77 111.975a1.06 1.06 0 0 0 1.261-.812 1.06 1.06 0 0 0-.818-1.258 1.062 1.062 0 0 0-1.262.813 1.062 1.062 0 0 0 .819 1.257Zm31.493 6.737a1.061 1.061 0 0 0 1.261-.813 1.061 1.061 0 0 0-.819-1.258 1.061 1.061 0 0 0-1.261.813 1.061 1.061 0 0 0 .819 1.258Z" fill="#fff"/></g><defs><linearGradient id="a" x1="13.533" y1="227.081" x2="431.288" y2="39.434" gradientUnits="userSpaceOnUse"><stop stop-color="#8C3EBC"/><stop offset="1" stop-color="#007782"/></linearGradient><linearGradient id="b" x1="13.533" y1="227.081" x2="431.288" y2="39.434" gradientUnits="userSpaceOnUse"><stop stop-color="#8C3EBC"/><stop offset="1" stop-color="#007782"/></linearGradient><linearGradient id="c" x1="13.533" y1="227.081" x2="431.288" y2="39.434" gradientUnits="userSpaceOnUse"><stop stop-color="#8C3EBC"/><stop offset="1" stop-color="#007782"/></linearGradient></defs></svg>
