<svg width="444" height="180" viewBox="0 0 444 180" fill="none" xmlns="http://www.w3.org/2000/svg"><path d="M.533 143v-21.306L75.959 2.546h16.79V33.91H82.095l-53.949 85.397v1.364h103.381V143H.533Zm82.756 34.091v-40.568l.17-9.716V2.546h24.972V177.09H83.289Zm138.807 2.898c-13.466-.057-24.972-3.608-34.517-10.653-9.546-7.046-16.847-17.302-21.904-30.767-5.056-13.466-7.585-29.688-7.585-48.665 0-18.92 2.529-35.085 7.585-48.494 5.114-13.41 12.444-23.637 21.989-30.682C197.266 3.682 208.744.159 222.096.159c13.352 0 24.801 3.552 34.346 10.654 9.546 7.045 16.847 17.273 21.904 30.682 5.114 13.352 7.67 29.488 7.67 48.409 0 19.034-2.528 35.284-7.585 48.75-5.057 13.409-12.358 23.665-21.903 30.767-9.546 7.045-21.023 10.568-34.432 10.568Zm0-22.756c11.818 0 21.051-5.767 27.699-17.301 6.704-11.534 10.057-28.21 10.057-50.028 0-14.489-1.535-26.733-4.603-36.733-3.011-10.057-7.358-17.67-13.039-22.841-5.625-5.227-12.33-7.841-20.114-7.841-11.761 0-20.994 5.796-27.699 17.386-6.705 11.591-10.085 28.267-10.142 50.029 0 14.545 1.506 26.846 4.517 36.903 3.068 10 7.415 17.585 13.04 22.756 5.625 5.114 12.386 7.67 20.284 7.67ZM312.686 143v-21.306L388.112 2.546h16.79V33.91h-10.654L340.3 119.306v1.364h103.38V143H312.686Zm82.756 34.091v-40.568l.17-9.716V2.546h24.972V177.09h-25.142Z" fill="url(#a)"/><defs><linearGradient id="a" x1="-13" y1="210.091" x2="459.284" y2="41.505" gradientUnits="userSpaceOnUse"><stop stop-color="#8C3EBC"/><stop offset="1" stop-color="#007782"/></linearGradient></defs></svg>
