<svg version="1.0" xmlns="http://www.w3.org/2000/svg" width="85.333" height="85.333" viewBox="0 0 64 64"><path d="M25.5 4.9C21 6 14.8 9.5 12.1 12.4L9.7 15H25c12.9 0 15.6-.3 17.2-1.7 1.7-1.5 1.9-1.5 3.6 0 2 1.8 7.2 2.3 7.2.8 0-1.7-8.5-7.2-13.4-8.6-5.3-1.6-9.3-1.7-14.1-.6zm10 16.1c-1.7 1.8-3 2-16 2-13.9 0-14.3.1-14.9 2.2C3.4 30 3.3 30 16.7 30c11.6 0 12.9-.2 15-2.2l2.3-2.1 2.3 2.1c2.1 2 3.4 2.2 12.6 2.2h10.2l-.3-3.3-.3-3.2-8.5-.3c-6.8-.2-8.9-.7-10.6-2.3-2.1-1.9-2.1-1.9-3.9.1zM25 35.5c-.9 1.1-3.5 1.5-10.6 1.5-8.6 0-9.4.2-9.4 1.9 0 4.6.9 5.1 8.3 5.1 5.1 0 7.5-.4 8.9-1.7 1.7-1.5 1.9-1.5 3.6 0 1.6 1.4 4.3 1.7 16.6 1.7H57l1-2.6c.6-1.4 1-3 1-3.5s-5.9-.9-13.9-.9C34 37 31 36.7 30 35.5c-.7-.8-1.8-1.5-2.5-1.5s-1.8.7-2.5 1.5zM13.7 49.8c-1.6 1.7-1.6 2 .6 3.9 4.7 4.4 8.9 5.8 17.2 5.8 7.1 0 8.6-.3 13.4-3.1 8.9-5 8.1-5.4-9.2-5.4-12.5 0-15.7-.3-16.7-1.5-1.7-2-3.3-1.9-5.3.3z"/></svg>
