<svg width="24" height="24" viewBox="0 0 24 24" fill="none" xmlns="http://www.w3.org/2000/svg">
<path d="M4.22222 12V19.7778C4.22222 20.3671 4.45635 20.9324 4.8731 21.3491C5.28984 21.7659 5.85507 22 6.44444 22H17.5556C18.1449 22 18.7102 21.7659 19.1269 21.3491C19.5437 20.9324 19.7778 20.3671 19.7778 19.7778V12M12 7.55556V22V7.55556ZM12 7.55556V5.33333C12 4.89382 12.1303 4.46418 12.3745 4.09873C12.6187 3.73329 12.9658 3.44846 13.3718 3.28027C13.7779 3.11207 14.2247 3.06807 14.6558 3.15381C15.0868 3.23956 15.4828 3.4512 15.7936 3.76199C16.1044 4.07277 16.316 4.46873 16.4017 4.8998C16.4875 5.33087 16.4435 5.77768 16.2753 6.18374C16.1071 6.5898 15.8223 6.93686 15.4568 7.18104C15.0914 7.42523 14.6617 7.55556 14.2222 7.55556H12ZM12 7.55556V4.77778C12 4.22839 11.8371 3.69133 11.5319 3.23453C11.2266 2.77773 10.7928 2.42169 10.2852 2.21145C9.77766 2.0012 9.21914 1.94619 8.6803 2.05338C8.14147 2.16056 7.64652 2.42511 7.25804 2.81359C6.86956 3.20207 6.605 3.69703 6.49782 4.23586C6.39064 4.7747 6.44565 5.33322 6.65589 5.84079C6.86613 6.34836 7.22217 6.78219 7.67897 7.08742C8.13578 7.39264 8.67283 7.55556 9.22222 7.55556H12ZM4.22222 12H19.7778H4.22222ZM4.22222 12C3.63285 12 3.06762 11.7659 2.65087 11.3491C2.23413 10.9324 2 10.3671 2 9.77778C2 9.18841 2.23413 8.62318 2.65087 8.20643C3.06762 7.78968 3.63285 7.55556 4.22222 7.55556H19.7778C20.3671 7.55556 20.9324 7.78968 21.3491 8.20643C21.7659 8.62318 22 9.18841 22 9.77778C22 10.3671 21.7659 10.9324 21.3491 11.3491C20.9324 11.7659 20.3671 12 19.7778 12H4.22222Z" stroke="#A5A8B6" stroke-width="1.5" stroke-linecap="round" stroke-linejoin="round"/>
</svg>
