<svg width="22" height="19" viewBox="0 0 22 19" fill="none" xmlns="http://www.w3.org/2000/svg">
<path d="M2.46448 2.45838C2.00018 2.92074 1.63188 3.46964 1.38061 4.07375C1.12933 4.67785 1 5.32533 1 5.9792C1 6.63308 1.12933 7.28055 1.38061 7.88466C1.63188 8.48876 2.00018 9.03766 2.46448 9.50002L11 18L19.5355 9.50002C20.4732 8.56624 21 7.29977 21 5.9792C21 4.65864 20.4732 3.39216 19.5355 2.45838C18.5978 1.5246 17.3261 1.00001 16 1.00001C14.6739 1.00001 13.4021 1.5246 12.4644 2.45838L11 3.91672L9.53557 2.45838C9.07128 1.99602 8.52008 1.62925 7.91345 1.37902C7.30682 1.12879 6.65664 1 6.00003 1C5.34341 1 4.69323 1.12879 4.0866 1.37902C3.47997 1.62925 2.92877 1.99602 2.46448 2.45838V2.45838Z" stroke="#A5A8B6" stroke-width="1.5" stroke-linecap="round" stroke-linejoin="round"/>
</svg>
