<svg width="47" height="47" viewBox="0 0 47 47" fill="none" xmlns="http://www.w3.org/2000/svg"><mask id="a" style="mask-type:alpha" maskUnits="userSpaceOnUse" x="0" y="0" width="44" height="44"><path fill-rule="evenodd" clip-rule="evenodd" d="M43.717 25.537A22.15 22.15 0 0 0 44 22C44 9.85 34.15 0 22 0S0 9.85 0 22s9.85 22 22 22a22.15 22.15 0 0 0 3.537-.283A12.942 12.942 0 0 1 23 36c0-7.18 5.82-13 13-13 2.89 0 5.559.943 7.717 2.537Z" fill="#D9D9D9" style="fill:color(display-p3 .851 .851 .851);fill-opacity:1"/></mask><g mask="url(#a)"><path d="M22 44c12.15 0 22-9.85 22-22S34.15 0 22 0 0 9.85 0 22s9.85 22 22 22Z" fill="#1A1642" style="fill:color(display-p3 .102 .0863 .2588);fill-opacity:1"/><path d="m37.984 23.994-1.21-4.722a.391.391 0 0 0-.285-.282l-4.676-1.153a.515.515 0 0 0-.108-.012.382.382 0 0 0-.312.108l-7.89 7.898-1.044-4.082a.391.391 0 0 0-.285-.282l-4.017-.991 7.886-7.894a.404.404 0 0 0 .093-.163.374.374 0 0 0 .023-.25l-1.21-4.723a.391.391 0 0 0-.285-.281L19.988 6.01a.393.393 0 0 0-.266.03h-.004c-.023.012-.042.028-.065.043-.02.016-.046.023-.062.043L6.132 19.592s-.023.039-.039.058a.38.38 0 0 0-.077.359l1.307 4.564a.385.385 0 0 0 .266.266l4.378 1.258 1.257 4.38a.385.385 0 0 0 .266.266l4.394 1.261 1.26 4.399a.385.385 0 0 0 .266.266l4.58 1.316a.35.35 0 0 0 .107.015c.008 0 .015-.004.027-.004h.008c.1 0 .2-.038.277-.116l13.463-13.477a.403.403 0 0 0 .093-.162.374.374 0 0 0 .023-.25l-.004.003Zm-6.036 5.236-.983-3.839 2.178-2.176 3.743 1.076-4.934 4.943-.004-.004Zm-7.635 7.643-.983-3.839 3.94-3.943 3.742 1.077-6.7 6.705Zm3.037-8.966-.94-3.28 3.38.834-2.44 2.442v.004Zm2.976-1.875.863 3.368-3.288-.945 2.425-2.427v.004Zm.111-1.216-3.83-.945 4.921-4.927 1.064 3.716-2.155 2.156Zm-4.783.004 1.064 3.716-3.92 3.923-3.831-.945 6.687-6.694Zm10.422-5.135.983 3.839-3.715-1.07-1.064-3.707 3.796.938ZM18.39 30.943l-.983-3.839 1.418-1.42 3.743 1.077-4.178 4.182Zm.516-6.443-.94-3.28 3.38.834-2.44 2.442v.004Zm3.84 1.497-3.289-.945 2.425-2.427.863 3.368v.004Zm-4.468-.864-1.4 1.4-3.83-.945 4.166-4.17 1.064 3.715Zm-4.41-12.181 1.064 3.716-3.954 3.958-3.831-.945 6.722-6.73Zm5.84-5.845 1.064 3.715-2.12 2.122L14.82 12l4.887-4.892Zm.455 10.251-.983-3.835 2.143-2.145 3.742 1.072-4.902 4.908Zm-4.598-1.32-.94-3.279 3.38.833-2.44 2.443v.004Zm2.975-1.875.863 3.369-3.283-.945 2.424-2.427-.004.003Zm-3.053 3.056 3.743 1.073-6.733 6.74-.983-3.835 3.973-3.978Zm8.769-9.364.983 3.84-3.716-1.07-1.063-3.707 3.796.937ZM6.953 20.441l3.38.833-2.44 2.443-.94-3.28v.004Zm1.492 3.831 2.424-2.427.863 3.369-3.284-.946-.003.004Zm5.469 5.784-1.064-3.708 3.797.938.982 3.838-3.715-1.068Zm4.86 2.218 3.38.834-2.44 2.442-.94-3.28v.004Zm1.492 3.832 2.424-2.427.863 3.368-3.287-.945v.004Z" fill="url(#b)"/></g><rect x="26" y="26" width="20" height="20" rx="10" fill="#6F41D8" style="fill:color(display-p3 .4353 .2549 .8471);fill-opacity:1"/><rect x="25" y="25" width="22" height="22" rx="11" fill="#25292E" style="fill:color(display-p3 .1451 .1608 .1804);fill-opacity:1"/><path d="m35.998 28.498-.1.342v9.918l.1.1 4.604-2.72-4.604-7.64Z" fill="#fff" style="fill:#fff;fill-opacity:1"/><path d="m35.998 28.498-4.604 7.64 4.604 2.72v-10.36Z" fill="#fff" style="fill:#fff;fill-opacity:1"/><path fill-rule="evenodd" clip-rule="evenodd" d="m35.998 43.5 4.607-6.488-4.607 2.72-4.604-2.72 4.604 6.488Z" fill="url(#c)"/><path d="m35.998 38.859 4.604-2.721-4.604-2.093v4.814Zm-4.604-2.721 4.604 2.721v-4.814l-4.604 2.093Z" fill="#fff" style="fill:#fff;fill-opacity:1"/><defs><linearGradient id="b" x1="8.217" y1="27.023" x2="35.933" y2="16.944" gradientUnits="userSpaceOnUse"><stop stop-color="#29BCFA" style="stop-color:color(display-p3 .1608 .7373 .9804);stop-opacity:1"/><stop offset=".43" stop-color="#6464E4" style="stop-color:color(display-p3 .3922 .3922 .8941);stop-opacity:1"/><stop offset="1" stop-color="#B45AFA" style="stop-color:color(display-p3 .7059 .3529 .9804);stop-opacity:1"/></linearGradient><linearGradient id="c" x1="35.999" y1="37.012" x2="35.999" y2="43.5" gradientUnits="userSpaceOnUse"><stop stop-color="#fff" style="stop-color:white;stop-opacity:1"/><stop offset="1" stop-color="#fff" stop-opacity=".85" style="stop-color:white;stop-opacity:.85"/></linearGradient></defs></svg>
