<svg width="100" height="100" viewBox="0 0 100 100" fill="none" xmlns="http://www.w3.org/2000/svg"><rect width="100" height="100" rx="50" fill="#fff" style="fill:#fff;fill-opacity:1"/><rect width="100" height="100" rx="50" fill="#F24900" style="fill:color(display-p3 .949 .2863 0);fill-opacity:1"/><rect width="100" height="100" rx="50" fill="url(#a)" fill-opacity=".68"/><path d="M50.236 14C30.774 14 14.995 30.08 15 49.91h9.002C24.002 35.049 35.654 23 50.236 23c14.582 0 26.235 12.05 26.235 26.91h9.002C85.476 30.079 69.697 14 50.236 14Z" fill="#fff" style="fill:#fff;fill-opacity:1"/><path d="M48.73 49.882a8.12 8.12 0 1 0-16.241 0h16.24Zm19.227 0a8.12 8.12 0 1 0-16.24 0h16.24Z" fill="#fff" style="fill:#fff;fill-opacity:1"/><defs><radialGradient id="a" cx="0" cy="0" r="1" gradientUnits="userSpaceOnUse" gradientTransform="matrix(0 -100 100 0 50 100)"><stop stop-color="#E0A88F" style="stop-color:color(display-p3 .8779 .6574 .5621);stop-opacity:1"/><stop offset=".5" stop-color="#FB824E" style="stop-color:color(display-p3 .9837 .509 .304);stop-opacity:1"/><stop offset="1" stop-color="#FF540A" style="stop-color:color(display-p3 1 .3296 .04);stop-opacity:1"/></radialGradient></defs></svg>
