<svg width="100" height="100" viewBox="0 0 100 100" fill="none" xmlns="http://www.w3.org/2000/svg"><path fill="#000" style="fill:#000;fill-opacity:1" d="M0 0h100v100H0z"/><path d="M77.682 42.07a2.569 2.569 0 0 1-1.786 2.446 85.63 85.63 0 0 1-52.196 0 2.569 2.569 0 0 1-1.786-2.447V23.175c0-1.234 1.56-1.771 2.32-.799 12.988 16.625 38.14 16.625 51.128 0 .76-.972 2.32-.435 2.32.8v18.893Z" fill="#7DC0FF" style="fill:color(display-p3 .4906 .7538 1);fill-opacity:1"/><path d="M77.682 58.07a2.569 2.569 0 0 0-1.786-2.447 85.63 85.63 0 0 0-52.196 0 2.569 2.569 0 0 0-1.786 2.447v18.68c0 1.222 1.575 1.715 2.272.712 12.404-17.862 38.82-17.862 51.224 0 .697 1.003 2.272.51 2.272-.712V58.07Z" fill="#0D74FF" style="fill:color(display-p3 .0518 .4556 1);fill-opacity:1"/></svg>
