<svg width="47" height="47" viewBox="0 0 47 47" fill="none" xmlns="http://www.w3.org/2000/svg"><mask id="a" style="mask-type:alpha" maskUnits="userSpaceOnUse" x="0" y="0" width="44" height="44"><path fill-rule="evenodd" clip-rule="evenodd" d="M43.717 25.537A22.15 22.15 0 0 0 44 22C44 9.85 34.15 0 22 0S0 9.85 0 22s9.85 22 22 22a22.15 22.15 0 0 0 3.537-.283A12.942 12.942 0 0 1 23 36c0-7.18 5.82-13 13-13 2.89 0 5.559.943 7.717 2.537Z" fill="#D9D9D9" style="fill:color(display-p3 .851 .851 .851);fill-opacity:1"/></mask><g mask="url(#a)"><path d="M22 44c12.15 0 22-9.85 22-22S34.15 0 22 0 0 9.85 0 22s9.85 22 22 22Z" fill="#F69988" style="fill:color(display-p3 .9647 .6 .5333);fill-opacity:1"/><path fill-rule="evenodd" clip-rule="evenodd" d="m22.01 6.445 7.717 12.052-7.717 4.487-7.717-4.488 7.717-12.05Zm-5.355 11.482 5.355-8.362 5.355 8.362-5.355 3.113-5.355-3.113Z" fill="#fff" style="fill:#fff;fill-opacity:1"/><path d="m21.999 25.632-8.952-5.205-.245.382a10.865 10.865 0 0 0 1.48 13.557c4.263 4.251 11.173 4.251 15.435 0a10.865 10.865 0 0 0 1.48-13.557l-.244-.382L22 25.633Z" fill="#fff" style="fill:#fff;fill-opacity:1"/></g><rect x="26" y="26" width="20" height="20" rx="10" fill="#6F41D8" style="fill:color(display-p3 .4353 .2549 .8471);fill-opacity:1"/><rect x="25" y="25" width="22" height="22" rx="11" fill="#25292E" style="fill:color(display-p3 .1451 .1608 .1804);fill-opacity:1"/><path d="m35.998 28.498-.1.342v9.918l.1.1 4.604-2.72-4.604-7.64Z" fill="#fff" style="fill:#fff;fill-opacity:1"/><path d="m35.998 28.498-4.604 7.64 4.604 2.72v-10.36Z" fill="#fff" style="fill:#fff;fill-opacity:1"/><path fill-rule="evenodd" clip-rule="evenodd" d="m35.998 43.5 4.607-6.488-4.607 2.72-4.604-2.72 4.604 6.488Z" fill="url(#b)"/><path d="m35.998 38.859 4.604-2.721-4.604-2.093v4.814Zm-4.604-2.721 4.604 2.721v-4.814l-4.604 2.093Z" fill="#fff" style="fill:#fff;fill-opacity:1"/><defs><linearGradient id="b" x1="35.999" y1="37.012" x2="35.999" y2="43.5" gradientUnits="userSpaceOnUse"><stop stop-color="#fff" style="stop-color:white;stop-opacity:1"/><stop offset="1" stop-color="#fff" stop-opacity=".85" style="stop-color:white;stop-opacity:.85"/></linearGradient></defs></svg>
