<svg width="24" height="24" viewBox="-3.5 -3.5 24 24"><svg width="17" height="17" viewBox="0 0 17 17" fill="none" xmlns="http://www.w3.org/2000/svg"><path d="m8.448 2.052 1.436-.702a.755.755 0 0 1 .999.325l.75 1.412c.109.206.307.35.536.39l1.575.276c.4.07.674.447.617.85l-.224 1.583a.755.755 0 0 0 .205.63l1.112 1.15a.755.755 0 0 1 0 1.05l-1.112 1.15a.755.755 0 0 0-.205.63l.224 1.583a.755.755 0 0 1-.617.85l-1.575.276a.754.754 0 0 0-.537.39l-.749 1.412a.755.755 0 0 1-.999.325l-1.436-.702a.756.756 0 0 0-.664 0l-1.436.702a.755.755 0 0 1-.999-.325l-.75-1.412a.755.755 0 0 0-.536-.39l-1.575-.276a.755.755 0 0 1-.617-.85l.224-1.583a.755.755 0 0 0-.205-.63L.778 9.015a.755.755 0 0 1 0-1.05l1.112-1.15a.755.755 0 0 0 .205-.63l-.224-1.583a.755.755 0 0 1 .617-.85l1.575-.276a.755.755 0 0 0 .537-.39l.75-1.412a.755.755 0 0 1 .998-.325l1.436.702c.21.103.455.103.664 0Z" fill="#669AFF"/><path d="M6.15 8.14a1.53 1.53 0 0 1-1.528-1.529 1.53 1.53 0 0 1 1.529-1.528A1.53 1.53 0 0 1 7.68 6.61a1.53 1.53 0 0 1-1.53 1.53Zm0-2.355a.827.827 0 0 0 0 1.653.827.827 0 0 0 0-1.653ZM5.316 11.9a.35.35 0 0 1-.258-.59l5.599-6.113a.351.351 0 1 1 .518.474l-5.6 6.114a.35.35 0 0 1-.259.114Zm4.937-.001a1.53 1.53 0 0 1-1.529-1.529 1.53 1.53 0 0 1 1.529-1.529 1.53 1.53 0 0 1 1.529 1.53 1.53 1.53 0 0 1-1.53 1.528Zm0-2.355a.827.827 0 0 0 0 1.653.827.827 0 0 0 0-1.653Z" fill="#fff"/><path d="M10.219 16.061a1.11 1.11 0 0 1-.489-.114l-1.436-.702a.401.401 0 0 0-.355 0l-1.437.702a1.101 1.101 0 0 1-1.463-.475l-.75-1.413a.4.4 0 0 0-.286-.208l-1.575-.276a1.102 1.102 0 0 1-.905-1.245l.224-1.583a.406.406 0 0 0-.11-.338L.527 9.26a1.102 1.102 0 0 1 0-1.538l1.112-1.15a.401.401 0 0 0 .11-.337l-.225-1.583a1.102 1.102 0 0 1 .905-1.245l1.574-.276a.402.402 0 0 0 .288-.209L5.04 1.51c.281-.53.924-.74 1.463-.476l1.437.702a.403.403 0 0 0 .355 0l1.436-.702a1.101 1.101 0 0 1 1.463.476l.75 1.412a.401.401 0 0 0 .287.209l1.575.276c.59.104.988.65.904 1.245l-.224 1.583a.4.4 0 0 0 .11.337l1.111 1.15a1.102 1.102 0 0 1 0 1.538l-1.111 1.149a.402.402 0 0 0-.11.338l.224 1.583a1.102 1.102 0 0 1-.904 1.244l-1.575.277a.4.4 0 0 0-.287.208l-.75 1.413a1.102 1.102 0 0 1-.974.589Zm-2.103-1.56c.166 0 .332.038.486.113l1.437.702c.196.096.43.02.534-.173l.75-1.413a1.09 1.09 0 0 1 .786-.57l1.575-.277a.402.402 0 0 0 .33-.455l-.224-1.583a1.1 1.1 0 0 1 .3-.924l1.112-1.15a.402.402 0 0 0 0-.56L14.09 7.06a1.1 1.1 0 0 1-.3-.924l.224-1.583a.402.402 0 0 0-.33-.455l-1.575-.276a1.099 1.099 0 0 1-.787-.571l-.75-1.413a.402.402 0 0 0-.533-.173l-1.437.702a1.1 1.1 0 0 1-.972 0l-1.436-.702a.403.403 0 0 0-.534.173l-.75 1.413a1.1 1.1 0 0 1-.786.57L2.55 4.1a.402.402 0 0 0-.33.455l.224 1.583a1.1 1.1 0 0 1-.3.924L1.03 8.21a.402.402 0 0 0 0 .562L2.143 9.92a1.1 1.1 0 0 1 .3.924l-.224 1.583a.402.402 0 0 0 .33.455l1.575.276c.339.06.625.267.787.57l.749 1.414a.403.403 0 0 0 .534.173l1.437-.702c.154-.075.32-.113.485-.113Zm.332-12.449h.001-.001Z" fill="#4268B3"/></svg></svg>
