<svg width="24" height="24" viewBox="0 0 24 24" fill="none" xmlns="http://www.w3.org/2000/svg">
<path d="M10.8861 2.00037C9.00358 2.21075 7.21874 2.9484 5.73698 4.12842C4.25521 5.30844 3.13675 6.88287 2.51032 8.67051C1.88389 10.4582 1.77494 12.3863 2.19603 14.2332C2.61711 16.08 3.55111 17.7704 4.89053 19.1098C6.22995 20.4492 7.92035 21.3832 9.76717 21.8043C11.614 22.2254 13.5422 22.1165 15.3298 21.49C17.1175 20.8636 18.6919 19.7451 19.8719 18.2634C21.0519 16.7816 21.7896 14.9968 22 13.1143H10.8861V2.00037Z" stroke="#A5A8B6" stroke-width="1.5" stroke-linecap="round" stroke-linejoin="round"/>
<path d="M21.4889 8.64414H15.3558V2.51111C16.7699 3.0128 18.0543 3.82369 19.1153 4.88469C20.1763 5.94568 20.9872 7.23003 21.4889 8.64414Z" stroke="#A5A8B6" stroke-width="1.5" stroke-linecap="round" stroke-linejoin="round"/>
</svg>
