<svg width="20" height="19" viewBox="0 0 20 19" fill="none" xmlns="http://www.w3.org/2000/svg">
<path d="M17 17.3979H3C1.89543 17.3979 1 16.5025 1 15.3979V6.39795C1 5.29338 1.89543 4.39795 3 4.39795H17C18.1046 4.39795 19 5.29338 19 6.39795V15.3979C19 16.5025 18.1046 17.3979 17 17.3979Z" stroke="#A5A8B6" stroke-width="1.5"/>
<path d="M14.5 11.3979C14.2239 11.3979 14 11.174 14 10.8979C14 10.6218 14.2239 10.3979 14.5 10.3979C14.7761 10.3979 15 10.6218 15 10.8979C15 11.174 14.7761 11.3979 14.5 11.3979Z" stroke="#A5A8B6" stroke-width="1.5" stroke-linecap="round" stroke-linejoin="round"/>
<path d="M16 4.39787V3.00109C16 1.68703 14.7544 0.730041 13.4847 1.06862L2.48467 4.00196C1.60917 4.23543 1 5.02833 1 5.93443V6.39787" stroke="#A5A8B6" stroke-width="1.5"/>
</svg>
