<svg xmlns="http://www.w3.org/2000/svg" id="Group_38576" width="76.19" height="21.168" viewBox="0 0 76.19 21.168"><defs><style>.cls-1{fill:#fff}</style></defs><g id="Aave_Logo_Colored"><g id="Group_4051"><path id="Path_2431" d="M228.044 19.789L220.2 1.886a1.489 1.489 0 01-.1-.508 1.356 1.356 0 01.386-1A1.4 1.4 0 01221.527 0a1.466 1.466 0 01.81.254 1.634 1.634 0 01.559.671l7.462 17.521L237.82.925a1.634 1.634 0 01.559-.671 1.467 1.467 0 01.81-.254 1.4 1.4 0 011.041.381 1.356 1.356 0 01.386 1 1.49 1.49 0 01-.1.508l-7.848 17.9a2.1 2.1 0 01-1.967 1.379h-.694a2.1 2.1 0 01-1.963-1.379z" class="cls-1" transform="translate(-181.428)"/><path id="Path_2432" d="M342.105 21.259a1.271 1.271 0 01-.4-.96V2.177a1.339 1.339 0 01.4-.979 1.383 1.383 0 011.022-.4h12.746a1.307 1.307 0 01.964.381 1.184 1.184 0 01.4.906 1.121 1.121 0 01-.4.888 1.4 1.4 0 01-.964.362h-11.28v6.6h10.142a1.307 1.307 0 01.964.381 1.211 1.211 0 01.4.906 1.121 1.121 0 01-.4.888 1.4 1.4 0 01-.964.362h-10.143V19.1h11.28a1.307 1.307 0 01.964.381 1.184 1.184 0 01.4.906 1.121 1.121 0 01-.4.888 1.4 1.4 0 01-.964.362h-12.745a1.3 1.3 0 01-1.022-.378z" class="cls-1" transform="translate(-281.051 -.646)"/><path id="Path_2433" d="M144.239 19.281l-7.848-17.9A2.1 2.1 0 00134.424 0h-.694a2.1 2.1 0 00-1.967 1.379l-3.413 7.8h-2.584a1.375 1.375 0 00-1.408 1.324v.018a1.375 1.375 0 001.408 1.324h1.388l-3.254 7.436a1.491 1.491 0 00-.1.508 1.355 1.355 0 00.386 1 1.4 1.4 0 001.041.381 1.467 1.467 0 00.81-.254 1.634 1.634 0 00.559-.671l3.586-8.4h2.468a1.375 1.375 0 001.408-1.324v-.036a1.375 1.375 0 00-1.408-1.325h-1.33l2.757-6.439 7.462 17.521a1.634 1.634 0 00.559.671 1.466 1.466 0 00.81.254 1.4 1.4 0 001.041-.381 1.356 1.356 0 00.386-1 1.139 1.139 0 00-.096-.505z" class="cls-1" transform="translate(-102.219)"/><path id="Path_2434" d="M22.639 19.281l-7.848-17.9A2.1 2.1 0 0012.824 0h-.694a2.1 2.1 0 00-1.967 1.379l-3.413 7.8H4.167A1.375 1.375 0 002.759 10.5v.018a1.375 1.375 0 001.408 1.324h1.388L2.3 19.281a1.49 1.49 0 00-.1.508 1.355 1.355 0 00.386 1 1.4 1.4 0 001.041.381 1.466 1.466 0 00.81-.254A1.634 1.634 0 005 20.242l3.586-8.4h2.484a1.375 1.375 0 001.408-1.324v-.036A1.375 1.375 0 0011.07 9.16H9.739l2.738-6.439 7.463 17.521a1.634 1.634 0 00.559.671 1.466 1.466 0 00.81.254 1.4 1.4 0 001.041-.381 1.356 1.356 0 00.386-1 1.14 1.14 0 00-.097-.505z" class="cls-1" transform="translate(-2.2)"/></g></g></svg>