<svg xmlns="http://www.w3.org/2000/svg" xmlns:xlink="http://www.w3.org/1999/xlink" data-name="Group 10477" viewBox="0 0 120 33.338"><defs><linearGradient id="a" x1="-1.999" x2="1.962" y1="1.034" y2=".112" gradientUnits="objectBoundingBox"><stop offset="0" stop-color="#30bac6"/><stop offset="1" stop-color="#b6509e"/></linearGradient><linearGradient id="b" x1="-4.048" x2="1.181" y1="1.315" y2=".379" xlink:href="#a"/><linearGradient id="c" x1="-1.123" x2="2.834" y1=".926" y2=".004" xlink:href="#a"/><linearGradient id="d" x1="-.051" x2="3.906" y1=".677" y2="-.246" xlink:href="#a"/></defs><g data-name="Aave Logo Colored"><g data-name="Group 4051"><path fill="url(#a)" d="M231.869 31.167l-11.626-28.2a2.479 2.479 0 01-.143-.8A2.21 2.21 0 01220.671.6a2 2 0 011.543-.6 2.083 2.083 0 011.2.4 2.543 2.543 0 01.828 1.057l11.054 27.6 11.055-27.6A2.543 2.543 0 01247.179.4a2.083 2.083 0 011.2-.4 2 2 0 011.543.6 2.21 2.21 0 01.571 1.571 2.479 2.479 0 01-.143.8l-11.626 28.2a3.127 3.127 0 01-2.914 2.171h-1.028a3.127 3.127 0 01-2.913-2.175z" data-name="Path 2431" transform="translate(-157.858)"/><path fill="url(#b)" d="M342.3 33.053a2.067 2.067 0 01-.6-1.514V2.971a2.181 2.181 0 01.6-1.543A1.984 1.984 0 01343.814.8H362.7a1.876 1.876 0 011.428.6 1.92 1.92 0 01.6 1.428 1.815 1.815 0 01-.6 1.4 2.007 2.007 0 01-1.428.572h-16.71v10.4h15.02a1.876 1.876 0 011.428.6 1.966 1.966 0 01.6 1.428 1.816 1.816 0 01-.6 1.4 2.007 2.007 0 01-1.428.571h-15.025v10.454H362.7a1.876 1.876 0 011.428.6 1.92 1.92 0 01.6 1.428 1.815 1.815 0 01-.6 1.4 2.007 2.007 0 01-1.428.571h-18.886a1.866 1.866 0 01-1.514-.599z" data-name="Path 2432" transform="translate(-244.723 -.571)"/><path fill="url(#c)" d="M154.078 30.367l-11.626-28.2A3.127 3.127 0 00139.539 0h-1.028a3.127 3.127 0 00-2.911 2.171l-5.056 12.284h-3.828a2.1 2.1 0 00-2.085 2.085v.029a2.1 2.1 0 002.085 2.085h2.057l-4.827 11.713a2.479 2.479 0 00-.143.8 2.209 2.209 0 00.571 1.571 2 2 0 001.542.6 2.083 2.083 0 001.2-.4 2.543 2.543 0 00.828-1.057l5.313-13.227h3.656A2.1 2.1 0 00139 16.569v-.057a2.1 2.1 0 00-2.085-2.085h-1.975l4.085-10.141 11.054 27.6a2.543 2.543 0 00.828 1.057 2.083 2.083 0 001.2.4 2 2 0 001.542-.6 2.209 2.209 0 00.571-1.571 1.893 1.893 0 00-.142-.805z" data-name="Path 2433" transform="translate(-89.065)"/><path fill="url(#d)" d="M32.478 30.367L20.853 2.171A3.127 3.127 0 0017.939 0h-1.028A3.127 3.127 0 0014 2.171L8.941 14.455H5.114a2.1 2.1 0 00-2.085 2.085v.029a2.1 2.1 0 002.085 2.085H7.17L2.343 30.367a2.479 2.479 0 00-.143.8 2.209 2.209 0 00.571 1.571 2 2 0 001.542.6 2.083 2.083 0 001.2-.4 2.543 2.543 0 00.828-1.057l5.313-13.227h3.686a2.1 2.1 0 002.085-2.085v-.057a2.1 2.1 0 00-2.085-2.085h-1.971l4.056-10.142 11.054 27.6a2.543 2.543 0 00.828 1.057 2.084 2.084 0 001.2.4 2 2 0 001.542-.6 2.209 2.209 0 00.571-1.571 1.9 1.9 0 00-.142-.804z" data-name="Path 2434" transform="translate(-2.2)"/></g></g></svg>