<svg fill="none" height="13" viewBox="0 0 63 13" width="63" xmlns="http://www.w3.org/2000/svg"><g fill="#fff"><path d="m28.4885 12.0946-4.8-10.94001c-.0375-.09911-.0575-.20402-.059-.31-.0041-.112374.0147-.224415.0553-.329291.0405-.104875.102-.200386.1807-.280709.085-.080666.1857-.1429791.2958-.1830636.1101-.0400846.2273-.05708269.3442-.04993668.1767.00196921.3488.05587508.495.15500028.1491.103145.2673.244863.342.41l4.56 10.70801 4.56-10.70801c.0748-.165137.193-.306855.342-.41.1462-.0991252.3184-.15303107.495-.15500028.1163-.00659024.2328.01068058.3421.05075028.1094.0400697.2094.102091.2939.18225.0787.080323.1402.175834.1808.280709.0406.104876.0594.216917.0552.329291-.0014.105978-.0214.21089-.059.31l-4.8 10.94001c-.0903.2459-.2536.4584-.4681.6089s-.4699.2318-.7319.2331h-.424c-.262-.0013-.5173-.0826-.7318-.2331s-.3778-.363-.4682-.6089z"/><path d="m37.3116 12.5956c-.0803-.0749-.1439-.1659-.1864-.267-.0426-.1012-.0633-.2103-.0606-.32v-11.07101c-.002-.111569.0189-.222353.0614-.325537.0425-.103185.1056-.196588.1856-.274463.082-.080705.1797-.143799.287-.185413s.2219-.0608694.337-.0565866h7.789c.1088-.0033033.2172.0156586.3185.0557236s.1933.100389.2705.177276c.0788.068943.1417.15419.1844.249845.0426.095655.064.199433.0626.304155.0024.103276-.0185.20577-.0613.2998s-.1063.17717-.1857.2432c-.1612.14567-.3718.22466-.589.221h-6.893v4.03h6.2c.1088-.0033.2172.01566.3185.05572.1013.04007.1933.10039.2705.17728.0779.06965.1403.15504.1828.25053.0426.09549.0645.19892.0642.30347.0024.10328-.0185.20577-.0613.2998s-.1063.17717-.1857.2432c-.1613.14567-.3718.22466-.589.221h-6.2v4.05301h6.893c.1088-.0033.2172.0156.3185.0557s.1933.1004.2705.1773c.0788.0689.1417.1542.1844.2498.0426.0957.064.1995.0626.3042.0024.1033-.0185.2058-.0613.2998s-.1063.1772-.1857.2432c-.1612.1457-.3718.2247-.589.221h-7.789c-.1149.0079-.2301-.0091-.3378-.0499-.1077-.0407-.2053-.1042-.2862-.1861z"/><path d="m25.6785 11.7846-4.8-10.94001c-.0903-.245949-.2536-.45841-.4681-.608904-.2145-.1504928-.4699-.23182565-.7319-.23309582h-.424c-.262.00127017-.5173.08260302-.7318.23309582-.2145.150494-.3778.362955-.4682.608904l-2.086 4.766h-1.58c-.2208-.00515-.4349.07683-.5958.22821s-.2558.36001-.2642.58079v.011c.0084.22078.1033.42941.2642.58079s.375.23336.5958.22821h.848l-1.991 4.54501c-.0375.0991-.0575.204-.059.31-.0041.1124.0147.2244.0553.3293.0405.1049.102.2004.1807.2807.0846.0801.1846.1422.294.1822.1093.0401.2257.0574.342.0508.1767-.002.3488-.0559.495-.155.1491-.1032.2673-.2449.342-.41l2.193-5.13301h1.508c.2209.00515.4349-.07683.5959-.22821.1609-.15138.2558-.36001.2641-.58079v-.022c-.0083-.22078-.1032-.42941-.2641-.58079-.161-.15138-.375-.23336-.5959-.22821h-.808l1.685-3.935 4.56 10.70801c.0748.1651.193.3068.342.41.1463.0991.3184.153.495.155.1163.0066.2327-.0107.3421-.0508.1094-.04.2094-.1021.2939-.1822.0787-.0803.1402-.1758.1808-.2807s.0594-.2169.0552-.3293c.0027-.1069-.0192-.2129-.064-.31z"/><path d="m12.4916 11.7846-4.79604-10.941009c-.09044-.246269-.2541-.458953-.46897-.609473-.21488-.1505208-.47068-.23166439-.73303-.23252727h-.424c-.262.00127017-.51736.08260297-.73184.23309627-.21448.150493-.37783.362954-.46816.608904l-2.088 4.766999h-1.581c-.220875-.00515-.434908.07683-.595834.22821-.160925.15138-.255816.36001-.264163.58079v.011c.008347.22078.103238.42941.264163.58079.160926.15138.374959.23336.595834.22821h.85l-1.9909969 4.54501c-.0375502.0991-.05751639.204-.05900005.31-.00414618.1124.01464095.2244.05521555.3293.0405747.1049.1020864.2004.1807844.2807.084516.0801.184538.1422.293912.1822.109375.0401.225791.0574.342088.0508.176637-.002.348787-.0559.494997-.155.14905-.1032.26727-.2449.342-.41l2.191-5.13301h1.52c.22088.00515.43491-.07683.59584-.22821.16092-.15138.25582-.36001.26416-.58079v-.022c-.00886-.22043-.10397-.42855-.26484-.5795-.16087-.15096-.37461-.23266-.59516-.2275h-.813l1.674-3.937 4.56004 10.70801c.0747.1651.1929.3068.342.41.1462.0991.3183.153.495.155.1163.0066.2327-.0107.3421-.0508.1093-.04.2093-.1021.2939-.1822.0787-.0803.1402-.1758.1807-.2807.0406-.1049.0594-.2169.0553-.3293.0041-.1065-.016-.2125-.059-.31z"/><path d="m53.35 9.55801 2.231-6.45h1.128l-2.901 7.81999h-.913l-2.895-7.81999h1.123zm9.272 1.36999h-5.124v-.714l2.707-3.00799c.3158-.3387.5941-.71053.83-1.109.1486-.27101.227-.57492.228-.884.0131-.36923-.1202-.72868-.371-1-.1278-.13126-.2818-.23403-.4521-.30159-.1703-.06755-.3529-.09836-.5359-.09041-.2107-.01359-.4219.01643-.6205.08818-.1985.07175-.3802.18369-.5335.32882-.1429.15868-.2528.34419-.3234.54574-.0705.20154-.1003.4151-.0876.62826h-.989c-.0125-.32387.0433-.64675.164-.94758.1206-.30084.3032-.57289.536-.79842.2512-.22793.5448-.40408.8642-.51836.3193-.11428.658-.16445.9968-.14764.6264-.03442 1.2424.17 1.724.572.2105.19214.3764.42807.4859.6912.1095.26312.1601.54704.1481.8318-.1449 1.06357-.6673 2.03959-1.472 2.75l-2.101 2.27199h3.926z"/></g></svg>