<svg fill="none" height="14" viewBox="0 0 63 14" width="63" xmlns="http://www.w3.org/2000/svg" xmlns:xlink="http://www.w3.org/1999/xlink"><linearGradient id="a" gradientUnits="userSpaceOnUse" x1="62.622" x2="52.098" y1="5.98989" y2="12.4664"><stop offset="0" stop-color="#b6509e"/><stop offset="1" stop-color="#2ebac6"/></linearGradient><linearGradient id="b"><stop offset="0" stop-color="#30bac6"/><stop offset="1" stop-color="#b6509e"/></linearGradient><linearGradient id="c" gradientUnits="userSpaceOnUse" x1=".578428" x2="48.1483" xlink:href="#b" y1="13.5014" y2="3.40555"/><linearGradient id="d" gradientUnits="userSpaceOnUse" x1="1.46664" x2="49.3895" xlink:href="#b" y1="17.014" y2="11.0015"/><linearGradient id="e" gradientUnits="userSpaceOnUse" x1=".220102" x2="47.7904" xlink:href="#b" y1="12.0931" y2="1.9758"/><linearGradient id="f" gradientUnits="userSpaceOnUse" x1="-.607879" x2="46.9657" xlink:href="#b" y1="8.84245" y2="-1.28707"/><path d="m53.35 9.56174 2.231-6.45h1.128l-2.901 7.81996h-.913l-2.895-7.81996h1.123zm9.272 1.36996h-5.124v-.714l2.707-3.00796c.3158-.33871.5941-.71053.83-1.109.1486-.27101.227-.57492.228-.884.0131-.36923-.1202-.72868-.371-1-.1278-.13126-.2818-.23404-.4521-.3016-.1703-.06755-.3529-.09836-.5359-.0904-.2107-.0136-.4219.01642-.6205.08817-.1985.07175-.3802.18369-.5335.32883-.1429.15868-.2528.34418-.3234.54573-.0705.20154-.1003.41511-.0876.62827h-.989c-.0125-.32388.0433-.64675.164-.94759.1206-.30084.3032-.57289.536-.79841.2512-.22794.5448-.40408.8642-.51837.3193-.11428.658-.16445.9968-.14763.6264-.03442 1.2424.16999 1.724.572.2105.19214.3764.42807.4859.69119s.1601.54705.1481.83181c-.1449 1.06356-.6673 2.03959-1.472 2.75l-2.101 2.27196h3.926z" fill="url(#a)"/><path d="m28.9867 12.2089-4.5525-11.0438c-.0358-.10064-.0548-.206508-.0561-.313331-.0089-.226599.0715-.447634.2239-.615573.0781-.079977.1723-.1423255.2765-.1828585.1041-.040533.2157-.05831201.3273-.05214313.1691.00225012.3334.05699683.47.15666763.144.106147.2568.249106.3264.413864l4.3293 10.806774 4.3266-10.806121c.0697-.164775.1824-.307741.3264-.413864.1367-.099671.3009-.15441772.47-.15666784.1116-.00616889.2232.01161014.3274.05214314.1041.040533.1984.1028817.2764.1828587.1524.167939.2328.388974.2239.615573-.0013.106823-.0203.212688-.0561.313338l-4.5545 11.04314c-.0782.2426-.2302.4547-.4347.6069-.2045.1521-.4515.2366-.7063.2417h-.4028c-.2549-.0051-.5018-.0896-.7063-.2417-.2046-.1522-.3565-.3643-.4348-.6069z" fill="url(#c)"/><path d="m38.2152 12.722c-.0773-.0778-.138-.1704-.1784-.2723s-.0596-.2109-.0566-.3205v-11.189303c-.0041-.224333.0803-.441244.235-.603824.0756-.080644.1677-.144199.2699-.186415s.2122-.0621188.3228-.0583778h7.3973c.1046-.0029509.2087.0164898.3051.0570198.0965.04053.1832.101212.2543.177982.0759.071809.136.158642.1765.254962.0404.09632.0604.200015.0585.304472.0029.102967-.0166.205334-.0572.300014-.0405.09468-.1012.17941-.1778.24832-.0738.07241-.1613.12947-.2573.1679s-.1987.05746-.3021.05601h-6.5467v4.07205h5.8841c.1046-.00291.2087.01655.3051.05708.0965.04053.1832.10119.2544.17792.075.07248.1345.15944.1749.25561.0404.09616.0608.19953.0601.30383.0029.10296-.0167.20533-.0572.30001-.0406.09468-.1013.17941-.1778.24832-.0739.07241-.1613.12947-.2574.1679-.096.03843-.1987.05747-.3021.05601h-5.8841v4.09491h6.5467c.1046-.003.2087.0165.3051.057.0965.0405.1832.1012.2543.178.0759.0718.136.1586.1765.255.0404.0963.0604.2.0585.3044.0029.103-.0166.2054-.0572.3-.0405.0947-.1012.1794-.1778.2484-.0738.0724-.1613.1294-.2573.1679-.096.0384-.1987.0574-.3021.056h-7.3973c-.1103.0079-.2209-.0092-.3235-.0501-.1027-.0409-.1947-.1046-.2692-.1862z" fill="url(#d)"/><path d="m25.4631 11.8942-4.5525-11.043722c-.0782-.242615-.2302-.454776-.4348-.606898-.2045-.1521216-.4514-.23662209-.7063-.24171843h-.4028c-.2548.00509634-.5017.08959683-.7063.24171843-.2045.152122-.3565.364283-.4347.606898l-1.9799 4.810352h-1.5014c-.2158.0024-.4219.08962-.5739.2428-.1519.15318-.2375.36002-.2382.57579v.01109c.0012.21622.0877.42324.2405.57612.1529.15289.3599.23932.5762.24052h.8055l-1.8931 4.58705c-.0358.1007-.0548.2066-.0561.3134-.009.2266.0714.4477.2239.6156.078.0799.1723.1423.2765.1828.1041.0405.2157.0583.3273.0522.1691-.0023.3334-.057.47-.1567.144-.1061.2568-.2491.3264-.4139l2.0804-5.1798h1.4316c.2162-.0012.4232-.08762.5761-.24051s.2393-.35991.2405-.57612v-.02285c-.0012-.21621-.0876-.42323-.2405-.57612s-.3599-.23931-.5761-.24051h-.7716l1.5993-3.97153 4.3293 10.80684c.0696.1647.1824.3077.3263.4138.1367.0997.3009.1545.4701.1567.1115.0062.2232-.0116.3273-.0521.1041-.0406.1984-.1029.2765-.1829.1524-.1679.2328-.389.2239-.6156.003-.1073-.0172-.214-.0594-.3127z" fill="url(#e)"/><path d="m11.8604 11.8949-4.55248-11.04375c-.07822-.242616-.2302-.454776-.43474-.606898-.20455-.1521222-.45147-.2366227-.70633-.24171904h-.40276c-.25486.00509634-.50178.08959684-.70633.24171904-.20454.152122-.35652.364282-.43474.606898l-1.97988 4.81231h-1.5014c-.215421.00239-.421273.08934-.573178.2421-.151906.15276-.237699.3591-.238885.57453v.0111c.0012.21621.087623.42323.240511.57612.152889.15288.359906.23931.576122.24051h.80357l-1.8930658 4.58708c-.035828.1007-.05479605.2065-.0561392.3134-.00895337.2266.0714538.4476.223904.6155.07806.08.172328.1424.276475.1829.104148.0405.215762.0583.327349.0521.169118-.0022.333357-.057.470007-.1566.144-.1062.25675-.2491.32639-.4139l2.08041-5.17983h1.4433c.21644-.00103.42372-.08747.57677-.24051.15305-.15305.23949-.36033.24052-.57677v-.0222c-.0012-.21621-.08763-.42323-.24051-.57612-.15289-.15289-.35991-.23931-.57612-.24051h-.77224l1.58821-3.97152 4.32926 10.80676c.0696.1648.1824.3078.3264.4139.1366.0997.3009.1544.47.1567.1116.0061.2232-.0116.3273-.0522.1042-.0405.1985-.1029.2765-.1828.1525-.1679.2329-.389.2239-.6156.0035-.1072-.0163-.2139-.0581-.3127z" fill="url(#f)"/></svg>