<svg xmlns="http://www.w3.org/2000/svg" width="53.311" height="15" viewBox="0 0 53.311 15"><defs><style>.cls-1{fill:#383d51}</style></defs><g id="Group_45419" transform="translate(-2916 -791.363)"><path id="Path_12914" d="M16.681 13.66L11.121.977A1.49 1.49 0 009.727 0h-.492a1.49 1.49 0 00-1.393.977L5.424 6.5H3.593a.974.974 0 00-1 .938v.013a.974.974 0 001 .938h.984L2.268 13.66a1.056 1.056 0 00-.068.36.96.96 0 00.273.707.99.99 0 00.738.27 1.039 1.039 0 00.574-.18 1.158 1.158 0 00.4-.475l2.541-5.95h1.758a.974.974 0 001-.938v-.026a.974.974 0 00-1-.938h-.943l1.94-4.562 5.287 12.414a1.158 1.158 0 00.4.475 1.039 1.039 0 00.574.18.99.99 0 00.738-.27.96.96 0 00.273-.707.808.808 0 00-.072-.36z" class="cls-1" transform="translate(2913.8 791.363)"/><path id="Union_85" d="M11.309 14V3.416L7.363 7.362a1 1 0 01-1.415 0L2.011 3.424V14a1 1 0 01-2 0V1.145A1.006 1.006 0 011.786.372l4.87 4.87L11.6.293a1 1 0 011.7.8V14a1 1 0 11-2 0z" class="cls-1" transform="translate(2937 791.363)"/><path id="Union_83" d="M11.309 14V3.416L7.363 7.362a1 1 0 01-1.415 0L2.011 3.424V14a1 1 0 01-2 0V1.145A1.006 1.006 0 011.786.372l4.87 4.87L11.6.293a1 1 0 011.7.8V14a1 1 0 11-2 0z" class="cls-1" transform="translate(2956 791.363)"/></g></svg>