<svg xmlns="http://www.w3.org/2000/svg" width="60" height="60" viewBox="0 0 60 60">
  <defs>
    <style>
      .cls-2{fill:#fff}
    </style>
  </defs>
  <g id="Group_48460" transform="translate(-1513 -910)">
    <g id="Group_48453" transform="translate(444 170)">
      <path id="Rectangle_11117" fill="#28a0ef" d="M0 0h59a1 1 0 0 1 1 1v58a1 1 0 0 1-1 1H0V0z" transform="translate(1069 740)"/>
      <path id="Path_13298" d="M3.719-1.172H1.664L1.273 0H.027l2.118-5.687H3.23L5.359 0H4.113zM1.98-2.121H3.4L2.688-4.25zM8-2.082h-.937V0H5.891v-5.687H8a2.389 2.389 0 0 1 1.555.449 1.55 1.55 0 0 1 .547 1.27A1.75 1.75 0 0 1 9.854-3a1.718 1.718 0 0 1-.764.619l1.23 2.326V0H9.063zm-.934-.949h.945a.968.968 0 0 0 .684-.225.8.8 0 0 0 .242-.619.859.859 0 0 0-.229-.633.95.95 0 0 0-.7-.23h-.945zM11 0v-5.687h1.992a2.616 2.616 0 0 1 1.57.4 1.356 1.356 0 0 1 .535 1.162 1.285 1.285 0 0 1-.215.736 1.241 1.241 0 0 1-.6.467 1.2 1.2 0 0 1 .689.441 1.3 1.3 0 0 1 .252.813A1.5 1.5 0 0 1 14.7-.43a2.356 2.356 0 0 1-1.493.43zm1.172-2.477v1.536h1a.969.969 0 0 0 .646-.2.676.676 0 0 0 .232-.545.714.714 0 0 0-.809-.793zm0-.828h.867q.887-.016.887-.707a.653.653 0 0 0-.225-.557 1.181 1.181 0 0 0-.709-.17h-.82zM17.348 0h-1.172v-5.687h1.172zM22.6-4.738h-1.741V0h-1.171v-4.738h-1.719v-.949H22.6zm2.773 2.656h-.934V0H23.27v-5.687h2.113a2.389 2.389 0 0 1 1.555.449 1.55 1.55 0 0 1 .547 1.27 1.75 1.75 0 0 1-.253.968 1.718 1.718 0 0 1-.764.619L27.7-.055V0h-1.259zm-.934-.949h.945a.968.968 0 0 0 .684-.225.8.8 0 0 0 .242-.619.859.859 0 0 0-.229-.633.95.95 0 0 0-.7-.23h-.941zm8.241-2.656v3.746a1.918 1.918 0 0 1-.58 1.476 2.251 2.251 0 0 1-1.6.543 2.277 2.277 0 0 1-1.582-.527 1.885 1.885 0 0 1-.6-1.449v-3.789h1.172v3.754a1.084 1.084 0 0 0 .268.814 1.027 1.027 0 0 0 .74.256q.988 0 1-1.039v-3.785zm2.492 0l1.461 4.125 1.453-4.125h1.539V0h-1.176v-1.555l.117-2.684L37.031 0h-.8L34.7-4.234l.117 2.68V0h-1.176v-5.687z" class="cls-2" transform="translate(1078.973 789)"/>
      <g id="Group_48398" transform="translate(4288 24303.822)">
        <path id="Subtraction_290" d="M6.892 16.465l-3-2.149.011.006c.014-.021.508-.842 1.256-2.084l.006-.009c1.672-2.776 4.469-7.421 6.2-10.28l.3-.5c.252-.415.513-.843.766-1.267a.216.216 0 0 1 .2-.129H13.051L15.685.04h.741l-.051.093c-.031.057-.057.106-.086.154l-2.423 4.108-.041.069L7.7 14.844a.971.971 0 0 0-.062.134l-.026.064.051.022c.024.01.05.021.074.033l-.849 1.368zm-3.959-2.833L0 11.534v-1.016l1.68-2.77v.983a.428.428 0 0 1 0 .055c-.007.059-.015.12.05.164l.027-.044.057-.093 1.3-2.02.006-.01c1.139-1.759 2.312-3.576 3.461-5.367A2.721 2.721 0 0 1 7.957.3 5.168 5.168 0 0 1 9.808 0h.138c.337.006.68.017 1.011.027l.308.01a.292.292 0 0 1 .061.011l.043.01Q9.18 3.576 7.144 6.861q-2.035 3.276-4.211 6.771z" class="cls-2" transform="translate(-3201 -23546.627)"/>
        <path id="Path_13292" d="M117.259 169.751c.054.024.11.044.161.074q1.883 1.081 3.764 2.164a.832.832 0 0 0 .664.136.648.648 0 0 0 .149-.054q1.706-.987 3.41-1.977a.069.069 0 0 0 .014-.014c.244-.135.49-.267.731-.406q.951-.547 1.9-1.1c.275-.161.545-.329.818-.494l.959-.559c.1-.05.206-.095.3-.151.456-.263.9-.543 1.367-.791a.8.8 0 0 0 .463-.791c-.009-.567 0-1.135 0-1.7 0-.073.007-.147.007-.22v-8.946a.856.856 0 0 0-.291-.714 1.306 1.306 0 0 0-.183-.123l-7.281-4.187c-.684-.393-1.373-.777-2.049-1.182a.956.956 0 0 0-1.069 0q-4.5 2.621-9.019 5.225c-.11.064-.217.133-.329.192a.827.827 0 0 0-.451.771c0 .22.013.441.013.661l.011 7.883c0 .073-.041.161.045.218l-.629.975-.972 1.5c-.031.048-.067.093-.126.175v-.221-11.254a2.44 2.44 0 0 1 .72-1.73 3.482 3.482 0 0 1 .822-.566q1.51-.87 3.017-1.748l3.1-1.8c1-.579 2-1.155 3-1.74a2.587 2.587 0 0 1 1.573-.363 2.248 2.248 0 0 1 .932.282q2.179 1.255 4.357 2.512c.955.55 1.913 1.094 2.869 1.642.805.462 1.621.907 2.412 1.393a2.346 2.346 0 0 1 1.191 2.1q.007 5.537 0 11.073a2.284 2.284 0 0 1-.933 1.886 7.394 7.394 0 0 1-.807.483q-1.091.634-2.184 1.265t-2.168 1.253l-3.206 1.86c-.514.3-1.024.6-1.545.89a2.312 2.312 0 0 1-2.385-.058c-.888-.5-1.773-1.017-2.659-1.526q-.625-.36-1.249-.722c-.028-.016-.052-.037-.087-.062a1.5 1.5 0 0 1 .066-.148q.339-.579.682-1.156a.584.584 0 0 1 .105-.11z" class="cls-2" transform="translate(-3310.642 -23701.336)"/>
        <path id="Path_13293" d="M362.923 302.2c0 .568-.008 1.135 0 1.7a.8.8 0 0 1-.463.791c-.464.248-.911.528-1.367.791-.1.057-.2.1-.3.151-.239-.378-.481-.754-.717-1.134q-1.767-2.854-3.531-5.711l-.9-1.462 1.974-3.348c.045.058.083.1.113.147l4.235 6.594c.274.427.547.856.822 1.283.037.072.087.135.134.198z" class="cls-2" transform="translate(-3541.605 -23839.453)"/>
        <path id="Path_13294" d="M314.38 375.826c-.272.165-.543.333-.818.494q-.948.553-1.9 1.1c-.242.139-.487.271-.731.406l-1.213-1.913-2.425-3.8c-.021-.033-.039-.069-.065-.115l2.268-3.848.549.863 2.8 4.418 1.451 2.285c.03.035.058.072.084.11z" class="cls-2" transform="translate(-3496.154 -23909.082)"/>
      </g>
    </g>
  </g>
</svg>
