<svg width="1673" height="679" viewBox="0 0 1673 679" xmlns="http://www.w3.org/2000/svg"><path fill-rule="evenodd" d="M857.295 679c-111.505 0-159.723-37.293-144.654-111.88l79.109-396.67c15.445-75.72 78.542-113.578 189.293-113.578h373.502l-23.733 115.272h-316.431l-79.672 397.234 311.91.564L1225.15 679H857.294Zm464.795 0 124.312-620.998h226.586L1548.676 679H1322.09Zm-722.461-.564-215.852-.567 33.34-168.951-118.662.564 23.166-114.705 117.533-.566 45.203-225.457-172.906-.566-84.193 419.273H.104L117.07.93h228.85l-11.303 55.376 223.764.566c110.751.377 158.404 38.235 142.959 113.576L599.629 678.436Z"/></svg>
