<svg width="5130" height="2553" viewBox="0 0 5130 2553" xmlns="http://www.w3.org/2000/svg"><linearGradient id="a" x1="1907.647" y1="200.047" x2="2488.076" y2="1985.174" gradientUnits="userSpaceOnUse"><stop offset=".005" stop-color="#31b0fe"/><stop offset=".995" stop-color="#3b018d"/></linearGradient><filter id="b" x="0" y="0" width="5130" height="2553" filterUnits="userSpaceOnUse" primitiveUnits="userSpaceOnUse" color-interpolation-filters="sRGB"><feGaussianBlur stdDeviation="5.992"/><feOffset dx="77.842" dy="44.942" result="offsetblur"/><feFlood flood-color="#211830" flood-opacity="1"/><feComposite in2="offsetblur" operator="in"/><feMerge><feMergeNode/><feMergeNode in="SourceGraphic"/></feMerge></filter><path fill="url(#a)" fill-rule="evenodd" stroke="#303030" stroke-width="11.985" filter="url(#b)" d="M2589.775 2040.234c-334.107 0-478.585-111.729-433.435-335.19l237.035-1188.398c46.278-226.846 235.34-340.269 567.19-340.269h1119.142l-71.111 345.348h-948.139L2821.73 1711.816l934.594 1.694-64.338 326.724h-1102.21Zm1392.68 0 372.483-1860.47h678.935l-372.482 1860.47h-678.936Zm-2164.736-1.693-646.766-1.691 99.893-506.17-355.553 1.691 69.418-343.652 352.166-1.694 135.45-675.459-518.093-1.691-252.271 1256.113H21.334L371.807 8.783h685.709l-33.864 165.903 670.47 1.691c331.849 1.129 474.633 114.552 428.355 340.27L1817.719 2038.54Z"/><path fill="#351bb8" fill-rule="evenodd" d="M1684.684 2293.952h96.515c9.437 0 24.022-.858 43.754-2.573 9.437-.858 16.73-1.287 21.877-1.287v41.174c-6.006 0-14.585-.428-25.738-1.286-12.01-.858-21.019-1.287-27.024-1.287h-41.18v120.95h41.18c11.153 0 27.882-.858 50.188-2.574 11.153-.858 19.303-1.287 24.45-1.287v39.888c-7.72 0-20.16-.429-37.319-1.287-17.158-.858-30.027-1.286-38.606-1.286h-124.826c-8.58 0-21.02.428-37.32 1.286-15.442.858-27.024 1.287-34.745 1.287v-39.888c4.29 0 11.153.43 20.59 1.287 21.448 1.716 37.748 2.574 48.901 2.574h48.901v-120.95h-25.737c-6.864 0-17.587.429-32.172 1.287-15.443.858-27.024 1.286-34.746 1.286v-41.174c5.148 0 12.44.429 21.877 1.287 18.016 1.715 31.743 2.573 41.18 2.573Zm297.679 86.209h77.212c25.738 0 51.475-1.287 77.212-3.86 3.432 0 8.58-.43 15.443-1.287 18.016-3.431 31.313-3.431 39.893 0 6.863 3.431 10.294 6.862 10.294 10.294 0 3.43-1.715 5.575-5.147 6.433-6.005 3.431-13.727 5.147-23.164 5.147h-10.295c-7.72 0-19.302-.429-34.745-1.287-15.443-.858-27.024-1.287-34.745-1.287h-97.803c-24.021 0-42.466 3.003-55.335 9.007-2.574 0-4.719-.857-6.434-2.573-3.432-3.431-7.293-10.293-11.582-20.587-2.574-3.431-4.29-6.005-5.148-7.72 0-.858-.429-2.145-1.287-3.86-1.715-1.716-2.573-3.86-2.573-6.434.858 0 1.716-.429 2.573-1.286h1.287c1.716 0 3.432 1.286 5.148 3.86 2.573 1.715 4.29 3.002 5.147 3.86 10.295 8.578 28.311 12.438 54.049 11.58Zm250.064-20.587 20.59-28.308c24.022 12.01 46.327 25.734 66.918 41.175-2.574 2.573-6.006 7.29-10.295 14.153-5.148 6.005-9.008 10.723-11.582 14.154h-2.574c-22.306-16.298-43.325-29.165-63.057-38.6v-2.574Zm128.687-65.622 1.287 3.86c-1.716 2.574-3.86 6.005-6.434 10.294-6.006 9.436-10.724 15.87-14.156 19.3-3.431-2.573-9.008-6.862-16.729-12.867-19.732-16.298-35.603-27.45-47.614-33.454v-1.286c.858-.858 1.716-2.145 2.574-3.86 5.147-5.147 11.152-12.439 18.016-21.874 23.163 10.293 44.182 23.59 63.056 39.887Zm149.277 66.909-1.287 5.146c-23.163 22.303-48.043 43.319-74.638 63.048-39.464 30.023-74.638 53.184-105.523 69.482-.858 0-2.145.429-3.861 1.287-16.3 6.004-27.453 11.58-33.458 16.727-.859.857-2.145 2.144-3.861 3.86-2.574 3.431-5.148 4.718-7.721 3.86l-15.443-19.3-15.442-19.301v-2.573c48.9-12.01 96.944-34.741 144.13-68.195 40.321-27.45 73.78-56.186 100.375-86.209h2.574c4.29 11.151 9.008 21.874 14.155 32.168Zm111.083 19.3h77.212a775.58 775.58 0 0 0 77.212-3.86c3.432 0 8.58-.43 15.443-1.287 18.016-3.431 31.313-3.431 39.893 0 6.863 3.431 10.295 6.862 10.295 10.294 0 3.43-1.716 5.575-5.148 6.433-6.005 3.431-13.727 5.147-23.164 5.147h-10.294c-7.722 0-19.303-.429-34.746-1.287-15.443-.858-27.024-1.287-34.745-1.287h-97.803c-24.021 0-42.466 3.003-55.335 9.007-2.574 0-4.719-.857-6.434-2.573-3.432-3.431-7.293-10.293-11.582-20.587-2.574-3.431-4.29-6.005-5.148-7.72 0-.858-.429-2.145-1.286-3.86-1.716-1.716-2.574-3.86-2.574-6.434.858 0 1.716-.429 2.574-1.286h1.286c1.716 0 3.432 1.286 5.148 3.86 2.574 1.715 4.29 3.002 5.147 3.86 10.295 8.578 28.311 12.438 54.049 11.58Zm244.917-64.335v-38.6c16.3 1.715 33.458 2.573 51.475 2.573h182.735l10.295-6.434h6.435l37.319 24.448c0 6.862-.858 9.864-2.574 9.006 0 .858-1.287 1.716-3.86 2.574-2.574.857-4.29 1.715-5.148 2.573-1.716 2.573-4.719 6.005-9.008 10.294-32.6 37.743-59.196 64.763-79.786 81.061 0 .858-.858.858-2.574 0-4.29-2.573-11.153-6.862-20.59-12.867-4.29-2.573-7.721-4.717-10.295-6.433v-2.573c30.028-17.156 53.191-39.459 69.491-66.909h-204.612c-8.579.858-15.014 1.287-19.303 1.287Zm119.68 29.594 45.04 7.72c.857 1.716-.43 3.86-3.861 6.434l-3.861 3.86c-.858 3.431-1.716 8.578-2.574 15.44l-3.86 15.44c-6.006 28.308-15.014 52.755-27.024 73.342-15.443 24.019-35.175 45.463-59.196 64.335-.859 1.716-2.145 1.716-3.861 0a531.661 531.661 0 0 0-37.32-21.874v-2.573c60.055-29.165 92.226-80.633 96.516-154.404v-7.72Zm423.79-101.649h5.149l36.032 33.454v2.574c-12.87 5.146-28.74 18.013-47.615 38.6l-11.582 11.58c-.857.859-3.002 2.574-6.434 5.147l-6.434 6.434v56.615c0 18.871.858 46.75 2.574 83.635 1.716 23.16 2.573 40.745 2.573 52.754h-43.753c.858-13.724 1.287-28.736 1.287-45.034v-118.375c-27.454 20.586-61.77 42.46-102.95 65.62-1.716.858-2.573.858-2.573 0l-27.025-25.733v-2.574c36.89-17.156 70.778-38.172 101.663-63.048 48.043-33.454 81.072-67.337 99.089-101.649Z"/><path fill="#351bb8" fill-rule="evenodd" stroke="#351bb8" stroke-width="29.961" d="M18.026 2390.76v-2.997H1498.22v2.996Zm3559.656 0v-2.997h1450.23v2.996Z"/></svg>
