<svg width="52" height="52" viewBox="0 0 52 52" fill="none" xmlns="http://www.w3.org/2000/svg"><path d="m51.304 28.834-1.942-7.567a.627.627 0 0 0-.457-.452l-7.5-1.848a.83.83 0 0 0-.172-.019.614.614 0 0 0-.501.173L28.076 31.777l-1.675-6.541a.627.627 0 0 0-.458-.451l-6.442-1.59 12.65-12.649a.646.646 0 0 0 .148-.26.598.598 0 0 0 .037-.401l-1.941-7.568a.628.628 0 0 0-.458-.451l-7.5-1.849a.631.631 0 0 0-.426.05h-.006c-.037.018-.068.043-.105.068-.031.025-.074.037-.099.068L.211 21.78s-.036.062-.061.092a.607.607 0 0 0-.124.576l2.096 7.313a.62.62 0 0 0 .427.427l7.023 2.015 2.016 7.018c.061.21.222.37.426.426l7.048 2.022 2.022 7.048a.62.62 0 0 0 .426.427l7.345 2.108a.56.56 0 0 0 .173.024c.013 0 .025-.006.044-.006h.012a.63.63 0 0 0 .445-.185l21.595-21.596a.646.646 0 0 0 .149-.26.599.599 0 0 0 .037-.401l-.006.006Zm-9.682 8.39-1.577-6.152 3.494-3.487 6.003 1.725-7.914 7.92-.006-.006ZM29.375 49.47l-1.577-6.151L34.117 37l6.003 1.725L29.375 49.47Zm4.871-14.368-1.508-5.255 5.422 1.335-3.914 3.914v.006Zm4.773-3.005 1.385 5.398-5.274-1.515 3.89-3.889v.006Zm.18-1.947-6.146-1.515 7.895-7.895 1.706 5.954-3.456 3.456Zm-7.673.006 1.706 5.954-6.287 6.287-6.146-1.514 10.727-10.727Zm16.717-8.229 1.577 6.152-5.96-1.713-1.706-5.941 6.09 1.502Zm-28.37 18.04-1.578-6.15 2.276-2.276 6.003 1.725-6.702 6.702Zm.828-10.324-1.509-5.255 5.422 1.335-3.913 3.914v.006Zm6.157 2.399-5.273-1.515 3.888-3.889 1.385 5.397v.007Zm-7.165-1.385-2.245 2.244-6.145-1.515 6.683-6.683 1.707 5.954ZM12.62 11.14l1.706 5.953-6.343 6.344-6.145-1.515L12.62 11.14Zm9.367-9.367 1.706 5.954-3.4 3.4-6.146-1.514 7.84-7.84Zm.729 16.427-1.576-6.145 3.437-3.438 6.003 1.719-7.864 7.864Zm-7.376-2.114-1.508-5.255 5.422 1.335-3.914 3.913v.007Zm4.773-3.005 1.385 5.397-5.267-1.514 3.888-3.89-.006.007Zm-4.896 4.896 6.003 1.72-10.8 10.8-1.577-6.145 6.374-6.375ZM29.282 2.973l1.576 6.151-5.96-1.712-1.706-5.942 6.09 1.503ZM1.529 23.14l5.422 1.335-3.914 3.914-1.508-5.255v.006Zm2.392 6.14 3.89-3.89 1.384 5.398-5.268-1.515-.006.006Zm8.773 9.267-1.706-5.942 6.09 1.503 1.576 6.151-5.96-1.712Zm7.796 3.555 5.422 1.335L22 47.35l-1.509-5.255v.007Zm2.393 6.139 3.889-3.889 1.385 5.397-5.274-1.514v.006Z" fill="url(#a)"/><defs><linearGradient id="a" x1="3.557" y1="33.687" x2="48.002" y2="17.508" gradientUnits="userSpaceOnUse"><stop stop-color="#29BCFA"/><stop offset=".43" stop-color="#6464E4"/><stop offset="1" stop-color="#B45AFA"/></linearGradient></defs></svg>
