<svg width="788" height="788" viewBox="0 0 788 788" fill="none" xmlns="http://www.w3.org/2000/svg"><path d="M393.612 7.12h.015c213.458 0 386.499 173.041 386.499 386.498v.015c0 213.458-173.041 386.5-386.499 386.5h-.015c-213.458 0-386.5-173.042-386.5-386.5v-.015c0-213.457 173.042-386.499 386.5-386.499Z" fill="#111" stroke="#111" stroke-width="14.238"/><path d="M393.627 0h-.015C176.223 0-.006 176.229-.006 393.618v.015c0 217.39 176.229 393.619 393.618 393.619h.015c217.389 0 393.618-176.229 393.618-393.619v-.015C787.245 176.229 611.016 0 393.627 0Z" fill="url(#a)" fill-opacity=".7"/><path d="M393.612 7.21h.015c213.408 0 386.409 173.001 386.409 386.408v.015c0 213.408-173.001 386.409-386.409 386.409h-.015c-213.408 0-386.41-173.001-386.41-386.409v-.015c0-213.407 173.002-386.409 386.41-386.409Z" stroke="url(#b)" stroke-width="14.418"/><path fill-rule="evenodd" clip-rule="evenodd" d="M307.489 210.558h-8.388l-5.438 6.387-140.392 164.9-10.022 11.771 10.022 11.772 140.392 164.901 5.437 6.387h279.302v-122.99h-36.317v86.673H347.198L463.84 405.495l10.274-11.879-10.274-11.878-116.642-134.864h194.887v86.673h36.317V210.558H307.489Zm.107 46.043L190.944 393.617l116.652 137.015 118.503-137.015-118.503-137.016Z" fill="#fff"/><defs><radialGradient id="a" cx="0" cy="0" r="1" gradientUnits="userSpaceOnUse" gradientTransform="scale(584.19 829.934) rotate(90 .268 .407)"><stop offset=".031" stop-color="#3A3A3A"/><stop offset="1" stop-color="#1C1C1C"/></radialGradient><linearGradient id="b" x1="393.62" y1="-7.427" x2="393.62" y2="794.679" gradientUnits="userSpaceOnUse"><stop stop-color="#fff"/><stop offset="1" stop-color="#111"/></linearGradient></defs></svg>
