<svg xmlns="http://www.w3.org/2000/svg" fill="none" viewBox="576.648 384.48 259.168 317.52" style="max-height:500px" width="259.168" height="317.52"><g clip-path="url(#a)"><path fill="#000" d="M895.6 521.82v62.52h-26.76V431.5h94.51v24.67H895.6v41.61h56.87v24.05H895.6v-.01Zm75.06-90.32h60.85c30.11 0 48.51 15.68 48.51 41.19 0 16.94-7.53 29.06-21.95 35.13 16.1 5.23 24.25 17.35 24.25 35.13 0 26.14-18.19 41.4-49.77 41.4h-61.89V431.5Zm26.77 23.62v41.61h32.41c14.64 0 22.79-7.74 22.79-21.33 0-13.59-8.36-20.28-23.42-20.28h-31.78Zm0 64.2v41.4h34.08c15.05 0 23.42-7.32 23.42-21.12 0-12.96-8.57-20.28-23.42-20.28h-34.08Z"/><path fill="#000" d="M1065.33 431.5c9.78 5.67 16.78 14.11 20.28 24.67h33.08v128.18h26.76V456.17h44.75V431.5h-124.88.01Zm119.24 76.52c0-47.46 29.9-79.04 74.65-79.04 36.17 0 63.15 21.12 68.37 53.95h-28.23c-5.23-17.77-20.49-28.23-40.77-28.23-28.23 0-46 20.49-46 53.11 0 32.62 17.98 53.32 46 53.32 20.7 0 36.59-10.87 41.61-27.81h27.81c-5.86 32.2-33.87 53.53-70.05 53.53-44.54 0-73.39-30.95-73.39-78.83Zm-97.05 134.21h-5.09v-29.07h5.09v29.07Zm20.23-14.31c0 6.48 3.74 10.02 9.11 10.02 5.05 0 8.11-2.78 8.11-7.44v-.12h-8.79v-4.49h13.52v16.34h-4.3l-.32-3.34c-1.59 2.23-4.89 3.78-8.83 3.78-8.15 0-13.84-5.92-13.84-14.87s5.77-15.11 14.52-15.11c6.64 0 11.77 3.86 12.61 9.78h-5.37c-.91-3.42-3.86-5.01-7.36-5.01-5.77 0-9.07 4.18-9.07 10.46h.01Zm37.58 14.31v-29.07h5.05l13.64 20.6v-20.6h5.01v29.07h-5.01l-13.68-20.6v20.6h-5.01Zm45.37 0h-5.09v-29.07h5.09v29.07Zm14.03-29.07h22.11v4.69h-8.51v24.38h-5.09v-24.38h-8.51v-4.69Zm41.23 29.07h-5.09v-29.07h5.09v29.07Zm28.95.48c-8.31 0-14.04-6.16-14.04-15.03s5.77-15.03 14.08-15.03 14.12 6.16 14.12 15.03-5.81 15.03-14.16 15.03Zm.04-25.17c-5.33 0-8.75 3.94-8.75 10.14 0 6.2 3.42 10.14 8.75 10.14s8.75-4.02 8.75-10.14c0-6.12-3.42-10.14-8.75-10.14Zm28.99 24.69v-29.07h5.05l13.64 20.6v-20.6h5.01v29.07h-5.01l-13.68-20.6v20.6h-5.01Zm-249.54-16.27s1.67 2.27 1.67 4.54-1.67 4.3-1.67 4.3l-186.041-2.41V629l186.041-3.05v.01Z"/><path fill="url(#b)" d="M775.62 538.5c0 42.61-34.48 77.15-77.02 77.15s-77.01-34.54-77.01-77.15c0-65.36 75.11-146.5 77.01-146.5 1.9 0 77.02 81.14 77.02 146.5Zm-31.16.01c0 25.37-20.53 45.94-45.86 45.94s-45.86-20.57-45.86-45.94c0-25.37 20.15-45.56 45.15-45.94v47.35s29.06-11.66 43.25-18.63a45.83 45.83 0 0 1 3.33 17.21l-.01.01Z" clip-rule="evenodd" fill-rule="evenodd"/><path fill="url(#c)" d="m681.31 661.23 124.74-13.38c1.45 13.65 1.11 27.48-1.04 41.06l-124.22-7.71c1.05-6.62 1.23-13.33.51-19.97h.01Z"/><path fill="url(#d)" d="m714 624.72-123 24.73c2.7 13.46 7.17 26.55 13.28 38.85l116.19-44.69c-2.98-6-5.16-12.35-6.47-18.9v.01Z"/></g><defs><linearGradient gradientUnits="userSpaceOnUse" y2="614.34" x2="699.21" y1="396.64" x1="697.47" id="b"><stop stop-color="#FF05FF"/><stop stop-color="#8323FF" offset=".56"/><stop stop-color="#8F00FF" offset=".76"/><stop stop-color="#4E68FF" offset=".98"/></linearGradient><linearGradient gradientUnits="userSpaceOnUse" y2="685.39" x2="706.86" y1="649.5" x1="833.09" id="c"><stop stop-color="#DFB6FF"/><stop stop-color="#8F00FF" offset=".49"/><stop stop-color="#5263FF" offset=".99"/></linearGradient><linearGradient gradientUnits="userSpaceOnUse" y2="664.61" x2="567.97" y1="652.35" x1="706.15" id="d"><stop stop-color="#5263FF"/><stop stop-color="#8F00FF" offset=".46"/><stop stop-color="#DFB6FF" offset=".99"/></linearGradient><clipPath id="a"><path transform="translate(591 392)" fill="#fff" d="M0 0h737.01v296.91H0z"/></clipPath></defs></svg>
