<svg width="2400" height="2400" viewBox="0 0 2400 2400" fill="none" xmlns="http://www.w3.org/2000/svg"><circle cx="1199.5" cy="1200.5" r="1137.5" fill="#CA4326"/><path d="M1473.43 1583.8H926.215V1693h547.215v-109.2Zm-328.33-328.23h-109.44v109.2h109.44v-109.2Zm218.9 0h-109.45v109.2H1364v-109.2ZM1473.43 708H926.215v109.201h547.215V708Zm-218.88 657.07h-109.44v109.21h109.44v-109.21Zm0-438.041h-109.44v109.201h109.44V927.029ZM1364 1036.53h-109.45v109.21H1364v-109.21Zm-218.9 0h-109.44v109.21h109.44v-109.21ZM1692 926.712h-109.44v547.568H1692V926.712ZM816.443 1145.74V926.712H707v219.028h.317v328.54h109.444v-328.54h-.318Z" fill="#fff"/></svg>
