<svg id="Calque_1" xmlns="http://www.w3.org/2000/svg" viewBox="0 0 1000 277.84"><defs><style>.cls-1{fill:#fff}</style></defs><path class="cls-1" d="M442.34 70.44c-62.57 0-103.89 41.32-103.89 104.29s40.53 103.11 107.04 103.11c54.31 0 90.12-31.48 96.42-70.05h-55.1c-4.72 18.1-20.86 27.94-43.29 27.94-27.94 0-47.62-17.31-47.62-46.04v-2.36h147.58c.39-7.08.39-12.99.39-18.89 0-59.82-41.72-97.99-101.53-97.99Zm-45.65 79.89c3.94-23.61 22.04-37.78 45.65-37.78 25.19 0 42.11 13.77 45.65 38.17l-91.3-.39Zm232.2-46.83-5.12-29.91h-48.41v201.89h55.49v-99.17c0-30.3 12.59-52.34 45.26-52.34h22.43V73.6h-11.41c-31.88 0-47.62 12.2-58.24 29.91ZM779.62 0h-55.49l.39 275.48h55.49l-.39-116.88V0zm164.89 0H1000v275.48h-55.49zM154.27 56.67h53.22l-53.22 145.22L77.92 0H.39L0 150.7h56.28V90.91l71.62 184.57h48.01l71.63-184.57v184.57h56.67V0H154.27v56.67z"/><path class="cls-1" d="M821.12 150.7h-1.49c14.6 0 28.54-6.1 38.46-16.82l55.76-60.29h-40.67c-14.71 0-28.74 6.18-38.67 17.04L779.6 150.7l66.35 101.14c9.68 14.75 26.16 23.64 43.84 23.64h35.42l-59.05-99.21c-9.44-15.85-26.56-25.57-45.05-25.57ZM0 207.81v67.67l21.69-7.84c20.76-7.5 34.58-27.2 34.58-49.27V150.7l-21.69 7.84C13.83 166.04 0 185.74 0 207.81Z"/></svg>
