<svg xmlns="http://www.w3.org/2000/svg" width="400" height="400" viewBox="0 0 400 400"><g fill-rule="evenodd"><path d="M91.002 112.797c-.135.218.44 1.58 1.277 3.026.836 1.447 1.755 3.113 2.042 3.704.286.59.695 1.343.908 1.673.213.33.673 1.23 1.022 2s.872 1.536 1.161 1.702c.289.167.644.842.789 1.5.144.659.435 1.198.645 1.198.21 0 .745.765 1.188 1.7 1.629 3.438 4.183 8.238 4.766 8.959.589.728 1.145 1.656 2.062 3.441.254.495.615 1.17.803 1.5.187.33.654 1.23 1.037 2 .384.77.818 1.491.964 1.603.146.111.93 1.461 1.741 3 .811 1.538 1.727 3.081 2.034 3.428.308.348.559.933.559 1.3 0 .368.363 1.032.806 1.475.444.444 1.382 1.929 2.086 3.3.703 1.372 1.6 2.923 1.993 3.448.393.525.715 1.268.715 1.651s.298.944.662 1.246c.364.302.915 1.089 1.224 1.749.806 1.72 1.497 2.891 2.183 3.697.329.387 1.19 1.873 1.912 3.303.723 1.43 1.537 2.87 1.81 3.2.273.33.687 1.171.92 1.868.234.697.799 1.642 1.257 2.1.458.458.832 1.198.832 1.645 0 .446.261.912.581 1.035.319.122.778.822 1.02 1.555s.701 1.549 1.019 1.814c.319.265.58.791.58 1.17 0 .379.45 1.212 1 1.851.549.639.999 1.387 1 1.662.001 1.032.673.429 2.009-1.8.759-1.265 1.607-2.538 1.885-2.829.278-.29.506-.868.506-1.284 0-.416.338-1.078.75-1.471.413-.394.884-1.166 1.048-1.716.163-.55.562-1.303.886-1.672.69-.786 1.777-2.71 2.729-4.828.37-.825.834-1.5 1.03-1.5.197 0 .357-.246.357-.547 0-.301.81-1.755 1.8-3.231.99-1.477 1.8-2.826 1.8-2.999 0-.173.366-.781.814-1.35.448-.57 1.019-1.629 1.269-2.354.428-1.241.725-1.756 2.717-4.703.44-.651.8-1.447.8-1.769 0-.322.411-1.094.913-1.716.501-.622 1.419-2.159 2.039-3.415.62-1.256 1.362-2.478 1.648-2.716.287-.238.637-.893.778-1.457.142-.563.609-1.545 1.04-2.183.43-.638 1.117-1.658 1.526-2.268.409-.609.866-1.493 1.015-1.964.15-.47.535-1.074.856-1.341.322-.267.585-.754.585-1.082 0-.329.784-1.792 1.743-3.251.958-1.46 2.405-4.049 3.215-5.754.809-1.705 1.618-3.1 1.796-3.1.179 0 .621-.675.983-1.5s1.641-3.12 2.841-5.1c1.201-1.98 2.195-3.78 2.209-4 .014-.22.636-1.299 1.383-2.398.942-1.387 1.216-2.089.894-2.294-.732-.466-90.173-.378-90.462.089m116.836 2.103c-.136.275-.56.968-.942 1.54-2.833 4.237-3.378 5.132-4.148 6.811-.365.798-.863 1.573-1.106 1.723-.243.15-.442.552-.442.892 0 .34-.45 1.153-1 1.807-.55.654-1 1.521-1 1.927 0 .406-.442 1.264-.983 1.907-1.048 1.245-2.475 3.629-3.817 6.376-.453.926-1 1.794-1.217 1.928-.218.134-.653.861-.969 1.616-.315.755-.742 1.373-.949 1.373-.207 0-.49.605-.628 1.345-.139.74-.609 1.668-1.045 2.062-.436.394-.792.927-.792 1.184 0 .257-.808 1.624-1.796 3.038-.987 1.414-1.797 2.727-1.8 2.919-.002.191-.677 1.451-1.499 2.8-1.905 3.124-2.714 4.546-3.46 6.084-.33.677-.868 1.455-1.196 1.727-.329.273-.713 1.023-.855 1.666-.141.644-.476 1.306-.744 1.473-.268.166-1.184 1.742-2.036 3.502-.852 1.76-2.047 3.842-2.656 4.626-.609.784-1.334 1.954-1.61 2.6-.276.646-.753 1.475-1.059 1.842-.699.841-1.923 2.939-2.702 4.632-.329.715-.753 1.3-.942 1.3-.19 0-.447.495-.571 1.1-.124.605-.506 1.46-.85 1.9-1.024 1.312-2.398 3.526-2.919 4.7-.268.605-.658 1.1-.865 1.1-.208 0-.595.675-.86 1.5-.264.825-.694 1.77-.953 2.1-.26.33-.694 1.05-.966 1.6-.271.55-.981 1.819-1.577 2.821-1.984 3.331-4.677 8.015-5.236 9.104-.303.591-.853 1.435-1.22 1.875-.368.44-1.194 1.88-1.836 3.2-.642 1.32-1.322 2.465-1.513 2.544-.19.08-.697.89-1.126 1.8-1.032 2.19-1.689 3.301-2.457 4.153-.349.387-.761 1.213-.916 1.835-.156.623-.514 1.221-.795 1.329-.282.108-.633.679-.78 1.268-.147.589-.505 1.341-.795 1.671-.29.33-.899 1.32-1.353 2.2-1.749 3.39-2.123 4.055-3.256 5.8-.644.99-1.73 2.88-2.414 4.2-.684 1.32-1.84 3.3-2.568 4.4-.728 1.1-1.989 3.26-2.802 4.8s-1.825 3.172-2.248 3.626c-.423.454-.769 1.105-.769 1.446 0 .341-.322 1.049-.716 1.574a15.083 15.083 0 0 0-1.21 1.954c-.271.55-1.381 2.44-2.466 4.2-1.084 1.76-2.251 3.74-2.593 4.4-.341.66-1.064 1.92-1.605 2.8-.542.88-1.36 2.32-1.819 3.2-.458.88-1.351 2.41-1.983 3.4-3.337 5.226-4.476 8.135-3.353 8.566 1.098.421 198.184.241 198.974-.182.749-.4.186-1.795-2.655-6.584a34.514 34.514 0 0 1-1.605-3.1c-.361-.825-.814-1.5-1.007-1.5-.193 0-.633-.585-.978-1.3-1.01-2.095-2.067-3.906-2.7-4.628-.324-.369-.719-1.096-.877-1.613-.158-.518-.715-1.572-1.238-2.343-.524-.771-1.415-2.328-1.981-3.459-.566-1.131-1.829-3.317-2.807-4.857-.977-1.54-2.143-3.52-2.589-4.4-1.199-2.362-1.987-3.707-3.885-6.629-.939-1.446-1.707-3.011-1.707-3.477 0-.466-.176-.955-.39-1.088-.424-.262-2.57-3.56-4.821-7.406-.45-.77-1.256-2.12-1.79-3-.534-.88-1.237-2.154-1.562-2.832-.325-.677-.854-1.45-1.175-1.716-.321-.267-.692-.915-.824-1.441s-.959-2.04-1.839-3.365c-.879-1.324-1.599-2.582-1.599-2.796 0-.214-.453-.927-1.007-1.585-.554-.659-1.437-2.17-1.963-3.359s-1.419-2.843-1.984-3.677c-.566-.833-1.493-2.441-2.06-3.572-1.662-3.316-2.343-4.418-3.07-4.965-.376-.283-.799-1.127-.939-1.876-.141-.748-.508-1.457-.816-1.576-.309-.118-.561-.478-.561-.799 0-.321-.26-.844-.578-1.162-.318-.318-1.241-1.804-2.05-3.303-.809-1.499-2.055-3.557-2.77-4.573-.714-1.017-1.431-2.288-1.592-2.826-.161-.537-.584-1.427-.94-1.977-.809-1.252-1.801-2.987-2.743-4.8-.4-.77-.92-1.58-1.156-1.8-.236-.22-1.373-2.11-2.527-4.2-1.154-2.09-2.264-4.07-2.467-4.4-.203-.33-.742-1.23-1.199-2a435.48 435.48 0 0 0-1.802-3c-.534-.88-1.255-2.211-1.603-2.958-.348-.747-.889-1.615-1.203-1.929-.313-.314-.57-.813-.57-1.111 0-.297-.411-1.049-.913-1.671-.501-.622-1.436-2.211-2.077-3.531-.64-1.32-1.564-2.89-2.053-3.49-.488-.599-1.368-2.039-1.954-3.2-.587-1.16-1.413-2.65-1.837-3.31-.424-.66-1.226-2.1-1.783-3.2-1.407-2.78-2.327-4.359-2.702-4.635-.314-.232-1.03-1.444-2.695-4.565a89.286 89.286 0 0 0-1.811-3.2 59.135 59.135 0 0 1-1.667-3c-.389-.77-.841-1.459-1.003-1.532-.163-.072-.664-.882-1.113-1.8-1.381-2.817-2.045-3.921-2.834-4.71-.417-.417-.758-1.118-.758-1.558 0-.88-.969-1.094-1.362-.3m2.35 47.583a64.1 64.1 0 0 0 1.98 3.17c.642.96 1.339 2.421 1.548 3.246.21.826.509 1.501.665 1.501.312 0 1.978 2.511 4.071 6.136a275.778 275.778 0 0 0 2.234 3.8 38.666 38.666 0 0 1 1.509 2.773c.343.72.979 1.665 1.414 2.1.435.435.791 1.001.791 1.257 0 .257.823 1.832 1.828 3.5 2.288 3.797 2.172 3.609 3.397 5.474.563.858 1.273 2.19 1.577 2.96.305.77.857 1.85 1.227 2.4 1.19 1.769 4.371 7.292 4.371 7.589 0 .159.373.719.829 1.244.456.526.928 1.454 1.05 2.062.122.608.375 1.105.563 1.105.188 0 .75.735 1.25 1.634 1.211 2.18 1.74 3.094 4.373 7.566 1.231 2.09 2.355 4.181 2.497 4.647.142.466.614 1.169 1.048 1.562.435.393.79.902.79 1.131 0 .378.821 1.739 2.845 4.72.396.583.834 1.515.973 2.07.14.556.598 1.322 1.018 1.703.42.38.764.845.764 1.032 0 .188.945 1.974 2.1 3.969 1.155 1.995 2.55 4.418 3.1 5.385.55.966 1.585 2.729 2.3 3.918.715 1.188 1.3 2.434 1.3 2.769 0 .335.265.71.589.834.559.215 1.152 1.205 2.911 4.86.423.88 1.069 1.847 1.435 2.149.815.673.858 2.034.097 3.075-.881 1.204-119.073 1.335-120.276.132-1.059-1.059-.951-1.879.555-4.165.72-1.095 1.552-2.576 1.848-3.291.296-.715.696-1.3.89-1.3.193 0 .351-.191.351-.425 0-.739 1.94-4.56 2.764-5.444.435-.467 1.063-1.5 1.395-2.294.544-1.303 2.319-4.248 4.277-7.097.401-.583.844-1.52.986-2.083.141-.564.519-1.242.84-1.509.321-.266.85-1.039 1.175-1.716.325-.678 1.028-1.952 1.562-2.832 1.519-2.503 2.751-4.611 3.361-5.752.309-.577.804-1.192 1.1-1.368.297-.176.54-.554.54-.84 0-.747 2.676-5.723 4.224-7.854.725-.997 1.437-2.289 1.583-2.87.146-.582.609-1.368 1.029-1.749.42-.38.764-.845.764-1.032 0-.368 3.332-6.201 5.219-9.135a71.155 71.155 0 0 0 3.568-6.2c.454-.88 1.266-2.32 1.805-3.2.539-.88 1.263-2.14 1.609-2.8.346-.66 1.147-2.01 1.78-3 .634-.99 1.794-3.06 2.578-4.6.785-1.54 2.048-3.61 2.807-4.6.76-.99 1.393-2 1.407-2.244.015-.244.475-1.104 1.022-1.911.547-.806 1.103-1.898 1.236-2.426.133-.528.585-1.271 1.005-1.652.42-.38.767-.888.771-1.129.006-.371 1.659-3.102 2.686-4.438.169-.22.622-1.081 1.007-1.913 1.19-2.573 2.828-2.815 4.088-.604" fill="#2c6ced"/><path d="M0 200v200h400V0H0v200m182.7-88.191c1.125.258 1.174 1.419.1 2.391-.44.398-.8 1.032-.8 1.408 0 .376-.34 1.116-.756 1.645-.415.528-1.047 1.587-1.403 2.354-.356.766-1.174 2.293-1.816 3.393-.643 1.1-1.363 2.45-1.6 3-.619 1.437-1.573 3.094-3.2 5.554-2.081 3.146-2.181 3.323-3.805 6.719-.334.7-.793 1.387-1.02 1.527-.227.14-.681.827-1.009 1.527-.329.7-1.12 2.173-1.759 3.273-.639 1.1-1.449 2.54-1.8 3.2a78.44 78.44 0 0 1-1.596 2.8c-.527.88-1.642 2.913-2.477 4.517-.835 1.604-1.752 3.111-2.038 3.349-.287.238-.521.655-.521.927 0 .273-.48 1.195-1.066 2.051-.586.856-1.95 3.266-3.032 5.356s-2.177 3.98-2.434 4.2c-.258.22-.787 1.03-1.176 1.8-.39.77-1.146 2.12-1.681 3-1.154 1.898-1.261 2.1-1.807 3.4-.231.55-.95 1.81-1.597 2.8-.647.99-1.455 2.34-1.795 3-.34.66-1.147 2.1-1.794 3.2-.646 1.1-1.439 2.542-1.762 3.204-2.208 4.531-3.543 4.337-6.036-.877-.334-.7-.793-1.387-1.02-1.527-.227-.14-.686-.827-1.02-1.527-.335-.7-1.048-1.993-1.586-2.873a53.103 53.103 0 0 1-1.686-3c-.389-.77-.836-1.496-.992-1.614-.157-.118-.575-.838-.929-1.6-1.31-2.817-2.138-4.247-2.754-4.759-.348-.289-.633-.828-.633-1.198 0-.371-.45-1.284-1-2.029-.55-.745-1-1.563-1-1.816 0-.253-.344-.771-.764-1.151-.42-.381-.885-1.174-1.032-1.762-.148-.589-.614-1.393-1.036-1.787-.423-.393-.768-1.044-.768-1.446 0-.401-.335-1.159-.745-1.684-.685-.878-1.699-2.557-4.52-7.491a117.804 117.804 0 0 1-1.693-3.063c-.345-.66-1.16-2.1-1.81-3.2-.651-1.1-1.446-2.563-1.767-3.251-.321-.688-.784-1.376-1.03-1.528-.246-.151-.711-.848-1.033-1.548-.322-.7-.75-1.543-.951-1.873-.201-.33-.573-1.05-.828-1.6-.254-.55-.902-1.72-1.441-2.6a52.22 52.22 0 0 1-1.781-3.2c-.44-.88-1.071-1.949-1.401-2.376-.33-.428-.6-1.103-.6-1.5 0-.398-.186-.724-.414-.724-.228 0-.775-.765-1.216-1.7-.804-1.706-1.912-3.693-3.514-6.3a30.98 30.98 0 0 1-1.496-2.8c-.35-.77-.971-1.763-1.38-2.206-.884-.959-.547-1.711.945-2.111 1.19-.319 91.173-.197 92.575.126m27.422 1.591c.7 1.387 1.846 3.379 3.679 6.4.534.88 1.237 2.154 1.562 2.832.325.677.86 1.455 1.188 1.727.329.273.711 1.011.849 1.641.138.63.498 1.35.8 1.6.302.25.664.981.805 1.623.141.642.425 1.272.63 1.399.473.292 3.165 4.481 3.165 4.924 0 .181.35.647.777 1.033.428.387.892 1.225 1.032 1.862.14.638.405 1.159.59 1.159.184 0 .665.625 1.068 1.388 2.966 5.619 3.927 7.331 4.583 8.166.413.525.75 1.165.75 1.422 0 .258.45 1.079 1 1.824.55.745 1 1.653 1 2.016s.36.986.8 1.384c.44.398.8.947.8 1.219 0 .273.252.592.56.71.308.118.784.903 1.058 1.743.274.84.628 1.618.786 1.728.159.11.675.92 1.146 1.8 1.022 1.906 1.61 2.862 2.55 4.149.385.528.7 1.296.7 1.709 0 .412.367 1.063.815 1.446.448.383 1.384 1.866 2.08 3.296.696 1.43 1.589 2.949 1.985 3.375.396.427.72 1.031.72 1.343 0 .311.45 1.101 1 1.755.55.654 1 1.445 1 1.758 0 .313.172.569.381.569.21 0 .749.765 1.198 1.7.449.935 1.166 2.24 1.594 2.9 1.349 2.081 3.509 6 3.784 6.864.145.457.619 1.152 1.053 1.545.435.393.79 1.02.79 1.392 0 .372.36 1.092.8 1.599.44.507.8 1.143.8 1.412 0 .27.253.7.563.957.31.257.859 1.045 1.221 1.749a60.982 60.982 0 0 0 1.623 2.882c.531.88 1.231 2.154 1.556 2.832.325.677.86 1.455 1.188 1.727.329.273.716 1.036.861 1.696.145.659.504 1.291.798 1.404.294.113.737.686.985 1.273.448 1.061 1.334 2.645 3.988 7.131a106.72 106.72 0 0 1 2.219 3.937c.743 1.42 3.537 6.226 4.884 8.4.273.44.86 1.52 1.305 2.4.445.88 1.079 1.949 1.409 2.376.33.428.6 1.094.6 1.481s.276.858.613 1.046c.591.331 1.489 1.748 2.742 4.329.33.677.879 1.464 1.222 1.749.343.284.624.81.625 1.168.002.358.811 1.821 1.798 3.251s1.796 2.906 1.798 3.28c.001.374.252.824.557 1 .305.176.919 1.04 1.365 1.92 1.778 3.511 2.509 4.852 3.273 6 .438.66 1.107 1.83 1.486 2.6.378.77.987 1.76 1.353 2.2.365.44.943 1.34 1.283 2 1.871 3.634 2.351 4.508 3.076 5.6.969 1.459 2.547 4.304 3.44 6.2.362.77.782 1.49.932 1.6 1.846 1.353 2.51 5.04 1.011 5.61-1.464.557-201.96.533-203-.024-1.124-.602-1.002-2.739.264-4.604.571-.841 1.21-1.901 1.42-2.356.211-.454.779-1.484 1.263-2.287.483-.804 2.018-3.47 3.41-5.925 1.392-2.454 2.787-4.561 3.1-4.681.313-.12.569-.649.569-1.176 0-.526.356-1.313.791-1.748.435-.435 1.072-1.38 1.416-2.1.638-1.337 1.499-2.871 3.204-5.709.529-.88 1.594-2.802 2.365-4.27.772-1.469 1.569-2.772 1.77-2.897.202-.124 1.126-1.713 2.053-3.53.928-1.816 1.803-3.393 1.944-3.503.141-.11.584-.83.984-1.6 1.269-2.443 2.153-3.974 2.616-4.531.247-.298 1.011-1.605 1.698-2.905.688-1.3 1.499-2.648 1.804-2.995.305-.348.555-.779.555-.959 0-.53 2.812-4.61 3.177-4.61.184 0 .451-.624.594-1.387.143-.763.51-1.637.815-1.942.305-.305.845-1.166 1.2-1.913 1.408-2.963 2.237-4.358 2.59-4.358.204 0 .494-.405.645-.9.238-.781 2.793-5.385 5.666-10.211 1.606-2.699 2.465-4.267 3.28-5.989.443-.935.955-1.7 1.138-1.7.184 0 .562-.63.841-1.4.278-.77.66-1.4.848-1.4.188 0 .461-.538.605-1.195.144-.658.431-1.3.637-1.428.207-.127.757-.984 1.223-1.904.467-.92.977-1.763 1.133-1.873.157-.11 1.437-2.236 2.846-4.725 1.409-2.488 2.959-5.188 3.445-6a60.923 60.923 0 0 0 1.695-3.075c.923-1.819 1.214-2.304 3.311-5.512.831-1.272 1.782-2.892 2.114-3.6.331-.708 1.045-2.008 1.586-2.888.54-.88 1.273-2.211 1.627-2.958.354-.747.9-1.615 1.214-1.929.313-.314.57-.827.57-1.142 0-.314.315-.892.7-1.283.385-.392 1.06-1.413 1.5-2.269 1.212-2.358 2.524-4.684 3.395-6.019.43-.66 1.172-1.92 1.647-2.8.476-.88.98-1.69 1.12-1.8.14-.11.485-.65.767-1.2 1.804-3.518 2.195-4.221 2.448-4.4.155-.11.988-1.64 1.851-3.4.864-1.76 2.159-4.037 2.88-5.06.72-1.022 1.866-2.912 2.546-4.2.68-1.287 1.474-2.61 1.764-2.941.289-.33.722-1.05.962-1.6.24-.549.974-1.809 1.632-2.799.658-.99 1.485-2.456 1.837-3.259.996-2.271 3.42-3.031 4.273-1.341m-2.195 50.222c-.37.213-.932.88-1.249 1.483-1.588 3.022-2.799 5.155-3.234 5.695-.265.33-.996 1.59-1.623 2.8-.627 1.21-1.317 2.427-1.534 2.705-.406.521-1.453 2.349-2.344 4.095-.281.55-1.193 2.047-2.026 3.327-.834 1.28-1.626 2.767-1.761 3.305-.135.538-.47 1.111-.745 1.273-.275.162-.884 1.105-1.353 2.095-.469.99-1.206 2.34-1.638 3a32.68 32.68 0 0 0-1.439 2.482c-.36.704-.908 1.492-1.218 1.749-.31.257-.563.687-.563.956 0 .269-.36.815-.8 1.213-.44.398-.803 1.011-.807 1.362-.004.351-.544 1.43-1.2 2.398-.656.968-1.193 1.981-1.193 2.251 0 .27-.234.685-.521.923-.286.238-1.199 1.787-2.028 3.443-.83 1.656-1.652 3.1-1.828 3.209-.175.108-.829 1.236-1.451 2.505-.623 1.27-1.383 2.612-1.689 2.981-.604.729-1.688 2.604-2.638 4.56-.33.677-.879 1.464-1.222 1.749-.343.284-.623.765-.623 1.068 0 .303-.339.89-.754 1.305-.414.414-.968 1.404-1.231 2.2-.262.795-.616 1.446-.785 1.446-.17 0-.613.675-.985 1.5-.796 1.765-1.55 3.104-3.431 6.1a85.124 85.124 0 0 0-2.548 4.4c-.642 1.21-1.397 2.47-1.678 2.8-.282.33-1.259 2.04-2.172 3.8-2.057 3.965-2.633 4.955-4.514 7.76-.384.572-1.052 1.805-1.486 2.74-.433.935-.953 1.7-1.155 1.7-.583 0-.8 1.953-.266 2.396.579.48 115.742.375 116.484-.106.352-.229.226-.757-.477-2a649.44 649.44 0 0 1-4.955-9.046c-.304-.574-.792-1.32-1.084-1.658-.292-.338-1.099-1.688-1.793-3-.693-1.312-1.508-2.668-1.811-3.012-.302-.345-.667-1.215-.811-1.935-.144-.719-.499-1.399-.788-1.51-.493-.189-1.711-2.049-3.489-5.329-.766-1.412-1.156-2.083-2.906-5-.527-.88-1.241-2.203-1.585-2.941-.343-.737-.975-1.716-1.402-2.175-.428-.459-.778-.98-.778-1.157 0-.177-.81-1.623-1.8-3.214s-1.8-3.094-1.8-3.341c0-.246-.344-.759-.764-1.139-.42-.381-.881-1.159-1.025-1.731-.143-.571-.609-1.482-1.036-2.024-.426-.542-.775-1.232-.775-1.532 0-.3-.144-.546-.32-.546-.176 0-.72-.765-1.209-1.7a74.148 74.148 0 0 0-1.855-3.3c-1.714-2.839-2.562-4.365-3.364-6.056-.432-.91-.953-1.72-1.157-1.8-.347-.135-.731-.762-2.296-3.744-.346-.66-1.155-2.01-1.797-3-.643-.99-1.894-3.24-2.781-5-.886-1.76-2.334-4.343-3.216-5.74-.883-1.397-1.605-2.702-1.605-2.9a.355.355 0 0 0-.347-.36c-.19 0-.736-.855-1.213-1.9-.477-1.045-1.304-2.62-1.84-3.5a139.588 139.588 0 0 1-3.308-5.748c-.5-.909-1.085-1.652-1.3-1.652-.216 0-.392-.236-.392-.524 0-1.036-.956-1.867-1.673-1.454" fill="#fbfbfb"/><path d="M90.125 111.683c-1.492.4-1.829 1.152-.945 2.111.409.443 1.03 1.436 1.38 2.206.35.77 1.023 2.03 1.496 2.8 1.602 2.607 2.71 4.594 3.514 6.3.441.935.988 1.7 1.216 1.7.228 0 .414.326.414.724 0 .397.27 1.072.6 1.5.33.427.961 1.496 1.401 2.376a52.22 52.22 0 0 0 1.781 3.2c.539.88 1.187 2.05 1.441 2.6.255.55.627 1.27.828 1.6.201.33.629 1.173.951 1.873.322.7.787 1.397 1.033 1.548.246.152.709.84 1.03 1.528.321.688 1.116 2.151 1.767 3.251.65 1.1 1.465 2.54 1.81 3.2.345.66 1.107 2.038 1.693 3.063 2.821 4.934 3.835 6.613 4.52 7.491.41.525.745 1.283.745 1.684 0 .402.345 1.053.768 1.446.422.394.888 1.198 1.036 1.787.147.588.612 1.381 1.032 1.762.42.38.764.898.764 1.151s.45 1.071 1 1.816c.55.745 1 1.658 1 2.029 0 .37.285.909.633 1.198.616.512 1.444 1.942 2.754 4.759.354.762.772 1.482.929 1.6.156.118.603.844.992 1.614.39.77 1.149 2.12 1.686 3 .538.88 1.251 2.173 1.586 2.873.334.7.793 1.387 1.02 1.527.227.14.686.827 1.02 1.527 2.493 5.214 3.828 5.408 6.036.877.323-.662 1.116-2.104 1.762-3.204a84.25 84.25 0 0 0 1.794-3.2c.34-.66 1.148-2.01 1.795-3 .647-.99 1.366-2.25 1.597-2.8.546-1.3.653-1.502 1.807-3.4.535-.88 1.291-2.23 1.681-3 .389-.77.918-1.58 1.176-1.8.257-.22 1.352-2.11 2.434-4.2 1.082-2.09 2.446-4.5 3.032-5.356.586-.856 1.066-1.778 1.066-2.051 0-.272.234-.689.521-.927.286-.238 1.203-1.745 2.038-3.349.835-1.604 1.95-3.637 2.477-4.517a78.44 78.44 0 0 0 1.596-2.8c.351-.66 1.161-2.1 1.8-3.2s1.43-2.573 1.759-3.273c.328-.7.782-1.387 1.009-1.527.227-.14.686-.827 1.02-1.527 1.624-3.396 1.724-3.573 3.805-6.719 1.627-2.46 2.581-4.117 3.2-5.554.237-.55.957-1.9 1.6-3 .642-1.1 1.46-2.627 1.816-3.393.356-.767.988-1.826 1.403-2.354.416-.529.756-1.269.756-1.645 0-.376.36-1.01.8-1.408 1.074-.972 1.025-2.133-.1-2.391-1.402-.323-91.385-.445-92.575-.126m92.185.653c.468.297-5.534 11.902-7.909 15.294-.396.566-1.658 2.816-2.805 5-1.146 2.183-2.497 4.521-3.003 5.195a18.017 18.017 0 0 0-1.567 2.6c-.356.756-1.183 2.275-1.837 3.375-.655 1.1-1.37 2.36-1.589 2.8-.219.44-.929 1.7-1.577 2.8-.648 1.1-1.658 2.9-2.245 4-.587 1.1-1.471 2.54-1.965 3.2-.494.66-1.036 1.636-1.204 2.168-.168.533-.89 1.883-1.603 3-.713 1.118-1.681 2.797-2.151 3.732-.47.935-1.204 2.389-1.631 3.231-.427.842-1.057 1.764-1.4 2.049-.343.285-.624.742-.624 1.015 0 .273-.335.926-.745 1.451s-1.604 2.574-2.655 4.554c-1.05 1.98-2.046 3.78-2.212 4-.429.567-1.997 3.315-2.967 5.2-3.802 7.386-4.609 7.787-6.993 3.478-2.745-4.962-4.259-7.572-4.928-8.492-.385-.53-.7-1.108-.7-1.284 0-.177-1.755-3.367-3.9-7.091-5.346-9.28-5.966-10.376-6.912-12.211-1.986-3.852-2.358-4.477-2.955-4.973-.348-.289-.633-.679-.633-.868 0-.296-6.09-11.167-8.679-15.491a67.467 67.467 0 0 1-1.887-3.468c-1.749-3.47-4.236-7.887-5.465-9.708-.652-.965-1.458-2.326-1.792-3.024-.685-1.43-2.049-3.918-4.475-8.162-1.484-2.596-1.585-2.934-.978-3.287.827-.483 91.228-.564 91.986-.083m25.034.525c-.47.232-1.143 1.078-1.495 1.88-.352.803-1.179 2.269-1.837 3.259-.658.99-1.392 2.25-1.632 2.799-.24.55-.673 1.27-.962 1.6-.29.331-1.084 1.654-1.764 2.941-.68 1.288-1.826 3.178-2.546 4.2-.721 1.023-2.016 3.3-2.88 5.06-.863 1.76-1.696 3.29-1.851 3.4-.253.179-.644.882-2.448 4.4-.282.55-.627 1.09-.767 1.2-.14.11-.644.92-1.12 1.8-.475.88-1.217 2.14-1.647 2.8-.871 1.335-2.183 3.661-3.395 6.019-.44.856-1.115 1.877-1.5 2.269-.385.391-.7.969-.7 1.283 0 .315-.257.828-.57 1.142-.314.314-.86 1.182-1.214 1.929-.354.747-1.087 2.078-1.627 2.958-.541.88-1.255 2.18-1.586 2.888-.332.708-1.283 2.328-2.114 3.6-2.097 3.208-2.388 3.693-3.311 5.512a60.923 60.923 0 0 1-1.695 3.075c-.486.812-2.036 3.512-3.445 6-1.409 2.489-2.689 4.615-2.846 4.725-.156.11-.666.953-1.133 1.873-.466.92-1.016 1.777-1.223 1.904-.206.128-.493.77-.637 1.428-.144.657-.417 1.195-.605 1.195s-.57.63-.848 1.4c-.279.77-.657 1.4-.841 1.4-.183 0-.695.765-1.138 1.7-.815 1.722-1.674 3.29-3.28 5.989-2.873 4.826-5.428 9.43-5.666 10.211-.151.495-.441.9-.645.9-.353 0-1.182 1.395-2.59 4.358-.355.747-.895 1.608-1.2 1.913-.305.305-.672 1.179-.815 1.942-.143.763-.41 1.387-.594 1.387-.365 0-3.177 4.08-3.177 4.61 0 .18-.25.611-.555.959-.305.347-1.116 1.695-1.804 2.995-.687 1.3-1.451 2.607-1.698 2.905-.463.557-1.347 2.088-2.616 4.531-.4.77-.843 1.49-.984 1.6-.141.11-1.016 1.687-1.944 3.503-.927 1.817-1.851 3.406-2.053 3.53-.201.125-.998 1.428-1.77 2.897-.771 1.468-1.836 3.39-2.365 4.27-1.705 2.838-2.566 4.372-3.204 5.709-.344.72-.981 1.665-1.416 2.1-.435.435-.791 1.222-.791 1.748 0 .527-.256 1.056-.569 1.176-.313.12-1.708 2.227-3.1 4.681-1.392 2.455-2.927 5.121-3.41 5.925-.484.803-1.052 1.833-1.263 2.287-.21.455-.849 1.515-1.42 2.356-1.266 1.865-1.388 4.002-.264 4.604 1.04.557 201.536.581 203 .024 1.499-.57.835-4.257-1.011-5.61-.15-.11-.57-.83-.932-1.6-.893-1.896-2.471-4.741-3.44-6.2-.725-1.092-1.205-1.966-3.076-5.6-.34-.66-.918-1.56-1.283-2-.366-.44-.975-1.43-1.353-2.2a28.265 28.265 0 0 0-1.486-2.6c-.764-1.148-1.495-2.489-3.273-6-.446-.88-1.06-1.744-1.365-1.92-.305-.176-.556-.626-.557-1-.002-.374-.811-1.85-1.798-3.28-.987-1.43-1.796-2.893-1.798-3.251-.001-.358-.282-.884-.625-1.168-.343-.285-.892-1.072-1.222-1.749-1.253-2.581-2.151-3.998-2.742-4.329-.337-.188-.613-.659-.613-1.046s-.27-1.053-.6-1.481c-.33-.427-.964-1.496-1.409-2.376-.445-.88-1.032-1.96-1.305-2.4-1.347-2.174-4.141-6.98-4.884-8.4a106.72 106.72 0 0 0-2.219-3.937c-2.654-4.486-3.54-6.07-3.988-7.131-.248-.587-.691-1.16-.985-1.273-.294-.113-.653-.745-.798-1.404-.145-.66-.532-1.423-.861-1.696-.328-.272-.863-1.05-1.188-1.727-.325-.678-1.025-1.952-1.556-2.832-.53-.88-1.26-2.177-1.623-2.882-.362-.704-.911-1.492-1.221-1.749-.31-.257-.563-.687-.563-.957 0-.269-.36-.905-.8-1.412-.44-.507-.8-1.227-.8-1.599 0-.372-.355-.999-.79-1.392-.434-.393-.908-1.088-1.053-1.545-.275-.864-2.435-4.783-3.784-6.864-.428-.66-1.145-1.965-1.594-2.9-.449-.935-.988-1.7-1.198-1.7-.209 0-.381-.256-.381-.569 0-.313-.45-1.104-1-1.758-.55-.654-1-1.444-1-1.755 0-.312-.324-.916-.72-1.343-.396-.426-1.289-1.945-1.985-3.375-.696-1.43-1.632-2.913-2.08-3.296-.448-.383-.815-1.034-.815-1.446 0-.413-.315-1.181-.7-1.709-.94-1.287-1.528-2.243-2.55-4.149-.471-.88-.987-1.69-1.146-1.8-.158-.11-.512-.888-.786-1.728s-.75-1.625-1.058-1.743c-.308-.118-.56-.437-.56-.71 0-.272-.36-.821-.8-1.219-.44-.398-.8-1.021-.8-1.384s-.45-1.271-1-2.016c-.55-.745-1-1.566-1-1.824 0-.257-.337-.897-.75-1.422-.656-.835-1.617-2.547-4.583-8.166-.403-.763-.884-1.388-1.068-1.388-.185 0-.45-.521-.59-1.159-.14-.637-.604-1.475-1.032-1.862-.427-.386-.777-.852-.777-1.033 0-.443-2.692-4.632-3.165-4.924-.205-.127-.489-.757-.63-1.399-.141-.642-.503-1.373-.805-1.623-.302-.25-.662-.97-.8-1.6-.138-.63-.52-1.368-.849-1.641-.328-.272-.863-1.05-1.188-1.727-.325-.678-1.028-1.952-1.562-2.832-1.833-3.021-2.979-5.013-3.679-6.4-.469-.929-1.559-1.14-2.778-.539m2.89 2.639a325.298 325.298 0 0 1 7.366 12.651c1.765 3.185 2.893 5.067 5.5 9.174.715 1.126 1.3 2.192 1.3 2.368 0 .175.607 1.262 1.348 2.413 1.311 2.037 3.894 6.497 4.999 8.636.301.582 1.672 2.948 3.046 5.258 1.373 2.31 2.567 4.38 2.652 4.6.085.22 1.055 1.897 2.155 3.726 1.1 1.829 2.334 3.989 2.742 4.8.407.811.97 1.744 1.251 2.074.28.33 1.137 1.77 1.905 3.2.767 1.43 1.953 3.5 2.635 4.6.681 1.1 1.573 2.63 1.982 3.4.408.77 1.964 3.446 3.456 5.946 1.492 2.5 3.346 5.74 4.121 7.2.774 1.46 1.745 3.083 2.158 3.608.412.525.75 1.101.75 1.28 0 .179.52 1.1 1.156 2.046.636.946 1.828 2.98 2.649 4.52.821 1.54 1.714 3.07 1.985 3.4.271.33.813 1.23 1.204 2l1.434 2.831c.398.787 1.005 1.664 1.348 1.949.343.285.624.716.624.957 0 .242.857 1.885 1.904 3.651a246.946 246.946 0 0 1 2.5 4.29c.328.593 2.126 3.691 3.996 6.884 1.87 3.193 3.698 6.366 4.063 7.05.365.684.915 1.546 1.223 1.916.307.369.783 1.195 1.056 1.834.273.638 1.076 2.078 1.783 3.2A104.5 104.5 0 0 1 288.38 250c7.71 13.558 11.448 20.059 13.111 22.8 1 1.65 2.45 4.17 3.221 5.6.771 1.43 1.737 3.029 2.145 3.554.409.525.743 1.113.743 1.309 0 .195.477 1.075 1.06 1.955.915 1.383.996 1.741.594 2.622l-.465 1.021-5.094-.07c-2.802-.039-47.935-.049-100.295-.022l-95.2.049-.706-.861c-.677-.826-.674-.913.071-2.109.428-.686 1.696-2.868 2.817-4.848 1.122-1.98 2.574-4.5 3.227-5.6.653-1.1 1.404-2.45 1.667-3 .263-.55.711-1.281.994-1.624.284-.343.924-1.361 1.423-2.263.499-.902 2.797-4.896 5.107-8.876 2.31-3.98 4.65-8.032 5.2-9.006a512.16 512.16 0 0 1 6.396-11.031c2.283-3.824 6.487-11.065 7.607-13.103a84.27 84.27 0 0 1 1.45-2.497c.822-1.357 1.357-2.303 4.62-8.166.846-1.521 1.74-3.009 1.986-3.305.246-.296.738-1.071 1.094-1.722 2.489-4.552 4.525-8.008 4.828-8.196.197-.121.473-.746.614-1.388.141-.642.503-1.372.804-1.622.302-.25 1.125-1.568 1.83-2.928.706-1.36 1.617-2.902 2.027-3.427.409-.525.744-1.083.744-1.241 0-.157.988-1.888 2.195-3.846 1.207-1.957 2.464-4.099 2.793-4.759.328-.66.917-1.74 1.308-2.4.391-.66 1.77-3 3.065-5.2 1.294-2.2 2.784-4.682 3.312-5.515.527-.833 1.144-1.913 1.37-2.4.227-.487.939-1.785 1.582-2.885.642-1.1 1.429-2.554 1.749-3.232.319-.677.843-1.45 1.164-1.716.321-.267.705-.972.852-1.568.148-.596.602-1.444 1.009-1.884.407-.44 1.338-1.91 2.07-3.266.732-1.357 2.228-3.967 3.324-5.8 1.095-1.834 2.227-3.784 2.514-4.334.287-.55.965-1.72 1.506-2.6.541-.88 1.448-2.5 2.014-3.6 1.477-2.867 2.26-4.235 3.206-5.6.835-1.206 7.761-13.042 9.064-15.49 1.501-2.822 2.587-2.93 4.137-.41m-2.446 46.949c-.447.217-1.257 1.234-1.8 2.26a91.254 91.254 0 0 1-2.346 4.078c-1.886 3.075-3.519 5.926-4.474 7.813-.446.88-1.34 2.41-1.988 3.4-.648.99-1.461 2.34-1.806 3a80.656 80.656 0 0 1-1.501 2.687c-.48.817-2.364 4.085-4.186 7.261s-3.559 5.98-3.861 6.23c-.301.25-.667.942-.812 1.538-.146.596-.676 1.714-1.179 2.484-1.725 2.642-4.534 7.404-6.608 11.2a208.147 208.147 0 0 1-4.261 7.368c-1.202 1.962-2.291 3.99-2.42 4.505-.129.515-.453 1.07-.72 1.232-.266.162-1.911 2.8-3.655 5.863a6587.984 6587.984 0 0 1-3.838 6.732c-.366.64-.951 1.478-1.3 1.863-.348.385-.633.866-.634 1.068-.001.203-.656 1.449-1.457 2.769-.8 1.32-1.942 3.3-2.538 4.4-3.107 5.741-3.737 6.85-4.204 7.4-2.904 3.426-3.866 7.992-1.686 8.005 19.578.117 116.424-.083 116.836-.241.887-.341 1.14-1.4.506-2.122-.311-.353-1.26-1.992-2.11-3.642-.85-1.65-1.676-3.058-1.835-3.13-.16-.071-.852-1.241-1.539-2.6-.686-1.358-1.468-2.74-1.736-3.07-.698-.858-4.636-7.841-4.636-8.22 0-.174-.287-.634-.637-1.021-.35-.387-.935-1.253-1.3-1.923-1.392-2.561-9.213-15.978-11.912-20.436-.733-1.21-1.704-2.92-2.159-3.8a63.597 63.597 0 0 0-1.709-3.063c-1.057-1.75-5.715-9.725-6.983-11.955l-1.8-3.164c-.495-.871-1.71-2.969-2.7-4.663-.99-1.694-2.34-4.03-3-5.192-.66-1.162-2.73-4.727-4.6-7.922-1.87-3.195-3.707-6.385-4.081-7.09-.375-.704-.837-1.387-1.028-1.516-.19-.129-.734-1.045-1.208-2.035-.474-.99-1.496-2.784-2.272-3.987-.776-1.202-1.411-2.327-1.411-2.5 0-.398-.39-.361-1.412.136m1.812 2.627c0 .288.176.524.392.524.215 0 .8.743 1.3 1.652 1.28 2.329 2.184 3.9 3.308 5.748.536.88 1.363 2.455 1.84 3.5.477 1.045 1.023 1.9 1.213 1.9.191 0 .347.162.347.36 0 .198.722 1.503 1.605 2.9.882 1.397 2.33 3.98 3.216 5.74.887 1.76 2.138 4.01 2.781 5 .642.99 1.451 2.34 1.797 3 1.565 2.982 1.949 3.609 2.296 3.744.204.08.725.89 1.157 1.8.802 1.691 1.65 3.217 3.364 6.056.532.88 1.366 2.365 1.855 3.3.489.935 1.033 1.7 1.209 1.7.176 0 .32.246.32.546 0 .3.349.99.775 1.532.427.542.893 1.453 1.036 2.024.144.572.605 1.35 1.025 1.731.42.38.764.893.764 1.139 0 .247.81 1.75 1.8 3.341.99 1.591 1.8 3.037 1.8 3.214 0 .177.35.698.778 1.157.427.459 1.059 1.438 1.402 2.175.344.738 1.058 2.061 1.585 2.941 1.75 2.917 2.14 3.588 2.906 5 1.778 3.28 2.996 5.14 3.489 5.329.289.111.644.791.788 1.51.144.72.509 1.59.811 1.935.303.344 1.118 1.7 1.811 3.012.694 1.312 1.501 2.662 1.793 3 .292.338.78 1.084 1.084 1.658a649.44 649.44 0 0 0 4.955 9.046c.703 1.243.829 1.771.477 2-.742.481-115.905.586-116.484.106-.534-.443-.317-2.396.266-2.396.202 0 .722-.765 1.155-1.7.434-.935 1.102-2.168 1.486-2.74 1.881-2.805 2.457-3.795 4.514-7.76.913-1.76 1.89-3.47 2.172-3.8.281-.33 1.036-1.59 1.678-2.8a85.124 85.124 0 0 1 2.548-4.4c1.881-2.996 2.635-4.335 3.431-6.1.372-.825.815-1.5.985-1.5.169 0 .523-.651.785-1.446.263-.796.817-1.786 1.231-2.2.415-.415.754-1.002.754-1.305 0-.303.28-.784.623-1.068.343-.285.892-1.072 1.222-1.749.95-1.956 2.034-3.831 2.638-4.56.306-.369 1.066-1.711 1.689-2.981.622-1.269 1.276-2.397 1.451-2.505.176-.109.998-1.553 1.828-3.209.829-1.656 1.742-3.205 2.028-3.443.287-.238.521-.653.521-.923s.537-1.283 1.193-2.251 1.196-2.047 1.2-2.398c.004-.351.367-.964.807-1.362.44-.398.8-.944.8-1.213 0-.269.253-.699.563-.956.31-.257.858-1.045 1.218-1.749a32.68 32.68 0 0 1 1.439-2.482c.432-.66 1.169-2.01 1.638-3 .469-.99 1.078-1.933 1.353-2.095.275-.162.61-.735.745-1.273.135-.538.927-2.025 1.761-3.305.833-1.28 1.745-2.777 2.026-3.327.891-1.746 1.938-3.574 2.344-4.095.217-.278.907-1.495 1.534-2.705s1.358-2.47 1.623-2.8c.435-.54 1.646-2.673 3.234-5.695 1.069-2.035 2.922-2.053 2.922-.029" fill="#9abcda"/><path d="M90.324 112.419c-.607.353-.506.691.978 3.287 2.473 4.326 3.796 6.744 4.5 8.223.348.731 1.232 2.181 1.964 3.223.732 1.041 1.456 2.287 1.609 2.768.152.481.491 1.106.751 1.388.261.282.904 1.363 1.43 2.402.525 1.04 1.11 1.89 1.3 1.89.534 0 .383-.443-.883-2.6-.646-1.1-1.528-2.765-1.959-3.7-.432-.935-.958-1.7-1.168-1.7-.21 0-.501-.539-.645-1.198-.145-.658-.5-1.333-.789-1.5-.289-.166-.822-.932-1.183-1.702-.882-1.878-1.791-3.669-2.234-4.4-3.95-6.529-4.005-6.329 1.811-6.501l4.394-.129-4.6-.073c-2.53-.04-4.904.105-5.276.322m34.376-.119c5.775.062 15.225.062 21 0 5.775-.063 1.05-.114-10.5-.114s-16.275.051-10.5.114m54.7-.038 1.701.361.901.193-1.006 1.492a29.84 29.84 0 0 0-1.775 3.092c-.423.88-1.59 2.95-2.593 4.6-1.002 1.65-2.121 3.675-2.486 4.5-.365.825-.802 1.5-.971 1.5-.522 0-2.803 4.928-2.447 5.284.185.185.848-.704 1.474-1.974.627-1.271 1.44-2.67 1.808-3.11.368-.44 2.501-4.117 4.739-8.172 4.388-7.946 4.407-8.05 1.455-7.975-.88.022-1.24.116-.8.209m28.073 1.838c-.374.275-.993 1.084-1.376 1.797-.383.713-1.732 3.08-2.997 5.26-1.265 2.18-2.3 4.099-2.3 4.265 0 .642 1.553-1.145 2.044-2.351.453-1.115 1.327-2.544 4.052-6.628.382-.574.806-1.268.942-1.543.388-.785 1.362-.585 1.362.279 0 .429.42 1.233.933 1.787.514.554 1.53 2.183 2.26 3.62.73 1.438 1.48 2.614 1.667 2.614.187 0 .34.27.34.6 0 .33.18.6.4.6.61 0-.119-1.551-2.917-6.2-2.985-4.961-3.097-5.065-4.41-4.1m9.11 13.6a70.97 70.97 0 0 1 1.72 3.3c.787 1.641 2.097 3.057 2.097 2.267 0-.237-.405-1.033-.9-1.767-.495-.735-1.35-2.266-1.9-3.403-.55-1.136-1.218-2.073-1.484-2.081-.302-.01-.126.624.467 1.684m-18.783 2.38c-.66 1.125-1.416 2.416-1.68 2.869-.861 1.478-.104 1.269 1.299-.358 1.415-1.642 1.952-2.874 1.716-3.943-.082-.373-.607.191-1.335 1.432m-3.125 5.134c-.371.53-.675 1.169-.675 1.419 0 .251-.432 1.092-.96 1.87s-1.09 1.838-1.25 2.356c-.159.517-.627 1.263-1.04 1.657-.412.393-.75.871-.75 1.062 0 .19-.81 1.66-1.8 3.266-.99 1.605-1.8 3.14-1.8 3.409 0 .269-.228.728-.508 1.018-1.054 1.098-3.44 5.529-2.975 5.526.515-.002 1.883-2.139 1.883-2.94 0-.263.745-1.464 1.655-2.668.91-1.204 1.89-2.743 2.177-3.421.287-.677.797-1.46 1.134-1.74.337-.28.728-1.12.868-1.868s.424-1.36.631-1.36c.207 0 .634-.618.949-1.373.316-.755.734-1.471.929-1.592.196-.121.843-1.215 1.438-2.432 1.161-2.373 1.222-3.799.094-2.189m-91.474 1.486c0 .495.341 1.242.76 1.661.418.418.881 1.142 1.03 1.61.37 1.168 2.276 4.029 2.683 4.029.183 0 .164-.315-.041-.7a12.51 12.51 0 0 1-.595-1.3c-.21-.571-.924-1.743-2.937-4.824-.791-1.212-.898-1.269-.9-.476m64.299 1.155c-.605.873-1.1 1.871-1.1 2.218 0 .346-.263.847-.585 1.114-.321.267-.706.871-.856 1.341-.149.471-.606 1.355-1.015 1.964-.409.61-1.096 1.63-1.526 2.268-.431.638-.898 1.62-1.04 2.183-.141.564-.491 1.219-.778 1.457-.286.238-1.028 1.46-1.648 2.716-.62 1.256-1.538 2.793-2.039 3.415-.502.622-.913 1.394-.913 1.716 0 .322-.36 1.118-.8 1.769-.44.651-1.132 1.679-1.537 2.284-.405.605-.958 1.772-1.229 2.594-.271.822-.659 1.598-.863 1.724-.454.28-.491.982-.053.982.175 0 1.12-1.575 2.1-3.5s1.987-3.633 2.237-3.795c.251-.162.575-.772.722-1.355.146-.582.686-1.62 1.2-2.305.513-.685 1.414-2.145 2.001-3.245s1.597-2.9 2.245-4c.648-1.1 1.358-2.36 1.577-2.8.219-.44.934-1.7 1.589-2.8.654-1.1 1.482-2.63 1.84-3.4.358-.77.919-1.702 1.246-2.07.327-.369.534-.984.46-1.367-.102-.525-.405-.306-1.235.892m55.228-.45c-.262.262 1.913 4.849 2.46 5.187.691.428.468-.397-.799-2.951-1.24-2.498-1.307-2.589-1.661-2.236m4.363 7.859c-.205.552 1.293 3.517 2.494 4.936.373.44 1.198 1.88 1.834 3.2 1.201 2.493 2.981 5.002 2.981 4.202 0-.568-1.998-4.055-2.637-4.602-.257-.22-.593-.94-.746-1.6-.154-.66-.513-1.47-.798-1.8-.286-.33-1.062-1.561-1.724-2.736-.706-1.251-1.287-1.914-1.404-1.6m-118.691.682c0 .19.329.775.732 1.3.402.525.851 1.28.997 1.679.732 2.002 3.654 6.428 3.793 5.745.081-.401-.105-1.031-.414-1.4-.807-.962-3.508-5.658-3.508-6.099 0-.204-.18-.371-.4-.371-.22 0-.4-.27-.4-.6 0-.33-.18-.6-.4-.6-.22 0-.4.156-.4.346m6.401 11.146c.439.559.799 1.26.799 1.559 0 .298.36.767.8 1.042.44.275.8.872.8 1.327 0 .926 1.007 2.506 1.367 2.146.416-.416-3.082-6.703-3.839-6.901-.672-.176-.667-.114.073.827m66.799.854c0 .41-.399 1.253-.887 1.873-.877 1.115-1.443 2.073-3.067 5.181-.459.88-1.366 2.5-2.014 3.6-1.309 2.221-1.427 2.6-.81 2.6.233 0 .798-.855 1.256-1.9.458-1.045 1.064-2.036 1.346-2.202.282-.167.628-.823.767-1.459.14-.636.604-1.473 1.032-1.86.427-.386.777-.89.777-1.119 0-.23.439-1.057.975-1.838 1.148-1.675 1.723-3.622 1.068-3.622-.243 0-.443.336-.443.746m52.8.811c0 .212.257.642.57.956.314.314.855 1.182 1.203 1.929.348.747 1.073 2.078 1.611 2.958.537.88 1.195 2.005 1.461 2.5.465.865 1.155 1.224 1.155.6 0-.165-.893-1.801-1.984-3.635-1.091-1.834-2.093-3.679-2.227-4.1-.264-.83-1.789-1.86-1.789-1.208m-24.791 4.021c-.005.319.412 1.219.927 2 .515.782 1.274 1.962 1.686 2.622.576.921.782 1.044.888.53.133-.65-1.016-2.677-2.681-4.73-.52-.641-.814-.792-.82-.422m-3.781.791c-.179.533-.486 1.163-.683 1.4-1.315 1.589-2.348 3.588-2.022 3.914.465.465 3.377-4.705 3.174-5.633-.105-.477-.23-.392-.469.319m-86.711.489c-.161.407.26 1.465 1.102 2.772.749 1.163 1.432 2.307 1.517 2.542.085.235.27.322.411.193.314-.288-.803-2.67-1.764-3.765-.387-.44-.771-1.16-.855-1.6-.129-.683-.19-.704-.411-.142m121.683 5.066c0 .177.264.672.587 1.1.323.427.593.967.6 1.2.021.686 3.687 6.976 4.066 6.976.191 0 .347.259.347.576 0 .317.18.688.4.824.779.481.387-1.05-.5-1.952-.495-.503-.961-1.26-1.036-1.682-.263-1.491-4.464-8.117-4.464-7.042m-115.694 6.224c1.702 2.99 3.22 5.44 3.373 5.444.352.01-.446-2.406-1.037-3.141-.243-.302-1.162-1.904-2.042-3.561-.88-1.656-2.002-3.274-2.494-3.595-.641-.419-.019.953 2.2 4.853m76.21-4.367c-.266.303-.601 1.018-.744 1.589-.143.57-.421 1.136-.616 1.257-.461.285-.461.973 0 .973.288 0 1.16-1.509 2.371-4.1.236-.507-.498-.302-1.011.281m-53.427 1.499c-.599.924-1.089 1.914-1.089 2.2 0 .286-.16.52-.357.52-.395 0-1.779 3.198-1.503 3.474.096.095.761-.872 1.479-2.15.718-1.278 1.535-2.594 1.815-2.925.678-.798 1.425-2.799 1.045-2.799-.165 0-.79.756-1.39 1.68m66.926-.88c-.004.86.619 1.723 1.119 1.549.255-.089.116-.552-.345-1.149-.51-.661-.772-.797-.774-.4m-42.833 3.3a818.114 818.114 0 0 1-2.185 3.505c-1.136 1.809-1.581 3.195-1.024 3.195.235 0 .427-.248.427-.551 0-.303.28-.784.623-1.068.343-.285.88-1.133 1.194-1.884.315-.752 1.114-2.053 1.777-2.89.663-.837 1.206-1.721 1.206-1.965 0-.977-.784-.333-2.018 1.658m45.103.162c-.118.192.033.796.336 1.343.487.881.552.903.559.195.01-.974-.598-2.018-.895-1.538m-20.984 4.952c-.495.611-1.419 2.209-2.053 3.551-.635 1.342-1.366 2.695-1.624 3.006-.374.45-.333.545.201.467.368-.054.919-.625 1.225-1.268.306-.644.993-1.89 1.526-2.77 1.957-3.231 2.215-3.758 1.923-3.925-.165-.094-.704.329-1.198.939m-52.501.124c0 .296-.344.849-.764 1.229-.42.381-.885 1.174-1.032 1.762-.148.589-.614 1.393-1.036 1.787-.423.393-.768 1.055-.768 1.471 0 .416-.228.994-.506 1.284-.278.291-1.126 1.564-1.885 2.829-1.346 2.246-2.009 2.832-2.009 1.775 0-.288-.324-.873-.72-1.3-.396-.426-1.33-2.035-2.075-3.575-.746-1.54-1.577-2.98-1.847-3.2-.27-.22-.575-.76-.678-1.2-.15-.639-.191-.599-.207.2-.011.55.501 1.9 1.138 3 .637 1.1 1.725 3.025 2.417 4.278 2.383 4.309 3.191 3.907 6.993-3.478 1.031-2.003 2.505-4.555 3.227-5.589.647-.925.721-1.811.152-1.811-.22 0-.4.242-.4.538m76.707 1.262c.598.99 1.335 1.8 1.639 1.8.438 0 .417-.185-.103-.9a16.114 16.114 0 0 1-1.113-1.8c-.252-.495-.695-.9-.984-.9-.352 0-.166.597.561 1.8m28.212 1.306c.694 1.596 1.821 3.087 2.114 2.794.21-.21-2.137-3.9-2.481-3.9-.063 0 .103.498.367 1.106m-81.77 1.056c-.75 1.656-.035 1.527.932-.168.488-.855.54-1.194.184-1.194-.274 0-.776.613-1.116 1.362m55.715.899c.819 1.77 1.786 3.577 2.003 3.742.146.112 1.023 1.642 1.947 3.4.924 1.758 1.903 3.467 2.175 3.797.272.33.766 1.14 1.098 1.8 1.457 2.895 1.914 3.553 2.528 3.643.572.084.583.013.085-.573-.312-.369-.812-1.3-1.11-2.07-.297-.77-1.002-2.102-1.565-2.96-1.264-1.923-1.183-1.792-3.355-5.44-.982-1.65-1.907-3.405-2.055-3.9-.148-.496-.638-1.098-1.088-1.339-.451-.241-.749-.286-.663-.1m28.635 2.773c-.129.129.509 1.319 1.419 2.644 1.985 2.892 2.458 2.426.685-.674-1.213-2.119-1.596-2.478-2.104-1.97m-87.506 1.666a115.76 115.76 0 0 1-1.78 3.1c-2.09 3.491-2.209 3.755-1.812 4.001.22.135.399-.008.399-.319s.45-1.051 1-1.644c.55-.594 1-1.254 1-1.467 0-.471 2.079-3.717 2.5-3.904.165-.074.3-.389.3-.7 0-1.036-.773-.587-1.607.933m27.44-.197c-1.623 2.744-2.247 4.119-2.132 4.697.103.517 3.499-5.064 3.499-5.749 0-.641-.672-.125-1.367 1.052M256.4 196.6c0 .33.162.6.361.6.198 0 .549.54.779 1.2.23.66.588 1.2.795 1.2.207 0 .493.625.636 1.389.144.763.585 1.618.982 1.9.396.281.806.772.911 1.091.124.38.282.431.457.148.147-.238-.162-1.066-.687-1.839-.524-.774-1.074-1.785-1.221-2.248-.147-.462-.525-.841-.84-.841a.58.58 0 0 1-.573-.581c0-.827-.865-2.619-1.264-2.619-.185 0-.336.27-.336.6m-70.32.9a36.414 36.414 0 0 1-1.124 2.23c-.346.622-.527 1.233-.402 1.358.125.124.352-.114.505-.531.152-.416.697-1.266 1.209-1.888.917-1.112 1.233-2.269.62-2.269-.172 0-.536.495-.808 1.1m-26.983-.25c-.383.214-.697.691-.697 1.059 0 .562.141.528.878-.209.982-.982.883-1.446-.181-.85m-2.798 4.55c-.148.44-.568 1.205-.933 1.7-.552.749-.566.9-.082.9.739 0 1.643-1.662 1.439-2.647-.147-.714-.169-.712-.424.047m76.901 1.1c0 .359.192.771.427.916.686.424.753.045.14-.793-.474-.649-.567-.669-.567-.123m-50.991 1.232c-1.652 2.724-4.209 7.168-4.209 7.314 0 1.053 3.134-3.401 5.151-7.322.72-1.397-.094-1.391-.942.008m52.607 1.675c.008.436.635 1.783 1.392 2.993.758 1.21 1.55 2.588 1.76 3.061.601 1.352 1.235 1.537.848.247-.548-1.825-.883-2.508-1.232-2.508-.181 0-.458-.405-.614-.9-.489-1.554-2.173-3.814-2.154-2.893m27.806 1.093c.491 1.6 2.17 4.176 2.174 3.335.004-.757-1.835-4.235-2.24-4.235-.115 0-.086.405.066.9m-109.753.973c-.472.92-1.04 1.786-1.263 1.923-.223.138-.403.736-.4 1.328.006 1.044.02 1.051.5.23 1.643-2.812 2.322-4.27 2.181-4.684-.089-.258-.547.283-1.018 1.203m23.84 5.627c-.338.385-.748 1.15-.912 1.7-.164.55-.874 1.81-1.579 2.8-2.521 3.545-4.547 7.698-3.414 6.997.487-.3 7.196-11.543 7.196-12.058 0-.383-.747-.058-1.291.561m90.091.236c0 1.072 1.086 3.413 2.195 4.73.553.658 1.005 1.37 1.005 1.584 0 .214.705 1.45 1.566 2.746.861 1.296 1.692 2.773 1.847 3.28.366 1.201 1.397 2.365 1.847 2.087.195-.121-.009-.681-.453-1.245-.444-.564-.811-1.227-.816-1.472-.005-.245-.905-1.883-2-3.64-1.095-1.756-1.991-3.35-1.991-3.542 0-.192-.45-.883-1-1.537-.55-.654-1.006-1.4-1.013-1.658-.023-.848-1.187-2.155-1.187-1.333m-26.987 1.164c.239.805 2.045 3.789 2.603 4.3.12.11.737 1.239 1.371 2.509 1.129 2.261 2.042 3.396 2.424 3.014.105-.106-.709-1.69-1.81-3.521s-2.001-3.413-2.001-3.514c0-.423-2.227-3.66-2.527-3.673-.18-.008-.207.39-.06.885m-92.134 1.686c-.247.542-.302 1.076-.122 1.187.271.168 1.243-1.389 1.243-1.992 0-.566-.737-.037-1.121.805m-3.212 5.689c-.257.48-.466 1.199-.465 1.599.002.51.184.379.611-.441.335-.642.544-1.361.465-1.599-.079-.237-.354-.039-.611.441m-2.021 3.303c-.025.319-.514 1.254-1.086 2.08-.572.826-.953 1.735-.847 2.021.131.352.298.261.513-.279.176-.44.665-1.273 1.086-1.851.421-.578.679-1.388.573-1.8-.112-.439-.211-.509-.239-.171m104.754 1.757c0 .151 1.395 2.706 3.1 5.676s3.398 5.951 3.763 6.623c.365.671.95 1.538 1.3 1.925.35.387.637.847.637 1.021 0 .379 3.938 7.362 4.636 8.22.268.33 1.05 1.712 1.736 3.07.687 1.359 1.379 2.529 1.539 2.6.159.072.957 1.416 1.773 2.989 2.315 4.459 3.516 6.114 3.516 4.846 0-.554-.299-1.254-.665-1.556-.366-.302-1.012-1.269-1.435-2.149-1.759-3.655-2.352-4.645-2.911-4.86-.324-.124-.589-.499-.589-.834 0-.335-.585-1.581-1.3-2.769a233.543 233.543 0 0 1-2.3-3.918c-.55-.967-1.945-3.39-3.1-5.385-1.155-1.995-2.1-3.75-2.1-3.899 0-.15-.255-.556-.567-.904-.313-.347-1.235-1.891-2.05-3.431-.816-1.54-1.82-3.229-2.233-3.754-.412-.525-.75-1.168-.75-1.43s-.45-.899-1-1.416c-.55-.517-1-.816-1-.665m-78.8.734c0 .257-.288.787-.641 1.176-.353.39-.56.944-.461 1.232.108.316.519-.03 1.039-.877.954-1.553 1.058-2 .463-2-.22 0-.4.211-.4.469m107.2 1.313c0 .793 1.888 3.524 2.146 3.105.198-.32-1.6-3.687-1.969-3.687-.097 0-.177.262-.177.582m-136.733 2.431c-.259.567-.289.987-.072.987.536 0 1.276-1.509.865-1.763-.189-.117-.545.232-.793.776m26.497 1.406a230.856 230.856 0 0 0-1.827 3.228c-.365.664-.95 1.525-1.3 1.912-.774.855-.809 1.241-.114 1.241.452 0 5.077-7.411 5.077-8.136 0-.797-.813-.02-1.836 1.755m-28.898 2.826c-.733 1.331-1.227 2.528-1.096 2.659.316.315 1.296-.97 2.05-2.685 1.088-2.476.414-2.457-.954.026m143.158-.14c-.013.278.198.908.47 1.4 1.084 1.962 3.148 5.073 3.516 5.301.214.133.39.622.39 1.088 0 .466.768 2.031 1.707 3.477 2.02 3.109 2.849 4.537 3.73 6.422.837 1.79 1.986 3.25 2.306 2.93.138-.137.093-.446-.099-.686-.192-.24-.877-1.427-1.522-2.637-1.592-2.988-2.093-3.856-3.635-6.296-.728-1.153-1.576-2.697-1.883-3.432-.307-.735-.838-1.568-1.181-1.853-.343-.284-.626-.72-.63-.968-.004-.248-.499-1.194-1.1-2.103a237.71 237.71 0 0 1-1.569-2.4c-.271-.424-.487-.529-.5-.243M134.095 240.1c-.914 1.133-4.495 7.951-4.495 8.557 0 .864 1.758-1.743 3.465-5.137.741-1.475 1.525-2.79 1.741-2.924.489-.302.518-.996.043-.996-.193 0-.532.225-.754.5m26.067 2.165a352.77 352.77 0 0 1-1.975 3.135c-1.842 2.894-2.188 3.637-2.176 4.674.011.907.712-.133 2.475-3.674.274-.55.613-1.09.753-1.2.412-.323 1.971-3.723 1.79-3.904-.091-.091-.481.345-.867.969m-6.42 10.535c-.466.77-1.085 2.075-1.375 2.9-.29.825-.652 1.5-.804 1.5-.152 0-.567.675-.922 1.5-.354.825-1.097 2.175-1.649 3-.552.825-.817 1.5-.589 1.5.228 0 .906-.8 1.506-1.778 3.326-5.421 3.936-6.47 4.405-7.572.819-1.925.41-2.674-.572-1.05m-27.048-.011c-.382.544-.693 1.444-.693 2 .002.973.032.961.821-.333 1.035-1.697.922-3.164-.128-1.667m-4.052 7.137c-1.233 2.159-2.242 4.062-2.242 4.228 0 .167-.27.573-.6.903-.658.658-.792 1.343-.264 1.343.185 0 .86-.912 1.5-2.027.64-1.114 1.565-2.689 2.056-3.5.491-.81 1.095-1.923 1.343-2.473.248-.55.613-1.315.811-1.7.214-.416.214-.7 0-.7-.199 0-1.37 1.767-2.604 3.926m169.796-1.226c.295.385.587.775.649.867.062.091.113-.224.113-.7 0-.533-.25-.867-.649-.867-.555 0-.572.101-.113.7m1.212 1.983c.333.394 1.223 1.95 1.978 3.458.754 1.507 1.429 2.458 1.499 2.113.171-.848-2.585-5.714-3.418-6.034-.599-.229-.605-.184-.059.463m-141.438 5.297c-.301.488 102.47.512 103.588.025.461-.201-21.298-.361-51.276-.377-32.507-.017-52.165.115-52.312.352m105.12-.115c.304.305 3.076.26 3.391-.055.116-.115-.66-.21-1.723-.21-1.063 0-1.814.119-1.668.265m6.068.135c.136.22.766.4 1.4.4.634 0 1.264-.18 1.4-.4.15-.242-.404-.4-1.4-.4-.996 0-1.55.158-1.4.4m34.677 2.5c.24.715.697 1.603 1.017 1.972.628.728 1.693 2.561 2.69 4.628.345.715.785 1.3.978 1.3.193 0 .646.675 1.007 1.5.361.825 1.083 2.22 1.605 3.1 4.133 6.966 4.119 7.009-2.223 6.905-17.675-.288-189.551.163-189.551.498 0 .269 32.355.4 97.611.394l97.612-.009.448-.984c.377-.828.294-1.225-.524-2.494-.535-.831-1.198-1.96-1.473-2.51-1.022-2.039-2.341-3.999-2.552-3.789-.119.119-.317-.284-.44-.897s-1.224-2.734-2.448-4.714c-1.223-1.98-2.53-4.185-2.903-4.9-.374-.715-.816-1.3-.984-1.3-.168 0-.109.585.13 1.3m-180.709.484c-.135.541-.509 1.201-.83 1.468-.321.266-.84 1.039-1.153 1.716-.313.678-.794 1.592-1.069 2.032-2.099 3.358-2.714 4.595-2.698 5.435.015.848.125.774.9-.6a260.94 260.94 0 0 1 1.96-3.4c.594-1.009 1.377-2.465 1.74-3.235.364-.77.892-1.67 1.175-2 .735-.86 1.147-2.4.642-2.4-.231 0-.531.443-.667.984m-7.594 13.738c-1.382.953-2.964 4.241-2.43 5.049.593.898 3.856 1.45 3.856.652 0-.233-.345-.423-.767-.423-2.273 0-2.526-.888-.998-3.496 1.019-1.739 1.131-2.329.339-1.782" fill="#849ce1"/><path d="M103.5 112.298c2.035.073 5.365.073 7.4 0s.37-.132-3.7-.132-5.735.059-3.7.132m56 0c2.035.073 5.365.073 7.4 0s.37-.132-3.7-.132-5.735.059-3.7.132m14.4-.005c.935.084 2.465.084 3.4 0s.17-.153-1.7-.153c-1.87 0-2.635.069-1.7.153m41.057 12.74c.134.348.243.708.243.8 0 .092.27.167.6.167.723 0 .773-.467.12-1.12-.684-.684-1.249-.594-.963.153m-15.091 1.598c-.955 2.001-.822 2.416.334 1.042 1.041-1.237 1.233-1.882.666-2.232-.184-.114-.634.422-1 1.19m-30.22 7.895c-1.132 1.831-1.177 3.327-.057 1.874.783-1.016 1.392-2.752 1.076-3.068-.096-.096-.554.442-1.019 1.194m50.651-1.069c-.276.466.387 2.143.847 2.143.203 0 .482.45.62 1s.428 1 .644 1c.547 0 .501-.226-.393-1.916-1.14-2.158-1.49-2.611-1.718-2.227m-24.691 1.443c.005.728.08.785.394.3.501-.776.501-1.2 0-1.2-.22 0-.397.405-.394.9m29.997 7.837c-.002.515.357 1.394.797 1.954 1.116 1.418 1.116-.006 0-1.691-.759-1.146-.795-1.158-.797-.263m-117.91 2.063c.593.949 1.298 1.073.95.167-.134-.348-.243-.708-.243-.8 0-.092-.272-.167-.603-.167-.504 0-.521.133-.104.8m99.907 16.516c-.585.295-1.049.915-1.117 1.494-.067.566.018.801.2.55.64-.889 2.195-1.481 2.518-.959.223.361.371.367.583.024.694-1.122-.727-1.844-2.184-1.109m-57.019 6.778c-.151.498-.553 1.222-.893 1.608-.734.836-.358 1.42.471.732.758-.629 1.492-2.756 1.046-3.031-.191-.118-.472.193-.624.691m62.547-.094c-.259.728.343 2.47.997 2.886.8.509 1.318.322.607-.219-.367-.28-.831-1.129-1.029-1.888-.227-.864-.441-1.155-.575-.779m27.144-.116c-.121.195-.074.59.104.878.246.398.395.409.619.046a.75.75 0 0 0-.105-.878c-.223-.223-.496-.244-.618-.046m-37.994 1.739c-.137.523-.045.766.253.667.576-.192.876-1.49.345-1.49-.21 0-.48.37-.598.823m-28.585 2.133c-.348.763-.328 1.022.091 1.183.318.121.63-.148.763-.66.331-1.262-.332-1.669-.854-.523m42.552 2.456c.754 1.151 1.157 1.055.765-.182-.145-.456-.526-.83-.846-.83-.488 0-.475.163.081 1.012m-17.586 1.757c-.344.859-.813 1.679-1.042 1.821-.229.141-.417.555-.417.919 0 .61.051.611.647.016.9-.901 2.177-3.863 1.772-4.113-.184-.114-.616.497-.96 1.357m19.357.551c-.025 1.143 1.142 3.08 1.856 3.08.587 0 .591-.069.04-.7-.337-.385-.897-1.24-1.246-1.9-.444-.84-.639-.984-.65-.48m-73.879 2.382c-.125.202-.067.528.128.723.207.207.544.053.807-.368.357-.573.331-.724-.128-.724-.318 0-.682.166-.807.369m102.893 1.05c-.137.221.296.958.961 1.639 1.449 1.482 1.586 1.075.248-.738-.529-.717-1.073-1.122-1.209-.901m-119.03.97c0 .068.45.733 1 1.478.86 1.166 1 1.237 1 .506 0-.866-.959-2.106-1.629-2.106-.204 0-.371.055-.371.122m93.757 2.911c.134.348.243.718.243.823 0 .105.172.085.383-.045.464-.287.091-1.411-.469-1.411-.22 0-.29.285-.157.633m-55.597 1.273c-.835.558-1.462 2.152-1.019 2.595.286.286.504.057.703-.743.159-.637.574-1.377.922-1.645.675-.519.136-.703-.606-.207m84.246.994c.003.275.161.744.35 1.043.444.701.936-.039.603-.907-.29-.754-.962-.85-.953-.136m3.905 5.967c-.226.679 1.69 4.38 2.128 4.109.322-.199-.515-2.4-1.484-3.904-.341-.528-.517-.585-.644-.205m-66.073 1.533c-.183.55-.599 1.304-.924 1.675-.326.371-.462.886-.302 1.144.427.692 1.88-1.785 1.703-2.904-.144-.914-.145-.914-.477.085m-30.776 5.931c-.364.403-.662 1.158-.662 1.678 0 .886.064.86 1-.409 1.425-1.931 1.16-2.924-.338-1.269m74.411 1.552c-.11.176.144.745.564 1.263.712.88.763.89.763.147 0-.864-1.005-1.932-1.327-1.41m-48.193.597c-.576.576-.634 1.52-.094 1.52.356 0 1.214-1.253 1.214-1.774 0-.388-.618-.248-1.12.254m49.876 2.59c1.03 1.804 1.231 1.974 1.238 1.044.003-.492-.363-1.084-.824-1.33-.74-.396-.785-.365-.414.286m27.644.281c0 .633 1.111 1.672 1.437 1.345.266-.266-.708-1.896-1.133-1.896-.167 0-.304.248-.304.551m-106.95.828c-.37.565-.481 1.078-.263 1.213.209.129.661-.312 1.006-.979.749-1.448.172-1.63-.743-.234m110.55 5.312c0 .997.617 1.528 1.02.877.151-.245-.017-.736-.373-1.092-.596-.597-.647-.58-.647.215m-113.946.397c-.029.269-.629 1.305-1.332 2.302-.927 1.315-1.158 1.934-.84 2.252.318.318.517.18.724-.502.157-.517.64-1.327 1.073-1.801.483-.528.718-1.223.608-1.8-.098-.516-.203-.719-.233-.451M177.6 212.2c0 .33.161.6.357.6.197 0 .461-.27.588-.6.14-.365 0-.6-.358-.6a.595.595 0 0 0-.587.6m61.227 1.232c.567.684 1.302.754 1.085.103-.086-.256-.471-.511-.856-.568-.563-.083-.608.009-.229.465m-91.963 4.664c-.626.626-.585 1.104.093 1.104.634 0 1.173-1.072.69-1.371-.176-.108-.528.012-.783.267m-1.51 2.472c-.245.528-.313 1.174-.152 1.435.232.376 1.198-1.448 1.198-2.263 0-.506-.675.028-1.046.828m-2.119 3.767c-.275.514-.421 1.012-.324 1.109.314.314 1.169-1.003.994-1.529-.108-.325-.354-.17-.67.42m102.726 1.391c1.079 1.704 1.744 1.894 1.203.344-.228-.654-.771-1.283-1.208-1.397-.79-.207-.79-.202.005 1.053m-75.961.087c0 .336-.27.716-.6.842-.781.3-.774.945.01.945.335 0 .785-.462 1-1.026.485-1.277.485-1.374-.01-1.374-.22 0-.4.276-.4.613m-30.156 4.417c-.145.377-.166.782-.047.901.119.118.429.003.69-.258.335-.335.349-.597.046-.9-.302-.302-.503-.227-.689.257m137.657 2.403c-.128.127.202.873.733 1.655.531.783.969 1.624.972 1.868.004.255.151.216.347-.093.214-.338.026-1.116-.507-2.097-.842-1.552-1.102-1.777-1.545-1.333m-139.234.434c-.399.399-.322 1.814.085 1.563.458-.284.862-1.83.477-1.83-.163 0-.416.12-.562.267m23.2 6.8c-.399.399-.322 1.814.085 1.563.458-.284.862-1.83.477-1.83-.163 0-.416.12-.562.267m-32.792 9.362c-.365.557-.768 1.633-.897 2.392-.223 1.319-.188 1.294.809-.577 1.119-2.1 1.187-3.492.088-1.815m26.625 1.393c-.275.3-.5.952-.5 1.45v.906l.628-.896c.77-1.099.663-2.319-.128-1.46m-30.007 4.578c-.417.667-.4.8.104.8.336 0 .603-.354.603-.8 0-.44-.047-.8-.104-.8-.057 0-.328.36-.603.8m166.307 1.691c0 .729.709 1.333 1.103.94.137-.138-.055-.554-.427-.926-.623-.624-.676-.625-.676-.014m1.6 2.409c0 .359.192.771.427.916.686.424.753.045.14-.793-.474-.649-.567-.669-.567-.123m-144.9 3.932c-3.457 2.014 3.181 4.719 7.7 3.138.706-.247.354-.293-1.2-.157-3.53.308-6.299-.995-5.764-2.713.251-.805.211-.819-.736-.268m119.7 1.504c0 .184-.45.541-1 .791-.55.251-1 .64-1 .864 0 .567 1.735.514 2.32-.071.581-.581.637-1.92.08-1.92-.22 0-.4.151-.4.336M255.8 266c-.603.259-.358.344 1 .344s1.603-.085 1-.344c-.44-.189-.89-.344-1-.344-.11 0-.56.155-1 .344m4-.02c-1.148.272-1.118.298.695.597 2.03.335 3.312.081 2.907-.574-.277-.448-1.774-.457-3.602-.023m-141.387 1.196c-.259.484-.272.864-.034 1.011.332.205 1.221-.931 1.221-1.561 0-.535-.807-.161-1.187.55m70.317-.476c9.752.06 25.592.06 35.2 0 9.609-.06 1.63-.109-17.73-.109s-27.221.049-17.47.109m-78.27 14.076c-.518.922-.852 1.765-.744 1.873.343.343 1.947-2.225 1.813-2.901-.085-.425-.453-.07-1.069 1.028m.74 7.577c0 .425 1.602.893 2.069.604.726-.449.264-.957-.869-.957-.66 0-1.2.159-1.2.353" fill="#74acec"/></g></svg>