<svg width="498" height="498" viewBox="0 0 498 498" fill="none" xmlns="http://www.w3.org/2000/svg"><path d="M313.703 279.696h177.982c6.846 0 8.225-9.322 2-12.168l-179.971-81.969V6.881c0-6.669-8.92-8.857-11.998-2.94l-73.988 142.458-81.987-37.655c-7.844-3.168-12.661 3.218-9.999 8.707l48.891 100.851H6.651c-6.846 0-8.225 9.321-2 12.168l179.971 81.969v178.677c0 6.669 8.92 8.858 11.998 2.941l73.988-142.459 81.987 37.656c7.844 3.168 12.661-3.218 9.999-8.708l-48.891-100.85Z" fill="url(#a)"/><defs><linearGradient id="a" x1="400.109" y1="130.876" x2="79.643" y2="376.677" gradientUnits="userSpaceOnUse"><stop stop-color="#FA43BD"/><stop offset="1" stop-color="#FFA930"/></linearGradient></defs></svg>
