<svg width="851" height="946" viewBox="0 0 851 946" fill="none" xmlns="http://www.w3.org/2000/svg"><path d="m378.264 868.644-271.5-315.8c-5.1-5.9 1.8-14.5 8.7-10.7l182.6 99.1c8.6 4.7 15.3 12.3 18.7 21.5l73.5 199c2.6 7.2-6.9 12.9-12 6.9Z" fill="url(#a)"/><path d="m417.465 796.045-74.9-370.3c-1.1-5.5 0-11.3 3-16l130.7-204.6c2.6-4.1 9-1.9 8.5 3l-58.2 587.5c-.4 5.3-8 5.6-9.1.4Z" fill="url(#b)"/><path d="m482.365 686.945 143.7-209.1c4.9-7.1 13.5-10.8 22.1-9.5l91.9 13.9c5.9.9 7.9 8.4 3.2 12.1l-253.7 199.4c-4.5 3.5-10.4-2-7.2-6.8Z" fill="url(#c)"/><path d="m503.863 543.645 73.501-464.7c.8-4.8 7.4-5.4 9-.8l65.2 189.799c1.9 5.7 1.5 11.9-1.3 17.2l-137.7 261.4c-2.5 4.6-9.601 2.301-8.701-2.899Z" fill="url(#d)"/><path d="m188.764 451.945 16.4-116.7c.7-4.8 7.3-5.7 9.2-1.2l101.4 236.4c2 4.8-3.9 9-7.7 5.4l-113.2-106.4c-4.7-4.5-7.1-11.1-6.1-17.5Z" fill="url(#e)"/><defs><linearGradient id="a" x1="47.957" y1="75.704" x2="308.32" y2="896.97" gradientUnits="userSpaceOnUse"><stop stop-color="#F78E1E"/><stop offset="1" stop-color="#F2A529"/></linearGradient><linearGradient id="b" x1="394.623" y1="14.972" x2="446.471" y2="836.794" gradientUnits="userSpaceOnUse"><stop stop-color="#F78E1E"/><stop offset="1" stop-color="#F2A529"/></linearGradient><linearGradient id="c" x1="561.43" y1="166.537" x2="631.976" y2="737.771" gradientUnits="userSpaceOnUse"><stop stop-color="#F78E1E"/><stop offset="1" stop-color="#F2A529"/></linearGradient><linearGradient id="d" x1="543.674" y1="54.415" x2="622.783" y2="867.064" gradientUnits="userSpaceOnUse"><stop stop-color="#F78E1E"/><stop offset="1" stop-color="#F2A529"/></linearGradient><linearGradient id="e" x1="111.133" y1="207.156" x2="428.917" y2="873.708" gradientUnits="userSpaceOnUse"><stop stop-color="#F78E1E"/><stop offset="1" stop-color="#F2A529"/></linearGradient></defs></svg>
