<svg width="197" height="196" viewBox="0 0 197 196" fill="none" xmlns="http://www.w3.org/2000/svg"><path d="m80.777 32.41 12.346-15.726 14.248 13.936 17.487-9.842L132.61 39.1l19.914-2.467.104 19.923 19.325 5.268-7.59 18.487 15.817 12.216-14.102 14.225 9.871 17.305-18.479 7.821 2.447 19.744-20.065.22-5.371 19.193-18.555-7.447-12.345 15.727-14.248-13.936-17.445 9.83-7.794-18.311-19.872 2.456-.105-19.923-19.324-5.268 7.548-18.476-15.775-12.227 14.102-14.225-9.872-17.305 18.438-7.81-2.405-19.754 20.023-.21 5.37-19.193 18.555 7.447Z" fill="#FF0420"/><path d="M84.266 44.677 94.288 31.91l11.566 11.313 14.196-7.99 6.293 14.875 16.167-2.003.084 16.173 15.688 4.277-6.161 15.008 12.84 9.917-11.448 11.547 8.013 14.049-15.002 6.349 1.987 16.028-16.289.179-4.359 15.58-15.063-6.045-10.023 12.767-11.566-11.313-14.162 7.98-6.327-14.865-16.132 1.994-.085-16.174-15.688-4.276 6.128-14.999-12.806-9.926 11.447-11.548-8.013-14.048 14.968-6.34-1.953-16.037 16.255-.17 4.36-15.58 15.063 6.045Z" fill="#FFF2AF"/><path d="m87.764 57.164 7.626-9.715 8.801 8.609 10.802-6.08 4.788 11.318 12.301-1.524.064 12.307 11.937 3.254-4.688 11.42 9.77 7.545-8.711 8.786 6.098 10.69-11.415 4.831 1.512 12.195-12.394.137-3.318 11.855-11.461-4.6-7.626 9.714-8.8-8.608-10.777 6.072-4.814-11.31-12.275 1.517-.065-12.307-11.937-3.254 4.663-11.412-9.744-7.553 8.71-8.787-6.097-10.69 11.389-4.823-1.486-12.203 12.368-.129 3.318-11.855 11.461 4.6Z" fill="#69D7FF"/></svg>
