<svg xmlns="http://www.w3.org/2000/svg" width="20" height="20" viewBox="0 0 20 20"><defs><linearGradient id="a" gradientUnits="userSpaceOnUse" x1="548.584" y1="145.932" x2="161.133" y2="600.398" gradientTransform="scale(.02959)"><stop offset="0" style="stop-color:#ff9e00;stop-opacity:1"/><stop offset="1" style="stop-color:#ff6b3b;stop-opacity:1"/></linearGradient></defs><path style="stroke:none;fill-rule:evenodd;fill:url(#a)" d="M12.598 5.18c1.28-1.227 4.152-1.285 2.64 1.84 0 0 .285.32.461.582.047.105-.015.203-.086.308-.082.121-.172.25-.105.422.097.254.254.5.43.785.222.36.484.778.714 1.34.41 1.004-.168 2.559-.726 3.465-.953 1.476-2.535.887-3.828.25a.354.354 0 0 0-.485.183l-.687 1.692a.567.567 0 0 1-.672.348c-1.965-.563-5.305-2.543-7.027-6.782-.125-.312.043-.664.34-.82.331-.176.738-.434 1.003-.77 0 0-1.59-2.566.184-3.46 1.125-.493 2.266-.141 2.855.167.07.028.13.055.18.082.399.184.45.211 1.004.094 1.371-.312 2.785-.152 3.805.274Zm.367 3.316c.207.563.46 1.215.683 1.637.125.234.368.367.633.398 1.145.133 1.504.028 1.73-.078.102-.047.157-.16.094-.254 0 0-.886-1.48-1.328-2.058l-.03-.047c-.235-.336-.462-.668.273-.656-2.133-2.208-4.086-2.56-6.356-2.063-.441.086-.684.023-1.14-.207-.489-.246-1.18-.527-2.079-.367.637.418 1.168 1.07 1.535 1.644.465.715 1.25 1.242 2.102 1.18l2.227-.164c.695-.055 1.421.379 1.656 1.035Zm.101-3.14c.27-.247 1.149-.692 1.813-.458-.363.016-.61.18-.836.329-.293.195-.547.359-.977.128ZM4.61 9.741c-.132-.453-.468-.914-1.03-.453 1.148 3.004 3.187 4.606 3.187 4.606-1.086-1.137-1.793-3.07-2.157-4.153Zm7.961 2.528c-1.586.062-2.64.03-3.203-.461 4.156-1.805 6-.625 6 .433.004 1.016-.824 1.317-1.949 1.254-1.121-.059-2.215-.476-2.746-.836 0 0 1.176.012 1.898-.39Zm3.817-1.114c-.227.156-.48.559-.559 1.047-.336 1.992.719.024.559-1.047Zm-.793 2.477c-.692 1.316-2.43.531-3.305.066 1.262.313 2.356.207 3.098-.113a.174.174 0 0 1 .199.035Zm-7.329-5.53L9.953 8c.172-.012.324.102.445.223.23.238.832.492 1.895.453a.387.387 0 0 1 .352.191c.457 1.047.113 1.438-2.04 2.028-3.964 1.09-5.59-2.551-2.34-2.793Zm0 0"/></svg>
