<svg width="247.348" height="61.456" viewBox="0 0 247.348 61.456" fill="none" xmlns="http://www.w3.org/2000/svg"><path d="m215.173 47.285 4.946-31.178h27.23l-1.58 9.977h-15.59l-.29 1.87h14.507l-1.207 7.484h-14.506l-.29 1.87h15.59l-1.58 9.977z" fill="url(#a)" style="fill:url(#a)"/><path d="m191.27 47.285 3.366-21.2h-9.768l1.58-9.978h31.178l-1.58 9.977h-9.768l-3.366 21.2z" fill="url(#b)" style="fill:url(#b)"/><path d="m166.915 47.285 4.946-31.178h11.64l-4.946 31.178z" fill="url(#c)" style="fill:url(#c)"/><path d="m129.923 47.285 4.946-31.178h11.64l7.816 13.717 2.162-13.717h11.64l-4.946 31.178h-11.64l-7.857-13.344-2.12 13.344z" fill="url(#d)" style="fill:url(#d)"/><path d="m111.268 36.31.914-5.652h17.044l-2.618 16.627h-6.694l.46-2.742c-3.16 2.204-6.902 3.576-11.059 3.576-9.894 0-15.837-5.611-14.133-16.42 1.745-10.809 9.602-16.42 20.08-16.42 7.98 0 13.426 3.283 14.798 9.602l-11.598 3.783c-.459-2.204-1.663-3.367-4.78-3.367-4.325 0-6.195 2.328-6.86 6.402-.624 4.073.5 6.401 4.821 6.401 2.245 0 3.825-.624 4.905-1.787h-5.28z" fill="url(#e)" style="fill:url(#e)"/><path d="m77.726 47.285 4.946-31.178h11.64l-4.946 31.178z" fill="url(#f)" style="fill:url(#f)"/><path fill-rule="evenodd" clip-rule="evenodd" d="M43.298 30.621 36.274 0l-16.31 30.621H0l27.023 30.835L63.625 30.62zM28.02 55.04 10.72 35.3h12.01l11.458-21.509 4.934 21.51H51.45z" fill="url(#g)" style="fill:url(#g)"/><path fill-rule="evenodd" clip-rule="evenodd" d="m31.781 30.558-6.874 12.125 4.203 4.983 5.856-4.983z" fill="url(#h)" style="fill:url(#h)"/><defs><linearGradient id="a" x1="19.571" y1="11.679" x2="98.629" y2="-78.347" gradientUnits="userSpaceOnUse" gradientTransform="translate(-.757 -.86)"><stop offset=".025" stop-color="#E73235"/><stop offset="1" stop-color="#E47E10"/></linearGradient><linearGradient id="b" x1="19.571" y1="11.679" x2="98.629" y2="-78.347" gradientUnits="userSpaceOnUse" gradientTransform="translate(-.757 -.86)"><stop offset=".025" stop-color="#E73235"/><stop offset="1" stop-color="#E47E10"/></linearGradient><linearGradient id="c" x1="19.571" y1="11.679" x2="98.629" y2="-78.347" gradientUnits="userSpaceOnUse" gradientTransform="translate(-.757 -.86)"><stop offset=".025" stop-color="#E73235"/><stop offset="1" stop-color="#E47E10"/></linearGradient><linearGradient id="d" x1="19.571" y1="11.679" x2="98.629" y2="-78.347" gradientUnits="userSpaceOnUse" gradientTransform="translate(-.757 -.86)"><stop offset=".025" stop-color="#E73235"/><stop offset="1" stop-color="#E47E10"/></linearGradient><linearGradient id="e" x1="19.571" y1="11.679" x2="98.629" y2="-78.347" gradientUnits="userSpaceOnUse" gradientTransform="translate(-.757 -.86)"><stop offset=".025" stop-color="#E73235"/><stop offset="1" stop-color="#E47E10"/></linearGradient><linearGradient id="f" x1="19.571" y1="11.679" x2="98.629" y2="-78.347" gradientUnits="userSpaceOnUse" gradientTransform="translate(-.757 -.86)"><stop offset=".025" stop-color="#E73235"/><stop offset="1" stop-color="#E47E10"/></linearGradient><linearGradient id="g" x1="19.571" y1="11.679" x2="98.629" y2="-78.347" gradientUnits="userSpaceOnUse" gradientTransform="translate(-.757 -.86)"><stop offset=".025" stop-color="#E73235"/><stop offset="1" stop-color="#E47E10"/></linearGradient><linearGradient id="h" x1="19.571" y1="11.679" x2="98.629" y2="-78.347" gradientUnits="userSpaceOnUse" gradientTransform="translate(-.757 -.86)"><stop offset=".025" stop-color="#E73235"/><stop offset="1" stop-color="#E47E10"/></linearGradient></defs></svg>
