<svg width="145" height="24" viewBox="0 0 145 24" fill="none" xmlns="http://www.w3.org/2000/svg"><path d="M132.194 19.069c-3.091 0-5.838-2.24-6.546-5.332h18.353s.099-1.12.099-1.517c0-6.563-5.34-11.904-11.903-11.904-6.563 0-11.903 5.34-11.903 11.904 0 6.565 5.31 11.78 11.903 11.78 6.593 0 10.443-4.857 11.404-8.373h-5.595s-1.779 3.442-5.812 3.442Zm.003-13.824c2.964 0 5.537 1.958 6.418 4.875h-12.836c.878-2.917 3.452-4.875 6.418-4.875ZM62.16 24c-6.563 0-11.711-5.284-11.711-11.78 0-6.495 5.34-11.904 11.903-11.904 6.563 0 11.902 5.55 11.902 11.841V23.41h-4.62v-3.755l-.337-.089C68.483 21.561 65.535 24 62.159 24h.001Zm.192-18.755c-3.707 0-6.724 3.112-6.724 6.939 0 3.826 3.016 6.886 6.724 6.886s6.723-3.089 6.723-6.886c0-3.798-3.016-6.939-6.723-6.939ZM87.441 24c-6.563 0-11.711-5.284-11.711-11.78C75.73 5.725 81.07.316 87.633.316c6.563 0 11.903 5.55 11.903 11.841V23.41h-4.622v-3.755l-.336-.089C93.764 21.561 90.816 24 87.44 24h.001Zm.192-18.755c-3.707 0-6.724 3.112-6.724 6.939 0 3.826 3.016 6.886 6.724 6.886s6.723-3.089 6.723-6.886c0-3.798-3.015-6.939-6.723-6.939Zm19.66 18.162L97.808.908h5.19l6.951 16.574L116.902.908h5.188l-9.484 22.5h-5.313Zm-90.419.558a4.673 4.673 0 1 0 0-9.347 4.673 4.673 0 0 0 0 9.347Zm12.214 0a4.673 4.673 0 1 0 0-9.347 4.673 4.673 0 0 0 0 9.347Z" fill="#fff" style="fill:#fff;fill-opacity:1"/><path d="M22.973 0C10.284 0-.003 10.483 0 23.411h5.869c0-9.688 7.597-17.543 17.104-17.543 9.507 0 17.104 7.855 17.104 17.543h5.869C45.948 10.483 35.66 0 22.973 0Z" fill="#fff" style="fill:#fff;fill-opacity:1"/></svg>
