<svg width="180" height="32" viewBox="0 0 180 32" fill="none" xmlns="http://www.w3.org/2000/svg"><path d="M0 14.51c2.333 0 3.13-.913 3.13-3.195V7.328c0-4.412 1.92-5.842 6.085-5.842v2.556c-2.452 0-3.13 1.096-3.13 3.439v4.777c0 1.719-.577 3.088-3.19 3.62v.366c2.613.532 3.19 1.902 3.19 3.62v4.778c0 2.373.678 3.438 3.13 3.438v2.587c-4.165 0-6.084-1.43-6.084-5.873v-3.956c0-2.282-.798-3.225-3.131-3.225V14.51Z" fill="#F5F5F5"/><path d="m22.472 13.312-5.796-8.075h11.592l-5.796 8.075Zm0 0 8.82 12.222h-17.64l8.82-12.222Z" stroke="#F5F5F5" stroke-width="3.072"/><path d="M44.942 14.51c-2.333 0-3.13-.913-3.13-3.195V7.328c0-4.412-1.92-5.842-6.084-5.842v2.556c2.45 0 3.13 1.096 3.13 3.439v4.777c0 1.719.576 3.088 3.19 3.62v.366c-2.614.532-3.19 1.902-3.19 3.62v4.778c0 2.373-.68 3.438-3.13 3.438v2.587c4.164 0 6.084-1.43 6.084-5.873v-3.956c0-2.282.797-3.225 3.13-3.225V14.51Zm19.978 1.65 3.87 1.17c-.26 1.086-.67 1.992-1.229 2.72a5.322 5.322 0 0 1-2.086 1.648c-.825.37-1.878.555-3.158.555-1.554 0-2.824-.224-3.812-.672-.982-.455-1.83-1.251-2.545-2.389-.715-1.137-1.072-2.593-1.072-4.367 0-2.366.627-4.182 1.882-5.45 1.26-1.273 3.041-1.91 5.342-1.91 1.8 0 3.214.364 4.24 1.091 1.034.728 1.8 1.846 2.301 3.354l-3.9.868c-.136-.436-.279-.754-.428-.956a2.541 2.541 0 0 0-.907-.78 2.605 2.605 0 0 0-1.199-.273c-1 0-1.768.403-2.3 1.21-.404.597-.605 1.536-.605 2.817 0 1.585.24 2.674.721 3.265.481.585 1.157.878 2.028.878.845 0 1.482-.237 1.91-.712.436-.474.752-1.163.947-2.067Zm5.468-1.296c0-2.333.65-4.15 1.95-5.45 1.3-1.3 3.11-1.95 5.43-1.95 2.38 0 4.212.64 5.499 1.921 1.287 1.274 1.93 3.061 1.93 5.362 0 1.67-.283 3.041-.848 4.114a6.01 6.01 0 0 1-2.437 2.496c-1.06.591-2.382.887-3.968.887-1.612 0-2.948-.257-4.007-.77-1.053-.514-1.907-1.326-2.564-2.438-.656-1.111-.985-2.502-.985-4.172Zm4.417.02c0 1.442.266 2.479.8 3.11.539.63 1.27.945 2.193.945.948 0 1.683-.309 2.203-.926.52-.618.78-1.726.78-3.325 0-1.345-.273-2.326-.82-2.944-.539-.624-1.273-.936-2.202-.936-.89 0-1.606.316-2.145.946-.54.63-.81 1.674-.81 3.13Zm12.83-7.176h6.56c1.293 0 2.337.176 3.13.527.799.35 1.459.854 1.978 1.51.52.657.897 1.42 1.131 2.292.234.87.351 1.793.351 2.768 0 1.528-.175 2.714-.526 3.559a5.89 5.89 0 0 1-1.443 2.115c-.618.566-1.28.943-1.989 1.131-.968.26-1.846.39-2.632.39h-6.56V7.708Zm4.415 3.237v7.809h1.082c.923 0 1.58-.101 1.97-.303.39-.207.695-.565.916-1.072.221-.513.332-1.342.332-2.486 0-1.514-.247-2.55-.741-3.11-.494-.559-1.313-.838-2.457-.838H92.05Zm11.055-3.237h11.835v3.052h-7.409v2.271h6.873v2.915h-6.873v2.817h7.624V22h-12.05V7.708Zm21.106 0h4.417v10.773h6.892V22h-11.309V7.708ZM140.882 15l-3.792-.4c.143-.662.347-1.182.614-1.56.273-.383.663-.714 1.17-.993.364-.202.864-.358 1.501-.468.637-.11 1.326-.166 2.067-.166 1.189 0 2.144.068 2.866.205.721.13 1.322.406 1.803.828.338.293.605.709.8 1.248a4.45 4.45 0 0 1 .292 1.53v4.573c0 .487.029.87.088 1.15.065.273.201.624.409 1.053h-3.724a3.923 3.923 0 0 1-.292-.604 4.708 4.708 0 0 1-.137-.663c-.52.5-1.036.858-1.55 1.072-.702.286-1.517.429-2.447.429-1.234 0-2.174-.286-2.817-.858-.637-.572-.955-1.277-.955-2.115 0-.787.23-1.433.692-1.94.461-.507 1.313-.884 2.554-1.131 1.488-.3 2.453-.507 2.895-.624.442-.124.91-.283 1.404-.478 0-.487-.101-.829-.302-1.023-.202-.195-.556-.293-1.063-.293-.65 0-1.137.104-1.462.312-.253.162-.458.468-.614.916Zm3.441 2.087c-.546.195-1.114.367-1.706.516-.806.215-1.316.426-1.53.634-.221.214-.332.458-.332.731 0 .312.107.569.322.77.221.195.543.293.965.293a2.44 2.44 0 0 0 1.228-.322c.384-.214.653-.474.809-.78.163-.312.244-.715.244-1.209v-.633Zm6.278-9.379h4.007v4.953a3.94 3.94 0 0 1 1.345-.936 4.378 4.378 0 0 1 1.677-.312c1.261 0 2.304.455 3.13 1.365.825.903 1.238 2.203 1.238 3.9 0 1.13-.189 2.128-.566 2.992-.377.858-.9 1.501-1.569 1.93a4.034 4.034 0 0 1-2.213.634c-.696 0-1.333-.15-1.911-.449-.435-.233-.91-.672-1.423-1.316V22h-3.715V7.708Zm3.978 9.086c0 .89.166 1.537.497 1.94.338.397.764.595 1.277.595.475 0 .871-.195 1.19-.585.324-.396.487-1.06.487-1.989 0-.819-.159-1.42-.478-1.803-.312-.384-.692-.575-1.14-.575-.54 0-.982.2-1.326.604-.338.396-.507 1-.507 1.813Zm8.618 2.34 3.938-.37c.163.467.39.802.683 1.003.292.202.682.303 1.17.303.532 0 .945-.114 1.238-.341.227-.17.341-.38.341-.634 0-.286-.15-.507-.449-.663-.214-.11-.783-.247-1.706-.41-1.377-.24-2.336-.46-2.876-.662a3.109 3.109 0 0 1-1.355-1.043 2.714 2.714 0 0 1-.546-1.668c0-.682.199-1.27.595-1.764.397-.494.943-.861 1.638-1.102.695-.247 1.628-.37 2.798-.37 1.235 0 2.145.094 2.73.283.591.188 1.082.48 1.472.877.396.396.724.933.984 1.608l-3.763.37c-.097-.33-.26-.574-.487-.73-.312-.208-.689-.312-1.131-.312-.449 0-.777.081-.985.243-.201.156-.302.348-.302.576 0 .253.13.445.39.575.26.13.825.247 1.696.35 1.32.15 2.301.358 2.944.625.644.266 1.135.646 1.472 1.14.345.494.517 1.037.517 1.628 0 .598-.182 1.18-.546 1.745-.357.566-.926 1.018-1.706 1.356-.773.331-1.829.497-3.168.497-1.891 0-3.24-.27-4.046-.81-.799-.539-1.313-1.306-1.54-2.3Z" fill="#F5F5F5"/></svg>
