<svg width="110" height="43" viewBox="0 0 110 43" fill="none" xmlns="http://www.w3.org/2000/svg"><path fill-rule="evenodd" clip-rule="evenodd" d="m15.57 16.54 9.706 23.26c.087.208.128.433.12.66 0 .541-.168.965-.478 1.295-.31.33-.739.495-1.287.495-.36-.005-.71-.12-1.002-.33-.31-.212-.525-.518-.692-.872L12.71 18.284 9.323 26.65h1.646c.46.002.902.184 1.228.507.326.322.51.758.513 1.213v.047a1.72 1.72 0 0 1-.513 1.214 1.76 1.76 0 0 1-1.228.506H7.893L3.458 41.048c-.167.354-.382.66-.692.872a1.75 1.75 0 0 1-1.001.33c-.549 0-.978-.165-1.288-.495-.31-.33-.477-.754-.477-1.296a2.01 2.01 0 0 1 .12-.66l4.03-9.662H2.431a1.761 1.761 0 0 1-1.228-.506 1.72 1.72 0 0 1-.513-1.213v-.024a1.72 1.72 0 0 1 .513-1.214 1.761 1.761 0 0 1 1.228-.506h3.195L9.848 16.54c.548-1.202 1.36-1.791 2.432-1.791h.859c1.073 0 1.883.59 2.432 1.79ZM54.273 39.8l-9.706-23.26c-.548-1.2-1.359-1.79-2.432-1.79h-.858c-1.073 0-1.884.59-2.432 1.79l-4.22 10.134h-3.196a1.758 1.758 0 0 0-1.228.506 1.72 1.72 0 0 0-.513 1.214v.024c.003.455.187.89.513 1.213.326.322.767.504 1.228.506h1.717l-4.03 9.662a2.022 2.022 0 0 0-.12.66c0 .542.168.966.478 1.296.31.33.739.495 1.287.495.36-.005.71-.12 1.002-.33.31-.212.524-.518.691-.872l4.435-10.91h3.053c.46-.003.902-.185 1.228-.507a1.72 1.72 0 0 0 .512-1.214v-.047a1.72 1.72 0 0 0-.512-1.213 1.761 1.761 0 0 0-1.228-.507h-1.646l3.41-8.366 9.228 22.764c.167.354.381.66.692.872.29.21.64.325 1.001.33.549 0 .978-.165 1.288-.495.31-.33.477-.754.477-1.296a1.547 1.547 0 0 0-.12-.66Zm-2.194-22.6 9.705 23.259c.548 1.202 1.36 1.79 2.432 1.79h.858c1.074 0 1.884-.588 2.433-1.79l9.705-23.258c.076-.212.117-.435.12-.66 0-.542-.168-.966-.478-1.296-.31-.33-.739-.495-1.287-.495-.36.005-.71.12-1.002.33-.31.212-.524.518-.691.872l-9.229 22.763-9.228-22.763c-.166-.354-.381-.66-.691-.872a1.753 1.753 0 0 0-1.002-.33c-.548 0-.977.165-1.287.495-.31.33-.477.754-.477 1.296.003.225.043.448.12.66Zm28.997 23.77c.086.214.215.41.38.573a1.559 1.559 0 0 0 1.264.495h15.76a1.694 1.694 0 0 0 1.192-.471 1.492 1.492 0 0 0 .501-1.155 1.569 1.569 0 0 0-.5-1.178 1.566 1.566 0 0 0-1.193-.495H84.53v-8.625h12.543a1.694 1.694 0 0 0 1.193-.471 1.499 1.499 0 0 0 .5-1.155 1.605 1.605 0 0 0-.5-1.178 1.567 1.567 0 0 0-1.193-.495H84.531v-8.577h13.95a1.694 1.694 0 0 0 1.192-.472 1.49 1.49 0 0 0 .5-1.154 1.57 1.57 0 0 0-.5-1.179 1.567 1.567 0 0 0-1.193-.494H82.72a1.673 1.673 0 0 0-1.264.518c-.33.343-.51.8-.5 1.273v23.564c-.007.231.034.46.12.675Z" fill="url(#a)"/><mask id="c" style="mask-type:alpha" maskUnits="userSpaceOnUse" x="0" y="14" width="101" height="29"><path fill-rule="evenodd" clip-rule="evenodd" d="m15.57 16.54 9.706 23.26c.087.208.128.433.12.66 0 .541-.168.965-.478 1.295-.31.33-.739.495-1.287.495-.36-.005-.71-.12-1.002-.33-.31-.212-.525-.518-.692-.872L12.71 18.284 9.323 26.65h1.646c.46.002.902.184 1.228.507.326.322.51.758.513 1.213v.047a1.72 1.72 0 0 1-.513 1.214 1.76 1.76 0 0 1-1.228.506H7.893L3.458 41.048c-.167.354-.382.66-.692.872a1.75 1.75 0 0 1-1.001.33c-.549 0-.978-.165-1.288-.495-.31-.33-.477-.754-.477-1.296a2.01 2.01 0 0 1 .12-.66l4.03-9.662H2.431a1.761 1.761 0 0 1-1.228-.506 1.72 1.72 0 0 1-.513-1.213v-.024a1.72 1.72 0 0 1 .513-1.214 1.761 1.761 0 0 1 1.228-.506h3.195L9.848 16.54c.548-1.202 1.36-1.791 2.432-1.791h.859c1.073 0 1.883.59 2.432 1.79ZM54.273 39.8l-9.706-23.26c-.548-1.2-1.359-1.79-2.432-1.79h-.858c-1.073 0-1.884.59-2.432 1.79l-4.22 10.134h-3.196a1.758 1.758 0 0 0-1.228.506 1.72 1.72 0 0 0-.513 1.214v.024c.003.455.187.89.513 1.213.326.322.767.504 1.228.506h1.717l-4.03 9.662a2.022 2.022 0 0 0-.12.66c0 .542.168.966.478 1.296.31.33.739.495 1.287.495.36-.005.71-.12 1.002-.33.31-.212.524-.518.691-.872l4.435-10.91h3.053c.46-.003.902-.185 1.228-.507a1.72 1.72 0 0 0 .512-1.214v-.047a1.72 1.72 0 0 0-.512-1.213 1.761 1.761 0 0 0-1.228-.507h-1.646l3.41-8.366 9.228 22.764c.167.354.381.66.692.872.29.21.64.325 1.001.33.549 0 .978-.165 1.288-.495.31-.33.477-.754.477-1.296a1.547 1.547 0 0 0-.12-.66Zm-2.194-22.6 9.705 23.259c.548 1.202 1.36 1.79 2.432 1.79h.858c1.074 0 1.884-.588 2.433-1.79l9.705-23.258c.076-.212.117-.435.12-.66 0-.542-.168-.966-.478-1.296-.31-.33-.739-.495-1.287-.495-.36.005-.71.12-1.002.33-.31.212-.524.518-.691.872l-9.229 22.763-9.228-22.763c-.166-.354-.381-.66-.691-.872a1.753 1.753 0 0 0-1.002-.33c-.548 0-.977.165-1.287.495-.31.33-.477.754-.477 1.296.003.225.043.448.12.66Zm28.997 23.77c.086.214.215.41.38.573a1.559 1.559 0 0 0 1.264.495h15.76a1.694 1.694 0 0 0 1.192-.471 1.492 1.492 0 0 0 .501-1.155 1.569 1.569 0 0 0-.5-1.178 1.566 1.566 0 0 0-1.193-.495H84.53v-8.625h12.543a1.694 1.694 0 0 0 1.193-.471 1.499 1.499 0 0 0 .5-1.155 1.605 1.605 0 0 0-.5-1.178 1.567 1.567 0 0 0-1.193-.495H84.531v-8.577h13.95a1.694 1.694 0 0 0 1.192-.472 1.49 1.49 0 0 0 .5-1.154 1.57 1.57 0 0 0-.5-1.179 1.567 1.567 0 0 0-1.193-.494H82.72a1.673 1.673 0 0 0-1.264.518c-.33.343-.51.8-.5 1.273v23.564c-.007.231.034.46.12.675Z" fill="url(#b)"/></mask><g mask="url(#c)"><path d="M95.138 14H83c5.738 1.143 10.483 3.81 12.138 5H99l-3.862-5Z" fill="#1B1B1B" fill-opacity=".46" style="mix-blend-mode:multiply"/></g><path d="M87.06 8.7c.058-.378 3.21-7.127 12.069-6.565 8.858.562 6.837 7.77 6.607 10.466-.146 1.719-.342 3.61-.383 4.02h.003c-.013.114-.013.106-.003 0-.732.118-2.078-.428-2.292.012-.149-1.022-.457-2.377-.851-4.817-.39-1.127-1.133.958-.793 2.192C96.623 11.578 89.871 9.41 87.06 8.7Z" fill="url(#d)"/><mask id="f" style="mask-type:alpha" maskUnits="userSpaceOnUse" x="87" y="2" width="20" height="15"><path d="M87.058 8.7c.058-.378 3.21-7.127 12.069-6.565 8.858.562 6.837 7.77 6.607 10.466-.146 1.719-.342 3.61-.383 4.02h.003c-.013.114-.013.106-.003 0-.732.118-2.078-.428-2.292.012-.149-1.022-.457-2.377-.851-4.817-.39-1.127-1.133.958-.793 2.192-4.794-2.43-11.546-4.598-14.357-5.307Z" fill="url(#e)"/></mask><g mask="url(#f)"><g filter="url(#g)"><path d="M101.09 6.514c-4.18-1.418-6.47 1.784-7.092 3.563l-.39.389c1.863.673 6.025 2.291 7.759 3.382-.192-.878.191-1.93.369-2.241.179-.312.526-.024.583.716.048.571.451 2.593.646 3.533l.7-.334c.403-2.195.452-7.07-2.575-9.008Z" fill="url(#h)"/></g><g filter="url(#i)"><circle cx="94.493" cy="3.073" r="3.655" transform="rotate(8.71 94.493 3.073)" fill="#FFBCBC"/></g><g filter="url(#j)"><circle cx="94.492" cy="3.073" r="2.058" transform="rotate(8.71 94.492 3.073)" fill="#FFBDBD"/></g><g filter="url(#k)"><path d="M90.622 4.977c2.97-3.025 8.313-2.893 10.613-2.449-4.713-1.795-7.447.15-8.329.508-.881.358-4.155 2.322-6.014 4.14-1.859 1.817-.186 2.538.63 2.33.814-.21 10.036 2.639 13.201 3.747-.835-.983-5.485-4.045-7.476-4.393-1.992-.349-4.773-1.123-2.625-3.883Z" fill="#E24646"/></g><g filter="url(#l)"><path d="M103.229 15.33c.023-.147-.599-2.052-.913-2.986.072 1.385.233 4.236.306 4.559.092.404.501.041.715-.044.214-.086.842-.403 1.032-.492.153-.07.942-.21 1.317-.27a4.511 4.511 0 0 0-.232-.875c-.327-.333-1.737-.147-2.225.108Z" fill="#961F1E"/></g></g><path d="M86.004 8.628c-1.929.532-2.587 3.895-2.319 5.134.243 1.165 1.124.576 6.97 1.657 6.787 1.309 7.67 3.363 9.474 3.454 1.805.091 2.025-3.907 1.582-4.623-.712-1.149-3.302-2.505-6.44-3.558-3.14-1.053-7.129-2.681-9.267-2.064Z" fill="#DAE5EF"/><g opacity=".5" filter="url(#m)"><path d="M86.495 9.27c-1.472.406-1.973 2.972-1.769 3.916.185.89 1.285.592 5.745 1.417 5.178.998 5.851 2.565 7.228 2.635 1.377.07 1.545-2.98 1.207-3.527-.543-.876-2.52-1.91-4.914-2.714-2.395-.804-5.865-2.198-7.497-1.727Z" fill="url(#n)"/></g><path d="M106.808 18.054a2.358 2.358 0 1 1-4.662-.715 2.358 2.358 0 0 1 4.662.715Z" fill="url(#o)"/><mask id="r" style="mask-type:alpha" maskUnits="userSpaceOnUse" x="102" y="15" width="5" height="6"><path d="M106.806 18.054a2.358 2.358 0 1 1-4.662-.715 2.358 2.358 0 0 1 4.662.715Z" fill="url(#p)"/></mask><g filter="url(#q)" mask="url(#r)"><path d="M107.008 16.23c-3.576-.858-5.226 1.591-4.299 3.718-.387-.68-1.126-2.278-.978-3.244.185-1.206 1.439-2.501 5.277-.474Z" fill="#BBCFE3"/></g><path d="M94.847 7.492c4.477 1 6.255 3.927 6.509 5.28.377-1.71.683-1.287.826-1.048-.046-.44-.078-4.385-2.825-5.528 1.966 1.682 2.267 4.917 1.884 4.555-.382-.362-1.007-2.653-6.394-3.259Z" fill="url(#s)"/><path d="M103.897 7.596c-.242-2.662-1.938-4.594-2.903-5.215a8.87 8.87 0 0 1 1.746.562c.551.75 1.536 2.708 1.157 4.653Z" fill="url(#t)"/><path d="M94.166 3.85c.4-.244 1.504-.699 2.71-.565M92.97 4.74c.219-.183.162-.142.437-.335" stroke="url(#u)" stroke-width="1.449" stroke-linecap="round"/><mask id="v" style="mask-type:alpha" maskUnits="userSpaceOnUse" x="83" y="8" width="19" height="11"><path d="M86.002 8.628c-1.929.533-2.587 3.896-2.319 5.134.243 1.165 1.124.576 6.97 1.657 6.787 1.31 7.67 3.363 9.474 3.454 1.805.092 2.025-3.907 1.582-4.622-.712-1.15-3.302-2.505-6.44-3.558-3.14-1.054-7.128-2.682-9.267-2.065Z" fill="#DAE5EF"/></mask><g mask="url(#v)"><g filter="url(#w)"><path d="M95.115 10.47c.24.037 5.536.216 6.611 3.318 1.075 3.103-1.147 5.76-1.753 5.852-.472.07-7.012-1.963-10.457-3.063 3.324 1.038 9.197 1.927 9.957.025.974-2.437-.583-4.946-4.358-6.131Z" fill="#ACC6DF"/></g><g filter="url(#x)"><ellipse cx="88.871" cy="11.876" rx="3.796" ry="2.142" transform="rotate(8.71 88.871 11.876)" fill="url(#y)"/></g><path d="M88.066 10.732c1.416-.344 8.094 1.693 11.02 4.081" stroke="url(#z)" stroke-width="4.346" stroke-linecap="round"/></g><g filter="url(#A)"><circle cx="105.261" cy="18.503" r=".367" transform="rotate(8.71 105.261 18.503)" fill="#FFFBFB"/></g><defs><filter id="g" x="87.813" y=".367" width="21.843" height="21.283" filterUnits="userSpaceOnUse" color-interpolation-filters="sRGB"><feFlood flood-opacity="0" result="BackgroundImageFix"/><feBlend in="SourceGraphic" in2="BackgroundImageFix" result="shape"/><feGaussianBlur stdDeviation="2.897" result="effect1_foregroundBlur_3701_21387"/></filter><filter id="i" x="79.248" y="-12.173" width="30.49" height="30.491" filterUnits="userSpaceOnUse" color-interpolation-filters="sRGB"><feFlood flood-opacity="0" result="BackgroundImageFix"/><feBlend in="SourceGraphic" in2="BackgroundImageFix" result="shape"/><feGaussianBlur stdDeviation="5.795" result="effect1_foregroundBlur_3701_21387"/></filter><filter id="j" x="66.357" y="-25.062" width="56.27" height="56.27" filterUnits="userSpaceOnUse" color-interpolation-filters="sRGB"><feFlood flood-opacity="0" result="BackgroundImageFix"/><feBlend in="SourceGraphic" in2="BackgroundImageFix" result="shape"/><feGaussianBlur stdDeviation="13.038" result="effect1_foregroundBlur_3701_21387"/></filter><filter id="k" x="83.151" y="-1.119" width="20.982" height="17.27" filterUnits="userSpaceOnUse" color-interpolation-filters="sRGB"><feFlood flood-opacity="0" result="BackgroundImageFix"/><feBlend in="SourceGraphic" in2="BackgroundImageFix" result="shape"/><feGaussianBlur stdDeviation="1.449" result="effect1_foregroundBlur_3701_21387"/></filter><filter id="l" x="96.522" y="6.549" width="14.959" height="16.335" filterUnits="userSpaceOnUse" color-interpolation-filters="sRGB"><feFlood flood-opacity="0" result="BackgroundImageFix"/><feBlend in="SourceGraphic" in2="BackgroundImageFix" result="shape"/><feGaussianBlur stdDeviation="2.897" result="effect1_foregroundBlur_3701_21387"/></filter><filter id="m" x="83.233" y="7.726" width="17.27" height="10.962" filterUnits="userSpaceOnUse" color-interpolation-filters="sRGB"><feFlood flood-opacity="0" result="BackgroundImageFix"/><feBlend in="SourceGraphic" in2="BackgroundImageFix" result="shape"/><feGaussianBlur stdDeviation=".724" result="effect1_foregroundBlur_3701_21387"/></filter><filter id="q" x="98.814" y="12.274" width="11.092" height="10.572" filterUnits="userSpaceOnUse" color-interpolation-filters="sRGB"><feFlood flood-opacity="0" result="BackgroundImageFix"/><feBlend in="SourceGraphic" in2="BackgroundImageFix" result="shape"/><feGaussianBlur stdDeviation="1.449" result="effect1_foregroundBlur_3701_21387"/></filter><filter id="w" x="83.471" y="4.676" width="24.34" height="20.76" filterUnits="userSpaceOnUse" color-interpolation-filters="sRGB"><feFlood flood-opacity="0" result="BackgroundImageFix"/><feBlend in="SourceGraphic" in2="BackgroundImageFix" result="shape"/><feGaussianBlur stdDeviation="2.897" result="effect1_foregroundBlur_3701_21387"/></filter><filter id="x" x="82.208" y="6.783" width="13.328" height="10.184" filterUnits="userSpaceOnUse" color-interpolation-filters="sRGB"><feFlood flood-opacity="0" result="BackgroundImageFix"/><feBlend in="SourceGraphic" in2="BackgroundImageFix" result="shape"/><feGaussianBlur stdDeviation="1.449" result="effect1_foregroundBlur_3701_21387"/></filter><filter id="A" x="101.995" y="15.238" width="6.531" height="6.53" filterUnits="userSpaceOnUse" color-interpolation-filters="sRGB"><feFlood flood-opacity="0" result="BackgroundImageFix"/><feBlend in="SourceGraphic" in2="BackgroundImageFix" result="shape"/><feGaussianBlur stdDeviation="1.449" result="effect1_foregroundBlur_3701_21387"/></filter><radialGradient id="d" cx="0" cy="0" r="1" gradientUnits="userSpaceOnUse" gradientTransform="matrix(4.5831 10.25792 -14.34413 6.40875 96.055 3.54)"><stop stop-color="#FF8484"/><stop offset="1" stop-color="#FC4545"/></radialGradient><radialGradient id="e" cx="0" cy="0" r="1" gradientUnits="userSpaceOnUse" gradientTransform="matrix(4.5831 10.25792 -14.34413 6.40875 96.053 3.54)"><stop stop-color="#FF8484"/><stop offset="1" stop-color="#FC4545"/></radialGradient><radialGradient id="h" cx="0" cy="0" r="1" gradientUnits="userSpaceOnUse" gradientTransform="matrix(1.64128 7.6965 -9.1015 1.9409 99.777 5.558)"><stop stop-color="#D03F3E" stop-opacity="0"/><stop offset="1" stop-color="#D03F3E"/></radialGradient><radialGradient id="n" cx="0" cy="0" r="1" gradientUnits="userSpaceOnUse" gradientTransform="matrix(9.4285 5.83557 -12.92623 20.8848 87.235 10.049)"><stop stop-color="#fff"/><stop offset=".877" stop-color="#DAE5EF" stop-opacity="0"/></radialGradient><radialGradient id="o" cx="0" cy="0" r="1" gradientUnits="userSpaceOnUse" gradientTransform="rotate(152.434 50.49 22.194) scale(2.90661)"><stop stop-color="#fff"/><stop offset="1" stop-color="#DAE5EF"/></radialGradient><radialGradient id="p" cx="0" cy="0" r="1" gradientUnits="userSpaceOnUse" gradientTransform="rotate(152.434 50.49 22.193) scale(2.90661)"><stop stop-color="#fff"/><stop offset="1" stop-color="#DAE5EF"/></radialGradient><radialGradient id="y" cx="0" cy="0" r="1" gradientUnits="userSpaceOnUse" gradientTransform="rotate(39.279 27.651 124.51) scale(6.21858 11.0195)"><stop stop-color="#fff"/><stop offset="1" stop-color="#fff" stop-opacity=".22"/></radialGradient><radialGradient id="z" cx="0" cy="0" r="1" gradientUnits="userSpaceOnUse" gradientTransform="matrix(7.61707 3.97737 -26.69395 51.12165 88.426 10.362)"><stop stop-color="#fff"/><stop offset="1" stop-color="#fff" stop-opacity="0"/></radialGradient><linearGradient id="a" x1="126.22" y1="42.25" x2="-.001" y2="41.382" gradientUnits="userSpaceOnUse"><stop stop-color="#B6509E"/><stop offset=".493" stop-color="#7880B0"/><stop offset="1" stop-color="#2EBAC6"/></linearGradient><linearGradient id="b" x1="126.22" y1="42.25" x2="-.001" y2="41.382" gradientUnits="userSpaceOnUse"><stop stop-color="#B6509E"/><stop offset=".493" stop-color="#7880B0"/><stop offset="1" stop-color="#2EBAC6"/></linearGradient><linearGradient id="s" x1="101.682" y1="11.578" x2="95.672" y2="8.766" gradientUnits="userSpaceOnUse"><stop stop-color="#D03F3E"/><stop offset="1" stop-color="#D03F3E" stop-opacity="0"/></linearGradient><linearGradient id="t" x1="101.234" y1="2.417" x2="103.369" y2="8.385" gradientUnits="userSpaceOnUse"><stop stop-color="#D03F3E"/><stop offset="1" stop-color="#D03F3E" stop-opacity="0"/></linearGradient><linearGradient id="u" x1="97.201" y1="3.335" x2="92.439" y2="5.22" gradientUnits="userSpaceOnUse"><stop stop-color="#fff"/><stop offset="1" stop-color="#fff" stop-opacity="0"/></linearGradient></defs></svg>
