<svg xmlns="http://www.w3.org/2000/svg" width="800" height="800"><defs><linearGradient id="b" x1=".907" y1=".227" x2=".163" y2=".853" gradientUnits="objectBoundingBox"><stop offset="0" stop-color="#b6509e"/><stop offset="1" stop-color="#2ebac6"/></linearGradient><clipPath id="a"><path d="M0 0h800v800H0z"/></clipPath><filter id="c" x="251.25" y="182.25" width="298.205" height="434.66" filterUnits="userSpaceOnUse"><feOffset/><feGaussianBlur stdDeviation=".25" result="c"/><feFlood flood-opacity=".161"/><feComposite operator="in" in2="c"/><feComposite in="SourceGraphic"/></filter></defs><g clip-path="url(#a)"><circle cx="388" cy="388" r="388" transform="translate(12 12)" fill="url(#b)"/><g filter="url(#c)"><path d="M531.775 616.161A16.493 16.493 0 0 1 515.3 599.69v-47.959a16.453 16.453 0 1 0-32.907 0v22.76a16.453 16.453 0 0 1-32.907 0v-22.76a16.458 16.458 0 1 0-32.915 0v6.194a16.471 16.471 0 0 1-32.941 0v-6.194a16.458 16.458 0 1 0-32.915 0v22.76a16.453 16.453 0 0 1-32.907 0v-22.76a16.453 16.453 0 1 0-32.907 0v47.959a16.453 16.453 0 1 1-32.901 0V327.966a148.42 148.42 0 0 1 284.092-56.574 147.583 147.583 0 0 1 12.608 56.574 1.07 1.07 0 0 1-.484 1.047V599.69a16.482 16.482 0 0 1-16.441 16.471ZM383.453 371.15c-4.178 0-5.874 1.618-5.874 5.614 0 9.715 10.744 17.613 23.945 17.613 13.183 0 23.91-7.9 23.91-17.613 0-3.988-1.7-5.606-5.865-5.606a50.671 50.671 0 0 0-6.652.675l-.208.035a78.371 78.371 0 0 1-11.185 1.021 78.761 78.761 0 0 1-11.211-1.021 50.2 50.2 0 0 0-6.86-.718Zm71.647-79.966c-14.567 0-26.41 13.564-26.41 30.242 0 16.661 11.843 30.216 26.41 30.216 14.542 0 26.367-13.555 26.367-30.216-.003-16.678-11.828-30.242-26.367-30.242Zm-109.5 0c-14.533 0-26.367 13.564-26.367 30.242 0 16.661 11.834 30.216 26.367 30.216s26.375-13.555 26.375-30.216c-.001-16.678-11.835-30.242-26.375-30.242Z" fill="#fff"/></g></g></svg>
