<svg xmlns="http://www.w3.org/2000/svg" xmlns:xlink="http://www.w3.org/1999/xlink" width="800" height="800" viewBox="0 0 800 800"><defs><linearGradient id="a" x1="0.907" y1="0.227" x2="0.163" y2="0.853" gradientUnits="objectBoundingBox"><stop offset="0" stop-color="#b6509e"/><stop offset="1" stop-color="#2ebac6"/></linearGradient><filter id="b" x="251.25" y="182.25" width="298.205" height="434.66" filterUnits="userSpaceOnUse"><feOffset input="SourceAlpha"/><feGaussianBlur stdDeviation="0.25" result="c"/><feFlood flood-opacity="0.161"/><feComposite operator="in" in2="c"/><feComposite in="SourceGraphic"/></filter><clipPath id="e"><rect width="800" height="800"/></clipPath></defs><g id="d" clip-path="url(#e)"><circle cx="388" cy="388" r="388" transform="translate(12 12)" fill="url(#a)"/><g transform="matrix(1, 0, 0, 1, 0, 0)" filter="url(#b)"><path d="M279.775,433.161A16.493,16.493,0,0,1,263.3,416.69V368.731a16.453,16.453,0,1,0-32.907,0v22.76a16.453,16.453,0,0,1-32.907,0v-22.76a16.458,16.458,0,1,0-32.915,0v6.194a16.471,16.471,0,0,1-32.941,0v-6.194a16.458,16.458,0,1,0-32.915,0v22.76a16.453,16.453,0,0,1-32.907,0v-22.76a16.453,16.453,0,1,0-32.907,0V416.69A16.453,16.453,0,1,1,0,416.69V144.966A148.42,148.42,0,0,1,284.092,88.392,147.583,147.583,0,0,1,296.7,144.966a1.07,1.07,0,0,1-.484,1.047V416.69A16.482,16.482,0,0,1,279.775,433.161ZM131.453,188.15c-4.178,0-5.874,1.618-5.874,5.614,0,9.715,10.744,17.613,23.945,17.613,13.183,0,23.91-7.9,23.91-17.613,0-3.988-1.7-5.606-5.865-5.606a50.671,50.671,0,0,0-6.652.675l-.208.035a78.371,78.371,0,0,1-11.185,1.021,78.761,78.761,0,0,1-11.211-1.021A50.2,50.2,0,0,0,131.453,188.15ZM203.1,108.184c-14.567,0-26.41,13.564-26.41,30.242,0,16.661,11.843,30.216,26.41,30.216,14.542,0,26.367-13.555,26.367-30.216C229.464,121.748,217.639,108.184,203.1,108.184Zm-109.5,0c-14.533,0-26.367,13.564-26.367,30.242,0,16.661,11.834,30.216,26.367,30.216s26.375-13.555,26.375-30.216C119.974,121.748,108.14,108.184,93.6,108.184Z" transform="translate(252 183)" fill="#fff"/></g></g></svg>