<svg width="833" height="139" viewBox="0 0 833 139" fill="none" xmlns="http://www.w3.org/2000/svg"><path d="M764.174 110.231c-17.869 0-33.747-12.947-37.837-30.822H832.43s.57-6.477.57-8.768c0-37.94-30.868-68.813-68.807-68.813-37.939 0-68.806 30.867-68.806 68.813s30.694 68.096 68.806 68.096c38.112 0 60.365-28.077 65.92-48.403h-32.339s-10.285 19.897-33.6 19.897Zm.019-79.91c17.133 0 32.007 11.315 37.101 28.18h-74.202c5.076-16.865 19.956-28.18 37.101-28.18ZM359.33 138.737c-37.939 0-67.699-30.547-67.699-68.096 0-37.549 30.867-68.813 68.806-68.813 37.94 0 68.807 32.083 68.807 68.448v65.05H402.53v-21.709l-1.945-.512c-4.704 11.533-21.748 25.632-41.261 25.632h.006Zm1.107-108.416c-21.427 0-38.867 17.99-38.867 40.109 0 22.118 17.434 39.808 38.867 39.808 21.434 0 38.868-17.856 38.868-39.808 0-21.952-17.434-40.109-38.868-40.109Zm145.036 108.416c-37.94 0-67.7-30.547-67.7-68.096 0-37.549 30.868-68.813 68.807-68.813 37.939 0 68.806 32.083 68.806 68.448v65.05h-26.713v-21.709l-1.946-.512c-4.704 11.533-21.747 25.632-41.261 25.632h.007Zm1.107-108.416c-21.427 0-38.867 17.99-38.867 40.109 0 22.118 17.433 39.808 38.867 39.808 21.434 0 38.867-17.856 38.867-39.808 0-21.952-17.433-40.109-38.867-40.109Zm113.651 104.99L565.402 5.25h29.997l40.186 95.808L675.777 5.25h29.99l-54.822 130.061h-30.714Zm-522.689 3.222c14.919 0 27.014-12.095 27.014-27.015s-12.095-27.014-27.014-27.014c-14.92 0-27.015 12.095-27.015 27.014 0 14.92 12.095 27.015 27.015 27.015Zm70.607 0c14.92 0 27.015-12.095 27.015-27.015s-12.095-27.014-27.015-27.014c-14.919 0-27.014 12.095-27.014 27.014 0 14.92 12.095 27.015 27.014 27.015Z" fill="#9391F7" style="fill:color(display-p3 .5765 .5686 .9686);fill-opacity:1"/><path d="M132.8 0C59.45 0-.02 60.602 0 135.335h33.926c0-56.007 43.917-101.415 98.874-101.415 54.957 0 98.874 45.408 98.874 101.415H265.6C265.613 60.602 206.144 0 132.8 0Z" fill="#9391F7" style="fill:color(display-p3 .5765 .5686 .9686);fill-opacity:1"/></svg>
