<svg width="266" height="139" viewBox="0 0 266 139" fill="none" xmlns="http://www.w3.org/2000/svg"><path d="M97.542 138.533c14.919 0 27.014-12.095 27.014-27.015s-12.095-27.014-27.014-27.014c-14.92 0-27.015 12.095-27.015 27.014 0 14.92 12.095 27.015 27.015 27.015Zm70.607 0c14.92 0 27.015-12.095 27.015-27.015s-12.095-27.014-27.015-27.014c-14.919 0-27.014 12.095-27.014 27.014 0 14.92 12.095 27.015 27.014 27.015Z" fill="#9391F7" style="fill:color(display-p3 .5765 .5686 .9686);fill-opacity:1"/><path d="M132.8 0C59.45 0-.02 60.602 0 135.335h33.926c0-56.007 43.917-101.415 98.874-101.415 54.957 0 98.874 45.408 98.874 101.415H265.6C265.613 60.602 206.144 0 132.8 0Z" fill="#9391F7" style="fill:color(display-p3 .5765 .5686 .9686);fill-opacity:1"/></svg>
