<svg xmlns="http://www.w3.org/2000/svg" xmlns:xlink="http://www.w3.org/1999/xlink" width="71.989" height="20" data-name="Group 13859"><defs><linearGradient id="a" x1="-1.999" x2="1.962" y1="1.034" y2=".112" gradientUnits="objectBoundingBox"><stop offset="0" stop-color="#30bac6"/><stop offset="1" stop-color="#b6509e"/></linearGradient><linearGradient id="b" x1="-4.048" x2="1.181" y1="1.315" y2=".379" xlink:href="#a"/><linearGradient id="c" x1="-1.123" x2="2.834" y1=".926" y2=".004" xlink:href="#a"/><linearGradient id="d" x1="-.051" x2="3.906" y1=".677" y2="-.246" xlink:href="#a"/></defs><g data-name="Group 10477"><g data-name="Aave Logo Colored"><g data-name="Group 4051"><path fill="url(#a)" d="m227.16 18.7-6.974-16.918a1.487 1.487 0 0 1-.086-.48 1.326 1.326 0 0 1 .343-.943 1.2 1.2 0 0 1 .925-.36 1.25 1.25 0 0 1 .72.24 1.526 1.526 0 0 1 .5.634l6.632 16.555L235.848.874a1.525 1.525 0 0 1 .5-.634 1.25 1.25 0 0 1 .72-.24 1.2 1.2 0 0 1 .925.36 1.326 1.326 0 0 1 .343.943 1.487 1.487 0 0 1-.086.48L231.273 18.7a1.876 1.876 0 0 1-1.748 1.3h-.617a1.876 1.876 0 0 1-1.748-1.3z" data-name="Path 2431" transform="translate(-182.76)"/><path fill="url(#b)" d="M342.06 20.149a1.24 1.24 0 0 1-.36-.908V2.1a1.308 1.308 0 0 1 .36-.925 1.19 1.19 0 0 1 .908-.375H354.3a1.125 1.125 0 0 1 .857.36 1.152 1.152 0 0 1 .36.857 1.089 1.089 0 0 1-.36.84 1.2 1.2 0 0 1-.857.343h-10.029v6.238h9.014a1.126 1.126 0 0 1 .857.36 1.18 1.18 0 0 1 .36.857 1.089 1.089 0 0 1-.36.84 1.2 1.2 0 0 1-.857.343h-9.014v6.273H354.3a1.125 1.125 0 0 1 .857.36 1.152 1.152 0 0 1 .36.857 1.089 1.089 0 0 1-.36.84 1.2 1.2 0 0 1-.857.343h-11.332a1.12 1.12 0 0 1-.908-.362z" data-name="Path 2432" transform="translate(-283.523 -.663)"/><path fill="url(#c)" d="M141.964 18.218 134.99 1.3a1.876 1.876 0 0 0-1.748-1.3h-.617a1.876 1.876 0 0 0-1.748 1.3l-3.033 7.369h-2.3a1.258 1.258 0 0 0-1.244 1.254v.017a1.258 1.258 0 0 0 1.251 1.251h1.234l-2.9 7.027a1.487 1.487 0 0 0-.086.48 1.325 1.325 0 0 0 .343.943 1.2 1.2 0 0 0 .925.36 1.25 1.25 0 0 0 .72-.24 1.525 1.525 0 0 0 .5-.634l3.187-7.935h2.193a1.258 1.258 0 0 0 1.251-1.251v-.035a1.258 1.258 0 0 0-1.251-1.251h-1.182l2.45-6.084 6.632 16.555a1.526 1.526 0 0 0 .5.634 1.25 1.25 0 0 0 .72.24 1.2 1.2 0 0 0 .925-.36 1.325 1.325 0 0 0 .343-.943 1.136 1.136 0 0 0-.091-.479z" data-name="Path 2433" transform="translate(-102.962)"/><path fill="url(#d)" d="M20.364 18.218 13.39 1.3A1.876 1.876 0 0 0 11.642 0h-.617a1.876 1.876 0 0 0-1.748 1.3L6.244 8.672h-2.3A1.258 1.258 0 0 0 2.7 9.923v.017a1.258 1.258 0 0 0 1.251 1.251h1.231l-2.9 7.027a1.487 1.487 0 0 0-.086.48 1.325 1.325 0 0 0 .343.943 1.2 1.2 0 0 0 .925.36 1.25 1.25 0 0 0 .72-.24 1.525 1.525 0 0 0 .5-.634l3.187-7.935h2.211a1.258 1.258 0 0 0 1.252-1.252v-.034a1.258 1.258 0 0 0-1.251-1.251H8.9l2.433-6.084 6.632 16.555a1.525 1.525 0 0 0 .5.634 1.25 1.25 0 0 0 .72.24 1.2 1.2 0 0 0 .925-.36 1.325 1.325 0 0 0 .343-.943 1.137 1.137 0 0 0-.089-.479z" data-name="Path 2434" transform="translate(-2.2)"/></g></g></g></svg>
