<svg version="1.1" id="Layer_1" xmlns="http://www.w3.org/2000/svg" x="0" y="0" viewBox="0 0 965.5 1363.8" style="enable-background:new 0 0 965.5 1363.8" xml:space="preserve"><style>.st1{fill:#fff}.st2{fill:#f7a52d}.st3{fill:#020203}</style><path d="M173.2 666.7c-.6 2.1-.9 4.1-.9 6.1 0 2.2.4 4.4 1.2 6.7.8 2.3 2.1 4.8 3.9 7.5 3.7 5.3 9.8 11.2 18.2 17 5.6 3.8 12.3 7.6 19.8 11.3 10.1 4.8 21.7 9.3 34.7 13.4 17.3 5.4 36.9 9.9 58.1 13.3 7.7 1.2 15.6 2.3 23.7 3.2 7.3-7.2 15.9-13 25.5-17.1 9.9-4.2 20.8-6.5 32.1-6.5 17 0 33 5.2 46.1 14.1 4.9 3.3 9.4 7.1 13.5 11.4 17.8-1.4 34.8-3.5 50.8-6.2 30-5.2 56.5-12.7 77.4-21.5 14-5.9 25.5-12.4 33.9-19 4.8-3.8 8.6-7.5 11.4-11.1 3.2-4.1 5.1-7.8 6-11.2.5-1.8.7-3.5.7-5.3 0-2-.3-4-.9-6.1-.6-2.1-1.7-4.3-3.1-6.7-1.6-2.5-3.8-5.3-6.5-8-61.7 38-136.9 60.2-218 60.2-77.5 0-149.7-20.3-209.8-55.3-2.7-1.6-5.4-3.3-8.1-4.9-1.5 1.5-2.8 3-4 4.4-2.9 3.7-4.7 7.1-5.7 10.3z" style="fill:#e53012"/><path class="st1" d="M594.7 629.4c55.2-32.1 98.6-77.5 124.5-130.3 17.3-35.2 26.7-73.7 26.7-114.2s-9.5-79-26.7-114.2c-17.3-35.2-42.3-67.1-73.5-94-25.7-22.2-55.7-41-88.7-55.4-.3-.1-.7-.3-1-.4-46.6-20.2-99.3-31.6-155.2-31.6-72 0-138.7 18.9-193.8 51-55.2 32.1-98.6 77.5-124.5 130.3-17.3 35.2-26.7 73.7-26.7 114.2s9.5 79 26.7 114.2c17.3 35.2 42.3 67.1 73.5 94 62.3 53.8 148.9 87.4 244.9 87.4 71.9 0 138.6-18.9 193.8-51zm-95.9-280.1c9.1-8.7 18.7-14.9 28.3-18.8 9.6-3.9 19.2-5.5 28.1-5.5 8.9 0 17.1 1.6 24.2 3.9 7.2 2.3 13.4 5.3 18.6 8.2 10.3 5.9 16.4 11.6 17.1 12.2 6.4 6 6.6 16.1.6 22.5-6 6.3-16 6.6-22.4.6l-.2-.2c-.2-.2-.6-.5-1.1-1-1.1-.9-2.7-2.1-4.8-3.6-4.2-2.9-10.3-6.3-17.3-8.5-4.6-1.5-9.5-2.4-14.6-2.4s-10.4.9-16.1 3.2c-5.7 2.3-11.8 6.1-18.4 12.4-6.4 6-16.4 5.8-22.5-.6-6.1-6.3-5.9-16.4.5-22.4zm-252.3 7.5c-4.3 0-8.5.7-12.5 1.7-4 1.1-7.8 2.6-11.1 4.3-6.7 3.3-11.7 7.3-13.6 8.9-.5.5-.8.7-.8.7-6.4 6-16.4 5.7-22.4-.6-6-6.4-5.8-16.4.6-22.5.5-.5 4-3.8 10.1-7.9 6.1-4.1 14.7-9.1 25.5-12.5 7.2-2.3 15.4-3.9 24.2-3.9 8.9 0 18.4 1.6 28.1 5.5 9.6 3.9 19.2 10.1 28.3 18.8 6.4 6 6.6 16.1.6 22.5-6 6.4-16.1 6.6-22.5.6-6.6-6.3-12.7-10.1-18.4-12.4-5.7-2.3-11-3.2-16.1-3.2zm129.6 199.9c-8.3 3.5-17.6 5.5-27.1 5.5-14.4 0-27.9-4.4-39-11.9-11.1-7.5-19.9-18.1-25.2-30.6-3.5-8.3-5.5-17.6-5.5-27.1 0-8.8 7.1-15.9 15.9-15.9s15.9 7.1 15.9 15.9c0 7.9 2.4 15.1 6.5 21.2s9.9 10.9 16.7 13.8c4.5 1.9 9.5 3 14.8 3 7.9 0 15.1-2.4 21.2-6.5s10.9-9.9 13.8-16.7c1.7-4.1 2.7-8.6 2.9-13.3-22.2-4-38.3-16.2-38.3-30.7 0-17.7 24.3-32.1 54.3-32.1 30 0 54.3 14.4 54.3 32.1 0 14.4-16.1 26.7-38.3 30.7.3 7.3 2.6 14.1 6.4 19.8 4.1 6.1 9.9 10.9 16.7 13.8 4.5 1.9 9.5 3 14.8 3 7.9 0 15.1-2.4 21.2-6.5s10.9-9.9 13.8-16.7c1.9-4.5 3-9.5 3-14.8 0-8.8 7.1-15.9 15.9-15.9s15.9 7.1 15.9 15.9c0 14.4-4.4 27.9-11.9 39-7.5 11.1-18.1 19.9-30.6 25.2-8.3 3.5-17.6 5.5-27.1 5.5-14.4 0-27.9-4.4-39-11.9-5.6-3.8-10.6-8.3-14.8-13.5-7.7 8.3-16.8 15.2-27.2 19.7z"/><path class="st2" d="M60.3 244.4c18.8-34.4 44.3-65.4 74.9-91.8 22.1-19.1 46.9-35.7 73.8-49.5-4.4-3.8-9.6-8.1-15.6-12.7-19.7-15.3-47-33.7-76.5-45.6-19.7-8-40.3-13-60.1-13-2.1 0-3.9.2-5.5.6-1.5.4-2.8.8-3.9 1.4-2.3 1.2-4.2 2.9-6.3 5.8-1.3 1.9-2.6 4.3-3.8 7.2-1.5 3.9-2.8 8.7-3.7 14.2-1.2 7.3-1.8 15.9-1.8 25.2 0 17.8 2.2 38.2 5.5 58.8 3.4 20.6 7.9 41.3 12.4 59.8 3.7 15.1 7.5 28.7 10.6 39.6zm679.2-3.3c.8-2.7 1.6-5.5 2.4-8.5 6.5-23.6 14.4-55.2 19.5-86.6 3.5-20.9 5.7-41.7 5.7-59.8 0-8-.4-15.5-1.4-22.1-.9-6.6-2.3-12.3-4.1-16.9-1.2-3-2.5-5.5-3.8-7.5-1.8-2.6-3.6-4.3-5.6-5.5-1.1-.7-2.4-1.2-3.9-1.7-1.7-.5-3.7-.8-6.3-.8-19.5 0-39.6 4.8-59 12.5-19.3 7.7-37.8 18.1-53.8 28.8-15.6 10.4-28.8 20.9-38.4 29.1 6.7 3.4 13.3 7 19.7 10.7 54.9 32 99.6 76.2 129 128.3z"/><path class="st1" d="M63.4 1223.9c6.1-4.5 12.9-8.5 20.1-12.1 9.7-4.7 20.5-8.5 31.9-11.3 15.3-3.8 31.9-5.8 49.3-5.8 17.1 0 33.5 2 48.5 5.6 15.1 3.7 28.9 9 40.9 15.8 8 4.6 15.2 9.8 21.4 15.8 1 .9 1.9 1.9 2.8 2.8V1124c-12.3 4.1-25.4 5.9-38.8 5.9-28.2 0-58.1-8-86.8-21.6-28.7-13.7-56.3-33.2-79.5-57.2-2.2-2.3-4.4-4.6-6.5-7-2 3.7-4.2 7.9-6.4 12.6-8.9 19.3-17.8 47-17.8 80 0 15.3 1.9 31.8 6.6 49.3 3.3 12.2 7.9 24.9 14.3 37.9zm664.3 35.5c-5.5-6.7-14.3-13.4-25.6-18.9-7.6-3.6-16.2-6.8-25.7-9.1-12.7-3.1-26.8-4.9-41.6-4.9-14.6 0-28.5 1.7-41.1 4.7-12.5 3-23.6 7.4-32.7 12.6-6 3.4-11.1 7.2-15.2 11.1-5.4 5.2-8.8 10.5-10.5 15.4-.2.6-.4 1.3-.6 1.9v13.1c.3 1 .6 2 1 3.1 1.3 3.2 3.2 6.5 6 9.9 5.5 6.7 14.3 13.4 25.6 18.9 4.9 2.4 10.4 4.5 16.2 6.4v-44.7c0-8.8 7.1-15.9 15.9-15.9s15.9 7.1 15.9 15.9v51.3c6.3.7 12.8 1 19.4 1 6.7 0 13.2-.4 19.4-1v-51.3c0-8.8 7.1-15.9 15.9-15.9s15.9 7.1 15.9 15.9v44.7c8.4-2.7 16-6 22.5-9.7 6-3.4 11.1-7.2 15.2-11.1 5.4-5.2 8.8-10.5 10.5-15.4 1-2.9 1.5-5.6 1.5-8.5 0-3.2-.6-6.3-1.9-9.6-1.3-3.2-3.3-6.6-6-9.9zM904.1 519c-18.9-15.4-45.7-25.3-75.7-25.3-15.4 0-30.5 3-44.2 8.2-13.7 5.2-26.1 12.6-36 21.2-6.6 5.7-12.1 12-16.3 18.5-17.6 28-39.7 53.4-65.4 75.5-6.8 5.8-13.8 11.5-21.1 16.8.8.9 1.6 1.8 2.3 2.7 4.9 6.2 8.8 13.1 11.1 20.6 1.5 5 2.4 10.2 2.4 15.5 0 5.8-1 11.6-2.9 17s-4.5 10.5-7.8 15.3c-6.6 9.5-15.6 17.8-26.4 25.2-7.2 4.9-15.2 9.5-24 13.7-11.7 5.6-24.8 10.6-39 15-18.9 5.9-40 10.7-62.6 14.3-10 1.6-20.4 2.9-31 4 2.9 8.4 4.4 17.4 4.4 26.7 0 17-5.2 33-14.1 46.1-8.9 13.1-21.4 23.6-36.2 29.8-9.9 4.2-20.8 6.5-32.1 6.5-17 0-33-5.2-46.1-14.1-13.1-8.9-23.6-21.4-29.8-36.2-4.2-9.9-6.5-20.8-6.5-32.1 0-10.3 1.9-20.2 5.4-29.3-7.7-1.1-15.2-2.3-22.5-3.6-33.6-6.3-63.3-15.2-87.3-26.6-16-7.6-29.6-16.2-40.3-26.4-6.1-5.8-11.2-12.1-15-19.1-.6-1.1-1.2-2.3-1.7-3.4-15.6 12.7-31 27.8-44.9 45.5-19.8 25-36.6 55.2-46.9 91C47 855.9 43 882.3 43 911.5c0 14 2.2 27.7 6.2 41s9.9 26.1 17.2 38.4c14.7 24.5 35.5 46.5 59 64 15.7 11.7 32.5 21.4 49.4 28.6 22.5 9.6 45 14.7 64.7 14.7 10.7 0 20.6-1.5 29.3-4.4 8.7-2.9 16.2-7.3 22.6-13.2 7-6.4 11.8-13.3 15-20.6 3.2-7.3 4.7-15 4.7-22.9 0-7.1-1.2-14.4-3.8-21.7-2.5-7.3-6.3-14.7-11.4-21.7-10.1-14.1-25.2-26.9-44.9-36-16.2-7.5-28.5-16.6-37.5-26.8s-14.5-21.3-17.3-32c-1.9-7.2-2.6-14.1-2.6-20.5 0-12.3 2.6-22.8 5.1-30.4 2.6-7.6 5.1-12.3 5.4-12.9 4.2-7.7 13.9-10.5 21.6-6.2 7.7 4.2 10.5 13.8 6.3 21.5l-.1.3c-.1.3-.4.8-.7 1.4-.6 1.3-1.5 3.4-2.4 6-1.8 5.2-3.5 12.5-3.5 20.3 0 6.1 1 12.5 3.7 18.8 2.7 6.3 7.2 12.8 14.9 19.2 5.2 4.3 11.8 8.6 20.4 12.6 22.3 10.3 40.5 24.8 53.7 41.5.6-.1 1.2-.1 1.8-.1h172.8c8.6 0 16.7 2.6 23.3 7.1 6.7 4.5 11.9 10.8 15.1 18.3 2.1 5 3.3 10.5 3.3 16.2v211c5.8-4.1 12.1-7.9 18.8-11.1 9.7-4.7 20.5-8.5 31.9-11.3 15.3-3.8 31.9-5.8 49.3-5.8 17.1 0 33.5 2 48.5 5.6 15.1 3.7 28.9 9 40.9 15.8 4.1 2.3 8 4.9 11.7 7.6 15.8-33.6 22-66.1 22-96.7 0-27.8-5.1-54.1-12.8-78.1-7.7-24-18.2-45.6-28.6-63.7-20.9-36-42-58.2-42.3-58.6-.7-.8-1.4-1.6-1.9-2.4-21.2-1.5-43.5-7.7-66.1-19.4-7.8-4-10.9-13.6-6.8-21.4 4-7.8 13.6-10.9 21.4-6.8 22.3 11.5 42.6 16.2 61.3 16.2 11.8 0 22.9-1.9 33.6-5.4 10.6-3.5 20.7-8.6 30.2-15 19-12.8 35.6-31.2 48.6-52.1 8.7-13.9 15.8-29 21-44.1 7-20.2 10.6-40.6 10.6-58.6 0-9.8-1.1-18.9-3.2-26.9-32.8-1.1-62.9-11.8-86.1-29.3-7-5.3-8.4-15.2-3.1-22.2 5.3-7 15.2-8.4 22.2-3.1 18.7 14.1 44.3 23 72.8 23 22.5 0 43.2-5.6 60.2-14.9 16.9-9.3 30-22.3 37.5-36.8 5-9.7 7.7-20.1 7.7-31.1s-2.7-21.3-7.7-31.1c-4.9-9.6-12.4-18.6-21.8-26.3z"/><path class="st2" d="M496.1 1004.3c-1-.4-2-.6-3.2-.6H337.1c3.9 10.8 5.9 22 5.9 33.3 0 12.1-2.4 24.3-7.4 35.7-5 11.4-12.6 22-22.6 31.2-.3.3-.7.6-1.1.9V1322c0 1.8.5 3.2 1.4 4.6.9 1.3 2.2 2.4 3.6 3 1 .4 2 .6 3.2.6h172.8c1.8 0 3.2-.5 4.6-1.4 1.3-.9 2.4-2.2 3-3.6.4-1 .6-2 .6-3.2v-310.2c0-1.8-.5-3.2-1.4-4.6-.9-1.2-2.2-2.3-3.6-2.9z"/><path class="st1" d="M257.7 1259.4c-5.5-6.7-14.3-13.4-25.6-18.9-7.6-3.6-16.2-6.8-25.7-9.1-12.7-3.1-26.8-4.9-41.6-4.9-14.6 0-28.5 1.7-41.1 4.7-12.5 3-23.6 7.4-32.7 12.6-6 3.4-11.1 7.2-15.2 11.1-5.4 5.2-8.8 10.5-10.5 15.4-1 2.9-1.5 5.6-1.5 8.5 0 3.2.6 6.3 1.9 9.6 1.3 3.2 3.2 6.5 6 9.9 5.5 6.7 14.3 13.4 25.6 18.9 4.9 2.4 10.4 4.5 16.2 6.4v-44.7c0-8.8 7.1-15.9 15.9-15.9s15.9 7.1 15.9 15.9v51.3c6.3.7 12.8 1 19.4 1 6.7 0 13.1-.4 19.4-1v-51.3c0-8.8 7.1-15.9 15.9-15.9s15.9 7.1 15.9 15.9v44.7c8.4-2.7 16-6 22.5-9.7 6-3.4 11.1-7.2 15.2-11.1 5.4-5.2 8.8-10.5 10.5-15.4 1-2.9 1.5-5.6 1.5-8.5 0-3.2-.6-6.3-1.9-9.6-1.3-3.2-3.2-6.6-6-9.9z"/><path class="st2" d="M409.2 757.2c-6.1-2.6-12.7-4-19.7-4-10.5 0-20.2 3.2-28.3 8.6-8.1 5.5-14.5 13.2-18.4 22.3-2.6 6.1-4 12.7-4 19.7 0 10.5 3.2 20.2 8.6 28.3 5.5 8.1 13.2 14.5 22.3 18.4 2.8 1.2 5.7 2.1 8.8 2.8V828c-7.2-3.9-12.1-11.5-12.1-20.2 0-12.7 10.3-23 23-23s23 10.3 23 23c0 8.8-4.9 16.4-12.1 20.2v25.3c6.3-1.4 12.2-3.9 17.4-7.4 8.1-5.5 14.5-13.2 18.4-22.3 2.6-6.1 4-12.7 4-19.7 0-10.5-3.2-20.2-8.6-28.3-5.4-8.1-13.2-14.5-22.3-18.4z"/><path class="st3" d="M303.4 371.8c6-6.4 5.8-16.4-.6-22.5-9.1-8.7-18.7-14.9-28.3-18.8-9.6-3.9-19.2-5.5-28.1-5.5-8.9 0-17.1 1.6-24.2 3.9-10.8 3.4-19.4 8.4-25.5 12.5-6.1 4.1-9.6 7.5-10.1 7.9-6.4 6-6.6 16.1-.6 22.5 6 6.3 16 6.6 22.4.6 0 0 .3-.3.8-.7 1.9-1.6 6.9-5.5 13.6-8.9 3.4-1.7 7.1-3.2 11.1-4.3 4-1.1 8.2-1.7 12.5-1.7 5.1 0 10.4.9 16.1 3.2 5.7 2.3 11.8 6.1 18.4 12.4 6.4 6 16.5 5.7 22.5-.6zm217.3.5c6.6-6.3 12.7-10.1 18.4-12.4 5.7-2.3 11-3.2 16.1-3.2 5.1 0 10 .9 14.6 2.4 6.9 2.2 13 5.6 17.3 8.5 2.1 1.4 3.8 2.7 4.8 3.6.5.4.9.8 1.1 1l.2.2c6.4 6 16.4 5.7 22.4-.6 6-6.4 5.8-16.4-.6-22.5-.6-.6-6.7-6.4-17.1-12.2-5.2-2.9-11.4-5.9-18.6-8.2-7.2-2.3-15.4-3.9-24.2-3.9-8.9 0-18.4 1.6-28.1 5.5-9.6 3.9-19.2 10.1-28.3 18.8-6.4 6-6.6 16.1-.6 22.5 6.2 6.3 16.2 6.6 22.6.5zM417.5 550.2c11.1 7.5 24.6 11.9 39 11.9 9.6 0 18.8-1.9 27.1-5.5 12.5-5.3 23.1-14.1 30.6-25.2s11.9-24.6 11.9-39c0-8.8-7.1-15.9-15.9-15.9s-15.9 7.1-15.9 15.9c0 5.3-1.1 10.2-3 14.8-2.9 6.8-7.7 12.6-13.8 16.7-6.1 4.1-13.3 6.5-21.2 6.5-5.3 0-10.2-1.1-14.8-3-6.8-2.9-12.6-7.7-16.7-13.8-3.8-5.7-6.1-12.4-6.4-19.8 22.2-4 38.3-16.2 38.3-30.7 0-17.7-24.3-32.1-54.3-32.1-30 0-54.3 14.4-54.3 32.1 0 14.4 16.1 26.6 38.3 30.7-.2 4.7-1.2 9.2-2.9 13.3-2.9 6.8-7.7 12.6-13.8 16.7-6.1 4.1-13.3 6.5-21.2 6.5-5.3 0-10.2-1.1-14.8-3-6.8-2.9-12.6-7.7-16.7-13.8-4.1-6.1-6.5-13.3-6.5-21.2 0-8.8-7.1-15.9-15.9-15.9s-15.9 7.1-15.9 15.9c0 9.6 1.9 18.8 5.5 27.1 5.3 12.5 14.1 23.1 25.2 30.6s24.6 11.9 39 11.9c9.6 0 18.8-1.9 27.1-5.5 10.5-4.4 19.5-11.3 26.6-19.9 4.9 5.4 9.9 10 15.4 13.7z"/><path class="st3" d="M954.2 530.7c-10.9-20.9-28.6-38-50.4-50-21.8-12-47.7-18.8-75.5-18.8-23.4 0-45.8 5.4-65.6 14.5 9.7-29 14.9-59.8 14.9-91.5 0-35.2-6.4-69.2-18.3-101l.9-2.1c.1-.3 9.6-28.9 19.2-67.5 4.8-19.3 9.6-41.1 13.2-63.1 3.6-22.1 6.1-44.3 6.1-64.9 0-10.7-.7-20.9-2.3-30.5-1.2-7.2-3-14.1-5.5-20.5-1.9-4.8-4.3-9.5-7.2-13.7-4.4-6.4-10.3-12-17.5-15.8-3.6-1.9-7.5-3.3-11.6-4.3-4.1-.9-8.3-1.4-12.7-1.4-25.2 0-49.6 6.3-72 15.3-33.6 13.6-62.9 33.5-84.2 50-11.6 9-20.7 17-26.7 22.5-48-19.5-101.6-30.3-158.2-30.3-57.3 0-111.7 11.1-160.4 31C231 79.9 212.8 64 189.1 48c-17.5-11.8-38-23.7-60.4-32.7C106.4 6.3 82 0 56.8 0c-5.1 0-10.2.6-14.9 2-4.2 1.1-8.1 2.9-11.7 5-6.3 3.8-11.5 9-15.4 14.8-3 4.4-5.3 9.1-7.2 14.1-2.8 7.5-4.7 15.4-5.9 23.9C.5 68.2 0 77.1 0 86.3c0 20.6 2.5 42.9 6.1 64.9 5.5 33.1 13.5 65.5 20.3 89.9 6.7 24.3 12.1 40.5 12.2 40.7.6 1.8 1.5 3.4 2.7 4.9-11.2 31-17.3 64-17.3 98.2 0 45.5 10.7 88.9 30 128.2 23.1 47.1 58.4 88.3 102.3 120.8-2.5 2.9-4.8 6-6.8 9.2-2.8 4.4-5 9.1-6.5 14.1 0 .1-.1.3-.1.4-31 22.1-63 52.9-87.7 93.4-13 21.3-24 45.3-31.7 72-7.7 26.7-12.1 56.2-12.1 88.3 0 30.8 8.5 59.9 22.5 86 3.6 6.8 7.7 13.4 12 19.8-3.9 6.1-9.1 14.9-14.2 26.1-10.3 22.4-20.7 54.5-20.7 93.3 0 17.9 2.2 37.3 7.7 57.6 4.7 17.6 11.9 35.8 21.9 54.5-1.6 2.8-3.1 5.7-4.3 8.7-2.6 6.7-4.1 13.9-4.1 21.2 0 6.5 1.2 13 3.3 19 3.7 10.6 10.3 19.9 18.5 27.8 6.2 6 13.4 11.2 21.4 15.8 12 6.8 25.8 12.2 40.9 15.8 15.1 3.7 31.4 5.6 48.5 5.6 17.4 0 34-2.1 49.3-5.8 11.5-2.8 22.2-6.6 31.9-11.3 12.7-6.1 23.8-13.8 32.5-23 .1 5.5 1.2 10.7 3.3 15.5 3.2 7.5 8.4 13.8 15.1 18.3 6.6 4.5 14.8 7.1 23.3 7.1H493c5.7 0 11.2-1.2 16.2-3.3 7.5-3.2 13.8-8.4 18.3-15.1 2.4-3.6 4.3-7.6 5.5-12 3.8 2.9 7.9 5.5 12.2 8 12 6.8 25.8 12.2 40.9 15.8 15.1 3.7 31.4 5.6 48.5 5.6 17.4 0 34-2.1 49.3-5.8 11.5-2.8 22.2-6.6 31.9-11.3 14.6-7.1 27.1-16.1 36.3-27.3 4.6-5.6 8.4-11.8 11-18.4 2.6-6.7 4.1-13.9 4.1-21.2 0-6.5-1.2-13-3.3-19-1.4-3.9-3.1-7.6-5.2-11.1 22-41.8 30.7-83.2 30.6-121.6 0-31.9-5.9-61.8-14.6-88.5-13.1-40.1-32.4-73.3-48.6-96.6-5.6-8.1-10.8-14.9-15.2-20.5 3.2-.7 6.3-1.5 9.4-2.4 21.6-6.3 40.9-17.5 57.7-31.7 25.2-21.3 44.8-49.4 58.3-79.2 6.7-14.9 11.9-30.2 15.5-45.5 3.5-15.3 5.4-30.4 5.4-45 0-10-.9-19.6-2.8-28.9 26.5-4.3 50.5-15 69.4-30.3 12.5-10.2 22.8-22.4 30.1-36.3 7.2-13.9 11.3-29.5 11.3-45.7.3-15.8-3.8-31.4-11-45.3zM629.4 73.1c16-10.6 34.4-21.1 53.8-28.8 19.3-7.7 39.5-12.6 59-12.5 2.5 0 4.6.3 6.3.8 1.5.4 2.7 1 3.9 1.7 2 1.2 3.8 2.9 5.6 5.5 1.4 2 2.7 4.5 3.8 7.5 1.7 4.5 3.1 10.3 4.1 16.9.9 6.6 1.4 14.1 1.4 22.1 0 18-2.2 38.9-5.7 59.8-5.2 31.4-13 63-19.5 86.6-.8 3-1.6 5.8-2.4 8.5-29.4-52.2-74.1-96.3-128.8-128.2-6.4-3.7-13-7.3-19.7-10.7 9.4-8.3 22.6-18.9 38.2-29.2zM49.7 204.9c-4.6-18.5-9.1-39.2-12.4-59.8-3.4-20.6-5.5-41-5.5-58.8 0-9.3.6-17.9 1.8-25.2.9-5.5 2.2-10.3 3.7-14.2 1.2-2.9 2.4-5.3 3.8-7.2 2-2.9 4-4.6 6.3-5.8 1.1-.6 2.4-1.1 3.9-1.4 1.5-.4 3.3-.6 5.5-.6 19.9 0 40.4 5 60.1 13 29.5 11.9 56.9 30.2 76.5 45.6 5.9 4.6 11.1 8.9 15.6 12.7-26.9 13.8-51.7 30.5-73.8 49.5-30.6 26.4-56 57.4-74.9 91.8-3.1-11-6.9-24.6-10.6-39.6zM156 593.1c-31.2-26.9-56.2-58.8-73.5-94-17.3-35.2-26.7-73.7-26.7-114.2s9.5-79 26.7-114.2c25.9-52.8 69.4-98.1 124.5-130.3 55.1-32.1 121.8-51 193.8-51 55.9 0 108.6 11.4 155.2 31.6.3.1.6.3 1 .4 33 14.4 62.9 33.1 88.7 55.4 31.2 26.9 56.2 58.8 73.5 94 17.3 35.2 26.7 73.7 26.7 114.2s-9.5 79-26.7 114.2c-25.9 52.8-69.4 98.1-124.5 130.3-55.1 32.1-121.8 51-193.8 51-96-.1-182.6-33.7-244.9-87.4zm233.5 191.7c-12.7 0-23 10.3-23 23 0 8.8 4.9 16.4 12.1 20.2v25.3c-3-.7-6-1.6-8.8-2.8-9.1-3.8-16.8-10.3-22.3-18.4-5.5-8.1-8.6-17.8-8.6-28.3 0-7 1.4-13.7 4-19.7 3.8-9.1 10.3-16.8 18.4-22.3 8.1-5.5 17.8-8.6 28.3-8.6 7 0 13.7 1.4 19.7 4 9.1 3.8 16.8 10.3 22.3 18.4 5.5 8.1 8.6 17.8 8.6 28.3 0 7-1.4 13.7-4 19.7-3.8 9.1-10.3 16.8-18.4 22.3-5.2 3.5-11.1 6.1-17.4 7.4V828c7.2-3.9 12.1-11.5 12.1-20.2 0-12.7-10.3-23-23-23zm46.1-49.2c-13.1-8.9-29.1-14.1-46.1-14.1-11.3 0-22.2 2.3-32.1 6.5-9.6 4.1-18.2 9.9-25.5 17.1-8.1-.9-16-2-23.7-3.2-21.3-3.4-40.8-7.9-58.1-13.3-13-4-24.6-8.5-34.7-13.4-7.5-3.6-14.2-7.4-19.8-11.3-8.5-5.8-14.6-11.7-18.2-17-1.8-2.7-3.1-5.2-3.9-7.5-.8-2.3-1.2-4.5-1.2-6.7 0-2 .3-4 .9-6.1 1-3.1 2.8-6.6 5.7-10.3 1.1-1.4 2.5-2.9 4-4.4 2.7 1.7 5.4 3.3 8.1 4.9 60.1 35 132.3 55.3 209.8 55.3 81.1 0 156.3-22.2 218-60.2 2.7 2.8 4.9 5.5 6.5 8 1.5 2.4 2.5 4.6 3.1 6.7.6 2.1.9 4.1.9 6.1 0 1.7-.2 3.5-.7 5.3-.9 3.4-2.8 7.1-6 11.2-2.8 3.5-6.6 7.3-11.4 11.1-8.4 6.6-19.9 13.1-33.9 19-20.9 8.9-47.4 16.3-77.4 21.5-16 2.8-33.1 4.9-50.8 6.2-4.1-4.3-8.6-8.1-13.5-11.4zm-171.5 551.7c-1.7 5-5.2 10.2-10.5 15.4-4 3.9-9.1 7.7-15.2 11.1-6.5 3.7-14.1 7-22.5 9.7v-44.7c0-8.8-7.1-15.9-15.9-15.9s-15.9 7.1-15.9 15.9v51.3c-6.3.7-12.8 1-19.4 1-6.7 0-13.2-.4-19.4-1v-51.3c0-8.8-7.1-15.9-15.9-15.9s-15.9 7.1-15.9 15.9v44.7c-5.8-1.9-11.2-4-16.2-6.4-11.4-5.5-20.1-12.2-25.6-18.9-2.8-3.4-4.7-6.7-6-9.9-1.3-3.2-1.9-6.3-1.9-9.6 0-2.9.5-5.6 1.5-8.5 1.7-5 5.2-10.2 10.5-15.4 4-3.9 9.1-7.7 15.2-11.1 9-5.2 20.1-9.5 32.7-12.6 12.5-3 26.4-4.8 41.1-4.7 14.9 0 29 1.8 41.6 4.9 9.5 2.3 18.2 5.5 25.7 9.1 11.4 5.5 20.1 12.2 25.6 18.9 2.8 3.4 4.7 6.7 6 9.9 1.3 3.2 1.9 6.3 1.9 9.6 0 2.9-.5 5.7-1.5 8.5zm14.3-52.5c-.9-1-1.8-1.9-2.8-2.8-6.2-6-13.4-11.2-21.4-15.8-12-6.8-25.8-12.2-40.9-15.8-15.1-3.7-31.4-5.6-48.5-5.6-17.4 0-34 2-49.3 5.8-11.5 2.8-22.2 6.6-31.9 11.3-7.3 3.5-14 7.5-20.1 12.1-6.3-13.1-11-25.7-14.2-37.9-4.7-17.5-6.6-34-6.6-49.3 0-33 8.9-60.7 17.8-80 2.2-4.7 4.3-8.9 6.4-12.6 2.1 2.4 4.3 4.7 6.5 7 23.2 24 50.8 43.5 79.5 57.2 28.7 13.7 58.6 21.6 86.8 21.6 13.5 0 26.6-1.8 38.8-5.9v110.7zm222.7 87.3c0 1.2-.2 2.2-.6 3.2-.6 1.4-1.7 2.7-3 3.6-1.3.9-2.8 1.4-4.6 1.4H320.1c-1.2 0-2.2-.2-3.2-.6-1.4-.6-2.7-1.7-3.6-3-.9-1.3-1.4-2.8-1.4-4.6v-217.2c.3-.3.7-.6 1.1-.9 10-9.2 17.6-19.8 22.6-31.2 5-11.4 7.4-23.6 7.4-35.7 0-11.3-2.1-22.5-5.9-33.3h155.8c1.2 0 2.2.2 3.2.6 1.4.6 2.7 1.7 3.6 3 .9 1.3 1.4 2.8 1.4 4.6v310.1zm233-34.8c-1.7 5-5.2 10.2-10.6 15.4-4 3.9-9.1 7.7-15.2 11.1-6.5 3.7-14.1 7-22.5 9.7v-44.7c0-8.8-7.1-15.9-15.9-15.9s-15.9 7.1-15.9 15.9v51.3c-6.3.7-12.8 1-19.4 1-6.7 0-13.1-.4-19.4-1v-51.3c0-8.8-7.1-15.9-15.9-15.9s-15.9 7.1-15.9 15.9v44.7c-5.8-1.9-11.2-4-16.2-6.4-11.4-5.5-20.1-12.2-25.6-18.9-2.8-3.4-4.7-6.7-6-9.9-.4-1-.7-2-1-3.1v-13.1c.2-.6.4-1.3.6-1.9 1.7-5 5.2-10.2 10.5-15.4 4-3.9 9.1-7.7 15.2-11.1 9-5.2 20.1-9.5 32.7-12.6 12.5-3 26.4-4.8 41.1-4.7 14.9 0 29 1.8 41.6 4.9 9.5 2.3 18.2 5.5 25.7 9.1 11.4 5.5 20.1 12.2 25.6 18.9 2.8 3.4 4.7 6.7 6 9.9 1.3 3.2 1.9 6.3 1.9 9.6 0 2.9-.5 5.7-1.4 8.5zm154.4-643c-2.6 1.5-5.4 2.8-8.2 4-7.1-11.8-38-55.3-98.2-26.2 0 0 45.5-4.6 62.3 36.1-5.2.6-10.6 1-16 1-28.5 0-54.1-8.9-72.8-23-7-5.3-17-3.9-22.2 3.1-5.3 7-3.9 17 3.1 22.2 23.2 17.4 53.3 28.1 86.1 29.3 2.1 8 3.2 17 3.2 26.9 0 18-3.6 38.4-10.6 58.6-5.2 15.1-12.3 30.2-21 44.1-13 20.9-29.6 39.2-48.6 52.1-9.5 6.4-19.6 11.5-30.2 15-10.6 3.5-21.8 5.4-33.6 5.4-18.6 0-39-4.7-61.3-16.2-7.8-4-17.4-1-21.4 6.8s-1 17.4 6.8 21.4c22.7 11.7 44.9 18 66.1 19.4.6.9 1.2 1.7 1.9 2.4.3.3 21.5 22.5 42.3 58.6 10.5 18.1 20.9 39.7 28.6 63.7 7.7 24 12.8 50.3 12.8 78.1 0 30.7-6.2 63.1-22 96.7-3.7-2.7-7.6-5.2-11.7-7.6-12-6.8-25.8-12.2-40.9-15.8-15.1-3.7-31.4-5.6-48.5-5.6-17.4 0-34 2-49.3 5.8-11.5 2.8-22.2 6.6-31.9 11.3-6.8 3.3-13.1 7-18.8 11.1v-211.2c0-5.7-1.2-11.2-3.3-16.2-3.2-7.5-8.4-13.8-15.1-18.3-6.6-4.5-14.8-7.1-23.3-7.1H320.1c-.6 0-1.2 0-1.8.1-13.3-16.8-31.5-31.2-53.7-41.5-8.6-4-15.2-8.3-20.4-12.6-7.7-6.5-12.2-12.9-14.9-19.2-2.7-6.3-3.7-12.6-3.7-18.8 0-7.7 1.7-15.1 3.5-20.3.9-2.6 1.7-4.7 2.4-6 .3-.7.5-1.2.7-1.4l.1-.3c4.2-7.7 1.4-17.3-6.3-21.5-7.7-4.2-17.3-1.4-21.6 6.2-.3.6-2.9 5.3-5.4 12.9-2.5 7.6-5.1 18.1-5.1 30.4 0 6.4.7 13.4 2.6 20.5 2.8 10.7 8.3 21.9 17.3 32 9 10.2 21.3 19.3 37.5 26.8 19.7 9.2 34.9 22 44.9 36 5 7 8.8 14.4 11.4 21.7 2.5 7.3 3.8 14.6 3.8 21.7 0 8-1.6 15.6-4.7 22.9-3.2 7.3-8.1 14.2-15 20.6-6.4 5.9-13.9 10.2-22.6 13.2-8.7 2.9-18.6 4.4-29.3 4.4-19.7 0-42.3-5.1-64.7-14.7-16.9-7.2-33.7-16.9-49.4-28.6-23.5-17.5-44.3-39.5-59-64-7.4-12.2-13.2-25.1-17.2-38.4-4-13.3-6.2-27-6.2-41 0-29.2 4-55.6 10.9-79.5 10.3-35.8 27.1-66 46.9-91.1 13.9-17.7 29.3-32.8 44.9-45.5.5 1.2 1.1 2.3 1.7 3.4 3.8 7 8.9 13.3 15 19.1 10.6 10.1 24.2 18.8 40.3 26.4 24.1 11.4 53.7 20.3 87.3 26.6 7.3 1.4 14.8 2.6 22.5 3.6-3.5 9.1-5.4 19-5.4 29.3 0 11.3 2.3 22.2 6.5 32.1 6.3 14.8 16.7 27.4 29.8 36.2 13.1 8.9 29.1 14.1 46.1 14.1 11.3 0 22.2-2.3 32.1-6.5 14.8-6.3 27.4-16.7 36.2-29.8 8.9-13.1 14.1-29.1 14.1-46.1 0-9.3-1.6-18.3-4.4-26.7 10.6-1.1 21-2.4 31-4 22.6-3.6 43.6-8.4 62.6-14.3 14.2-4.4 27.3-9.4 39-15 8.8-4.2 16.8-8.7 24-13.7 10.8-7.4 19.8-15.6 26.4-25.2 3.3-4.8 6-9.9 7.8-15.3 1.9-5.4 2.9-11.2 2.9-17 0-5.3-.8-10.5-2.4-15.5-2.3-7.5-6.2-14.3-11.1-20.6-.7-.9-1.5-1.8-2.3-2.7 7.3-5.4 14.3-11 21.1-16.8 25.7-22.2 47.8-47.6 65.4-75.5 4.2-6.4 9.7-12.7 16.3-18.5 9.9-8.6 22.3-16 36-21.2 13.7-5.2 28.8-8.2 44.2-8.2 30 0 56.9 9.9 75.7 25.3 9.4 7.7 16.9 16.7 21.9 26.4s7.7 20.1 7.7 31.1c0 4.9-.6 9.6-1.6 14.3-15.4-14.8-43.1-29.3-84.7-9.2 0 0 51.5-5.2 65.2 44.4-6.9 7.2-15 13.5-24.4 18.6z"/><g style="opacity:.15"><path class="st3" d="M622.9 680.5c1 1.7 1.8 3.2 2.4 4.8 1.6-2.6 2.7-5 3.3-7.3.5-1.8.7-3.5.7-5.3 0-2-.3-4-.9-6.1-.6-2.1-1.7-4.3-3.1-6.7-1.6-2.5-3.8-5.3-6.5-8-61.7 38-136.9 60.2-218 60.2-77.5 0-149.7-20.3-209.8-55.3-2.7-1.6-5.4-3.3-8.1-4.9-1.5 1.5-2.8 3-4 4.4-2.9 3.7-4.7 7.2-5.7 10.3-.6 2.1-.9 4.1-.9 6.1 0 2.2.4 4.4 1.2 6.7.1.4.3.8.5 1.2.8-1.2 1.6-2.5 2.6-3.8 1.1-1.4 2.5-2.9 4-4.4 2.7 1.7 5.4 3.3 8.1 4.9 48 28 103.8 46.6 163.8 52.9 1.6-.8 3.3-1.6 5-2.3 9.9-4.2 20.8-6.5 32.1-6.5 14.3 0 27.8 3.7 39.6 10.2 69.4-4.9 133.5-26 187.3-59.2 2.7 2.9 4.8 5.6 6.4 8.1zM82.5 270.7c-17.3 35.2-26.7 73.7-26.7 114.2s9.5 79 26.7 114.2c3.3 6.8 7 13.5 10.9 20C82.7 490.6 77 460.3 77 428.8c0-40.5 9.5-79 26.7-114.2 25.9-52.8 69.4-98.1 124.5-130.3 55.1-32.1 121.8-51 193.8-51 55.9 0 108.6 11.4 155.2 31.6.3.1.6.3 1 .4 33 14.4 62.9 33.1 88.7 55.4 25.1 21.7 46.3 46.6 62.6 73.9-3-8.1-6.5-16.1-10.3-23.9-17.3-35.2-42.3-67.1-73.5-94-25.7-22.2-55.7-41-88.7-55.4-.3-.1-.7-.3-1-.4-46.6-20.2-99.3-31.6-155.2-31.6-72 0-138.7 18.9-193.8 51-55.1 32.2-98.6 77.6-124.5 130.4zm-22.2-26.3c3.9-7.2 8.2-14.2 12.6-21-4.3-17.7-8.5-37.3-11.7-56.8-3.4-20.6-5.5-41-5.5-58.8 0-9.3.6-17.9 1.8-25.2.9-5.5 2.2-10.3 3.7-14.2 1.2-2.9 2.4-5.3 3.8-7.2 2-2.9 4-4.6 6.3-5.8 1.1-.6 2.4-1.1 3.9-1.4 1.5-.4 3.3-.6 5.5-.6 19.9 0 40.4 5 60.1 13 24.7 9.9 47.8 24.4 66.2 37.8.6-.3 1.2-.7 1.9-1-4.4-3.8-9.6-8.1-15.6-12.7-19.7-15.3-47-33.7-76.5-45.6-19.7-8-40.3-13-60.1-13-2.1 0-3.9.2-5.5.6-1.5.4-2.8.8-3.9 1.4-2.3 1.2-4.2 2.9-6.3 5.8-1.3 1.9-2.6 4.3-3.8 7.2-1.5 3.9-2.8 8.7-3.7 14.2-1.2 7.3-1.8 15.9-1.8 25.2 0 17.8 2.2 38.2 5.5 58.8 3.4 20.6 7.9 41.3 12.4 59.8 3.8 15 7.6 28.6 10.7 39.5zm551.1-131.1c4.7-3.5 9.8-7.1 15.2-10.6 16-10.6 34.4-21.1 53.8-28.8 19.3-7.7 39.5-12.6 59-12.5 2.5 0 4.6.3 6.3.8 1.5.4 2.7 1 3.9 1.7 2 1.2 3.8 2.9 5.6 5.5 1.4 2 2.7 4.5 3.8 7.5 1.7 4.5 3.1 10.3 4.1 16.9.9 6.6 1.4 14.1 1.4 22.1 0 4.5-.1 9.1-.4 13.9 2-15.3 3.3-30.2 3.3-43.5 0-8-.4-15.5-1.4-22.1-.9-6.6-2.3-12.3-4.1-16.9-1.2-3-2.5-5.5-3.8-7.5-1.8-2.6-3.6-4.3-5.6-5.5-1.1-.7-2.4-1.2-3.9-1.7-1.7-.5-3.7-.8-6.3-.8-19.5 0-39.6 4.8-59 12.5-19.3 7.7-37.8 18.1-53.8 28.8-15.6 10.4-28.8 20.9-38.4 29.1 6.7 3.4 13.3 7 19.7 10.7.1.2.3.3.6.4zm-458.7 995c-28.7-13.7-56.3-33.2-79.5-57.2-2.2-2.3-4.4-4.6-6.5-7-2 3.7-4.2 7.9-6.4 12.6-8.9 19.3-17.8 47-17.8 80 0 15.3 1.9 31.8 6.6 49.3 1.4 5.2 3.1 10.4 5 15.8-2.3-12.2-3.3-23.8-3.3-34.8 0-33 8.9-60.7 17.8-80 2.2-4.7 4.3-8.9 6.4-12.6 2.1 2.4 4.3 4.7 6.5 7 23.2 24 50.8 43.5 79.5 57.2 28.7 13.7 58.6 21.6 86.8 21.6 10.5 0 20.7-1.1 30.6-3.6V1124c-12.3 4.1-25.4 5.9-38.8 5.9-28.3 0-58.2-8-86.9-21.6zm611.9-469c-.5.7-.9 1.4-1.3 2.1 17.8 11 40.4 17.8 65.1 17.8 5.3 0 10.4-.3 15.5-.9-22.1-2.6-41.9-10.7-57-22.1-7.1-5.3-17.1-3.9-22.3 3.1z"/><path class="st3" d="M779.3 523.1c9.9-8.6 22.3-16 36-21.2 9.2-3.5 19-5.9 29.1-7.2-5.2-.6-10.6-1-16.1-1-15.4 0-30.5 3-44.2 8.2-13.7 5.2-26.1 12.6-36 21.2-6.6 5.7-12.1 12-16.3 18.5-17.6 28-39.7 53.4-65.4 75.5-6.8 5.8-13.8 11.5-21.1 16.8.8.9 1.6 1.8 2.3 2.7 4.9 6.2 8.8 13.1 11.1 20.6 1.5 5 2.4 10.2 2.4 15.5 0 5.8-1 11.6-2.9 17s-4.5 10.5-7.8 15.3c-6.6 9.5-15.6 17.8-26.4 25.2-7.2 4.9-15.2 9.5-24 13.7-11.7 5.6-24.8 10.6-39 15-18.9 5.9-40 10.7-62.6 14.3-10 1.6-20.4 2.9-31 4 2.9 8.4 4.4 17.4 4.4 26.7 0 17-5.2 33-14.1 46.1-8.9 13.1-21.4 23.6-36.2 29.8-5.2 2.2-10.7 3.9-16.4 5 5 1 10.2 1.5 15.5 1.5 11.3 0 22.2-2.3 32.1-6.5 14.8-6.3 27.4-16.7 36.2-29.8 8.9-13.1 14.1-29.1 14.1-46.1 0-9.3-1.6-18.3-4.4-26.7 10.6-1.1 21-2.4 31-4 22.6-3.6 43.6-8.4 62.6-14.3 14.2-4.4 27.3-9.4 39-15 8.8-4.2 16.8-8.7 24-13.7 10.8-7.4 19.8-15.6 26.4-25.2 3.3-4.8 6-9.9 7.8-15.3 1.9-5.4 2.9-11.2 2.9-17 0-5.3-.8-10.5-2.4-15.5-2.3-7.5-6.2-14.3-11.1-20.6-.7-.9-1.5-1.8-2.3-2.7 7.3-5.4 14.3-11 21.1-16.8 25.7-22.2 47.8-47.6 65.4-75.5 4.2-6.5 9.7-12.7 16.3-18.5zM534.6 1223c5.8-4.1 12.1-7.9 18.8-11.1 4-1.9 8.1-3.6 12.4-5.2v-194.8c0-5.7-1.2-11.2-3.3-16.2-3.2-7.5-8.4-13.8-15.1-18.3-6.6-4.5-14.8-7.1-23.3-7.1h-31.2c8.6 0 16.7 2.6 23.3 7.1 6.7 4.5 11.9 10.8 15.1 18.3 2.1 5 3.3 10.5 3.3 16.2V1223zm131.2-28.2c-5.3 0-10.5.2-15.6.6 11.5.8 22.5 2.5 32.9 5.1 15.1 3.7 28.9 9 40.9 15.8 4.1 2.3 8 4.9 11.7 7.6 2.2-4.8 4.3-9.5 6.1-14.3-8.6-3.7-17.8-6.8-27.5-9.2-15-3.7-31.4-5.6-48.5-5.6zM132 740.9c8-10.2 16.6-19.6 25.4-28.1-3.9-4.3-7.3-9-10-13.9-.6-1.1-1.2-2.3-1.7-3.4-15.6 12.7-31 27.8-44.9 45.5-19.8 25-36.6 55.2-46.9 91C47 855.9 43 882.3 43 911.5c0 14 2.2 27.7 6.2 41s9.9 26.1 17.2 38.4c14.7 24.5 35.5 46.5 59 64 15.7 11.7 32.5 21.4 49.4 28.6 22.5 9.6 45 14.7 64.7 14.7 5.2 0 10.3-.4 15-1.1-15.5-2-32-6.6-48.6-13.7-16.9-7.2-33.7-16.9-49.4-28.6-23.5-17.5-44.3-39.5-59-64-7.4-12.2-13.2-25.1-17.2-38.4-4-13.3-6.2-27-6.2-41 0-29.2 4-55.6 10.9-79.5 10.4-35.7 27.2-65.9 47-91zm163.8 187.8c-8.6-4-15.2-8.3-20.4-12.6-7.7-6.5-12.2-12.9-14.9-19.2-2.7-6.3-3.7-12.6-3.7-18.8 0-7.7 1.7-15.1 3.5-20.3.9-2.6 1.7-4.7 2.4-6 .3-.7.5-1.2.7-1.4l.1-.3c4.2-7.7 1.4-17.3-6.3-21.5-7.7-4.2-17.3-1.4-21.6 6.2-.2.3-.9 1.6-1.9 3.8.9 3.7.5 7.8-1.4 11.4l-.1.3c-.1.3-.4.8-.7 1.4-.6 1.3-1.5 3.4-2.4 6-1.8 5.2-3.5 12.5-3.5 20.3 0 6.1 1 12.5 3.7 18.8 2.7 6.3 7.2 12.8 14.9 19.2 5.2 4.3 11.8 8.6 20.4 12.6 22.3 10.3 40.5 24.8 53.7 41.5.6-.1 1.2-.1 1.8-.1h29.3c-13.3-16.6-31.4-31-53.6-41.3z"/><path class="st3" d="M496.1 1004.3c-1-.4-2-.6-3.2-.6H337.1c2.9 8.1 4.8 16.4 5.5 24.8h125.9c1.2 0 2.2.2 3.2.6 1.4.6 2.7 1.7 3.6 3 .9 1.3 1.4 2.8 1.4 4.6v293.5h16.2c1.8 0 3.2-.5 4.6-1.4 1.3-.9 2.4-2.2 3-3.6.4-1 .6-2 .6-3.2v-310.2c0-1.8-.5-3.2-1.4-4.6-.9-1.2-2.2-2.3-3.6-2.9zm-238.4 255.1c-5.5-6.7-14.3-13.4-25.6-18.9-7.6-3.6-16.2-6.8-25.7-9.1-12.7-3.1-26.8-4.9-41.6-4.9-14.6 0-28.5 1.7-41.1 4.7-12.5 3-23.6 7.4-32.7 12.6-6 3.4-11.1 7.2-15.2 11.1-5.4 5.2-8.8 10.5-10.5 15.4-1 2.9-1.5 5.6-1.5 8.5 0 3.2.6 6.3 1.9 9.6 1.3 3.2 3.2 6.5 6 9.9 1.5 1.9 3.4 3.8 5.4 5.6-.3-1.7-.5-3.3-.5-5 0-2.9.5-5.6 1.5-8.5 1.7-5 5.2-10.2 10.5-15.4 4-3.9 9.1-7.7 15.2-11.1 9-5.2 20.1-9.5 32.7-12.6 12.5-3 26.4-4.8 41.1-4.7 14.9 0 29 1.8 41.6 4.9 9.5 2.3 18.2 5.5 25.7 9.1 8.2 3.9 15 8.5 20.2 13.2-.3-1.5-.8-3-1.4-4.5-1.3-3.2-3.2-6.6-6-9.9zm470.7 0c-5.5-6.7-14.3-13.4-25.6-18.9-7.6-3.6-16.2-6.8-25.7-9.1-12.7-3.1-26.8-4.9-41.6-4.9-14.6 0-28.5 1.7-41.1 4.7-12.5 3-23.6 7.4-32.7 12.6-6 3.4-11.1 7.2-15.2 11.1-5.4 5.2-8.8 10.5-10.5 15.4-1 2.9-1.5 5.6-1.5 8.5 0 3.2.6 6.3 1.9 9.6 1.3 3.2 3.2 6.5 6 9.9 1.5 1.9 3.4 3.8 5.4 5.6-.3-1.7-.5-3.3-.5-5 0-2.9.5-5.6 1.5-8.5 1.7-5 5.2-10.2 10.5-15.4 4-3.9 9.1-7.7 15.2-11.1 9-5.2 20.1-9.5 32.7-12.6 12.5-3 26.4-4.8 41.1-4.7 14.9 0 29 1.8 41.6 4.9 9.5 2.3 18.2 5.5 25.7 9.1 8.2 3.9 15 8.5 20.2 13.2-.3-1.5-.8-3-1.4-4.5-1.3-3.2-3.3-6.6-6-9.9zM370.5 775c8.1-5.5 17.8-8.6 28.3-8.6 7 0 13.7 1.4 19.7 4 6.2 2.6 11.8 6.5 16.5 11.3-1-2.1-2.2-4.1-3.5-6-5.5-8.1-13.2-14.5-22.3-18.4-6.1-2.6-12.7-4-19.7-4-10.5 0-20.2 3.2-28.3 8.6-8.1 5.5-14.5 13.2-18.4 22.3-2.6 6.1-4 12.7-4 19.7 0 10.5 3.2 20.2 8.6 28.3 1.7 2.5 3.7 4.9 5.8 7.1-3.3-6.7-5.1-14.2-5.1-22.3 0-7 1.4-13.7 4-19.7 3.9-9 10.3-16.8 18.4-22.3z"/></g><path class="st3" d="m567.9 504.8-.6-4.5.6 4.5-.6-4.5.6 4.5s2.8-.3 7.4-.3c6.7 0 17.1.7 27.8 4.1 5.4 1.7 10.8 4 16 7.1 5.2 3.1 10.1 7.1 14.5 12.1 3.9 4.4 10.7 4.9 15.1 1 4.4-3.9 4.9-10.7 1-15.1-6-6.8-12.7-12.2-19.6-16.3-10.3-6.2-21-9.7-30.6-11.7-9.6-2-18.1-2.5-24.2-2.5-6 0-9.7.5-10.1.5-5.9.7-10 6.1-9.3 12 .8 5.7 6.2 9.8 12 9.1zm-12.2 31.9c.7.1 11.6 1.5 24.1 7.1 6.2 2.8 12.9 6.5 18.9 11.5 6 5 11.5 11.2 15.6 19 2.8 5.2 9.2 7.2 14.5 4.5 5.2-2.8 7.2-9.2 4.5-14.5-5.8-11-13.5-19.6-21.7-26.2-12.3-9.9-25.5-15.5-35.6-18.7-10.2-3.2-17.4-4-17.9-4.1-5.9-.7-11.2 3.6-11.8 9.5-.7 6 3.6 11.3 9.4 11.9zm-315.3-31.9.6-4.5-.6 4.5.6-4.5-.6 4.5s-2.8-.3-7.4-.3c-6.7 0-17.1.7-27.8 4.1-5.4 1.7-10.8 4-16 7.1-5.2 3.1-10.1 7.1-14.5 12.1-3.9 4.4-10.7 4.9-15.1 1-4.4-3.9-4.9-10.7-1-15.1 6-6.8 12.7-12.2 19.6-16.3 10.3-6.2 21-9.7 30.6-11.7 9.6-2 18.1-2.5 24.2-2.5 6 0 9.7.5 10.1.5 5.9.7 10 6.1 9.3 12-.8 5.7-6.1 9.8-12 9.1zm12.2 31.9c-.7.1-11.6 1.5-24.1 7.1-6.2 2.8-12.9 6.5-18.9 11.5-6 5-11.5 11.2-15.6 19-2.8 5.2-9.2 7.2-14.5 4.5-5.2-2.8-7.2-9.2-4.5-14.5 5.8-11 13.5-19.6 21.7-26.2 12.3-9.9 25.5-15.5 35.6-18.7 10.2-3.2 17.4-4 17.9-4.1 5.9-.7 11.2 3.6 11.8 9.5.7 6-3.6 11.3-9.4 11.9z"/></svg>
