<svg viewBox="0 0 12 12" fill="none" xmlns="http://www.w3.org/2000/svg">
<path fill-rule="evenodd" clip-rule="evenodd" d="M6.78007 0.627793C6.90188 0.666098 7.00828 0.742262 7.08382 0.845206C7.15935 0.948151 7.20008 1.07251 7.20007 1.20019V4.20019H9.60007C9.70982 4.20014 9.81748 4.2302 9.91134 4.28709C10.0052 4.34398 10.0817 4.42552 10.1324 4.52284C10.1831 4.62016 10.2062 4.72953 10.1991 4.83905C10.192 4.94857 10.155 5.05405 10.0921 5.14399L5.89207 11.144C5.81897 11.2487 5.71437 11.3274 5.59348 11.3685C5.47258 11.4097 5.34171 11.4112 5.21989 11.3729C5.09807 11.3345 4.99167 11.2583 4.91617 11.1553C4.84066 11.0523 4.79999 10.9279 4.80007 10.8002V7.80019H2.40007C2.29032 7.80024 2.18266 7.77019 2.0888 7.7133C1.99495 7.65641 1.91849 7.57487 1.86776 7.47755C1.81702 7.38023 1.79396 7.27085 1.80106 7.16133C1.80817 7.05181 1.84518 6.94634 1.90807 6.85639L6.10807 0.856393C6.18128 0.751865 6.2859 0.673401 6.40675 0.632399C6.5276 0.591397 6.65837 0.589994 6.78007 0.628393V0.627793Z" fill="url(#paint0_linear_961_879583)"/>
<defs>
<linearGradient id="paint0_linear_961_879583" x1="10.2003" y1="4.67168" x2="1.34476" y2="7.33544" gradientUnits="userSpaceOnUse">
<stop stop-color="#B6509E"/>
<stop offset="1" stop-color="#2EBAC6"/>
</linearGradient>
</defs>
</svg>
