<svg width="120" height="18" viewBox="0 0 120 18" fill="none" xmlns="http://www.w3.org/2000/svg">
<path d="M120 0L115.704 13.1283C115.089 14.8826 114.14 16.1167 112.868 16.8611C111.531 17.6204 110.081 18 108.513 18H84.0808L85.6813 13.153H106.546C107.42 13.153 108.12 13.0374 108.583 12.715C109.014 12.4152 109.286 12.062 109.425 11.6938L109.556 11.345H95.884L97.4086 6.65474H111.14L111.746 4.84677H88.3698L89.9701 0H120Z" fill="#80FF00"/>
<path d="M86.0428 0L80.1519 18H73.4963L77.7853 4.84677H73.5368L75.1371 0H86.0428Z" fill="#80FF00"/>
<path fill-rule="evenodd" clip-rule="evenodd" d="M71.2209 0L69.6206 4.84677H48.5988C47.5901 4.84677 46.7663 5.00695 46.1749 5.25907C45.5926 5.50736 45.1273 5.84187 44.7847 6.2253L44.4009 6.65474H69.019L65.3305 18H34.2389L37.9056 6.79158C38.2088 5.88652 38.7017 5.01733 39.4646 4.18246L39.4691 4.17742C40.2 3.33547 41.0466 2.60789 42.0097 1.99471C42.9726 1.38166 43.9761 0.920099 45.0621 0.534022C46.1051 0.188281 47.0995 0 48.0085 0H71.2209ZM43.0547 11.345L42.504 13.153H60.3207L60.8714 11.345H43.0547Z" fill="#80FF00"/>
<path d="M12.545 0L10.3413 6.65474H20.2426L20.3166 6.58947L27.7583 0H35.4954L28.0737 6.80948L28.4778 6.95287C29.5595 7.3372 30.4373 7.79458 31.1967 8.39894C31.9189 8.97371 32.2831 9.72369 32.3585 10.6749V11.4665C32.3211 11.7156 32.2503 11.9631 32.171 12.278L30.3045 18H23.6501L25.2699 13.093L25.2747 13.0781L25.2777 13.063C25.2873 13.0156 25.2969 12.9703 25.3061 12.9269C25.3152 12.8841 25.3242 12.8421 25.3319 12.8037C25.3459 12.7344 25.3616 12.6508 25.3616 12.5819V12.5675L25.3598 12.5534C25.3353 12.334 25.2593 12.1372 25.1186 11.9705C24.9802 11.8065 24.7923 11.6875 24.5689 11.5985C24.1456 11.4301 23.7193 11.345 23.2526 11.345H8.81933L6.6549 18H0L5.89087 0H12.545Z" fill="white"/>
</svg>
