<svg width="190" height="206" viewBox="0 0 190 206" fill="none" xmlns="http://www.w3.org/2000/svg">
<circle cx="90.7329" cy="121.034" r="66.0775" transform="rotate(19.9228 90.7329 121.034)" fill="url(#paint0_linear_1016_354586)" stroke="black"/>
<mask id="mask0_1016_354586" style="mask-type:alpha" maskUnits="userSpaceOnUse" x="25" y="55" width="132" height="132">
<circle cx="90.7305" cy="121.035" r="65.5775" transform="rotate(19.9228 90.7305 121.035)" fill="white"/>
</mask>
<g mask="url(#mask0_1016_354586)">
<path d="M80.7028 50.4318C82.8566 49.9816 85.0449 49.7165 87.244 49.6395C88.7833 49.5693 90.3204 49.4824 91.8574 49.4325C93.7241 49.366 95.593 49.4252 97.4517 49.6099C100.655 49.9283 103.699 50.8378 106.764 51.7126C107.98 52.058 109.175 52.4752 110.378 52.8644C114.189 54.0883 117.596 56.1015 120.859 58.3698C123.094 59.8853 125.175 61.6147 127.075 63.5333C130.794 67.3986 133.62 72.0327 135.354 77.1089C136.825 81.4401 137.648 85.965 137.796 90.5368C137.925 93.727 137.893 96.9217 137.701 100.109C137.468 104.178 137.338 108.25 137.122 112.317C136.996 114.846 136.825 117.375 136.662 119.904C136.458 123.367 136.246 126.829 136.054 130.294C135.938 132.325 135.842 134.358 135.765 136.394C135.45 145.294 136.085 154.102 138.213 162.777C138.924 165.661 139.629 168.55 140.213 171.461C140.954 175.047 140.595 178.774 139.182 182.152C137.373 186.546 133.399 188.317 129.448 188.061C127.463 187.934 125.532 187.355 123.806 186.367C122.347 185.57 121.118 184.411 120.236 183.002C119.802 182.301 119.404 181.576 119.01 180.852C118.364 179.566 117.423 178.452 116.263 177.602C116.127 177.493 116.003 177.369 115.893 177.234C115.996 177.089 116.062 176.908 116.188 176.856C116.936 176.491 117.783 176.383 118.598 176.548C119.15 176.624 119.657 176.896 120.025 177.313C120.267 177.613 120.531 177.895 120.813 178.157C120.85 178.199 120.896 178.231 120.947 178.253C120.998 178.275 121.054 178.285 121.109 178.283C121.165 178.281 121.219 178.267 121.269 178.242C121.318 178.217 121.362 178.181 121.396 178.138C121.46 178.055 121.506 177.96 121.531 177.859C121.556 177.757 121.559 177.652 121.542 177.549C121.007 176.545 120.274 175.757 119.095 175.519C116.829 175.04 114.977 175.787 113.449 177.443C112.889 178.05 112.412 178.732 111.851 179.318C111.27 179.981 110.636 180.597 109.956 181.158C109.162 181.805 108.218 182.241 107.211 182.426C106.204 182.612 105.166 182.54 104.195 182.217C102.759 181.776 101.545 180.803 100.802 179.498C100.458 178.871 100.157 178.222 99.9017 177.554C99.5959 176.848 99.3425 176.115 99.0014 175.43C98.758 174.937 98.4492 174.479 98.0833 174.069C97.5756 173.478 96.8832 173.075 96.1183 172.926C95.3534 172.777 94.5606 172.89 93.8679 173.247C93.2389 173.584 92.6496 173.989 92.1112 174.457C91.5649 174.913 91.1089 175.478 90.5797 175.965C89.8802 176.659 89.1401 177.311 88.3632 177.917C86.7349 179.085 84.7332 179.611 82.741 179.396C80.7488 179.181 78.9057 178.239 77.5643 176.751C76.8976 175.947 76.2839 175.101 75.727 174.218C75.3214 173.628 75.0009 172.978 74.5771 172.402C74.1882 171.87 73.7452 171.379 73.2553 170.937C72.6325 170.38 71.8314 170.062 70.9957 170.042C70.16 170.021 69.3444 170.299 68.6949 170.825C68.2627 171.163 67.8715 171.551 67.5291 171.98C67.0482 172.583 66.6434 173.241 66.1989 173.885C65.6589 174.717 64.9874 175.456 64.2106 176.073C62.9631 177.009 61.406 177.435 59.8558 177.264C58.3056 177.093 56.8788 176.337 55.8656 175.152C55.2535 174.372 54.7099 173.541 54.2409 172.668C53.8244 171.958 53.5184 171.182 53.105 170.48C52.0173 168.589 50.4386 167.461 48.186 167.363C46.9569 167.312 46.0683 167.881 45.2895 168.676C45.2507 168.715 45.2201 168.761 45.1994 168.812C45.1787 168.862 45.1685 168.917 45.1692 168.971C45.1567 169.131 45.1977 169.291 45.2858 169.425C45.3415 169.478 45.4093 169.515 45.4831 169.535C45.5569 169.555 45.6345 169.557 45.709 169.54C46.0102 169.407 46.2938 169.238 46.5531 169.036C46.9424 168.728 47.4083 168.531 47.9008 168.468C48.3932 168.405 48.8936 168.478 49.348 168.677C49.7983 168.87 50.2317 169.101 50.6438 169.365C50.6823 169.404 50.7115 169.45 50.7294 169.502C50.7474 169.553 50.7535 169.607 50.7473 169.661C50.7411 169.715 50.7227 169.767 50.6937 169.813C50.6646 169.859 50.6256 169.898 50.5794 169.926C50.3831 170.023 50.18 170.107 49.9765 170.194C49.0183 170.624 48.1583 171.245 47.4493 172.02C46.8486 172.663 46.2586 173.32 45.6615 173.967C44.0772 175.68 41.9624 176.809 39.6582 177.172C37.4863 177.605 35.2377 177.442 33.151 176.7C29.8276 175.495 27.7987 173.126 27.0445 169.693C26.5829 167.619 26.6986 165.537 26.9673 163.448C27.2037 161.643 27.7291 159.888 28.5233 158.251C29.736 155.72 30.9708 153.2 32.2277 150.691C34.7871 145.628 36.8577 140.333 38.4112 134.878C39.8369 129.73 40.9861 124.51 41.8537 119.24C42.5869 114.899 43.3043 110.553 44.0542 106.21C44.6545 102.739 45.2874 99.2712 45.9157 95.8075C46.4555 92.8275 46.9796 89.8416 47.5758 86.8723C48.3918 82.4826 49.6479 78.1863 51.325 74.0484C53.9416 67.6427 58.2216 62.052 63.7226 57.8545C65.4901 56.5351 67.3833 55.3931 69.3748 54.445C72.9788 52.664 76.7814 51.3169 80.7028 50.4318Z" fill="white"/>
<path d="M138.797 100.766C138.659 103.294 138.578 105.824 138.465 108.355C138.377 110.226 138.291 112.093 138.178 113.965C137.994 116.929 137.777 119.896 137.601 122.864C137.442 125.612 137.311 128.359 137.177 131.11C137.088 132.923 137.015 134.739 136.938 136.553C136.499 146.022 137.491 155.504 139.883 164.676C140.489 166.961 140.968 169.28 141.413 171.603C142.09 175.199 141.723 178.913 140.357 182.307C137.885 188.671 131.646 190.054 126.996 188.824C125.278 188.408 123.651 187.68 122.196 186.676C120.634 185.532 119.368 184.03 118.504 182.296C118.132 181.559 117.723 180.842 117.278 180.147C116.765 179.288 116.006 178.604 115.099 178.184C114.953 178.107 114.784 178.081 114.622 178.112C114.459 178.143 114.311 178.228 114.203 178.353C113.828 178.75 113.49 179.189 113.114 179.59C112.436 180.336 111.79 181.085 111.061 181.734C110.213 182.507 109.195 183.07 108.09 183.378C106.985 183.686 105.822 183.73 104.697 183.506C103.571 183.282 102.514 182.797 101.611 182.09C100.707 181.382 99.9823 180.473 99.4948 179.434C99.1815 178.793 98.9555 178.108 98.6684 177.454C98.3882 176.736 98.0554 176.04 97.6727 175.372C96.75 173.907 95.2844 173.587 93.8321 174.548C93.1664 175.035 92.5402 175.575 91.9592 176.16C91.2319 176.83 90.5631 177.564 89.8097 178.21C87.3769 180.29 84.5691 180.832 81.4708 180.175C79.1749 179.722 77.1503 178.381 75.8359 176.445C75.1746 175.501 74.5989 174.492 73.9513 173.537C73.601 172.977 73.1915 172.456 72.73 171.984C72.495 171.728 72.2095 171.523 71.8913 171.382C71.5732 171.241 71.2293 171.168 70.8814 171.166C70.5335 171.165 70.1891 171.236 69.87 171.374C69.5508 171.513 69.2637 171.716 69.0269 171.971C68.467 172.575 67.9515 173.219 67.4843 173.897C67.0523 174.469 66.6774 175.08 66.2229 175.633C65.5163 176.52 64.6133 177.23 63.585 177.708C62.5567 178.186 61.4314 178.418 60.2979 178.386C59.1645 178.354 58.054 178.059 57.0543 177.524C56.0546 176.989 55.1929 176.229 54.5375 175.304C54.0038 174.539 53.5421 173.72 53.075 172.913C52.7963 172.436 52.5832 171.926 52.3172 171.447C51.9529 170.784 51.7081 170.694 50.9657 170.921C50.0711 171.211 49.2629 171.72 48.6141 172.401C48.0362 172.989 47.4987 173.619 46.9504 174.235C43.5932 178.019 39.2915 179.167 34.5175 178.228C29.3151 177.219 26.1473 173.62 25.6903 168.101C25.5793 166.738 25.668 165.357 25.6654 163.982C25.9187 162.006 26.4661 160.079 27.2892 158.265C28.5228 155.624 29.7954 153.002 31.1072 150.397C33.9268 144.851 36.1474 139.021 37.7314 133.005C38.8756 128.633 39.8225 124.224 40.5721 119.776C41.4239 114.725 42.3358 109.688 43.2197 104.644C43.9671 100.359 44.6698 96.0677 45.4737 91.7926C46.1117 88.3876 46.7629 84.9759 47.6058 81.615C49.2393 75.0972 51.8247 69.0015 56.0803 63.7027C59.5967 59.2223 64.1133 55.6275 69.2684 53.206C72.9423 51.4398 76.8099 50.1088 80.7926 49.2401C82.8988 48.8327 85.0316 48.5769 87.1744 48.4747C88.9279 48.3674 90.6879 48.3472 92.4477 48.2571C95.5853 48.0957 98.7297 48.3972 101.779 49.1518C104.983 49.9314 108.17 50.8572 111.271 51.9502C115.038 53.272 118.441 55.2888 121.69 57.5719C124.102 59.2202 126.335 61.117 128.351 63.2312C131.985 67.1755 134.748 71.8406 136.46 76.923C137.953 81.421 138.78 86.1132 138.915 90.8505C139.077 94.1704 138.974 97.4681 138.797 100.766ZM129.446 188.06C133.405 188.318 137.379 186.547 139.181 182.152C140.601 178.777 140.968 175.051 140.235 171.464C139.652 168.552 138.946 165.664 138.236 162.779C136.108 154.104 135.473 145.297 135.787 136.396C135.856 134.363 135.953 132.329 136.076 130.296C136.268 126.832 136.461 123.367 136.685 119.907C136.836 117.376 137.007 114.848 137.145 112.32C137.345 108.251 137.475 104.178 137.724 100.111C137.916 96.9242 137.947 93.7296 137.819 90.5394C137.671 85.9675 136.848 81.4426 135.376 77.1114C133.643 72.0352 130.817 67.4012 127.098 63.5359C125.197 61.6168 123.114 59.8873 120.878 58.3719C117.615 56.1036 114.207 54.0904 110.396 52.8665C109.206 52.4787 108.019 52.0624 106.783 51.7146C103.718 50.8399 100.673 49.9304 97.4703 49.6119C95.6117 49.4273 93.7427 49.368 91.8761 49.4346C90.3391 49.4844 88.802 49.5713 87.2627 49.6415C85.0636 49.7186 82.8752 49.9837 80.7214 50.4339C76.7986 51.3185 72.9947 52.6655 69.3894 54.4465C67.3923 55.3931 65.4937 56.5345 63.7209 57.8542C58.22 62.0518 53.94 67.6424 51.3233 74.0481C49.6475 78.1822 48.3919 82.4744 47.5756 86.8598C46.9793 89.8292 46.4553 92.8151 45.9154 95.795C45.2871 99.2588 44.6543 102.726 44.0539 106.197C43.304 110.54 42.5866 114.887 41.8535 119.228C40.9858 124.498 39.8367 129.718 38.411 134.865C36.8654 140.321 34.803 145.617 32.2518 150.681C30.9922 153.19 29.7575 155.71 28.5475 158.241C27.7545 159.886 27.2323 161.648 27.0013 163.46C26.7371 165.545 26.6169 167.631 27.0785 169.705C27.8448 173.14 29.8634 175.491 33.185 176.713C35.2717 177.454 37.5203 177.617 39.6922 177.184C41.9965 176.821 44.1112 175.692 45.6955 173.98C46.2926 173.332 46.8826 172.675 47.4833 172.032C48.1881 171.263 49.0419 170.645 49.9928 170.217C50.1964 170.129 50.3994 170.045 50.5958 169.949C50.6419 169.92 50.681 169.881 50.71 169.835C50.7391 169.79 50.7574 169.738 50.7636 169.684C50.7698 169.63 50.7637 169.575 50.7458 169.524C50.7279 169.473 50.6986 169.426 50.6602 169.388C50.2431 169.114 49.8036 168.877 49.3464 168.677C48.8904 168.473 48.3873 168.398 47.8918 168.461C47.3962 168.523 46.9272 168.719 46.5357 169.029C46.2764 169.232 45.9928 169.401 45.6915 169.533C45.617 169.551 45.5395 169.549 45.4657 169.529C45.3919 169.509 45.3241 169.471 45.2684 169.419C45.1803 169.285 45.1392 169.125 45.1517 168.965C45.151 168.91 45.1613 168.856 45.182 168.806C45.2026 168.755 45.2333 168.709 45.272 168.67C46.0685 167.864 46.9571 167.295 48.1685 167.356C50.4212 167.455 51.9999 168.583 53.0876 170.473C53.4991 171.192 53.8051 171.968 54.2234 172.662C54.6932 173.532 55.2371 174.361 55.8491 175.137C56.8623 176.323 58.2891 177.078 59.8393 177.249C61.3894 177.421 62.9466 176.995 64.1941 176.059C64.9708 175.442 65.6424 174.703 66.1824 173.871C66.6255 173.238 67.0344 172.582 67.5127 171.966C67.855 171.537 68.2463 171.149 68.6785 170.811C69.3279 170.285 70.1436 170.007 70.9793 170.027C71.815 170.048 72.616 170.366 73.2388 170.923C73.7288 171.365 74.1718 171.855 74.5607 172.388C74.9844 172.964 75.3049 173.614 75.7105 174.204C76.2674 175.087 76.8811 175.933 77.5478 176.736C78.888 178.231 80.7331 179.178 82.7288 179.396C84.7246 179.614 86.7304 179.087 88.3616 177.917C89.1442 177.31 89.89 176.658 90.5947 175.963C91.124 175.476 91.58 174.911 92.1263 174.455C92.6647 173.987 93.2539 173.581 93.883 173.245C94.5756 172.888 95.3685 172.774 96.1334 172.923C96.8983 173.072 97.5906 173.475 98.0983 174.066C98.4645 174.479 98.773 174.94 99.0155 175.435C99.3485 176.12 99.61 176.854 99.9158 177.56C100.171 178.228 100.472 178.877 100.816 179.503C101.56 180.809 102.773 181.782 104.209 182.223C105.181 182.545 106.218 182.617 107.225 182.432C108.232 182.247 109.176 181.811 109.97 181.164C110.65 180.602 111.284 179.987 111.865 179.323C112.428 178.721 112.905 178.039 113.463 177.449C114.991 175.792 116.843 175.046 119.109 175.525C120.287 175.771 121.019 176.567 121.556 177.555C121.574 177.658 121.57 177.763 121.545 177.864C121.52 177.966 121.474 178.061 121.41 178.143C121.376 178.187 121.332 178.223 121.283 178.248C121.233 178.273 121.179 178.287 121.123 178.289C121.068 178.291 121.012 178.281 120.961 178.259C120.91 178.237 120.865 178.204 120.827 178.163C120.545 177.901 120.281 177.619 120.039 177.319C119.671 176.901 119.164 176.63 118.612 176.554C117.797 176.389 116.95 176.497 116.202 176.862C116.075 176.925 116.009 177.107 115.907 177.24C116.017 177.375 116.141 177.498 116.277 177.607C117.437 178.458 118.379 179.572 119.024 180.858C119.418 181.582 119.816 182.307 120.25 183.007C121.132 184.417 122.361 185.576 123.82 186.373C125.542 187.356 127.467 187.933 129.446 188.06V188.06Z" fill="black"/>
<path d="M115.712 96.1997C115.507 98.7125 114.356 101.054 112.49 102.749C111.501 103.716 110.274 104.405 108.934 104.748C107.594 105.09 106.188 105.074 104.856 104.7C103.863 104.447 102.938 103.978 102.148 103.326C101.357 102.673 100.721 101.854 100.284 100.927C97.4063 95.3405 100.789 88.937 105.627 87.307C107.388 86.6982 109.312 86.7649 111.026 87.4942C112.74 88.2234 114.122 89.5633 114.905 91.2539C115.662 92.785 115.943 94.5075 115.712 96.1997V96.1997ZM100.339 95.9736C100.21 97.1658 100.374 98.3714 100.816 99.4861C101.283 100.913 102.238 102.131 103.512 102.924C104.238 103.308 105.002 103.613 105.791 103.836C105.997 103.909 106.373 104.039 106.45 103.653C106.463 103.543 106.215 103.333 106.046 103.232C105.718 103.042 105.336 102.928 105.024 102.703C104.553 102.414 104.152 102.025 103.849 101.563C103.546 101.101 103.35 100.578 103.273 100.032C103.219 99.7325 103.25 99.424 103.364 99.1421C103.478 98.8602 103.67 98.6163 103.917 98.4386C104.178 98.2381 104.491 98.093 104.737 97.8866C104.876 97.7551 104.982 97.593 105.047 97.4134C105.112 97.2337 105.134 97.0413 105.111 96.8517C105.088 96.662 105.022 96.4802 104.917 96.3208C104.811 96.1614 104.67 96.0287 104.505 95.9334C104.248 95.8196 103.984 95.7206 103.715 95.637C102.719 95.2427 102.466 94.7278 102.805 93.7089C102.925 93.3429 103.093 92.9941 103.303 92.6711C103.7 92.0787 104.133 91.5316 104.571 90.9439C104.804 90.6413 105.082 90.3686 105.323 90.067C105.444 89.954 105.525 89.8045 105.553 89.6414C105.581 89.4782 105.556 89.3102 105.48 89.163C105.326 88.8901 104.847 88.835 104.431 89.0837C104.006 89.3349 103.605 89.6267 103.236 89.9549C101.619 91.4939 100.671 93.3691 100.355 95.9755L100.339 95.9736Z" fill="black"/>
<path d="M76.3585 101.502C73.2868 101.223 71.3056 99.7649 70.0893 97.3447C67.4061 92.0353 70.4484 85.5804 75.4703 83.8603C77.1209 83.2781 78.9235 83.2935 80.564 83.9039C82.2044 84.5143 83.5786 85.6809 84.4472 87.2005C87.2328 92.0484 84.9776 98.4949 80.2193 100.752C79.0324 101.371 77.691 101.631 76.3585 101.502V101.502ZM70.2389 92.0642C70.0753 93.4813 70.2639 94.9169 70.788 96.2436C71.3503 97.7584 72.4595 99.0077 73.897 99.7455C74.5786 100.083 75.2777 100.447 76.0835 100.384C76.1321 100.378 76.1785 100.36 76.2189 100.333C76.2593 100.305 76.2926 100.268 76.3158 100.225C76.3254 100.174 76.3226 100.121 76.3075 100.072C76.2924 100.022 76.2656 99.9765 76.2292 99.9393C75.8921 99.7565 75.5286 99.6242 75.2005 99.4342C74.3174 98.9613 73.6405 98.1783 73.3002 97.236C72.9265 96.1887 73.1613 95.4706 74.0683 94.8133C74.3 94.6717 74.5184 94.5094 74.7208 94.3284C74.8432 94.1976 74.9339 94.0405 74.9859 93.8691C75.0379 93.6977 75.0499 93.5166 75.0208 93.3399C74.9918 93.1632 74.9226 92.9954 74.8185 92.8497C74.7144 92.7039 74.5783 92.584 74.4205 92.4992C74.0824 92.3246 73.6966 92.2432 73.3431 92.0956C73.0523 91.9967 72.8113 91.7885 72.6714 91.515C72.5314 91.2415 72.5034 90.9243 72.5934 90.6305C72.698 90.204 72.867 89.7959 73.0946 89.4203C73.503 88.7674 73.9723 88.1586 74.4338 87.5447C74.6966 87.1921 75.0125 86.8785 75.2829 86.5308C75.3985 86.4113 75.4662 86.2535 75.4731 86.0874C75.4801 85.9212 75.4258 85.7583 75.3206 85.6296C75.1928 85.5219 75.0321 85.4609 74.865 85.4567C74.6979 85.4525 74.5343 85.5052 74.4012 85.6063C74.0146 85.8162 73.6497 86.0638 73.3119 86.3456C71.6229 87.812 70.5297 89.8464 70.2389 92.0642V92.0642Z" fill="black"/>
<path d="M90.2784 114.746C88.3581 114.591 86.5475 113.788 85.1435 112.469C84.3148 111.729 83.7631 110.729 83.5797 109.634C83.2594 107.584 84.5846 106.045 86.6617 106.131C87.1557 106.16 87.6446 106.248 88.1177 106.393C90.0226 106.953 92.0099 107.182 93.9923 107.068C94.8742 106.967 95.7651 107.148 96.5388 107.582C97.005 107.829 97.3842 108.213 97.6248 108.683C97.8654 109.152 97.9559 109.684 97.8839 110.207C97.8278 110.784 97.6518 111.343 97.3669 111.849C97.082 112.354 96.6947 112.794 96.2297 113.141C94.7361 114.297 92.8798 114.885 90.9927 114.799C90.7083 114.767 90.4356 114.739 90.2784 114.746ZM86.1057 111.904C87.4723 112.979 88.875 113.741 90.5028 113.796C91.9053 113.842 93.3445 113.711 94.537 112.79C93.2676 110.582 88.4047 109.842 86.1076 111.888L86.1057 111.904Z" fill="black"/>
<path d="M145.342 93.4896C145.521 94.0753 145.567 94.6939 145.476 95.2997C145.455 95.5674 145.37 95.8262 145.229 96.0542C145.087 96.2823 144.892 96.4728 144.661 96.6098C144.43 96.7468 144.17 96.8262 143.902 96.8412C143.634 96.8563 143.366 96.8066 143.121 96.6964C142.556 96.4564 142.037 96.1181 141.589 95.6972C140.338 94.5902 139.083 93.4746 137.902 92.2853C136.137 90.5801 134.221 89.0375 132.179 87.6763C125.972 83.3907 119.186 80.0125 112.025 77.6436C109.448 76.7631 106.84 75.9929 104.202 75.3332L104.504 74.133C106.436 74.6101 108.359 75.1342 110.272 75.7051C117.482 77.871 124.201 81.0837 130.648 84.9154C134.561 87.3108 138.166 90.1757 141.383 93.4465C141.941 94.0005 142.489 94.5697 143.068 95.0849C143.325 95.2585 143.604 95.3984 143.897 95.5011C144.464 94.7924 144.206 94.1371 143.989 93.5153C143.121 90.9223 142.055 88.3998 140.801 85.9704C140.625 85.6414 140.464 85.3143 140.254 84.9938L141.398 84.4624C143.183 87.2319 144.308 90.3453 145.342 93.4896Z" fill="black"/>
<path d="M144.009 93.5061C144.226 94.1278 144.482 94.7953 143.917 95.4919C143.624 95.3892 143.345 95.2493 143.088 95.0756C142.501 94.5595 141.977 93.9931 141.403 93.4373C138.189 90.1705 134.587 87.3088 130.679 84.9157C124.232 81.0839 117.493 77.8689 110.303 75.7054C108.393 75.132 106.471 74.608 104.536 74.1333C102.359 73.5869 100.173 73.0848 97.9782 72.5939C95.0492 71.9324 92.1091 71.8705 89.1492 71.8722C86.3674 71.8655 83.5697 71.89 80.7873 72.0315C74.265 72.3418 67.802 73.4205 61.5325 75.2453C59.9855 75.7057 58.4186 76.1226 56.8863 76.634C52.6035 78.1024 48.5088 80.0707 44.6871 82.4982C44.0706 82.8843 43.45 83.27 42.8133 83.6167C42.5404 83.7184 42.2561 83.7867 41.9667 83.82C41.9105 83.5213 41.7926 83.2937 41.8461 83.1146C41.9772 82.6326 42.1688 82.1692 42.4161 81.7352C43.7916 79.4988 45.3324 77.3683 47.0257 75.3616C49.4224 72.6073 52.4578 70.4826 55.8661 69.1734C59.1984 67.8915 62.6406 66.9159 66.1499 66.2588C71.0724 65.2719 76.0589 64.6368 81.0716 64.3584C85.868 64.0366 90.6846 64.1899 95.4508 64.8161C96.4998 64.9654 97.5594 65.0583 98.6116 65.1791C103.154 65.7803 107.631 66.7974 111.986 68.2177L112.84 68.4927C117.448 69.9466 121.945 71.7314 126.296 73.8334C129.431 75.295 132.399 77.0905 135.148 79.1887C137.192 80.7875 138.93 82.7428 140.277 84.9601C140.467 85.2783 140.647 85.6077 140.824 85.9367C142.079 88.3741 143.143 90.9048 144.009 93.5061V93.5061ZM140.914 90.8496C140.959 90.754 140.983 90.65 140.984 90.5443C140.986 90.4387 140.965 90.334 140.922 90.2372C140.814 90.0406 140.663 89.8702 140.482 89.738C138.956 88.4349 137.498 87.0449 135.877 85.8543C131.443 82.5617 126.655 79.7763 121.6 77.5503C118.456 76.1168 115.238 74.85 111.96 73.7552C109.139 72.8632 106.26 72.2032 103.395 71.4872C99.3266 70.4703 95.1666 69.8657 90.9773 69.6823C88.6384 69.5825 86.2942 69.6714 83.9509 69.6451C80.2689 69.613 76.5906 69.8914 72.9554 70.4775C67.7165 71.2918 62.5368 72.3434 57.5152 74.0965C53.906 75.2892 50.4207 76.8285 47.1082 78.6929C46.7613 78.8722 46.4302 79.0806 46.1187 79.3161C46.0461 79.3934 45.9917 79.4859 45.9595 79.5869C45.9272 79.6878 45.9179 79.7948 45.9323 79.8998C45.9488 79.9682 45.9803 80.0322 46.0245 80.087C46.0686 80.1419 46.1243 80.1864 46.1876 80.2172C46.2509 80.2481 46.3203 80.2646 46.3907 80.2656C46.4611 80.2665 46.5308 80.252 46.595 80.2229C47.0656 80.0528 47.5217 79.845 47.9588 79.6015C52.1591 77.3887 56.5769 75.6158 61.1417 74.3113C65.4871 73.0771 69.9175 72.1647 74.3969 71.5816C77.604 71.1627 80.8339 70.9411 84.0682 70.9182C87.7811 70.8465 91.4274 71.0677 95.0767 71.3345C98.7434 71.9162 102.348 72.5401 105.949 73.4435C109.58 74.319 113.145 75.4533 116.615 76.8378C121.207 78.7154 125.726 80.7656 129.945 83.4195C133.233 85.4316 136.345 87.7168 139.25 90.2509C139.579 90.547 139.944 90.8018 140.336 91.0096C140.435 91.0311 140.538 91.0275 140.635 90.9992C140.733 90.9708 140.821 90.9186 140.894 90.8473L140.914 90.8496Z" fill="#32BAE2"/>
<path d="M140.906 90.2359C140.949 90.3327 140.97 90.4374 140.968 90.543C140.967 90.6487 140.943 90.7527 140.898 90.8483C140.822 90.9194 140.729 90.97 140.628 90.9951C140.527 91.0203 140.422 91.0192 140.321 90.992C139.93 90.7842 139.565 90.5295 139.235 90.2334C136.331 87.6992 133.219 85.414 129.931 83.4019C125.708 80.7435 121.193 78.6938 116.601 76.8203C113.131 75.4358 109.566 74.3014 105.934 73.4259C102.333 72.5225 98.7292 71.8986 95.0625 71.317C91.4131 71.0502 87.7465 70.8266 84.0539 70.9006C80.8196 70.9235 77.5897 71.1451 74.3826 71.564C69.9032 72.1472 65.4728 73.0596 61.1274 74.2938C56.5626 75.5983 52.1448 77.3711 47.9445 79.584C47.5074 79.8274 47.0512 80.0352 46.5806 80.2053C46.5165 80.2344 46.4468 80.249 46.3764 80.248C46.3059 80.247 46.2366 80.2305 46.1733 80.1996C46.11 80.1688 46.0543 80.1243 46.0102 80.0695C45.9661 80.0146 45.9346 79.9507 45.918 79.8822C45.9036 79.7772 45.9129 79.6703 45.9451 79.5693C45.9774 79.4683 46.0318 79.3758 46.1044 79.2985C46.416 79.0631 46.747 78.8546 47.0939 78.6754C50.4065 76.8109 53.8917 75.2716 57.5009 74.079C62.5225 72.3259 67.7022 71.2742 72.9411 70.4599C76.5764 69.8738 80.2546 69.5954 83.9367 69.6276C86.2799 69.6538 88.6241 69.5649 90.963 69.6648C95.1522 69.8481 99.3124 70.4528 103.38 71.4696C106.245 72.1856 109.125 72.8456 111.945 73.7376C115.215 74.8377 118.424 76.109 121.56 77.5462C126.614 79.7722 131.403 82.5576 135.837 85.8502C137.449 87.0398 138.916 88.4307 140.441 89.7338C140.632 89.8641 140.791 90.0358 140.906 90.2359V90.2359Z" fill="black"/>
<path d="M141.398 84.4431L140.255 84.9745C138.907 82.7572 137.17 80.8019 135.126 79.2031C132.376 77.1049 129.408 75.3094 126.274 73.8478C121.923 71.7458 117.426 69.9609 112.817 68.5071L113.201 67.3163C118.692 69.0059 124.018 71.191 129.114 73.8447C132.61 75.6622 135.872 77.7616 138.593 80.6303C138.758 80.756 138.938 80.861 139.129 80.943C139.169 80.5895 139.219 80.3359 139.228 80.0817L140.483 80.1188C140.456 80.3544 140.469 80.6029 140.462 80.8408C140.393 82.1096 140.721 83.3683 141.398 84.4431Z" fill="black"/>
<path d="M140.478 80.1013L139.222 80.0641C139.282 76.321 139.385 72.587 139.366 68.8472C139.335 65.6624 138.939 62.4916 138.188 59.3967C136.422 51.9369 132.547 45.8566 126.424 41.2222C121.88 37.7778 116.711 35.5788 111.267 33.9822C109.073 33.3432 106.847 32.7953 104.61 32.3119C102.048 31.7502 99.4882 31.1722 96.8317 31.2211C94.6006 31.2571 92.3654 31.1856 90.1331 31.1968C85.4997 31.1983 80.8878 31.8247 76.4219 33.0592C66.725 35.7736 59.6205 41.5767 55.3199 50.7437C53.7612 54.1461 52.5842 57.7108 51.8106 61.3724C51.3899 63.2793 50.961 65.1853 50.5484 67.0932C50.4216 67.696 50.3191 68.3017 50.2044 68.906C50.0897 69.5103 49.9749 70.0445 49.8167 70.8126C50.3022 70.5637 50.6084 70.4425 50.8754 70.2674C53.1527 68.8477 55.6057 67.7318 58.1721 66.9479C63.6127 65.2018 69.2107 64.2352 74.8658 63.5963C78.1312 63.2035 81.4154 62.9871 84.7041 62.948C86.9355 62.8751 89.1691 62.9337 91.3935 63.1235C94.3349 63.4613 97.282 63.7504 100.218 64.137C102.154 64.3914 104.075 64.7495 105.973 65.2096C108.406 65.8142 110.809 66.5389 113.202 67.2748L112.819 68.4656L111.965 68.1906C107.609 66.7704 103.132 65.7532 98.5905 65.1521C97.5383 65.0312 96.4819 64.9099 95.4297 64.789C90.6634 64.1628 85.847 64.0095 81.0505 64.3313C76.0378 64.6098 71.0513 65.2448 66.1288 66.2317C62.6195 66.8889 59.1773 67.8644 55.845 69.1463C52.4367 70.4555 49.4013 72.5803 47.0046 75.3345C45.3113 77.3412 43.7705 79.4717 42.395 81.7081C42.1476 82.1421 41.9561 82.6055 41.8249 83.0875C41.7714 83.2666 41.888 83.5064 41.9456 83.7929C42.235 83.7596 42.5193 83.6913 42.7922 83.5896C43.428 83.251 44.0495 82.8573 44.666 82.4712C48.4877 80.0436 52.5823 78.0753 56.8651 76.607C58.3975 76.0955 59.9643 75.6786 61.5114 75.2183C67.7809 73.3934 74.2438 72.3147 80.7661 72.0044C83.5485 71.8629 86.3482 71.8222 89.1282 71.8451C92.088 71.8434 95.0282 71.9053 97.9571 72.5669C100.152 73.0577 102.338 73.5599 104.515 74.1062L104.212 75.3064C102.611 74.9085 101.039 74.5508 99.4448 74.2361C97.2609 73.7674 95.0465 73.4539 92.8183 73.298C90.0857 73.1488 87.352 73.0818 84.6033 73.1448C77.0124 73.2523 69.4673 74.3407 62.1556 76.3831C58.4012 77.4406 54.7483 78.8297 51.2399 80.5341C49.2895 81.4956 47.4301 82.6322 45.5254 83.6977C45.0371 83.971 44.573 84.284 44.0816 84.5486C43.7415 84.7397 43.3843 84.8985 43.0146 85.0229C41.373 85.5177 40.1954 84.481 40.5295 82.7905C40.6403 82.2459 40.8493 81.7259 41.1462 81.256C43.0131 78.3338 44.9331 75.4506 47.4435 73.0181C47.9353 72.5685 48.2717 71.9744 48.404 71.3213C49.0746 67.872 49.791 64.4294 50.5534 60.9934C51.7417 55.5564 53.5962 50.377 56.651 45.6772C59.7942 40.8167 64.1992 36.902 69.3951 34.3514C74.0932 32.0096 79.1185 30.8332 84.3074 30.2396C87.1371 29.9509 89.9804 29.8172 92.8247 29.8388C93.0023 29.8252 93.1782 29.7944 93.3498 29.7468C93.4409 29.55 93.5179 29.347 93.5801 29.1394C93.9492 27.6464 95.063 26.9798 96.4192 26.6046C96.5292 26.5839 96.6408 26.5719 96.7527 26.5688C99.0331 26.3119 101.342 26.5771 103.505 27.3443C105.104 27.9395 106.124 29.0159 106.053 30.8559C106.07 31.0025 106.109 31.1458 106.169 31.2808C107.075 31.5249 108.031 31.8075 109 32.0382C114.335 33.2595 119.446 35.3091 124.146 38.1122C132.122 42.9634 137.256 49.9087 139.472 59.0009C140.481 63.4153 140.901 67.944 140.72 72.4687C140.643 75.0037 140.553 77.5495 140.478 80.1013ZM104.544 30.765C104.676 29.6233 104.107 29.0229 103.191 28.683C101.146 27.9173 98.9447 27.6645 96.7796 27.9467C96.4476 27.9833 96.1264 28.0864 95.8351 28.2499C95.5453 28.3786 95.3108 28.6065 95.1739 28.8925C95.0369 29.1786 95.0064 29.5041 95.0878 29.8106C96.6935 29.8797 98.2472 29.9347 99.7977 30.0181C101.348 30.1015 102.888 30.8835 104.544 30.765Z" fill="black"/>
<path d="M139.219 80.0644C139.214 80.3191 139.161 80.5723 139.12 80.9257C138.929 80.8438 138.749 80.7388 138.584 80.6131C135.863 77.7444 132.569 75.6413 129.105 73.8275C124.01 71.1738 118.683 68.9887 113.192 67.2991C110.808 66.5559 108.397 65.8303 105.963 65.2338C104.065 64.7737 102.144 64.4157 100.208 64.1612C97.2737 63.7584 94.3248 63.4856 91.3834 63.1478C89.159 62.958 86.9253 62.8993 84.694 62.9723C81.4053 63.0114 78.1211 63.2278 74.8557 63.6206C69.2006 64.2595 63.6044 65.2098 58.1619 66.9722C55.5955 67.756 53.1425 68.872 50.8653 70.2916C50.5982 70.4667 50.292 70.588 49.8065 70.8368C49.9647 70.0688 50.0797 69.4975 50.1943 68.9303C50.3088 68.363 50.4115 67.7203 50.5383 67.1174C50.955 65.21 51.3879 63.3045 51.8004 61.3967C52.574 57.735 53.751 54.1704 55.3098 50.768C59.6104 41.601 66.7148 35.7979 76.4117 33.0834C80.8776 31.849 85.4896 31.2225 90.1229 31.221C92.3553 31.2099 94.5905 31.2813 96.8215 31.2453C99.478 31.1964 102.038 31.7744 104.6 32.3362C106.837 32.8195 109.063 33.3674 111.257 34.0064C116.702 35.5909 121.857 37.8006 126.413 41.2465C132.537 45.8809 136.412 51.9611 138.177 59.4209C138.929 62.5159 139.325 65.6867 139.356 68.8715C139.382 72.5874 139.277 76.3294 139.219 80.0644ZM107.301 48.6342C108.165 46.3419 107.445 44.4438 105.392 43.533C104.468 43.0925 103.441 42.9128 102.421 43.0134C101.402 43.114 100.43 43.491 99.6092 44.1037C99.1614 44.4187 98.7075 44.7864 98.2537 45.1541C97.8908 44.7296 97.5794 44.3234 97.2407 43.9388C96.6226 43.1871 95.823 42.6054 94.9176 42.2486C94.0122 41.8918 93.0308 41.7717 92.0661 41.8996C89.8487 42.1389 88.5826 43.5577 88.5713 45.771C88.5938 47.3514 89.2329 48.8606 90.3522 49.9766C92.1382 51.8759 94.3356 53.3407 96.7759 54.2584C97.034 54.3595 97.3141 54.3916 97.5884 54.3518C100.22 54.0041 102.734 53.0484 104.931 51.5604C106.006 50.8549 106.834 49.8321 107.301 48.6342V48.6342Z" fill="#64CCF5"/>
<path d="M105.392 43.5332C107.444 44.444 108.165 46.342 107.301 48.6343C106.827 49.8346 105.99 50.8567 104.907 51.5578C102.709 53.0458 100.195 54.0015 97.5638 54.3491C97.2894 54.389 97.0094 54.3568 96.7513 54.2558C94.311 53.338 92.1135 51.8732 90.3276 49.9739C89.2083 48.8579 88.5692 47.3488 88.5467 45.7683C88.5644 43.5352 89.8241 42.1362 92.0415 41.897C93.0062 41.769 93.9877 41.8891 94.8931 42.2459C95.7985 42.6027 96.598 43.1844 97.2161 43.9361C97.5548 44.3207 97.8784 44.7284 98.2291 45.1515C98.7064 44.7947 99.135 44.4323 99.5847 44.1011C100.408 43.4842 101.385 43.105 102.409 43.0048C103.433 42.9047 104.465 43.0875 105.392 43.5332V43.5332Z" fill="#A2DDF3"/>
</g>
<mask id="mask1_1016_354586" style="mask-type:alpha" maskUnits="userSpaceOnUse" x="33" y="16" width="137" height="125">
<path d="M70.8321 19.4228C79.3396 11.346 126.566 24.7427 129.443 25.7855C138.881 38.6615 159.643 68.4455 167.19 84.5732C176.624 104.733 156.66 122.608 155.468 125.896C154.515 128.526 138.621 135.6 130.793 138.808C111.782 139.513 73.0127 140.931 70.0246 140.964C67.0366 140.997 53.9829 135.614 47.8296 132.919L40.4205 120.003C38.2744 103.26 33.9369 69.3851 33.756 67.8315C33.5299 65.8894 62.3245 27.4996 70.8321 19.4228Z" fill="#C4C4C4"/>
</mask>
<g mask="url(#mask1_1016_354586)">
<path d="M80.709 50.4321C82.8628 49.982 85.0512 49.7169 87.2502 49.6398C88.7895 49.5696 90.3267 49.4827 91.8637 49.4328C93.7303 49.3663 95.5993 49.4256 97.4579 49.6102C100.661 49.9287 103.705 50.8381 106.77 51.7129C107.986 52.0584 109.181 52.4755 110.384 52.8648C114.195 54.0887 117.603 56.1019 120.866 58.3701C123.1 59.8857 125.182 61.615 127.081 63.5337C130.8 67.399 133.626 72.033 135.36 77.1092C136.831 81.4404 137.654 85.9653 137.802 90.5372C137.931 93.7274 137.899 96.922 137.707 100.109C137.475 104.178 137.344 108.251 137.128 112.317C137.003 114.847 136.832 117.375 136.669 119.904C136.464 123.367 136.252 126.83 136.06 130.294C135.945 132.325 135.848 134.359 135.771 136.394C135.457 145.295 136.092 154.102 138.22 162.777C138.93 165.662 139.635 168.55 140.219 171.461C140.96 175.047 140.601 178.774 139.189 182.152C137.379 186.547 133.405 188.317 129.454 188.061C127.469 187.934 125.539 187.355 123.812 186.367C122.353 185.57 121.124 184.411 120.243 183.002C119.808 182.302 119.41 181.577 119.016 180.852C118.371 179.567 117.429 178.452 116.269 177.602C116.133 177.493 116.009 177.37 115.9 177.234C116.003 177.09 116.069 176.908 116.194 176.857C116.942 176.492 117.789 176.383 118.604 176.549C119.156 176.624 119.663 176.896 120.031 177.314C120.273 177.614 120.537 177.896 120.819 178.157C120.857 178.199 120.902 178.232 120.953 178.253C121.005 178.275 121.06 178.286 121.115 178.284C121.171 178.282 121.225 178.268 121.275 178.243C121.324 178.217 121.368 178.182 121.402 178.138C121.466 178.055 121.512 177.96 121.537 177.859C121.562 177.758 121.566 177.652 121.548 177.55C121.013 176.546 120.28 175.757 119.101 175.519C116.835 175.041 114.983 175.787 113.455 177.443C112.896 178.05 112.418 178.732 111.857 179.318C111.276 179.982 110.642 180.597 109.962 181.158C109.168 181.805 108.224 182.242 107.217 182.427C106.21 182.612 105.173 182.54 104.201 182.217C102.765 181.776 101.552 180.804 100.808 179.498C100.464 178.872 100.163 178.222 99.9079 177.555C99.6021 176.849 99.3487 176.116 99.0076 175.43C98.7642 174.937 98.4554 174.479 98.0895 174.069C97.5818 173.478 96.8895 173.075 96.1245 172.926C95.3596 172.777 94.5668 172.89 93.8742 173.248C93.2451 173.584 92.6559 173.99 92.1174 174.458C91.5711 174.914 91.1152 175.479 90.5859 175.965C89.8864 176.659 89.1463 177.311 88.3695 177.917C86.7411 179.085 84.7395 179.612 82.7472 179.397C80.755 179.181 78.912 178.239 77.5705 176.751C76.9038 175.947 76.2901 175.101 75.7332 174.218C75.3276 173.628 75.0071 172.978 74.5834 172.403C74.1945 171.87 73.7515 171.379 73.2615 170.938C72.6387 170.38 71.8377 170.063 71.002 170.042C70.1663 170.022 69.3506 170.299 68.7012 170.826C68.269 171.164 67.8777 171.551 67.5354 171.98C67.0545 172.584 66.6497 173.241 66.2052 173.886C65.6651 174.718 64.9936 175.457 64.2168 176.073C62.9694 177.01 61.4122 177.435 59.862 177.264C58.3118 177.093 56.8851 176.338 55.8719 175.152C55.2598 174.373 54.7162 173.542 54.2471 172.669C53.8306 171.958 53.5246 171.182 53.1113 170.48C52.0236 168.589 50.4449 167.461 48.1922 167.363C46.9631 167.312 46.0745 167.881 45.2957 168.677C45.2569 168.715 45.2263 168.761 45.2057 168.812C45.185 168.863 45.1747 168.917 45.1754 168.972C45.1629 169.132 45.2039 169.291 45.292 169.426C45.3478 169.478 45.4155 169.516 45.4893 169.536C45.5631 169.556 45.6407 169.557 45.7152 169.54C46.0165 169.408 46.3 169.238 46.5593 169.036C46.9487 168.728 47.4146 168.532 47.907 168.469C48.3995 168.406 48.8998 168.478 49.3543 168.678C49.8045 168.871 50.2379 169.101 50.6501 169.366C50.6885 169.404 50.7178 169.451 50.7357 169.502C50.7536 169.553 50.7597 169.608 50.7535 169.662C50.7473 169.716 50.729 169.767 50.6999 169.813C50.6709 169.859 50.6318 169.898 50.5857 169.926C50.3893 170.023 50.1862 170.107 49.9827 170.195C49.0245 170.624 48.1645 171.246 47.4555 172.02C46.8548 172.663 46.2649 173.32 45.6677 173.968C44.0834 175.68 41.9687 176.809 39.6644 177.172C37.4925 177.605 35.244 177.442 33.1572 176.701C29.8338 175.496 27.8049 173.126 27.0507 169.693C26.5892 167.619 26.7048 165.537 26.9736 163.448C27.21 161.644 27.7353 159.889 28.5295 158.251C29.7423 155.72 30.9771 153.2 32.234 150.691C34.7934 145.629 36.8639 140.334 38.4174 134.878C39.8431 129.731 40.9923 124.511 41.86 119.241C42.5931 114.9 43.3105 110.553 44.0604 106.21C44.6607 102.739 45.2936 99.2715 45.9219 95.8078C46.4617 92.8279 46.9858 89.842 47.582 86.8726C48.398 82.483 49.6541 78.1866 51.3312 74.0487C53.9478 67.643 58.2278 62.0524 63.7288 57.8548C65.4963 56.5354 67.3895 55.3934 69.381 54.4453C72.985 52.6643 76.7876 51.3172 80.709 50.4321Z" fill="white"/>
<path d="M138.803 100.766C138.665 103.294 138.585 105.824 138.471 108.355C138.384 110.226 138.297 112.093 138.185 113.966C138.001 116.929 137.783 119.897 137.607 122.865C137.448 125.613 137.318 128.36 137.183 131.11C137.094 132.924 137.021 134.739 136.945 136.554C136.505 146.023 137.498 155.504 139.889 164.677C140.495 166.961 140.974 169.28 141.419 171.603C142.096 175.199 141.73 178.914 140.363 182.308C137.891 188.672 131.652 190.055 127.002 188.825C125.284 188.408 123.657 187.68 122.202 186.676C120.64 185.532 119.374 184.03 118.511 182.297C118.139 181.56 117.729 180.842 117.284 180.147C116.771 179.289 116.012 178.605 115.105 178.184C114.959 178.107 114.791 178.082 114.628 178.112C114.465 178.143 114.317 178.228 114.209 178.353C113.834 178.751 113.496 179.189 113.12 179.591C112.442 180.336 111.796 181.085 111.067 181.734C110.219 182.507 109.202 183.071 108.096 183.378C106.991 183.686 105.829 183.73 104.703 183.506C103.578 183.283 102.52 182.797 101.617 182.09C100.713 181.383 99.9885 180.473 99.501 179.434C99.1877 178.793 98.9617 178.109 98.6747 177.454C98.3944 176.737 98.0616 176.041 97.6789 175.372C96.7563 173.908 95.2906 173.587 93.8383 174.548C93.1727 175.036 92.5465 175.575 91.9654 176.161C91.2381 176.83 90.5693 177.565 89.8159 178.211C87.3831 180.29 84.5753 180.832 81.477 180.176C79.1811 179.722 77.1565 178.382 75.8421 176.445C75.1809 175.501 74.6052 174.492 73.9575 173.537C73.6072 172.977 73.1978 172.457 72.7362 171.985C72.5013 171.728 72.2157 171.523 71.8976 171.382C71.5794 171.241 71.2355 171.168 70.8877 171.167C70.5398 171.166 70.1954 171.236 69.8762 171.375C69.557 171.513 69.2699 171.716 69.0331 171.971C68.4732 172.575 67.9577 173.219 67.4906 173.897C67.0585 174.469 66.6836 175.081 66.2291 175.634C65.5226 176.52 64.6195 177.231 63.5912 177.709C62.5629 178.186 61.4376 178.418 60.3042 178.386C59.1707 178.354 58.0603 178.059 57.0605 177.524C56.0608 176.989 55.1991 176.229 54.5437 175.304C54.01 174.539 53.5484 173.72 53.0812 172.913C52.8025 172.437 52.5895 171.927 52.3234 171.447C51.9592 170.784 51.7143 170.694 50.9719 170.922C50.0774 171.212 49.2691 171.72 48.6204 172.401C48.0424 172.989 47.5049 173.619 46.9567 174.235C43.5995 178.019 39.2978 179.168 34.5237 178.228C29.3214 177.219 26.1535 173.62 25.6966 168.101C25.5855 166.738 25.6742 165.357 25.6716 163.982C25.925 162.006 26.4723 160.079 27.2954 158.266C28.529 155.625 29.8017 153.002 31.1134 150.397C33.933 144.852 36.1536 139.022 37.7376 133.005C38.8819 128.633 39.8288 124.224 40.5783 119.777C41.4302 114.725 42.342 109.688 43.2259 104.645C43.9733 100.359 44.6761 96.068 45.4799 91.793C46.1179 88.388 46.7691 84.9762 47.612 81.6153C49.2456 75.0975 51.8309 69.0018 56.0865 63.703C59.6029 59.2226 64.1195 55.6278 69.2747 53.2063C72.9486 51.4401 76.8161 50.1092 80.7989 49.2404C82.9051 48.833 85.0378 48.5772 87.1806 48.475C88.9341 48.3677 90.6941 48.3476 92.4539 48.2574C95.5916 48.096 98.7359 48.3975 101.786 49.1522C104.989 49.9317 108.176 50.8575 111.278 51.9506C115.044 53.2723 118.448 55.2891 121.697 57.5722C124.109 59.2205 126.341 61.1173 128.357 63.2315C131.991 67.1759 134.754 71.8409 136.466 76.9233C137.959 81.4213 138.786 86.1135 138.921 90.8508C139.083 94.1707 138.98 97.4684 138.803 100.766ZM129.453 188.061C133.412 188.318 137.386 186.547 139.187 182.152C140.607 178.777 140.975 175.052 140.242 171.464C139.658 168.553 138.953 165.664 138.242 162.779C136.114 154.105 135.479 145.297 135.794 136.397C135.863 134.363 135.959 132.33 136.083 130.297C136.275 126.832 136.467 123.368 136.691 119.907C136.842 117.376 137.013 114.848 137.151 112.32C137.351 108.251 137.481 104.179 137.73 100.112C137.922 96.9245 137.954 93.7299 137.825 90.5397C137.677 85.9678 136.854 81.4429 135.383 77.1117C133.649 72.0356 130.823 67.4015 127.104 63.5362C125.203 61.6172 123.12 59.8877 120.884 58.3722C117.621 56.1039 114.214 54.0907 110.403 52.8668C109.212 52.479 108.025 52.0628 106.789 51.715C103.724 50.8402 100.68 49.9307 97.4766 49.6123C95.6179 49.4276 93.749 49.3684 91.8824 49.4349C90.3454 49.4848 88.8082 49.5717 87.2689 49.6419C85.0699 49.7189 82.8815 49.984 80.7276 50.4342C76.8049 51.3188 73.0009 52.6658 69.3956 54.4469C67.3986 55.3934 65.4999 56.5349 63.7272 57.8545C58.2262 62.0521 53.9462 67.6427 51.3296 74.0484C49.6537 78.1825 48.3981 82.4747 47.5818 86.8602C46.9856 89.8295 46.4615 92.8154 45.9217 95.7953C45.2934 99.2591 44.6605 102.726 44.0601 106.198C43.3103 110.541 42.5929 114.887 41.8597 119.228C40.9921 124.498 39.8429 129.718 38.4172 134.866C36.8717 140.321 34.8093 145.617 32.2581 150.681C30.9985 153.19 29.7637 155.71 28.5537 158.241C27.7607 159.886 27.2386 161.649 27.0075 163.46C26.7433 165.546 26.6232 167.631 27.0847 169.705C27.8511 173.14 29.8696 175.492 33.1912 176.713C35.278 177.454 37.5266 177.617 39.6985 177.184C42.0027 176.821 44.1174 175.692 45.7017 173.98C46.2988 173.332 46.8888 172.675 47.4896 172.032C48.1943 171.263 49.0481 170.646 49.9991 170.217C50.2026 170.129 50.4057 170.046 50.602 169.949C50.6482 169.92 50.6872 169.882 50.7163 169.836C50.7453 169.79 50.7637 169.738 50.7699 169.684C50.7761 169.63 50.77 169.576 50.752 169.524C50.7341 169.473 50.7049 169.427 50.6664 169.388C50.2493 169.115 49.8098 168.877 49.3526 168.678C48.8967 168.474 48.3936 168.399 47.898 168.461C47.4025 168.523 46.9334 168.72 46.5419 169.03C46.2826 169.232 45.999 169.402 45.6978 169.534C45.6233 169.551 45.5457 169.549 45.4719 169.529C45.3981 169.509 45.3304 169.472 45.2746 169.419C45.1865 169.285 45.1454 169.126 45.158 168.966C45.1573 168.911 45.1675 168.857 45.1882 168.806C45.2089 168.755 45.2395 168.709 45.2783 168.671C46.0747 167.865 46.9633 167.296 48.1748 167.357C50.4274 167.455 52.0061 168.583 53.0938 170.474C53.5053 171.192 53.8113 171.968 54.2297 172.662C54.6994 173.533 55.2433 174.361 55.8553 175.138C56.8685 176.323 58.2953 177.079 59.8455 177.25C61.3957 177.421 62.9528 176.995 64.2003 176.059C64.9771 175.442 65.6486 174.703 66.1887 173.871C66.6318 173.239 67.0407 172.582 67.5189 171.966C67.8613 171.537 68.2525 171.15 68.6847 170.811C69.3341 170.285 70.1498 170.007 70.9855 170.028C71.8212 170.048 72.6223 170.366 73.245 170.923C73.735 171.365 74.178 171.856 74.5669 172.388C74.9906 172.964 75.3111 173.614 75.7167 174.204C76.2736 175.087 76.8873 175.933 77.554 176.737C78.8943 178.231 80.7393 179.178 82.7351 179.396C84.7308 179.614 86.7367 179.087 88.3678 177.917C89.1505 177.311 89.8962 176.658 90.601 175.963C91.1302 175.476 91.5862 174.911 92.1325 174.455C92.671 173.987 93.2602 173.581 93.8892 173.245C94.5818 172.888 95.3747 172.775 96.1396 172.924C96.9046 173.073 97.5968 173.476 98.1046 174.067C98.4707 174.48 98.7793 174.94 99.0218 175.436C99.3548 176.12 99.6162 176.854 99.922 177.56C100.177 178.228 100.478 178.877 100.823 179.504C101.566 180.809 102.779 181.782 104.215 182.223C105.187 182.546 106.224 182.618 107.231 182.432C108.238 182.247 109.182 181.811 109.976 181.164C110.656 180.603 111.29 179.987 111.871 179.324C112.434 178.721 112.912 178.04 113.469 177.449C114.997 175.793 116.849 175.046 119.116 175.525C120.293 175.771 121.025 176.567 121.562 177.555C121.58 177.658 121.576 177.763 121.551 177.865C121.526 177.966 121.48 178.061 121.416 178.144C121.382 178.187 121.339 178.223 121.289 178.248C121.24 178.273 121.185 178.287 121.129 178.289C121.074 178.291 121.019 178.281 120.968 178.259C120.916 178.237 120.871 178.205 120.834 178.163C120.551 177.901 120.288 177.619 120.046 177.319C119.677 176.902 119.171 176.63 118.619 176.554C117.803 176.389 116.956 176.497 116.208 176.862C116.081 176.926 116.015 177.108 115.914 177.24C116.023 177.375 116.147 177.499 116.283 177.608C117.443 178.458 118.385 179.572 119.03 180.858C119.424 181.582 119.823 182.307 120.257 183.008C121.138 184.417 122.367 185.576 123.826 186.373C125.549 187.356 127.473 187.934 129.453 188.061V188.061Z" fill="black"/>
<path d="M115.718 96.2C115.514 98.7129 114.362 101.054 112.496 102.75C111.507 103.716 110.281 104.406 108.941 104.748C107.601 105.091 106.194 105.074 104.862 104.701C103.869 104.448 102.945 103.978 102.154 103.326C101.364 102.674 100.727 101.855 100.29 100.928C97.4126 95.3408 100.795 88.9373 105.633 87.3073C107.394 86.6985 109.318 86.7652 111.032 87.4945C112.746 88.2238 114.129 89.5636 114.911 91.2543C115.668 92.7853 115.949 94.5079 115.718 96.2V96.2ZM100.345 95.9739C100.216 97.1662 100.38 98.3717 100.822 99.4865C101.289 100.914 102.244 102.131 103.519 102.925C104.244 103.308 105.008 103.614 105.797 103.837C106.003 103.91 106.379 104.039 106.456 103.653C106.469 103.543 106.221 103.334 106.052 103.232C105.724 103.042 105.342 102.928 105.03 102.703C104.559 102.414 104.158 102.025 103.856 101.564C103.553 101.102 103.356 100.579 103.279 100.032C103.225 99.7328 103.257 99.4244 103.371 99.1425C103.485 98.8605 103.676 98.6166 103.923 98.4389C104.185 98.2385 104.498 98.0933 104.744 97.8869C104.882 97.7554 104.988 97.5934 105.053 97.4137C105.118 97.234 105.14 97.0417 105.117 96.852C105.095 96.6623 105.028 96.4805 104.923 96.3211C104.818 96.1617 104.676 96.0291 104.511 95.9338C104.254 95.8199 103.99 95.721 103.722 95.6373C102.726 95.243 102.472 94.7281 102.811 93.7092C102.932 93.3432 103.099 92.9944 103.309 92.6715C103.706 92.0791 104.14 91.532 104.578 90.9442C104.81 90.6416 105.088 90.369 105.329 90.0673C105.45 89.9543 105.531 89.8049 105.559 89.6417C105.588 89.4785 105.562 89.3106 105.486 89.1633C105.332 88.8904 104.853 88.8354 104.437 89.084C104.012 89.3353 103.612 89.627 103.242 89.9553C101.625 91.4942 100.677 93.3694 100.361 95.9758L100.345 95.9739Z" fill="black"/>
<path d="M76.3647 101.502C73.2931 101.224 71.3118 99.7652 70.0956 97.3451C67.4123 92.0356 70.4547 85.5808 75.4766 83.8606C77.1272 83.2784 78.9298 83.2938 80.5702 83.9042C82.2106 84.5146 83.5849 85.6813 84.4534 87.2009C87.2391 92.0487 84.9839 98.4952 80.2256 100.752C79.0386 101.371 77.6972 101.632 76.3647 101.502V101.502ZM70.2451 92.0646C70.0815 93.4816 70.2701 94.9172 70.7942 96.2439C71.3565 97.7587 72.4657 99.0081 73.9032 99.7459C74.5848 100.083 75.2839 100.448 76.0898 100.384C76.1383 100.378 76.1847 100.36 76.2251 100.333C76.2655 100.305 76.2988 100.268 76.3221 100.225C76.3317 100.174 76.3288 100.122 76.3138 100.072C76.2987 100.022 76.2718 99.9768 76.2355 99.9396C75.8984 99.7568 75.5348 99.6245 75.2068 99.4345C74.3236 98.9616 73.6467 98.1786 73.3064 97.2363C72.9327 96.1891 73.1675 95.471 74.0745 94.8136C74.3062 94.672 74.5246 94.5097 74.7271 94.3288C74.8494 94.198 74.9401 94.0408 74.9921 93.8694C75.0441 93.698 75.0561 93.517 75.0271 93.3402C74.9981 93.1635 74.9288 92.9958 74.8247 92.85C74.7207 92.7042 74.5845 92.5844 74.4267 92.4995C74.0887 92.3249 73.7029 92.2435 73.3494 92.0959C73.0585 91.997 72.8175 91.7888 72.6776 91.5153C72.5377 91.2418 72.5097 90.9246 72.5996 90.6308C72.7043 90.2043 72.8733 89.7962 73.1009 89.4206C73.5093 88.7677 73.9785 88.1589 74.4401 87.545C74.7029 87.1924 75.0187 86.8788 75.2892 86.5312C75.4047 86.4116 75.4724 86.2538 75.4793 86.0877C75.4863 85.9216 75.4321 85.7587 75.3269 85.6299C75.199 85.5222 75.0383 85.4612 74.8712 85.457C74.7041 85.4528 74.5406 85.5056 74.4074 85.6066C74.0208 85.8165 73.656 86.0642 73.3182 86.346C71.6291 87.8124 70.5359 89.8468 70.2451 92.0646V92.0646Z" fill="black"/>
<path d="M90.2847 114.746C88.3644 114.591 86.5538 113.788 85.1498 112.469C84.321 111.73 83.7693 110.73 83.5859 109.634C83.2656 107.585 84.5909 106.045 86.6679 106.131C87.162 106.16 87.6508 106.248 88.1239 106.393C90.0289 106.954 92.0161 107.182 93.9986 107.068C94.8804 106.968 95.7714 107.148 96.545 107.583C97.0113 107.829 97.3904 108.214 97.631 108.683C97.8716 109.152 97.9621 109.684 97.8902 110.207C97.8341 110.784 97.658 111.344 97.3731 111.849C97.0882 112.354 96.7009 112.794 96.236 113.141C94.7423 114.298 92.886 114.886 90.9989 114.8C90.7145 114.767 90.4418 114.74 90.2847 114.746ZM86.1119 111.904C87.4786 112.979 88.8812 113.741 90.509 113.797C91.9115 113.842 93.3508 113.711 94.5433 112.79C93.2738 110.582 88.411 109.843 86.1138 111.888L86.1119 111.904Z" fill="black"/>
<path d="M145.348 93.4899C145.528 94.0757 145.573 94.6943 145.482 95.3C145.461 95.5677 145.377 95.8265 145.235 96.0546C145.093 96.2826 144.899 96.4732 144.668 96.6101C144.437 96.7471 144.176 96.8265 143.908 96.8416C143.64 96.8566 143.372 96.807 143.127 96.6967C142.562 96.4567 142.043 96.1184 141.596 95.6975C140.344 94.5905 139.089 93.475 137.908 92.2856C136.143 90.5804 134.227 89.0378 132.185 87.6766C125.978 83.3911 119.192 80.0128 112.031 77.6439C109.454 76.7634 106.846 75.9933 104.208 75.3335L104.511 74.1334C106.443 74.6105 108.365 75.1345 110.278 75.7055C117.488 77.8713 124.207 81.084 130.654 84.9157C134.567 87.3111 138.172 90.1761 141.389 93.4469C141.947 94.0008 142.495 94.57 143.074 95.0852C143.331 95.2589 143.61 95.3988 143.903 95.5015C144.47 94.7927 144.212 94.1374 143.995 93.5157C143.127 90.9226 142.062 88.4002 140.807 85.9707C140.631 85.6417 140.471 85.3146 140.261 84.9941L141.404 84.4627C143.19 87.2322 144.314 90.3457 145.348 93.4899Z" fill="black"/>
<path d="M144.015 93.5064C144.232 94.1281 144.489 94.7957 143.923 95.4922C143.63 95.3895 143.351 95.2496 143.094 95.0759C142.507 94.5598 141.983 93.9934 141.409 93.4376C138.195 90.1709 134.594 87.3091 130.685 84.916C124.239 81.0843 117.499 77.8693 110.309 75.7057C108.399 75.1324 106.477 74.6083 104.542 74.1336C102.365 73.5873 100.18 73.0851 97.9844 72.5943C95.0555 71.9327 92.1153 71.8708 89.1555 71.8725C86.3736 71.8659 83.5759 71.8903 80.7935 72.0318C74.2712 72.3421 67.8083 73.4209 61.5388 75.2457C59.9917 75.706 58.4249 76.1229 56.8925 76.6344C52.6097 78.1027 48.5151 80.071 44.6934 82.4986C44.0768 82.8847 43.4563 83.2703 42.8196 83.617C42.5466 83.7187 42.2624 83.787 41.973 83.8203C41.9167 83.5216 41.7988 83.294 41.8523 83.1149C41.9835 82.6329 42.175 82.1695 42.4224 81.7356C43.7979 79.4991 45.3387 77.3686 47.0319 75.3619C49.4286 72.6077 52.464 70.4829 55.8723 69.1737C59.2046 67.8918 62.6468 66.9163 66.1562 66.2591C71.0786 65.2722 76.0651 64.6372 81.0778 64.3587C85.8743 64.0369 90.6908 64.1902 95.4571 64.8165C96.506 64.9657 97.5656 65.0586 98.6179 65.1795C103.16 65.7806 107.637 66.7978 111.993 68.218L112.846 68.493C117.454 69.9469 121.951 71.7317 126.302 73.8337C129.437 75.2954 132.405 77.0909 135.155 79.189C137.198 80.7879 138.936 82.7432 140.283 84.9605C140.473 85.2786 140.654 85.6081 140.83 85.937C142.085 88.3745 143.15 90.9051 144.015 93.5064V93.5064ZM140.92 90.8499C140.965 90.7544 140.989 90.6503 140.991 90.5447C140.992 90.4391 140.971 90.3343 140.929 90.2376C140.82 90.0409 140.67 89.8705 140.488 89.7383C138.962 88.4352 137.504 87.0452 135.883 85.8546C131.45 82.562 126.661 79.7766 121.607 77.5507C118.462 76.1171 115.244 74.8503 111.966 73.7555C109.146 72.8635 106.266 72.2035 103.401 71.4875C99.3329 70.4707 95.1728 69.866 90.9836 69.6827C88.6446 69.5828 86.3004 69.6717 83.9572 69.6454C80.2751 69.6133 76.5969 69.8917 72.9616 70.4778C67.7227 71.2921 62.543 72.3438 57.5215 74.0969C53.9122 75.2895 50.427 76.8288 47.1144 78.6933C46.7675 78.8725 46.4365 79.081 46.1249 79.3164C46.0523 79.3937 45.998 79.4862 45.9657 79.5872C45.9334 79.6882 45.9241 79.7951 45.9385 79.9001C45.9551 79.9686 45.9866 80.0325 46.0307 80.0874C46.0748 80.1422 46.1305 80.1867 46.1938 80.2175C46.2571 80.2484 46.3265 80.2649 46.3969 80.2659C46.4673 80.2669 46.5371 80.2523 46.6012 80.2232C47.0718 80.0531 47.5279 79.8453 47.9651 79.6019C52.1654 77.389 56.5831 75.6162 61.1479 74.3117C65.4933 73.0775 69.9237 72.1651 74.4031 71.5819C77.6103 71.163 80.8401 70.9414 84.0744 70.9185C87.7873 70.8469 91.4336 71.0681 95.083 71.3349C98.7497 71.9165 102.354 72.5404 105.955 73.4438C109.587 74.3193 113.151 75.4537 116.621 76.8382C121.214 78.7157 125.732 80.766 129.951 83.4198C133.239 85.4319 136.352 87.7171 139.256 90.2513C139.586 90.5474 139.95 90.8021 140.342 91.0099C140.441 91.0314 140.544 91.0279 140.641 90.9995C140.739 90.9712 140.828 90.9189 140.9 90.8476L140.92 90.8499Z" fill="#32BAE2"/>
<path d="M140.913 90.2363C140.955 90.333 140.976 90.4377 140.975 90.5434C140.973 90.649 140.949 90.7531 140.904 90.8486C140.828 90.9197 140.735 90.9703 140.634 90.9955C140.534 91.0206 140.428 91.0195 140.328 90.9923C139.936 90.7846 139.571 90.5298 139.242 90.2337C136.337 87.6996 133.225 85.4144 129.937 83.4023C125.715 80.7439 121.2 78.6941 116.607 76.8206C113.137 75.4361 109.572 74.3018 105.941 73.4263C102.34 72.5228 98.7354 71.899 95.0687 71.3173C91.4194 71.0505 87.7527 70.827 84.0601 70.9009C80.8258 70.9239 77.596 71.1454 74.3888 71.5643C69.9094 72.1475 65.479 73.0599 61.1337 74.2941C56.5689 75.5986 52.1511 77.3714 47.9508 79.5843C47.5136 79.8278 47.0575 80.0356 46.5869 80.2056C46.5228 80.2347 46.453 80.2493 46.3826 80.2483C46.3122 80.2474 46.2429 80.2308 46.1796 80.2C46.1163 80.1691 46.0606 80.1247 46.0164 80.0698C45.9723 80.0149 45.9408 79.951 45.9242 79.8826C45.9099 79.7775 45.9191 79.6706 45.9514 79.5696C45.9836 79.4686 46.0381 79.3761 46.1107 79.2989C46.4222 79.0634 46.7532 78.8549 47.1002 78.6757C50.4127 76.8113 53.898 75.272 57.5072 74.0793C62.5287 72.3262 67.7084 71.2746 72.9473 70.4602C76.5826 69.8742 80.2608 69.5957 83.9429 69.6279C86.2862 69.6542 88.6303 69.5653 90.9693 69.6651C95.1585 69.8485 99.3186 70.4531 103.387 71.47C106.252 72.1859 109.131 72.846 111.952 73.7379C115.221 74.838 118.43 76.1093 121.566 77.5466C126.62 79.7725 131.409 82.5579 135.843 85.8505C137.456 87.0401 138.922 88.4311 140.447 89.7342C140.638 89.8645 140.797 90.0361 140.913 90.2363V90.2363Z" fill="black"/>
<path d="M141.405 84.4435L140.261 84.9748C138.913 82.7575 137.176 80.8023 135.132 79.2034C132.382 77.1052 129.415 75.3098 126.28 73.8481C121.929 71.7461 117.432 69.9613 112.824 68.5074L113.207 67.3166C118.698 69.0063 124.025 71.1914 129.12 73.845C132.616 75.6625 135.878 77.7619 138.599 80.6306C138.764 80.7563 138.944 80.8613 139.135 80.9433C139.176 80.5898 139.225 80.3362 139.234 80.082L140.489 80.1191C140.462 80.3548 140.475 80.6032 140.468 80.8412C140.4 82.1099 140.727 83.3687 141.405 84.4435Z" fill="black"/>
<path d="M140.484 80.1016L139.229 80.0644C139.288 76.3213 139.392 72.5874 139.372 68.8476C139.341 65.6627 138.946 62.492 138.194 59.397C136.429 51.9372 132.554 45.857 126.43 41.2226C121.886 37.7781 116.717 35.5792 111.274 33.9825C109.079 33.3435 106.853 32.7956 104.616 32.3123C102.054 31.7505 99.4944 31.1725 96.8379 31.2214C94.6069 31.2574 92.3717 31.1859 90.1393 31.1971C85.506 31.1986 80.894 31.8251 76.4281 33.0595C66.7312 35.774 59.6268 41.577 55.3262 50.7441C53.7674 54.1465 52.5904 57.7111 51.8168 61.3727C51.3961 63.2797 50.9673 65.1856 50.5547 67.0935C50.4278 67.6964 50.3253 68.3021 50.2107 68.9063C50.096 69.5106 49.9811 70.0449 49.8229 70.8129C50.3084 70.5641 50.6146 70.4428 50.8817 70.2677C53.1589 68.848 55.6119 67.7321 58.1783 66.9482C63.6189 65.2021 69.217 64.2356 74.8721 63.5966C78.1375 63.2039 81.4217 62.9874 84.7104 62.9483C86.9417 62.8754 89.1753 62.934 91.3998 63.1239C94.3412 63.4617 97.2882 63.7507 100.224 64.1373C102.16 64.3918 104.081 64.7498 105.979 65.2099C108.412 65.8145 110.815 66.5392 113.209 67.2751L112.825 68.4659L111.972 68.1909C107.616 66.7707 103.139 65.7536 98.5967 65.1524C97.5445 65.0315 96.4882 64.9102 95.4359 64.7894C90.6697 64.1632 85.8532 64.0098 81.0568 64.3317C76.0441 64.6101 71.0576 65.2451 66.1351 66.232C62.6257 66.8892 59.1835 67.8648 55.8512 69.1466C52.4429 70.4558 49.4076 72.5806 47.0108 75.3348C45.3176 77.3415 43.7767 79.472 42.4012 81.7085C42.1539 82.1424 41.9623 82.6059 41.8312 83.0878C41.7777 83.2669 41.8942 83.5067 41.9518 83.7932C42.2412 83.7599 42.5255 83.6917 42.7984 83.59C43.4342 83.2513 44.0557 82.8576 44.6722 82.4715C48.4939 80.044 52.5886 78.0756 56.8714 76.6073C58.4037 76.0959 59.9706 75.6789 61.5176 75.2186C67.7871 73.3938 74.2501 72.315 80.7724 72.0047C83.5548 71.8632 86.3544 71.8225 89.1344 71.8455C92.0942 71.8437 95.0344 71.9056 97.9633 72.5672C100.159 73.0581 102.344 73.5602 104.521 74.1065L104.218 75.3067C102.617 74.9088 101.045 74.5512 99.451 74.2364C97.2671 73.7677 95.0527 73.4543 92.8245 73.2983C90.092 73.1492 87.3582 73.0822 84.6095 73.1452C77.0187 73.2526 69.4736 74.3411 62.1618 76.3834C58.4075 77.4409 54.7545 78.83 51.2462 80.5344C49.2957 81.4959 47.4364 82.6325 45.5316 83.6981C45.0433 83.9713 44.5793 84.2843 44.0879 84.549C43.7478 84.7401 43.3905 84.8989 43.0208 85.0233C41.3792 85.518 40.2016 84.4813 40.5357 82.7909C40.6465 82.2462 40.8555 81.7262 41.1524 81.2563C43.0193 78.3341 44.9393 75.4509 47.4497 73.0184C47.9416 72.5688 48.2779 71.9747 48.4102 71.3216C49.0808 67.8723 49.7973 64.4297 50.5596 60.9937C51.748 55.5567 53.6024 50.3773 56.6573 45.6775C59.8004 40.8171 64.2054 36.9023 69.4013 34.3518C74.0994 32.0099 79.1247 30.8336 84.3136 30.2399C87.1433 29.9513 89.9867 29.8175 92.831 29.8391C93.0086 29.8255 93.1844 29.7947 93.3561 29.7471C93.4471 29.5504 93.5241 29.3474 93.5864 29.1397C93.9554 27.6467 95.0693 26.9802 96.4255 26.6049C96.5355 26.5842 96.647 26.5722 96.7589 26.5691C99.0393 26.3122 101.348 26.5774 103.511 27.3446C105.11 27.9399 106.131 29.0162 106.059 30.8562C106.076 31.0029 106.115 31.1461 106.175 31.2811C107.081 31.5252 108.037 31.8078 109.007 32.0386C114.341 33.2599 119.452 35.3094 124.153 38.1126C132.129 42.9638 137.262 49.909 139.478 59.0012C140.488 63.4156 140.907 67.9443 140.727 72.469C140.649 75.004 140.559 77.5498 140.484 80.1016ZM104.551 30.7653C104.682 29.6237 104.113 29.0232 103.197 28.6834C101.152 27.9176 98.9509 27.6648 96.7859 27.9471C96.4539 27.9837 96.1326 28.0868 95.8414 28.2502C95.5515 28.379 95.3171 28.6068 95.1801 28.8929C95.0431 29.1789 95.0126 29.5044 95.0941 29.8109C96.6997 29.8801 98.2535 29.935 99.804 30.0184C101.354 30.1018 102.895 30.8838 104.551 30.7653Z" fill="black"/>
<path d="M139.225 80.0648C139.221 80.3195 139.167 80.5726 139.126 80.9261C138.935 80.8441 138.755 80.7391 138.59 80.6134C135.869 77.7447 132.575 75.6416 129.112 73.8278C124.016 71.1742 118.69 68.989 113.199 67.2994C110.814 66.5563 108.403 65.8307 105.969 65.2342C104.071 64.7741 102.15 64.416 100.214 64.1616C97.2799 63.7587 94.3311 63.4859 91.3897 63.1481C89.1652 62.9583 86.9315 62.8997 84.7002 62.9726C81.4115 63.0117 78.1273 63.2281 74.8619 63.6209C69.2068 64.2598 63.6106 65.2101 58.1682 66.9725C55.6017 67.7564 53.1487 68.8723 50.8715 70.2919C50.6044 70.4671 50.2982 70.5883 49.8127 70.8372C49.9709 70.0691 50.0859 69.4978 50.2005 68.9306C50.315 68.3633 50.4177 67.7206 50.5446 67.1178C50.9612 65.2104 51.3941 63.3048 51.8067 61.397C52.5803 57.7353 53.7572 54.1707 55.316 50.7683C59.6166 41.6013 66.721 35.7982 76.418 33.0837C80.8839 31.8493 85.4958 31.2229 90.1292 31.2214C92.3615 31.2102 94.5967 31.2817 96.8278 31.2456C99.4843 31.1967 102.044 31.7748 104.606 32.3365C106.843 32.8199 109.069 33.3678 111.263 34.0068C116.708 35.5912 121.864 37.801 126.42 41.2468C132.544 45.8812 136.418 51.9615 138.184 59.4213C138.935 62.5162 139.331 65.687 139.362 68.8718C139.388 72.5877 139.284 76.3298 139.225 80.0648ZM107.307 48.6345C108.171 46.3422 107.451 44.4442 105.399 43.5334C104.474 43.0928 103.447 42.9132 102.428 43.0137C101.408 43.1143 100.436 43.4913 99.6154 44.1041C99.1676 44.419 98.7138 44.7867 98.2599 45.1545C97.897 44.73 97.5856 44.3237 97.247 43.9391C96.6288 43.1874 95.8293 42.6057 94.9239 42.2489C94.0185 41.8921 93.0371 41.772 92.0723 41.8999C89.855 42.1392 88.5888 43.558 88.5775 45.7713C88.6 47.3518 89.2391 48.8609 90.3585 49.9769C92.1444 51.8762 94.3419 53.341 96.7821 54.2588C97.0403 54.3598 97.3203 54.392 97.5946 54.3521C100.226 54.0045 102.74 53.0488 104.938 51.5607C106.012 50.8552 106.841 49.8324 107.307 48.6345V48.6345Z" fill="#64CCF5"/>
<path d="M105.398 43.5335C107.451 44.4443 108.171 46.3423 107.307 48.6347C106.833 49.8349 105.996 50.8571 104.913 51.5581C102.715 53.0461 100.201 54.0018 97.57 54.3494C97.2957 54.3893 97.0157 54.3571 96.7575 54.2561C94.3173 53.3384 92.1198 51.8736 90.3339 49.9742C89.2145 48.8582 88.5754 47.3491 88.5529 45.7686C88.5706 43.5355 89.8304 42.1366 92.0477 41.8973C93.0125 41.7694 93.9939 41.8895 94.8993 42.2463C95.8047 42.603 96.6042 43.1847 97.2224 43.9364C97.561 44.3211 97.8847 44.7287 98.2354 45.1518C98.7127 44.795 99.1412 44.4326 99.5909 44.1014C100.414 43.4845 101.391 43.1053 102.415 43.0052C103.439 42.905 104.471 43.0878 105.398 43.5335V43.5335Z" fill="#A2DDF3"/>
<path d="M103.193 28.6943C104.109 29.0341 104.686 29.6356 104.547 30.7762C102.888 30.8821 101.392 30.1134 99.8007 30.0253C98.2096 29.9373 96.6965 29.887 95.0908 29.8178C95.0094 29.5113 95.0399 29.1858 95.1769 28.8997C95.3138 28.6137 95.5483 28.3858 95.8381 28.2571C96.1294 28.0936 96.4506 27.9905 96.7826 27.954C98.9479 27.6731 101.149 27.9273 103.193 28.6943V28.6943Z" fill="#32BAE2"/>
</g>
<defs>
<linearGradient id="paint0_linear_1016_354586" x1="156.31" y1="104.896" x2="25.1554" y2="155.616" gradientUnits="userSpaceOnUse">
<stop stop-color="#B6509E"/>
<stop offset="1" stop-color="#2EBAC6"/>
</linearGradient>
</defs>
</svg>
