<svg version="1.0" xmlns="http://www.w3.org/2000/svg" width="565.333" height="784" viewBox="0 0 424 588"><path d="M60.3 24.9c-8.4 2.3-14.2 5.9-17.7 10.9-11.1 16.1-12.5 41.6-4.5 81.5l2.9 14.8-2.2 10.2c-2 8.9-2.2 13.1-2.2 32.2 0 20.6.2 22.6 2.6 31.6 6.2 22.8 19.3 41.6 38.5 55.5 6.1 4.4 6.1 4.4 5.6 8.7-.5 3.3-1.4 4.9-4.2 7.2-14.1 11.6-25.3 25.4-32.4 39.9C38.6 333.8 35 349.6 35 369c0 18.9 3 32.4 10.6 47.6l3.7 7.2-2 2.9C41.4 435 36.9 447.9 35 462c-2.1 15.4.7 32.5 7.5 46l3.7 7.3-2.6 5.3c-7.7 15.7-4.4 30.5 8.1 36.8 1.8.9 10.1 2.5 18.5 3.7 12.8 1.7 16.8 1.9 24.3 1 5-.5 13.6-.7 19.2-.4 11.3.7 20.3-.6 27.1-3.9 3.6-1.7 4.9-1.9 8.5-1 14.8 3.8 57.2 4.1 77.5.7 10.2-1.8 10.4-1.8 15 .3 8.9 4 12.5 4.5 33.7 4.5H294c12.9.1 32.1-1.7 35.1-3.3 15.1-7.8 18.2-25 7.5-42l-3.4-5.5 3.3-6c7.2-13 11.4-34.4 10.1-51.4-2.1-27.7-7.6-44.3-22.7-69.2-3.3-5.4-5.9-10.1-5.9-10.6 0-.6 1.9-1.5 4.3-2.2 15.9-4.8 31.2-19.2 40.2-38.2 5.8-12.4 7.6-21.1 8.4-40.9l.6-17.5 4.5-2.1c2.5-1.1 7-2.6 10-3.3 25.1-5.5 29.1-40.2 7.1-62.2-11.9-11.9-28.9-17.4-47-15.1-4.7.6-9.3 1.2-10.1 1.4-1.3.3-1.4-1.3-1.2-10.7.5-13.3-1.2-32.1-3.9-43.3-1.7-7.7-1.8-8.9-.4-14 4.4-17.5 5.9-29.5 6-49.7 0-17.9-.2-20.7-2.2-27-5.7-18.1-15.2-25-36.3-26.2-16.7-1-34.7 3.8-55.5 14.6l-11 5.7-8-1.9c-7.1-1.8-11.4-2-38.5-2-27 0-31.4.2-38.5 2l-8 2-10-5.3c-19.6-10.3-32.8-14.3-49.5-15-9.3-.3-12.9-.1-18.7 1.5zm33.6 13.2c9.9 2.3 21.3 7.1 33.5 14.1l8.8 5.1 8.9-2.2c21.8-5.4 57.7-5.4 80.4 0l9 2.1 6-3.6c26-15.9 54.7-22.1 70.8-15.2 6.5 2.7 10.7 10 12.8 22.1 2.2 13-.6 43.2-6 64.7-1.7 6.7-1.7 6.9.7 17.1 2.9 12.6 4.1 38.1 2.3 50.6-4.8 32.5-25.7 57.6-59.4 71.6-39 16.1-99.7 17.8-142.2 4-18.8-6.2-38.6-18.1-48.6-29.3-21.6-24.2-28.2-59.1-18.8-98.7l1.9-8.3-2.4-10.3c-4-16.6-5.8-31.3-5.9-46.9-.1-15.9 1.3-23.2 5.9-30.2 5.9-9.1 21.1-11.5 42.3-6.7zm277.4 169.8c7.2 2.8 16.9 11.6 20.4 18.5 4.8 9.4 4.2 21-1.4 27.6-4.2 5-5.7 4.1-7-4.3-1.8-11.3-4.5-15.5-8-12.5-1.1.9-1.3 2.9-.7 9.9.3 4.8.4 9.9 0 11.2-.7 3-4.4 4.7-10.5 4.7h-4.8l-1.1-7.8c-2-14.4-5.3-20.1-9.1-15.6-1.4 1.8-1.6 3.3-1 9 .4 3.8.5 8.4.2 10.1-.5 2.9-.9 3.3-3.7 3.3-1.7 0-5.4-1.2-8.3-2.6-8.1-4.1-11.2-1.1-5.4 5.3 4.6 5.1 10.4 7.5 18.6 7.7 3.9.1 7.6.6 8.3 1 2.6 1.6.8 29.9-2.9 43.4-2.3 8.7-5.6 15.5-11.5 23.8-10.5 14.8-23.2 21.5-41.2 21.5-10.9 0-15.7-1.3-24.4-6.6-6-3.7-8.8-3.8-8.8-.1 0 6.5 17.9 16.5 29.7 16.6 2.8 0 3.6.6 5.2 3.9 1.1 2.1 4.7 8.1 7.9 13.3 17.2 27.2 23.2 48.3 21.9 77.1-.7 16-4.5 29.5-10.3 36.5l-1.9 2.3-7-3.6c-9.6-4.8-17.1-6.5-29-6.5-11.3 0-18.8 1.6-28.1 6-3.4 1.7-6.5 3-6.9 3-.4 0-.5-6-.3-13.3.8-19.8-.9-72.8-2.5-82.3-2.7-14.7-8.4-23.2-19.6-28.9-7.7-3.8-16.2-5.5-32.1-6.1-24.6-1-40.8 1.8-47.9 8.2-2.1 1.9-4.5 3.4-5.2 3.4-2.4 0-15.2-10.3-18.4-14.8-2.8-4.2-3-4.9-3-14s-.1-9.7-2.1-10c-3.3-.5-6.5 5.5-7.1 13.2-.5 5.3-.2 7.2 1.9 11.7 1.4 3 3.7 6.8 5.2 8.6 3.2 3.8 14.3 12.2 24.1 18.2 3.9 2.4 8.3 5.5 9.9 7 4 3.6 8.6 11 8.6 13.8 0 2.8.3 2.8-4.5.3-5-2.5-7.1-2.5-8.5 0-1 1.8-.3 2.9 5 8.3 3.3 3.4 6 7.1 6 8.2 0 2.7-3.6 8.5-5.3 8.5-.8 0-2.2-.9-3.2-2-3.4-3.7-8.3-6.1-11.7-5.8-5 .5-4.8 3.4.7 8.8 2.5 2.4 4.5 4.9 4.5 5.6 0 2.5-7.3 4.8-15 4.7-9.9-.1-20.8-3.2-34.5-9.7-22.9-11-36.5-25.3-43.6-45.8-10.1-29.6-4.1-66.1 15-91.6 6.3-8.3 19.3-21.2 21.4-21.2.6 0 2.3 1.6 3.7 3.6 7.5 11 29.1 20.6 54.5 24.1 5.3.7 6 1 5.6 2.8-.2 1.1-.4 5.8-.5 10.5-.1 7.4.3 9.2 2.7 14.2 6 12.2 17.8 19.1 32.7 19.2 7.5.1 9.3-.3 15.2-3.1 15.7-7.4 22.9-21.8 19.5-38.9l-.8-4.2 4.8-.6c11.4-1.6 25.4-5.6 33.4-9.6 8.8-4.5 17.4-12.6 21.7-20.5 2.3-4.2 2.6-6.1 2.6-12.5l-.1-7.5 5.4-3.5c7.8-5 18.3-14.9 24.1-22.8 4.9-6.5 13.2-22.2 13.2-24.9 0-1.6 5-4.2 12.5-6.5 8.4-2.5 24.7-2 32.8 1.1zm-111 71.2c.4 1.6.3 1.8-.9.8-1.6-1.3-1.9-2.9-.5-2.9.5 0 1.1.9 1.4 2.1zm-4.3 1.8c.5 1.1.9 3 .9 4.3-.2 2.2-.2 2.2-.6-.2-.3-1.4-1.2-3.3-2-4.3-1-1-1.1-1.7-.5-1.7.6 0 1.6.9 2.2 1.9zm-8.5 1.1c-.3.5-1.1 1-1.6 1-.6 0-.7-.5-.4-1 .3-.6 1.1-1 1.6-1 .6 0 .7.4.4 1zm-5.8 1.6c-.3.3-1.2.4-1.9.1-.8-.3-.5-.6.6-.6 1.1-.1 1.7.2 1.3.5zm.3 2.6c0 .6 1 2.3 2.3 3.6l2.2 2.5-2.2-1.2c-3.1-1.6-5.5-6.1-3.3-6.1.6 0 1 .5 1 1.2zm12.7 4.3c-1.5 1.4-3.3 2.5-3.9 2.5-1.4 0-.6-.8 2.9-3.1 3.9-2.5 4.3-2.2 1 .6zm-55.2 17.2c11.2 5.6 16.2 19.5 10.8 29.9-2.3 4.3-8.1 10-11.7 11.3-6.4 2.4-6.6 2.4-6.6-.7 0-1.6.6-3.5 1.4-4.1 3.5-2.9 2.7-9.7-1.3-12.8-2.8-2.2-8.9-1.6-11.6 1.2-3.1 3.1-3.4 8.4-.5 11 1.1 1 2 3.1 2 4.8 0 2.7-.2 2.9-2.7 2.2-12.6-3.1-20.7-16.7-17.3-29 1.3-4.7 7.2-11.3 12.5-14.1 6.6-3.5 17.7-3.3 25 .3zM204 384c17.1 1.7 26 6.2 30.4 15.3 4.3 8.8 4.8 15.4 5.3 65.9l.5 47.7-3.5 5.8c-4.6 7.7-5.9 12.1-5.6 18.9.3 5.1 0 5.8-1.9 6.5-8 3-66.2 3.7-75.4 1l-3.6-1.1.5-5.9c.7-7.5-.7-11.7-6.9-21.1l-5-7.5-.5-21.7-.6-21.6 6.5-3c3.6-1.6 6.8-3.5 7.2-4.1.4-.6 3.2-2.7 6.1-4.6 6.8-4.3 11-10 12.4-16.8.7-2.8 1.7-7.5 2.3-10.4 2.3-10.7-1.2-19.7-11.7-29.9-5.8-5.6-7.1-7.4-6.1-8.3 5.7-4.7 29-7.1 49.6-5.1zM62.1 434.6c4.3 4.7 17.2 13.8 25.5 18.1 9.9 5.2 26.9 11 34.7 11.9l5.7.7v18c0 16.6-.1 17.9-1.7 17.4-1-.4-5.2-1.8-9.3-3.3-6.1-2.1-9.4-2.6-17.5-2.7-15.2-.1-25.7 2.7-37.4 10-6.3 4.1-6.4 4-11.1-7.9-5.6-14.4-5.8-32.7-.4-48.6 2.5-7.5 7-16.2 8.3-16.2.4 0 1.8 1.2 3.2 2.6zm53.2 72.3c6.8 2.4 14.3 7.6 18.1 12.5 4.4 5.8 7.6 12.7 7.6 16.5 0 4.7-3.2 9.9-7.3 11.6-4.2 1.7-15.7 2.9-20.2 2.1l-3.6-.7.2-9c.2-7.1 0-9.3-1.3-10.5-1.2-1.3-2-1.4-3.6-.5-2.4 1.3-4.1 6.1-4.9 14.3-.5 5.5-.7 5.8-3.7 6.3-1.7.4-6.7.5-11.1.3l-8-.3.4-10.1c.3-9.4.2-10.2-1.6-10.8-4.6-1.5-7.5 3-8.8 13.7-.8 6.1-1.1 6.3-7.4 5.1-1.7-.4-4.2-1.7-5.6-3-2-1.9-2.5-3.2-2.5-7.4 0-14.9 14.9-28.2 35.8-32 7.2-1.4 20.9-.4 27.5 1.9zm185.9-.3c19.6 5.9 33.5 22.7 28.5 34.6-1.9 4.5-5.2 6.7-10.3 7.1l-3.9.2-.7-6.1c-1.2-10.7-4.7-16.2-8.7-13.7-1.3.8-1.6 2.9-1.6 10.9v9.9l-4.8.7c-2.7.3-7.6.4-11 0l-6.2-.7-.7-7c-1-11.1-3.6-15.7-7.7-13.6-1.8 1-2.1 2.3-2.3 10.9l-.3 9.7-6.8.3c-8.9.4-17.1-2-20.9-6-8.7-9.3 4.2-29.6 23.2-36.3 10.5-3.7 23.5-4 34.2-.9z"/><path d="M69.3 54.9C67.6 56 65.6 57.8 65 59c-2.3 4.3-3 13.3-1.9 25 1.3 14.2 2.3 18.5 5.2 20.5 4.3 3 6.4 2 18-9.3 6.2-5.9 14.3-13.2 18-16.1 7.7-6.1 9.4-8.9 7.5-12.9-2.4-5-19.8-12-31.8-12.8-6.3-.5-8-.2-10.7 1.5zm209.7.5c-11.4 3.4-19.3 7.6-20.4 10.7-1.6 4.6 0 7.3 8.1 13.6 4.3 3.3 12.4 10.6 18 16.2 8.1 8 10.8 10.1 13 10.1 6.1-.1 7.6-3 9.3-18.9 1.4-12.7.9-23.5-1.4-27.9-3.3-6.4-13.4-7.8-26.6-3.8zM252.4 149c-13.2 2.8-24.5 11.8-22.3 17.8 1.6 4.1 4.8 4.6 11.3 1.8 12.3-5.4 25.8-5.5 38.4-.2 4.4 1.9 6.1 2.2 8.4 1.4 8.4-2.9.9-14.1-12.7-18.9-6.7-2.3-17.1-3.2-23.1-1.9zm-153.1 2.1C88.4 154.5 80.5 162.3 83 167c1.9 3.6 4.8 3.9 12.4 1.1 6.1-2.2 8.8-2.5 19.1-2.6 11.2 0 12.4.2 18.3 2.9 5.2 2.4 6.7 2.7 8.7 1.8 3.4-1.6 4.3-5.7 1.8-9-2.8-3.9-10.7-8.9-16.6-10.7-7.1-2.1-19.8-1.8-27.4.6zm76.4 27.9c-11.5 2.1-13.6 8.3-5.8 17.2 1.6 1.9 4.8 4.3 7.1 5.3 2.2 1 4 2.5 4 3.4 0 .9-1.4 3.9-3 6.8-4.2 7.2-9.5 10.3-18.1 10.3-10-.1-15.7-3.6-23.2-14.4-3.4-4.9-8.4-2.4-7.3 3.7.8 4.5 5.8 11.8 10.2 15.2 8.1 6.2 21.9 8.2 32 4.8 3.4-1.1 6.6-3.4 10.2-7.1l5.3-5.4 4.2 4.8c5.8 6.6 12.2 9.4 21.8 9.4 10.1 0 16.5-2.1 22.3-7.1 7.3-6.5 11.6-16.5 8.4-19.7-2.3-2.3-4.7-1.2-8.2 4-4.1 6-6.8 8.3-12.7 10.3-8 2.9-17.3 1.3-22.7-3.8-2-1.8-7.2-10.6-7.2-12.1 0-.2 2-1.6 4.4-3 11.5-6.7 15.1-17.2 7.2-21-4.1-1.9-21.8-2.9-28.9-1.6zm-98.1 15.6c-5.5 1.3-10.5 2.9-11.3 3.5-2.2 1.9-1.6 6.8 1 8 1.8.8 4.3.4 11.7-2 10.5-3.4 14-5.4 14-8 0-2.1-1.9-4.1-3.9-4-.9 0-6.1 1.1-11.5 2.5zm205-1.1c-3.6 3.7-1.8 5.5 9 9.4 11.5 4.1 14 4.5 16.4 2.1 2.4-2.4 2.5-3.2.3-5.9-1.2-1.3-4.6-2.8-9.3-4-12.8-3.1-14.6-3.3-16.4-1.6zm-195 19.8c-9.2 4.8-12.4 8.3-10.7 11.5 2.2 4.2 4.8 3.8 13.5-2.2 10.3-7 12.4-9.1 11-11.4-1.9-2.9-5.6-2.3-13.8 2.1zm185.4-2.4c-1.3 2.5.3 4.2 9.6 10.8 8.7 6.3 10.9 7 13.5 4.7 4.4-3.9 1.6-7.8-9.7-13.4-9.1-4.5-11.8-4.9-13.4-2.1z"/></svg>
