<svg width="135" height="163" viewBox="0 0 135 163" fill="none" xmlns="http://www.w3.org/2000/svg"><g clip-path="url(#a)"><circle cx="67.788" cy="95.034" r="66.078" transform="rotate(19.923 67.788 95.034)" fill="url(#b)" stroke="#000"/><mask id="c" style="mask-type:alpha" maskUnits="userSpaceOnUse" x="2" y="29" width="132" height="132"><circle cx="67.786" cy="95.035" r="65.578" transform="rotate(19.923 67.786 95.035)" fill="#fff"/></mask><g mask="url(#c)"><path d="M57.758 24.432a38.577 38.577 0 0 1 6.541-.792c1.54-.07 3.077-.158 4.614-.207a41.614 41.614 0 0 1 5.594.177c3.203.318 6.248 1.228 9.313 2.103 1.216.345 2.41.762 3.613 1.151 3.811 1.224 7.219 3.238 10.482 5.506a41.62 41.62 0 0 1 6.215 5.163 36.656 36.656 0 0 1 8.279 13.576 46.427 46.427 0 0 1 2.442 13.428c.129 3.19.098 6.385-.094 9.572-.233 4.069-.363 8.141-.579 12.208-.126 2.53-.297 5.058-.46 7.587-.204 3.463-.417 6.925-.609 10.39a334.222 334.222 0 0 0-.289 6.1c-.314 8.9.321 17.708 2.449 26.383.71 2.884 1.416 5.773 1.999 8.684a18.175 18.175 0 0 1-1.03 10.691c-1.81 4.394-5.783 6.165-9.734 5.909a13.038 13.038 0 0 1-5.643-1.694 9.69 9.69 0 0 1-3.57-3.365 44.441 44.441 0 0 1-1.226-2.15 9.071 9.071 0 0 0-2.747-3.25 2.462 2.462 0 0 1-.37-.368c.104-.145.17-.326.295-.378a3.777 3.777 0 0 1 2.41-.307 2.323 2.323 0 0 1 1.428.764c.242.3.505.582.788.844a.375.375 0 0 0 .296.126.386.386 0 0 0 .287-.145.76.76 0 0 0 .145-.589c-.535-1.004-1.268-1.792-2.446-2.03-2.267-.479-4.118.268-5.647 1.924-.56.607-1.037 1.289-1.598 1.875a16.371 16.371 0 0 1-1.895 1.84 6.083 6.083 0 0 1-5.76 1.059 5.897 5.897 0 0 1-3.393-2.719 15.604 15.604 0 0 1-.9-1.944c-.307-.706-.56-1.439-.901-2.124a6.102 6.102 0 0 0-.918-1.361 3.465 3.465 0 0 0-4.215-.822 9.552 9.552 0 0 0-1.757 1.21c-.546.456-1.002 1.021-1.532 1.508-.7.694-1.44 1.346-2.216 1.952a8.146 8.146 0 0 1-10.8-1.166 24.154 24.154 0 0 1-1.836-2.533c-.406-.59-.727-1.24-1.15-1.816a9.614 9.614 0 0 0-1.322-1.465 3.517 3.517 0 0 0-4.56-.112 7.08 7.08 0 0 0-1.166 1.155c-.481.603-.886 1.261-1.33 1.905a9.172 9.172 0 0 1-1.989 2.188 6.135 6.135 0 0 1-8.345-.921 17.248 17.248 0 0 1-1.625-2.484c-.416-.71-.722-1.486-1.135-2.188-1.088-1.891-2.667-3.019-4.92-3.117-1.229-.051-2.117.518-2.896 1.313a.412.412 0 0 0-.12.295c-.013.16.028.32.116.454a.46.46 0 0 0 .424.115c.3-.133.584-.302.844-.504a2.732 2.732 0 0 1 2.795-.359c.45.194.883.424 1.295.689a.352.352 0 0 1 .104.295.362.362 0 0 1-.168.265c-.196.097-.4.181-.603.268a7.693 7.693 0 0 0-2.527 1.826c-.6.643-1.19 1.3-1.788 1.947a10.376 10.376 0 0 1-6.003 3.205c-2.172.433-4.42.27-6.507-.472-3.324-1.204-5.353-3.574-6.107-7.007-.461-2.074-.346-4.156-.077-6.245a16.95 16.95 0 0 1 1.556-5.197 478.708 478.708 0 0 1 3.704-7.56 89.222 89.222 0 0 0 6.184-15.813 149.717 149.717 0 0 0 3.442-15.638c.733-4.34 1.45-8.687 2.2-13.03.601-3.471 1.234-6.939 1.862-10.402.54-2.98 1.064-5.966 1.66-8.936a66.494 66.494 0 0 1 3.75-12.824 38.85 38.85 0 0 1 12.397-16.194 33.576 33.576 0 0 1 5.652-3.409 50.824 50.824 0 0 1 11.328-4.013Z" fill="#fff"/><path d="M115.853 74.766c-.138 2.528-.219 5.058-.333 7.589a422.48 422.48 0 0 1-.286 5.61c-.184 2.964-.401 5.931-.578 8.9-.159 2.747-.289 5.494-.424 8.245-.089 1.813-.161 3.629-.238 5.443a94.165 94.165 0 0 0 2.944 28.123c.607 2.285 1.085 4.604 1.531 6.927.676 3.596.31 7.31-1.057 10.705-2.472 6.363-8.711 7.746-13.361 6.517a14.456 14.456 0 0 1-4.8-2.149 12.127 12.127 0 0 1-3.691-4.38 24.201 24.201 0 0 0-1.227-2.149 4.973 4.973 0 0 0-2.178-1.963.732.732 0 0 0-.896.169c-.375.397-.714.836-1.09 1.237-.678.746-1.323 1.495-2.052 2.144a7.33 7.33 0 0 1-9.45.356 7.33 7.33 0 0 1-2.117-2.656c-.313-.641-.539-1.326-.826-1.98a15.59 15.59 0 0 0-.996-2.082c-.922-1.465-2.388-1.785-3.84-.824a15.745 15.745 0 0 0-1.873 1.612c-.728.67-1.396 1.404-2.15 2.05-2.433 2.08-5.24 2.622-8.339 1.965a8.893 8.893 0 0 1-5.635-3.73c-.66-.944-1.236-1.953-1.884-2.908a9.192 9.192 0 0 0-1.221-1.553 2.53 2.53 0 0 0-1.849-.817 2.513 2.513 0 0 0-1.855.804 17.122 17.122 0 0 0-1.542 1.926c-.432.572-.807 1.183-1.262 1.736a7.312 7.312 0 0 1-11.685-.329c-.534-.765-.995-1.584-1.462-2.391-.28-.477-.492-.987-.758-1.466-.364-.663-.61-.753-1.352-.526a5.659 5.659 0 0 0-2.351 1.48c-.578.588-1.116 1.218-1.664 1.834-3.357 3.784-7.659 4.932-12.433 3.993-5.202-1.009-8.37-4.608-8.827-10.127-.111-1.363-.022-2.744-.025-4.119.253-1.976.8-3.903 1.624-5.717a296.37 296.37 0 0 1 3.818-7.868 87.561 87.561 0 0 0 6.624-17.392 151.945 151.945 0 0 0 2.84-13.229c.853-5.051 1.764-10.088 2.648-15.132.748-4.285 1.45-8.576 2.254-12.851.638-3.405 1.29-6.817 2.132-10.178 1.634-6.518 4.22-12.614 8.475-17.912a36.482 36.482 0 0 1 13.188-10.497 52.348 52.348 0 0 1 11.524-3.966 44.857 44.857 0 0 1 6.382-.765c1.754-.108 3.513-.128 5.273-.218 3.138-.161 6.282.14 9.332.895 3.204.78 6.39 1.705 9.492 2.798 3.767 1.322 7.17 3.339 10.419 5.622a41.751 41.751 0 0 1 6.66 5.66 38.226 38.226 0 0 1 8.11 13.691 48.57 48.57 0 0 1 2.454 13.928c.163 3.32.06 6.617-.117 9.915Zm-9.351 87.294c3.959.258 7.933-1.513 9.734-5.908a18.178 18.178 0 0 0 1.055-10.688c-.584-2.912-1.289-5.8-1.999-8.685-2.128-8.674-2.763-17.482-2.449-26.383.069-2.033.165-4.067.289-6.1.192-3.464.384-6.929.609-10.39.15-2.53.321-5.058.459-7.586.2-4.07.33-8.142.579-12.209.192-3.187.224-6.381.095-9.572a46.427 46.427 0 0 0-2.442-13.428 36.683 36.683 0 0 0-8.279-13.575 41.668 41.668 0 0 0-6.22-5.164c-3.262-2.268-6.67-4.282-10.481-5.506-1.19-.387-2.377-.803-3.614-1.151-3.065-.875-6.11-1.785-9.312-2.103a41.595 41.595 0 0 0-5.594-.177c-1.537.05-3.074.136-4.614.207a38.566 38.566 0 0 0-6.541.792 50.832 50.832 0 0 0-11.332 4.013 33.582 33.582 0 0 0-5.669 3.407A38.85 38.85 0 0 0 28.38 48.048a66.501 66.501 0 0 0-3.75 12.812c-.596 2.97-1.12 5.955-1.66 8.935-.628 3.464-1.261 6.931-1.861 10.402-.75 4.343-1.468 8.69-2.201 13.03a149.63 149.63 0 0 1-3.442 15.638 89.167 89.167 0 0 1-6.16 15.816 435.808 435.808 0 0 0-3.704 7.56 16.956 16.956 0 0 0-1.546 5.219c-.264 2.085-.385 4.171.077 6.245.766 3.435 2.785 5.786 6.107 7.008 2.086.741 4.335.904 6.507.471a10.38 10.38 0 0 0 6.003-3.204c.597-.648 1.187-1.305 1.788-1.948a7.696 7.696 0 0 1 2.51-1.815c.203-.088.406-.172.602-.268a.366.366 0 0 0 .168-.265.36.36 0 0 0-.103-.296 8.855 8.855 0 0 0-1.314-.711 2.73 2.73 0 0 0-2.81.352c-.26.203-.544.372-.845.505a.467.467 0 0 1-.423-.115.724.724 0 0 1-.117-.454.407.407 0 0 1 .12-.295c.797-.806 1.686-1.374 2.897-1.314 2.253.099 3.831 1.227 4.92 3.117.41.719.717 1.495 1.135 2.189.47.87 1.014 1.699 1.626 2.475a6.132 6.132 0 0 0 8.345.922 9.172 9.172 0 0 0 1.988-2.188c.443-.632.852-1.289 1.33-1.905a7.046 7.046 0 0 1 1.166-1.155 3.522 3.522 0 0 1 2.3-.784 3.523 3.523 0 0 1 2.26.896c.49.442.933.932 1.322 1.465.424.576.744 1.226 1.15 1.816.557.883 1.17 1.729 1.837 2.532a8.146 8.146 0 0 0 10.814 1.181 24.996 24.996 0 0 0 2.233-1.954c.53-.487.985-1.052 1.532-1.508a9.503 9.503 0 0 1 1.757-1.21 3.466 3.466 0 0 1 4.215.821c.366.413.675.874.917 1.369.333.685.594 1.419.9 2.125.256.668.556 1.317.901 1.943a5.894 5.894 0 0 0 3.392 2.72 6.091 6.091 0 0 0 5.761-1.059 16.372 16.372 0 0 0 1.895-1.841c.563-.602 1.04-1.284 1.599-1.874 1.528-1.656 3.38-2.403 5.646-1.924 1.178.246 1.91 1.042 2.446 2.03a.75.75 0 0 1-.145.588.377.377 0 0 1-.45.116.388.388 0 0 1-.133-.096 8.003 8.003 0 0 1-.788-.844 2.325 2.325 0 0 0-1.427-.765 3.784 3.784 0 0 0-2.41.308c-.127.064-.193.245-.295.378.11.135.234.258.37.367a9.082 9.082 0 0 1 2.746 3.251c.395.724.793 1.449 1.227 2.149a9.685 9.685 0 0 0 3.569 3.366 13.038 13.038 0 0 0 5.627 1.687Z" fill="#000"/><path d="M92.767 70.2a9.938 9.938 0 0 1-3.222 6.55 7.876 7.876 0 0 1-7.633 1.95 6.954 6.954 0 0 1-4.572-3.773c-2.878-5.587.504-11.99 5.343-13.62a7.516 7.516 0 0 1 9.277 3.947 8.551 8.551 0 0 1 .807 4.946Zm-15.373-.226a7.384 7.384 0 0 0 .478 3.512 6.391 6.391 0 0 0 2.696 3.438c.725.384 1.49.69 2.279.912.205.073.581.203.659-.183.012-.11-.235-.32-.405-.421-.328-.19-.71-.304-1.022-.53a3.746 3.746 0 0 1-1.75-2.67 1.61 1.61 0 0 1 .643-1.593c.262-.2.575-.346.82-.552a1.227 1.227 0 0 0-.232-1.954 7.346 7.346 0 0 0-.789-.296c-.996-.394-1.25-.91-.91-1.928.12-.366.287-.715.497-1.038.398-.592.831-1.14 1.269-1.727.232-.303.51-.575.751-.877a.761.761 0 0 0 .157-.904c-.153-.273-.633-.328-1.048-.08a7.67 7.67 0 0 0-1.195.872c-1.618 1.539-2.566 3.414-2.882 6.02l-.016-.001Zm-23.98 5.528c-3.072-.279-5.053-1.737-6.27-4.157-2.682-5.31.36-11.765 5.382-13.485a7.475 7.475 0 0 1 8.977 3.34c2.785 4.848.53 11.295-4.228 13.552a6.903 6.903 0 0 1-3.86.75Zm-6.12-9.438a8.67 8.67 0 0 0 .55 4.18 6.466 6.466 0 0 0 3.108 3.502c.682.337 1.381.702 2.187.638a.307.307 0 0 0 .232-.159.324.324 0 0 0-.086-.286c-.337-.182-.7-.315-1.029-.505a4.057 4.057 0 0 1-1.9-2.198c-.374-1.047-.14-1.765.768-2.423.231-.141.45-.304.652-.485a1.169 1.169 0 0 0-.3-1.829c-.338-.174-.724-.256-1.077-.403a1.182 1.182 0 0 1-.75-1.466 4.36 4.36 0 0 1 .501-1.21c.409-.653.878-1.261 1.34-1.875.262-.353.578-.666.849-1.014a.68.68 0 0 0 .037-.901.736.736 0 0 0-.92-.024 6.66 6.66 0 0 0-1.089.74 9.149 9.149 0 0 0-3.073 5.718Zm20.04 22.682a8.498 8.498 0 0 1-5.135-2.277 4.88 4.88 0 0 1-1.564-2.835c-.32-2.05 1.005-3.59 3.082-3.503a6.19 6.19 0 0 1 1.456.262c1.905.56 3.892.789 5.875.675.882-.1 1.773.08 2.546.514a2.572 2.572 0 0 1 1.346 2.625 4.163 4.163 0 0 1-1.655 2.934 7.962 7.962 0 0 1-5.237 1.658 5.667 5.667 0 0 0-.714-.053Zm-4.173-2.842c1.367 1.075 2.77 1.837 4.397 1.892 1.403.046 2.842-.085 4.035-1.006-1.27-2.208-6.133-2.948-8.43-.902l-.002.016Zm59.236-18.414c.18.585.226 1.204.134 1.81a1.673 1.673 0 0 1-2.354 1.397 5.204 5.204 0 0 1-1.532-1c-1.252-1.107-2.507-2.222-3.687-3.412a40.843 40.843 0 0 0-5.724-4.609 79.298 79.298 0 0 0-20.153-10.032 96.884 96.884 0 0 0-7.824-2.31l.303-1.201c1.932.477 3.854 1.001 5.767 1.572 7.21 2.166 13.93 5.379 20.376 9.21a56.25 56.25 0 0 1 10.735 8.532c.558.553 1.106 1.123 1.685 1.638.258.174.536.313.829.416.567-.709.309-1.364.092-1.986a53.187 53.187 0 0 0-3.188-7.545c-.176-.329-.336-.656-.546-.976l1.144-.532c1.785 2.77 2.909 5.883 3.943 9.028Z" fill="#000"/><path d="M121.064 67.506c.217.622.474 1.29-.092 1.986a3.643 3.643 0 0 1-.829-.416c-.587-.516-1.11-1.083-1.685-1.639a56.258 56.258 0 0 0-10.723-8.521c-6.447-3.832-13.187-7.047-20.376-9.21a117 117 0 0 0-5.768-1.573 259.296 259.296 0 0 0-6.557-1.54c-2.93-.66-5.87-.723-8.83-.72-2.781-.008-5.579.017-8.361.159a83.015 83.015 0 0 0-19.255 3.213c-1.547.46-3.114.878-4.646 1.389a57.588 57.588 0 0 0-12.2 5.864c-.616.386-1.236.772-1.873 1.119-.273.101-.557.17-.847.203-.056-.299-.174-.526-.12-.705a5.93 5.93 0 0 1 .57-1.38 52.679 52.679 0 0 1 4.61-6.373 22.337 22.337 0 0 1 8.84-6.189 58.766 58.766 0 0 1 10.284-2.914 105.736 105.736 0 0 1 14.921-1.9 72.916 72.916 0 0 1 14.38.457c1.048.15 2.108.242 3.16.363a74.812 74.812 0 0 1 13.375 3.039l.853.275a100.346 100.346 0 0 1 13.457 5.34 48.13 48.13 0 0 1 8.852 5.356 21.517 21.517 0 0 1 5.129 5.771c.19.318.37.648.546.977a53.218 53.218 0 0 1 3.185 7.57Zm-3.095-2.656a.734.734 0 0 0 .009-.613 1.539 1.539 0 0 0-.441-.5c-1.525-1.302-2.983-2.692-4.604-3.883a73.936 73.936 0 0 0-14.277-8.304 98.401 98.401 0 0 0-9.64-3.795c-2.821-.892-5.7-1.552-8.566-2.268a62.47 62.47 0 0 0-12.417-1.805c-2.339-.1-4.683-.01-7.026-.037a65.494 65.494 0 0 0-10.996.832c-5.239.815-10.419 1.866-15.44 3.62a58.892 58.892 0 0 0-10.407 4.596 6.87 6.87 0 0 0-.99.623.713.713 0 0 0-.186.584.479.479 0 0 0 .663.323 9.3 9.3 0 0 0 1.363-.621 68.896 68.896 0 0 1 13.183-5.29 91.973 91.973 0 0 1 13.255-2.73 79.01 79.01 0 0 1 9.672-.664c3.713-.072 7.359.15 11.008.416 3.667.582 7.271 1.206 10.872 2.11a78.29 78.29 0 0 1 10.667 3.394c4.592 1.877 9.111 3.928 13.33 6.581a68.716 68.716 0 0 1 9.304 6.832c.33.296.695.55 1.086.759a.612.612 0 0 0 .558-.163l.02.003Z" fill="#32BAE2"/><path d="M117.962 64.236a.75.75 0 0 1-.009.612.608.608 0 0 1-.576.144 5.442 5.442 0 0 1-1.086-.759 68.656 68.656 0 0 0-9.305-6.831c-4.222-2.658-8.737-4.708-13.33-6.582a78.29 78.29 0 0 0-10.666-3.394c-3.601-.904-7.205-1.527-10.872-2.109-3.65-.267-7.316-.49-11.008-.416a79.011 79.011 0 0 0-9.672.663 91.976 91.976 0 0 0-13.255 2.73A68.899 68.899 0 0 0 25 53.584a9.31 9.31 0 0 1-1.364.621.478.478 0 0 1-.662-.323.712.712 0 0 1 .186-.584c.311-.235.643-.443.99-.623a58.878 58.878 0 0 1 10.407-4.596c5.021-1.753 10.2-2.805 15.44-3.62a65.493 65.493 0 0 1 10.995-.831c2.344.026 4.688-.063 7.027.037 4.189.183 8.349.788 12.417 1.805 2.865.716 5.745 1.376 8.565 2.268a98.39 98.39 0 0 1 9.614 3.808 73.917 73.917 0 0 1 14.277 8.304c1.613 1.19 3.079 2.58 4.605 3.884.191.13.35.302.465.502Zm.492-5.793-1.144.532a21.515 21.515 0 0 0-5.128-5.772 48.11 48.11 0 0 0-8.853-5.355 100.302 100.302 0 0 0-13.456-5.34l.384-1.192a94.846 94.846 0 0 1 15.913 6.529c3.496 1.817 6.757 3.917 9.478 6.785.166.126.346.231.536.313.041-.353.091-.607.099-.861l1.256.037c-.027.235-.015.484-.022.722a6.136 6.136 0 0 0 .937 3.602Z" fill="#000"/><path d="m117.533 54.101-1.255-.037c.059-3.743.163-7.477.144-11.217a41.806 41.806 0 0 0-1.179-9.45c-1.765-7.46-5.64-13.54-11.764-18.175-4.544-3.444-9.712-5.643-15.156-7.24a97.363 97.363 0 0 0-6.658-1.67c-2.561-.562-5.121-1.14-7.778-1.09-2.23.035-4.466-.036-6.698-.025a51.526 51.526 0 0 0-13.711 1.862c-9.697 2.715-16.802 8.518-21.102 17.685a50.658 50.658 0 0 0-3.51 10.629c-.42 1.906-.85 3.812-1.262 5.72-.127.603-.23 1.209-.344 1.813-.115.604-.23 1.139-.388 1.907.486-.25.792-.37 1.059-.546a30.796 30.796 0 0 1 7.297-3.319c5.44-1.746 11.038-2.713 16.693-3.352a91.681 91.681 0 0 1 9.839-.648 56.827 56.827 0 0 1 6.69.176c2.94.337 5.888.627 8.823 1.013a54.66 54.66 0 0 1 5.755 1.073c2.433.604 4.837 1.329 7.23 2.065l-.384 1.19-.853-.274a74.809 74.809 0 0 0-13.375-3.039l-3.16-.363a72.916 72.916 0 0 0-14.38-.458c-5.013.279-10 .914-14.922 1.9a58.78 58.78 0 0 0-10.283 2.915 22.337 22.337 0 0 0-8.84 6.189 52.683 52.683 0 0 0-4.61 6.373 5.933 5.933 0 0 0-.57 1.38c-.054.179.063.418.12.705.29-.033.574-.102.847-.203.636-.339 1.257-.733 1.873-1.119a57.586 57.586 0 0 1 12.2-5.864c1.532-.511 3.099-.928 4.646-1.389a83.015 83.015 0 0 1 19.255-3.214 142.26 142.26 0 0 1 8.362-.159c2.96-.002 5.9.06 8.829.722 2.195.49 4.38.993 6.557 1.54l-.302 1.2a97.792 97.792 0 0 0-4.768-1.07 47.334 47.334 0 0 0-6.626-.939 105.56 105.56 0 0 0-8.215-.153 88.078 88.078 0 0 0-22.448 3.238 65.816 65.816 0 0 0-10.915 4.151c-1.95.962-3.81 2.098-5.715 3.164-.488.273-.952.586-1.444.85a6.24 6.24 0 0 1-1.067.475c-1.642.495-2.82-.542-2.485-2.232.11-.545.32-1.065.617-1.535 1.867-2.922 3.787-5.805 6.297-8.238.492-.45.828-1.044.96-1.697a404.387 404.387 0 0 1 2.15-10.328c1.188-5.437 3.043-10.616 6.098-15.316A31.934 31.934 0 0 1 46.45 8.352c4.698-2.342 9.723-3.519 14.912-4.112a78.083 78.083 0 0 1 8.517-.401c.178-.014.354-.045.525-.092.091-.197.168-.4.23-.608.37-1.493 1.484-2.16 2.84-2.534.11-.021.221-.033.333-.036a15.13 15.13 0 0 1 6.752.775c1.6.596 2.62 1.672 2.549 3.512.017.147.056.29.115.425.907.244 1.862.527 2.832.757a52.402 52.402 0 0 1 15.146 6.074c7.976 4.851 13.11 11.797 15.326 20.889a51.249 51.249 0 0 1 1.248 13.468c-.077 2.535-.168 5.08-.243 7.632ZM81.6 4.765c.131-1.142-.438-1.742-1.354-2.082a13.356 13.356 0 0 0-6.41-.736 2.48 2.48 0 0 0-.945.303 1.333 1.333 0 0 0-.748 1.56c1.606.07 3.16.125 4.71.208 1.55.084 3.091.866 4.747.747Z" fill="#000"/><path d="M116.275 54.065c-.005.254-.059.507-.099.86a2.566 2.566 0 0 1-.537-.312c-2.72-2.869-6.015-4.972-9.478-6.785a94.85 94.85 0 0 0-15.913-6.529c-2.385-.743-4.796-1.469-7.23-2.065a54.634 54.634 0 0 0-5.755-1.073c-2.934-.403-5.883-.675-8.824-1.013a56.85 56.85 0 0 0-6.69-.176 91.68 91.68 0 0 0-9.838.649c-5.655.639-11.251 1.589-16.694 3.351a30.79 30.79 0 0 0-7.296 3.32c-.267.175-.573.296-1.059.545.158-.768.273-1.34.388-1.907.114-.567.217-1.21.344-1.813.416-1.907.85-3.812 1.262-5.72a50.666 50.666 0 0 1 3.51-10.629c4.3-9.167 11.404-14.97 21.101-17.685A51.526 51.526 0 0 1 67.18 5.221c2.232-.011 4.467.06 6.698.024 2.657-.049 5.216.53 7.778 1.091a97.393 97.393 0 0 1 6.658 1.67c5.445 1.585 10.6 3.795 15.156 7.24 6.124 4.635 9.999 10.715 11.764 18.175a41.804 41.804 0 0 1 1.179 9.45c.026 3.716-.079 7.459-.137 11.194Zm-31.919-31.43c.865-2.293.144-4.191-1.908-5.102a5.623 5.623 0 0 0-5.783.57c-.448.316-.902.683-1.356 1.051-.363-.424-.674-.83-1.013-1.215a5.725 5.725 0 0 0-5.174-2.04c-2.218.24-3.484 1.659-3.495 3.872a6.06 6.06 0 0 0 1.78 4.206 17.062 17.062 0 0 0 6.424 4.282c.259.1.539.133.813.093a17.09 17.09 0 0 0 7.343-2.791 6.188 6.188 0 0 0 2.37-2.927Z" fill="#64CCF5"/><path d="M82.448 17.533c2.052.911 2.773 2.81 1.908 5.101a6.187 6.187 0 0 1-2.394 2.924 17.09 17.09 0 0 1-7.343 2.791c-.274.04-.554.008-.812-.093a17.06 17.06 0 0 1-6.424-4.282 6.06 6.06 0 0 1-1.78-4.206c.017-2.233 1.277-3.632 3.494-3.871a5.725 5.725 0 0 1 5.175 2.04c.338.384.662.791 1.013 1.214.477-.356.906-.719 1.355-1.05a5.623 5.623 0 0 1 5.808-.568Z" fill="#A2DDF3"/></g><mask id="d" style="mask-type:alpha" maskUnits="userSpaceOnUse" x="10" y="-10" width="137" height="125"><path d="M47.888-6.577c8.507-8.077 55.733 5.32 58.61 6.363 9.438 12.876 30.201 42.66 37.748 58.787 9.433 20.16-10.531 38.035-11.722 41.323-.954 2.63-16.848 9.704-24.676 12.912-19.01.705-57.78 2.123-60.768 2.156-2.988.033-16.041-5.35-22.195-8.045l-7.409-12.916c-2.146-16.743-6.483-50.618-6.664-52.172C10.585 39.89 39.38 1.5 47.888-6.577Z" fill="#C4C4C4"/></mask><g mask="url(#d)"><path d="M57.765 24.432a38.576 38.576 0 0 1 6.54-.792c1.54-.07 3.077-.157 4.614-.207a41.613 41.613 0 0 1 5.594.177c3.203.319 6.248 1.228 9.313 2.103 1.216.345 2.41.763 3.614 1.152 3.81 1.224 7.218 3.237 10.481 5.505a41.637 41.637 0 0 1 6.216 5.164 36.666 36.666 0 0 1 8.278 13.575 46.394 46.394 0 0 1 2.443 13.428c.128 3.19.097 6.385-.095 9.572-.233 4.069-.363 8.142-.579 12.208-.126 2.53-.297 5.058-.46 7.587-.204 3.464-.416 6.926-.609 10.39a325.883 325.883 0 0 0-.288 6.1c-.315 8.901.32 17.708 2.448 26.383.71 2.885 1.416 5.773 1.999 8.684a18.167 18.167 0 0 1-1.03 10.691c-1.809 4.395-5.783 6.165-9.734 5.909a13.038 13.038 0 0 1-5.643-1.694 9.691 9.691 0 0 1-3.569-3.365c-.434-.7-.832-1.425-1.227-2.15a9.079 9.079 0 0 0-2.746-3.25 2.42 2.42 0 0 1-.37-.368c.103-.144.17-.326.295-.377a3.777 3.777 0 0 1 2.41-.308 2.32 2.32 0 0 1 1.427.765c.242.3.505.582.788.843a.376.376 0 0 0 .583-.019.758.758 0 0 0 .145-.588c-.535-1.004-1.267-1.793-2.446-2.031-2.267-.478-4.118.268-5.646 1.924-.56.607-1.037 1.289-1.599 1.875a16.281 16.281 0 0 1-1.895 1.84 6.084 6.084 0 0 1-5.76 1.059 5.893 5.893 0 0 1-3.393-2.719 15.59 15.59 0 0 1-.9-1.943c-.306-.706-.56-1.439-.9-2.125a6.1 6.1 0 0 0-.919-1.361 3.464 3.464 0 0 0-4.215-.821 9.503 9.503 0 0 0-1.757 1.21c-.546.456-1.002 1.021-1.532 1.507a24.883 24.883 0 0 1-2.216 1.952 8.146 8.146 0 0 1-10.799-1.166 24.155 24.155 0 0 1-1.837-2.533c-.406-.59-.726-1.24-1.15-1.815a9.525 9.525 0 0 0-1.322-1.465 3.518 3.518 0 0 0-4.56-.112 7.04 7.04 0 0 0-1.166 1.154c-.481.604-.886 1.261-1.33 1.906a9.146 9.146 0 0 1-1.989 2.187 6.13 6.13 0 0 1-8.345-.921 17.174 17.174 0 0 1-1.624-2.483c-.417-.711-.723-1.487-1.136-2.189-1.088-1.891-2.667-3.019-4.92-3.117-1.228-.051-2.117.518-2.896 1.314a.398.398 0 0 0-.12.295.725.725 0 0 0 .117.454.47.47 0 0 0 .423.114c.301-.132.585-.302.844-.504a2.73 2.73 0 0 1 2.795-.358c.45.193.884.423 1.296.688a.358.358 0 0 1-.065.56c-.196.097-.4.181-.603.269a7.69 7.69 0 0 0-2.527 1.825c-.6.643-1.19 1.3-1.788 1.948a10.381 10.381 0 0 1-6.003 3.204c-2.172.433-4.42.27-6.507-.471-3.324-1.205-5.353-3.575-6.107-7.008-.461-2.074-.346-4.156-.077-6.245a16.966 16.966 0 0 1 1.556-5.197 478.707 478.707 0 0 1 3.705-7.56 89.157 89.157 0 0 0 6.183-15.813 149.633 149.633 0 0 0 3.443-15.637c.733-4.341 1.45-8.688 2.2-13.031.6-3.471 1.233-6.938 1.861-10.402.54-2.98 1.064-5.966 1.66-8.935a66.494 66.494 0 0 1 3.75-12.824 38.85 38.85 0 0 1 12.397-16.194 33.575 33.575 0 0 1 5.653-3.41 50.825 50.825 0 0 1 11.328-4.013Z" fill="#fff"/><path d="M115.859 74.766c-.138 2.528-.219 5.058-.333 7.59a422.48 422.48 0 0 1-.286 5.61c-.184 2.963-.401 5.93-.577 8.899-.159 2.748-.29 5.495-.425 8.245-.088 1.814-.161 3.629-.238 5.444a94.136 94.136 0 0 0 2.945 28.123c.606 2.284 1.085 4.603 1.53 6.926.677 3.596.31 7.311-1.057 10.705-2.472 6.364-8.71 7.747-13.36 6.517a14.458 14.458 0 0 1-4.8-2.149 12.132 12.132 0 0 1-3.692-4.379 24.243 24.243 0 0 0-1.227-2.15 4.98 4.98 0 0 0-2.178-1.963.736.736 0 0 0-.896.169c-.375.398-.714.836-1.09 1.238-.677.745-1.323 1.494-2.052 2.143a7.317 7.317 0 0 1-6.364 1.772 7.318 7.318 0 0 1-5.202-4.072c-.314-.641-.54-1.325-.827-1.98a15.72 15.72 0 0 0-.996-2.082c-.922-1.464-2.388-1.785-3.84-.824a15.754 15.754 0 0 0-1.873 1.613c-.727.67-1.396 1.404-2.15 2.05-2.432 2.079-5.24 2.621-8.338 1.965a8.894 8.894 0 0 1-5.635-3.731c-.662-.944-1.237-1.953-1.885-2.908a9.19 9.19 0 0 0-1.221-1.552 2.518 2.518 0 0 0-3.703-.014 17.134 17.134 0 0 0-1.543 1.926c-.432.572-.807 1.184-1.261 1.737a7.324 7.324 0 0 1-2.638 2.075 7.32 7.32 0 0 1-6.53-.185 7.314 7.314 0 0 1-2.518-2.22c-.533-.765-.995-1.584-1.462-2.391-.279-.476-.492-.986-.758-1.466-.364-.663-.61-.753-1.352-.525a5.657 5.657 0 0 0-2.351 1.479c-.578.588-1.115 1.218-1.664 1.834-3.357 3.784-7.659 4.933-12.433 3.993-5.202-1.009-8.37-4.608-8.827-10.127-.11-1.363-.022-2.744-.025-4.119.254-1.976.8-3.903 1.624-5.716a296.431 296.431 0 0 1 3.818-7.869 87.535 87.535 0 0 0 6.624-17.392 151.896 151.896 0 0 0 2.84-13.228c.853-5.052 1.765-10.089 2.649-15.133.747-4.285 1.45-8.576 2.253-12.851.639-3.405 1.29-6.817 2.133-10.178 1.633-6.518 4.219-12.613 8.474-17.912A36.482 36.482 0 0 1 46.33 27.206a52.346 52.346 0 0 1 11.524-3.966 44.858 44.858 0 0 1 6.382-.765c1.754-.107 3.514-.127 5.273-.218 3.138-.161 6.282.14 9.332.895 3.204.78 6.39 1.706 9.492 2.799 3.767 1.321 7.17 3.338 10.42 5.621a41.766 41.766 0 0 1 6.66 5.66 38.223 38.223 0 0 1 8.109 13.691 48.605 48.605 0 0 1 2.455 13.928c.162 3.32.059 6.617-.118 9.915Zm-9.351 87.295c3.959.257 7.933-1.514 9.735-5.909a18.177 18.177 0 0 0 1.054-10.688c-.583-2.911-1.289-5.8-1.999-8.685-2.128-8.674-2.763-17.482-2.449-26.382.069-2.034.165-4.067.289-6.1.192-3.465.384-6.93.609-10.39.151-2.53.322-5.06.46-7.587.199-4.069.33-8.141.579-12.208.191-3.187.223-6.382.094-9.572a46.427 46.427 0 0 0-2.442-13.428 36.67 36.67 0 0 0-8.279-13.576 41.576 41.576 0 0 0-6.22-5.164c-3.262-2.268-6.67-4.281-10.48-5.505-1.191-.388-2.378-.804-3.614-1.152-3.065-.875-6.11-1.784-9.313-2.103a41.597 41.597 0 0 0-5.594-.177c-1.537.05-3.074.137-4.614.207a38.563 38.563 0 0 0-6.54.792 50.83 50.83 0 0 0-11.333 4.013 33.587 33.587 0 0 0-5.668 3.408 38.85 38.85 0 0 0-12.398 16.193 66.491 66.491 0 0 0-3.748 12.812c-.596 2.97-1.12 5.955-1.66 8.935-.628 3.464-1.26 6.931-1.861 10.403-.75 4.343-1.468 8.69-2.2 13.03a149.724 149.724 0 0 1-3.443 15.638 89.19 89.19 0 0 1-6.16 15.815 435.808 435.808 0 0 0-3.704 7.56 16.964 16.964 0 0 0-1.546 5.219c-.264 2.086-.384 4.171.077 6.245.767 3.435 2.785 5.787 6.107 7.008 2.087.741 4.335.904 6.507.471a10.38 10.38 0 0 0 6.003-3.204c.597-.648 1.187-1.304 1.788-1.948a7.696 7.696 0 0 1 2.51-1.815c.203-.088.406-.171.603-.268a.361.361 0 0 0 .064-.561 8.848 8.848 0 0 0-1.314-.71 2.731 2.731 0 0 0-2.81.352c-.26.202-.543.372-.845.504a.466.466 0 0 1-.423-.115.721.721 0 0 1-.116-.453.41.41 0 0 1 .12-.295c.796-.806 1.685-1.375 2.896-1.314 2.253.098 3.832 1.226 4.92 3.117.41.718.717 1.494 1.135 2.188.47.871 1.014 1.699 1.626 2.476a6.136 6.136 0 0 0 8.345.921 9.17 9.17 0 0 0 1.988-2.188c.443-.632.852-1.289 1.33-1.905a7.08 7.08 0 0 1 1.166-1.155 3.516 3.516 0 0 1 4.56.112c.49.442.934.933 1.323 1.465.423.576.744 1.226 1.15 1.816a23.98 23.98 0 0 0 1.837 2.533 8.15 8.15 0 0 0 10.813 1.18 24.836 24.836 0 0 0 2.233-1.954c.53-.487.986-1.052 1.532-1.508a9.503 9.503 0 0 1 1.757-1.21 3.466 3.466 0 0 1 4.215.822c.366.413.675.873.917 1.369.333.684.595 1.418.9 2.124.256.668.557 1.317.901 1.944a5.897 5.897 0 0 0 3.393 2.719 6.083 6.083 0 0 0 5.76-1.059 16.37 16.37 0 0 0 1.895-1.84c.564-.603 1.041-1.284 1.599-1.875 1.528-1.656 3.38-2.403 5.646-1.924 1.178.246 1.91 1.042 2.447 2.03a.754.754 0 0 1-.146.589.384.384 0 0 1-.449.115.375.375 0 0 1-.134-.096 8.014 8.014 0 0 1-.788-.844 2.323 2.323 0 0 0-1.427-.764 3.777 3.777 0 0 0-2.41.307c-.127.064-.193.246-.295.378.11.135.234.259.37.368a9.072 9.072 0 0 1 2.746 3.25c.395.724.793 1.449 1.227 2.15a9.693 9.693 0 0 0 3.569 3.365 13.043 13.043 0 0 0 5.627 1.688Z" fill="#000"/><path d="M92.773 70.2a9.937 9.937 0 0 1-3.221 6.55 7.876 7.876 0 0 1-7.634 1.95 6.95 6.95 0 0 1-4.572-3.772c-2.878-5.587.504-11.99 5.343-13.62a7.517 7.517 0 0 1 9.278 3.946 8.551 8.551 0 0 1 .806 4.946ZM77.4 69.974a7.384 7.384 0 0 0 .478 3.513 6.392 6.392 0 0 0 2.696 3.438c.726.383 1.49.689 2.279.912.206.073.582.202.659-.184.013-.11-.235-.32-.404-.421-.329-.19-.71-.304-1.022-.529a3.747 3.747 0 0 1-1.752-2.67 1.612 1.612 0 0 1 .644-1.594c.262-.2.575-.346.821-.552a1.226 1.226 0 0 0-.233-1.953 7.375 7.375 0 0 0-.789-.297c-.996-.394-1.25-.909-.91-1.928.12-.366.287-.715.498-1.038.397-.592.83-1.139 1.268-1.727.233-.302.51-.575.751-.877a.76.76 0 0 0 .158-.904c-.154-.273-.634-.328-1.05-.079a7.672 7.672 0 0 0-1.194.871c-1.618 1.54-2.566 3.414-2.881 6.02l-.017-.001Zm-23.98 5.528c-3.071-.278-5.053-1.737-6.269-4.157-2.683-5.31.36-11.764 5.381-13.484a7.476 7.476 0 0 1 8.977 3.34c2.786 4.848.53 11.294-4.228 13.55a6.902 6.902 0 0 1-3.86.751Zm-6.12-9.437a8.67 8.67 0 0 0 .55 4.179 6.465 6.465 0 0 0 3.109 3.502c.681.338 1.38.702 2.186.638a.307.307 0 0 0 .233-.159.323.323 0 0 0-.087-.285c-.337-.183-.7-.316-1.029-.505a4.056 4.056 0 0 1-1.9-2.199c-.374-1.047-.139-1.765.768-2.422.232-.142.45-.304.653-.485a1.169 1.169 0 0 0-.3-1.83c-.339-.174-.725-.255-1.078-.403a1.182 1.182 0 0 1-.75-1.465c.105-.427.274-.835.501-1.21.409-.653.878-1.262 1.34-1.876.262-.353.578-.666.849-1.014a.679.679 0 0 0 .037-.901.736.736 0 0 0-.919-.023c-.387.21-.752.457-1.09.739a9.148 9.148 0 0 0-3.072 5.719Zm20.04 22.681a8.498 8.498 0 0 1-5.135-2.277 4.879 4.879 0 0 1-1.563-2.835c-.32-2.05 1.004-3.589 3.081-3.503a6.19 6.19 0 0 1 1.457.262c1.904.56 3.892.789 5.874.675.882-.1 1.773.08 2.547.515a2.572 2.572 0 0 1 1.345 2.624 4.163 4.163 0 0 1-1.654 2.934 7.962 7.962 0 0 1-5.237 1.659 5.668 5.668 0 0 0-.715-.054Zm-4.173-2.842c1.367 1.075 2.77 1.837 4.398 1.893 1.402.045 2.841-.086 4.034-1.007-1.27-2.208-6.133-2.947-8.43-.902l-.002.016Zm59.237-18.414c.179.586.225 1.204.133 1.81a1.664 1.664 0 0 1-1.573 1.542 1.675 1.675 0 0 1-.781-.145 5.204 5.204 0 0 1-1.532-1c-1.252-1.106-2.507-2.222-3.687-3.411a40.893 40.893 0 0 0-5.723-4.61 79.32 79.32 0 0 0-20.154-10.032 96.872 96.872 0 0 0-7.823-2.31l.302-1.2a124.63 124.63 0 0 1 5.768 1.572c7.21 2.165 13.929 5.378 20.375 9.21a56.288 56.288 0 0 1 10.736 8.53c.558.555 1.106 1.124 1.684 1.64.258.173.536.313.829.415.567-.708.309-1.364.093-1.985a53.42 53.42 0 0 0-3.188-7.545c-.177-.33-.337-.656-.547-.977l1.144-.531c1.785 2.77 2.909 5.883 3.944 9.027Z" fill="#000"/><path d="M121.071 67.506c.216.622.473 1.29-.093 1.986a3.639 3.639 0 0 1-.829-.416c-.587-.516-1.11-1.083-1.684-1.638a56.29 56.29 0 0 0-10.724-8.522c-6.447-3.832-13.186-7.047-20.376-9.21a117.004 117.004 0 0 0-5.768-1.572 259.39 259.39 0 0 0-6.557-1.54c-2.929-.661-5.87-.723-8.829-.721-2.782-.007-5.58.017-8.362.159a83.016 83.016 0 0 0-19.255 3.214c-1.547.46-3.114.877-4.646 1.388a57.586 57.586 0 0 0-12.2 5.864c-.616.387-1.236.772-1.873 1.119-.273.102-.557.17-.846.203-.057-.298-.175-.526-.121-.705a5.93 5.93 0 0 1 .57-1.38 52.679 52.679 0 0 1 4.61-6.373 22.336 22.336 0 0 1 8.84-6.188 58.768 58.768 0 0 1 10.284-2.915 105.736 105.736 0 0 1 14.921-1.9 72.916 72.916 0 0 1 14.38.457c1.049.15 2.108.243 3.16.363a74.81 74.81 0 0 1 13.375 3.039l.854.275a100.327 100.327 0 0 1 13.456 5.34 48.13 48.13 0 0 1 8.852 5.356 21.517 21.517 0 0 1 5.129 5.771c.19.319.37.648.546.977a53.34 53.34 0 0 1 3.186 7.57Zm-3.095-2.656a.733.733 0 0 0 .008-.612 1.536 1.536 0 0 0-.44-.5c-1.526-1.303-2.984-2.693-4.605-3.883a73.94 73.94 0 0 0-14.277-8.304 98.392 98.392 0 0 0-9.64-3.796c-2.82-.892-5.7-1.552-8.566-2.268a62.47 62.47 0 0 0-12.417-1.804c-2.339-.1-4.683-.011-7.026-.038a65.493 65.493 0 0 0-10.996.833c-5.239.814-10.419 1.866-15.44 3.619a58.892 58.892 0 0 0-10.407 4.596c-.347.18-.678.388-.99.623a.711.711 0 0 0-.186.584.476.476 0 0 0 .663.323 9.36 9.36 0 0 0 1.364-.621 68.899 68.899 0 0 1 13.182-5.29 91.965 91.965 0 0 1 13.256-2.73 78.991 78.991 0 0 1 9.671-.663c3.713-.072 7.36.149 11.008.416 3.667.581 7.271 1.205 10.872 2.109a78.286 78.286 0 0 1 10.667 3.394c4.592 1.878 9.111 3.928 13.33 6.582a68.654 68.654 0 0 1 9.304 6.831c.33.296.695.551 1.086.759a.612.612 0 0 0 .558-.162l.021.002Z" fill="#32BAE2"/><path d="M117.968 64.236a.738.738 0 0 1-.009.613.602.602 0 0 1-.576.143 5.47 5.47 0 0 1-1.086-.758 68.717 68.717 0 0 0-9.304-6.832c-4.223-2.658-8.738-4.708-13.33-6.581a78.294 78.294 0 0 0-10.667-3.395c-3.6-.903-7.205-1.527-10.872-2.109-3.65-.267-7.316-.49-11.008-.416a79.011 79.011 0 0 0-9.672.663 91.979 91.979 0 0 0-13.255 2.73 68.899 68.899 0 0 0-13.183 5.29 9.306 9.306 0 0 1-1.364.622.478.478 0 0 1-.662-.324.712.712 0 0 1 .186-.583c.312-.236.643-.444.99-.623a58.881 58.881 0 0 1 10.407-4.597c5.021-1.753 10.201-2.804 15.44-3.619a65.494 65.494 0 0 1 10.995-.832c2.344.026 4.688-.063 7.027.037 4.189.183 8.35.788 12.417 1.805 2.865.716 5.745 1.376 8.565 2.268a98.38 98.38 0 0 1 9.615 3.809 73.891 73.891 0 0 1 14.276 8.303c1.613 1.19 3.079 2.581 4.605 3.884.191.13.35.302.465.502Zm.492-5.792-1.143.53a21.536 21.536 0 0 0-5.129-5.77 48.116 48.116 0 0 0-8.853-5.356 100.32 100.32 0 0 0-13.456-5.34l.384-1.191a94.852 94.852 0 0 1 15.913 6.528c3.496 1.818 6.758 3.917 9.478 6.786.166.125.346.23.537.312.04-.353.09-.607.099-.861l1.255.037c-.027.236-.015.484-.021.722a6.128 6.128 0 0 0 .936 3.602Z" fill="#000"/><path d="m117.539 54.102-1.255-.037c.06-3.744.163-7.478.144-11.217a41.749 41.749 0 0 0-1.179-9.451c-1.765-7.46-5.64-13.54-11.764-18.174-4.543-3.445-9.712-5.644-15.156-7.24a97.393 97.393 0 0 0-6.657-1.67c-2.562-.562-5.122-1.14-7.778-1.092-2.232.036-4.467-.035-6.7-.024a51.527 51.527 0 0 0-13.71 1.863c-9.697 2.714-16.802 8.517-21.102 17.684a50.659 50.659 0 0 0-3.51 10.629c-.42 1.907-.85 3.813-1.262 5.72-.127.603-.23 1.21-.344 1.813-.114.605-.23 1.139-.387 1.907.485-.249.791-.37 1.058-.545a30.797 30.797 0 0 1 7.297-3.32c5.44-1.746 11.038-2.712 16.694-3.351 3.265-.393 6.55-.61 9.838-.649a56.848 56.848 0 0 1 6.69.176c2.94.338 5.888.627 8.824 1.013 1.936.255 3.857.613 5.754 1.073 2.434.605 4.837 1.33 7.23 2.065l-.383 1.191-.854-.275a74.81 74.81 0 0 0-13.375-3.039l-3.16-.363a72.916 72.916 0 0 0-14.38-.457c-5.012.278-9.999.913-14.921 1.9a58.775 58.775 0 0 0-10.284 2.915 22.335 22.335 0 0 0-8.84 6.188 52.661 52.661 0 0 0-4.61 6.373 5.928 5.928 0 0 0-.57 1.38c-.054.179.063.419.12.705.29-.033.574-.101.847-.203.636-.339 1.257-.732 1.874-1.119a57.588 57.588 0 0 1 12.199-5.864c1.532-.511 3.1-.928 4.646-1.388a83.02 83.02 0 0 1 19.255-3.214c2.782-.142 5.582-.182 8.362-.16 2.96-.001 5.9.06 8.829.722 2.195.491 4.38.993 6.557 1.54l-.302 1.2a99.21 99.21 0 0 0-4.767-1.07 47.333 47.333 0 0 0-6.627-.939 106.056 106.056 0 0 0-8.215-.153 88.078 88.078 0 0 0-22.448 3.238 65.816 65.816 0 0 0-10.915 4.151c-1.95.962-3.81 2.099-5.715 3.164-.488.273-.952.586-1.444.851-.34.191-.697.35-1.067.474-1.641.495-2.819-.542-2.485-2.232.111-.545.32-1.065.617-1.535 1.867-2.922 3.787-5.805 6.297-8.238.492-.45.829-1.043.96-1.696a403.49 403.49 0 0 1 2.15-10.328c1.189-5.437 3.043-10.617 6.098-15.317A31.935 31.935 0 0 1 46.457 8.352C51.155 6.01 56.18 4.834 61.369 4.24a78.084 78.084 0 0 1 8.517-.4c.178-.014.354-.045.526-.093.09-.197.168-.4.23-.607C71.01 1.647 72.125.98 73.48.605a2.2 2.2 0 0 1 .334-.036 15.13 15.13 0 0 1 6.752.776c1.598.595 2.62 1.671 2.548 3.511.017.147.056.29.116.425.906.244 1.862.527 2.831.758a52.4 52.4 0 0 1 15.146 6.074c7.976 4.85 13.11 11.796 15.326 20.888a51.249 51.249 0 0 1 1.248 13.468c-.077 2.535-.168 5.08-.243 7.633ZM81.606 4.765c.131-1.141-.438-1.742-1.354-2.082a13.356 13.356 0 0 0-6.41-.736c-.333.037-.654.14-.945.303a1.333 1.333 0 0 0-.747 1.561c1.605.07 3.159.124 4.71.207 1.55.084 3.09.866 4.746.747Z" fill="#000"/><path d="M116.281 54.065c-.005.255-.059.508-.099.861a2.534 2.534 0 0 1-.536-.313c-2.721-2.868-6.015-4.971-9.479-6.785a94.858 94.858 0 0 0-15.913-6.529c-2.384-.743-4.796-1.468-7.23-2.065a54.63 54.63 0 0 0-5.755-1.072c-2.934-.403-5.882-.676-8.824-1.014a56.848 56.848 0 0 0-6.69-.175 91.422 91.422 0 0 0-9.838.648c-5.655.639-11.25 1.59-16.693 3.351a30.78 30.78 0 0 0-7.297 3.32c-.267.175-.573.296-1.059.545.159-.768.274-1.34.388-1.906.115-.568.217-1.21.344-1.813.417-1.908.85-3.813 1.262-5.721a50.66 50.66 0 0 1 3.51-10.629c4.3-9.167 11.405-14.97 21.102-17.684a51.527 51.527 0 0 1 13.71-1.863c2.233-.01 4.468.06 6.7.025 2.656-.05 5.216.529 7.777 1.09a97.372 97.372 0 0 1 6.658 1.67c5.445 1.585 10.6 3.795 15.156 7.24 6.124 4.635 9.999 10.716 11.764 18.175a41.804 41.804 0 0 1 1.179 9.45c.026 3.717-.079 7.459-.137 11.194Zm-31.918-31.43c.864-2.293.143-4.19-1.909-5.102a5.623 5.623 0 0 0-5.783.571c-.448.315-.902.683-1.356 1.05-.362-.424-.674-.83-1.013-1.215a5.725 5.725 0 0 0-5.174-2.039c-2.218.24-3.484 1.658-3.495 3.871a6.06 6.06 0 0 0 1.781 4.206 17.062 17.062 0 0 0 6.424 4.282c.258.1.538.133.812.093a17.09 17.09 0 0 0 7.343-2.791 6.187 6.187 0 0 0 2.37-2.927Z" fill="#64CCF5"/><path d="M82.454 17.534c2.052.91 2.773 2.808 1.909 5.1a6.187 6.187 0 0 1-2.394 2.924 17.09 17.09 0 0 1-7.343 2.791c-.275.04-.555.008-.813-.093a17.06 17.06 0 0 1-6.424-4.282 6.06 6.06 0 0 1-1.78-4.205c.017-2.233 1.277-3.632 3.494-3.872a5.726 5.726 0 0 1 5.175 2.04c.339.384.662.792 1.013 1.215.477-.357.906-.72 1.356-1.05a5.622 5.622 0 0 1 5.807-.569Z" fill="#A2DDF3"/><path d="M80.249 2.694c.916.34 1.493.942 1.354 2.082-1.66.106-3.156-.663-4.747-.75-1.59-.089-3.104-.139-4.71-.208a1.334 1.334 0 0 1 .748-1.56c.291-.164.612-.267.944-.304a13.356 13.356 0 0 1 6.41.74Z" fill="#32BAE2"/></g></g><defs><linearGradient id="b" x1="133.366" y1="78.896" x2="2.211" y2="129.616" gradientUnits="userSpaceOnUse"><stop stop-color="#B6509E"/><stop offset="1" stop-color="#2EBAC6"/></linearGradient><clipPath id="a"><path fill="#fff" d="M0 0h135v163H0z"/></clipPath></defs></svg>
