<svg width="190" height="206" viewBox="0 0 190 206" fill="none" xmlns="http://www.w3.org/2000/svg"><circle cx="90.733" cy="121.034" r="66.078" transform="rotate(19.923 90.733 121.034)" fill="url(#a)" stroke="#000"/><mask id="b" style="mask-type:alpha" maskUnits="userSpaceOnUse" x="25" y="55" width="132" height="132"><circle cx="90.731" cy="121.035" r="65.578" transform="rotate(19.923 90.73 121.035)" fill="#fff"/></mask><g mask="url(#b)"><path d="M80.703 50.432a38.565 38.565 0 0 1 6.541-.793c1.54-.07 3.076-.157 4.613-.207a41.597 41.597 0 0 1 5.595.178c3.203.318 6.247 1.228 9.312 2.103 1.216.345 2.411.762 3.614 1.151 3.811 1.224 7.218 3.238 10.481 5.506a41.627 41.627 0 0 1 6.216 5.163 36.682 36.682 0 0 1 8.279 13.576 46.426 46.426 0 0 1 2.442 13.428c.129 3.19.097 6.385-.095 9.572-.233 4.069-.363 8.141-.579 12.208-.126 2.529-.297 5.058-.46 7.587-.204 3.463-.416 6.925-.608 10.39a317.186 317.186 0 0 0-.289 6.1c-.315 8.9.32 17.708 2.448 26.383.711 2.884 1.416 5.773 2 8.684a18.175 18.175 0 0 1-1.031 10.691c-1.809 4.394-5.783 6.165-9.734 5.909a13.034 13.034 0 0 1-5.642-1.694 9.696 9.696 0 0 1-3.57-3.365 44.261 44.261 0 0 1-1.226-2.15 9.082 9.082 0 0 0-2.747-3.25 2.476 2.476 0 0 1-.37-.368c.103-.145.169-.326.295-.378a3.783 3.783 0 0 1 2.41-.308 2.328 2.328 0 0 1 1.427.765c.242.3.506.582.788.844a.376.376 0 0 0 .296.126.387.387 0 0 0 .287-.145.754.754 0 0 0 .146-.589c-.535-1.004-1.268-1.792-2.447-2.03-2.266-.479-4.118.268-5.646 1.924-.56.607-1.037 1.289-1.598 1.875a16.387 16.387 0 0 1-1.895 1.84 6.086 6.086 0 0 1-5.761 1.059 5.897 5.897 0 0 1-3.393-2.719 15.675 15.675 0 0 1-.9-1.944c-.306-.706-.56-1.439-.9-2.124a6.1 6.1 0 0 0-.919-1.361 3.464 3.464 0 0 0-4.215-.822 9.552 9.552 0 0 0-1.757 1.21c-.546.456-1.002 1.021-1.531 1.508-.7.694-1.44 1.346-2.217 1.952a8.146 8.146 0 0 1-10.799-1.166 24.155 24.155 0 0 1-1.837-2.533c-.406-.59-.726-1.24-1.15-1.816a9.619 9.619 0 0 0-1.322-1.465 3.517 3.517 0 0 0-4.56-.112 7.046 7.046 0 0 0-1.166 1.155c-.48.603-.886 1.261-1.33 1.905a9.17 9.17 0 0 1-1.988 2.188 6.135 6.135 0 0 1-8.345-.921 17.24 17.24 0 0 1-1.625-2.484c-.417-.71-.723-1.486-1.136-2.188-1.088-1.891-2.666-3.019-4.919-3.117-1.23-.051-2.118.518-2.897 1.313a.413.413 0 0 0-.12.295c-.012.16.029.32.117.454a.467.467 0 0 0 .423.115c.301-.133.585-.302.844-.504a2.732 2.732 0 0 1 2.795-.359c.45.193.884.424 1.296.688a.362.362 0 0 1-.065.561c-.196.097-.399.181-.602.268a7.694 7.694 0 0 0-2.528 1.826c-.6.643-1.19 1.3-1.788 1.947a10.377 10.377 0 0 1-6.003 3.205c-2.172.433-4.42.27-6.507-.472-3.323-1.205-5.352-3.574-6.107-7.007-.461-2.074-.345-4.156-.077-6.245.237-1.805.762-3.56 1.556-5.197a478.532 478.532 0 0 1 3.705-7.56 89.214 89.214 0 0 0 6.183-15.813 149.712 149.712 0 0 0 3.443-15.638c.733-4.341 1.45-8.687 2.2-13.03.6-3.471 1.233-6.939 1.862-10.402.54-2.98 1.064-5.966 1.66-8.936a66.492 66.492 0 0 1 3.749-12.824 38.849 38.849 0 0 1 12.398-16.194 33.575 33.575 0 0 1 5.652-3.409 50.83 50.83 0 0 1 11.328-4.013Z" fill="#fff"/><path d="M138.797 100.766c-.138 2.528-.219 5.058-.332 7.589-.088 1.871-.174 3.738-.287 5.61-.184 2.964-.401 5.931-.577 8.899-.159 2.748-.29 5.495-.424 8.246-.089 1.813-.162 3.629-.239 5.443a94.165 94.165 0 0 0 2.945 28.123c.606 2.285 1.085 4.604 1.53 6.927a19.17 19.17 0 0 1-1.056 10.704c-2.472 6.364-8.711 7.747-13.361 6.517a14.431 14.431 0 0 1-4.8-2.148 12.14 12.14 0 0 1-3.692-4.38 24.243 24.243 0 0 0-1.226-2.149 4.971 4.971 0 0 0-2.179-1.963.731.731 0 0 0-.896.169c-.375.397-.713.836-1.089 1.237-.678.746-1.324 1.495-2.053 2.144a7.333 7.333 0 0 1-6.364 1.772 7.323 7.323 0 0 1-5.202-4.072c-.314-.641-.54-1.326-.827-1.98a15.59 15.59 0 0 0-.995-2.082c-.923-1.465-2.389-1.785-3.84-.824a15.738 15.738 0 0 0-1.874 1.612c-.727.67-1.396 1.404-2.15 2.05-2.432 2.08-5.24 2.622-8.338 1.965a8.893 8.893 0 0 1-5.635-3.73c-.661-.944-1.237-1.953-1.885-2.908a9.202 9.202 0 0 0-1.221-1.553 2.53 2.53 0 0 0-1.849-.818 2.53 2.53 0 0 0-1.854.805 17.134 17.134 0 0 0-1.543 1.926c-.432.572-.807 1.183-1.261 1.736a7.313 7.313 0 0 1-11.685-.329c-.534-.765-.996-1.584-1.463-2.391-.279-.477-.492-.987-.758-1.466-.364-.663-.609-.753-1.351-.526a5.659 5.659 0 0 0-2.352 1.48c-.578.588-1.115 1.218-1.664 1.834-3.357 3.784-7.659 4.932-12.433 3.993-5.202-1.009-8.37-4.608-8.827-10.127-.11-1.363-.022-2.744-.025-4.119a20.012 20.012 0 0 1 1.624-5.717 296.216 296.216 0 0 1 3.818-7.868 87.583 87.583 0 0 0 6.624-17.392 151.97 151.97 0 0 0 2.841-13.229c.852-5.051 1.764-10.088 2.648-15.132.747-4.285 1.45-8.576 2.254-12.851.638-3.405 1.289-6.817 2.132-10.178 1.633-6.518 4.219-12.614 8.474-17.912a36.482 36.482 0 0 1 13.188-10.497 52.343 52.343 0 0 1 11.525-3.966 44.858 44.858 0 0 1 6.381-.765c1.754-.108 3.514-.128 5.274-.218 3.137-.161 6.282.14 9.331.895a99.06 99.06 0 0 1 9.492 2.798c3.767 1.322 7.17 3.339 10.419 5.622a41.762 41.762 0 0 1 6.661 5.66 38.207 38.207 0 0 1 8.109 13.691 48.606 48.606 0 0 1 2.455 13.927c.162 3.32.059 6.618-.118 9.916Zm-9.351 87.294c3.959.258 7.933-1.513 9.735-5.908a18.178 18.178 0 0 0 1.054-10.688c-.583-2.912-1.289-5.8-1.999-8.685-2.128-8.675-2.763-17.482-2.449-26.383.069-2.033.166-4.067.289-6.1.192-3.464.385-6.929.609-10.389.151-2.531.322-5.059.46-7.587.2-4.069.33-8.142.579-12.209.192-3.187.223-6.381.095-9.572a46.394 46.394 0 0 0-2.443-13.428 36.666 36.666 0 0 0-8.278-13.575 41.626 41.626 0 0 0-6.22-5.164c-3.263-2.268-6.671-4.282-10.482-5.505-1.19-.388-2.377-.805-3.613-1.152-3.065-.875-6.11-1.785-9.313-2.103a41.595 41.595 0 0 0-5.594-.177c-1.537.05-3.074.136-4.613.206-2.2.078-4.388.343-6.542.793a50.834 50.834 0 0 0-11.332 4.013 33.577 33.577 0 0 0-5.668 3.407 38.85 38.85 0 0 0-12.398 16.194 66.495 66.495 0 0 0-3.747 12.812c-.597 2.97-1.12 5.955-1.66 8.935-.629 3.464-1.262 6.931-1.862 10.402-.75 4.343-1.467 8.69-2.2 13.031a149.663 149.663 0 0 1-3.443 15.637 89.174 89.174 0 0 1-6.16 15.816 435.732 435.732 0 0 0-3.703 7.56A16.955 16.955 0 0 0 27 163.46c-.264 2.085-.384 4.171.077 6.245.767 3.435 2.785 5.786 6.107 7.008 2.087.741 4.335.904 6.507.471a10.38 10.38 0 0 0 6.004-3.204c.597-.648 1.187-1.305 1.787-1.948a7.682 7.682 0 0 1 2.51-1.815c.203-.088.406-.172.603-.268a.364.364 0 0 0 .15-.425.36.36 0 0 0-.086-.136 8.854 8.854 0 0 0-1.314-.711 2.73 2.73 0 0 0-2.81.352c-.26.203-.543.372-.845.504a.47.47 0 0 1-.423-.114.724.724 0 0 1-.116-.454.402.402 0 0 1 .12-.295c.797-.806 1.685-1.375 2.897-1.314 2.252.099 3.83 1.227 4.919 3.117.411.719.717 1.495 1.135 2.189.47.87 1.014 1.699 1.626 2.475a6.132 6.132 0 0 0 8.345.922 9.171 9.171 0 0 0 1.988-2.188c.444-.633.852-1.289 1.33-1.905a7.042 7.042 0 0 1 1.166-1.155 3.522 3.522 0 0 1 2.301-.784 3.523 3.523 0 0 1 2.26.896c.49.442.933.932 1.322 1.465.423.576.744 1.226 1.15 1.816.556.883 1.17 1.729 1.837 2.532a8.146 8.146 0 0 0 10.814 1.181 24.995 24.995 0 0 0 2.233-1.954c.529-.487.985-1.052 1.531-1.508a9.5 9.5 0 0 1 1.757-1.21 3.466 3.466 0 0 1 4.215.821c.367.413.675.874.918 1.369.332.685.594 1.419.9 2.125.255.668.556 1.317.9 1.943a5.898 5.898 0 0 0 3.393 2.72 6.09 6.09 0 0 0 5.761-1.059 16.396 16.396 0 0 0 1.895-1.841c.563-.602 1.04-1.284 1.598-1.874 1.528-1.657 3.38-2.403 5.646-1.924 1.178.246 1.91 1.042 2.447 2.03a.748.748 0 0 1-.146.588.379.379 0 0 1-.583.02 8.066 8.066 0 0 1-.788-.844 2.323 2.323 0 0 0-1.427-.765 3.783 3.783 0 0 0-2.41.308c-.127.063-.193.245-.295.378.11.135.234.258.37.367a9.084 9.084 0 0 1 2.747 3.251 43.76 43.76 0 0 0 1.226 2.149 9.69 9.69 0 0 0 3.57 3.366 13.034 13.034 0 0 0 5.626 1.687Z" fill="#000"/><path d="M115.712 96.2a9.939 9.939 0 0 1-3.222 6.549 7.882 7.882 0 0 1-7.634 1.951 6.95 6.95 0 0 1-4.572-3.773c-2.878-5.587.505-11.99 5.343-13.62a7.517 7.517 0 0 1 9.278 3.947 8.55 8.55 0 0 1 .807 4.946Zm-15.373-.226a7.377 7.377 0 0 0 .477 3.512 6.393 6.393 0 0 0 2.696 3.438c.726.384 1.49.689 2.279.912.206.073.582.203.659-.183.013-.11-.235-.32-.404-.421-.328-.19-.71-.304-1.022-.529a3.75 3.75 0 0 1-1.751-2.671 1.61 1.61 0 0 1 .644-1.593c.261-.2.574-.346.82-.552a1.225 1.225 0 0 0-.232-1.954 7.31 7.31 0 0 0-.79-.296c-.996-.394-1.249-.91-.91-1.928.12-.366.288-.715.498-1.038.397-.592.83-1.14 1.268-1.727.233-.303.511-.575.752-.877a.758.758 0 0 0 .157-.904c-.154-.273-.633-.328-1.049-.08a7.675 7.675 0 0 0-1.195.872c-1.617 1.539-2.565 3.414-2.881 6.02l-.016-.001Zm-23.98 5.528c-3.072-.279-5.053-1.737-6.27-4.157-2.683-5.31.36-11.765 5.381-13.485a7.476 7.476 0 0 1 8.977 3.34c2.786 4.848.53 11.295-4.228 13.552a6.91 6.91 0 0 1-3.86.75Zm-6.12-9.438a8.67 8.67 0 0 0 .549 4.18 6.465 6.465 0 0 0 3.109 3.502c.682.337 1.38.701 2.186.638a.312.312 0 0 0 .232-.159.32.32 0 0 0-.086-.286c-.337-.182-.7-.315-1.028-.505a4.056 4.056 0 0 1-1.9-2.198c-.374-1.047-.14-1.765.767-2.423.232-.141.45-.304.653-.485a1.169 1.169 0 0 0-.3-1.829c-.339-.174-.724-.256-1.078-.403a1.182 1.182 0 0 1-.75-1.466c.105-.426.274-.834.502-1.21.408-.653.877-1.261 1.339-1.875.263-.353.579-.666.849-1.014a.678.678 0 0 0 .038-.901.736.736 0 0 0-.92-.024c-.386.21-.751.458-1.09.74a9.148 9.148 0 0 0-3.072 5.718Zm20.039 22.682a8.498 8.498 0 0 1-5.135-2.277 4.882 4.882 0 0 1-1.563-2.835c-.32-2.05 1.005-3.589 3.082-3.503a6.21 6.21 0 0 1 1.456.262c1.905.56 3.892.789 5.874.675a4.224 4.224 0 0 1 2.547.514 2.573 2.573 0 0 1 1.345 2.625 4.168 4.168 0 0 1-1.654 2.934 7.965 7.965 0 0 1-5.237 1.658 5.7 5.7 0 0 0-.715-.053Zm-4.172-2.842c1.366 1.075 2.769 1.837 4.397 1.892 1.402.046 2.841-.085 4.034-1.006-1.27-2.208-6.132-2.948-8.43-.902l-.001.016Zm59.236-18.414c.179.585.225 1.204.134 1.81a1.676 1.676 0 0 1-2.355 1.397 5.217 5.217 0 0 1-1.532-1c-1.251-1.107-2.506-2.222-3.687-3.412a40.835 40.835 0 0 0-5.723-4.609 79.312 79.312 0 0 0-20.154-10.032 96.88 96.88 0 0 0-7.823-2.31l.302-1.201c1.932.477 3.855 1.001 5.768 1.572 7.21 2.166 13.929 5.379 20.376 9.21a56.25 56.25 0 0 1 10.735 8.531c.558.555 1.106 1.124 1.685 1.639.257.174.536.313.829.416.567-.709.309-1.364.092-1.986a53.42 53.42 0 0 0-3.188-7.545c-.176-.329-.337-.656-.547-.976l1.144-.532c1.785 2.77 2.91 5.883 3.944 9.028Z" fill="#000"/><path d="M144.009 93.506c.217.622.473 1.29-.092 1.986a3.618 3.618 0 0 1-.829-.416c-.587-.516-1.111-1.083-1.685-1.639a56.26 56.26 0 0 0-10.724-8.521c-6.447-3.832-13.186-7.047-20.376-9.21a117.012 117.012 0 0 0-5.767-1.573 260.339 260.339 0 0 0-6.558-1.54c-2.929-.66-5.869-.722-8.829-.72-2.782-.008-5.58.017-8.362.158a83.016 83.016 0 0 0-19.255 3.214c-1.546.46-3.113.878-4.646 1.389a57.586 57.586 0 0 0-12.199 5.864c-.616.386-1.237.772-1.874 1.119-.273.101-.557.17-.846.203-.056-.299-.174-.526-.12-.705a5.93 5.93 0 0 1 .57-1.38 52.669 52.669 0 0 1 4.609-6.373 22.335 22.335 0 0 1 8.84-6.189A58.768 58.768 0 0 1 66.15 66.26a105.736 105.736 0 0 1 14.922-1.9 72.916 72.916 0 0 1 14.379.457c1.049.15 2.108.242 3.16.363a74.78 74.78 0 0 1 13.375 3.039l.854.275a100.335 100.335 0 0 1 13.456 5.34 48.064 48.064 0 0 1 8.852 5.356 21.5 21.5 0 0 1 5.129 5.771c.19.318.37.648.547.977a53.334 53.334 0 0 1 3.185 7.57Zm-3.095-2.656a.733.733 0 0 0 .008-.613 1.534 1.534 0 0 0-.44-.499c-1.526-1.303-2.984-2.693-4.605-3.884A73.906 73.906 0 0 0 121.6 77.55a98.292 98.292 0 0 0-9.64-3.795c-2.821-.892-5.7-1.552-8.565-2.268a62.476 62.476 0 0 0-12.418-1.805c-2.339-.1-4.683-.01-7.026-.037a65.493 65.493 0 0 0-10.996.833c-5.239.814-10.418 1.865-15.44 3.619a58.892 58.892 0 0 0-10.407 4.596c-.347.18-.678.388-.99.623a.711.711 0 0 0-.186.584.476.476 0 0 0 .663.323 9.36 9.36 0 0 0 1.364-.621 68.905 68.905 0 0 1 13.183-5.29 91.965 91.965 0 0 1 13.255-2.73 78.991 78.991 0 0 1 9.671-.664c3.713-.072 7.36.15 11.009.416 3.666.582 7.271 1.206 10.872 2.11a78.327 78.327 0 0 1 10.666 3.394c4.592 1.877 9.111 3.928 13.33 6.582a68.726 68.726 0 0 1 9.305 6.83c.329.297.694.552 1.086.76a.608.608 0 0 0 .558-.163l.02.003Z" fill="#32BAE2"/><path d="M140.906 90.236a.733.733 0 0 1-.008.612.611.611 0 0 1-.577.144 5.47 5.47 0 0 1-1.086-.759 68.646 68.646 0 0 0-9.304-6.831c-4.223-2.659-8.738-4.708-13.33-6.582a78.296 78.296 0 0 0-10.667-3.394c-3.601-.904-7.205-1.527-10.871-2.109-3.65-.267-7.317-.49-11.01-.416a78.991 78.991 0 0 0-9.67.663 91.979 91.979 0 0 0-13.256 2.73 68.899 68.899 0 0 0-13.183 5.29 9.306 9.306 0 0 1-1.363.621.478.478 0 0 1-.663-.323.712.712 0 0 1 .186-.584 6.88 6.88 0 0 1 .99-.623A58.881 58.881 0 0 1 57.5 74.08c5.022-1.753 10.201-2.805 15.44-3.62a65.483 65.483 0 0 1 10.996-.831c2.343.026 4.687-.063 7.026.037 4.19.183 8.35.788 12.417 1.805 2.865.716 5.745 1.376 8.565 2.268a98.347 98.347 0 0 1 9.615 3.808 73.936 73.936 0 0 1 14.277 8.304c1.612 1.19 3.079 2.58 4.604 3.884.191.13.35.302.465.502Zm.492-5.793-1.143.532a21.517 21.517 0 0 0-5.129-5.772 48.13 48.13 0 0 0-8.852-5.355 100.282 100.282 0 0 0-13.457-5.34l.384-1.192a94.846 94.846 0 0 1 15.913 6.529c3.496 1.817 6.758 3.917 9.479 6.785.165.126.345.231.536.313.04-.353.09-.607.099-.861l1.255.037c-.027.235-.014.484-.021.722a6.135 6.135 0 0 0 .936 3.602Z" fill="#000"/><path d="m140.478 80.101-1.256-.037c.06-3.743.163-7.477.144-11.217a41.803 41.803 0 0 0-1.178-9.45c-1.766-7.46-5.641-13.54-11.764-18.175-4.544-3.444-9.713-5.643-15.157-7.24a97.324 97.324 0 0 0-6.657-1.67c-2.562-.562-5.122-1.14-7.778-1.09-2.231.035-4.467-.036-6.699-.025a51.524 51.524 0 0 0-13.711 1.862c-9.697 2.715-16.801 8.518-21.102 17.685a50.666 50.666 0 0 0-3.51 10.628c-.42 1.907-.849 3.813-1.262 5.721-.126.603-.229 1.209-.344 1.813-.114.604-.23 1.138-.387 1.907.485-.25.791-.37 1.058-.546a30.8 30.8 0 0 1 7.297-3.32c5.44-1.745 11.039-2.712 16.694-3.35a91.15 91.15 0 0 1 9.838-.649 56.848 56.848 0 0 1 6.69.175c2.94.338 5.888.627 8.824 1.014a54.65 54.65 0 0 1 5.755 1.073c2.433.604 4.836 1.329 7.229 2.065l-.383 1.19-.854-.274a74.818 74.818 0 0 0-13.374-3.039l-3.161-.363a72.916 72.916 0 0 0-14.38-.458 105.95 105.95 0 0 0-14.921 1.9 58.776 58.776 0 0 0-10.284 2.915 22.336 22.336 0 0 0-8.84 6.189 52.669 52.669 0 0 0-4.61 6.373 5.93 5.93 0 0 0-.57 1.38c-.054.179.063.418.12.705.29-.033.574-.102.847-.203.636-.339 1.258-.733 1.874-1.119a57.576 57.576 0 0 1 12.2-5.864c1.532-.511 3.098-.928 4.645-1.389a83.01 83.01 0 0 1 19.255-3.214 142.26 142.26 0 0 1 8.362-.159c2.96-.002 5.9.06 8.83.722 2.194.49 4.38.993 6.557 1.54l-.303 1.2a99.867 99.867 0 0 0-4.767-1.07 47.318 47.318 0 0 0-6.627-.939 105.55 105.55 0 0 0-8.215-.153 88.074 88.074 0 0 0-22.447 3.238 65.816 65.816 0 0 0-10.916 4.151c-1.95.962-3.81 2.098-5.715 3.164-.488.273-.952.586-1.443.85-.34.192-.698.35-1.067.475-1.642.495-2.82-.542-2.486-2.233a4.59 4.59 0 0 1 .617-1.534c1.867-2.922 3.787-5.805 6.297-8.238.492-.45.829-1.044.961-1.697.67-3.449 1.387-6.892 2.15-10.328 1.188-5.437 3.042-10.616 6.097-15.316a31.935 31.935 0 0 1 12.744-11.326c4.698-2.341 9.724-3.518 14.912-4.111a78.074 78.074 0 0 1 8.518-.401 2.75 2.75 0 0 0 .525-.092c.09-.197.168-.4.23-.608.37-1.493 1.483-2.16 2.84-2.534.11-.021.22-.033.333-.036 2.28-.257 4.589.008 6.752.775 1.599.595 2.619 1.672 2.548 3.512.017.146.056.29.116.425.906.244 1.862.527 2.831.757a52.396 52.396 0 0 1 15.146 6.074c7.976 4.851 13.11 11.797 15.326 20.889a51.249 51.249 0 0 1 1.248 13.468c-.077 2.535-.167 5.08-.242 7.632Zm-35.934-49.336c.132-1.142-.437-1.742-1.353-2.082a13.36 13.36 0 0 0-6.411-.736c-.332.036-.654.14-.945.303a1.333 1.333 0 0 0-.747 1.56c1.606.07 3.16.125 4.71.208 1.55.084 3.09.866 4.746.747Z" fill="#000"/><path d="M139.219 80.064c-.005.255-.058.508-.099.862a2.53 2.53 0 0 1-.536-.313c-2.721-2.869-6.015-4.972-9.479-6.785a94.812 94.812 0 0 0-15.913-6.529c-2.384-.743-4.795-1.469-7.229-2.065a54.676 54.676 0 0 0-5.755-1.073c-2.934-.403-5.883-.675-8.825-1.013a56.827 56.827 0 0 0-6.689-.176c-3.289.04-6.573.256-9.838.649-5.655.639-11.252 1.589-16.694 3.351-2.566.784-5.02 1.9-7.297 3.32-.267.175-.573.296-1.059.545.159-.768.274-1.34.388-1.907.115-.567.217-1.21.344-1.813.417-1.907.85-3.813 1.262-5.72a50.659 50.659 0 0 1 3.51-10.629c4.3-9.167 11.405-14.97 21.102-17.685a51.528 51.528 0 0 1 13.71-1.862c2.233-.011 4.469.06 6.7.024 2.656-.049 5.216.53 7.778 1.091a97.265 97.265 0 0 1 6.657 1.67c5.445 1.585 10.6 3.795 15.156 7.24 6.124 4.635 9.999 10.715 11.764 18.175a41.749 41.749 0 0 1 1.179 9.45c.026 3.716-.079 7.458-.137 11.193Zm-31.918-31.43c.864-2.292.144-4.19-1.909-5.101a5.62 5.62 0 0 0-5.783.57c-.448.316-.901.683-1.355 1.051-.363-.424-.675-.83-1.013-1.215a5.725 5.725 0 0 0-5.175-2.04c-2.217.24-3.483 1.659-3.495 3.872a6.06 6.06 0 0 0 1.781 4.206 17.061 17.061 0 0 0 6.424 4.281c.258.101.538.134.812.094a17.084 17.084 0 0 0 7.343-2.792 6.188 6.188 0 0 0 2.37-2.926Z" fill="#64CCF5"/><path d="M105.392 43.533c2.052.911 2.773 2.809 1.909 5.101a6.192 6.192 0 0 1-2.394 2.924 17.092 17.092 0 0 1-7.343 2.791c-.275.04-.555.008-.813-.093a17.062 17.062 0 0 1-6.423-4.282 6.06 6.06 0 0 1-1.781-4.206c.017-2.233 1.277-3.632 3.495-3.871a5.724 5.724 0 0 1 5.174 2.04c.339.384.662.791 1.013 1.215.477-.357.906-.72 1.356-1.05a5.623 5.623 0 0 1 5.807-.569Z" fill="#A2DDF3"/></g><mask id="c" style="mask-type:alpha" maskUnits="userSpaceOnUse" x="33" y="16" width="137" height="125"><path d="M70.832 19.423c8.508-8.077 55.734 5.32 58.611 6.363 9.438 12.875 30.2 42.66 37.747 58.787 9.434 20.16-10.53 38.035-11.722 41.323-.953 2.63-16.847 9.704-24.675 12.912-19.011.705-57.78 2.123-60.768 2.156-2.988.033-16.042-5.35-22.195-8.045l-7.41-12.916c-2.146-16.743-6.483-50.618-6.664-52.171-.226-1.943 28.569-40.332 37.076-48.41Z" fill="#C4C4C4"/></mask><g mask="url(#c)"><path d="M80.709 50.432a38.587 38.587 0 0 1 6.541-.792c1.54-.07 3.077-.157 4.614-.207a41.612 41.612 0 0 1 5.594.177c3.203.319 6.247 1.228 9.312 2.103 1.216.345 2.411.762 3.614 1.152 3.811 1.224 7.219 3.237 10.482 5.505a41.62 41.62 0 0 1 6.215 5.164 36.682 36.682 0 0 1 8.279 13.575 46.427 46.427 0 0 1 2.442 13.428c.129 3.19.097 6.385-.095 9.572-.232 4.069-.363 8.142-.579 12.208-.125 2.53-.296 5.058-.459 7.587-.205 3.463-.417 6.926-.609 10.39a325.885 325.885 0 0 0-.289 6.1c-.314 8.901.321 17.708 2.449 26.383.71 2.885 1.415 5.773 1.999 8.684a18.183 18.183 0 0 1-1.03 10.691c-1.81 4.395-5.784 6.165-9.735 5.909a13.038 13.038 0 0 1-5.642-1.694 9.685 9.685 0 0 1-3.569-3.365c-.435-.7-.833-1.425-1.227-2.15a9.08 9.08 0 0 0-2.747-3.25 2.378 2.378 0 0 1-.369-.368c.103-.144.169-.326.294-.377a3.777 3.777 0 0 1 2.41-.308 2.318 2.318 0 0 1 1.427.765c.242.3.506.582.788.843a.38.38 0 0 0 .583-.019.754.754 0 0 0 .146-.588c-.535-1.004-1.268-1.793-2.447-2.031-2.266-.478-4.118.268-5.646 1.924-.559.607-1.037 1.289-1.598 1.875a16.305 16.305 0 0 1-1.895 1.84 6.088 6.088 0 0 1-5.761 1.059 5.897 5.897 0 0 1-3.393-2.719 15.631 15.631 0 0 1-.9-1.943c-.306-.706-.56-1.439-.9-2.125a6.1 6.1 0 0 0-.918-1.361 3.464 3.464 0 0 0-4.216-.821 9.504 9.504 0 0 0-1.757 1.21c-.546.456-1.002 1.021-1.531 1.507-.7.694-1.44 1.346-2.216 1.952a8.147 8.147 0 0 1-10.8-1.166 24.155 24.155 0 0 1-1.837-2.533c-.405-.59-.726-1.24-1.15-1.815a9.52 9.52 0 0 0-1.322-1.465 3.518 3.518 0 0 0-4.56-.112 7.036 7.036 0 0 0-1.166 1.154c-.48.604-.885 1.261-1.33 1.906a9.148 9.148 0 0 1-1.988 2.187 6.13 6.13 0 0 1-8.345-.921 17.183 17.183 0 0 1-1.625-2.483c-.416-.711-.722-1.487-1.136-2.189-1.087-1.891-2.666-3.019-4.919-3.117-1.229-.051-2.117.518-2.896 1.314a.397.397 0 0 0-.12.295.726.726 0 0 0 .116.454.47.47 0 0 0 .423.114c.301-.132.585-.302.844-.504a2.731 2.731 0 0 1 2.795-.358c.45.193.884.423 1.296.688a.36.36 0 0 1-.064.56c-.197.097-.4.181-.603.269a7.69 7.69 0 0 0-2.527 1.825c-.601.643-1.191 1.3-1.788 1.948a10.38 10.38 0 0 1-6.004 3.204c-2.172.433-4.42.27-6.507-.471-3.323-1.205-5.352-3.575-6.106-7.008-.462-2.074-.346-4.156-.077-6.245a16.965 16.965 0 0 1 1.555-5.197 479.409 479.409 0 0 1 3.705-7.56 89.154 89.154 0 0 0 6.183-15.813 149.663 149.663 0 0 0 3.443-15.637c.733-4.341 1.45-8.688 2.2-13.031.6-3.471 1.234-6.938 1.862-10.402.54-2.98 1.064-5.966 1.66-8.935a66.494 66.494 0 0 1 3.75-12.824 38.85 38.85 0 0 1 12.397-16.194 33.575 33.575 0 0 1 5.652-3.41 50.83 50.83 0 0 1 11.328-4.013Z" fill="#fff"/><path d="M138.803 100.766c-.138 2.528-.218 5.058-.332 7.589a423.145 423.145 0 0 1-.286 5.611c-.184 2.963-.402 5.931-.578 8.899-.159 2.748-.289 5.495-.424 8.245-.089 1.814-.162 3.629-.238 5.444a94.168 94.168 0 0 0 2.944 28.123c.606 2.284 1.085 4.603 1.53 6.926a19.164 19.164 0 0 1-1.056 10.705c-2.472 6.364-8.711 7.747-13.361 6.517a14.454 14.454 0 0 1-4.8-2.149 12.132 12.132 0 0 1-3.691-4.379 24.27 24.27 0 0 0-1.227-2.15 4.983 4.983 0 0 0-2.179-1.963.736.736 0 0 0-.896.169c-.375.398-.713.836-1.089 1.238-.678.745-1.324 1.494-2.053 2.143a7.315 7.315 0 0 1-6.364 1.772 7.317 7.317 0 0 1-5.202-4.072c-.313-.641-.54-1.325-.826-1.98a15.72 15.72 0 0 0-.996-2.082c-.923-1.464-2.388-1.785-3.84-.824a15.762 15.762 0 0 0-1.874 1.613c-.727.669-1.396 1.404-2.15 2.05-2.432 2.079-5.24 2.621-8.338 1.965a8.894 8.894 0 0 1-5.635-3.731c-.661-.944-1.237-1.953-1.885-2.908a9.19 9.19 0 0 0-1.22-1.552 2.518 2.518 0 0 0-3.704-.014 17.122 17.122 0 0 0-1.542 1.926c-.433.572-.807 1.184-1.262 1.737a7.323 7.323 0 0 1-2.638 2.075 7.32 7.32 0 0 1-6.53-.185 7.314 7.314 0 0 1-2.517-2.22c-.534-.765-.996-1.584-1.463-2.391-.279-.476-.492-.986-.758-1.466-.364-.663-.609-.753-1.351-.525a5.656 5.656 0 0 0-2.352 1.479c-.578.588-1.115 1.218-1.663 1.834-3.358 3.784-7.66 4.933-12.433 3.993-5.203-1.009-8.37-4.608-8.827-10.127-.111-1.363-.023-2.744-.025-4.119.253-1.976.8-3.903 1.623-5.716a296.587 296.587 0 0 1 3.818-7.869 87.536 87.536 0 0 0 6.625-17.392 151.953 151.953 0 0 0 2.84-13.228c.852-5.052 1.764-10.089 2.648-15.132.747-4.286 1.45-8.577 2.254-12.852.638-3.405 1.29-6.817 2.132-10.178 1.634-6.517 4.219-12.613 8.474-17.912a36.482 36.482 0 0 1 13.189-10.497 52.346 52.346 0 0 1 11.524-3.966 44.857 44.857 0 0 1 6.382-.765c1.753-.107 3.513-.127 5.273-.218 3.138-.161 6.282.14 9.332.895 3.203.78 6.39 1.706 9.492 2.799 3.766 1.321 7.17 3.338 10.419 5.621a41.755 41.755 0 0 1 6.66 5.66 38.208 38.208 0 0 1 8.109 13.691 48.606 48.606 0 0 1 2.455 13.928c.162 3.32.059 6.617-.118 9.915Zm-9.35 87.295c3.959.257 7.933-1.514 9.734-5.909a18.177 18.177 0 0 0 1.055-10.688c-.584-2.911-1.289-5.8-2-8.685-2.128-8.674-2.763-17.482-2.448-26.382.069-2.034.165-4.067.289-6.1.192-3.465.384-6.929.608-10.39.151-2.531.322-5.059.46-7.587.2-4.069.33-8.141.579-12.208.192-3.188.224-6.382.095-9.572a46.427 46.427 0 0 0-2.442-13.428 36.683 36.683 0 0 0-8.279-13.576 41.638 41.638 0 0 0-6.22-5.164c-3.263-2.268-6.67-4.281-10.481-5.505-1.191-.388-2.378-.804-3.614-1.152-3.065-.875-6.109-1.784-9.312-2.103a41.596 41.596 0 0 0-5.595-.177c-1.537.05-3.074.137-4.613.207a38.569 38.569 0 0 0-6.541.792 50.83 50.83 0 0 0-11.332 4.013 33.575 33.575 0 0 0-5.669 3.407A38.85 38.85 0 0 0 51.33 74.049a66.487 66.487 0 0 0-3.748 12.812c-.596 2.97-1.12 5.955-1.66 8.935-.629 3.464-1.261 6.931-1.862 10.403-.75 4.343-1.467 8.689-2.2 13.03a149.712 149.712 0 0 1-3.443 15.638 89.186 89.186 0 0 1-6.159 15.815 435.737 435.737 0 0 0-3.704 7.56 16.966 16.966 0 0 0-1.546 5.219c-.265 2.086-.385 4.171.077 6.245.766 3.435 2.785 5.787 6.106 7.008 2.087.741 4.336.904 6.508.471a10.38 10.38 0 0 0 6.003-3.204c.597-.648 1.187-1.305 1.788-1.948a7.694 7.694 0 0 1 2.51-1.815c.203-.088.406-.171.602-.268a.362.362 0 0 0 .15-.425.366.366 0 0 0-.086-.136 8.848 8.848 0 0 0-1.313-.71 2.731 2.731 0 0 0-2.811.352c-.26.202-.543.372-.844.504a.467.467 0 0 1-.423-.115.72.72 0 0 1-.117-.453.41.41 0 0 1 .12-.295c.797-.806 1.685-1.375 2.897-1.314 2.252.098 3.831 1.226 4.919 3.117.411.718.717 1.494 1.136 2.188a17.18 17.18 0 0 0 1.625 2.476 6.136 6.136 0 0 0 8.345.921 9.172 9.172 0 0 0 1.989-2.188c.443-.632.852-1.289 1.33-1.905a7.085 7.085 0 0 1 1.166-1.155 3.516 3.516 0 0 1 4.56.112c.49.442.933.933 1.322 1.465.424.576.744 1.226 1.15 1.816.557.883 1.17 1.729 1.837 2.533a8.15 8.15 0 0 0 10.814 1.18 24.838 24.838 0 0 0 2.233-1.954c.53-.487.985-1.052 1.531-1.508a9.507 9.507 0 0 1 1.757-1.21 3.466 3.466 0 0 1 4.216.822c.366.413.674.873.917 1.369.333.684.594 1.418.9 2.124.255.668.556 1.317.901 1.944a5.895 5.895 0 0 0 3.392 2.719 6.086 6.086 0 0 0 5.761-1.059 16.387 16.387 0 0 0 1.895-1.84c.563-.603 1.041-1.284 1.598-1.875 1.528-1.656 3.38-2.403 5.647-1.924 1.177.246 1.909 1.042 2.446 2.03a.754.754 0 0 1-.146.589.378.378 0 0 1-.448.115.367.367 0 0 1-.134-.096 7.96 7.96 0 0 1-.788-.844 2.33 2.33 0 0 0-1.427-.765 3.786 3.786 0 0 0-2.411.308c-.127.064-.193.246-.294.378.109.135.233.259.369.368a9.072 9.072 0 0 1 2.747 3.25 44.28 44.28 0 0 0 1.227 2.15 9.685 9.685 0 0 0 3.569 3.365 13.04 13.04 0 0 0 5.627 1.688Z" fill="#000"/><path d="M115.718 96.2a9.938 9.938 0 0 1-3.222 6.55 7.877 7.877 0 0 1-7.634 1.951 6.959 6.959 0 0 1-4.572-3.773c-2.877-5.587.505-11.99 5.343-13.62a7.517 7.517 0 0 1 9.278 3.946 8.55 8.55 0 0 1 .807 4.946Zm-15.373-.226a7.377 7.377 0 0 0 .477 3.513 6.392 6.392 0 0 0 2.697 3.438c.725.383 1.489.689 2.278.912.206.073.582.202.659-.184.013-.11-.235-.319-.404-.421-.328-.19-.71-.304-1.022-.529a3.744 3.744 0 0 1-1.751-2.671 1.61 1.61 0 0 1 .644-1.593c.262-.2.575-.346.821-.552a1.233 1.233 0 0 0 .373-1.035 1.222 1.222 0 0 0-.606-.918 7.374 7.374 0 0 0-.789-.297c-.996-.394-1.25-.909-.911-1.928.121-.366.288-.715.498-1.038.397-.592.831-1.139 1.269-1.727.232-.302.51-.575.751-.877a.758.758 0 0 0 .157-.904c-.154-.273-.633-.328-1.049-.079a7.723 7.723 0 0 0-1.195.871c-1.617 1.54-2.565 3.414-2.881 6.02l-.016-.001Zm-23.98 5.528c-3.072-.278-5.053-1.737-6.27-4.157-2.683-5.31.36-11.764 5.382-13.484a7.475 7.475 0 0 1 8.976 3.34c2.786 4.848.53 11.294-4.227 13.551a6.901 6.901 0 0 1-3.861.75Zm-6.12-9.437a8.67 8.67 0 0 0 .55 4.179 6.465 6.465 0 0 0 3.108 3.502c.682.337 1.38.702 2.187.638a.314.314 0 0 0 .135-.051.313.313 0 0 0 .097-.108.323.323 0 0 0-.087-.285c-.337-.183-.7-.316-1.028-.505a4.056 4.056 0 0 1-1.9-2.199c-.374-1.047-.14-1.765.767-2.422.232-.142.45-.304.653-.485a1.17 1.17 0 0 0-.3-1.83c-.338-.174-.724-.255-1.078-.403a1.182 1.182 0 0 1-.75-1.465c.105-.427.274-.835.502-1.21.408-.653.877-1.262 1.34-1.876.262-.353.578-.666.848-1.014a.68.68 0 0 0 .038-.901.736.736 0 0 0-.92-.023c-.386.21-.751.457-1.089.739a9.148 9.148 0 0 0-3.073 5.719Zm20.04 22.681a8.498 8.498 0 0 1-5.135-2.277 4.876 4.876 0 0 1-1.564-2.835c-.32-2.049 1.005-3.589 3.082-3.503a6.21 6.21 0 0 1 1.456.262c1.905.561 3.892.789 5.875.675.881-.1 1.772.08 2.546.515a2.57 2.57 0 0 1 1.345 2.624 4.163 4.163 0 0 1-1.654 2.934 7.96 7.96 0 0 1-5.237 1.659 5.736 5.736 0 0 0-.714-.054Zm-4.173-2.842c1.367 1.075 2.77 1.837 4.397 1.893 1.403.045 2.842-.086 4.034-1.007-1.27-2.208-6.132-2.947-8.43-.902l-.001.016Zm59.236-18.414c.18.586.225 1.204.134 1.81a1.674 1.674 0 0 1-2.355 1.397 5.199 5.199 0 0 1-1.531-1c-1.252-1.106-2.507-2.222-3.688-3.411a40.835 40.835 0 0 0-5.723-4.61 79.315 79.315 0 0 0-20.154-10.032 96.92 96.92 0 0 0-7.823-2.31l.303-1.2a124.61 124.61 0 0 1 5.767 1.572c7.21 2.165 13.929 5.378 20.376 9.21a56.25 56.25 0 0 1 10.735 8.53c.558.555 1.106 1.124 1.685 1.64.257.173.536.313.829.415.567-.708.309-1.364.092-1.985a53.305 53.305 0 0 0-3.188-7.545c-.176-.33-.336-.656-.546-.977l1.143-.531c1.786 2.77 2.91 5.883 3.944 9.027Z" fill="#000"/><path d="M144.015 93.506c.217.622.474 1.29-.092 1.986a3.618 3.618 0 0 1-.829-.416c-.587-.516-1.111-1.083-1.685-1.638a56.233 56.233 0 0 0-10.724-8.522c-6.446-3.832-13.186-7.047-20.376-9.21a117.123 117.123 0 0 0-5.767-1.572 259.506 259.506 0 0 0-6.558-1.54c-2.928-.661-5.869-.723-8.828-.721-2.782-.007-5.58.017-8.363.159a83.015 83.015 0 0 0-19.254 3.214c-1.547.46-3.114.877-4.647 1.388A57.576 57.576 0 0 0 44.694 82.5a36.27 36.27 0 0 1-1.873 1.118c-.273.102-.558.17-.847.203-.056-.298-.174-.526-.12-.705.13-.482.322-.945.57-1.38a52.672 52.672 0 0 1 4.609-6.373 22.336 22.336 0 0 1 8.84-6.188 58.775 58.775 0 0 1 10.284-2.915 105.747 105.747 0 0 1 14.922-1.9 72.909 72.909 0 0 1 14.38.458c1.048.149 2.108.242 3.16.363a74.813 74.813 0 0 1 13.375 3.038l.853.275a100.335 100.335 0 0 1 13.456 5.34 48.116 48.116 0 0 1 8.853 5.356 21.515 21.515 0 0 1 5.128 5.772c.19.318.371.647.547.976a53.223 53.223 0 0 1 3.185 7.57Zm-3.095-2.656a.75.75 0 0 0 .009-.612 1.537 1.537 0 0 0-.441-.5c-1.526-1.303-2.984-2.693-4.605-3.883a73.892 73.892 0 0 0-14.276-8.304 98.384 98.384 0 0 0-9.641-3.796c-2.82-.891-5.7-1.551-8.565-2.267a62.47 62.47 0 0 0-12.417-1.805c-2.34-.1-4.684-.011-7.027-.038a65.494 65.494 0 0 0-10.995.833c-5.24.814-10.419 1.866-15.44 3.619a58.879 58.879 0 0 0-10.408 4.596 6.88 6.88 0 0 0-.99.623.712.712 0 0 0-.186.584.48.48 0 0 0 .663.323 9.31 9.31 0 0 0 1.364-.621 68.898 68.898 0 0 1 13.183-5.29 91.979 91.979 0 0 1 13.255-2.73 78.993 78.993 0 0 1 9.671-.663c3.713-.072 7.36.15 11.009.416 3.667.582 7.271 1.205 10.872 2.109a78.283 78.283 0 0 1 10.666 3.394c4.593 1.878 9.111 3.928 13.33 6.582a68.656 68.656 0 0 1 9.305 6.831c.33.296.694.551 1.086.759a.607.607 0 0 0 .558-.162l.02.002Z" fill="#32BAE2"/><path d="M140.913 90.236a.75.75 0 0 1-.009.612.612.612 0 0 1-.576.144 5.41 5.41 0 0 1-1.086-.758 68.726 68.726 0 0 0-9.305-6.832c-4.222-2.658-8.737-4.708-13.33-6.581a78.327 78.327 0 0 0-10.666-3.395c-3.601-.903-7.206-1.527-10.872-2.109-3.65-.266-7.316-.49-11.009-.416a79.012 79.012 0 0 0-9.671.663 91.975 91.975 0 0 0-13.255 2.73 68.899 68.899 0 0 0-13.183 5.29 9.29 9.29 0 0 1-1.364.622.478.478 0 0 1-.663-.323.712.712 0 0 1 .187-.584c.311-.236.642-.444.99-.623a58.892 58.892 0 0 1 10.406-4.597c5.022-1.753 10.201-2.804 15.44-3.619a65.494 65.494 0 0 1 10.996-.832c2.343.026 4.687-.063 7.026.037 4.19.183 8.35.788 12.418 1.805 2.865.716 5.744 1.376 8.565 2.268a98.404 98.404 0 0 1 9.614 3.809 73.93 73.93 0 0 1 14.277 8.303c1.613 1.19 3.079 2.581 4.604 3.884.191.13.35.302.466.502Zm.492-5.792-1.144.53a21.518 21.518 0 0 0-5.129-5.77 48.103 48.103 0 0 0-8.852-5.356 100.335 100.335 0 0 0-13.456-5.34l.383-1.191a94.828 94.828 0 0 1 15.913 6.528c3.496 1.817 6.758 3.917 9.479 6.786.165.125.345.23.536.312.041-.353.09-.607.099-.861l1.255.037c-.027.236-.014.484-.021.722a6.136 6.136 0 0 0 .937 3.603Z" fill="#000"/><path d="m140.484 80.102-1.255-.038c.059-3.743.163-7.477.143-11.216a41.747 41.747 0 0 0-1.178-9.451c-1.765-7.46-5.64-13.54-11.764-18.174-4.544-3.445-9.713-5.644-15.156-7.24a97.439 97.439 0 0 0-6.658-1.67c-2.562-.563-5.122-1.14-7.778-1.092-2.231.036-4.466-.035-6.699-.024a51.528 51.528 0 0 0-13.71 1.863c-9.698 2.714-16.802 8.517-21.103 17.684a50.66 50.66 0 0 0-3.51 10.629c-.42 1.907-.849 3.813-1.261 5.72-.127.603-.23 1.21-.344 1.813-.115.605-.23 1.139-.388 1.907.485-.249.792-.37 1.059-.545a30.797 30.797 0 0 1 7.296-3.32c5.44-1.746 11.039-2.712 16.694-3.351 3.266-.393 6.55-.61 9.838-.649a56.827 56.827 0 0 1 6.69.176c2.941.338 5.888.627 8.824 1.013 1.936.255 3.857.613 5.755 1.073 2.433.605 4.836 1.33 7.23 2.065l-.384 1.19-.853-.274a74.82 74.82 0 0 0-13.375-3.039l-3.161-.363a72.907 72.907 0 0 0-14.38-.457c-5.012.278-9.998.913-14.92 1.9a58.783 58.783 0 0 0-10.285 2.915 22.337 22.337 0 0 0-8.84 6.188 52.673 52.673 0 0 0-4.61 6.374 5.929 5.929 0 0 0-.57 1.379c-.053.179.063.419.12.705a3.56 3.56 0 0 0 .847-.203c.636-.339 1.258-.732 1.874-1.118a57.581 57.581 0 0 1 12.2-5.865c1.532-.511 3.099-.928 4.646-1.388a83.016 83.016 0 0 1 19.254-3.214c2.783-.142 5.582-.182 8.362-.16 2.96-.001 5.9.06 8.83.722 2.195.491 4.38.993 6.557 1.54l-.303 1.2a100.036 100.036 0 0 0-4.767-1.07 47.333 47.333 0 0 0-6.626-.939 106.082 106.082 0 0 0-8.216-.153 88.075 88.075 0 0 0-22.447 3.238 65.815 65.815 0 0 0-10.916 4.151c-1.95.962-3.81 2.098-5.714 3.164-.489.273-.953.586-1.444.851-.34.191-.697.35-1.067.474-1.642.495-2.82-.542-2.485-2.232.11-.545.32-1.065.616-1.535 1.867-2.922 3.787-5.805 6.298-8.238a3.14 3.14 0 0 0 .96-1.696c.67-3.45 1.387-6.892 2.15-10.328 1.188-5.437 3.042-10.617 6.097-15.316a31.934 31.934 0 0 1 12.744-11.326c4.698-2.342 9.724-3.518 14.913-4.112a78.1 78.1 0 0 1 8.517-.4c.178-.014.353-.045.525-.093.091-.197.168-.4.23-.607.37-1.493 1.483-2.16 2.84-2.535.11-.02.221-.033.333-.036a15.13 15.13 0 0 1 6.752.776c1.599.595 2.62 1.671 2.548 3.511.017.147.056.29.116.425.906.244 1.862.527 2.832.758a52.416 52.416 0 0 1 15.146 6.074c7.976 4.85 13.109 11.796 15.325 20.888a51.25 51.25 0 0 1 1.249 13.468c-.078 2.535-.168 5.08-.243 7.633Zm-35.933-49.337c.131-1.141-.438-1.742-1.354-2.082a13.356 13.356 0 0 0-6.411-.736c-.332.037-.653.14-.945.303a1.333 1.333 0 0 0-.747 1.56c1.606.07 3.16.125 4.71.208 1.55.084 3.091.866 4.747.747Z" fill="#000"/><path d="M139.225 80.065c-.004.255-.058.508-.099.861a2.534 2.534 0 0 1-.536-.313c-2.721-2.868-6.015-4.971-9.478-6.785a94.854 94.854 0 0 0-15.913-6.529c-2.385-.743-4.796-1.468-7.23-2.065a54.65 54.65 0 0 0-5.755-1.072c-2.934-.403-5.883-.676-8.824-1.014a56.85 56.85 0 0 0-6.69-.175 91.405 91.405 0 0 0-9.838.648c-5.655.639-11.251 1.59-16.694 3.351a30.8 30.8 0 0 0-7.297 3.32c-.267.175-.573.296-1.058.545.158-.768.273-1.34.387-1.906.115-.568.218-1.21.345-1.813.416-1.908.85-3.813 1.262-5.721a50.658 50.658 0 0 1 3.509-10.629c4.3-9.167 11.405-14.97 21.102-17.684a51.528 51.528 0 0 1 13.711-1.863c2.233-.01 4.468.06 6.699.025 2.656-.05 5.216.529 7.778 1.09a97.324 97.324 0 0 1 6.657 1.67c5.445 1.585 10.601 3.795 15.157 7.24 6.124 4.635 9.998 10.715 11.764 18.175a41.803 41.803 0 0 1 1.178 9.45c.026 3.717-.078 7.459-.137 11.194Zm-31.918-31.43c.864-2.293.144-4.19-1.908-5.102a5.624 5.624 0 0 0-5.784.571c-.447.315-.901.683-1.355 1.05-.363-.424-.674-.83-1.013-1.215a5.726 5.726 0 0 0-5.175-2.04c-2.217.24-3.483 1.659-3.495 3.872a6.06 6.06 0 0 0 1.782 4.206 17.062 17.062 0 0 0 6.423 4.282c.258.1.538.133.813.093a17.09 17.09 0 0 0 7.343-2.791 6.186 6.186 0 0 0 2.369-2.926Z" fill="#64CCF5"/><path d="M105.398 43.533c2.053.911 2.773 2.81 1.909 5.102a6.191 6.191 0 0 1-2.394 2.923 17.092 17.092 0 0 1-7.343 2.791 1.6 1.6 0 0 1-.813-.093 17.06 17.06 0 0 1-6.423-4.282 6.06 6.06 0 0 1-1.781-4.205c.018-2.233 1.277-3.632 3.495-3.872a5.725 5.725 0 0 1 5.174 2.04c.339.384.663.792 1.013 1.215.478-.357.906-.72 1.356-1.05a5.621 5.621 0 0 1 5.807-.569Z" fill="#A2DDF3"/><path d="M103.193 28.694c.916.34 1.493.942 1.354 2.082-1.659.106-3.155-.663-4.746-.75-1.591-.089-3.105-.139-4.71-.208a1.333 1.333 0 0 1 .747-1.56c.291-.164.613-.267.945-.304a13.356 13.356 0 0 1 6.41.74Z" fill="#32BAE2"/></g><defs><linearGradient id="a" x1="156.31" y1="104.896" x2="25.155" y2="155.616" gradientUnits="userSpaceOnUse"><stop stop-color="#B6509E"/><stop offset="1" stop-color="#2EBAC6"/></linearGradient></defs></svg>