<svg id="Layer_1" data-name="Layer 1" xmlns="http://www.w3.org/2000/svg" viewBox="0 0 1877 1156.3"><defs><style>.cls-2{fill:#fff}.cls-3{fill:#ffa725}</style></defs><path d="M908.51 821.25a13.8 13.8 0 0 0-.63 4.09 13.61 13.61 0 0 0 .78 4.52 20.69 20.69 0 0 0 2.63 5.06c2.47 3.59 6.57 7.56 12.27 11.45a101.12 101.12 0 0 0 13.35 7.57 173.41 173.41 0 0 0 23.34 9 282 282 0 0 0 39.15 8.94c5.17.82 10.5 1.53 16 2.15a55.47 55.47 0 0 1 69.85-6.36 56.17 56.17 0 0 1 9.1 7.68c12-.92 23.45-2.34 34.23-4.2 20.22-3.48 38-8.52 52.12-14.49a102.65 102.65 0 0 0 22.83-12.81 45.26 45.26 0 0 0 7.71-7.44 21.17 21.17 0 0 0 4-7.52 13.28 13.28 0 0 0 .48-3.54 13.8 13.8 0 0 0-.63-4.09 19.49 19.49 0 0 0-2.11-4.49 31.9 31.9 0 0 0-4.37-5.41c-41.52 25.6-92.19 40.57-146.79 40.57-52.23 0-100.85-13.69-141.31-37.27-1.84-1.08-3.65-2.2-5.46-3.31a35.2 35.2 0 0 0-2.67 3 21.91 21.91 0 0 0-3.87 6.9Z" transform="translate(-62.28 -372.3)" style="fill:#e72b00"/><path class="cls-2" d="M1192.31 796.16c37.15-21.64 66.44-52.18 83.86-87.74a173.29 173.29 0 0 0 0-153.85 200.62 200.62 0 0 0-49.48-63.28A235.06 235.06 0 0 0 1167 454l-.66-.28a263.18 263.18 0 0 0-104.54-21.27c-48.48 0-93.4 12.72-130.53 34.37S864.82 519 847.4 554.57a173.29 173.29 0 0 0 0 153.85 200.47 200.47 0 0 0 49.48 63.27c42 36.21 100.28 58.84 164.91 58.84 48.47 0 93.39-12.72 130.52-34.37Zm-64.55-188.63a61.34 61.34 0 0 1 19.07-12.63 50 50 0 0 1 18.9-3.73 54.09 54.09 0 0 1 16.32 2.6 64.56 64.56 0 0 1 12.51 5.52 62.91 62.91 0 0 1 11.49 8.24 10.7 10.7 0 0 1-14.69 15.55l-.14-.13c-.15-.13-.4-.35-.76-.64-.7-.58-1.81-1.45-3.24-2.41a45.38 45.38 0 0 0-11.62-5.73 32.53 32.53 0 0 0-9.86-1.6 28.35 28.35 0 0 0-10.83 2.15 39.9 39.9 0 0 0-12.4 8.33 10.7 10.7 0 1 1-14.74-15.52Zm-169.92 5a32.19 32.19 0 0 0-8.43 1.17 42.86 42.86 0 0 0-7.49 2.89 47.23 47.23 0 0 0-9.16 6c-.36.3-.54.47-.54.47a10.7 10.7 0 0 1-14.69-15.55 57.4 57.4 0 0 1 6.82-5.34 67.11 67.11 0 0 1 17.18-8.42 54.09 54.09 0 0 1 16.32-2.6 49.89 49.89 0 0 1 18.89 3.73 61.26 61.26 0 0 1 19.08 12.63A10.7 10.7 0 1 1 981.07 623a40 40 0 0 0-12.4-8.32 28.35 28.35 0 0 0-10.83-2.11Zm87.26 134.61A46.91 46.91 0 0 1 979.91 704a10.7 10.7 0 1 1 21.39 0 25.35 25.35 0 0 0 4.36 14.26 25.63 25.63 0 0 0 11.24 9.26 25.61 25.61 0 0 0 24.2-2.35 25.26 25.26 0 0 0 11.21-20.22c-14.94-2.71-25.8-10.93-25.8-20.65 0-11.94 16.36-21.61 36.55-21.61s36.54 9.67 36.54 21.61c0 9.72-10.87 17.94-25.81 20.65a25.26 25.26 0 0 0 4.32 13.31 25.63 25.63 0 0 0 11.24 9.26 25.61 25.61 0 0 0 24.2-2.35 25.46 25.46 0 0 0 11.26-21.17 10.7 10.7 0 0 1 21.4 0 46.92 46.92 0 0 1-83.17 29.8 47 47 0 0 1-17.94 13.38Z" transform="translate(-62.28 -372.3)"/><path class="cls-3" d="M832.48 536.9a224.35 224.35 0 0 1 50.42-61.81 254 254 0 0 1 49.68-33.36c-3-2.56-6.5-5.48-10.49-8.58-13.25-10.34-31.65-22.69-51.53-30.7-13.26-5.36-27.11-8.76-40.48-8.75a16.56 16.56 0 0 0-3.67.38 10.91 10.91 0 0 0-2.66 1 11.94 11.94 0 0 0-4.21 3.91 24 24 0 0 0-2.53 4.88 48.16 48.16 0 0 0-2.53 9.56 104.42 104.42 0 0 0-1.24 17c0 11.95 1.46 25.74 3.73 39.59s5.3 27.82 8.38 40.29c2.49 10.1 5 19.23 7.13 26.59Zm457.35-2.21q.78-2.73 1.61-5.73a575.75 575.75 0 0 0 13.17-58.3c2.32-14.07 3.83-28.11 3.83-40.25a109.36 109.36 0 0 0-.92-14.9 52.25 52.25 0 0 0-2.74-11.37 24.49 24.49 0 0 0-2.57-5.06 12.35 12.35 0 0 0-3.78-3.74 10.45 10.45 0 0 0-2.6-1.11 15.59 15.59 0 0 0-4.23-.53c-13.11 0-26.68 3.26-39.7 8.44a199.48 199.48 0 0 0-36.21 19.38 273.77 273.77 0 0 0-25.88 19.6q6.78 3.44 13.28 7.22c36.85 21.48 66.91 51.21 86.74 86.35Z" transform="translate(-62.28 -372.3)"/><path class="cls-2" d="M834.51 1196.56a83.47 83.47 0 0 1 13.56-8.12 110.49 110.49 0 0 1 21.49-7.62 142.49 142.49 0 0 1 65.88-.12 106.54 106.54 0 0 1 27.56 10.66 72.87 72.87 0 0 1 14.41 10.64c.65.62 1.28 1.26 1.9 1.9v-74.66a83.21 83.21 0 0 1-26.17 4c-19 0-39.13-5.36-58.47-14.56a187.7 187.7 0 0 1-53.55-38.5c-1.49-1.53-2.94-3.1-4.37-4.69-1.37 2.47-2.83 5.31-4.29 8.48a129.21 129.21 0 0 0-12 53.88 127.16 127.16 0 0 0 4.45 33.23 145.42 145.42 0 0 0 9.6 25.48Zm447.36 23.85c-3.7-4.51-9.6-9-17.25-12.69a89.38 89.38 0 0 0-17.34-6.13 120.92 120.92 0 0 0-55.69-.1 85.33 85.33 0 0 0-22 8.46 51.67 51.67 0 0 0-10.21 7.47 27.1 27.1 0 0 0-7.1 10.38c-.15.43-.28.86-.4 1.29v8.8a21.44 21.44 0 0 0 .67 2.06 25 25 0 0 0 4 6.66c3.71 4.51 9.61 9 17.26 12.7a84.88 84.88 0 0 0 10.89 4.27v-30.07a10.7 10.7 0 1 1 21.4 0V1268a122.84 122.84 0 0 0 26.19 0v-34.52a10.7 10.7 0 1 1 21.39 0v30.09a79.74 79.74 0 0 0 15.16-6.53 51.27 51.27 0 0 0 10.2-7.46 27.28 27.28 0 0 0 7.11-10.38 17.09 17.09 0 0 0 1-5.72 17.4 17.4 0 0 0-1.26-6.44 25 25 0 0 0-4.02-6.63Zm118.83-498.56c-12.71-10.36-30.8-17.07-51-17.06a84.55 84.55 0 0 0-29.79 5.5 80.38 80.38 0 0 0-24.25 14.29 60.08 60.08 0 0 0-11 12.44 226.79 226.79 0 0 1-44 50.88q-6.86 5.9-14.2 11.34c.52.61 1.07 1.21 1.56 1.84a43 43 0 0 1 7.47 13.85 34.9 34.9 0 0 1-.34 21.86 42.24 42.24 0 0 1-5.28 10.31c-4.46 6.42-10.53 12-17.8 16.93a121 121 0 0 1-16.18 9.21 194.66 194.66 0 0 1-26.24 10.13 304.73 304.73 0 0 1-42.12 9.63c-6.75 1.07-13.73 2-20.87 2.71a55.51 55.51 0 1 1-104.38-1.79c-5.17-.74-10.24-1.54-15.17-2.46-22.64-4.21-42.6-10.25-58.79-17.91-10.8-5.12-20-10.94-27.12-17.76a53.07 53.07 0 0 1-10.09-12.86c-.41-.76-.79-1.53-1.16-2.32a196.27 196.27 0 0 0-30.22 30.62 178.39 178.39 0 0 0-31.6 61.36 192.42 192.42 0 0 0-7.33 53.54 95.16 95.16 0 0 0 4.16 27.58 114.13 114.13 0 0 0 11.6 25.85c9.91 16.5 23.92 31.31 39.74 43.1a162.83 162.83 0 0 0 33.24 19.24c15.14 6.48 30.33 9.93 43.59 9.92a61.65 61.65 0 0 0 19.74-3 42.28 42.28 0 0 0 25.36-22.76 38.26 38.26 0 0 0 3.2-15.43 45.16 45.16 0 0 0-2.53-14.64 57 57 0 0 0-7.65-14.61c-6.79-9.47-17-18.11-30.26-24.27-10.9-5-19.21-11.2-25.27-18a52.55 52.55 0 0 1-11.65-21.58 54.13 54.13 0 0 1-1.76-13.83 64.88 64.88 0 0 1 3.45-20.47 56.15 56.15 0 0 1 3.67-8.7 10.69 10.69 0 0 1 18.76 10.27l-.09.18c-.1.19-.26.52-.47 1a42.38 42.38 0 0 0-1.58 4.06 43.63 43.63 0 0 0-2.34 13.67 31.54 31.54 0 0 0 2.51 12.63 34.69 34.69 0 0 0 10 13 61.91 61.91 0 0 0 13.78 8.37 99.13 99.13 0 0 1 36.19 28 9.87 9.87 0 0 1 1.22-.07h116.37a28.08 28.08 0 0 1 28.1 28.1v142.22a85.71 85.71 0 0 1 12.68-7.5 110.35 110.35 0 0 1 21.5-7.62 142.45 142.45 0 0 1 65.87-.12 106.54 106.54 0 0 1 27.54 10.66 77.67 77.67 0 0 1 7.87 5.12 151.22 151.22 0 0 0 14.8-65.15 171.12 171.12 0 0 0-8.64-52.6 222.35 222.35 0 0 0-19.29-42.88c-14-24.27-28.3-39.22-28.51-39.44a10.64 10.64 0 0 1-1.3-1.64c-14.29-1-29.26-5.19-44.52-13.08a10.7 10.7 0 0 1 9.82-19c15 7.74 28.71 10.91 41.26 10.92a72.25 72.25 0 0 0 22.61-3.62 82 82 0 0 0 20.35-10.1c12.8-8.65 24-21 32.75-35.06a147 147 0 0 0 14.14-29.7c4.71-13.59 7.16-27.33 7.15-39.47a72.12 72.12 0 0 0-2.13-18.09c-22.12-.77-42.34-8-58-19.72a10.7 10.7 0 0 1 12.86-17.1c12.57 9.47 29.84 15.51 49 15.5a84.36 84.36 0 0 0 40.51-10c11.41-6.27 20.17-15 25.25-24.79a44.59 44.59 0 0 0 0-41.83 57 57 0 0 0-14.75-17.8Z" transform="translate(-62.28 -372.3)"/><path class="cls-3" d="M1125.92 1048.64a5.67 5.67 0 0 0-2.14-.43h-104.94a66.71 66.71 0 0 1 4 22.43 59.38 59.38 0 0 1-5 24 63.12 63.12 0 0 1-15.22 21l-.71.62v146.29a5.47 5.47 0 0 0 .94 3.08 5.58 5.58 0 0 0 2.43 2 5.31 5.31 0 0 0 2.14.43h116.37a5.41 5.41 0 0 0 3.07-.93 5.56 5.56 0 0 0 2-2.44 5.45 5.45 0 0 0 .43-2.14v-208.9a5.41 5.41 0 0 0-.94-3.07 5.6 5.6 0 0 0-2.43-1.94Z" transform="translate(-62.28 -372.3)"/><path class="cls-2" d="M965.38 1220.41c-3.7-4.51-9.61-9-17.26-12.69a89 89 0 0 0-17.33-6.13 121 121 0 0 0-55.7-.1 85.25 85.25 0 0 0-22 8.46 51.38 51.38 0 0 0-10.21 7.47 27 27 0 0 0-7.1 10.38 16.89 16.89 0 0 0 .27 12.15 25 25 0 0 0 4 6.66c3.7 4.51 9.61 9 17.26 12.7a84.88 84.88 0 0 0 10.89 4.27v-30.07a10.7 10.7 0 1 1 21.4 0V1268a122.74 122.74 0 0 0 26.18 0v-34.52a10.7 10.7 0 0 1 21.4 0v30.09a79.64 79.64 0 0 0 15.15-6.53 51.36 51.36 0 0 0 10.21-7.46 27.13 27.13 0 0 0 7.1-10.38 17.11 17.11 0 0 0 1-5.72 17.4 17.4 0 0 0-1.26-6.44 25.3 25.3 0 0 0-4-6.63Z" transform="translate(-62.28 -372.3)"/><path class="cls-3" d="M1067.43 882.24a34.2 34.2 0 0 0-32.33 3.15 34 34 0 0 0-15 28.28 34 34 0 0 0 26.7 33.33v-17.07a15.5 15.5 0 1 1 14.71 0V947a33.72 33.72 0 0 0 11.71-5 34 34 0 0 0 15-28.29 33.92 33.92 0 0 0-5.82-19.06 34.27 34.27 0 0 0-14.97-12.41Z" transform="translate(-62.28 -372.3)"/><path d="M996.2 622.66a10.71 10.71 0 0 0-.39-15.13 61.26 61.26 0 0 0-19.08-12.63 49.89 49.89 0 0 0-18.89-3.73 54.09 54.09 0 0 0-16.32 2.6 67.11 67.11 0 0 0-17.18 8.42 57.4 57.4 0 0 0-6.82 5.34 10.7 10.7 0 0 0 14.69 15.55s.18-.17.54-.47a47.23 47.23 0 0 1 9.16-6 42.86 42.86 0 0 1 7.49-2.89 32.19 32.19 0 0 1 8.43-1.17 28.35 28.35 0 0 1 10.83 2.15 40 40 0 0 1 12.4 8.32 10.71 10.71 0 0 0 15.14-.36Zm146.3.39a39.9 39.9 0 0 1 12.4-8.33 28.35 28.35 0 0 1 10.83-2.15 32.53 32.53 0 0 1 9.86 1.6 45.38 45.38 0 0 1 11.62 5.73c1.43 1 2.54 1.83 3.24 2.41.36.29.61.51.76.64l.14.13a10.7 10.7 0 0 0 14.69-15.55 62.91 62.91 0 0 0-11.49-8.24 64.56 64.56 0 0 0-12.51-5.52 54.09 54.09 0 0 0-16.32-2.6 50 50 0 0 0-18.9 3.73 61.34 61.34 0 0 0-19.07 12.63 10.7 10.7 0 1 0 14.74 15.52Zm-69.5 119.8a46.92 46.92 0 0 0 73.17-38.9 10.7 10.7 0 0 0-21.4 0 25.52 25.52 0 0 1-46.7 14.26 25.26 25.26 0 0 1-4.32-13.31c14.94-2.71 25.81-10.93 25.81-20.65 0-11.94-16.36-21.61-36.54-21.61s-36.55 9.67-36.55 21.61c0 9.72 10.86 17.94 25.8 20.65a25.51 25.51 0 0 1-51-.95 10.7 10.7 0 1 0-21.39 0 46.88 46.88 0 0 0 83.13 29.8 47.06 47.06 0 0 0 9.99 9.1Z" transform="translate(-62.28 -372.3)"/><path d="M1434.44 729.72c-7.32-14.05-19.27-25.6-33.93-33.66a106.8 106.8 0 0 0-95-2.92 193.79 193.79 0 0 0-2.25-129.65 13.73 13.73 0 0 0 .6-1.42c.06-.18 6.49-19.46 12.94-45.43 3.23-13 6.47-27.65 8.92-42.5s4.11-29.86 4.11-43.73a124.44 124.44 0 0 0-1.54-20.56 69.18 69.18 0 0 0-3.71-13.84 44.93 44.93 0 0 0-4.86-9.23 33.37 33.37 0 0 0-11.8-10.64 32.22 32.22 0 0 0-7.79-2.89 37.55 37.55 0 0 0-8.53-.95c-17 0-33.4 4.23-48.48 10.31-22.63 9.15-42.4 22.54-56.68 33.66a307.46 307.46 0 0 0-18 15.16 289.63 289.63 0 0 0-214.7.54 294.88 294.88 0 0 0-34.55-27.34 223.86 223.86 0 0 0-40.67-22c-15.08-6.08-31.5-10.3-48.48-10.31a37 37 0 0 0-10 1.33 31.88 31.88 0 0 0-7.86 3.41 33.66 33.66 0 0 0-10.38 10 46.48 46.48 0 0 0-4.89 9.48 73.6 73.6 0 0 0-3.91 16.03 129.73 129.73 0 0 0-1.12 17.84c0 13.87 1.67 28.88 4.11 43.73a600.17 600.17 0 0 0 13.65 60.53c4.54 16.39 8.17 27.27 8.21 27.4a10.74 10.74 0 0 0 1.79 3.28 194.4 194.4 0 0 0 8.58 152.49c15.56 31.72 39.35 59.46 68.9 81.37a50.64 50.64 0 0 0-4.61 6.21 40.48 40.48 0 0 0-4.41 9.51c0 .09-.05.2-.08.29a215.9 215.9 0 0 0-59.09 62.94 198.46 198.46 0 0 0-21.32 48.5 213.86 213.86 0 0 0-8.17 59.47c0 20.71 5.73 40.35 15.13 57.95a149.89 149.89 0 0 0 8.08 13.35A142.5 142.5 0 0 0 813 1075a148.23 148.23 0 0 0-8.77 101.62 171.12 171.12 0 0 0 14.77 36.71 42.67 42.67 0 0 0-2.88 5.88 38.29 38.29 0 0 0-.57 27.09 48.37 48.37 0 0 0 12.52 18.7 72.83 72.83 0 0 0 14.43 10.62 106.49 106.49 0 0 0 27.55 10.67 142.45 142.45 0 0 0 65.87-.12 110.93 110.93 0 0 0 21.49-7.63 74.73 74.73 0 0 0 21.92-15.48 28.08 28.08 0 0 0 28.08 27.63h116.37a28 28 0 0 0 27-20.44 79.75 79.75 0 0 0 8.19 5.37 106.49 106.49 0 0 0 27.55 10.67 142.45 142.45 0 0 0 65.87-.12 110.93 110.93 0 0 0 21.49-7.63c9.83-4.75 18.24-10.82 24.48-18.35a46.37 46.37 0 0 0 7.44-12.42 38.36 38.36 0 0 0 .56-27.09 42.63 42.63 0 0 0-3.48-7.47c14.84-28.15 20.66-56 20.64-81.92a192.8 192.8 0 0 0-9.81-59.6c-8.8-27-21.86-49.37-32.73-65.08-3.75-5.42-7.24-10-10.22-13.78q3.23-.71 6.36-1.61a106.3 106.3 0 0 0 38.88-21.31c17-14.38 30.15-33.26 39.24-53.31a165.55 165.55 0 0 0 10.45-30.6 135.53 135.53 0 0 0 3.66-30.31 98.18 98.18 0 0 0-1.89-19.45 99.2 99.2 0 0 0 46.74-20.42 78.35 78.35 0 0 0 20.24-24.47 65.94 65.94 0 0 0 0-61.58Zm-218.75-308.2a199.48 199.48 0 0 1 36.21-19.38c13-5.18 26.59-8.45 39.7-8.44a15.59 15.59 0 0 1 4.23.53 10.45 10.45 0 0 1 2.6 1.11 12.35 12.35 0 0 1 3.78 3.74 24.49 24.49 0 0 1 2.57 5.06 52.25 52.25 0 0 1 2.74 11.37 109.36 109.36 0 0 1 .92 14.9c0 12.14-1.51 26.18-3.83 40.25a575.75 575.75 0 0 1-13.17 58.3q-.82 3-1.61 5.73c-19.8-35.14-49.89-64.87-86.74-86.35q-6.49-3.78-13.28-7.22a273.77 273.77 0 0 1 25.88-19.6Zm-390.34 88.77c-3.08-12.47-6.13-26.42-8.38-40.29s-3.73-27.64-3.73-39.59a104.42 104.42 0 0 1 1.24-17 48.16 48.16 0 0 1 2.53-9.56 24 24 0 0 1 2.53-4.88 11.94 11.94 0 0 1 4.21-3.91 10.91 10.91 0 0 1 2.66-1 16.56 16.56 0 0 1 3.67-.38c13.37 0 27.22 3.39 40.48 8.75 19.88 8 38.28 20.36 51.53 30.7 4 3.1 7.51 6 10.49 8.58a254 254 0 0 0-49.68 33.36 224.35 224.35 0 0 0-50.42 61.81c-2.13-7.34-4.64-16.47-7.13-26.59Zm71.53 261.4a200.47 200.47 0 0 1-49.48-63.27 173.29 173.29 0 0 1 0-153.85c17.42-35.56 46.71-66.1 83.86-87.74s82-34.37 130.53-34.37a263.18 263.18 0 0 1 104.54 21.27l.66.28a235.06 235.06 0 0 1 59.7 37.28 200.62 200.62 0 0 1 49.48 63.28 173.29 173.29 0 0 1 0 153.85c-17.42 35.56-46.71 66.1-83.86 87.74s-82 34.37-130.52 34.36c-64.63.01-122.96-22.62-164.91-58.83Zm157.28 129.12a15.49 15.49 0 0 0-7.36 29.12V947a33.87 33.87 0 0 1-5.91-1.87 34.11 34.11 0 0 1-5.79-59.72 34.2 34.2 0 0 1 32.33-3.15 34.27 34.27 0 0 1 15 12.37 34.17 34.17 0 0 1 3.14 32.34 34.3 34.3 0 0 1-12.37 15 33.72 33.72 0 0 1-11.71 5v-17.04a15.49 15.49 0 0 0-7.35-29.12Zm31-33.15a55.4 55.4 0 0 0-69.85 6.36c-5.45-.62-10.78-1.33-16-2.15a282 282 0 0 1-39.15-8.94 173.41 173.41 0 0 1-23.34-9 101.12 101.12 0 0 1-13.35-7.57c-5.7-3.89-9.8-7.86-12.27-11.45a20.69 20.69 0 0 1-2.63-5.06 13.61 13.61 0 0 1-.78-4.52 13.8 13.8 0 0 1 .63-4.09 21.91 21.91 0 0 1 3.84-6.94 35.2 35.2 0 0 1 2.67-3c1.81 1.11 3.62 2.23 5.46 3.31 40.46 23.58 89.08 37.27 141.31 37.27 54.6 0 105.27-15 146.79-40.57a31.9 31.9 0 0 1 4.37 5.41 19.49 19.49 0 0 1 2.11 4.49 13.8 13.8 0 0 1 .63 4.09 13.28 13.28 0 0 1-.48 3.54 21.17 21.17 0 0 1-4 7.52 45.26 45.26 0 0 1-7.71 7.44 102.65 102.65 0 0 1-22.83 12.81c-14.1 6-31.9 11-52.12 14.49-10.78 1.86-22.26 3.28-34.23 4.2a56.17 56.17 0 0 0-9.03-7.64Zm-115.47 371.57a27.13 27.13 0 0 1-7.1 10.38 51.36 51.36 0 0 1-10.21 7.46 79.64 79.64 0 0 1-15.15 6.53v-30.09a10.7 10.7 0 0 0-21.4 0V1268a122.74 122.74 0 0 1-26.18 0v-34.52a10.7 10.7 0 1 0-21.4 0v30.07a84.88 84.88 0 0 1-10.89-4.27c-7.65-3.68-13.56-8.19-17.26-12.7a25 25 0 0 1-4-6.66 16.89 16.89 0 0 1-.27-12.15 27 27 0 0 1 7.1-10.38 51.38 51.38 0 0 1 10.17-7.39 85.25 85.25 0 0 1 22-8.46 121 121 0 0 1 55.7.1 89 89 0 0 1 17.33 6.13c7.65 3.67 13.56 8.18 17.26 12.69a25.3 25.3 0 0 1 4 6.66 17.4 17.4 0 0 1 1.26 6.44 17.11 17.11 0 0 1-.96 5.67Zm9.62-35.34c-.62-.64-1.25-1.28-1.9-1.9a72.87 72.87 0 0 0-14.41-10.63 106.54 106.54 0 0 0-27.54-10.66 142.49 142.49 0 0 0-65.88.12 110.49 110.49 0 0 0-21.49 7.62 83.47 83.47 0 0 0-13.56 8.12 145.42 145.42 0 0 1-9.58-25.51 127.16 127.16 0 0 1-4.45-33.23 129.21 129.21 0 0 1 12-53.88c1.46-3.17 2.92-6 4.29-8.48 1.43 1.59 2.88 3.16 4.37 4.69a187.7 187.7 0 0 0 53.55 38.5c19.34 9.2 39.46 14.54 58.47 14.56a83.21 83.21 0 0 0 26.17-4Zm150 58.73a5.45 5.45 0 0 1-.43 2.14 5.56 5.56 0 0 1-2 2.44 5.41 5.41 0 0 1-3.07.93h-116.4a5.31 5.31 0 0 1-2.14-.43 5.58 5.58 0 0 1-2.43-2 5.47 5.47 0 0 1-.94-3.08v-146.29l.71-.62a63.12 63.12 0 0 0 15.22-21 59.38 59.38 0 0 0 5-24 66.71 66.71 0 0 0-4-22.43h104.94a5.67 5.67 0 0 1 2.14.43 5.6 5.6 0 0 1 2.43 2 5.41 5.41 0 0 1 .94 3.07Zm156.9-23.39a27.28 27.28 0 0 1-7.11 10.38 51.27 51.27 0 0 1-10.2 7.46 79.74 79.74 0 0 1-15.16 6.53v-30.09a10.7 10.7 0 1 0-21.39 0V1268a122.84 122.84 0 0 1-26.19 0v-34.52a10.7 10.7 0 1 0-21.4 0v30.07a84.88 84.88 0 0 1-10.89-4.27c-7.65-3.68-13.55-8.19-17.26-12.7a25 25 0 0 1-4-6.66 21.44 21.44 0 0 1-.67-2.06v-8.8c.12-.43.25-.86.4-1.29a27.1 27.1 0 0 1 7.1-10.38 51.67 51.67 0 0 1 10.21-7.47 85.33 85.33 0 0 1 22-8.46 120.92 120.92 0 0 1 55.69.1 89.38 89.38 0 0 1 17.34 6.13c7.65 3.67 13.55 8.18 17.25 12.69a25 25 0 0 1 4.05 6.66 17.4 17.4 0 0 1 1.26 6.44 17.09 17.09 0 0 1-1.05 5.75Zm104-433c-1.78 1-3.64 1.87-5.54 2.72-4.75-8-25.6-37.23-66.16-17.65 0 0 30.66-3.11 42 24.29a89 89 0 0 1-10.8.66c-19.16 0-36.43-6-49-15.5a10.7 10.7 0 0 0-12.86 17.1c15.64 11.75 35.86 18.95 58 19.72a72.12 72.12 0 0 1 2.13 18.09c0 12.14-2.44 25.88-7.15 39.47a147 147 0 0 1-14.14 29.7c-8.77 14.07-20 26.41-32.75 35.06a82 82 0 0 1-20.35 10.1 72.25 72.25 0 0 1-22.61 3.62c-12.55 0-26.26-3.18-41.26-10.92a10.7 10.7 0 0 0-9.82 19c15.26 7.89 30.23 12.1 44.52 13.08a10.64 10.64 0 0 0 1.3 1.64c.21.22 14.47 15.17 28.51 39.44a222.35 222.35 0 0 1 19.29 42.88 171.12 171.12 0 0 1 8.64 52.6 151 151 0 0 1-14.8 65.14 79.36 79.36 0 0 0-7.87-5.11 106.54 106.54 0 0 0-27.54-10.66 142.45 142.45 0 0 0-65.87.12 110.35 110.35 0 0 0-21.5 7.62 85.71 85.71 0 0 0-12.68 7.5v-142.22a28.1 28.1 0 0 0-28.1-28.1h-116.39a9.87 9.87 0 0 0-1.22.07 99.13 99.13 0 0 0-36.19-28 61.91 61.91 0 0 1-13.73-8.46 34.69 34.69 0 0 1-10-13 31.54 31.54 0 0 1-2.51-12.63 43.63 43.63 0 0 1 2.3-13.6 42.38 42.38 0 0 1 1.58-4.06c.21-.46.37-.79.47-1l.09-.18a10.69 10.69 0 0 0-18.76-10.27 56.15 56.15 0 0 0-3.67 8.7 64.88 64.88 0 0 0-3.45 20.47 54.13 54.13 0 0 0 1.76 13.83 52.55 52.55 0 0 0 11.65 21.58c6.06 6.85 14.37 13 25.27 18 13.28 6.16 23.47 14.8 30.26 24.27a57 57 0 0 1 7.65 14.61 45.16 45.16 0 0 1 2.53 14.64 38.26 38.26 0 0 1-3.2 15.43 42.28 42.28 0 0 1-25.36 22.76 61.65 61.65 0 0 1-19.74 3c-13.26 0-28.45-3.44-43.59-9.92a162.83 162.83 0 0 1-33.24-19.24c-15.82-11.79-29.83-26.6-39.74-43.1a114.13 114.13 0 0 1-11.6-25.85 95.16 95.16 0 0 1-4.16-27.58 192.42 192.42 0 0 1 7.33-53.54 178.39 178.39 0 0 1 31.6-61.36A196.27 196.27 0 0 1 890 840.61c.37.79.75 1.56 1.16 2.32a53.07 53.07 0 0 0 10.09 12.86c7.16 6.82 16.32 12.64 27.12 17.76 16.19 7.66 36.15 13.7 58.79 17.91 4.93.92 10 1.72 15.17 2.46a55.5 55.5 0 1 0 104.38 1.79c7.14-.74 14.12-1.64 20.87-2.71a304.73 304.73 0 0 0 42.12-9.63 194.66 194.66 0 0 0 26.24-10.13 121 121 0 0 0 16.18-9.21c7.27-5 13.34-10.51 17.8-16.93a42.24 42.24 0 0 0 5.28-10.31 34.9 34.9 0 0 0 .34-21.86 43 43 0 0 0-7.47-13.85c-.49-.63-1-1.23-1.56-1.84q7.33-5.44 14.2-11.34a226.79 226.79 0 0 0 44-50.88 60.08 60.08 0 0 1 11-12.44 80.5 80.5 0 0 1 24.25-14.29 84.55 84.55 0 0 1 29.79-5.5c20.2 0 38.29 6.7 51 17.06a57 57 0 0 1 14.76 17.74 45.11 45.11 0 0 1 5.21 20.92 43.75 43.75 0 0 1-1.08 9.61c-10.4-10-29-19.73-57-6.21 0 0 34.66-3.52 43.89 29.89a67.16 67.16 0 0 1-16.32 12.41Z" transform="translate(-62.28 -372.3)"/><g style="opacity:.15"><path d="M1211.34 830.59a21.35 21.35 0 0 1 1.65 3.21 18.87 18.87 0 0 0 2.22-4.92 13.28 13.28 0 0 0 .48-3.54 13.8 13.8 0 0 0-.63-4.09 19.49 19.49 0 0 0-2.11-4.49 31.9 31.9 0 0 0-4.37-5.41c-41.52 25.6-92.19 40.56-146.79 40.57-52.23 0-100.85-13.69-141.31-37.27-1.84-1.08-3.65-2.2-5.46-3.31a35.2 35.2 0 0 0-2.67 3 21.91 21.91 0 0 0-3.84 6.94 13.8 13.8 0 0 0-.63 4.09 13.61 13.61 0 0 0 .78 4.52c.09.27.21.55.32.83a25.43 25.43 0 0 1 1.76-2.54 37.09 37.09 0 0 1 2.67-3c1.81 1.11 3.62 2.23 5.46 3.31a276.81 276.81 0 0 0 110.34 35.62c1.1-.55 2.2-1.08 3.34-1.56a55.45 55.45 0 0 1 48.29 2.49c46.7-3.27 89.9-17.51 126.13-39.85a31.9 31.9 0 0 1 4.37 5.4ZM847.4 554.57a173.29 173.29 0 0 0 0 153.85q3.36 6.87 7.32 13.48a172.87 172.87 0 0 1 6.94-137.74c17.42-35.55 46.71-66.09 83.85-87.74s82.06-34.36 130.53-34.36a263 263 0 0 1 104.54 21.26c.22.1.44.2.66.28a235.15 235.15 0 0 1 59.76 37.29 204.35 204.35 0 0 1 42.16 49.8q-3.08-8.22-6.94-16.12a200.62 200.62 0 0 0-49.48-63.28A235.06 235.06 0 0 0 1167 454l-.66-.28a263.18 263.18 0 0 0-104.54-21.27c-48.48 0-93.4 12.72-130.53 34.37S864.82 519 847.4 554.57Zm-14.92-17.67q4-7.24 8.52-14.17c-2.91-12-5.75-25.13-7.89-38.25-2.26-13.86-3.73-27.64-3.72-39.6a103.4 103.4 0 0 1 1.24-17 48.27 48.27 0 0 1 2.52-9.55 23.42 23.42 0 0 1 2.54-4.88 11.8 11.8 0 0 1 4.21-3.92 11.43 11.43 0 0 1 2.65-1 16.06 16.06 0 0 1 3.67-.39c13.37 0 27.23 3.4 40.48 8.76 16.63 6.69 32.21 16.42 44.62 25.47l1.26-.67c-3-2.56-6.5-5.48-10.49-8.58-13.25-10.34-31.65-22.69-51.53-30.7-13.26-5.36-27.11-8.76-40.48-8.75a16.56 16.56 0 0 0-3.67.38 10.91 10.91 0 0 0-2.66 1 11.94 11.94 0 0 0-4.21 3.91 24 24 0 0 0-2.53 4.88 48.16 48.16 0 0 0-2.53 9.56 104.42 104.42 0 0 0-1.24 17c0 11.95 1.46 25.74 3.73 39.59s5.3 27.82 8.38 40.29c2.49 10.13 5 19.26 7.13 26.62Zm371.08-88.28c3.19-2.35 6.6-4.76 10.2-7.16a199.48 199.48 0 0 1 36.24-19.38c13-5.18 26.59-8.45 39.7-8.44a15.59 15.59 0 0 1 4.23.53 10.1 10.1 0 0 1 2.6 1.12 12.2 12.2 0 0 1 3.78 3.73 24.49 24.49 0 0 1 2.57 5.06 52.54 52.54 0 0 1 2.74 11.37 109.46 109.46 0 0 1 .92 14.9c0 3-.1 6.15-.27 9.36a227 227 0 0 0 2.2-29.3 109.36 109.36 0 0 0-.92-14.9 52.25 52.25 0 0 0-2.74-11.37 24.49 24.49 0 0 0-2.57-5.06 12.35 12.35 0 0 0-3.78-3.74 10.45 10.45 0 0 0-2.6-1.11 15.59 15.59 0 0 0-4.23-.53c-13.11 0-26.68 3.26-39.7 8.44a199.48 199.48 0 0 0-36.21 19.38 273.77 273.77 0 0 0-25.88 19.6q6.78 3.44 13.28 7.22Zm-308.89 670.03a187.7 187.7 0 0 1-53.55-38.5c-1.49-1.53-2.94-3.1-4.37-4.69-1.37 2.47-2.83 5.31-4.29 8.48a129.21 129.21 0 0 0-12 53.88 127.16 127.16 0 0 0 4.45 33.23q1.4 5.23 3.34 10.64a126.56 126.56 0 0 1-2.22-23.42 129.11 129.11 0 0 1 12-53.87c1.46-3.18 2.92-6 4.29-8.48 1.43 1.58 2.88 3.15 4.36 4.68a187.84 187.84 0 0 0 53.55 38.5c19.35 9.2 39.47 14.54 58.48 14.56a86.13 86.13 0 0 0 20.59-2.39v-22a83.21 83.21 0 0 1-26.17 4c-19-.08-39.13-5.42-58.46-14.62Zm412.06-315.8a12.13 12.13 0 0 0-.88 1.4 83.46 83.46 0 0 0 43.85 12 91.27 91.27 0 0 0 10.42-.62c-14.9-1.77-28.2-7.19-38.41-14.88a10.7 10.7 0 0 0-14.98 2.1Z" transform="translate(-62.28 -372.3)"/><path d="M1316.68 724.58a80.32 80.32 0 0 1 24.24-14.29 85.32 85.32 0 0 1 19.63-4.84 89.93 89.93 0 0 0-10.85-.66 84.55 84.55 0 0 0-29.79 5.5 80.5 80.5 0 0 0-24.25 14.29 60.08 60.08 0 0 0-11 12.44 226.79 226.79 0 0 1-44 50.88q-6.86 5.9-14.2 11.34c.52.61 1.07 1.21 1.56 1.84a43 43 0 0 1 7.47 13.85 34.9 34.9 0 0 1-.34 21.86 42.24 42.24 0 0 1-5.28 10.31c-4.46 6.42-10.53 12-17.8 16.93a121 121 0 0 1-16.18 9.21 194.66 194.66 0 0 1-26.24 10.13 304.73 304.73 0 0 1-42.12 9.63c-6.75 1.07-13.73 2-20.87 2.71a55.49 55.49 0 0 1-30.9 69.1 54.79 54.79 0 0 1-11 3.35 56.14 56.14 0 0 0 10.43 1 55.47 55.47 0 0 0 52.51-73.47c7.15-.74 14.12-1.64 20.87-2.71a305.22 305.22 0 0 0 42.13-9.63 195.18 195.18 0 0 0 26.24-10.13 121.54 121.54 0 0 0 16.17-9.21c7.27-5 13.34-10.51 17.8-16.93a42.24 42.24 0 0 0 5.28-10.31 34.9 34.9 0 0 0 .34-21.86 42.82 42.82 0 0 0-7.46-13.85c-.5-.63-1-1.23-1.57-1.84q7.35-5.44 14.2-11.34a226.83 226.83 0 0 0 44-50.88 60.08 60.08 0 0 1 10.98-12.42Zm-164.8 471.36a85.71 85.71 0 0 1 12.68-7.5c2.67-1.28 5.47-2.44 8.34-3.52v-131.2a28.1 28.1 0 0 0-28.11-28.1h-21a28.08 28.08 0 0 1 28.1 28.1Zm88.37-19.04c-3.56 0-7.06.14-10.51.39a134.13 134.13 0 0 1 22.19 3.41 106.54 106.54 0 0 1 27.54 10.66 79.36 79.36 0 0 1 7.87 5.11c1.52-3.21 2.88-6.41 4.14-9.59a112.63 112.63 0 0 0-18.54-6.18 138.64 138.64 0 0 0-32.69-3.8Zm-359.5-305.67a192.25 192.25 0 0 1 17.1-18.92 50.26 50.26 0 0 1-6.73-9.38c-.41-.76-.79-1.53-1.16-2.32a196.27 196.27 0 0 0-30.22 30.62 178.39 178.39 0 0 0-31.6 61.36 192.42 192.42 0 0 0-7.33 53.54 95.16 95.16 0 0 0 4.16 27.58 114.13 114.13 0 0 0 11.6 25.85c9.91 16.5 23.92 31.31 39.74 43.1a162.83 162.83 0 0 0 33.24 19.24c15.14 6.48 30.33 9.93 43.59 9.92a70.11 70.11 0 0 0 10.13-.72 123.64 123.64 0 0 1-32.71-9.2 163.36 163.36 0 0 1-33.24-19.24c-15.82-11.79-29.83-26.6-39.74-43.1a114.57 114.57 0 0 1-11.6-25.85 95.16 95.16 0 0 1-4.16-27.58 192.41 192.41 0 0 1 7.34-53.54 178.55 178.55 0 0 1 31.59-61.36ZM991 997.71a62 62 0 0 1-13.74-8.46 34.76 34.76 0 0 1-10-13 31.56 31.56 0 0 1-2.52-12.63 43.63 43.63 0 0 1 2.33-13.62c.59-1.75 1.18-3.15 1.59-4.06.21-.46.37-.79.46-1l.1-.18a10.7 10.7 0 0 0-18.77-10.27c-.11.21-.6 1.11-1.27 2.59a10.65 10.65 0 0 1-1 7.68l-.09.18c-.1.19-.26.52-.47 1a42.38 42.38 0 0 0-1.58 4.06 43.63 43.63 0 0 0-2.34 13.67 31.54 31.54 0 0 0 2.51 12.63 34.69 34.69 0 0 0 10 13 61.91 61.91 0 0 0 13.79 8.41 99.13 99.13 0 0 1 36.19 28 9.87 9.87 0 0 1 1.22-.07h19.74A99.11 99.11 0 0 0 991 997.71Z" transform="translate(-62.28 -372.3)"/><path d="M1125.92 1048.64a5.67 5.67 0 0 0-2.14-.43h-104.94a67.86 67.86 0 0 1 3.73 16.73h84.81a5.34 5.34 0 0 1 2.14.43 5.59 5.59 0 0 1 2.43 2 5.33 5.33 0 0 1 .93 3.07v197.68h10.9a5.41 5.41 0 0 0 3.07-.93 5.56 5.56 0 0 0 2-2.44 5.45 5.45 0 0 0 .43-2.14v-208.9a5.41 5.41 0 0 0-.94-3.07 5.6 5.6 0 0 0-2.42-2Zm-160.54 171.77c-3.7-4.51-9.61-9-17.26-12.69a89 89 0 0 0-17.33-6.13 121 121 0 0 0-55.7-.1 85.25 85.25 0 0 0-22 8.46 51.38 51.38 0 0 0-10.21 7.47 27 27 0 0 0-7.1 10.38 16.89 16.89 0 0 0 .27 12.15 25 25 0 0 0 4 6.66 35.81 35.81 0 0 0 3.66 3.79 16.72 16.72 0 0 1-.35-3.38 17.09 17.09 0 0 1 1-5.72 27.28 27.28 0 0 1 7.11-10.38 52 52 0 0 1 10.2-7.46 85.33 85.33 0 0 1 22-8.46 121 121 0 0 1 55.7.1 89.28 89.28 0 0 1 17.33 6.13 57.29 57.29 0 0 1 13.6 8.9 19.6 19.6 0 0 0-.91-3.06 25.3 25.3 0 0 0-4.01-6.66Zm316.97 0c-3.7-4.51-9.61-9-17.26-12.69a89.28 89.28 0 0 0-17.33-6.13 121 121 0 0 0-55.7-.1 85.25 85.25 0 0 0-22 8.46 51.38 51.38 0 0 0-10.21 7.47 27 27 0 0 0-7.1 10.38 17 17 0 0 0-1 5.71 17.4 17.4 0 0 0 1.25 6.49 25.3 25.3 0 0 0 4 6.66 35.81 35.81 0 0 0 3.66 3.79 16.72 16.72 0 0 1-.35-3.38 17.09 17.09 0 0 1 1-5.72 27.28 27.28 0 0 1 7.11-10.38 51.67 51.67 0 0 1 10.2-7.46 85.33 85.33 0 0 1 22-8.46 120.92 120.92 0 0 1 55.69.1 89.15 89.15 0 0 1 17.34 6.13 57.29 57.29 0 0 1 13.6 8.9 18.64 18.64 0 0 0-.92-3.06 25 25 0 0 0-3.98-6.71Zm-240.98-326.18a34 34 0 0 1 43.43 4.46 34 34 0 0 0-17.37-16.45 34.2 34.2 0 0 0-32.33 3.15 34 34 0 0 0-15 28.28 33.93 33.93 0 0 0 5.82 19.07 34.53 34.53 0 0 0 3.92 4.77 34.09 34.09 0 0 1 11.58-43.28Z" transform="translate(-62.28 -372.3)"/></g><path d="m1174.31 712.24-.39-3.06.37 3.06-.39-3.06.37 3.06a47.78 47.78 0 0 1 5-.23 65 65 0 0 1 18.73 2.74 49.07 49.07 0 0 1 10.77 4.76 41.3 41.3 0 0 1 9.8 8.14 7.22 7.22 0 1 0 10.84-9.53 55.64 55.64 0 0 0-13.2-11 66.31 66.31 0 0 0-20.61-7.9 81.67 81.67 0 0 0-16.33-1.67 61.5 61.5 0 0 0-6.8.34 7.22 7.22 0 0 0 1.81 14.33Zm-8.2 21.52a63.08 63.08 0 0 1 16.23 4.78 54.82 54.82 0 0 1 12.72 7.75 42.22 42.22 0 0 1 10.51 12.81 7.22 7.22 0 1 0 12.77-6.74 56.45 56.45 0 0 0-14.59-17.61 73.11 73.11 0 0 0-24-12.59 69.71 69.71 0 0 0-12.06-2.75 7.22 7.22 0 1 0-1.59 14.35Zm-212.38-21.52.38-3.06-.36 3.06.38-3.06-.36 3.06a47.87 47.87 0 0 0-5-.23 64.89 64.89 0 0 0-18.77 2.74 49.07 49.07 0 0 0-10.77 4.76 41.3 41.3 0 0 0-9.8 8.14 7.22 7.22 0 1 1-10.84-9.53 55.44 55.44 0 0 1 13.2-11 66.31 66.31 0 0 1 20.61-7.9 81.65 81.65 0 0 1 16.32-1.67 61.07 61.07 0 0 1 6.8.34 7.22 7.22 0 0 1-1.8 14.33Zm8.2 21.52a63 63 0 0 0-16.23 4.78 54.82 54.82 0 0 0-12.7 7.75 42.08 42.08 0 0 0-10.51 12.81 7.22 7.22 0 1 1-12.77-6.74 56.45 56.45 0 0 1 14.59-17.61 73 73 0 0 1 24-12.59 69.71 69.71 0 0 1 12.06-2.75 7.22 7.22 0 1 1 1.59 14.35Z" transform="translate(-62.28 -372.3)"/><path class="cls-2" d="M381.21 1094.48Zm836.64 74.52Zm173.29 327.62h-.17Zm283.03 5.51h-.05Zm-38.53-362.7Zm296.11 31.32a104.88 104.88 0 0 0 7.52-39.08 101.19 101.19 0 0 0-5.56-33.33 92.58 92.58 0 0 0-12.17-23.5 87.41 87.41 0 0 0-42.37-31.65 102 102 0 0 0-34-5.6c-2.63 0-5.28.1-7.94.27a99.75 99.75 0 0 0-38.64 10.08 90.77 90.77 0 0 0-23.15 16.49 94.06 94.06 0 0 0-21.73 33.3 102.53 102.53 0 0 0-6.75 33.7 76.27 76.27 0 0 0-6.13-4.92 74.56 74.56 0 0 0-20.36-10.18 75.41 75.41 0 0 0-23-3.57 81.68 81.68 0 0 0-32.77 7 101.2 101.2 0 0 0-29.07 19.62 186.5 186.5 0 0 0-16.75 18.56c-2.56-21.86-6.43-44-13-64.88a187.54 187.54 0 0 0-13.08-32 120.52 120.52 0 0 0-20.24-28.14l-.32-.32-.27-.28a81.88 81.88 0 0 0-25.42-17.9 76.76 76.76 0 0 0-31.2-6.57 86.28 86.28 0 0 0-27.33 4.58h-.16l-.19.07a69.54 69.54 0 0 0-14.11 6.68 67.51 67.51 0 0 0-19.13 17.9 74.92 74.92 0 0 0-8.56 15.52 96 96 0 0 0-6 22.63 143.62 143.62 0 0 0-1.41 20.9c0 8.64.6 16.83 1.34 24.4-1-.78-2-1.58-3-2.34l-.08-.06a147.92 147.92 0 0 0-87.45-28.86 145.16 145.16 0 0 0-73.68 20.12c-22.88 13.43-43 33.65-57.74 59.51l-.06.11a6.44 6.44 0 0 1-11.23 0l-.34-.6-.1-.17-.06-.11a196.85 196.85 0 0 0-23.89-33c-13.3-14.72-28.68-26.74-45.82-35.11a124.71 124.71 0 0 0-85.75-9.17 143.7 143.7 0 0 0-39.34 16.51c-.27-.34-.51-.71-.79-1a83.81 83.81 0 0 0-29.25-23.24 80.91 80.91 0 0 0-34.74-7.77 86.75 86.75 0 0 0-36.19 8 96.67 96.67 0 0 0-41.68 37.28 104.66 104.66 0 0 0-9.1 18.76 146.28 146.28 0 0 0-25.67-26.92 164.37 164.37 0 0 0-53.05-28.49 190.89 190.89 0 0 0-58.8-9.14 194.74 194.74 0 0 0-73.33 14.19 176.25 176.25 0 0 0-33.66 18.26 164.54 164.54 0 0 0-22.5 18.72c-1.79-8.91-3.85-17.6-6.25-26-4.7-16.3-10.58-31.6-18.7-45.62a124 124 0 0 0-14.23-19.89 94.64 94.64 0 0 0-19.18-16.68l-.35-.23-.35-.22a72.48 72.48 0 0 0-38.52-11 79.58 79.58 0 0 0-18.59 2.25 100.16 100.16 0 0 0-28.72 12.15c-13.18 8.08-24.93 18.57-35.91 30.93a268.26 268.26 0 0 0-30.49 42.75c-7 12-14.06 24.49-21 36.78-6.74 12-13.32 23.82-19.55 34.65-6.49-18.12-13.15-36.91-19.2-53.79-3.6-10-7-19.41-10-27.6s-5.64-15.18-7.87-20.75a131.23 131.23 0 0 0-14.29-27.24 101.86 101.86 0 0 0-14.65-16.93 87.76 87.76 0 0 0-27.63-17.41 85.09 85.09 0 0 0-30.94-5.77 97.19 97.19 0 0 0-37.51 7.82 123.45 123.45 0 0 0-31.89 19.82l-.19.17-.23.19c-17.08 15-30.24 33.53-40.88 54a307.13 307.13 0 0 0-20 49.24c-8.19 26-13.92 53.89-17.68 82.48a671.06 671.06 0 0 0-5.5 86.56 647.47 647.47 0 0 0 6 89.74c2 14.09 4.48 27.63 7.46 40.46a317.57 317.57 0 0 0 10.58 36.26v.22a99.74 99.74 0 0 0 16.87 29.46 91.31 91.31 0 0 0 17.83 16.37 97.27 97.27 0 0 0 30.56 14.09 117.79 117.79 0 0 0 30.64 3.91c1.91 0 3.81 0 5.7-.13a111.42 111.42 0 0 0 37.19-8 102.3 102.3 0 0 0 24.58-14.17 96.25 96.25 0 0 0 27.24-33.51 99.66 99.66 0 0 0 10-44 113.69 113.69 0 0 0-1.65-19.17v-.2a141.66 141.66 0 0 0-3.74-15.57c-2.59-8.76-5.72-17.17-9-25.7-4.9-12.76-10.13-25.75-14.64-39.24a265.62 265.62 0 0 1-9.13-33.92c3.58 7.8 7.41 15.67 11.58 23.35l.1.19v-.07a190.31 190.31 0 0 0 12 19.24 122.52 122.52 0 0 0 10.31 12.6 79.08 79.08 0 0 0 20.13 15.72 62.51 62.51 0 0 0 13.24 5.26 57.45 57.45 0 0 0 28.08.46 63.74 63.74 0 0 0 19.7-8.39 90.37 90.37 0 0 0 21.11-19.26c1.83-2.23 3.57-4.55 5.27-6.92-2 5.5-4.08 10.83-6.07 16-3.86 10-7.52 19.32-10.62 28.33-1.56 4.52-3 9-4.19 13.57a98.1 98.1 0 0 0-2.82 14.72v.33q-.64 6.76-.65 13.33a115.74 115.74 0 0 0 8.31 44 100.8 100.8 0 0 0 16.46 27.11 99.68 99.68 0 0 0 36.19 26.74 106.79 106.79 0 0 0 42.63 8.76 112.06 112.06 0 0 0 35.14-5.67 115.75 115.75 0 0 0 47.2-29.84 128.78 128.78 0 0 0 26.9-42.7c1.28 2.13 2.63 4.23 4.06 6.28a115 115 0 0 0 35.65 32.86c14.49 8.63 31.26 14.6 49.72 17.74l1.77.31 1.8.13q6.51.48 13 .48a163.16 163.16 0 0 0 49.26-7.51 172.76 172.76 0 0 0 35.33-15.78 66.94 66.94 0 0 0 5.48 5.15 69 69 0 0 0 20.56 11.85 82.76 82.76 0 0 0 21.85 4.66h.97c1.8.1 3.6.15 5.41.15a84.85 84.85 0 0 0 17.46-1.75 71.65 71.65 0 0 0 28-12.41 69.1 69.1 0 0 0 10.33-9.44c.53.53 1 1.1 1.56 1.61a87.36 87.36 0 0 0 31 18.85 101.53 101.53 0 0 0 34 5.76 104 104 0 0 0 24.16-2.83 95.13 95.13 0 0 0 34.59-15.94 86.74 86.74 0 0 0 14.91-14 85 85 0 0 0 11.37-17.67l.12-.24a1.51 1.51 0 0 1 .09-.18c1-2.14 2-4.29 2.91-6.44a90.81 90.81 0 0 0 16 24 95.24 95.24 0 0 0 34.1 23.39 104.19 104.19 0 0 0 39.16 7.58 105.54 105.54 0 0 0 33.94-5.6 101.55 101.55 0 0 0 30.79-16.89l.19-.16.52-.4a88.77 88.77 0 0 0 16.85-17.91 118.09 118.09 0 0 0 10.5-18 160.52 160.52 0 0 0 6.73-16.51 180.88 180.88 0 0 0 19.43 24.79 152.49 152.49 0 0 0 45.79 33.68 137.28 137.28 0 0 0 58.9 13.18 154.92 154.92 0 0 0 44-6.6 158.5 158.5 0 0 0 38-16.69 146.69 146.69 0 0 0 16.34-11.61 71.1 71.1 0 0 0 2.86 6.79 73.53 73.53 0 0 0 12.22 18 74.39 74.39 0 0 0 26 18.16 79 79 0 0 0 30.7 6.1 85.6 85.6 0 0 0 22.06-2.92l1.66-.45 1.61-.58a97.33 97.33 0 0 0 19.39-9.7 109 109 0 0 0 25.71-23.55 148.56 148.56 0 0 0 16.34-25.71l3.88 3.36c9.8 8.46 19.8 17 30.35 24.76a173.89 173.89 0 0 0 16.6 10.88 99.58 99.58 0 0 0 19.36 8.62 71.63 71.63 0 0 0 21.6 3.32 73.17 73.17 0 0 0 27-5.19 74.33 74.33 0 0 0 31.78-24.17c.6-.79 1.14-1.62 1.71-2.43a116.07 116.07 0 0 0 12.88 15l.3.3.28.26a66.87 66.87 0 0 0 23.59 14.16 74.22 74.22 0 0 0 24.47 4.09 77.14 77.14 0 0 0 22.16-3.25 72.91 72.91 0 0 0 15.93-6.92A67.43 67.43 0 0 0 1867 1489a61.62 61.62 0 0 0 13.76-18.16 60.17 60.17 0 0 0 6.14-23.51c.58-9.95 1.17-21.35 2-33.67 1.29-18.45 3.21-38.94 6.46-58.84s7.87-39.17 13.95-54.74l.52-1.35.42-1.39a105.23 105.23 0 0 0 4.74-30.53 84.35 84.35 0 0 0-7.73-35.78 79.38 79.38 0 0 0-10.26-16.38 93.9 93.9 0 0 0 11.45-9.31 98.25 98.25 0 0 0 23.3-34.59Zm-94.67-132.88h.28Z" transform="translate(-62.28 -372.3)"/><path d="M368.43 1300c-26.08 45.93-49.32 45.36-74.83-1.13-17.58-32.32-31.75-74.84-38-87.31-34.58-66.9-65.2-53.29-45.35 79.94 7.93 52.16 32.88 94.11 38 123 7.37 43.08-22.68 73.13-61.8 74.83-26.64 1.14-53.29-8.5-64.63-39.12-36.82-101.44-31.19-327.09 49.32-397.39 33.45-28.34 77.1-27.78 97.51 25 7.94 19.84 25 68.6 40.26 111.12 29.48 79.37 23.81 66.33 64.06-3.4 13-22.68 27.21-48.76 40.82-72 31.75-54.43 71.44-81.64 99.78-64.07 73.14 47.63 53.3 313.52 32.89 379.29-27.78 91.85-151.38 78.24-142.31-16.44 2.27-21.55 25.52-64.07 39.12-119.06 14.18-59 28.92-206.94-44.22-48.19Zm289.7-36.27a46.36 46.36 0 0 1-20.41 10.2c-26.64 6.24-49.32-11.9-51-40.25-2.27-28.91 7.93-53.86 27.21-75.4 55.56-62.94 171.22-60.67 217.14 6.23 44.79 65.77 35.72 171.79 32.32 257.4-1.14 27.21-12.48 48.75-43.09 47-21-1.7-31.18-13.6-36.29-38.55-8.5 5.67-17.57 11.91-26.64 17.58-25 16.44-52.16 24.38-82.78 22.11-112.82-19.28-89-161.58 14.74-184.83 26.65-6.23 53.86-7.93 79.38-7.37 8.48-89.53-68.06-52.11-110.58-14.12Zm28.35 116.79c-9.64 34 78.8 14.17 92.41-5.67-.57-7.37-2.27-26.08-2.83-32.88-26.65-6.24-81.06 4.53-89.58 38.55Zm487-193.33c18.15 31.75 24.38 66.9 26.65 102.62 2.27 41.39.57 137.2-35.15 165-40.26 32.88-112.82 8.5-100.35-58.4 5.67-31.18 19.84-79.94 21-111.69 3.41-107.15-33.44-104.88-60.09-58.39-32.32 57.83 1.13 155.91-28.35 216-21.54 45.35-104.32 36.85-102.62-16.45 1.14-30 4.54-154.2-4-237.55-7.37-82.2 94.11-108.85 105.45-19.27 61.24-68.06 135.51-53.87 177.46 18.13Zm222.8 155.91c25.52-22.11 60.67-16.44 60.67 19.28.56 53.29-35.72 86.17-76.54 98.08-72.57 21.54-125.3-28.92-145.14-89.58-19.27-58.39-15.31-129.83 15.31-183.12 38-66.34 112.82-76.54 163.85-39.12 28.34 21 44.79 51 44.79 82.77-.57 29.48-13 57.83-31.75 70.87-40.26 27.78-89.58 14.74-116.23-11.91-5.1 67.47 36.29 95.25 85.04 52.73Zm265.33-176.32c44.79-42.52 97 5.67 63.5 58.4-21 31.74-50.46 55.56-75.41 83.34-7.37 7.93-13 16.44-5.67 22.11 31.75 24.94 89.58 58.39 87.31 103.75-1.13 22.68-24.38 38.55-45.92 31.75-27.21-8.51-64.07-50.46-98.65-73.71-9.07 32.32-23.24 73.14-57.26 85.61-25.51 6.81-49.33-7.93-51-34-1.13-17 2.27-34 3.41-51 6.23-82.77 4.53-165.55-1.14-246.62-2.83-30-15.31-86.18 19.28-98.08 17-5.67 32.88-2.27 45.35 10.77 38.56 38.55 40.26 141.17 40.82 198.43 29.45-26.12 53.83-70.34 75.38-90.75Zm187.65 278.37c-1.13 23.81-36.85 32.32-53.86 16.44-44.79-43.65-42.52-158.18-16.44-211.47 25.51-51.59 116.22-32.88 95.25 36.29-19.85 51.02-22.68 119.59-24.95 158.74Zm-9.64-369.65c83.91-5.67 80.51 116.79 2.27 118.49-74.27.01-77.67-113.99-2.27-118.49Z" transform="translate(-62.28 -372.3)"/><path class="cls-3" d="M1324.81 1249.31a38 38 0 0 1-5.21-15.69 42.77 42.77 0 0 1 4.87-24.23 49.22 49.22 0 0 1 18.34-19.28 50.69 50.69 0 0 1 8.37-4 49.41 49.41 0 0 1 8.63-2.36 45.5 45.5 0 0 1 25.06 2.48 39.69 39.69 0 0 1 10.53 6.32 37.93 37.93 0 0 1 13.35 25.2 42.94 42.94 0 0 1-4.88 24.23 48.12 48.12 0 0 1-10.37 13.34 6.8 6.8 0 0 1-5.12 1.77 5.5 5.5 0 0 1-4.29-2.59l-9.21-15.33a5.65 5.65 0 0 1 .25-6 11.2 11.2 0 0 0 1.85-5.57 9.63 9.63 0 0 0-1.36-5.57 10.07 10.07 0 0 0-6.8-4.65 12.37 12.37 0 0 0-8.68 1.61 12.23 12.23 0 0 0-5.5 6.93 10 10 0 0 0 .91 8.17 9.69 9.69 0 0 0 4.28 3.82 11.41 11.41 0 0 0 5.79 1 5.62 5.62 0 0 1 5.4 2.59l9.21 15.32a5.52 5.52 0 0 1 .27 5 6.83 6.83 0 0 1-4 3.69 49.51 49.51 0 0 1-8 2.15 45.4 45.4 0 0 1-25.06-2.48 38.58 38.58 0 0 1-18.63-15.87Z" transform="translate(-62.28 -372.3)"/></svg>
