<svg data-name="Layer 1" xmlns="http://www.w3.org/2000/svg" viewBox="0 0 771.511 792"><path d="M606.055 618.244c7.076 2.09 8.1 7.367 8.1 13.554a69.458 69.458 0 0 1-2.955 20.942c-2.113 6.785-6.947 10.208-13.448 11.6-13.406 2.868-26.759 6.022-40.35 7.963-11.1 1.585-22.174 3.3-33.279 4.842-15.8 2.191-31.7 3.146-47.546 4.69-5.763.561-11.619 1.031-17.465 1.061-6.532.033-13.042.741-19.567 1.024-4.023.174-6.474 4.369-7.907 7.681-6.286 14.521-17.64 22.058-32.748 23.777-16.025 1.823-30.528-5.183-38.732-20.869-3.34-6.385-8.13-10.06-16.189-10.158-16.652-.2-33.3-1.32-49.931-2.415q-18.033-1.186-36-3.323c-12.783-1.5-25.513-3.464-38.257-5.289-15.1-2.161-29.936-5.65-44.822-8.9-7.917-1.728-12.937-6-15.068-14.224-2.009-7.759-1.3-15.492-1.453-23.253a5.633 5.633 0 0 1 1.221-3.474c2.613-3.068 1.115-4.418-1.753-6.056a159.19 159.19 0 0 1-36.836-28.453 180.9 180.9 0 0 1-34.159-52.053c-9.466-21.4-14.961-43.872-18.779-66.779a249.376 249.376 0 0 1-2.581-56.593c2.01-32.123 8.806-63.419 19.166-93.888 5.062-14.888 11.193-29.356 17.678-43.7 4.917-10.877 11.565-21 14.294-32.883a89.7 89.7 0 0 0 .923-34.26c-1.432-9.288-2.348-18.684-2.961-28.109a193.8 193.8 0 0 1-.615-22.094c.971-19.66 3.456-38.982 13.8-56.417 7.413-12.5 17.2-21.923 31.862-24.837 15.7-3.12 29.978 1.56 43.506 9.133 20.3 11.366 37.551 26.607 54.446 42.422 6.693 6.265 12.637 13.377 20.149 18.767 12.8 9.186 26.608 11.59 41.847 6.973A212.992 212.992 0 0 1 357 146.59a249.841 249.841 0 0 1 40-1.386 218.845 218.845 0 0 1 55.15 9.64c16.075 4.986 30.669 1.359 43.75-9.191 5.894-4.754 10.872-10.4 16.32-15.58 15.935-15.155 32.255-29.868 51.284-41.11 12.057-7.124 24.7-12.725 39.221-12.621 15.126.108 26.546 7.013 35.672 18.506 9.555 12.033 13.845 26.058 16.011 41.032a150.483 150.483 0 0 1 1.442 31.195c-.911 14.22-2.633 28.374-4.508 42.529-1.911 14.427-.307 29.054 5.889 42.486 11.2 24.27 22.846 48.361 31.153 73.8A413.752 413.752 0 0 1 703 384.371c3.653 21.275 4.058 42.706 3.011 64.062a212.73 212.73 0 0 1-17.948 75.75 207.506 207.506 0 0 1-31.291 50.061 198.478 198.478 0 0 1-32.763 30.767c-5.832 4.395-11.757 8.672-17.954 13.233Z" style="fill:#f4f4f6"/></svg>
