<svg version="1.1" id="Layer_1" xmlns="http://www.w3.org/2000/svg" x="0" y="0" viewBox="0 0 1877 1156.3" style="enable-background:new 0 0 1877 1156.3" xml:space="preserve"><style>.st1{fill:#fff}.st2{fill:#ffa725}</style><path d="M846.2 449c-.4 1.4-.6 2.7-.6 4.1 0 1.5.2 3 .8 4.5.5 1.6 1.4 3.3 2.6 5.1 2.5 3.6 6.6 7.6 12.3 11.4 3.8 2.6 8.3 5.1 13.4 7.6 6.8 3.2 14.6 6.3 23.3 9 11.6 3.6 24.8 6.7 39.1 8.9 5.2.8 10.5 1.5 16 2.2 4.9-4.8 10.7-8.8 17.2-11.5 6.6-2.8 14-4.4 21.6-4.4 11.5 0 22.2 3.5 31 9.5 3.3 2.2 6.4 4.8 9.1 7.7 12-.9 23.5-2.3 34.2-4.2 20.2-3.5 38-8.5 52.1-14.5 9.4-4 17.1-8.4 22.8-12.8 3.2-2.5 5.8-5.1 7.7-7.4 2.2-2.7 3.4-5.3 4-7.5.3-1.2.5-2.4.5-3.5 0-1.3-.2-2.7-.6-4.1-.4-1.4-1.1-2.9-2.1-4.5-1.1-1.7-2.5-3.5-4.4-5.4-41.5 25.6-92.2 40.6-146.8 40.6-52.2 0-100.8-13.7-141.3-37.3-1.8-1.1-3.7-2.2-5.5-3.3-1 1-1.9 2-2.7 3-1.8 2.3-3 4.6-3.7 6.8z" style="fill:#e72b00"/><path class="st1" d="M1130 423.9c37.1-21.6 66.4-52.2 83.9-87.7 11.6-23.7 18-49.6 18-76.9 0-27.3-6.4-53.2-18-76.9-11.6-23.7-28.5-45.2-49.5-63.3-17.3-15-37.5-27.6-59.7-37.3-.2-.1-.4-.2-.7-.3-31.4-13.6-66.9-21.3-104.5-21.3-48.5 0-93.4 12.7-130.5 34.4-37.1 21.6-66.4 52.2-83.9 87.7-11.6 23.7-18 49.6-18 76.9 0 27.3 6.4 53.2 18 76.9 11.6 23.7 28.5 45.2 49.5 63.3 42 36.2 100.3 58.8 164.9 58.8 48.5 0 93.4-12.7 130.5-34.3zm-64.5-188.7c6.2-5.8 12.6-10 19.1-12.6 6.5-2.6 12.9-3.7 18.9-3.7 6 0 11.5 1.1 16.3 2.6 4.8 1.5 9 3.5 12.5 5.5 6.9 4 11 7.8 11.5 8.2 4.3 4.1 4.5 10.8.4 15.1-4.1 4.3-10.8 4.5-15.1.4l-.1-.1c-.1-.1-.4-.4-.8-.6-.7-.6-1.8-1.4-3.2-2.4-2.8-1.9-7-4.3-11.6-5.7-3.1-1-6.4-1.6-9.9-1.6-3.4 0-7 .6-10.8 2.1-3.8 1.6-8 4.1-12.4 8.3-4.3 4.1-11.1 3.9-15.1-.4-4.2-4.2-4-11 .3-15.1zm-169.9 5.1c-2.9 0-5.7.4-8.4 1.2-2.7.7-5.2 1.8-7.5 2.9-4.5 2.2-7.9 4.9-9.2 6-.4.3-.5.5-.5.5-4.3 4-11 3.8-15.1-.4-4.1-4.3-3.9-11.1.4-15.1.3-.3 2.7-2.6 6.8-5.3 4.1-2.8 9.9-6.1 17.2-8.4 4.8-1.5 10.3-2.6 16.3-2.6s12.4 1.1 18.9 3.7c6.5 2.6 12.9 6.8 19.1 12.6 4.3 4.1 4.5 10.8.4 15.1-4.1 4.3-10.8 4.5-15.1.4-4.4-4.2-8.6-6.8-12.4-8.3-3.9-1.7-7.5-2.3-10.9-2.3zm87.2 134.6c-5.6 2.4-11.8 3.7-18.3 3.7-9.7 0-18.8-3-26.2-8-7.5-5.1-13.4-12.2-17-20.6-2.4-5.6-3.7-11.8-3.7-18.3 0-5.9 4.8-10.7 10.7-10.7 5.9 0 10.7 4.8 10.7 10.7 0 5.3 1.6 10.2 4.4 14.3 2.8 4.1 6.7 7.3 11.2 9.3 3 1.3 6.4 2 9.9 2 5.3 0 10.2-1.6 14.3-4.4 4.1-2.8 7.3-6.7 9.3-11.2 1.2-2.8 1.8-5.8 2-9-14.9-2.7-25.8-10.9-25.8-20.7 0-11.9 16.4-21.6 36.5-21.6 20.2 0 36.5 9.7 36.5 21.6 0 9.7-10.9 17.9-25.8 20.7.2 4.9 1.7 9.5 4.3 13.3 2.8 4.1 6.7 7.3 11.2 9.3 3 1.3 6.4 2 9.9 2 5.3 0 10.2-1.6 14.3-4.4 4.1-2.8 7.3-6.7 9.3-11.2 1.3-3 2-6.4 2-9.9 0-5.9 4.8-10.7 10.7-10.7 5.9 0 10.7 4.8 10.7 10.7 0 9.7-3 18.8-8 26.2-5.1 7.5-12.2 13.4-20.6 17-5.6 2.4-11.8 3.7-18.3 3.7-9.7 0-18.8-3-26.2-8-3.8-2.5-7.1-5.6-10-9.1-4.8 5.7-10.9 10.3-18 13.3z"/><path class="st2" d="M770.2 164.6c12.7-23.2 29.8-44 50.4-61.8 14.9-12.8 31.6-24 49.7-33.4-3-2.6-6.5-5.5-10.5-8.6-13.3-10.3-31.7-22.7-51.5-30.7-13.3-5.4-27.1-8.8-40.5-8.8-1.4 0-2.6.1-3.7.4-1 .2-1.9.6-2.7 1-1.5.8-2.9 2-4.2 3.9-.9 1.3-1.8 2.9-2.5 4.9-1 2.6-1.9 5.9-2.5 9.6-.8 4.9-1.2 10.7-1.2 17 0 12 1.5 25.7 3.7 39.6 2.3 13.9 5.3 27.8 8.4 40.3 2.5 10.1 5 19.2 7.1 26.6zm457.4-2.2c.5-1.8 1.1-3.7 1.6-5.7 4.4-15.9 9.7-37.2 13.2-58.3 2.3-14.1 3.8-28.1 3.8-40.3 0-5.4-.3-10.4-.9-14.9-.6-4.4-1.6-8.3-2.7-11.4-.8-2-1.7-3.7-2.6-5.1-1.2-1.8-2.4-2.9-3.8-3.7-.8-.5-1.6-.8-2.6-1.1-1.1-.3-2.5-.5-4.2-.5-13.1 0-26.7 3.3-39.7 8.4-13 5.2-25.4 12.2-36.2 19.4-10.5 7-19.4 14.1-25.9 19.6 4.5 2.3 8.9 4.7 13.3 7.2 36.8 21.5 66.9 51.3 86.7 86.4z"/><path class="st1" d="M772.2 824.3c4.1-3 8.7-5.7 13.6-8.1 6.6-3.2 13.8-5.7 21.5-7.6 10.3-2.5 21.5-3.9 33.2-3.9 11.5 0 22.5 1.3 32.7 3.8 10.2 2.5 19.5 6.1 27.5 10.7 5.4 3.1 10.3 6.6 14.4 10.6l1.9 1.9V757c-8.3 2.7-17.1 4-26.2 4-19 0-39.1-5.4-58.5-14.6-19.3-9.2-37.9-22.4-53.6-38.5-1.5-1.5-2.9-3.1-4.4-4.7-1.4 2.5-2.8 5.3-4.3 8.5-6 13-12 31.6-12 53.9 0 10.3 1.3 21.4 4.4 33.2 2.4 8.1 5.6 16.6 9.8 25.5zm447.4 23.8c-3.7-4.5-9.6-9-17.3-12.7-5.1-2.5-10.9-4.5-17.3-6.1-8.5-2.1-18-3.3-28-3.3-9.9 0-19.2 1.2-27.6 3.2-8.4 2-15.9 5-22 8.5-4.1 2.3-7.5 4.9-10.2 7.5-3.6 3.5-5.9 7-7.1 10.4-.2.4-.3.9-.4 1.3v8.8c.2.7.4 1.4.7 2.1.9 2.2 2.2 4.4 4 6.7 3.7 4.5 9.6 9 17.3 12.7 3.3 1.6 7 3 10.9 4.3v-30.1c0-5.9 4.8-10.7 10.7-10.7 5.9 0 10.7 4.8 10.7 10.7v34.5c4.2.5 8.6.7 13.1.7s8.9-.2 13.1-.7v-34.5c0-5.9 4.8-10.7 10.7-10.7 5.9 0 10.7 4.8 10.7 10.7v30.1c5.7-1.8 10.8-4 15.2-6.5 4.1-2.3 7.5-4.9 10.2-7.5 3.6-3.5 5.9-7 7.1-10.4.7-1.9 1-3.8 1-5.7 0-2.2-.4-4.3-1.3-6.4-1-2.4-2.3-4.6-4.2-6.9zm118.8-498.6c-12.7-10.4-30.8-17.1-51-17.1-10.4 0-20.5 2-29.8 5.5-9.2 3.5-17.6 8.5-24.2 14.3-4.4 3.9-8.2 8.1-11 12.4-11.8 18.8-26.7 35.9-44 50.9-4.6 3.9-9.3 7.7-14.2 11.3.5.6 1.1 1.2 1.6 1.8 3.3 4.2 5.9 8.8 7.5 13.8 1 3.3 1.6 6.9 1.6 10.4 0 3.9-.7 7.8-1.9 11.5-1.3 3.7-3.1 7.1-5.3 10.3-4.5 6.4-10.5 12-17.8 16.9-4.9 3.3-10.3 6.4-16.2 9.2-7.9 3.8-16.7 7.2-26.2 10.1-12.8 4-26.9 7.2-42.1 9.6-6.8 1.1-13.7 2-20.9 2.7 1.9 5.6 3 11.7 3 18 0 11.5-3.5 22.2-9.5 31-6 8.9-14.4 15.9-24.4 20.1-6.6 2.8-14 4.4-21.6 4.4-11.5 0-22.2-3.5-31-9.5-8.9-6-15.9-14.4-20.1-24.4-2.8-6.6-4.4-14-4.4-21.6 0-6.9 1.3-13.6 3.6-19.8-5.2-.7-10.2-1.5-15.2-2.5-22.6-4.2-42.6-10.3-58.8-17.9-10.8-5.1-20-10.9-27.1-17.8-4.1-3.9-7.5-8.2-10.1-12.9-.4-.8-.8-1.5-1.2-2.3-10.5 8.5-20.9 18.7-30.2 30.6-13.3 16.9-24.6 37.2-31.6 61.4-4.6 16.1-7.3 33.9-7.3 53.5 0 9.4 1.5 18.6 4.2 27.6 2.7 8.9 6.6 17.6 11.6 25.9 9.9 16.5 23.9 31.3 39.7 43.1 10.5 7.9 21.9 14.4 33.2 19.2 15.1 6.5 30.3 9.9 43.6 9.9 7.2 0 13.9-1 19.7-3 5.9-2 10.9-4.9 15.2-8.9 4.7-4.3 8-9 10.1-13.9 2.2-4.9 3.2-10.1 3.2-15.4 0-4.8-.8-9.7-2.5-14.6s-4.2-9.9-7.6-14.6c-6.8-9.5-17-18.1-30.3-24.3-10.9-5.1-19.2-11.2-25.3-18.1-6.1-6.8-9.8-14.4-11.7-21.6-1.3-4.8-1.8-9.5-1.8-13.8 0-8.3 1.7-15.4 3.5-20.5 1.7-5.1 3.4-8.3 3.7-8.7 2.9-5.2 9.4-7.1 14.5-4.2 5.2 2.8 7 9.3 4.2 14.5l-.1.2c-.1.2-.3.5-.5 1-.4.9-1 2.3-1.6 4.1-1.2 3.5-2.3 8.4-2.3 13.7 0 4.1.7 8.4 2.5 12.6 1.8 4.3 4.8 8.6 10 13 3.5 2.9 7.9 5.8 13.7 8.5 15 7 27.2 16.7 36.2 28 .4 0 .8-.1 1.2-.1h116.4c5.8 0 11.2 1.8 15.7 4.8s8 7.3 10.2 12.4c1.4 3.4 2.2 7.1 2.2 10.9v142.2c3.9-2.8 8.1-5.3 12.7-7.5 6.6-3.2 13.8-5.7 21.5-7.6 10.3-2.5 21.5-3.9 33.2-3.9 11.5 0 22.5 1.3 32.7 3.8 10.2 2.5 19.5 6.1 27.5 10.7 2.8 1.6 5.4 3.3 7.9 5.1 10.7-22.6 14.8-44.5 14.8-65.1 0-18.7-3.4-36.5-8.6-52.6-5.2-16.1-12.2-30.7-19.3-42.9-14-24.3-28.3-39.2-28.5-39.4-.5-.5-.9-1.1-1.3-1.6-14.3-1-29.3-5.2-44.5-13.1-5.2-2.7-7.3-9.2-4.6-14.4 2.7-5.2 9.2-7.3 14.4-4.6 15 7.7 28.7 10.9 41.3 10.9 7.9 0 15.5-1.3 22.6-3.6 7.2-2.3 14-5.8 20.4-10.1 12.8-8.6 24-21 32.7-35.1 5.8-9.4 10.6-19.5 14.1-29.7 4.7-13.6 7.2-27.3 7.1-39.5 0-6.6-.7-12.7-2.1-18.1-22.1-.8-42.3-8-58-19.7-4.7-3.6-5.7-10.3-2.1-15 3.6-4.7 10.3-5.7 15-2.1 12.6 9.5 29.8 15.5 49 15.5 15.1 0 29.1-3.8 40.5-10 11.4-6.3 20.2-15 25.2-24.8 3.4-6.5 5.2-13.5 5.2-20.9 0-7.4-1.8-14.4-5.2-20.9-3.2-6.3-8.2-12.4-14.6-17.6z"/><path class="st2" d="M1063.6 676.3c-.7-.3-1.3-.4-2.1-.4H956.6c2.6 7.3 4 14.8 4 22.4 0 8.2-1.6 16.4-5 24-3.4 7.7-8.5 14.8-15.2 21-.2.2-.5.4-.7.6v146.3c0 1.2.3 2.2.9 3.1.6.9 1.5 1.6 2.4 2 .7.3 1.3.4 2.1.4h116.4c1.2 0 2.2-.3 3.1-.9.9-.6 1.6-1.5 2-2.4.3-.7.4-1.3.4-2.1V681.4c0-1.2-.3-2.2-.9-3.1-.6-.8-1.5-1.5-2.5-2z"/><path class="st1" d="M903.1 848.1c-3.7-4.5-9.6-9-17.3-12.7-5.1-2.5-10.9-4.5-17.3-6.1-8.5-2.1-18-3.3-28-3.3-9.9 0-19.2 1.2-27.6 3.2-8.4 2-15.9 5-22 8.5-4.1 2.3-7.5 4.9-10.2 7.5-3.6 3.5-5.9 7-7.1 10.4-.7 1.9-1 3.8-1 5.7 0 2.2.4 4.3 1.3 6.4.9 2.2 2.2 4.4 4 6.7 3.7 4.5 9.6 9 17.3 12.7 3.3 1.6 7 3 10.9 4.3v-30.1c0-5.9 4.8-10.7 10.7-10.7 5.9 0 10.7 4.8 10.7 10.7v34.5c4.2.5 8.6.7 13.1.7s8.9-.2 13.1-.7v-34.5c0-5.9 4.8-10.7 10.7-10.7s10.7 4.8 10.7 10.7v30.1c5.7-1.8 10.8-4 15.2-6.5 4.1-2.3 7.5-4.9 10.2-7.5 3.6-3.5 5.9-7 7.1-10.4.7-1.9 1-3.8 1-5.7 0-2.2-.4-4.3-1.3-6.4-1-2.3-2.3-4.5-4.2-6.8z"/><path class="st2" d="M1005.2 509.9c-4.1-1.7-8.5-2.7-13.3-2.7-7.1 0-13.6 2.1-19.1 5.8-5.4 3.7-9.8 8.9-12.4 15-1.7 4.1-2.7 8.5-2.7 13.3 0 7.1 2.1 13.6 5.8 19.1 3.7 5.4 8.9 9.8 15 12.4 1.9.8 3.9 1.4 5.9 1.9v-17c-4.8-2.6-8.1-7.7-8.1-13.6 0-8.6 6.9-15.5 15.5-15.5s15.5 6.9 15.5 15.5c0 5.9-3.3 11-8.1 13.6v17c4.3-.9 8.2-2.6 11.7-5 5.4-3.7 9.8-8.9 12.4-15 1.7-4.1 2.7-8.5 2.7-13.3 0-7.1-2.1-13.6-5.8-19.1-3.7-5.4-8.9-9.8-15-12.4z"/><path d="M933.9 250.4c4.1-4.3 3.9-11.1-.4-15.1-6.2-5.8-12.6-10-19.1-12.6-6.5-2.6-12.9-3.7-18.9-3.7-6 0-11.5 1.1-16.3 2.6-7.3 2.3-13.1 5.6-17.2 8.4-4.1 2.8-6.5 5-6.8 5.3-4.3 4.1-4.5 10.8-.4 15.1 4.1 4.3 10.8 4.5 15.1.4l.5-.5c1.3-1.1 4.6-3.7 9.2-6 2.3-1.1 4.8-2.2 7.5-2.9 2.7-.7 5.5-1.2 8.4-1.2 3.4 0 7 .6 10.8 2.1 3.8 1.6 8 4.1 12.4 8.3 4.4 4.2 11.2 4 15.2-.2zm146.3.3c4.4-4.2 8.6-6.8 12.4-8.3 3.8-1.6 7.4-2.1 10.8-2.1 3.4 0 6.8.6 9.9 1.6 4.7 1.5 8.8 3.8 11.6 5.7 1.4 1 2.5 1.8 3.2 2.4.4.3.6.5.8.6l.1.1c4.3 4 11 3.8 15.1-.4 4.1-4.3 3.9-11.1-.4-15.1-.4-.4-4.5-4.3-11.5-8.2-3.5-2-7.7-4-12.5-5.5s-10.3-2.6-16.3-2.6-12.4 1.1-18.9 3.7c-6.5 2.6-12.9 6.8-19.1 12.6-4.3 4.1-4.5 10.8-.4 15.1 4.2 4.3 10.9 4.5 15.2.4zm-69.4 119.9c7.5 5.1 16.6 8 26.2 8 6.4 0 12.6-1.3 18.3-3.7 8.4-3.6 15.6-9.5 20.6-17 5.1-7.5 8-16.6 8-26.2 0-5.9-4.8-10.7-10.7-10.7-5.9 0-10.7 4.8-10.7 10.7 0 3.6-.7 6.9-2 9.9-1.9 4.6-5.2 8.5-9.3 11.2-4.1 2.8-8.9 4.3-14.3 4.4-3.6 0-6.9-.7-9.9-2-4.6-1.9-8.5-5.2-11.2-9.3-2.6-3.8-4.1-8.4-4.3-13.3 14.9-2.7 25.8-10.9 25.8-20.7 0-11.9-16.4-21.6-36.5-21.6-20.2 0-36.5 9.7-36.5 21.6 0 9.7 10.9 17.9 25.8 20.7-.1 3.2-.8 6.2-2 9-1.9 4.6-5.2 8.5-9.3 11.2-4.1 2.8-8.9 4.3-14.3 4.4-3.6 0-6.9-.7-9.9-2-4.6-1.9-8.5-5.2-11.2-9.3-2.8-4.1-4.3-8.9-4.4-14.3 0-5.9-4.8-10.7-10.7-10.7s-10.7 4.8-10.7 10.7c0 6.4 1.3 12.6 3.7 18.3 3.6 8.4 9.5 15.6 17 20.6 7.5 5.1 16.6 8 26.2 8 6.4 0 12.6-1.3 18.3-3.7 7-3 13.2-7.6 17.9-13.4 2.9 3.5 6.3 6.6 10.1 9.2z"/><path d="M1372.2 357.4c-7.3-14.1-19.3-25.6-33.9-33.7-14.7-8.1-32.1-12.7-50.8-12.7-15.8 0-30.9 3.6-44.2 9.7 6.5-19.6 10.1-40.3 10.1-61.6 0-23.7-4.3-46.6-12.3-68 .2-.5.4-.9.6-1.4.1-.2 6.5-19.5 12.9-45.4 3.2-13 6.5-27.7 8.9-42.5 2.4-14.9 4.1-29.9 4.1-43.7 0-7.2-.4-14.1-1.5-20.6-.8-4.9-2-9.5-3.7-13.8-1.3-3.3-2.9-6.4-4.9-9.2-3-4.3-6.9-8.1-11.8-10.6-2.4-1.3-5-2.3-7.8-2.9-2.7-.6-5.6-.9-8.5-.9-17 0-33.4 4.2-48.5 10.3-22.6 9.1-42.4 22.5-56.7 33.7-7.8 6.1-13.9 11.5-18 15.2-32.5-13.1-68.6-20.4-106.7-20.4-38.6 0-75.2 7.5-108 20.9-6.3-5.8-18.6-16.5-34.6-27.3-11.8-7.9-25.6-15.9-40.7-22C801.2 4.2 784.8 0 767.8 0c-3.5 0-6.8.4-10 1.3-2.8.8-5.4 1.9-7.9 3.4-4.2 2.6-7.7 6.1-10.4 10-2 2.9-3.6 6.1-4.9 9.5-1.9 5-3.2 10.4-3.9 16.1-.8 5.7-1.1 11.6-1.1 17.8 0 13.9 1.7 28.9 4.1 43.7 3.7 22.3 9.1 44.1 13.7 60.5 4.5 16.4 8.2 27.3 8.2 27.4.4 1.2 1 2.3 1.8 3.3-7.5 20.9-11.6 43.1-11.6 66.1 0 30.6 7.2 59.9 20.2 86.3 15.6 31.7 39.3 59.5 68.9 81.4-1.7 2-3.3 4-4.6 6.2-1.9 3-3.4 6.2-4.4 9.5 0 .1-.1.2-.1.3-20.9 14.9-42.4 35.6-59.1 62.9-8.7 14.3-16.1 30.5-21.3 48.5-5.2 18-8.2 37.8-8.2 59.5 0 20.7 5.7 40.4 15.1 57.9 2.4 4.6 5.2 9 8.1 13.4-2.7 4.1-6.1 10.1-9.6 17.6-7 15.1-13.9 36.7-13.9 62.8 0 12.1 1.5 25.1 5.2 38.8 3.2 11.8 8 24.1 14.8 36.7-1.1 1.9-2.1 3.8-2.9 5.9-1.8 4.5-2.8 9.3-2.8 14.3 0 4.4.8 8.7 2.2 12.8 2.5 7.1 6.9 13.4 12.5 18.7 4.2 4 9 7.6 14.4 10.6 8.1 4.6 17.4 8.2 27.5 10.7 10.2 2.5 21.2 3.8 32.7 3.8 11.7 0 22.9-1.4 33.2-3.9 7.7-1.9 14.9-4.5 21.5-7.6 8.5-4.1 16-9.3 21.9-15.5.1 3.7.8 7.2 2.2 10.5 2.1 5.1 5.7 9.3 10.2 12.4 4.5 3 9.9 4.8 15.7 4.8h116.4c3.8 0 7.6-.8 10.9-2.2 5.1-2.1 9.3-5.7 12.4-10.2 1.6-2.4 2.9-5.1 3.7-8.1 2.6 1.9 5.3 3.7 8.2 5.4 8.1 4.6 17.4 8.2 27.5 10.7 10.2 2.5 21.2 3.8 32.7 3.8 11.7 0 22.9-1.4 33.2-3.9 7.7-1.9 14.9-4.5 21.5-7.6 9.8-4.7 18.2-10.8 24.5-18.4 3.1-3.8 5.7-7.9 7.4-12.4 1.8-4.5 2.8-9.3 2.8-14.3 0-4.4-.8-8.7-2.2-12.8-.9-2.6-2.1-5.1-3.5-7.5 14.8-28.1 20.7-56 20.6-81.9 0-21.5-4-41.6-9.8-59.6-8.8-27-21.9-49.4-32.7-65.1-3.8-5.4-7.2-10-10.2-13.8 2.1-.5 4.3-1 6.4-1.6 14.5-4.2 27.6-11.8 38.9-21.3 17-14.4 30.2-33.3 39.2-53.3 4.5-10 8-20.4 10.4-30.6 2.4-10.3 3.7-20.5 3.7-30.3 0-6.7-.6-13.2-1.9-19.5 17.9-2.9 34-10.1 46.7-20.4 8.4-6.8 15.4-15.1 20.2-24.5 4.9-9.4 7.6-19.8 7.6-30.8 0-10.9-2.8-21.4-7.6-30.8zM1153.4 49.2c10.8-7.2 23.2-14.2 36.2-19.4 13-5.2 26.6-8.5 39.7-8.4 1.7 0 3.1.2 4.2.5 1 .3 1.8.7 2.6 1.1 1.3.8 2.6 2 3.8 3.7.9 1.3 1.8 3 2.6 5.1 1.2 3.1 2.1 6.9 2.7 11.4.6 4.4.9 9.5.9 14.9 0 12.1-1.5 26.2-3.8 40.3-3.5 21.1-8.8 42.4-13.2 58.3-.6 2-1.1 3.9-1.6 5.7-19.8-35.1-49.9-64.9-86.7-86.4-4.3-2.5-8.8-4.9-13.3-7.2 6.5-5.5 15.4-12.6 25.9-19.6zM763.1 138c-3.1-12.5-6.1-26.4-8.4-40.3-2.3-13.9-3.7-27.6-3.7-39.6 0-6.3.4-12.1 1.2-17 .6-3.7 1.5-6.9 2.5-9.6.8-2 1.6-3.6 2.5-4.9 1.4-1.9 2.7-3.1 4.2-3.9.8-.4 1.6-.7 2.7-1 1-.2 2.2-.4 3.7-.4 13.4 0 27.2 3.4 40.5 8.8 19.9 8 38.3 20.4 51.5 30.7 4 3.1 7.5 6 10.5 8.6-18.1 9.3-34.8 20.5-49.7 33.4-20.6 17.8-37.7 38.6-50.4 61.8-2.1-7.4-4.6-16.5-7.1-26.6zm71.5 261.4c-21-18.1-37.9-39.6-49.5-63.3-11.6-23.7-18-49.6-18-76.9 0-27.3 6.4-53.2 18-76.9 17.4-35.6 46.7-66.1 83.9-87.7 37.1-21.6 82.1-34.4 130.5-34.4 37.7 0 73.2 7.7 104.5 21.3.2.1.4.2.7.3 22.2 9.7 42.4 22.3 59.7 37.3 21 18.1 37.9 39.6 49.5 63.3 11.6 23.7 18 49.6 18 76.9 0 27.3-6.4 53.2-18 76.9-17.4 35.6-46.7 66.1-83.9 87.7-37.1 21.6-82.1 34.4-130.5 34.4-64.6-.1-122.9-22.7-164.9-58.9zm157.3 129.1c-8.6 0-15.5 6.9-15.5 15.5 0 5.9 3.3 11 8.1 13.6v17c-2-.4-4-1.1-5.9-1.9-6.1-2.6-11.3-6.9-15-12.4-3.7-5.5-5.8-12-5.8-19.1 0-4.7 1-9.2 2.7-13.3 2.6-6.1 6.9-11.3 12.4-15 5.5-3.7 12-5.8 19.1-5.8 4.7 0 9.2 1 13.3 2.7 6.1 2.6 11.3 6.9 15 12.4 3.7 5.5 5.8 12 5.8 19.1 0 4.7-1 9.2-2.7 13.3-2.6 6.1-6.9 11.3-12.4 15-3.5 2.4-7.5 4.1-11.7 5v-17c4.8-2.6 8.1-7.7 8.1-13.6 0-8.6-7-15.5-15.5-15.5zm31-33.1c-8.8-6-19.6-9.5-31-9.5-7.6 0-15 1.6-21.6 4.4-6.5 2.7-12.3 6.7-17.2 11.5-5.4-.6-10.8-1.3-16-2.2-14.3-2.3-27.5-5.3-39.1-8.9-8.7-2.7-16.6-5.7-23.3-9-5.1-2.4-9.6-5-13.4-7.6-5.7-3.9-9.8-7.9-12.3-11.4-1.2-1.8-2.1-3.5-2.6-5.1-.5-1.6-.8-3-.8-4.5 0-1.3.2-2.7.6-4.1.7-2.1 1.9-4.4 3.8-6.9.8-1 1.7-2 2.7-3 1.8 1.1 3.6 2.2 5.5 3.3 40.5 23.6 89.1 37.3 141.3 37.3 54.6 0 105.3-15 146.8-40.6 1.8 1.9 3.3 3.7 4.4 5.4 1 1.6 1.7 3.1 2.1 4.5.4 1.4.6 2.7.6 4.1 0 1.2-.2 2.3-.5 3.5-.6 2.3-1.9 4.8-4 7.5-1.9 2.4-4.5 4.9-7.7 7.4-5.7 4.4-13.4 8.8-22.8 12.8-14.1 6-31.9 11-52.1 14.5-10.8 1.9-22.3 3.3-34.2 4.2-2.8-2.8-5.9-5.4-9.2-7.6zM907.4 866.9c-1.2 3.3-3.5 6.9-7.1 10.4-2.7 2.6-6.1 5.2-10.2 7.5-4.4 2.5-9.5 4.7-15.2 6.5v-30.1c0-5.9-4.8-10.7-10.7-10.7s-10.7 4.8-10.7 10.7v34.5c-4.2.5-8.6.7-13.1.7s-8.9-.3-13.1-.7v-34.5c0-5.9-4.8-10.7-10.7-10.7s-10.7 4.8-10.7 10.7v30.1c-3.9-1.3-7.6-2.7-10.9-4.3-7.6-3.7-13.6-8.2-17.3-12.7-1.9-2.3-3.2-4.5-4-6.7-.9-2.2-1.3-4.3-1.3-6.4 0-1.9.3-3.8 1-5.7 1.2-3.3 3.5-6.9 7.1-10.4 2.7-2.6 6.1-5.2 10.2-7.5 6.1-3.5 13.6-6.4 22-8.5 8.4-2 17.8-3.2 27.6-3.2 10 0 19.5 1.2 28 3.3 6.4 1.6 12.2 3.7 17.3 6.1 7.6 3.7 13.6 8.2 17.3 12.7 1.9 2.3 3.2 4.5 4 6.7.9 2.2 1.3 4.3 1.3 6.4.2 2-.1 3.9-.8 5.8zm9.6-35.3c-.6-.6-1.2-1.3-1.9-1.9-4.2-4-9-7.6-14.4-10.6-8.1-4.6-17.4-8.2-27.5-10.7-10.2-2.5-21.2-3.8-32.7-3.8-11.7 0-22.9 1.4-33.2 3.9-7.7 1.9-14.9 4.5-21.5 7.6-4.9 2.4-9.5 5.1-13.6 8.1-4.3-8.8-7.4-17.3-9.6-25.5-3.2-11.8-4.4-22.9-4.4-33.2 0-22.2 6-40.9 12-53.9 1.5-3.2 2.9-6 4.3-8.5 1.4 1.6 2.9 3.2 4.4 4.7 15.6 16.1 34.2 29.3 53.6 38.5 19.3 9.2 39.5 14.5 58.5 14.6 9.1 0 17.9-1.2 26.2-4v74.7zm150 58.7c0 .8-.2 1.5-.4 2.1-.4 1-1.1 1.8-2 2.4-.9.6-1.9.9-3.1.9H945.1c-.8 0-1.5-.2-2.1-.4-1-.4-1.8-1.1-2.4-2-.6-.9-.9-1.9-.9-3.1V744c.2-.2.5-.4.7-.6 6.7-6.2 11.9-13.4 15.2-21 3.4-7.7 5-15.9 5-24 0-7.6-1.4-15.1-4-22.4h104.9c.8 0 1.5.2 2.1.4 1 .4 1.8 1.1 2.4 2 .6.9.9 1.9.9 3.1v208.8zm156.9-23.4c-1.2 3.3-3.5 6.9-7.1 10.4-2.7 2.6-6.1 5.2-10.2 7.5-4.4 2.5-9.5 4.7-15.2 6.5v-30.1c0-5.9-4.8-10.7-10.7-10.7-5.9 0-10.7 4.8-10.7 10.7v34.5c-4.2.5-8.6.7-13.1.7s-8.9-.3-13.1-.7v-34.5c0-5.9-4.8-10.7-10.7-10.7-5.9 0-10.7 4.8-10.7 10.7v30.1c-3.9-1.3-7.6-2.7-10.9-4.3-7.6-3.7-13.6-8.2-17.3-12.7-1.9-2.3-3.2-4.5-4-6.7-.3-.7-.5-1.4-.7-2.1v-8.8c.1-.4.2-.9.4-1.3 1.2-3.3 3.5-6.9 7.1-10.4 2.7-2.6 6.1-5.2 10.2-7.5 6.1-3.5 13.6-6.4 22-8.5 8.4-2 17.8-3.2 27.6-3.2 10 0 19.5 1.2 28 3.3 6.4 1.6 12.2 3.7 17.3 6.1 7.6 3.7 13.6 8.2 17.3 12.7 1.9 2.3 3.2 4.5 4 6.7.9 2.2 1.3 4.3 1.3 6.4.2 2.1-.1 4-.8 5.9zm104-433c-1.8 1-3.6 1.9-5.5 2.7-4.7-8-25.6-37.2-66.2-17.6 0 0 30.7-3.1 42 24.3-3.5.4-7.1.7-10.8.7-19.2 0-36.4-6-49-15.5-4.7-3.6-11.4-2.6-15 2.1-3.6 4.7-2.6 11.4 2.1 15 15.6 11.7 35.9 18.9 58 19.7 1.4 5.4 2.1 11.5 2.1 18.1 0 12.1-2.4 25.9-7.1 39.5-3.5 10.2-8.3 20.3-14.1 29.7-8.8 14.1-20 26.4-32.7 35.1-6.4 4.3-13.2 7.8-20.4 10.1-7.2 2.3-14.7 3.6-22.6 3.6-12.6 0-26.3-3.2-41.3-10.9-5.2-2.7-11.7-.7-14.4 4.6-2.7 5.2-.7 11.7 4.6 14.4 15.3 7.9 30.2 12.1 44.5 13.1.4.6.8 1.1 1.3 1.6.2.2 14.5 15.2 28.5 39.4 7.1 12.2 14.1 26.7 19.3 42.9 5.2 16.2 8.6 33.9 8.6 52.6 0 20.7-4.1 42.5-14.8 65.1-2.5-1.8-5.1-3.5-7.9-5.1-8.1-4.6-17.4-8.2-27.5-10.7-10.2-2.5-21.2-3.8-32.7-3.8-11.7 0-22.9 1.4-33.2 3.9-7.7 1.9-14.9 4.5-21.5 7.6-4.6 2.2-8.8 4.7-12.7 7.5V681.4c0-3.8-.8-7.6-2.2-10.9-2.1-5.1-5.7-9.3-10.2-12.4-4.5-3-9.9-4.8-15.7-4.8H945.1c-.4 0-.8 0-1.2.1-8.9-11.3-21.2-21-36.2-28-5.8-2.7-10.3-5.6-13.7-8.5-5.2-4.4-8.2-8.7-10-13-1.8-4.3-2.5-8.5-2.5-12.6 0-5.2 1.2-10.1 2.3-13.7.6-1.8 1.2-3.2 1.6-4.1.2-.5.4-.8.5-1l.1-.2c2.8-5.2.9-11.6-4.2-14.5-5.2-2.9-11.7-1-14.5 4.2-.2.4-2 3.6-3.7 8.7-1.7 5.1-3.4 12.2-3.5 20.5 0 4.3.5 9 1.8 13.8 1.9 7.2 5.6 14.7 11.7 21.6 6.1 6.9 14.4 13 25.3 18.1 13.3 6.2 23.5 14.8 30.3 24.3 3.4 4.7 6 9.7 7.6 14.6 1.7 4.9 2.5 9.9 2.5 14.6 0 5.4-1 10.5-3.2 15.4s-5.4 9.6-10.1 13.9c-4.3 4-9.4 6.9-15.2 8.9-5.9 2-12.5 3-19.7 3-13.3 0-28.5-3.4-43.6-9.9-11.4-4.9-22.7-11.4-33.2-19.2-15.8-11.8-29.8-26.6-39.7-43.1-5-8.2-8.9-16.9-11.6-25.9-2.7-8.9-4.2-18.2-4.2-27.6 0-19.7 2.7-37.5 7.3-53.5 7-24.1 18.3-44.4 31.6-61.4 9.4-11.9 19.7-22.1 30.2-30.6.4.8.7 1.6 1.2 2.3 2.6 4.7 6 9 10.1 12.9 7.2 6.8 16.3 12.6 27.1 17.8 16.2 7.7 36.2 13.7 58.8 17.9 4.9.9 10 1.7 15.2 2.5-2.3 6.1-3.6 12.8-3.6 19.8 0 7.6 1.6 15 4.4 21.6 4.2 10 11.2 18.4 20.1 24.4 8.8 6 19.6 9.5 31 9.5 7.6 0 15-1.6 21.6-4.4 10-4.2 18.4-11.2 24.4-20.1 6-8.8 9.5-19.6 9.5-31 0-6.3-1.1-12.3-3-18 7.1-.7 14.1-1.6 20.9-2.7 15.2-2.4 29.4-5.7 42.1-9.6 9.6-3 18.4-6.4 26.2-10.1 5.9-2.8 11.3-5.9 16.2-9.2 7.3-5 13.3-10.5 17.8-16.9 2.2-3.2 4-6.7 5.3-10.3 1.3-3.7 1.9-7.5 1.9-11.5 0-3.6-.6-7.1-1.6-10.4-1.6-5-4.2-9.6-7.5-13.8-.5-.6-1-1.2-1.6-1.8 4.9-3.6 9.6-7.4 14.2-11.3 17.3-14.9 32.2-32 44-50.9 2.8-4.3 6.5-8.6 11-12.4 6.7-5.8 15-10.8 24.2-14.3 9.3-3.5 19.4-5.5 29.8-5.5 20.2 0 38.3 6.7 51 17.1 6.4 5.2 11.4 11.2 14.8 17.7 3.4 6.5 5.2 13.5 5.2 20.9 0 3.3-.4 6.5-1.1 9.6-10.4-10-29-19.7-57-6.2 0 0 34.7-3.5 43.9 29.9-4.7 4.5-10.2 8.7-16.5 12.2z"/><g style="opacity:.15"><path d="M1149.1 458.3c.7 1.1 1.2 2.2 1.6 3.2 1.1-1.7 1.8-3.4 2.2-4.9.3-1.2.5-2.4.5-3.5 0-1.3-.2-2.7-.6-4.1-.4-1.4-1.1-2.9-2.1-4.5-1.1-1.7-2.5-3.5-4.4-5.4-41.5 25.6-92.2 40.6-146.8 40.6-52.2 0-100.8-13.7-141.3-37.3-1.8-1.1-3.7-2.2-5.5-3.3-1 1-1.9 2-2.7 3-2 2.5-3.2 4.8-3.8 6.9-.4 1.4-.6 2.7-.6 4.1 0 1.5.2 3 .8 4.5.1.3.2.6.3.8.5-.8 1.1-1.7 1.8-2.5.8-1 1.7-2 2.7-3 1.8 1.1 3.6 2.2 5.5 3.3C889 475 926.6 487.6 967 491.8c1.1-.6 2.2-1.1 3.3-1.6 6.6-2.8 14-4.4 21.6-4.4 9.6 0 18.8 2.5 26.7 6.9 46.7-3.3 89.9-17.5 126.1-39.8 1.8 1.8 3.3 3.7 4.4 5.4zm-364-276c-11.6 23.7-18 49.6-18 76.9 0 27.3 6.4 53.2 18 76.9 2.2 4.6 4.7 9.1 7.3 13.5-7.2-19.2-11.1-39.6-11.1-60.8 0-27.3 6.4-53.2 18-76.9 17.4-35.6 46.7-66.1 83.9-87.7 37.1-21.6 82.1-34.4 130.5-34.4 37.7 0 73.2 7.7 104.5 21.3.2.1.4.2.7.3 22.2 9.7 42.4 22.3 59.7 37.3 16.9 14.6 31.2 31.4 42.2 49.8-2.1-5.5-4.4-10.9-6.9-16.1-11.6-23.7-28.5-45.2-49.5-63.3-17.3-15-37.5-27.6-59.7-37.3-.2-.1-.4-.2-.7-.3-31.4-13.6-66.9-21.3-104.5-21.3-48.5 0-93.4 12.7-130.5 34.4-37.2 21.6-66.5 52.1-83.9 87.7zm-14.9-17.7c2.6-4.8 5.5-9.6 8.5-14.2-2.9-11.9-5.7-25.1-7.9-38.3-2.3-13.9-3.7-27.6-3.7-39.6 0-6.3.4-12.1 1.2-17 .6-3.7 1.5-6.9 2.5-9.6.8-2 1.6-3.6 2.5-4.9 1.4-1.9 2.7-3.1 4.2-3.9.8-.4 1.6-.7 2.7-1 1-.2 2.2-.4 3.7-.4 13.4 0 27.2 3.4 40.5 8.8C841 51.2 856.6 60.9 869 70c.4-.2.8-.5 1.3-.7-3-2.6-6.5-5.5-10.5-8.6C846.5 50.4 828.1 38 808.3 30c-13.3-5.4-27.1-8.8-40.5-8.8-1.4 0-2.6.1-3.7.4-1 .2-1.9.6-2.7 1-1.5.8-2.9 2-4.2 3.9-.9 1.3-1.8 2.9-2.5 4.9-1 2.6-1.9 5.9-2.5 9.6-.8 4.9-1.2 10.7-1.2 17 0 12 1.5 25.7 3.7 39.6 2.3 13.9 5.3 27.8 8.4 40.3 2.5 10.2 5 19.3 7.1 26.7zm371.1-88.3c3.2-2.4 6.6-4.8 10.2-7.2 10.8-7.2 23.2-14.2 36.2-19.4 13-5.2 26.6-8.5 39.7-8.4 1.7 0 3.1.2 4.2.5 1 .3 1.8.7 2.6 1.1 1.3.8 2.6 2 3.8 3.7.9 1.3 1.8 3 2.6 5.1 1.2 3.1 2.1 6.9 2.7 11.4.6 4.4.9 9.5.9 14.9 0 3-.1 6.1-.3 9.4 1.4-10.3 2.2-20.3 2.2-29.3 0-5.4-.3-10.4-.9-14.9-.6-4.4-1.6-8.3-2.7-11.4-.8-2-1.7-3.7-2.6-5.1-1.2-1.8-2.4-2.9-3.8-3.7-.8-.5-1.6-.8-2.6-1.1-1.1-.3-2.5-.5-4.2-.5-13.1 0-26.7 3.3-39.7 8.4-13 5.2-25.4 12.2-36.2 19.4-10.5 7-19.4 14.1-25.9 19.6 4.5 2.3 8.9 4.7 13.3 7.2.2.1.3.2.5.3zM832.4 746.4c-19.3-9.2-37.9-22.4-53.6-38.5-1.5-1.5-2.9-3.1-4.4-4.7-1.4 2.5-2.8 5.3-4.3 8.5-6 13-12 31.6-12 53.9 0 10.3 1.3 21.4 4.4 33.2.9 3.5 2.1 7 3.3 10.6-1.5-8.2-2.2-16-2.2-23.4 0-22.2 6-40.9 12-53.9 1.5-3.2 2.9-6 4.3-8.5 1.4 1.6 2.9 3.2 4.4 4.7 15.6 16.1 34.2 29.3 53.6 38.5 19.3 9.2 39.5 14.5 58.5 14.6 7.1 0 14-.8 20.6-2.4v-22c-8.3 2.7-17.1 4-26.2 4-18.9-.1-39.1-5.4-58.4-14.6zm412.1-315.8c-.3.4-.6.9-.9 1.4 12 7.4 27.2 12 43.8 12 3.5 0 7-.2 10.4-.6-14.9-1.8-28.2-7.2-38.4-14.9-4.7-3.6-11.4-2.7-14.9 2.1z"/><path d="M1254.4 352.3c6.7-5.8 15-10.8 24.2-14.3 6.2-2.3 12.8-4 19.6-4.8-3.5-.4-7.2-.7-10.8-.7-10.4 0-20.5 2-29.8 5.5-9.2 3.5-17.6 8.5-24.2 14.3-4.4 3.9-8.2 8.1-11 12.4-11.8 18.8-26.7 35.9-44 50.9-4.6 3.9-9.3 7.7-14.2 11.3.5.6 1.1 1.2 1.6 1.8 3.3 4.2 5.9 8.8 7.5 13.8 1 3.3 1.6 6.9 1.6 10.4 0 3.9-.7 7.8-1.9 11.5-1.3 3.7-3.1 7.1-5.3 10.3-4.5 6.4-10.5 12-17.8 16.9-4.9 3.3-10.3 6.4-16.2 9.2-7.9 3.8-16.7 7.2-26.2 10.1-12.8 4-26.9 7.2-42.1 9.6-6.8 1.1-13.7 2-20.9 2.7 1.9 5.6 3 11.7 3 18 0 11.5-3.5 22.2-9.5 31-6 8.9-14.4 15.9-24.4 20.1-3.5 1.5-7.2 2.6-11 3.3 3.4.6 6.9 1 10.4 1 7.6 0 15-1.6 21.6-4.4 10-4.2 18.4-11.2 24.4-20.1 6-8.8 9.5-19.6 9.5-31 0-6.3-1.1-12.3-3-18 7.1-.7 14.1-1.6 20.9-2.7 15.2-2.4 29.4-5.7 42.1-9.6 9.6-3 18.4-6.4 26.2-10.1 5.9-2.8 11.3-5.9 16.2-9.2 7.3-5 13.3-10.5 17.8-16.9 2.2-3.2 4-6.7 5.3-10.3 1.3-3.7 1.9-7.5 1.9-11.5 0-3.6-.6-7.1-1.6-10.4-1.6-5-4.2-9.6-7.5-13.8-.5-.6-1-1.2-1.6-1.8 4.9-3.6 9.6-7.4 14.2-11.3 17.3-14.9 32.2-32 44-50.9 2.8-4.2 6.6-8.4 11-12.3zm-164.8 471.3c3.9-2.8 8.1-5.3 12.7-7.5 2.7-1.3 5.5-2.4 8.3-3.5V681.4c0-3.8-.8-7.6-2.2-10.9-2.1-5.1-5.7-9.3-10.2-12.4-4.5-3-9.9-4.8-15.7-4.8h-21c5.8 0 11.2 1.8 15.7 4.8s8 7.3 10.2 12.4c1.4 3.4 2.2 7.1 2.2 10.9v142.2zm88.4-19c-3.6 0-7.1.1-10.5.4 7.7.6 15.2 1.7 22.2 3.4 10.2 2.5 19.5 6.1 27.5 10.7 2.8 1.6 5.4 3.3 7.9 5.1 1.5-3.2 2.9-6.4 4.1-9.6-5.8-2.5-12-4.6-18.5-6.2-10.2-2.5-21.2-3.8-32.7-3.8zM818.5 498.9c5.4-6.9 11.2-13.2 17.1-18.9-2.6-2.9-4.9-6-6.7-9.4-.4-.8-.8-1.5-1.2-2.3-10.5 8.5-20.9 18.7-30.2 30.6-13.3 16.9-24.6 37.2-31.6 61.4-4.6 16.1-7.3 33.9-7.3 53.5 0 9.4 1.5 18.6 4.2 27.6 2.7 8.9 6.6 17.6 11.6 25.9 9.9 16.5 23.9 31.3 39.7 43.1 10.5 7.9 21.9 14.4 33.2 19.2 15.1 6.5 30.3 9.9 43.6 9.9 3.5 0 6.9-.2 10.1-.7-10.4-1.3-21.6-4.4-32.7-9.2-11.4-4.9-22.7-11.4-33.2-19.2-15.8-11.8-29.8-26.6-39.7-43.1-5-8.2-8.9-16.9-11.6-25.9-2.7-8.9-4.2-18.2-4.2-27.6 0-19.7 2.7-37.5 7.3-53.5 6.9-24.1 18.3-44.5 31.6-61.4zm110.2 126.5c-5.8-2.7-10.3-5.6-13.7-8.5-5.2-4.4-8.2-8.7-10-13-1.8-4.3-2.5-8.5-2.5-12.6 0-5.2 1.2-10.1 2.3-13.7.6-1.8 1.2-3.2 1.6-4.1.2-.5.4-.8.5-1l.1-.2c2.8-5.2.9-11.6-4.2-14.5-5.2-2.9-11.7-1-14.5 4.2-.1.2-.6 1.1-1.3 2.6.6 2.5.4 5.2-1 7.7l-.1.2c-.1.2-.3.5-.5 1-.4.9-1 2.3-1.6 4.1-1.2 3.5-2.3 8.4-2.3 13.7 0 4.1.7 8.4 2.5 12.6 1.8 4.3 4.8 8.6 10 13 3.5 2.9 7.9 5.8 13.7 8.5 15 7 27.2 16.7 36.2 28 .4 0 .8-.1 1.2-.1h19.7c-8.9-11.2-21.1-20.9-36.1-27.9z"/><path d="M1063.6 676.3c-.7-.3-1.3-.4-2.1-.4H956.6c1.9 5.5 3.2 11.1 3.7 16.7h84.8c.8 0 1.5.2 2.1.4 1 .4 1.8 1.1 2.4 2 .6.9.9 1.9.9 3.1v197.7h10.9c1.2 0 2.2-.3 3.1-.9.9-.6 1.6-1.5 2-2.4.3-.7.4-1.3.4-2.1v-209c0-1.2-.3-2.2-.9-3.1-.5-.8-1.4-1.5-2.4-2zM903.1 848.1c-3.7-4.5-9.6-9-17.3-12.7-5.1-2.5-10.9-4.5-17.3-6.1-8.5-2.1-18-3.3-28-3.3-9.9 0-19.2 1.2-27.6 3.2-8.4 2-15.9 5-22 8.5-4.1 2.3-7.5 4.9-10.2 7.5-3.6 3.5-5.9 7-7.1 10.4-.7 1.9-1 3.8-1 5.7 0 2.2.4 4.3 1.3 6.4.9 2.2 2.2 4.4 4 6.7 1 1.3 2.3 2.5 3.7 3.8-.2-1.1-.4-2.2-.4-3.4 0-1.9.3-3.8 1-5.7 1.2-3.3 3.5-6.9 7.1-10.4 2.7-2.6 6.1-5.2 10.2-7.5 6.1-3.5 13.6-6.4 22-8.5 8.4-2 17.8-3.2 27.6-3.2 10 0 19.5 1.2 28 3.3 6.4 1.6 12.2 3.7 17.3 6.1 5.5 2.6 10.1 5.7 13.6 8.9-.2-1-.5-2-.9-3.1-.8-2.1-2.1-4.3-4-6.6zm317 0c-3.7-4.5-9.6-9-17.3-12.7-5.1-2.5-10.9-4.5-17.3-6.1-8.5-2.1-18-3.3-28-3.3-9.9 0-19.2 1.2-27.6 3.2-8.4 2-15.9 5-22 8.5-4.1 2.3-7.5 4.9-10.2 7.5-3.6 3.5-5.9 7-7.1 10.4-.7 1.9-1 3.8-1 5.7 0 2.2.4 4.3 1.3 6.4.9 2.2 2.2 4.4 4 6.7 1 1.3 2.3 2.5 3.7 3.8-.2-1.1-.4-2.2-.4-3.4 0-1.9.3-3.8 1-5.7 1.2-3.3 3.5-6.9 7.1-10.4 2.7-2.6 6.1-5.2 10.2-7.5 6.1-3.5 13.6-6.4 22-8.5 8.4-2 17.8-3.2 27.6-3.2 10 0 19.5 1.2 28 3.3 6.4 1.6 12.2 3.7 17.3 6.1 5.5 2.6 10.1 5.7 13.6 8.9-.2-1-.5-2-.9-3.1-.8-2.1-2.2-4.3-4-6.6zm-241-326.2c5.5-3.7 12-5.8 19.1-5.8 4.7 0 9.2 1 13.3 2.7 4.2 1.8 7.9 4.4 11.1 7.6-.7-1.4-1.5-2.8-2.4-4.1-3.7-5.4-8.9-9.8-15-12.4-4.1-1.7-8.5-2.7-13.3-2.7-7.1 0-13.6 2.1-19.1 5.8-5.4 3.7-9.8 8.9-12.4 15-1.7 4.1-2.7 8.5-2.7 13.3 0 7.1 2.1 13.6 5.8 19.1 1.2 1.7 2.5 3.3 3.9 4.8-2.2-4.5-3.5-9.6-3.5-15 0-4.7 1-9.2 2.7-13.3 2.7-6.1 7-11.3 12.5-15z"/></g><path d="m1112 339.9-.4-3.1.4 3.1-.4-3.1.4 3.1s1.9-.2 5-.2c4.5 0 11.5.5 18.7 2.7 3.6 1.1 7.3 2.7 10.8 4.8 3.5 2.1 6.8 4.8 9.8 8.1 2.6 3 7.2 3.3 10.2.7 3-2.6 3.3-7.2.7-10.2-4-4.6-8.6-8.2-13.2-11-7-4.2-14.2-6.6-20.6-7.9-6.5-1.3-12.2-1.7-16.3-1.7-4 0-6.6.3-6.8.3-4 .5-6.8 4.1-6.3 8.1s4.1 6.8 8 6.3zm-8.2 21.6c.5 0 7.8 1 16.2 4.8 4.2 1.9 8.7 4.4 12.7 7.8 4.1 3.4 7.7 7.5 10.5 12.8 1.9 3.5 6.2 4.9 9.8 3 3.5-1.9 4.9-6.2 3-9.8-3.9-7.4-9.1-13.2-14.6-17.6-8.3-6.7-17.1-10.4-24-12.6-6.9-2.2-11.7-2.7-12.1-2.7-4-.4-7.5 2.4-8 6.4-.3 3.9 2.6 7.4 6.5 7.9zm-212.4-21.6.4-3.1-.4 3.1.4-3.1-.4 3.1s-1.9-.2-5-.2c-4.5 0-11.5.5-18.7 2.7-3.6 1.1-7.3 2.7-10.8 4.8-3.5 2.1-6.8 4.8-9.8 8.1-2.6 3-7.2 3.3-10.2.7-3-2.6-3.3-7.2-.7-10.2 4-4.6 8.6-8.2 13.2-11 7-4.2 14.2-6.6 20.6-7.9 6.5-1.3 12.2-1.7 16.3-1.7 4 0 6.6.3 6.8.3 4 .5 6.8 4.1 6.3 8.1-.4 4-4 6.8-8 6.3zm8.3 21.6c-.5 0-7.8 1-16.2 4.8-4.2 1.9-8.7 4.4-12.7 7.8-4.1 3.4-7.7 7.5-10.5 12.8-1.9 3.5-6.2 4.9-9.8 3-3.5-1.9-4.9-6.2-3-9.8 3.9-7.4 9.1-13.2 14.6-17.6 8.3-6.7 17.1-10.4 24-12.6 6.9-2.2 11.7-2.7 12.1-2.7 4-.4 7.5 2.4 8 6.4.3 3.9-2.6 7.4-6.5 7.9z"/><path class="st1" d="M318.9 722.2c.1 0 .1-.1 0 0zm836.7 74.5zm173.3 327.6c-.1 0-.1 0 0 0h-.2.2zm283 5.5h-.1.1zm-38.5-362.7z"/><path class="st1" d="M1869.5 798.5c5-12.6 7.5-25.8 7.5-39.1 0-11.2-1.8-22.4-5.6-33.3-2.8-8.2-6.9-16.1-12.2-23.5-4-5.5-8.7-10.7-14.1-15.4-8.1-7-17.7-12.6-28.3-16.3-10.6-3.7-22.1-5.6-34-5.6-2.6 0-5.3.1-7.9.3-13.8.8-27 4.3-38.6 10.1-8.7 4.3-16.5 10-23.1 16.5-9.9 9.7-17.1 21.3-21.7 33.3-4.2 11-6.4 22.3-6.8 33.7-2-1.7-4-3.4-6.1-4.9-6.2-4.4-13-7.8-20.4-10.2-7.3-2.3-15.1-3.6-23-3.6-11.1 0-22.3 2.4-32.8 7-10.5 4.6-20.3 11.3-29.1 19.6-6.2 5.9-11.6 12.1-16.8 18.6-2.6-21.9-6.4-44-13-64.9-3.5-11-7.7-21.7-13.1-32-5.3-10-11.8-19.6-20.2-28.1l-.3-.3-.3-.3c-7.2-7.4-15.8-13.6-25.4-17.9-9.9-4.4-20.7-6.6-31.2-6.6-9.5 0-18.7 1.7-27.3 4.6l-.2.1-.2.1c-4.9 1.7-9.7 3.9-14.1 6.7-7.8 4.8-14.3 11.1-19.1 17.9-3.7 5.1-6.4 10.3-8.6 15.5-3.2 7.8-4.9 15.4-6 22.6-1.1 7.3-1.4 14.2-1.4 20.9 0 8.6.6 16.8 1.3 24.4-1-.8-2-1.6-3-2.3h-.1l-.1-.1c-25.8-18.9-56.5-28.9-87.5-28.9-25.3 0-50.8 6.7-73.7 20.1-22.9 13.4-43 33.6-57.7 59.5 0 0 0 .1-.1.1-2.5 4.4-8.7 4.4-11.2 0l-.3-.6-.1-.2-.1-.1c-7.1-12.1-15-23.1-23.9-33-13.3-14.7-28.7-26.7-45.8-35.1-17.1-8.4-36-13-55.2-12.9-10.2 0-20.4 1.3-30.5 3.8-13.6 3.4-26.8 9-39.3 16.5-.3-.3-.5-.7-.8-1.1-8-10-18.1-18-29.3-23.2-11.1-5.3-23.1-7.8-34.7-7.8-12.7 0-25 2.9-36.2 8-16.8 7.7-31.4 20.6-41.7 37.3-3.6 5.8-6.6 12.1-9.1 18.8-7.5-10.2-16.2-19.2-25.7-26.9-15.9-13-34.1-22.3-53-28.5-19-6.2-38.9-9.1-58.8-9.1-24.9 0-49.9 4.6-73.3 14.2-11.7 4.8-23 10.8-33.7 18.2-7.9 5.5-15.5 11.7-22.5 18.7-1.8-8.9-3.9-17.6-6.3-26-4.7-16.3-10.6-31.6-18.7-45.6-4.1-7-8.7-13.7-14.2-19.9-5.5-6.2-11.8-11.9-19.2-16.7l-.4-.2-.4-.2c-5.8-3.6-12.1-6.4-18.6-8.2-6.5-1.9-13.3-2.7-19.9-2.7-6.4 0-12.6.8-18.6 2.2-10.4 2.5-19.9 6.8-28.7 12.2-13.2 8.1-24.9 18.6-35.9 30.9-11 12.4-21.1 26.7-30.5 42.7-7 12-14.1 24.5-21 36.8-6.7 12-13.3 23.8-19.5 34.6-6.5-18.1-13.2-36.9-19.2-53.8-3.6-10-7-19.4-10-27.6-3-8.2-5.6-15.2-7.9-20.8-3.9-9.9-8.6-19-14.3-27.2-4.3-6.2-9.2-11.9-14.6-16.9-8.1-7.5-17.6-13.5-27.6-17.4-10.1-3.9-20.7-5.8-30.9-5.8-13.2 0-25.9 3-37.5 7.8-11.6 4.9-22.2 11.7-31.9 19.8l-.2.2-.2.2c-17.1 15-30.2 33.5-40.9 54-8 15.4-14.5 31.9-20 49.2-8.2 26-13.9 53.9-17.7 82.5C1.8 866.4 0 895.7 0 924.4c0 31.1 2.1 61.6 6 89.7 2 14.1 4.5 27.6 7.5 40.5 3 12.8 6.5 24.9 10.6 36.3v.1l.1.1c4 11 9.8 21 16.9 29.5 5.3 6.4 11.4 11.9 17.8 16.4 9.7 6.8 20.2 11.3 30.6 14.1 10.4 2.8 20.7 3.9 30.6 3.9 1.9 0 3.8 0 5.7-.1 12.9-.6 25.5-3.2 37.2-8 8.8-3.6 17.1-8.3 24.6-14.2 11.3-8.8 20.7-20.2 27.2-33.5s10-28.4 10-44c0-6.3-.6-12.7-1.7-19.2v-.2c-1-5.4-2.3-10.6-3.7-15.6-2.6-8.8-5.7-17.2-9-25.7-4.9-12.8-10.1-25.8-14.6-39.2-3.7-11-6.9-22.4-9.1-33.9 3.6 7.8 7.4 15.7 11.6 23.4l.1.2v-.1c3.8 6.9 7.7 13.3 12 19.2 3.2 4.4 6.6 8.6 10.3 12.6 5.6 5.9 12.1 11.4 20.1 15.7 4 2.2 8.5 4 13.2 5.3 4.8 1.3 9.9 2 15 2 4.5 0 8.9-.5 13.1-1.5 7.4-1.7 14-4.8 19.7-8.4 8.5-5.5 15.2-12.1 21.1-19.3 1.8-2.2 3.6-4.5 5.3-6.9-2 5.5-4.1 10.8-6.1 16-3.9 10-7.5 19.3-10.6 28.3-1.6 4.5-3 9-4.2 13.6-1.2 4.6-2.2 9.3-2.8 14.7v.3c-.4 4.5-.7 9-.6 13.3 0 15.7 2.8 30.6 8.3 44 4.1 10.1 9.7 19.2 16.5 27.1 10.1 11.9 22.7 20.9 36.2 26.7 13.5 5.9 28.1 8.8 42.6 8.8 11.8 0 23.7-1.9 35.1-5.7 17.2-5.7 33.6-15.7 47.2-29.8 11.2-11.7 20.4-26.1 26.9-42.7 1.3 2.1 2.6 4.2 4.1 6.3 9 12.9 21.1 24.2 35.6 32.9 14.5 8.6 31.3 14.6 49.7 17.7l1.8.3 1.8.1c4.3.3 8.7.5 13 .5 17 0 33.6-2.6 49.3-7.5 12.4-3.9 24.2-9.3 35.3-15.8 1.7 1.8 3.5 3.5 5.5 5.1 6.1 5.2 13.3 9.2 20.6 11.9 7.3 2.7 14.7 4.1 21.9 4.7h1c1.8.1 3.6.2 5.4.2 5.9 0 11.7-.5 17.5-1.8 10.1-2.1 19.9-6.3 28-12.4 3.8-2.8 7.3-6 10.3-9.4.5.5 1 1.1 1.6 1.6 9.3 8.8 20 14.9 31 18.8 11.1 3.9 22.5 5.8 34 5.8 8.1 0 16.2-.9 24.2-2.8 12-2.9 23.8-8 34.6-15.9 5.4-4 10.4-8.7 14.9-14 4.4-5.3 8.3-11.2 11.4-17.7 0-.1.1-.2.1-.2 0-.1.1-.1.1-.2 1-2.1 2-4.3 2.9-6.4 4.1 9 9.6 17.1 16 24 9.8 10.6 21.6 18.3 34.1 23.4 12.5 5.1 25.8 7.6 39.2 7.6 11.4 0 22.8-1.8 33.9-5.6 10.8-3.7 21.3-9.3 30.8-16.9l.2-.2c.2-.1.3-.3.5-.4 6.8-5.4 12.3-11.5 16.9-17.9 4.1-5.8 7.6-11.8 10.5-18 2.6-5.4 4.8-10.9 6.7-16.5 5.7 8.7 12.2 17.1 19.4 24.8 12.8 13.6 28.1 25.3 45.8 33.7 17.7 8.4 37.7 13.2 58.9 13.2 14.4 0 29.2-2.2 44-6.6 13.1-3.8 25.9-9.3 38-16.7 5.6-3.4 11.1-7.3 16.3-11.6.8 2.3 1.8 4.6 2.9 6.8 3.2 6.6 7.3 12.7 12.2 18 7.3 8 16.3 14.1 26 18.2s20.2 6.1 30.7 6.1c7.4 0 14.8-1 22.1-2.9l1.7-.4 1.6-.6c7-2.6 13.5-5.9 19.4-9.7 10.4-6.7 18.8-14.9 25.7-23.5 6.7-8.3 11.9-17 16.3-25.7 1.3 1.1 2.6 2.2 3.9 3.4 9.8 8.5 19.8 17 30.4 24.8 5.3 3.9 10.7 7.5 16.6 10.9 5.9 3.3 12.1 6.3 19.4 8.6 7.1 2.3 14.5 3.3 21.6 3.3 9.5 0 18.6-1.9 27-5.2 12.5-5 23.5-13.2 31.8-24.2.6-.8 1.1-1.6 1.7-2.4 3.8 5.3 8.1 10.3 12.9 15l.3.3.3.3c7.2 6.7 15.4 11.3 23.6 14.2 8.2 2.9 16.4 4.1 24.5 4.1 7.5 0 14.9-1.1 22.2-3.2 5.4-1.6 10.8-3.9 15.9-6.9 3.9-2.3 7.6-5 11.2-8.2 5.3-4.8 10.2-10.9 13.8-18.2 3.5-7.1 5.7-15.2 6.1-23.5.6-10 1.2-21.4 2-33.7 1.3-18.5 3.2-38.9 6.5-58.8 3.2-19.9 7.9-39.2 13.9-54.7l.5-1.3.4-1.4c3.1-10.2 4.7-20.4 4.7-30.5 0-12.6-2.6-24.9-7.7-35.8-2.8-6-6.3-11.5-10.3-16.4 4.1-2.8 7.9-6 11.4-9.3 10.1-10.8 17.7-22.8 22.8-35.3zm-94.7-132.9h.3-.3z"/><path d="M306.2 927.7c-26.1 45.9-49.3 45.4-74.8-1.1-17.6-32.3-31.8-74.8-38-87.3-34.6-66.9-65.2-53.3-45.4 79.9 7.9 52.2 32.9 94.1 38 123 7.4 43.1-22.7 73.1-61.8 74.8-26.6 1.1-53.3-8.5-64.6-39.1-36.9-101.5-31.2-327.1 49.3-397.4 33.4-28.3 77.1-27.8 97.5 24.9 7.9 19.8 24.9 68.6 40.3 111.1 29.5 79.4 23.8 66.3 64.1-3.4 13-22.7 27.2-48.8 40.8-72 31.7-54.4 71.4-81.6 99.8-64.1 73.1 47.6 53.3 313.5 32.9 379.3-27.8 91.8-151.4 78.2-142.3-16.4 2.3-21.5 25.5-64.1 39.1-119.1 14.2-59 28.9-206.9-44.2-48.2l-30.7 55.1zm289.7-36.3c-5.7 5.1-13 8.5-20.4 10.2-26.6 6.2-49.3-11.9-51-40.3-2.3-28.9 7.9-53.9 27.2-75.4 55.6-62.9 171.2-60.7 217.1 6.2 44.8 65.8 35.7 171.8 32.3 257.4-1.1 27.2-12.5 48.8-43.1 47.1-21-1.7-31.2-13.6-36.3-38.6-8.5 5.7-17.6 11.9-26.6 17.6-24.9 16.4-52.2 24.4-82.8 22.1-112.8-19.3-89-161.6 14.7-184.8 26.6-6.2 53.9-7.9 79.4-7.4 8.5-89.5-68-52.1-110.5-14.1zm28.3 116.8c-9.6 34 78.8 14.2 92.4-5.7-.6-7.4-2.3-26.1-2.8-32.9-26.7-6.2-81.1 4.6-89.6 38.6zm487-193.3c18.1 31.7 24.4 66.9 26.6 102.6 2.3 41.4.6 137.2-35.2 165-40.3 32.9-112.8 8.5-100.3-58.4 5.7-31.2 19.8-79.9 21-111.7 3.4-107.2-33.4-104.9-60.1-58.4-32.3 57.8 1.1 155.9-28.3 216-21.5 45.4-104.3 36.9-102.6-16.4 1.1-30 4.5-154.2-4-237.6-7.4-82.2 94.1-108.9 105.5-19.3 61.2-68 135.5-53.8 177.4 18.2zM1334 970.8c25.5-22.1 60.7-16.4 60.7 19.3.6 53.3-35.7 86.2-76.5 98.1-72.6 21.5-125.3-28.9-145.1-89.6-19.3-58.4-15.3-129.8 15.3-183.1 38-66.3 112.8-76.5 163.8-39.1 28.3 21 44.8 51 44.8 82.8-.6 29.5-13 57.8-31.7 70.9-40.3 27.8-89.6 14.7-116.2-11.9-5.2 67.3 36.1 95.1 84.9 52.6zm265.3-176.3c44.8-42.5 96.9 5.7 63.5 58.4-21 31.7-50.5 55.6-75.4 83.3-7.4 7.9-13 16.4-5.7 22.1 31.7 24.9 89.6 58.4 87.3 103.8-1.1 22.7-24.4 38.6-45.9 31.7-27.2-8.5-64.1-50.5-98.6-73.7-9.1 32.3-23.2 73.1-57.3 85.6-25.5 6.8-49.3-7.9-51-34-1.1-17 2.3-34 3.4-51 6.2-82.8 4.5-165.5-1.1-246.6-2.8-30-15.3-86.2 19.3-98.1 17-5.7 32.9-2.3 45.4 10.8 38.6 38.6 40.3 141.2 40.8 198.4 29.4-26.1 53.8-70.3 75.3-90.7zm187.7 278.4c-1.1 23.8-36.9 32.3-53.9 16.4-44.8-43.7-42.5-158.2-16.4-211.5 25.5-51.6 116.2-32.9 95.2 36.3-19.8 51-22.7 119.6-24.9 158.8zm-9.7-369.7c83.9-5.7 80.5 116.8 2.3 118.5-74.3 0-77.7-114-2.3-118.5z"/><path class="st2" d="M1262.5 877c-2.9-4.9-4.7-10.3-5.2-15.7-.9-8.2.9-16.6 4.9-24.2 4-7.6 10.2-14.4 18.3-19.3 2.7-1.6 5.5-3 8.4-4 2.8-1.1 5.7-1.8 8.6-2.4 8.7-1.5 17.4-.6 25.1 2.5 3.8 1.6 7.4 3.7 10.5 6.3 3.2 2.6 5.9 5.8 8.1 9.5 2.9 4.9 4.7 10.3 5.2 15.7.8 8.2-.9 16.6-4.9 24.2-2.6 4.9-6 9.4-10.4 13.3-1.4 1.3-3.3 1.9-5.1 1.8-1.8-.2-3.4-1.1-4.3-2.6l-9.2-15.3c-1.1-1.8-1-4.1.3-6 1.1-1.7 1.8-3.6 1.8-5.6.1-1.9-.3-3.8-1.4-5.6-1.5-2.5-4-4.1-6.8-4.6s-5.9-.1-8.7 1.6c-2.8 1.7-4.7 4.2-5.5 6.9-.8 2.8-.6 5.7.9 8.2 1 1.7 2.5 3 4.3 3.8 1.7.8 3.8 1.2 5.8 1 2.2-.2 4.3.8 5.4 2.6l9.2 15.3c.9 1.5 1 3.3.3 5-.7 1.7-2.2 3-4 3.7-2.6.9-5.3 1.7-8 2.2-8.7 1.5-17.4.6-25.1-2.5-7.4-3.1-14-8.4-18.5-15.8z"/></svg>
