<svg xmlns="http://www.w3.org/2000/svg" xmlns:xlink="http://www.w3.org/1999/xlink" preserveAspectRatio="none" width="1080" height="300" viewBox="0 0 1080 1080"><defs><path fill="#FFF" d="M307.75 541.15Q296 548 284.6 543.55q-19.25 6.35-25.7-6.1 5.75 26 1.85 51.05-5.45 32.1-30.55 51.55-5.55 4.3-9.95 6-5.35 7.8 3.55 21.2 24.55-5.7 48.45-21.05 23.85-15.25 40.3-63.9 9.7-28.6 11.95-51.45-2.4 11.75-16.75 10.3m-4.95-28.1q8.7 12.1 4.95 28.1 14.35 1.45 16.75-10.3.6-2.8.55-6.3.3-16.9-16.3-17.35-22.55-.65-37.3 4.6-14.75 5.25-14.45 16.9.05.45.1 1l.05.65q.4 4.1 1.75 7.1 6.45 12.45 25.7 6.1-9.05-10-3.9-27.55-5.15 17.55 3.9 27.55 11.4 4.45 23.15-2.4 3.75-16-4.95-28.1Z" id="f"/><path fill="#E45F2C" d="M273.95 564.95q.1 3.9 3.45 4.55 10.15.75 21.05-1.9 4.8-1.15 7.1-4.3 3.35-4.65 4.45-10.4 1.1-5.8-10.95-4.1-12.1 1.6-17.65 2.9-5.6 1.25-6.75 4.65-.75 4.65-.7 8.6Z" id="h"/><path fill="#FFF" d="M184.65 461.55q-9.45 9.45-21.7 5.65-9.75-3.05-21.75-3.55l-3.2-.1q-14 .15-25.05 3.65-12.3 3.8-21.7-5.65Q68.75 439 55.8 436.8q-13-2.3-20 10.95-7 13.2-2.9 41.6 1.15 11.05-2.95 18.75Q5.65 556.45 14.3 598q8.6 41.55 42.35 55.4 40.35 9.15 75.95 9.85.95 0 1.85.05h6.8q4.55-.1 9.15-.25 32.3-1.2 66-8.65 38.25-20.4 46-59.2 7.85-38.75-16.4-87.1-4.15-7.7-3.8-19.15 4.9-28.1-2.1-41.25-7-13.2-20-10.9-13 2.2-35.45 24.75Z" id="j"/><path fill="#E45F2C" d="M83.25 475.15q6.85-3.4 2.15-8.45-10.65-11.35-24.8-17.35-10.55-4.5-13.9 4.9-4.3 12.1.8 25.2 1.8 4.75 13.35 2.95 11.55-1.85 22.4-7.25m107.55-7.95q-4.7 5.05 2.15 8.45 10.8 5.4 22.4 7.25 11.55 1.85 13.35-2.9 5.1-13.15.8-25.25-3.35-9.4-13.9-4.9-14.15 6.05-24.8 17.35Z" id="l"/><path fill="#E80412" d="M137.8 660.3h-2.9q-44.4.1-84.2-8.85-1.65.7-1.85 2.7-.75 5.5 1.4 10.65.75 1.9 4 2.75 30.5 7.65 80.65 8.55h1.4q53.75-.6 85.75-8.6 3.25-.85 4.05-2.75 2.1-5.15 1.35-10.65-.2-2-1.85-2.7-39.8 8.95-84.2 8.9h-3.6Z" id="n"/><path fill="#E9B332" d="M130.5 678.15q-1.5.05-2.6-.15.95 3.35 3.75 6 3.65 3.5 8.7 3.95-2.3-3.2-1.05-5.9 1.75-1.5 4.45-.1.55 3.4-1.65 6.05 6.2-.6 9.75-4 2.9-2.7 3.8-6.15-1.3.45-3.2.35l-21.95-.05m-.05-7.75q-1.35-.15-2.4 0-3.3.4-3.15 3.65.1 3.2 3 3.95 1.1.2 2.6.15l21.95.05q1.9.1 3.2-.35 2.25-.95 2.4-3.75.1-2.75-2.55-3.5-1.4-.4-3.6-.2h-21.45m21.4-5.45q-4.2-3.95-10.1-3.95-5.9 0-10.1 3.95-2.55 2.4-3.6 5.45 1.05-.15 2.4 0h21.45q2.2-.2 3.6.2-1.05-3.15-3.65-5.65Z" id="p"/><path fill="#E10311" d="M38.2 590.95q-3.65.3-8.15 2.5-12.1 5.9-16.6 14.2-4.5 8.25-2.2 9.85 3.35 1.9 7.45-6.2 3.55-7 12.95-12.3 4.2-2.2 9.7-3.05 3.45-.55 2.95-2.4-.85-3-6.1-2.6m1.05-13.7q-3.45-1.05-8.45-.6-13.45 1.15-20.9 7.25-7.45 6.1-6.05 8.4 2.3 3 9.3-3.1 6.1-5.25 16.85-6.8 4.7-.55 10.1.65 3.4.75 3.65-1.2.45-3.1-4.5-4.6Z" id="r"/><path fill="#E10311" d="M253.1 593.75q-4.5-2.2-8.15-2.5-5.25-.4-6.1 2.6-.5 1.85 2.95 2.4 5.5.85 9.7 3.05 9.4 5.3 12.95 12.3 4.1 8.1 7.45 6.2 2.3-1.6-2.2-9.85-4.5-8.3-16.6-14.2m-.75-16.8q-5-.45-8.45.6-4.95 1.5-4.5 4.6.25 1.95 3.65 1.2 5.4-1.2 10.1-.65 10.75 1.55 16.85 6.8 7 6.1 9.3 3.1 1.4-2.3-6.05-8.4-7.45-6.1-20.9-7.25Z" id="t"/><path fill="#E10311" d="M69.5 542q-1.1 3.25 6.2 2.1 15.95-2.4 28.9 9.05 2.55 2.25 4.5.6 2.5-4.15-6.25-10.45-8.75-6.35-20.45-5.5-11.75.9-12.9 4.2m139.05 2.2q7.3 1.15 6.2-2.15-1.1-3.25-12.85-4.15-11.7-.85-20.45 5.5t-6.3 10.45q2 1.65 4.5-.6 12.95-11.45 28.9-9.05Z" id="v"/><path fill="#E10311" d="M184.35 587.95q3-1.85 2.4-2.95-.9-.5-3.45.95-12.65 5.5-20.65 5.05-9.3-.65-15.4-5.4-4.4-3.35-2.85-4.5 7.85-3.05 4.45-8.2-.9-1.4-3.1-1.5l-6.95-.1q-2.2.1-3.1 1.5-3.4 5.15 4.45 8.2 1.5 1.15-2.85 4.55-6.1 4.7-15.4 5.4-8 .4-20.65-5.1-2.55-1.45-3.45-.95-.6 1.1 2.4 3 3.25 1.95 7.3 3.5 14.15 4.45 21.85 1.15 7.7-3.35 9-5.15 1.25-1.85 3.7-1.95 2.45-.05 3.25 1.65.8 1.65 9.15 5.35 8.35 3.65 22.55-1 4.1-1.5 7.35-3.5Z" id="x"/><path id="b" stroke="#000" stroke-width="3" stroke-linejoin="round" stroke-linecap="round" fill="none" d="M1052.75 521.7q1.35 15.45-12.3 21.65-28 5.15-41.55-17.05-5-14.05 7.15-24-1.25-6.95 2.5-10.3 6.6-5.95 12.25.95 11.7-10.15 16.35.8 10.9-4.15 11.9 11.05 8.95-.9 9.35 7.9.2 5-5.65 9Zm-16.35-19.5q-1.45 2.05-1.95 4.5-.35 2.45 1.15 3.55 1.45 1.15 3.75.75 2.25-.45 4.3-2.4 2.15-2 2-4.95-.2-3-2.2-4.1-2-1.15-3.8-.25-1.8.9-3.25 2.9Zm-3.15-1.2q-.6 2.4-2.3 4.35-1.65 1.9-3.45 1.5-1.85-.4-3-2.25-1.2-2-1.05-4.75.15-2.9 2.6-4.7 2.4-1.85 4.6-1.1 2.25.7 2.7 2.65.45 1.9-.1 4.3Zm9.75 13.55q-1.25 2.7-.15 4.45 1.15 1.7 3.45 1.8 2.2.05 3.9-1.2 1.75-1.2 3-3.6 1.2-2.4 0-4.3t-3.35-2.05q-2.15-.25-3.85.95-1.7 1.25-3 3.95Zm-22.95-11.15q.05 3-1.65 4.1-1.8 1.15-3.9.3-2.1-.8-3.15-2.6-1-1.8-1.15-4.5-.1-2.7 1.8-3.9 1.8-1.25 4-.6 2.05.65 3.1 2.4.95 1.85.95 4.8Zm-3.8 16.2q.8-1.2 1.6-2.2-3.45-6.2-9.55-4.7-6.9 3.5-2 11.7 4.75 8.05 13.25 10.65 17.85 5.75 24.35-3.9 2.75-4.85-1.6-6.8-3.45-1.8-7.65-.55-.1 1.55-.75 3.05m-16.05-9.45q3.8-4.3 8.3-3.75 5.35.65 7.4 5.1 1.2 2.65 1.1 5.05m2.2 2.95q-14.25 3.75-23.95-9.1"/><path id="c" stroke="#000" stroke-width="5" stroke-linejoin="round" stroke-linecap="round" fill="none" d="M815.5 519.85q21.8-11.3 43.25 2.9 28.85 19.3 14.3 47.45-10.6 18.4-33.5 15.3Q828 583.8 820.9 574q-3.9 20.4 8.35 28.6 11.65 6.55 26.45-6.25 13.05-10.2 19.8.95 6.75 11.15-2.85 22.55-29.05 34.6-65.45 11.15-26.1-19.2-18.8-67.35 4.8-32.2 27.1-43.8Zm83.25-35.8q-10.4.25-12.6 14.1v134.6q-1.4 14.65 13.7 15.7 19.35 1.4 26.9-37 13.6 8.55 28.05 24.3 9.85 10.45 19.7 5.5 14.05-7.35 6.7-20.65-12.25-18-31.35-29.45-5.2-3.1 1.8-10.2l24.15-27.9q12.6-14.85 5.05-23.85-11.75-12.55-28.15 5.75l-24.65 27.25q.45-25.9-5.4-48.85-7.55-30.15-23.9-29.3Zm-239.55 45.9q5-21.3 22-19.05 16.5 2.1 16.75 21.45 14.3-19.15 32.95-19.5 31.65-.5 42.6 42.55 7.1 25.9 3.4 54.8-3.75 29.1-30.7 32.05-28.1-.9-17.55-32.05 7.6-22.1 3.9-54.35-1.9-15.45-11.8-15.25-11.85.2-16.3 22-5.45 25.9-1 58.05.65 24.15-24.4 23.65-20.1-.8-19.85-13.35v-101Zm345.6 27.1q16.35-15.25 30.75-.15 10.95 11.45-4.45 40.6-7 13.25-4.5 31.1t-11.2 14.7q-13.7-3.15-17.65-21.7-10.5-44.15 7.05-64.55ZM545.3 534.5q14.7-24.5 44.15-25.05 30.3-.55 46.9 25 16.15 22.6 10.15 85.8-.15 20.75-13.95 22.05-15.35 1.6-17.15-13.25-33.8 21.9-53.65 11.75-17.5-9.05-17.25-24.95.4-25.15 25.35-38.35 3.2-1.7 6.5-3 1.95-.8 3.95-1.4 13.75-4.45 29.15-2.4 3.4-20.4-15.7-20.55-6.55-.1-13.45 4.25-2 1.15-3.95 2.75-2.75 2.1-5.6 4.95-10.45 10-23.95 3.05-13.7-7.1-1.5-30.65Zm-178.1-34.8q18.9-25.55 33.1-18.45 14.25 7.1 20.95 25.6l15.15 44.1q5.3 15.95 13.65-3.15 15.1-36.4 33.5-55.2Q502 473.8 516 488.35q13.05 13.55 15.2 62.75 1.6 35.4-4.85 70.9-5.05 27.7-31.6 28.05-35.05-.95-21.35-42.75 13.65-41.85 14.25-63.3.6-21.5-11.5-1.45l-25.4 42.05q-12.55 15.85-24.65-6.95-12.15-22.8-21.1-39.55-9-16.8-11.8 4.8-5.5 42.55 9.35 66.6 13.45 23.6-12.15 39.25-16.15 9.85-29.7-9.1-16.05-25.7-13.45-76.45 1.85-35.85 19.95-63.5Zm244.3 94.65q7.4 7.15 2.8 14.2-12.1 9.7-27.55 7.55-15.5-2.15-3.9-13.5 11.55-11.4 28.65-8.25Z"/><path id="d" stroke="#000" stroke-width="1" stroke-linejoin="round" stroke-linecap="round" fill="none" d="M844.65 552.7q0 1.05-.6 1.9l5.55 8h4.6q4-4.55 4-10.6 0-6.9-5.2-11.8-5.1-4.85-12.35-4.85t-12.4 4.85q-5.15 4.9-5.15 11.8t5.15 11.8q5.15 4.9 12.4 4.9 3.95 0 8-1.75v-3.6l-5.7-7.8q-.95.6-1.85.6-1.5 0-2.5-1-1.1-1.05-1.1-2.45 0-1.45 1.1-2.45 1-1 2.5-1 1.4 0 2.45 1 1.1 1 1.1 2.45Z"/><path id="e" stroke="#FFF" stroke-width="5" stroke-linejoin="round" stroke-linecap="round" fill="none" d="M414 590.9q11.05 22.5 4.25 48.45-6.9 26.4-39.35 25.95-32.45-.5-38.3-33.65-13.35-103.7 14.9-142 19.8-32.25 51.9-23.1 19.05 5.4 29.1 38.85l6.7 24.7q9.15-19.65 25.05-41.65 15.95-22 39.95-19.45 24 2.6 33.25 43.35 35.75-27.6 68.5-17.55 21.2 6.55 35.8 21.3 26.65-38.95 57.85-10.15 44.4-22.45 77.4 26.9 36.7-52.25 87.95-22-.5-15.1 4.45-26.15 4.55-10.05 13.45-13.25 23.65-8.45 39.4 11.25 13.1 16.4 14.15 42.75 19.3-27.3 48.6-10.95-.35-11 9.85-17.65-.45-20.45 21.45-15.15 12-11.45 22.1 3.2 17.85-1.75 14.75 13.7 12.3 2.4 11.8 11.75-.5 9.3-5.45 14.85-1.4 16.85-14.75 21.9 10.2 10.7 4.15 28.9-7.6 22.85-7.5 48.65 2.05 27.75-19.8 32.8-19.85 4.5-32.7-10.85-27.7 25.3-57.7-7.1-11 24.75-35.95 23.65-23.25-1.05-26-17.8-26.8 16.1-53.35 8.8-26.6-7.3-32.9-23.95-12.3 24.6-31.45 27.6-23.3 3.75-41.45-17.55-27.75 32.85-61.7 9.8-21.85 16.05-41.15 1.65-25.95 11.45-49.5 4.95-16.45-4.45-25.25-21.15-3.4 26.85-40 29.95-36.65 3.15-43.75-30.35-3.25-21.55 10.75-41.05-13.8 18.5-31.15 11.85-12.15-4.65-18.35-15-.95-1.6-1.75-3.3-1.55-3.2-2.6-6.9"/><path id="g" stroke="#C8C8CB" stroke-width="2" stroke-linejoin="round" stroke-linecap="round" fill="none" d="M302.8 513.05q8.7 12.1 4.95 28.1 14.35 1.45 16.75-10.3.6-2.8.55-6.3.3-16.9-16.3-17.35-22.55-.65-37.3 4.6-14.75 5.25-14.45 16.9.05.45.1 1l.05.65q.4 4.1 1.75 7.1 6.45 12.45 25.7 6.1-9.05-10-3.9-27.55m27.05 25.15Q296 548 284.6 543.55m-25.7-6.1q5.75 26 1.85 51.05-5.45 32.1-30.55 51.55-5.55 4.3-9.95 6-5.35 7.8 3.55 21.2 24.55-5.7 48.45-21.05 23.85-15.25 40.3-63.9 9.7-28.6 11.95-51.45"/><path id="i" stroke="#E45F2C" stroke-width="4" stroke-linejoin="round" stroke-linecap="round" fill="none" d="M299.05 548.8q12.05-1.7 10.95 4.1-1.1 5.75-4.45 10.4-2.3 3.15-7.1 4.3-10.9 2.65-21.05 1.9-3.35-.65-3.45-4.55-.05-3.95.7-8.6 1.15-3.4 6.75-4.65 5.55-1.3 17.65-2.9Z"/><path id="k" stroke="#C8C8CB" stroke-width="2" stroke-linejoin="round" stroke-linecap="round" fill="none" d="M91.25 461.55q9.4 9.45 21.7 5.65 11.05-3.5 25.05-3.65l3.2.1q12 .5 21.75 3.55 12.25 3.8 21.7-5.65Q207.1 439 220.1 436.8q13-2.3 20 10.9 7 13.15 2.1 41.25-.35 11.45 3.8 19.15 24.25 48.35 16.4 87.1-7.75 38.8-46 59.2-33.7 7.45-66 8.65-4.6.15-9.15.25h-6.8q-.9-.05-1.85-.05-35.6-.7-75.95-9.85Q22.9 639.55 14.3 598q-8.65-41.55 15.65-89.9 4.1-7.7 2.95-18.75-4.1-28.4 2.9-41.6 7-13.25 20-10.95 12.95 2.2 35.45 24.75Z"/><path id="m" stroke="#E45F2C" stroke-width="4" stroke-linejoin="round" stroke-linecap="round" fill="none" d="M190.8 467.2q10.65-11.3 24.8-17.35 10.55-4.5 13.9 4.9 4.3 12.1-.8 25.25-1.8 4.75-13.35 2.9-11.6-1.85-22.4-7.25-6.85-3.4-2.15-8.45Zm-105.4-.5q-10.65-11.35-24.8-17.35-10.55-4.5-13.9 4.9-4.3 12.1.8 25.2 1.8 4.75 13.35 2.95 11.55-1.85 22.4-7.25 6.85-3.4 2.15-8.45Z"/><path id="o" stroke="#E80412" stroke-width="2" stroke-linejoin="round" stroke-linecap="round" fill="none" d="M50.7 651.45q39.8 8.95 84.2 8.85h6.5q44.4.05 84.2-8.9 1.65.7 1.85 2.7.75 5.5-1.35 10.65-.8 1.9-4.05 2.75-32 8-85.75 8.6h-1.4q-50.15-.9-80.65-8.55-3.25-.85-4-2.75-2.15-5.15-1.4-10.65.2-2 1.85-2.7Z"/><path id="q" stroke="#D19F2B" stroke-width="2" stroke-linejoin="round" stroke-linecap="round" fill="none" d="M128.05 670.4q1.05-3.05 3.6-5.45 4.2-3.95 10.1-3.95 5.9 0 10.1 3.95 2.6 2.5 3.65 5.65 2.65.75 2.55 3.5-.15 2.8-2.4 3.75-.9 3.45-3.8 6.15-3.55 3.4-9.75 4 2.2-2.65 1.65-6.05-2.7-1.4-4.45.1-1.25 2.7 1.05 5.9-5.05-.45-8.7-3.95-2.8-2.65-3.75-6-2.9-.75-3-3.95-.15-3.25 3.15-3.65 1.05-.15 2.4 0h21.45q2.2-.2 3.6.2m-27.6 7.4q1.1.2 2.6.15l21.95.05q1.9.1 3.2-.35"/><path id="s" stroke="#E10311" stroke-width="4" stroke-linejoin="round" stroke-linecap="round" fill="none" d="M40.1 583.05q3.4.75 3.65-1.2.45-3.1-4.5-4.6-3.45-1.05-8.45-.6-13.45 1.15-20.9 7.25-7.45 6.1-6.05 8.4 2.3 3 9.3-3.1 6.1-5.25 16.85-6.8 4.7-.55 10.1.65Zm1.25 12.9q3.45-.55 2.95-2.4-.85-3-6.1-2.6-3.65.3-8.15 2.5-12.1 5.9-16.6 14.2-4.5 8.25-2.2 9.85 3.35 1.9 7.45-6.2 3.55-7 12.95-12.3 4.2-2.2 9.7-3.05Z"/><path id="u" stroke="#E10311" stroke-width="4" stroke-linejoin="round" stroke-linecap="round" fill="none" d="M243.05 583.35q-3.4.75-3.65-1.2-.45-3.1 4.5-4.6 3.45-1.05 8.45-.6 13.45 1.15 20.9 7.25 7.45 6.1 6.05 8.4-2.3 3-9.3-3.1-6.1-5.25-16.85-6.8-4.7-.55-10.1.65Zm-1.25 12.9q-3.45-.55-2.95-2.4.85-3 6.1-2.6 3.65.3 8.15 2.5 12.1 5.9 16.6 14.2 4.5 8.25 2.2 9.85-3.35 1.9-7.45-6.2-3.55-7-12.95-12.3-4.2-2.2-9.7-3.05Z"/><path id="w" stroke="#E10311" stroke-width="2" stroke-linejoin="round" stroke-linecap="round" fill="none" d="M175.15 553.85q-2.45-4.1 6.3-10.45t20.45-5.5q11.75.9 12.85 4.15 1.1 3.3-6.2 2.15-15.95-2.4-28.9 9.05-2.5 2.25-4.5.6Zm-66.05-.1q2.5-4.15-6.25-10.45-8.75-6.35-20.45-5.5-11.75.9-12.9 4.2-1.1 3.25 6.2 2.1 15.95-2.4 28.9 9.05 2.55 2.25 4.5.6Z"/><path id="y" stroke="#E10311" stroke-width="3" stroke-linejoin="round" stroke-linecap="round" fill="none" d="M148.85 572.9q3.4 5.15-4.45 8.2-1.55 1.15 2.85 4.5 6.1 4.75 15.4 5.4 8 .45 20.65-5.05 2.55-1.45 3.45-.95.6 1.1-2.4 2.95-3.25 2-7.35 3.5-14.2 4.65-22.55 1-8.35-3.7-9.15-5.35-.8-1.7-3.25-1.65-2.45.1-3.7 1.95-1.3 1.8-9 5.15-7.7 3.3-21.85-1.15-4.05-1.55-7.3-3.5-3-1.9-2.4-3 .9-.5 3.45.95 12.65 5.5 20.65 5.1 9.3-.7 15.4-5.4 4.35-3.4 2.85-4.55-7.85-3.05-4.45-8.2.9-1.4 3.1-1.5l6.95.1q2.2.1 3.1 1.5Z"/><g id="a"><path fill="#FFF" d="M886.85 471.45q-8.9 3.2-13.45 13.25-4.95 11.05-4.45 26.15-51.25-30.25-87.95 22-33-49.35-77.4-26.9-31.2-28.8-57.85 10.15-14.6-14.75-35.8-21.3-32.75-10.05-68.5 17.55Q532.2 471.6 508.2 469q-24-2.55-39.95 19.45-15.9 22-25.05 41.65l-6.7-24.7q-10.05-33.45-29.1-38.85-32.1-9.15-51.9 23.1-28.25 38.3-14.9 142 5.85 33.15 38.3 33.65 32.45.45 39.35-25.95 6.8-25.95-4.25-48.45-.95-1.6-1.75-3.3-1.55-3.2-2.6-6.9 1.05 3.7 2.6 6.9.8 1.7 1.75 3.3 6.2 10.35 18.35 15 17.35 6.65 31.15-11.85-14 19.5-10.75 41.05 7.1 33.5 43.75 30.35 36.6-3.1 40-29.95 8.8 16.7 25.25 21.15 23.55 6.5 49.5-4.95 19.3 14.4 41.15-1.65 33.95 23.05 61.7-9.8 18.15 21.3 41.45 17.55 19.15-3 31.45-27.6 6.3 16.65 32.9 23.95 26.55 7.3 53.35-8.8 2.75 16.75 26 17.8 24.95 1.1 35.95-23.65 30 32.4 57.7 7.1 12.85 15.35 32.7 10.85 21.85-5.05 19.8-32.8-.1-25.8 7.5-48.65 6.05-18.2-4.15-28.9 13.35-5.05 14.75-21.9 4.95-5.55 5.45-14.85.5-9.35-11.8-11.75 3.1-15.45-14.75-13.7-10.1-14.65-22.1-3.2-21.9-5.3-21.45 15.15-10.2 6.65-9.85 17.65-29.3-16.35-48.6 10.95-1.05-26.35-14.15-42.75-15.75-19.7-39.4-11.25m-47.3 114.05Q828 583.8 820.9 574q-3.9 20.4 8.35 28.6 11.65 6.55 26.45-6.25 13.05-10.2 19.8.95 6.75 11.15-2.85 22.55-29.05 34.6-65.45 11.15-26.1-19.2-18.8-67.35 4.8-32.2 27.1-43.8 21.8-11.3 43.25 2.9 28.85 19.3 14.3 47.45-10.6 18.4-33.5 15.3m112.1-4.55q-7 7.1-1.8 10.2 19.1 11.45 31.35 29.45 7.35 13.3-6.7 20.65-9.85 4.95-19.7-5.5-14.45-15.75-28.05-24.3-7.55 38.4-26.9 37-15.1-1.05-13.7-15.7v-134.6q2.2-13.85 12.6-14.1 16.35-.85 23.9 29.3 5.85 22.95 5.4 48.85l24.65-27.25q16.4-18.3 28.15-5.75 7.55 9-5.05 23.85l-24.15 27.9m-292.45-51q5-21.3 22-19.05 16.5 2.1 16.75 21.45 14.3-19.15 32.95-19.5 31.65-.5 42.6 42.55 7.1 25.9 3.4 54.8-3.75 29.1-30.7 32.05-28.1-.9-17.55-32.05 7.6-22.1 3.9-54.35-1.9-15.45-11.8-15.25-11.85.2-16.3 22-5.45 25.9-1 58.05.65 24.15-24.4 23.65-20.1-.8-19.85-13.35v-101m361.6-37q11.7-10.15 16.35.8 10.9-4.15 11.9 11.05 8.95-.9 9.35 7.9.2 5-5.65 9 1.35 15.45-12.3 21.65-28 5.15-41.55-17.05-5-14.05 7.15-24-1.25-6.95 2.5-10.3 6.6-5.95 12.25.95m-16 64.1q16.35-15.25 30.75-.15 10.95 11.45-4.45 40.6-7 13.25-4.5 31.1t-11.2 14.7q-13.7-3.15-17.65-21.7-10.5-44.15 7.05-64.55m-458 8.1q-13.7-7.1-1.5-30.65 14.7-24.5 44.15-25.05 30.3-.55 46.9 25 16.15 22.6 10.15 85.8-.15 20.75-13.95 22.05-15.35 1.6-17.15-13.25-33.8 21.9-53.65 11.75-17.5-9.05-17.25-24.95.4-25.15 25.35-38.35 3.2-1.7 6.5-3 1.95-.8 3.95-1.4 13.75-4.45 29.15-2.4 3.4-20.4-15.7-20.55-6.55-.1-13.45 4.25-2 1.15-3.95 2.75-2.75 2.1-5.6 4.95-10.45 10-23.95 3.05m-30.8-76.8q13.05 13.55 15.2 62.75 1.6 35.4-4.85 70.9-5.05 27.7-31.6 28.05-35.05-.95-21.35-42.75 13.65-41.85 14.25-63.3.6-21.5-11.5-1.45l-25.4 42.05q-12.55 15.85-24.65-6.95-12.15-22.8-21.1-39.55-9-16.8-11.8 4.8-5.5 42.55 9.35 66.6 13.45 23.6-12.15 39.25-16.15 9.85-29.7-9.1-16.05-25.7-13.45-76.45 1.85-35.85 19.95-63.5 18.9-25.55 33.1-18.45 14.25 7.1 20.95 25.6l15.15 44.1q5.3 15.95 13.65-3.15 15.1-36.4 33.5-55.2Q502 473.8 516 488.35m98.3 120.2q4.6-7.05-2.8-14.2-17.1-3.15-28.65 8.25-11.6 11.35 3.9 13.5 15.45 2.15 27.55-7.55m422.85-114.8q-4.65-10.95-16.35-.8-5.65-6.9-12.25-.95-3.75 3.35-2.5 10.3-12.15 9.95-7.15 24 13.55 22.2 41.55 17.05 13.65-6.2 12.3-21.65 5.85-4 5.65-9-.4-8.8-9.35-7.9-1-15.2-11.9-11.05m6.3 5.8q2 1.1 2.2 4.1.15 2.95-2 4.95-2.05 1.95-4.3 2.4-2.3.4-3.75-.75-1.5-1.1-1.15-3.55.5-2.45 1.95-4.5 1.45-2 3.25-2.9 1.8-.9 3.8.25m-10.1-2.85q.45 1.9-.1 4.3-.6 2.4-2.3 4.35-1.65 1.9-3.45 1.5-1.85-.4-3-2.25-1.2-2-1.05-4.75.15-2.9 2.6-4.7 2.4-1.85 4.6-1.1 2.25.7 2.7 2.65m12.65 13.9q1.7-1.2 3.85-.95 2.15.15 3.35 2.05 1.2 1.9 0 4.3-1.25 2.4-3 3.6-1.7 1.25-3.9 1.2-2.3-.1-3.45-1.8-1.1-1.75.15-4.45 1.3-2.7 3-3.95m-26.9-12q.95 1.85.95 4.8.05 3-1.65 4.1-1.8 1.15-3.9.3-2.1-.8-3.15-2.6-1-1.8-1.15-4.5-.1-2.7 1.8-3.9 1.8-1.25 4-.6 2.05.65 3.1 2.4m-1.25 18.8q3.8-4.3 8.3-3.75 5.35.65 7.4 5.1 1.2 2.65 1.1 5.05 4.2-1.25 7.65.55 4.35 1.95 1.6 6.8-6.5 9.65-24.35 3.9-8.5-2.6-13.25-10.65-4.9-8.2 2-11.7 6.1-1.5 9.55 4.7Z"/><path d="M531.2 551.1q-2.15-49.2-15.2-62.75-14-14.55-32.45 4.25-18.4 18.8-33.5 55.2-8.35 19.1-13.65 3.15l-15.15-44.1q-6.7-18.5-20.95-25.6-14.2-7.1-33.1 18.45-18.1 27.65-19.95 63.5-2.6 50.75 13.45 76.45 13.55 18.95 29.7 9.1 25.6-15.65 12.15-39.25-14.85-24.05-9.35-66.6 2.8-21.6 11.8-4.8 8.95 16.75 21.1 39.55 12.1 22.8 24.65 6.95l25.4-42.05q12.1-20.05 11.5 1.45-.6 21.45-14.25 63.3-13.7 41.8 21.35 42.75 26.55-.35 31.6-28.05 6.45-35.5 4.85-70.9m14.1-16.6q-12.2 23.55 1.5 30.65 13.5 6.95 23.95-3.05 2.85-2.85 5.6-4.95 1.95-1.6 3.95-2.75 6.9-4.35 13.45-4.25 19.1.15 15.7 20.55-15.4-2.05-29.15 2.4-2 .6-3.95 1.4-3.3 1.3-6.5 3-24.95 13.2-25.35 38.35-.25 15.9 17.25 24.95 19.85 10.15 53.65-11.75 1.8 14.85 17.15 13.25 13.8-1.3 13.95-22.05 6-63.2-10.15-85.8-16.6-25.55-46.9-25Q560 510 545.3 534.5m66.2 59.85q7.4 7.15 2.8 14.2-12.1 9.7-27.55 7.55-15.5-2.15-3.9-13.5 11.55-11.4 28.65-8.25m424.05-37.45q-14.4-15.1-30.75.15-17.55 20.4-7.05 64.55 3.95 18.55 17.65 21.7 13.7 3.15 11.2-14.7-2.5-17.85 4.5-31.1 15.4-29.15 4.45-40.6m-15.5-53.5q0-2.95-.95-4.8-1.05-1.75-3.1-2.4-2.2-.65-4 .6-1.9 1.2-1.8 3.9.15 2.7 1.15 4.5 1.05 1.8 3.15 2.6 2.1.85 3.9-.3 1.7-1.1 1.65-4.1m29.8 6.25q-2.15-.25-3.85.95-1.7 1.25-3 3.95-1.25 2.7-.15 4.45 1.15 1.7 3.45 1.8 2.2.05 3.9-1.2 1.75-1.2 3-3.6 1.2-2.4 0-4.3t-3.35-2.05m-16.6-8.65q.55-2.4.1-4.3-.45-1.95-2.7-2.65-2.2-.75-4.6 1.1-2.45 1.8-2.6 4.7-.15 2.75 1.05 4.75 1.15 1.85 3 2.25 1.8.4 3.45-1.5 1.7-1.95 2.3-4.35m12.4 2.65q-.2-3-2.2-4.1-2-1.15-3.8-.25-1.8.9-3.25 2.9-1.45 2.05-1.95 4.5-.35 2.45 1.15 3.55 1.45 1.15 3.75.75 2.25-.45 4.3-2.4 2.15-2 2-4.95M681.2 510.9q-17-2.25-22 19.05v101q-.25 12.55 19.85 13.35 25.05.5 24.4-23.65-4.45-32.15 1-58.05 4.45-21.8 16.3-22 9.9-.2 11.8 15.25 3.7 32.25-3.9 54.35-10.55 31.15 17.55 32.05 26.95-2.95 30.7-32.05 3.7-28.9-3.4-54.8-10.95-43.05-42.6-42.55-18.65.35-32.95 19.5-.25-19.35-16.75-21.45m268.65 80.25q-5.2-3.1 1.8-10.2l24.15-27.9q12.6-14.85 5.05-23.85-11.75-12.55-28.15 5.75l-24.65 27.25q.45-25.9-5.4-48.85-7.55-30.15-23.9-29.3-10.4.25-12.6 14.1v134.6q-1.4 14.65 13.7 15.7 19.35 1.4 26.9-37 13.6 8.55 28.05 24.3 9.85 10.45 19.7 5.5 14.05-7.35 6.7-20.65-12.25-18-31.35-29.45M820.9 574q7.1 9.8 18.65 11.5 22.9 3.1 33.5-15.3 14.55-28.15-14.3-47.45-21.45-14.2-43.25-2.9-22.3 11.6-27.1 43.8-7.3 48.15 18.8 67.35 36.4 23.45 65.45-11.15 9.6-11.4 2.85-22.55t-19.8-.95q-14.8 12.8-26.45 6.25-12.25-8.2-8.35-28.6m7.35-33.8q5.15-4.85 12.4-4.85T853 540.2q5.2 4.9 5.2 11.8 0 6.05-4 10.6h-4.6l-5.55-8q.6-.85.6-1.9 0-1.45-1.1-2.45-1.05-1-2.45-1-1.5 0-2.5 1-1.1 1-1.1 2.45 0 1.4 1.1 2.45 1 1 2.5 1 .9 0 1.85-.6l5.7 7.8v3.6q-4.05 1.75-8 1.75-7.25 0-12.4-4.9T823.1 552q0-6.9 5.15-11.8Z"/><path fill="#FBA422" d="M1016.25 519.6q.8-1.2 1.6-2.2-3.45-6.2-9.55-4.7-6.9 3.5-2 11.7 4.75 8.05 13.25 10.65 17.85 5.75 24.35-3.9 2.75-4.85-1.6-6.8-3.45-1.8-7.65-.55-.1 1.55-.75 3.05.65-1.5.75-3.05.1-2.4-1.1-5.05-2.05-4.45-7.4-5.1-4.5-.55-8.3 3.75-.8 1-1.6 2.2m20.6 7.15q-14.25 3.75-23.95-9.1 9.7 12.85 23.95 9.1m-196.2 8.6q-7.25 0-12.4 4.85-5.15 4.9-5.15 11.8t5.15 11.8q5.15 4.9 12.4 4.9 3.95 0 8-1.75v-3.6l-5.7-7.8q-.95.6-1.85.6-1.5 0-2.5-1-1.1-1.05-1.1-2.45 0-1.45 1.1-2.45 1-1 2.5-1 1.4 0 2.45 1 1.1 1 1.1 2.45 0 1.05-.6 1.9l5.55 8h4.6q4-4.55 4-10.6 0-6.9-5.2-11.8-5.1-4.85-12.35-4.85Z"/></g></defs><use xlink:href="#a"/><use xlink:href="#b"/><use xlink:href="#c"/><use xlink:href="#d"/><use xlink:href="#e"/><g transform="translate(5)"><use xlink:href="#f"/><use xlink:href="#g"/></g><g transform="translate(5)"><use xlink:href="#h"/><use xlink:href="#i"/></g><g transform="translate(5)"><use xlink:href="#j"/><use xlink:href="#k"/></g><g transform="translate(5)"><use xlink:href="#l"/><use xlink:href="#m"/></g><g transform="translate(5)"><use xlink:href="#n"/><use xlink:href="#o"/></g><g transform="translate(5)"><use xlink:href="#p"/><use xlink:href="#q"/></g><g transform="translate(5)"><use xlink:href="#r"/><use xlink:href="#s"/></g><g transform="translate(5)"><use xlink:href="#t"/><use xlink:href="#u"/></g><g transform="translate(5)"><use xlink:href="#v"/><use xlink:href="#w"/></g><g transform="translate(5)"><use xlink:href="#x"/><use xlink:href="#y"/></g></svg>
