<svg version="1.2" xmlns="http://www.w3.org/2000/svg" viewBox="0 0 4033 4033" width="4033" height="4033"><style>.s0{fill:#fff}.s2{fill:#ffa725}.s3{fill:#000}</style><g id="_Artboards_"><path id="Artboard 1 copy 2" class="s0" d="M-2640 5113h2000V3113h-2000z"/><path id="Artboard 1 copy 3" class="s0" d="M4660.9 4741h2000V2741h-2000z"/></g><g id="Layer 1"><path id="&lt;Path&gt;" d="M617.7 410c-.2.8-.3 1.6-.3 2.4 0 .9.1 1.8.4 2.7q.5 1.4 1.6 3c1.4 2.1 3.8 4.4 7.2 6.7 2.2 1.5 4.8 3 7.8 4.4 4 2 8.6 3.7 13.8 5.3 6.8 2.2 14.6 3.9 23 5.3q4.6.7 9.4 1.3c2.9-2.9 6.3-5.2 10.1-6.8 3.9-1.7 8.2-2.6 12.7-2.6 6.7 0 13 2.1 18.3 5.6q2.9 2 5.3 4.5c7-.5 13.8-1.3 20.1-2.4 11.9-2.1 22.4-5.1 30.7-8.6 5.5-2.3 10.1-4.9 13.4-7.5 1.9-1.5 3.4-3 4.5-4.4 1.3-1.6 2.1-3.1 2.4-4.4q.3-1.1.3-2.1c0-.8-.1-1.6-.4-2.4q-.4-1.2-1.2-2.6-1-1.6-2.6-3.2c-24.4 15-54.2 23.8-86.3 23.9-30.7 0-59.3-8.1-83.1-22q-1.6-.9-3.2-1.9-.9.9-1.6 1.7c-1.2 1.5-1.9 2.9-2.3 4.1z" style="fill:#e72b00"/><path id="&lt;Compound Path&gt;" fill-rule="evenodd" class="s0" d="M707.9 415.5c-38 0-72.3-13.3-97-34.6-12.3-10.7-22.3-23.3-29.1-37.2-6.8-14-10.6-29.2-10.6-45.3 0-16 3.8-31.3 10.6-45.2 10.2-20.9 27.5-38.9 49.3-51.6 21.9-12.8 48.3-20.2 76.8-20.2 22.1 0 43 4.5 61.5 12.5q.2.1.4.1c13 5.7 24.9 13.2 35.1 22 12.3 10.6 22.2 23.2 29.1 37.2 6.8 13.9 10.6 29.2 10.6 45.2 0 16.1-3.8 31.3-10.6 45.3-10.3 20.9-27.5 38.8-49.4 51.6-21.8 12.7-48.2 20.2-76.7 20.2zm38.6-122.3c2.3 2.5 6.3 2.6 8.8.2 2.7-2.4 5.1-3.9 7.3-4.9 2.3-.9 4.4-1.2 6.4-1.2s4 .3 5.8.9c2.7.9 5.2 2.3 6.8 3.4.9.6 1.5 1.1 2 1.4l.4.4.1.1c2.5 2.3 6.5 2.2 8.9-.3 2.3-2.5 2.2-6.5-.3-8.9-.2-.2-2.6-2.5-6.7-4.8-2.1-1.2-4.5-2.4-7.4-3.3-2.8-.9-6.1-1.5-9.6-1.5s-7.3.6-11.1 2.2c-3.8 1.5-7.6 4-11.2 7.4-2.5 2.4-2.6 6.4-.2 8.9zm-93.4-4.7c2.3 1 4.7 2.5 7.3 4.9 2.5 2.4 6.5 2.3 8.9-.2 2.4-2.5 2.3-6.5-.2-8.9-3.6-3.4-7.4-5.9-11.2-7.4-3.8-1.6-7.6-2.2-11.2-2.2-3.5 0-6.7.6-9.6 1.5-4.2 1.4-7.6 3.3-10.1 5-2.4 1.6-3.8 2.9-4 3.1-2.5 2.4-2.6 6.4-.2 8.9s6.4 2.6 8.9.3l.3-.3c.7-.6 2.7-2.2 5.4-3.5 1.3-.7 2.8-1.3 4.4-1.7 1.6-.5 3.2-.7 4.9-.7 2.1 0 4.2.3 6.4 1.2zm55.5 70.1c1.7 2 3.7 3.8 5.9 5.3 4.4 3 9.7 4.7 15.4 4.7 3.8 0 7.5-.8 10.8-2.1 4.9-2.1 9.1-5.6 12.1-10s4.7-9.8 4.7-15.5c0-3.5-2.8-6.3-6.3-6.3-3.4 0-6.3 2.8-6.3 6.3 0 2.1-.4 4.1-1.1 5.9-1.2 2.7-3.1 5-5.5 6.6-2.4 1.6-5.2 2.5-8.4 2.5-2.1 0-4-.4-5.8-1.1-2.7-1.2-5-3.1-6.6-5.5-1.5-2.2-2.5-4.9-2.6-7.8 8.8-1.6 15.2-6.4 15.2-12.2 0-7-9.6-12.7-21.5-12.7-11.8 0-21.5 5.7-21.5 12.7 0 5.8 6.4 10.6 15.2 12.2q-.1 2.8-1.1 5.3c-1.2 2.7-3.1 5-5.5 6.6-2.4 1.6-5.2 2.5-8.4 2.5-2.1 0-4-.4-5.8-1.1-2.7-1.2-5-3.1-6.6-5.5-1.6-2.4-2.6-5.2-2.6-8.4 0-3.5-2.8-6.3-6.3-6.3s-6.3 2.8-6.3 6.3c0 3.8.8 7.5 2.2 10.8 2.1 4.9 5.6 9.1 10 12.1s9.7 4.7 15.4 4.7c3.8 0 7.5-.8 10.8-2.1 4.1-1.8 7.7-4.5 10.5-7.9z"/><path class="s2" d="M573 242.8c7.5-13.6 17.6-25.9 29.7-36.4 8.7-7.5 18.5-14.1 29.2-19.6-1.8-1.5-3.8-3.2-6.2-5-7.8-6.1-18.6-13.4-30.3-18.1-7.8-3.1-15.9-5.1-23.8-5.1q-1.3 0-2.2.2-.8.2-1.5.6c-.9.4-1.7 1.1-2.5 2.3q-.8 1.1-1.5 2.8c-.6 1.6-1.1 3.5-1.5 5.7-.5 2.9-.7 6.3-.7 9.9 0 7.1.9 15.2 2.2 23.3 1.3 8.2 3.1 16.4 4.9 23.7 1.5 6 3 11.4 4.2 15.7zm269-1.3q.5-1.6.9-3.4c2.6-9.3 5.7-21.8 7.8-34.3 1.4-8.3 2.2-16.5 2.2-23.6 0-3.2-.1-6.2-.5-8.8-.4-2.6-.9-4.9-1.6-6.7q-.7-1.8-1.5-3c-.7-1-1.5-1.7-2.2-2.2-.5-.2-1-.5-1.6-.6-.6-.2-1.5-.3-2.5-.3-7.7 0-15.7 1.9-23.3 4.9-7.7 3.1-15 7.2-21.3 11.4-6.2 4.1-11.4 8.3-15.2 11.6q4 2 7.8 4.2c21.7 12.6 39.4 30.1 51 50.8z"/><path class="s0" d="M574.2 630.7q3.6-2.6 8-4.7c3.8-1.9 8.1-3.4 12.6-4.5 6.1-1.5 12.7-2.3 19.5-2.3 6.8 0 13.3.8 19.3 2.2 5.9 1.5 11.4 3.6 16.2 6.3 3.1 1.8 6 3.9 8.5 6.2q.5.6 1.1 1.2v-44c-4.9 1.7-10.1 2.4-15.4 2.4-11.2 0-23-3.2-34.4-8.6-11.4-5.4-22.3-13.1-31.5-22.6l-2.6-2.8q-1.2 2.2-2.5 5c-3.5 7.7-7 18.6-7 31.7 0 6.1.7 12.6 2.6 19.5 1.3 4.8 3.1 9.9 5.6 15zm263.1 14.1c-2.2-2.7-5.6-5.3-10.1-7.5-3-1.4-6.5-2.7-10.2-3.6-5-1.2-10.6-1.9-16.5-1.9-5.8 0-11.3.6-16.3 1.8-4.9 1.2-9.3 3-12.9 5-2.4 1.4-4.4 2.9-6 4.4-2.2 2.1-3.5 4.1-4.2 6.1l-.2.8v5.1q.1.6.4 1.3.7 1.9 2.3 3.9c2.2 2.6 5.7 5.3 10.2 7.4 1.9 1 4.1 1.8 6.4 2.6v-17.7c0-3.5 2.8-6.3 6.3-6.3s6.3 2.8 6.3 6.3v20.3q3.7.4 7.7.4 3.9 0 7.7-.4v-20.3c0-3.5 2.8-6.3 6.3-6.3 3.4 0 6.3 2.8 6.3 6.3v17.7c3.3-1.1 6.3-2.4 8.9-3.9 2.4-1.3 4.4-2.8 6-4.4 2.1-2 3.5-4.1 4.2-6.1.4-1.1.5-2.2.5-3.3 0-1.3-.2-2.5-.7-3.8q-.7-1.9-2.4-3.9z"/><path class="s0" d="M907.2 351.6c-7.5-6.1-18.1-10.1-30-10.1-6.1 0-12.1 1.2-17.5 3.3-5.5 2-10.3 4.9-14.3 8.4-2.6 2.2-4.8 4.7-6.4 7.3-7 11-15.7 21.1-25.9 29.9q-4 3.5-8.4 6.7.5.5 1 1.1c1.9 2.4 3.4 5.1 4.3 8.1.7 2 1 4 1 6.1 0 2.3-.4 4.6-1.2 6.8-.7 2.1-1.8 4.1-3.1 6-2.6 3.8-6.2 7-10.4 10q-4.3 2.9-9.5 5.4c-4.7 2.2-9.8 4.2-15.5 5.9-7.5 2.4-15.8 4.3-24.7 5.7q-6 1-12.3 1.6c1.1 3.3 1.7 6.9 1.7 10.6 0 6.7-2 13-5.5 18.2-3.6 5.2-8.5 9.4-14.4 11.8-3.9 1.7-8.2 2.6-12.7 2.6-6.7 0-13.1-2-18.3-5.6-5.2-3.5-9.3-8.5-11.8-14.3-1.6-3.9-2.5-8.2-2.5-12.7 0-4.1.7-8 2.1-11.7q-4.6-.6-8.9-1.4c-13.3-2.5-25.1-6-34.6-10.5-6.4-3-11.7-6.5-16-10.5-2.4-2.3-4.4-4.8-5.9-7.5q-.4-.7-.7-1.4c-6.1 5-12.2 11-17.7 18-7.9 10-14.5 21.9-18.6 36.1-2.8 9.5-4.3 19.9-4.3 31.5 0 5.5.8 10.9 2.4 16.2 1.6 5.3 3.9 10.4 6.8 15.2 5.9 9.7 14.1 18.4 23.4 25.4 6.2 4.6 12.9 8.4 19.5 11.3 9 3.8 17.9 5.8 25.7 5.8 4.2 0 8.2-.6 11.6-1.8 3.4-1.1 6.4-2.8 9-5.2 2.7-2.5 4.6-5.3 5.9-8.1q1.9-4.4 1.9-9.1c0-2.8-.5-5.7-1.5-8.6-1-2.9-2.5-5.8-4.5-8.6-4-5.6-10-10.7-17.8-14.3-6.4-3-11.3-6.6-14.9-10.6-3.5-4-5.7-8.5-6.8-12.7-.8-2.8-1-5.6-1-8.1 0-4.9 1-9.1 2-12.1s2-4.8 2.1-5.1c1.7-3 5.5-4.1 8.6-2.5 3 1.7 4.1 5.5 2.5 8.6l-.1.1q-.1.1-.2.5c-.3.6-.6 1.4-1 2.4-.7 2.1-1.4 5-1.4 8.1 0 2.4.4 4.9 1.5 7.4s2.9 5.1 5.9 7.6c2.1 1.7 4.7 3.4 8.1 5 8.8 4.1 16 9.8 21.3 16.4h69.1c3.4 0 6.7 1.1 9.3 2.8 2.6 1.8 4.7 4.3 6 7.3.8 2 1.3 4.2 1.3 6.4v83.7q3.4-2.5 7.4-4.4c3.9-1.9 8.1-3.4 12.7-4.5 6-1.5 12.6-2.3 19.5-2.3 6.8 0 13.2.8 19.2 2.2 6 1.5 11.5 3.6 16.2 6.3q2.5 1.4 4.6 3c6.3-13.3 8.7-26.2 8.7-38.3 0-11-2-21.5-5-31-3.1-9.5-7.2-18-11.4-25.2-8.2-14.2-16.6-23-16.8-23.2q-.4-.4-.7-.9c-8.4-.6-17.2-3.1-26.2-7.7-3.1-1.6-4.3-5.4-2.7-8.5 1.6-3.1 5.4-4.3 8.5-2.7 8.8 4.5 16.8 6.4 24.2 6.4 4.7 0 9.1-.7 13.3-2.1 4.2-1.4 8.2-3.4 12-6 7.5-5 14.1-12.3 19.3-20.6 3.4-5.5 6.2-11.4 8.3-17.4 2.7-8 4.2-16.1 4.2-23.3 0-3.9-.5-7.4-1.3-10.6-13-.5-24.9-4.7-34.1-11.6-2.7-2.1-3.3-6-1.2-8.8 2.1-2.8 6-3.3 8.8-1.3 7.4 5.6 17.5 9.2 28.8 9.2 8.9 0 17.1-2.3 23.8-5.9 6.7-3.7 11.9-8.9 14.9-14.6 2-3.9 3-8 3-12.3 0-4.4-1-8.5-3-12.3-2-3.8-5-7.4-8.7-10.4z"/><path class="s2" d="M745.6 543.7q-.6-.2-1.3-.2h-61.7c1.6 4.3 2.4 8.7 2.4 13.2 0 4.8-1 9.6-3 14.1-1.9 4.5-5 8.7-8.9 12.4l-.4.4v86q0 1 .5 1.8c.4.5.9.9 1.4 1.2q.6.2 1.3.2h68.4q1.1 0 1.8-.5c.6-.4 1-.9 1.2-1.4q.3-.6.3-1.3V546.7q0-1-.6-1.8c-.3-.5-.8-.9-1.4-1.2z"/><path class="s0" d="M651.2 644.8c-2.2-2.7-5.7-5.3-10.2-7.5-3-1.4-6.4-2.7-10.2-3.6-5-1.2-10.6-1.9-16.5-1.9-5.8 0-11.3.6-16.2 1.8-5 1.2-9.4 3-13 5-2.3 1.4-4.4 2.9-6 4.4-2.1 2.1-3.4 4.1-4.1 6.1-.4 1.1-.6 2.2-.6 3.4 0 1.3.2 2.5.7 3.8q.8 1.9 2.4 3.9c2.2 2.6 5.7 5.3 10.2 7.4 1.9 1 4.1 1.8 6.4 2.6v-17.7c0-3.5 2.8-6.3 6.3-6.3 3.4 0 6.2 2.8 6.2 6.3v20.3q3.8.4 7.7.4 4 0 7.7-.4v-20.3c0-3.5 2.9-6.3 6.3-6.3 3.5 0 6.3 2.8 6.3 6.3v17.7c3.4-1.1 6.4-2.4 8.9-3.9 2.4-1.3 4.4-2.8 6-4.4 2.2-2 3.5-4.1 4.2-6.1.4-1.1.6-2.2.6-3.3 0-1.3-.2-2.5-.7-3.8q-.8-1.9-2.4-3.9z"/><path class="s2" d="M711.2 445.9c-2.4-1-5-1.6-7.8-1.6-4.2 0-8 1.3-11.2 3.4-3.2 2.2-5.8 5.3-7.3 8.9-1 2.4-1.6 5-1.6 7.8 0 4.1 1.3 8 3.5 11.2 2.1 3.2 5.2 5.7 8.8 7.3q1.7.7 3.5 1.1v-10.1c-2.9-1.5-4.8-4.5-4.8-8 0-5 4.1-9.1 9.1-9.1s9.1 4.1 9.1 9.1c0 3.5-1.9 6.5-4.8 8V484c2.5-.6 4.8-1.6 6.9-3 3.2-2.2 5.8-5.2 7.3-8.8 1-2.4 1.6-5 1.6-7.8 0-4.2-1.3-8-3.5-11.2-2.1-3.2-5.2-5.8-8.8-7.3z"/><path class="s3" d="M669.3 293.2c2.4-2.5 2.3-6.5-.2-8.9-3.6-3.4-7.4-5.9-11.2-7.4-3.8-1.6-7.6-2.2-11.2-2.2-3.5 0-6.7.6-9.6 1.5-4.2 1.4-7.6 3.3-10.1 5-2.4 1.6-3.8 2.9-4 3.1-2.5 2.4-2.6 6.4-.2 8.9s6.4 2.6 8.9.3l.3-.3c.7-.6 2.7-2.2 5.4-3.5 1.3-.7 2.8-1.3 4.4-1.7 1.6-.5 3.2-.7 4.9-.7 2.1 0 4.2.3 6.4 1.2 2.3 1 4.7 2.5 7.3 4.9 2.5 2.4 6.5 2.3 8.9-.2zm86 .2c2.7-2.4 5.1-3.9 7.3-4.9 2.3-.9 4.4-1.2 6.4-1.2s4 .3 5.8.9c2.7.9 5.2 2.3 6.8 3.4.9.6 1.5 1.1 2 1.4l.4.4.1.1c2.5 2.3 6.5 2.2 8.9-.3 2.3-2.5 2.2-6.5-.3-8.9-.2-.2-2.6-2.5-6.7-4.8-2.1-1.2-4.5-2.4-7.4-3.3-2.8-.9-6.1-1.5-9.6-1.5s-7.3.6-11.1 2.2c-3.8 1.5-7.6 4-11.2 7.4-2.5 2.4-2.6 6.4-.2 8.9 2.3 2.5 6.3 2.6 8.8.2zm-40.8 70.5c4.4 3 9.7 4.7 15.4 4.7 3.8 0 7.5-.8 10.8-2.1 4.9-2.1 9.1-5.6 12.1-10s4.7-9.8 4.7-15.5c0-3.5-2.8-6.3-6.3-6.3-3.4 0-6.3 2.8-6.3 6.3 0 2.1-.4 4.1-1.1 5.9-1.2 2.7-3.1 5-5.5 6.6-2.4 1.6-5.2 2.5-8.4 2.5-2.1 0-4-.4-5.8-1.1-2.7-1.2-5-3.1-6.6-5.5-1.5-2.2-2.5-4.9-2.6-7.8 8.8-1.6 15.2-6.4 15.2-12.2 0-7-9.6-12.7-21.5-12.7-11.8 0-21.5 5.7-21.5 12.7 0 5.8 6.4 10.6 15.2 12.2q-.1 2.8-1.1 5.3c-1.2 2.7-3.1 5-5.5 6.6-2.4 1.6-5.2 2.5-8.4 2.5-2.1 0-4-.4-5.8-1.1-2.7-1.2-5-3.1-6.6-5.5-1.6-2.4-2.6-5.2-2.6-8.4 0-3.5-2.8-6.3-6.3-6.3s-6.3 2.8-6.3 6.3c0 3.8.8 7.5 2.2 10.8 2.1 4.9 5.6 9.1 10 12.1s9.7 4.7 15.4 4.7c3.8 0 7.5-.8 10.8-2.1 4.1-1.8 7.7-4.5 10.5-7.9 1.7 2 3.7 3.8 5.9 5.3z"/><path fill-rule="evenodd" class="s3" d="M931.5 374.3c0 6.4-1.6 12.6-4.5 18.1-2.8 5.5-6.9 10.4-11.9 14.4-7.5 6.1-16.9 10.3-27.4 12 .7 3.7 1.1 7.5 1.1 11.4 0 5.8-.8 11.8-2.2 17.9-1.4 6-3.5 12.1-6.1 18-5.4 11.8-13.1 22.9-23.1 31.3-6.7 5.7-14.3 10.1-22.9 12.6q-1.8.5-3.7.9c1.7 2.3 3.8 5 6 8.2 6.4 9.2 14.1 22.3 19.3 38.2 3.4 10.6 5.7 22.4 5.7 35.1 0 15.2-3.4 31.6-12.1 48.2q1.2 2.1 2 4.3c.9 2.4 1.3 5 1.3 7.6 0 2.9-.6 5.7-1.6 8.4-1 2.6-2.5 5.1-4.4 7.3-3.6 4.4-8.6 8-14.4 10.8-3.8 1.8-8.1 3.3-12.6 4.5-6.1 1.5-12.6 2.3-19.5 2.3-6.8 0-13.3-.8-19.2-2.3-6-1.4-11.5-3.5-16.2-6.2q-2.6-1.5-4.9-3.2c-.5 1.7-1.2 3.3-2.2 4.7-1.7 2.7-4.2 4.8-7.2 6-2 .9-4.2 1.3-6.5 1.3h-68.4c-3.4 0-6.6-1-9.2-2.8-2.7-1.8-4.8-4.3-6-7.3-.8-1.9-1.3-4-1.3-6.1-3.5 3.6-7.9 6.7-12.9 9.1-3.9 1.8-8.1 3.3-12.6 4.5-6.1 1.5-12.7 2.3-19.6 2.3-6.7 0-13.2-.8-19.2-2.3-6-1.4-11.4-3.5-16.2-6.2-3.2-1.8-6-3.9-8.5-6.3-3.2-3.1-5.8-6.8-7.3-11-.8-2.4-1.3-4.9-1.3-7.5 0-2.9.6-5.8 1.6-8.4q.7-1.8 1.7-3.5c-4-7.4-6.8-14.6-8.7-21.6-2.1-8-3-15.7-3-22.8 0-15.4 4.1-28.1 8.2-37 2-4.4 4.1-7.9 5.6-10.3q-2.6-3.8-4.7-7.8c-5.6-10.4-8.9-21.9-8.9-34.1 0-12.7 1.7-24.4 4.8-35 3-10.6 7.4-20.1 12.5-28.5 9.8-16.1 22.5-28.3 34.8-37v-.2c.6-2 1.5-3.8 2.6-5.6q1.2-1.9 2.7-3.6c-17.4-12.9-31.4-29.2-40.5-47.9-7.6-15.6-11.9-32.8-11.9-50.8 0-13.5 2.4-26.6 6.9-38.9q-.7-.8-1.1-1.9c0-.1-2.2-6.5-4.8-16.1-2.7-9.7-5.9-22.5-8.1-35.6-1.4-8.8-2.4-17.6-2.4-25.8 0-3.6.2-7.1.7-10.4.4-3.4 1.2-6.5 2.3-9.5.8-2 1.7-3.8 2.9-5.6 1.5-2.3 3.6-4.3 6.1-5.8q2.1-1.3 4.6-2 2.8-.8 5.9-.8c10 0 19.7 2.5 28.5 6 8.9 3.6 17 8.3 23.9 13 9.4 6.3 16.6 12.6 20.4 16.1 19.3-7.9 40.8-12.3 63.5-12.3 22.4 0 43.6 4.3 62.7 12 2.4-2.2 6-5.4 10.6-9 8.4-6.5 20-14.4 33.3-19.8 8.9-3.5 18.6-6 28.5-6q2.6 0 5.1.5 2.4.6 4.5 1.7c2.9 1.5 5.2 3.8 7 6.3 1.1 1.7 2.1 3.5 2.8 5.4 1 2.6 1.7 5.3 2.2 8.2.7 3.8.9 7.8.9 12.1 0 8.1-1 16.9-2.4 25.7-1.4 8.7-3.3 17.3-5.2 25-3.8 15.2-7.6 26.6-7.7 26.7q-.1.4-.3.8c4.7 12.6 7.2 26.1 7.2 40 0 12.6-2 24.8-5.9 36.3 7.9-3.6 16.7-5.8 26-5.8 11 0 21.3 2.7 29.9 7.5 8.6 4.7 15.6 11.5 19.9 19.8 2.9 5.5 4.5 11.6 4.5 18.1zM783.2 186.5q4 2 7.8 4.2c21.7 12.6 39.4 30.1 51 50.8q.5-1.6.9-3.4c2.6-9.3 5.7-21.8 7.8-34.3 1.4-8.3 2.2-16.5 2.2-23.6 0-3.2-.1-6.2-.5-8.8-.4-2.6-.9-4.9-1.6-6.7q-.7-1.8-1.5-3c-.7-1-1.5-1.7-2.2-2.2-.5-.2-1-.5-1.6-.6-.6-.2-1.5-.3-2.5-.3-7.7 0-15.7 1.9-23.3 4.9-7.7 3.1-15 7.2-21.3 11.4-6.2 4.1-11.4 8.3-15.2 11.6zM573 242.8c7.5-13.6 17.6-25.9 29.7-36.4 8.7-7.5 18.5-14.1 29.2-19.6-1.8-1.5-3.8-3.2-6.2-5-7.8-6.1-18.6-13.4-30.3-18.1-7.8-3.1-15.9-5.1-23.8-5.1q-1.3 0-2.2.2-.8.2-1.5.6c-.9.4-1.7 1.1-2.5 2.3q-.8 1.1-1.5 2.8c-.6 1.6-1.1 3.5-1.5 5.7-.5 2.9-.7 6.3-.7 9.9 0 7.1.9 15.2 2.2 23.3 1.3 8.2 3.1 16.4 4.9 23.7 1.5 6 3 11.4 4.2 15.7zm134.9 172.7c28.5 0 54.9-7.5 76.7-20.2 21.9-12.8 39.1-30.7 49.4-51.6 6.8-14 10.6-29.2 10.6-45.3 0-16-3.8-31.3-10.6-45.2-6.9-14-16.8-26.6-29.1-37.2-10.2-8.8-22.1-16.3-35.1-22q-.2 0-.4-.1c-18.5-8-39.4-12.5-61.5-12.5-28.5 0-54.9 7.4-76.8 20.2-21.8 12.7-39.1 30.7-49.3 51.6-6.8 13.9-10.6 29.2-10.6 45.2 0 16.1 3.8 31.3 10.6 45.3 6.8 13.9 16.8 26.5 29.1 37.2 24.7 21.3 59 34.6 97 34.6zm202.7-21.6c-5.4-19.7-25.8-17.6-25.8-17.6 16.5-8 27.4-2.2 33.5 3.6q.6-2.7.6-5.6c0-4.4-1-8.5-3-12.3-2-3.8-5-7.4-8.7-10.4-7.5-6.1-18.1-10.1-30-10.1-6.1 0-12.1 1.2-17.5 3.3-5.5 2-10.3 4.9-14.3 8.4-2.6 2.2-4.8 4.7-6.4 7.3-7 11-15.7 21.1-25.9 29.9q-4 3.5-8.4 6.7.5.5 1 1.1c1.9 2.4 3.4 5.1 4.3 8.1.7 2 1 4 1 6.1 0 2.3-.4 4.6-1.2 6.8-.7 2.1-1.8 4.1-3.1 6-2.6 3.8-6.2 7-10.4 10q-4.3 2.9-9.5 5.4c-4.7 2.2-9.8 4.2-15.5 5.9-7.5 2.4-15.8 4.3-24.7 5.7q-6 1-12.3 1.6c1.1 3.3 1.7 6.9 1.7 10.6 0 6.7-2 13-5.5 18.2-3.6 5.2-8.5 9.4-14.4 11.8-3.9 1.7-8.2 2.6-12.7 2.6-6.7 0-13.1-2-18.3-5.6-5.2-3.5-9.3-8.5-11.8-14.3-1.6-3.9-2.5-8.2-2.5-12.7 0-4.1.7-8 2.1-11.7q-4.6-.6-8.9-1.4c-13.3-2.5-25.1-6-34.6-10.5-6.4-3-11.7-6.5-16-10.5-2.4-2.3-4.4-4.8-5.9-7.5q-.4-.7-.7-1.4c-6.1 5-12.2 11-17.7 18-7.9 10-14.5 21.9-18.6 36.1-2.8 9.5-4.3 19.9-4.3 31.5 0 5.5.8 10.9 2.4 16.2 1.6 5.3 3.9 10.4 6.8 15.2 5.9 9.7 14.1 18.4 23.4 25.4 6.2 4.6 12.9 8.4 19.5 11.3 9 3.8 17.9 5.8 25.7 5.8 4.2 0 8.2-.6 11.6-1.8 3.4-1.1 6.4-2.8 9-5.2 2.7-2.5 4.6-5.3 5.9-8.1q1.9-4.4 1.9-9.1c0-2.8-.5-5.7-1.5-8.6-1-2.9-2.5-5.8-4.5-8.6-4-5.6-10-10.7-17.8-14.3-6.4-3-11.3-6.6-14.9-10.6-3.5-4-5.7-8.5-6.8-12.7-.8-2.8-1-5.6-1-8.1 0-4.9 1-9.1 2-12.1s2-4.8 2.1-5.1c1.7-3 5.5-4.1 8.6-2.5 3 1.7 4.1 5.5 2.5 8.6l-.1.1q-.1.1-.2.5c-.3.6-.6 1.4-1 2.4-.7 2.1-1.4 5-1.4 8.1 0 2.4.4 4.9 1.5 7.4s2.9 5.1 5.9 7.6c2.1 1.7 4.7 3.4 8.1 5 8.8 4.1 16 9.8 21.3 16.4h69.1c3.4 0 6.7 1.1 9.3 2.8 2.6 1.8 4.7 4.3 6 7.3.8 2 1.3 4.2 1.3 6.4v83.7q3.4-2.5 7.4-4.4c3.9-1.9 8.1-3.4 12.7-4.5 6-1.5 12.6-2.3 19.5-2.3 6.8 0 13.2.8 19.2 2.2 6 1.5 11.4 3.6 16.2 6.3q2.5 1.4 4.6 3c6.3-13.3 8.7-26.2 8.7-38.3 0-11-2-21.5-5-31-3.1-9.5-7.2-18-11.4-25.2-8.2-14.2-16.6-23-16.8-23.2q-.4-.4-.7-.9c-8.4-.6-17.2-3.1-26.2-7.7-3.1-1.6-4.3-5.4-2.7-8.5 1.6-3.1 5.4-4.3 8.5-2.7 8.8 4.5 16.8 6.4 24.2 6.4 4.7 0 9.1-.7 13.3-2.1 4.2-1.4 8.2-3.4 12-6 7.5-5 14.1-12.3 19.3-20.6 3.4-5.5 6.2-11.4 8.3-17.4 2.7-8 4.2-16.1 4.2-23.3 0-3.9-.5-7.4-1.3-10.6-13-.5-24.9-4.7-34.1-11.6-2.7-2.1-3.3-6-1.2-8.8 2.1-2.8 6-3.3 8.8-1.3 7.4 5.6 17.5 9.2 28.8 9.2q3.3 0 6.4-.4c-6.7-16.1-24.7-14.3-24.7-14.3 23.8-11.5 36.1 5.7 38.9 10.4q1.7-.8 3.2-1.6c3.7-2.1 6.9-4.6 9.6-7.3zM727 441.8c7-.5 13.8-1.3 20.1-2.4 11.9-2.1 22.4-5.1 30.7-8.6 5.5-2.3 10.1-4.9 13.4-7.5 1.9-1.5 3.4-3 4.5-4.4 1.3-1.6 2.1-3.1 2.4-4.4q.3-1.1.3-2.1c0-.8-.1-1.6-.4-2.4q-.4-1.2-1.2-2.6-1-1.6-2.6-3.2c-24.4 15-54.2 23.8-86.3 23.9-30.7 0-59.3-8.1-83.1-22q-1.6-.9-3.2-1.9-.9.9-1.6 1.7c-1.2 1.5-1.9 2.9-2.3 4.1-.2.8-.3 1.6-.3 2.4 0 .9.1 1.8.4 2.7q.5 1.4 1.6 3c1.4 2.1 3.8 4.4 7.2 6.7 2.2 1.5 4.8 3 7.8 4.4 4 2 8.6 3.7 13.8 5.3 6.8 2.2 14.6 3.9 23 5.3q4.6.7 9.4 1.3c2.9-2.9 6.3-5.2 10.1-6.8 3.9-1.7 8.2-2.6 12.7-2.6 6.7 0 13 2.1 18.3 5.6q2.9 2 5.3 4.5zm-72.7 210.7c0-1.3-.2-2.5-.7-3.8q-.8-1.9-2.4-3.9c-2.2-2.7-5.7-5.3-10.2-7.5-3-1.4-6.4-2.7-10.2-3.6-5-1.2-10.6-1.9-16.5-1.9-5.8 0-11.3.6-16.2 1.8-5 1.2-9.4 3-13 5-2.3 1.4-4.4 2.9-6 4.4-2.1 2.1-3.4 4.1-4.1 6.1-.4 1.1-.6 2.2-.6 3.4 0 1.3.2 2.5.7 3.8q.8 1.9 2.4 3.9c2.2 2.6 5.7 5.3 10.2 7.4 1.9 1 4.1 1.8 6.4 2.6v-17.7c0-3.5 2.8-6.3 6.3-6.3 3.4 0 6.2 2.8 6.2 6.3v20.3q3.8.4 7.7.4 4 0 7.7-.4v-20.3c0-3.5 2.9-6.3 6.3-6.3 3.5 0 6.3 2.8 6.3 6.3v17.7c3.4-1.1 6.4-2.4 8.9-3.9 2.4-1.3 4.4-2.8 6-4.4 2.2-2 3.5-4.1 4.2-6.1.4-1.1.6-2.2.6-3.3zm5.1-61.4c-4.9 1.7-10.1 2.4-15.4 2.4-11.2 0-23-3.2-34.4-8.6-11.4-5.4-22.3-13.1-31.5-22.6l-2.6-2.8q-1.2 2.2-2.5 5c-3.5 7.7-7 18.6-7 31.7 0 6.1.7 12.6 2.6 19.5 1.3 4.8 3.1 9.9 5.6 15q3.6-2.6 8-4.7c3.8-1.9 8.1-3.4 12.6-4.5 6.1-1.5 12.7-2.3 19.5-2.3 6.8 0 13.3.8 19.3 2.2 5.9 1.5 11.4 3.6 16.2 6.3 3.1 1.8 6 3.9 8.5 6.2q.5.6 1.1 1.2zm88.2-44.5q0-1-.6-1.8c-.3-.5-.8-.9-1.4-1.1q-.6-.3-1.3-.3h-61.7c1.6 4.3 2.4 8.7 2.4 13.2 0 4.8-1 9.6-3 14.1-1.9 4.5-5 8.8-8.9 12.4l-.4.4v86q0 1 .5 1.8c.4.5.9 1 1.4 1.2q.6.2 1.3.2h68.4q1.1 0 1.8-.5c.6-.4 1-.9 1.2-1.4q.3-.6.3-1.3zm92.8 105.7c0-1.2-.2-2.5-.7-3.7q-.7-2-2.4-4c-2.2-2.6-5.6-5.3-10.1-7.4-3-1.5-6.5-2.7-10.2-3.6-5-1.3-10.6-2-16.5-2-5.8 0-11.3.7-16.3 1.9-4.9 1.2-9.3 2.9-12.9 5-2.4 1.3-4.4 2.8-6 4.4-2.2 2-3.5 4.1-4.2 6.1q-.1.4-.2.7v5.2q.1.6.4 1.2.7 1.9 2.3 3.9c2.2 2.7 5.7 5.4 10.2 7.5 1.9 1 4.1 1.8 6.4 2.5v-17.7c0-3.4 2.8-6.2 6.3-6.2s6.3 2.8 6.3 6.2v20.3q3.7.5 7.7.5 3.9 0 7.7-.5v-20.3c0-3.4 2.8-6.2 6.3-6.2 3.4 0 6.3 2.8 6.3 6.2V670c3.3-1 6.3-2.3 8.9-3.8 2.4-1.4 4.4-2.9 6-4.4 2.1-2 3.5-4.1 4.2-6.1.4-1.1.5-2.2.5-3.4zM712.5 465.8c0 3.4-1.9 6.5-4.8 8v10c2.5-.5 4.8-1.5 6.9-2.9 3.2-2.2 5.8-5.3 7.3-8.9 1-2.4 1.6-5 1.6-7.8 0-4.1-1.3-8-3.5-11.2-2.1-3.2-5.2-5.7-8.8-7.2-2.4-1.1-5-1.6-7.8-1.6-4.2 0-8 1.2-11.2 3.4-3.2 2.2-5.8 5.2-7.3 8.8-1 2.4-1.6 5.1-1.6 7.8 0 4.2 1.3 8 3.5 11.3 2.1 3.2 5.2 5.7 8.8 7.2q1.7.7 3.5 1.1v-10c-2.9-1.5-4.8-4.6-4.8-8 0-5 4.1-9.1 9.1-9.1s9.1 4.1 9.1 9.1z"/><g style="opacity:.1"><path class="s3" d="M795.8 415.5q.6 1 1 1.9 1-1.5 1.3-2.9.3-1.1.3-2.1c0-.8-.1-1.6-.4-2.4q-.4-1.2-1.2-2.6-1-1.6-2.6-3.2c-24.4 15-54.2 23.8-86.3 23.9-30.7 0-59.3-8.1-83.1-22q-1.6-.9-3.2-1.9-.9.9-1.6 1.7c-1.2 1.5-1.9 2.9-2.3 4.1-.2.8-.3 1.6-.3 2.4 0 .9.1 1.8.4 2.7q.1.2.2.5.5-.8 1-1.5.7-.9 1.6-1.8l3.2 2c19.1 11.1 41.1 18.4 64.9 20.9q1-.5 2-.9c3.9-1.7 8.2-2.6 12.7-2.6 5.7 0 11 1.5 15.7 4.1 27.5-2 52.9-10.3 74.2-23.5q1.6 1.7 2.5 3.2zm-214-162.3c-6.8 13.9-10.6 29.2-10.6 45.2 0 16.1 3.8 31.3 10.6 45.3q2 4 4.3 7.9c-4.2-11.3-6.5-23.3-6.5-35.8 0-16 3.7-31.3 10.6-45.2 10.2-20.9 27.5-38.9 49.3-51.6 21.8-12.8 48.3-20.2 76.8-20.2 22.1 0 43 4.5 61.4 12.5q.2.1.4.1c13.1 5.7 25 13.2 35.1 22 10 8.6 18.4 18.4 24.8 29.3q-1.8-4.9-4-9.5c-6.9-14-16.8-26.6-29.1-37.2-10.2-8.8-22.1-16.3-35.1-22q-.2 0-.4-.1c-18.5-8-39.4-12.5-61.5-12.5-28.5 0-54.9 7.4-76.8 20.2-21.8 12.7-39.1 30.7-49.3 51.6zm-8.8-10.4q2.4-4.3 5-8.4c-1.7-7-3.4-14.7-4.6-22.5-1.3-8.1-2.2-16.2-2.2-23.2 0-3.7.2-7.1.7-10 .4-2.2.9-4.1 1.5-5.7q.7-1.7 1.5-2.8c.8-1.2 1.6-1.8 2.5-2.3q.7-.4 1.5-.6.9-.2 2.2-.2c7.9 0 16 2 23.8 5.1 9.8 4 19 9.7 26.2 15l.8-.4c-1.8-1.5-3.8-3.2-6.2-5-7.8-6.1-18.6-13.4-30.3-18.1-7.8-3.1-15.9-5.1-23.8-5.1q-1.3 0-2.2.2-.8.2-1.5.6c-.9.4-1.7 1.1-2.5 2.3q-.8 1.1-1.5 2.8c-.6 1.6-1.1 3.5-1.5 5.7-.5 2.9-.7 6.3-.7 9.9 0 7.1.9 15.2 2.2 23.3 1.3 8.2 3.1 16.4 4.9 23.7 1.5 6 3 11.4 4.2 15.7zm218.3-51.9q2.8-2.1 6-4.2c6.3-4.3 13.6-8.4 21.3-11.4 7.6-3.1 15.6-5 23.3-5 1 0 1.8.1 2.5.3.6.2 1.1.4 1.5.7.8.4 1.5 1.1 2.2 2.2q.9 1.1 1.6 2.9c.7 1.8 1.2 4.1 1.6 6.7.3 2.6.5 5.6.5 8.8q0 2.6-.1 5.5c.8-6.1 1.2-12 1.2-17.2 0-3.2-.1-6.2-.5-8.8-.4-2.6-.9-4.9-1.6-6.7q-.7-1.8-1.5-3c-.7-1-1.5-1.7-2.2-2.2-.5-.2-1-.5-1.6-.6-.6-.2-1.5-.3-2.5-.3-7.7 0-15.7 1.9-23.3 4.9-7.7 3.1-15 7.2-21.3 11.4-6.2 4.1-11.4 8.3-15.2 11.6q4 2 7.8 4.2.1.1.3.2zm-181.7 394c-11.4-5.4-22.3-13.1-31.5-22.6l-2.6-2.8q-1.2 2.2-2.5 5c-3.5 7.7-7 18.6-7 31.7 0 6.1.7 12.6 2.6 19.5q.8 3.1 1.9 6.3c-.9-4.8-1.3-9.4-1.3-13.8 0-13.1 3.6-24 7.1-31.7q1.3-2.8 2.5-4.9 1.3 1.4 2.6 2.7c9.2 9.5 20.1 17.2 31.5 22.7 11.4 5.4 23.2 8.5 34.4 8.5 4.1 0 8.2-.4 12.1-1.4v-13c-4.9 1.7-10.1 2.4-15.4 2.4-11.2 0-23-3.2-34.4-8.6zm242.3-185.7q-.3.4-.5.8c7.1 4.4 16 7.1 25.8 7.1q3.1 0 6.1-.4c-8.7-1-16.5-4.2-22.5-8.8-2.8-2-6.8-1.5-8.9 1.3z"/><path class="s3" d="M857.8 353.2c3.9-3.5 8.8-6.4 14.2-8.4 3.7-1.4 7.6-2.4 11.6-2.9q-3.1-.4-6.4-.4c-6.1 0-12.1 1.2-17.5 3.3-5.5 2-10.3 4.9-14.3 8.4-2.6 2.2-4.8 4.7-6.4 7.3-7 11-15.7 21.1-25.9 29.9q-4 3.5-8.4 6.7.5.5 1 1.1c1.9 2.4 3.4 5.1 4.3 8.1.7 2 1 4 1 6.1 0 2.3-.4 4.6-1.2 6.8-.7 2.1-1.8 4.1-3.1 6-2.6 3.8-6.2 7-10.4 10q-4.3 2.9-9.5 5.4c-4.7 2.2-9.8 4.2-15.5 5.9-7.5 2.4-15.8 4.3-24.7 5.7q-6 1-12.3 1.6c1.1 3.3 1.7 6.9 1.7 10.6 0 6.7-2 13-5.5 18.2-3.6 5.2-8.5 9.4-14.4 11.8q-3.1 1.4-6.5 2 3 .6 6.2.6c4.4 0 8.8-.9 12.7-2.6 5.8-2.4 10.8-6.6 14.3-11.8 3.5-5.2 5.6-11.5 5.6-18.2 0-3.7-.6-7.3-1.8-10.6q6.3-.6 12.3-1.6c9-1.4 17.3-3.3 24.8-5.7 5.6-1.7 10.8-3.7 15.4-5.9q5.2-2.5 9.5-5.4c4.3-3 7.9-6.2 10.5-10 1.3-1.9 2.4-3.9 3.1-6 .7-2.2 1.1-4.5 1.1-6.8 0-2.1-.3-4.1-.9-6.1-.9-3-2.4-5.7-4.4-8.1q-.4-.6-.9-1.1 4.3-3.2 8.3-6.7c10.2-8.8 19-18.9 25.9-29.9 1.7-2.6 3.9-5.1 6.5-7.3zm-96.9 277.2q3.4-2.5 7.4-4.4 2.4-1.2 4.9-2.1v-77.2c0-2.2-.4-4.4-1.3-6.4-1.2-3-3.3-5.5-6-7.3-2.6-1.7-5.8-2.8-9.2-2.8h-12.4c3.4 0 6.7 1.1 9.3 2.8 2.6 1.8 4.7 4.3 6 7.3.8 2 1.3 4.2 1.3 6.4zm51.9-11.2q-3.1 0-6.1.2c4.5.3 8.9 1 13 2 6 1.5 11.4 3.6 16.2 6.3q2.5 1.4 4.6 3 1.4-2.8 2.5-5.7-5.1-2.2-10.9-3.6c-6-1.4-12.5-2.2-19.3-2.2zM601.4 439.4c3.2-4 6.6-7.7 10.1-11.1-1.6-1.7-2.9-3.6-4-5.5q-.4-.7-.7-1.4c-6.1 5-12.2 11-17.7 18-7.9 10-14.5 21.9-18.6 36.1-2.8 9.5-4.3 19.9-4.3 31.5 0 5.5.8 10.9 2.4 16.2 1.6 5.3 3.9 10.4 6.8 15.2 5.9 9.7 14.1 18.4 23.4 25.4 6.2 4.6 12.9 8.4 19.5 11.3 9 3.8 17.9 5.8 25.7 5.8q3.1 0 5.9-.4c-6.1-.8-12.6-2.6-19.2-5.4-6.7-2.9-13.3-6.7-19.5-11.3-9.3-7-17.6-15.7-23.4-25.4-2.9-4.8-5.3-9.9-6.8-15.2-1.6-5.3-2.5-10.7-2.5-16.2 0-11.6 1.6-22 4.3-31.5 4.1-14.2 10.8-26.1 18.6-36.1zm64.9 74.4c-3.4-1.6-6.1-3.3-8.1-5-3.1-2.5-4.8-5.1-5.9-7.6-1.1-2.5-1.5-5-1.5-7.4 0-3.1.7-6 1.4-8.1.3-1 .7-1.8.9-2.4q.2-.4.3-.5v-.1c1.7-3.1.6-6.9-2.4-8.6-3.1-1.6-6.9-.5-8.6 2.5-.1.1-.4.7-.7 1.5.3 1.5.2 3.1-.6 4.6l-.1.1q-.1.1-.2.5c-.3.6-.6 1.4-1 2.4-.7 2.1-1.4 5-1.4 8.1 0 2.4.4 4.9 1.5 7.4s2.9 5.1 5.9 7.6c2.1 1.7 4.7 3.4 8.1 5 8.8 4.1 16 9.8 21.3 16.4h12.3c-5.2-6.6-12.4-12.3-21.2-16.4z"/><path class="s3" d="M745.6 543.7q-.6-.2-1.3-.2h-61.7c1.2 3.2 1.9 6.5 2.2 9.8h49.9q.7 0 1.3.3c.5.2 1 .6 1.4 1.2q.5.7.5 1.8v116.2h6.4q1.1 0 1.8-.5c.6-.4 1-.9 1.2-1.4q.3-.6.3-1.3V546.7q0-1-.6-1.8c-.3-.5-.8-.9-1.4-1.2zm-94.4 101.1c-2.2-2.7-5.7-5.3-10.2-7.5-3-1.4-6.4-2.7-10.2-3.6-5-1.2-10.6-1.9-16.5-1.9-5.8 0-11.3.6-16.2 1.8-5 1.2-9.4 3-13 5-2.3 1.4-4.4 2.9-6 4.4-2.1 2.1-3.4 4.1-4.1 6.1-.4 1.1-.6 2.2-.6 3.4 0 1.3.2 2.5.7 3.8q.8 1.9 2.4 3.9.9 1.1 2.2 2.2-.2-1-.3-2c0-1.1.2-2.2.6-3.3.7-2 2.1-4.1 4.2-6.1 1.6-1.6 3.6-3.1 6-4.4 3.6-2.1 8-3.8 13-5 4.9-1.2 10.4-1.9 16.2-1.9 5.9 0 11.5.7 16.5 1.9 3.8 1 7.2 2.2 10.2 3.6 3.2 1.6 5.9 3.4 8 5.3q-.2-.9-.5-1.8-.8-1.9-2.4-3.9zm186.4 0c-2.2-2.7-5.7-5.3-10.1-7.5-3-1.4-6.5-2.7-10.2-3.6-5.1-1.2-10.7-1.9-16.5-1.9-5.8 0-11.3.6-16.3 1.8-5 1.2-9.4 3-12.9 5-2.4 1.4-4.4 2.9-6 4.4-2.2 2.1-3.5 4.1-4.2 6.1-.4 1.1-.6 2.2-.6 3.4 0 1.3.2 2.5.7 3.8q.8 1.9 2.4 3.9.9 1.1 2.2 2.2-.2-1-.2-2c0-1.1.2-2.2.6-3.3.6-2 2-4.1 4.1-6.1 1.6-1.6 3.6-3.1 6-4.4 3.6-2.1 8-3.8 13-5 4.9-1.2 10.4-1.9 16.2-1.9 5.9 0 11.5.7 16.5 1.9 3.8 1 7.2 2.2 10.2 3.6 3.3 1.6 5.9 3.4 8 5.3q-.2-.9-.5-1.8-.8-1.9-2.4-3.9zM695.9 452.9c3.2-2.1 7-3.4 11.2-3.4 2.8 0 5.4.6 7.8 1.6 2.5 1 4.7 2.6 6.5 4.5q-.6-1.3-1.4-2.4c-2.1-3.2-5.2-5.8-8.8-7.3-2.4-1-5-1.6-7.8-1.6-4.2 0-8 1.3-11.2 3.4-3.2 2.2-5.8 5.3-7.3 8.9-1 2.4-1.6 5-1.6 7.8 0 4.1 1.3 8 3.5 11.2q1 1.5 2.3 2.8c-1.3-2.7-2.1-5.6-2.1-8.8 0-2.8.6-5.4 1.6-7.8 1.5-3.6 4.1-6.7 7.3-8.9z"/></g><path class="s3" d="m774.1 345.9-.3-1.8.2 1.8h.1l-.3-1.8.2 1.8c.1 0 1.2-.1 3-.1 2.6 0 6.8.3 11 1.6 2.1.6 4.3 1.5 6.3 2.8 2.1 1.2 4.1 2.8 5.8 4.8 1.6 1.7 4.2 1.9 6 .4 1.8-1.6 1.9-4.3.4-6-2.4-2.7-5.1-4.9-7.8-6.5-4.1-2.5-8.3-3.9-12.1-4.6-3.8-.8-7.2-1-9.6-1-2.4 0-3.9.2-4 .2-2.3.3-4 2.4-3.7 4.7.3 2.3 2.4 4 4.8 3.7zm-4.9 12.7c.3 0 4.6.6 9.6 2.8 2.5 1.1 5.1 2.6 7.5 4.5 2.4 2 4.5 4.5 6.1 7.6 1.1 2 3.7 2.8 5.8 1.7 2.1-1.1 2.8-3.6 1.8-5.7-2.3-4.3-5.4-7.7-8.6-10.4-4.9-3.9-10.1-6.1-14.1-7.4-4.1-1.2-6.9-1.6-7.1-1.6-2.4-.2-4.5 1.4-4.7 3.8-.3 2.3 1.4 4.4 3.7 4.7zm-124.9-12.7.3-1.8-.3 1.8.3-1.8-.3 1.8s-1.1-.1-2.9-.1c-2.7 0-6.8.3-11 1.6-2.1.6-4.3 1.5-6.4 2.8-2 1.2-4 2.8-5.7 4.8-1.6 1.7-4.2 1.9-6 .4-1.8-1.6-1.9-4.3-.4-6 2.4-2.7 5-4.9 7.8-6.5 4.1-2.5 8.3-3.9 12.1-4.6 3.8-.8 7.2-1 9.6-1 2.4 0 3.8.2 4 .2 2.3.3 4 2.4 3.7 4.7-.3 2.3-2.4 4-4.8 3.7zm4.9 12.7c-.3 0-4.6.6-9.6 2.8-2.5 1.1-5.1 2.6-7.5 4.5-2.4 2-4.5 4.5-6.2 7.6-1 2-3.6 2.8-5.7 1.7-2.1-1.1-2.9-3.6-1.8-5.7 2.3-4.3 5.4-7.7 8.6-10.4 4.9-3.9 10.1-6.1 14.1-7.4 4.1-1.2 6.9-1.6 7.1-1.6 2.3-.2 4.4 1.4 4.7 3.8.3 2.3-1.4 4.4-3.7 4.7z"/><path class="s0" d="M307.6 570.7zm492.1 43.8zm101.9 192.7h-.1zm166.4 3.3v-.1zm-22.6-213.4zm174.1 18.5c3-7.4 4.4-15.2 4.5-23 0-6.6-1.1-13.2-3.3-19.6-1.7-4.8-4.1-9.5-7.2-13.8-2.3-3.3-5.1-6.3-8.2-9.1-4.8-4.1-10.5-7.4-16.7-9.6-6.2-2.2-13-3.3-20-3.2q-2.3 0-4.7.1c-8.1.5-15.9 2.5-22.7 5.9-5.1 2.6-9.7 5.9-13.6 9.7-5.8 5.8-10.1 12.6-12.8 19.6-2.5 6.5-3.7 13.2-3.9 19.8q-1.8-1.5-3.7-2.9c-3.6-2.5-7.6-4.6-11.9-5.9-4.3-1.4-8.9-2.1-13.5-2.1-6.6 0-13.2 1.4-19.3 4.1-6.2 2.7-11.9 6.6-17.1 11.5-3.6 3.5-6.8 7.2-9.9 10.9-1.5-12.8-3.7-25.8-7.6-38.1-2-6.5-4.5-12.8-7.7-18.8-3.1-5.9-6.9-11.5-11.9-16.6q-.1-.1-.2-.1 0-.1-.1-.2c-4.3-4.4-9.3-8-15-10.5-5.8-2.6-12.1-3.9-18.3-3.9-5.6 0-11 1-16.1 2.7h-.1l-.1.1c-2.9 1-5.7 2.3-8.3 3.9-4.6 2.8-8.4 6.5-11.2 10.5-2.2 3-3.8 6.1-5.1 9.2-1.9 4.5-2.9 9-3.5 13.3-.6 4.2-.9 8.3-.9 12.3.1 5 .4 9.9.8 14.3-.6-.5-1.1-.9-1.7-1.4h-.1c-15.2-11.2-33.2-17-51.4-17-14.9 0-29.9 3.9-43.4 11.8-13.4 7.9-25.2 19.8-33.9 35q0 .1-.1.1c-1.4 2.6-5.1 2.6-6.6 0l-.2-.4v-.1h-.1c-4.1-7.2-8.8-13.6-14-19.4-7.8-8.7-16.9-15.7-27-20.7-10-4.9-21.1-7.6-32.5-7.6-5.9 0-12 .8-17.9 2.2-8 2-15.7 5.3-23.1 9.8q-.3-.4-.5-.7c-4.7-5.8-10.7-10.5-17.2-13.6-6.5-3.1-13.6-4.6-20.4-4.6-7.5 0-14.7 1.7-21.3 4.7-9.9 4.6-18.5 12.1-24.5 21.9-2.1 3.5-3.9 7.2-5.4 11.1-4.4-6-9.5-11.3-15.1-15.9-9.4-7.6-20-13.1-31.2-16.7-11.1-3.6-22.8-5.4-34.6-5.4-14.6 0-29.3 2.7-43.1 8.4-6.9 2.8-13.5 6.3-19.8 10.6-4.6 3.3-9.1 6.9-13.2 11q-1.6-7.8-3.7-15.2c-2.7-9.6-6.2-18.6-11-26.9-2.4-4.1-5.1-8-8.4-11.7-3.2-3.6-6.9-7-11.2-9.8l-.2-.1-.2-.1c-3.4-2.2-7.2-3.8-11-4.9-3.9-1.1-7.8-1.6-11.7-1.6-3.8 0-7.4.5-10.9 1.3-6.2 1.5-11.7 4-16.9 7.2-7.8 4.7-14.7 10.9-21.1 18.2-6.5 7.2-12.5 15.7-18 25.1-4.1 7-8.2 14.4-12.3 21.6-4 7.1-7.8 14-11.5 20.4-3.8-10.6-7.7-21.7-11.3-31.6-2.1-5.9-4.1-11.4-5.9-16.3-1.7-4.8-3.3-8.9-4.6-12.2-2.3-5.8-5-11.2-8.4-16-2.5-3.6-5.4-7-8.6-9.9-4.8-4.5-10.3-8-16.3-10.3-5.9-2.3-12.1-3.4-18.2-3.4-7.7 0-15.2 1.8-22 4.6-6.8 2.9-13.1 6.9-18.8 11.7l-.1.1-.1.1c-10.1 8.8-17.8 19.7-24.1 31.7-4.7 9.1-8.5 18.8-11.7 29-4.8 15.3-8.2 31.7-10.4 48.5-2.2 16.8-3.3 34-3.3 50.9 0 18.3 1.3 36.2 3.6 52.8 1.2 8.3 2.6 16.2 4.4 23.8 1.7 7.5 3.8 14.7 6.2 21.3v.1h.1c2.3 6.5 5.7 12.4 9.9 17.4 3.1 3.7 6.7 6.9 10.5 9.6 5.7 4 11.8 6.7 17.9 8.3 6.2 1.6 12.2 2.3 18.1 2.3q1.6 0 3.3-.1c7.6-.3 15-1.9 21.9-4.7 5.2-2.1 10-4.9 14.5-8.3 6.6-5.2 12.2-11.9 16-19.7 3.8-7.8 5.9-16.7 5.9-25.9q0-5.6-1-11.3v-.1c-.6-3.2-1.4-6.2-2.2-9.2-1.6-5.1-3.4-10.1-5.3-15.1-2.9-7.5-6-15.1-8.6-23.1-2.2-6.5-4.1-13.1-5.4-19.9 2.1 4.6 4.4 9.2 6.8 13.7l.1.1h-.1c2.3 4.1 4.6 7.8 7.1 11.3 1.9 2.6 3.9 5.1 6 7.4 3.3 3.5 7.1 6.7 11.9 9.3 2.4 1.2 5 2.3 7.8 3.1 2.8.7 5.8 1.1 8.8 1.1 2.6 0 5.2-.3 7.7-.9 4.3-1 8.2-2.8 11.6-4.9 5-3.2 8.9-7.1 12.4-11.3q1.6-2 3.1-4.1-1.8 4.8-3.6 9.4c-2.2 5.9-4.4 11.3-6.2 16.6-.9 2.7-1.8 5.3-2.5 8s-1.3 5.5-1.6 8.7l-.1.1v.1q-.4 4-.4 7.8c0 9.2 1.7 18 4.9 25.9 2.5 5.9 5.8 11.3 9.7 15.9 6 7 13.3 12.3 21.3 15.8 8 3.4 16.5 5.1 25.1 5.1 6.9 0 13.9-1.1 20.6-3.3 10.2-3.3 19.8-9.2 27.8-17.6 6.6-6.8 12-15.3 15.8-25.1q1.1 1.9 2.4 3.7c5.3 7.6 12.4 14.3 21 19.3 8.5 5.1 18.4 8.6 29.2 10.5l1.1.2h1q3.8.3 7.6.3c10 0 19.8-1.5 29-4.4 7.3-2.3 14.2-5.4 20.8-9.3q1.5 1.6 3.2 3c3.6 3.1 7.8 5.5 12.1 7 4.3 1.6 8.6 2.4 12.9 2.8h.5q1.6.1 3.2.1c3.4 0 6.9-.3 10.3-1 5.9-1.3 11.7-3.8 16.5-7.3 2.2-1.7 4.2-3.6 6-5.6.3.3.6.7 1 1 5.4 5.1 11.7 8.7 18.2 11 6.5 2.3 13.2 3.4 20 3.4 4.7 0 9.5-.5 14.2-1.6 7-1.7 14-4.7 20.3-9.4 3.2-2.3 6.1-5.1 8.8-8.3 2.6-3.1 4.9-6.6 6.7-10.4l.1-.1v-.1q.9-1.9 1.7-3.8c2.4 5.3 5.7 10.1 9.4 14.1 5.8 6.2 12.7 10.8 20.1 13.8 7.4 3 15.2 4.4 23 4.4 6.7 0 13.4-1 20-3.3 6.3-2.1 12.5-5.4 18.1-9.9l.1-.1q.2-.1.3-.2c4-3.2 7.2-6.8 9.9-10.6 2.4-3.4 4.5-6.9 6.2-10.5q2.2-4.8 3.9-9.7c3.4 5.1 7.2 10 11.5 14.5 7.5 8 16.5 14.9 26.9 19.9 10.4 4.9 22.2 7.7 34.6 7.7 8.5 0 17.2-1.3 25.9-3.9 7.7-2.2 15.3-5.5 22.4-9.8q5-3 9.6-6.8.7 2 1.7 4c1.9 3.9 4.3 7.5 7.2 10.6 4.3 4.6 9.5 8.3 15.2 10.6 5.7 2.4 11.9 3.6 18.1 3.6 4.3 0 8.7-.5 13-1.7l.9-.2 1-.4c4.1-1.5 7.9-3.4 11.4-5.7 6.1-3.9 11.1-8.8 15.1-13.8 3.9-4.9 7-10.1 9.6-15.2q1.2 1 2.3 2c5.8 5 11.7 10 17.9 14.6 3.1 2.3 6.3 4.4 9.7 6.4 3.5 1.9 7.1 3.7 11.4 5 4.2 1.4 8.5 2 12.7 2 5.6 0 11-1.1 15.9-3.1 7.4-2.9 13.8-7.7 18.7-14.2l1-1.4c2.2 3.1 4.7 6 7.6 8.8l.1.2.2.1c4.2 4 9.1 6.7 13.9 8.4 4.8 1.6 9.6 2.4 14.4 2.4q6.6 0 13-2c3.2-.9 6.3-2.2 9.4-4 2.2-1.4 4.5-3 6.5-4.9 3.2-2.8 6-6.4 8.1-10.6 2.1-4.2 3.4-9 3.7-13.9.3-5.8.6-12.5 1.2-19.8.7-10.8 1.8-22.9 3.8-34.6 1.9-11.7 4.6-23 8.2-32.2l.3-.8.2-.8c1.8-6 2.8-12 2.8-17.9 0-7.4-1.6-14.7-4.5-21.1-1.7-3.5-3.7-6.7-6.1-9.6q3.7-2.5 6.8-5.5c6.1-5.9 10.7-13 13.6-20.3zm-55.7-78.2h.2z"/><path class="s3" d="M300.1 691.6c-15.3 27-29 26.7-44-.7-10.3-19-18.7-44-22.3-51.3-20.4-39.4-38.4-31.4-26.7 47 4.6 30.7 19.3 55.3 22.3 72.3 4.4 25.4-13.3 43.1-36.3 44.1-15.7.6-31.4-5-38-23.1-21.7-59.6-18.4-192.3 29-233.7 19.6-16.7 45.3-16.3 57.3 14.7 4.7 11.6 14.7 40.3 23.7 65.3 17.3 46.7 14 39 37.7-2 7.6-13.3 16-28.6 24-42.3 18.7-32 42-48 58.7-37.7 43 28 31.3 184.4 19.3 223.1-16.3 54-89 46-83.7-9.7 1.3-12.7 15-37.7 23-70 8.4-34.7 17-121.7-26-28.4z"/><path fill-rule="evenodd" class="s3" d="M470.5 670.2c-3.4 3-7.7 5-12 6-15.7 3.7-29-7-30-23.6-1.4-17 4.6-31.7 16-44.4 32.7-37 100.7-35.7 127.7 3.7 26.3 38.7 21 101 19 151.4-.7 16-7.3 28.6-25.4 27.6-12.3-1-18.3-8-21.3-22.6-5 3.3-10.3 7-15.7 10.3-14.6 9.7-30.6 14.3-48.6 13-66.4-11.3-52.4-95 8.6-108.7 15.7-3.7 31.7-4.7 46.7-4.3 5-52.7-40-30.7-65-8.4zm16.7 68.7c-5.7 20 46.3 8.4 54.3-3.3-.3-4.3-1.3-15.3-1.7-19.3-15.6-3.7-47.6 2.6-52.6 22.6z"/><path class="s3" d="M773.6 625.2c10.6 18.7 14.3 39.4 15.6 60.4 1.4 24.3.4 80.7-20.6 97-23.7 19.4-66.4 5-59-34.3 3.3-18.4 11.6-47 12.3-65.7 2-63-19.7-61.7-35.4-34.4-19 34 .7 91.7-16.6 127.1-12.7 26.7-61.4 21.7-60.4-9.7.7-17.7 2.7-90.7-2.3-139.7-4.3-48.4 55.3-64 62-11.3 36-40.1 79.7-31.7 104.4 10.6zm131 91.7c15-13 35.7-9.6 35.7 11.4.3 31.3-21 50.6-45 57.6-42.7 12.7-73.7-17-85.4-52.6-11.3-34.4-9-76.4 9-107.7 22.4-39 66.4-45 96.4-23 16.6 12.3 26.3 30 26.3 48.6-.3 17.4-7.7 34-18.7 41.7-23.6 16.4-52.6 8.7-68.3-7-3 39.7 21.3 56 50 31zm156.1-103.7c26.3-25 57 3.4 37.3 34.4-12.3 18.6-29.7 32.6-44.4 49-4.3 4.7-7.6 9.7-3.3 13 18.7 14.7 52.7 34.3 51.4 61-.7 13.3-14.4 22.7-27 18.7-16.1-5-37.7-29.7-58.1-43.4-5.3 19-13.6 43-33.6 50.4-15 4-29-4.7-30-20-.7-10 1.3-20 2-30 3.6-48.7 2.6-97.4-.7-145.1-1.7-17.6-9-50.7 11.3-57.7 10-3.3 19.4-1.3 26.7 6.4 22.7 22.6 23.7 83 24 116.7 17.3-15.4 31.7-41.4 44.4-53.4z"/><path fill-rule="evenodd" class="s3" d="M1171 776.9c-.7 14-21.7 19.1-31.7 9.7-26.3-25.7-25-93-9.6-124.4 15-30.3 68.3-19.3 56 21.4-11.7 30-13.4 70.3-14.7 93.3zm-5.7-217.4c49.4-3.3 47.4 68.7 1.4 69.7-43.7 0-45.7-67-1.4-69.7z"/><path class="s2" d="M862.6 661.8c-1.8-2.9-2.8-6.1-3.1-9.3-.5-4.8.5-9.7 2.9-14.2 2.3-4.5 6-8.5 10.8-11.4q2.4-1.4 4.9-2.3 2.5-1 5.1-1.4c5.1-.9 10.2-.4 14.7 1.4 2.2 1 4.3 2.2 6.2 3.8 1.8 1.5 3.5 3.4 4.8 5.6 1.7 2.8 2.7 6 3 9.2.5 4.8-.5 9.7-2.8 14.2-1.5 2.9-3.6 5.6-6.1 7.9-.9.7-2 1.1-3 1-1.1-.1-2-.6-2.6-1.5l-5.4-9c-.6-1.1-.5-2.4.2-3.5.6-1 1-2.2 1.1-3.3 0-1.2-.2-2.3-.8-3.3-.9-1.5-2.4-2.4-4-2.7-1.7-.4-3.5-.1-5.1.9-1.7 1-2.8 2.5-3.3 4.1-.5 1.6-.3 3.3.6 4.8.6 1 1.4 1.8 2.5 2.2 1 .5 2.2.7 3.4.6 1.3-.1 2.5.5 3.2 1.5l5.4 9.1c.5.8.6 1.9.1 2.9-.4 1-1.2 1.8-2.3 2.2q-2.3.8-4.7 1.2c-5.1.9-10.2.4-14.8-1.4-4.4-1.9-8.3-5-10.9-9.3z"/></g></svg>
