<svg width="135" height="135" viewBox="0 0 135 135" fill="none" xmlns="http://www.w3.org/2000/svg"><g filter="url(#a)"><path d="M67.5 3C100.913 3 128 30.087 128 63.5S100.913 124 67.5 124 7 96.913 7 63.5 34.087 3 67.5 3Z" fill="url(#b)" stroke="#fff" style="stroke:#fff;stroke-opacity:1" stroke-width="6"/><path d="M46.355 55.994a9.36 9.36 0 0 0 9.361 9.36 9.36 9.36 0 0 0 9.361-9.36 9.36 9.36 0 0 0-9.36-9.361 9.36 9.36 0 0 0-9.362 9.36Zm23.595 0a9.36 9.36 0 0 0 9.36 9.36 9.36 9.36 0 0 0 9.361-9.36 9.36 9.36 0 0 0-9.36-9.361 9.36 9.36 0 0 0-9.362 9.36Z" fill="#fff" style="fill:#fff;fill-opacity:1"/><path d="M111.863 100.085V68.181H99.826C97.392 84.272 84.118 95.994 67.5 95.994c-18.362 0-33.032-14.31-33.032-33.02s14.67-33.289 33.036-33.289c16.008 0 29.202 11.082 32.33 26.316h12.037C108.578 34.344 89.68 17.757 67.5 17.757c-24.507 0-44.37 20.247-44.37 45.214s19.863 45.214 44.37 45.214c15.421 0 26.174-7.141 32.771-18.388.157.046.318.08.468.126v20.501a57.655 57.655 0 0 0 11.124-10.343v.004Z" fill="#fff" style="fill:#fff;fill-opacity:1"/></g><defs><radialGradient id="b" cx="0" cy="0" r="1" gradientUnits="userSpaceOnUse" gradientTransform="matrix(0 115 -115 0 67.5 6)"><stop stop-color="#28D358" style="stop-color:color(display-p3 .1569 .8275 .3451);stop-opacity:1"/><stop offset=".313" stop-color="#34C95F" style="stop-color:color(display-p3 .2039 .7882 .3725);stop-opacity:1"/><stop offset=".639" stop-color="#5AB783" style="stop-color:color(display-p3 .3529 .7176 .5137);stop-opacity:1"/><stop offset=".817" stop-color="#94A8D3" style="stop-color:color(display-p3 .5804 .6588 .8275);stop-opacity:1"/><stop offset="1" stop-color="#A3A2FF" style="stop-color:color(display-p3 .6384 .6344 1);stop-opacity:1"/></radialGradient><filter id="a" x="0" y="0" width="135" height="135" filterUnits="userSpaceOnUse" color-interpolation-filters="sRGB"><feFlood flood-opacity="0" result="BackgroundImageFix"/><feColorMatrix in="SourceAlpha" values="0 0 0 0 0 0 0 0 0 0 0 0 0 0 0 0 0 0 127 0" result="hardAlpha"/><feOffset dy="4"/><feGaussianBlur stdDeviation="2"/><feComposite in2="hardAlpha" operator="out"/><feColorMatrix values="0 0 0 0 0 0 0 0 0 0 0 0 0 0 0 0 0 0 0.04 0"/><feBlend in2="BackgroundImageFix" result="effect1_dropShadow_543_5322"/><feBlend in="SourceGraphic" in2="effect1_dropShadow_543_5322" result="shape"/></filter></defs></svg>
