<svg width="167" height="40" viewBox="0 0 167 40" fill="none" xmlns="http://www.w3.org/2000/svg"><path d="M53.02 32.865v-.57l13.6-20.34H53.978V8.06h20.628v.586L61.084 28.955H74.28v3.91H53.02Zm24.218 0V8.061h17.814v3.893H81.855v6.116h10.898v3.893H81.855v7.012h13.197v3.894H77.238v-.004Zm20.877 0V8.061h17.814v3.893h-13.197v6.116h10.898v3.893h-10.898v7.012h13.197v3.894H98.115v-.004Zm20.879 0V8.061h10.935c1.865 0 3.394.336 4.586 1.006 1.193.672 2.082 1.528 2.662 2.574.579 1.046.872 2.125.872 3.238 0 1.365-.359 2.525-1.082 3.48-.723.953-1.702 1.596-2.941 1.93v-.864c1.735.357 3.054 1.096 3.957 2.222a5.986 5.986 0 0 1 1.349 3.84c0 1.436-.313 2.759-.94 3.858-.626 1.102-1.555 1.965-2.788 2.584-1.232.62-2.754.93-4.566.93H118.99l.004.006Zm4.673-14.899h6.205c.663 0 1.259-.113 1.782-.343.523-.23.939-.57 1.246-1.015.306-.447.459-1 .459-1.653 0-.862-.306-1.578-.919-2.151-.613-.573-1.469-.863-2.568-.863h-6.205v6.029-.003Zm0 10.989h6.798c.806 0 1.525-.147 2.165-.44.64-.293 1.139-.706 1.502-1.239.363-.533.546-1.169.546-1.902 0-.666-.159-1.262-.479-1.792-.32-.526-.786-.949-1.399-1.265-.613-.317-1.346-.473-2.202-.473h-6.935v7.114l.004-.003Zm29.508 4.427c-2.195 0-4.127-.403-5.793-1.206-1.665-.803-2.967-1.935-3.907-3.394-.939-1.46-1.409-3.168-1.409-5.133V8.097l4.674-.033v15.485c0 .93.176 1.762.526 2.498.35.736.826 1.36 1.425 1.869.6.513 1.289.899 2.069 1.162a7.49 7.49 0 0 0 2.415.396c.832 0 1.669-.136 2.441-.406a6.357 6.357 0 0 0 2.059-1.172 5.497 5.497 0 0 0 1.419-1.869c.343-.736.516-1.562.516-2.481V8.06h4.673v15.588c0 1.965-.47 3.674-1.409 5.133-.939 1.459-2.241 2.588-3.907 3.394-1.665.803-3.597 1.206-5.792 1.206Z" fill="#fff"/><path d="m39.243 9.506-3.57-6.172L21.24 28.332l9.64.01 8.367-14.546a4.29 4.29 0 0 0-.004-4.293v.003Z" fill="url(#a)"/><path d="m35.672 3.337-26.756-.01A3.603 3.603 0 0 0 5.795 5.13L3.26 9.52a4.291 4.291 0 0 0 0 4.29l3.564 6.196 4.793-8.33h19.24" fill="url(#b)"/><path d="m3.267 30.49 3.57 6.173 14.43-24.992H11.62L3.264 26.197a4.29 4.29 0 0 0 .003 4.294Z" fill="url(#c)"/><path d="m6.838 36.663 26.756.01a3.603 3.603 0 0 0 3.121-1.803l2.535-4.39a4.292 4.292 0 0 0 0-4.29l-3.57-6.185-4.8 8.34-19.229-.02" fill="url(#d)"/><defs><linearGradient id="a" x1="44.223" y1="4.893" x2="23.312" y2="25.807" gradientUnits="userSpaceOnUse"><stop stop-color="#F6A23A"/><stop offset=".92" stop-color="#F15729"/><stop offset="1" stop-color="#F15729"/></linearGradient><linearGradient id="b" x1="-4.677" y1="13.397" x2="42.701" y2="6.795" gradientUnits="userSpaceOnUse"><stop stop-color="#fff"/><stop offset=".04" stop-color="#FCFEFF"/><stop offset=".06" stop-color="#F2FDFF"/><stop offset=".08" stop-color="#E2FCFF"/><stop offset=".1" stop-color="#CCF9FF"/><stop offset=".12" stop-color="#AEF6FF"/><stop offset=".13" stop-color="#8BF3FF"/><stop offset=".15" stop-color="#60EEFF"/><stop offset=".16" stop-color="#30E9FF"/><stop offset=".18" stop-color="#00E5FF"/><stop offset=".83" stop-color="#2A44FF"/></linearGradient><linearGradient id="c" x1="-5.966" y1="39.361" x2="28.345" y2="5.053" gradientUnits="userSpaceOnUse"><stop stop-color="#F6A23A"/><stop offset=".92" stop-color="#F15729"/><stop offset="1" stop-color="#F15729"/></linearGradient><linearGradient id="d" x1="45.799" y1="28.812" x2="-.543" y2="27.906" gradientUnits="userSpaceOnUse"><stop stop-color="#fff"/><stop offset=".04" stop-color="#FCFEFF"/><stop offset=".06" stop-color="#F2FDFF"/><stop offset=".08" stop-color="#E2FCFF"/><stop offset=".1" stop-color="#CCF9FF"/><stop offset=".12" stop-color="#AEF6FF"/><stop offset=".13" stop-color="#8BF3FF"/><stop offset=".15" stop-color="#60EEFF"/><stop offset=".16" stop-color="#30E9FF"/><stop offset=".18" stop-color="#00E5FF"/><stop offset=".83" stop-color="#2A44FF"/></linearGradient></defs></svg>
