<svg width="14" height="14" fill="none" xmlns="http://www.w3.org/2000/svg"><path d="M11.317 2.401H2.673v7.857h8.644V2.4Z" fill="#fff"/><path fill-rule="evenodd" clip-rule="evenodd" d="M13.996 7c0 3.86-3.132 6.99-6.996 6.99A6.993 6.993 0 0 1 .005 7C.005 3.14 3.137.01 7 .01A6.993 6.993 0 0 1 13.996 7ZM5.018 9.782H3.66c-.285 0-.426 0-.512-.055a.345.345 0 0 1-.156-.27c-.005-.101.065-.225.206-.472L6.55 3.08c.143-.25.215-.376.306-.422a.346.346 0 0 1 .313 0c.09.046.163.172.306.422l.689 1.203.003.006c.154.269.233.405.267.548a1.02 1.02 0 0 1 0 .478c-.035.144-.112.281-.268.554L6.405 8.98l-.005.009c-.155.271-.233.409-.342.512a1.025 1.025 0 0 1-.418.242c-.143.04-.302.04-.622.04Zm3.428 0h1.946c.287 0 .431 0 .517-.057a.344.344 0 0 0 .156-.271c.005-.098-.064-.217-.199-.45l-.014-.024-.974-1.666-.011-.019c-.137-.231-.206-.348-.295-.393a.342.342 0 0 0-.311 0c-.09.046-.162.168-.304.414l-.971 1.666-.004.005c-.142.246-.213.368-.208.469.007.11.064.21.157.271.084.055.228.055.515.055Z" fill="#E84142"/></svg>
