<svg width="14" height="14" viewBox="0 0 14 14" fill="none" xmlns="http://www.w3.org/2000/svg">
<path opacity="0.4" d="M4.66663 6.41666C4.66663 6.77418 4.86861 7.10097 5.18838 7.26086L6.99996 8.16666V6.96931C6.99996 5.86938 6.99996 5.31937 7.34168 4.97767C7.68339 4.63596 8.23336 4.63596 9.33329 4.63596H9.70441L7.6166 2.40446C6.81813 1.55102 6.4189 1.1243 5.91274 1.1243C5.40663 1.1243 5.00738 1.55102 4.2089 2.40446L2.12109 4.63596H2.33333C3.43326 4.63598 3.98322 4.63598 4.32492 4.97769C4.66663 5.3194 4.66663 5.31673 4.66663 6.41666Z" fill="#7B3FE4"/>
<path d="M9.41278 7.61403C9.41278 7.23854 9.19806 6.89618 8.86002 6.73273L7 5.83334V7.03069C7 8.13063 7.07945 8.68065 6.73773 9.02231C6.39608 9.36403 5.84605 9.36403 4.74613 9.36403H4.375L6.46281 11.5956C7.26128 12.449 7.66051 12.8757 8.16667 12.8757C8.67283 12.8757 9.07206 12.449 9.87053 11.5956L11.9583 9.36403H11.7461C10.6462 9.36403 10.0962 9.36403 9.7545 9.02231C9.41278 8.68059 9.41278 8.71396 9.41278 7.61403Z" fill="#7B3FE4"/>
</svg>
