<svg width="14" height="14" fill="none" xmlns="http://www.w3.org/2000/svg"><path opacity=".4" d="M4.667 6.417c0 .357.202.684.521.844L7 8.167V6.969c0-1.1 0-1.65.342-1.991.341-.342.891-.342 1.991-.342h.371L7.617 2.404c-.799-.853-1.198-1.28-1.704-1.28s-.906.427-1.704 1.28L2.12 4.636h.212c1.1 0 1.65 0 1.992.342.342.341.342.339.342 1.439Z" fill="#7B3FE4"/><path d="M9.413 7.614a.979.979 0 0 0-.553-.881L7 5.833v1.198c0 1.1.08 1.65-.262 1.991-.342.342-.892.342-1.992.342h-.371l2.088 2.232c.798.853 1.198 1.28 1.704 1.28s.905-.427 1.704-1.28l2.087-2.232h-.212c-1.1 0-1.65 0-1.992-.342-.341-.341-.341-.308-.341-1.408Z" fill="#7B3FE4"/></svg>
