<svg viewBox="0 0 16 16" fill="none" xmlns="http://www.w3.org/2000/svg"><path d="M8.05 6.283a1.21 1.21 0 1 0 0-2.42 1.21 1.21 0 0 0 0 2.42Z" fill="#FFFEFF"/><path d="M0 3.258v3.644c0 .465.478.76.887.577l4.137-1.885A.634.634 0 0 0 5.01 4.44L.887 2.667a.64.64 0 0 0-.887.59Z" fill="url(#a)"/><path d="M16 6.902V3.258a.63.63 0 0 0-.887-.577l-4.137 1.885a.633.633 0 0 0 .014 1.154l4.137 1.773a.638.638 0 0 0 .873-.59Z" fill="url(#b)"/><path d="M9.935 2.582c.38 0 .619-.31.506-.675C10.131.837 9.175.063 8.035.063c-1.14 0-2.097.774-2.406 1.844-.113.366.126.675.506.675h3.8ZM5.263 8.225l-1.238 6.74a.818.818 0 0 0 .802.972h6.43a.812.812 0 0 0 .803-.971L10.78 8.21a.814.814 0 0 0-.803-.675l-3.926.014a.811.811 0 0 0-.788.675Z" fill="#FEFF3D"/><defs><linearGradient id="a" x1="0" y1="5.077" x2="5.403" y2="5.077" gradientUnits="userSpaceOnUse"><stop stop-color="#fff" stop-opacity="0"/><stop offset="1" stop-color="#fff"/></linearGradient><linearGradient id="b" x1="16" y1="5.083" x2="10.597" y2="5.083" gradientUnits="userSpaceOnUse"><stop stop-color="#fff" stop-opacity="0"/><stop offset="1" stop-color="#fff"/></linearGradient></defs></svg>
