<svg viewBox="0 0 24 21" fill="none" xmlns="http://www.w3.org/2000/svg">
<path d="M1.00001 6.68791C1.00615 3.90554 3.01906 1.53473 5.76127 1.0777L5.76428 1.07719C7.54059 0.77557 9.43138 1.36865 10.7299 2.66911L10.731 2.67024L11.2935 3.23181L12.0281 3.96516L12.7335 3.20376L13.2359 2.6616C14.5818 1.36041 16.4301 0.776708 18.2388 1.0777L1.00001 6.68791ZM1.00001 6.68791V6.97255C1.00001 8.64105 1.69286 10.2369 2.91264 11.3739L2.91318 11.3744L11.3839 19.2821M1.00001 6.68791L11.3839 19.2821M12.6161 19.2821L21.0863 11.3744L21.0874 11.3734C22.3083 10.2369 23 8.64146 23 6.97255V6.70067C23 3.91272 20.986 1.53552 18.2389 1.07773L12.6161 19.2821ZM12.6161 19.2821C12.4502 19.437 12.2302 19.5241 12 19.5241C11.7698 19.5241 11.5498 19.437 11.3839 19.2821M12.6161 19.2821H11.3839" stroke="white" stroke-width="2"/>
</svg>
