<svg data-name="Layer 1" xmlns="http://www.w3.org/2000/svg" xmlns:xlink="http://www.w3.org/1999/xlink" viewBox="0 0 322.4 194.6"><defs><linearGradient id="b" x1="728.58" y1="394.83" x2="728.58" y2="771.74" gradientUnits="userSpaceOnUse"><stop offset=".01" stop-color="#00bfe1"/><stop offset=".97" stop-color="#2738ab"/></linearGradient><linearGradient id="a" x1="657.01" y1="527.42" x2="681.29" y2="547.73" gradientTransform="translate(-.94 -.61)" gradientUnits="userSpaceOnUse"><stop offset=".03" stop-color="#1b1464"/><stop offset="1" stop-color="#1b1464" stop-opacity="0"/></linearGradient><linearGradient id="c" x1="748.73" y1="568.31" x2="737.17" y2="584.71" gradientTransform="rotate(180 749.5 580.045)" xlink:href="#a"/><linearGradient id="d" x1="781.33" y1="718.83" x2="790.02" y2="697.36" gradientTransform="rotate(180 749.5 580.045)" xlink:href="#a"/><linearGradient id="e" x1="871.42" y1="394.83" x2="871.42" y2="771.74" xlink:href="#b"/><linearGradient id="f" x1="753.2" y1="227.52" x2="777.48" y2="247.83" gradientTransform="rotate(180 848.565 367.33)" xlink:href="#a"/><linearGradient id="g" x1="652.54" y1="868.22" x2="640.97" y2="884.62" gradientTransform="translate(197.19 -426.04)" xlink:href="#a"/><linearGradient id="h" x1="685.14" y1="1018.73" x2="693.82" y2="997.26" gradientTransform="translate(197.19 -426.04)" xlink:href="#a"/></defs><path d="M814.71 466.49a2.53 2.53 0 0 0-4.14-.86l-5.12 5.12-.84.84-40.69-40.41a39.48 39.48 0 0 0-55.71 0l-57.91 58a39.76 39.76 0 0 0 0 55.94l58 57.67a39.39 39.39 0 0 0 55.65 0l13.18-13.18a19.87 19.87 0 0 0 4.87-7.21 16.53 16.53 0 0 0-2-15 16 16 0 0 0-1.95-2.32 16.54 16.54 0 0 0-23.22.1l-14.22 14.23a6.24 6.24 0 0 1-3.11 1.72 5.56 5.56 0 0 1-3.36-.2 7.74 7.74 0 0 1-3-1.89l-57.58-57.58a6.34 6.34 0 0 1-1-7.78l.3-.34c.67-.69 58.11-58 58.63-58.55a6.3 6.3 0 0 1 3.34-1.75 6.78 6.78 0 0 1 1.16-.11 6.31 6.31 0 0 1 4.5 1.87l40.57 40.29-2 2-4 4a2.53 2.53 0 0 0 .85 4.14l36.6 4.5a5.81 5.81 0 0 0 5.73-5.76Z" transform="translate(-638.8 -419.68)" style="fill:url(#b)"/><path d="M673.17 521a6.29 6.29 0 0 1-.5-7.28s-19.06 20.79-9.9 43.81l12.06 12 17.58-29.2Z" transform="translate(-638.8 -419.68)" style="fill:url(#a);opacity:.49"/><path d="M732.52 580.26C754 600 777.66 589 777.66 589a17.94 17.94 0 0 0 4.34-6.6c-3.18-1.56-26.27-18.08-26.27-18.08L742.1 578c-4.89 5.84-9.58 2.26-9.58 2.26Z" transform="translate(-638.8 -419.68)" style="fill:url(#c);opacity:.49"/><path d="M718.37 468.1s13.77-13.85 13.8-13.79 3.67-2.94 7.53-.23c0 0-22.87-18.83-47.33-7l-7.15 7.16Z" transform="translate(-638.8 -419.68)" style="fill:url(#d);opacity:.49"/><path d="M785.29 567.46a2.52 2.52 0 0 0 4.14.86l5.12-5.11.84-.85 40.69 40.42a39.47 39.47 0 0 0 55.71 0l57.91-58a39.76 39.76 0 0 0 0-55.94l-58-57.68a39.41 39.41 0 0 0-55.65 0l-13.15 13.21a19.74 19.74 0 0 0-4.93 7.18 16.58 16.58 0 0 0-.81 7.75 16.47 16.47 0 0 0 28 9.46l14.22-14.22a6.34 6.34 0 0 1 3.11-1.73 5.56 5.56 0 0 1 3.36.2 8 8 0 0 1 3 1.89l57.58 57.58a6.35 6.35 0 0 1 1 7.78l-.3.35c-.67.68-58.11 58-58.63 58.54a6.25 6.25 0 0 1-3.34 1.76 6.74 6.74 0 0 1-1.16.1 6.31 6.31 0 0 1-4.5-1.87l-40.57-40.28 2-2 4-4a2.54 2.54 0 0 0-.85-4.14l-36.6-4.49a5.79 5.79 0 0 0-5.73 5.76Z" transform="translate(-638.8 -419.68)" style="fill:url(#e)"/><path d="M926.83 513a6.3 6.3 0 0 1 .5 7.28s19.06-20.78 9.9-43.81l-12.06-12-17.58 29.2Z" transform="translate(-638.8 -419.68)" style="fill:url(#f);opacity:.49"/><path d="M867.48 453.69c-21.47-19.77-45.14-8.78-45.14-8.78a18 18 0 0 0-4.37 6.64c3.18 1.56 26.27 18.09 26.27 18.09L857.9 456c4.89-5.88 9.58-2.31 9.58-2.31Z" transform="translate(-638.8 -419.68)" style="fill:url(#g);opacity:.49"/><path d="M881.63 565.85s-13.77 13.86-13.8 13.8-3.67 2.94-7.53.23c0 0 22.87 18.82 47.33 7l7.15-7.16Z" transform="translate(-638.8 -419.68)" style="fill:url(#h);opacity:.49"/></svg>