<svg xmlns="http://www.w3.org/2000/svg" width="400" height="373.481" viewBox="0 0 400 373.481"><g fill-rule="evenodd"><path d="M295.798 29.498c-.308.178-1.469.855-2.58 1.505-3.223 1.886-11.857 6.658-15.72 8.688-1.952 1.025-3.969 2.127-4.482 2.447-.514.321-2.194 1.243-3.735 2.049-3.646 1.908-6.589 3.537-8.217 4.549-.719.447-2.567 1.463-4.108 2.258-1.541.795-3.389 1.803-4.108 2.24-.719.437-2.904 1.644-4.855 2.683a636.52 636.52 0 0 0-8.217 4.481c-8.086 4.492-9.462 5.25-11.952 6.588-1.335.718-2.729 1.704-3.098 2.192-.639.846-.677 4.731-.809 83.782-.092 55.501-.266 83.45-.526 84.575-8.777 38.034-60.573 41.148-72.891 4.383-1.602-4.783-1.535-2.101-1.712-68.572-.107-40.339-.291-61.255-.542-61.724-.368-.688-.429-.682-1.951.175-.864.487-3.839 2.113-6.612 3.615a947.082 947.082 0 0 0-9.711 5.343c-6.547 3.666-7.091 3.965-12.325 6.78a617.14 617.14 0 0 0-9.231 5.088c-2.509 1.418-4.649 2.578-4.755 2.578-.106 0-1.291.672-2.634 1.494-1.342.821-2.522 1.494-2.621 1.494-.098 0-2.406 1.233-5.128 2.74-2.722 1.508-5.58 3.04-6.35 3.404l-1.4.663-.004 48.23c-.004 52.948-.071 51.171 2.286 60.899.593 2.449 1.084 4.802 1.091 5.229.006.427.264 1.11.572 1.518.308.408.877 1.765 1.263 3.015 1.816 5.879 6.716 16.113 11.288 23.572 4.458 7.275 11.376 15.344 19.01 22.175 1.732 1.55 3.588 3.146 4.125 3.548.538.402 2.235 1.679 3.772 2.839 28.74 21.678 66.132 26.29 102.761 12.675 23.663-8.795 46.117-30.658 57.186-55.68a737.297 737.297 0 0 1 2.273-5.099c.297-.647.539-1.363.539-1.592 0-.228.15-.707.333-1.064.552-1.077 2.502-8.052 3.523-12.6 2.209-9.844 2.507-15.532 2.498-47.53-.005-15.558-.01-61.262-.011-101.564-.003-81.209.171-75.454-2.235-74.069" fill="#fafafb"/><path d="M358.139 36.909a3516.69 3516.69 0 0 1-13.501 10.114c-6.107 4.56-11.317 8.495-11.578 8.744-.26.248-.894.733-1.407 1.078-1.388.93-6.658 4.832-12.509 9.261-2.849 2.157-5.821 4.379-6.603 4.938-.783.559-2.234 1.651-3.224 2.428a89.942 89.942 0 0 1-2.862 2.158c-.583.411-2.372 1.798-3.975 3.081-1.602 1.284-3.26 2.335-3.683 2.335h-.769l.099 46.778c.054 25.729.222 46.968.372 47.199.194.298.951.177 2.614-.419 2.659-.953 13.9-5.482 16.161-6.511.821-.375 3.93-1.638 6.909-2.808 2.979-1.17 5.752-2.27 6.162-2.444 1.885-.802 9.866-4.081 11.205-4.604.822-.321 4.183-1.695 7.47-3.053 3.286-1.359 7.262-2.971 8.836-3.584 1.573-.613 3.075-1.373 3.338-1.69.5-.602.824-111.644.332-113.658-.342-1.399-.8-1.31-3.387.657M218.072 141.854a40008.64 40008.64 0 0 0-9.71 7.265 1021.244 1021.244 0 0 0-8.549 6.461c-1.746 1.342-7.376 5.563-12.511 9.381-5.136 3.818-9.758 7.268-10.271 7.666-2.2 1.707-13.309 10.017-16.025 11.987-2.18 1.58-7.368 5.558-8.961 6.871-.699.575-1.707 1.131-2.241 1.236l-.971.19v20.351c0 11.193.131 20.82.291 21.393.38 1.361 1.627 1.17 6.805-1.041a312.925 312.925 0 0 1 6.349-2.627c1.438-.567 6.9-2.785 12.138-4.928 5.239-2.144 10.647-4.294 12.019-4.78 1.372-.485 3.172-1.228 4-1.65.828-.423 1.673-.768 1.877-.768.204 0 1.43-.487 2.723-1.081 2.331-1.072 7.391-3.149 17.103-7.021 2.773-1.105 6.198-2.508 7.611-3.116 1.414-.609 2.884-1.107 3.268-1.107.678 0 .699-1.031.699-33.987 0-32.129-.036-33.986-.653-33.963-.36.013-2.606 1.484-4.991 3.268M83.287 242.982c-.925.525-2.101 1.346-2.615 1.823-.513.477-1.968 1.599-3.232 2.494-1.264.895-5.214 3.824-8.777 6.509-10.987 8.28-15.139 11.394-20.998 15.751-13.697 10.186-18.907 14.247-18.907 14.74 0 .55 2.461.026 4.669-.994 1.027-.475 2.287-.985 2.801-1.133.513-.149 2.439-.941 4.28-1.761a123.12 123.12 0 0 1 6.723-2.712c1.857-.672 5.561-2.149 8.231-3.282 2.671-1.133 5.528-2.282 6.349-2.555.822-.273 1.662-.606 1.868-.741.573-.377 6.221-2.718 11.204-4.643 2.465-.953 4.986-1.956 5.603-2.23a171.25 171.25 0 0 1 3.548-1.491c5.726-2.341 5.454-1.718 3.772-8.632-.596-2.448-1.277-5.88-1.514-7.626-.692-5.107-.534-4.923-3.005-3.517" fill="#34e8fb"/><path d="M0 186.741v186.742h400V0H0v186.741M298.537 28.106c.594.434.64 2.229.628 24.611-.006 13.278.092 24.412.218 24.742.411 1.071 1.245.655 6.294-3.136 2.736-2.054 5.142-3.735 5.346-3.735.203 0 .601-.279.883-.621.282-.342 2.613-2.187 5.181-4.101 2.568-1.914 4.847-3.628 5.065-3.809.218-.182 1.478-1.114 2.801-2.071 1.322-.958 2.909-2.165 3.525-2.681.616-.517 2.549-1.991 4.295-3.276 6.469-4.761 16.857-12.581 17.18-12.934.103-.112.995-.791 1.982-1.508.988-.718 2.668-1.992 3.735-2.832 4.846-3.816 6.517-4.265 7.318-1.968.462 1.327.549 107.186.092 112.688-.299 3.603-.937 4.41-4.35 5.499-1.027.328-3.23 1.169-4.895 1.869-1.666.7-3.284 1.273-3.596 1.273-.312 0-.763.235-1.002.523-.239.288-.89.636-1.447.773-.556.138-1.936.64-3.065 1.118-6.688 2.825-10.778 4.484-14.753 5.984-2.465.929-4.805 1.876-5.199 2.104-.675.39-1.476.709-7.789 3.1-1.392.527-3.157 1.275-3.922 1.662-.765.386-3.66 1.575-6.433 2.642a775.385 775.385 0 0 0-5.89 2.283c-1.545.626-1.579 1.284-1.58 29.975-.001 15.239-.171 29.976-.379 32.749-.373 4.969-1.353 12.552-1.695 13.104-.096.156-.34 1.179-.541 2.273-1.251 6.783-8.309 24.779-11.321 28.86-.462.628-1.03 1.578-1.262 2.112-.673 1.554-3.59 5.965-5.474 8.279-.955 1.172-1.736 2.241-1.736 2.376 0 .938-8.979 10.39-15.126 15.925-2.643 2.379-11.354 8.864-11.908 8.864-.08 0-1.131.657-2.336 1.461-2.052 1.37-9.057 5.006-12.834 6.663-3.119 1.368-11.736 4.388-14.005 4.909-.822.188-2.839.701-4.482 1.14-5.147 1.373-13.575 2.504-21.282 2.855-11.225.511-27.967-2.006-37.542-5.645-.719-.273-2.567-.947-4.108-1.497-6.023-2.151-15.781-7.251-21.594-11.287-.962-.668-2.401-1.65-3.198-2.183-5.59-3.737-14.852-12.414-19.518-18.284-4.936-6.21-12.086-16.785-12.086-17.874 0-.13-.387-.863-.859-1.629-.473-.766-1.428-2.738-2.121-4.381-.694-1.643-1.382-3.156-1.53-3.361-.147-.206-.44-.962-.65-1.681-.341-1.165-.968-2.852-2.254-6.069-.226-.565-.634-1.027-.908-1.027-.646 0-5.198 1.512-5.684 1.888-.205.159-1.536.727-2.958 1.262-1.422.535-2.766 1.12-2.988 1.3-.221.18-1.495.668-2.83 1.086-1.336.417-3.268 1.17-4.295 1.673-1.028.502-3.885 1.701-6.35 2.664-2.465.963-5.154 2.055-5.975 2.426-.822.371-1.915.802-2.428.957-.514.155-1.977.765-3.252 1.356-1.276.591-2.465 1.074-2.642 1.074-.268 0-4.351 1.658-7.365 2.991-.411.182-2.679 1.084-5.042 2.006-2.362.921-5.419 2.187-6.793 2.814-6.726 3.068-9.609 1.823-4.518-1.95.983-.729 2.95-2.22 4.37-3.313a155 155 0 0 1 4.721-3.482c1.176-.821 5.451-4.015 9.5-7.096 4.049-3.081 8.48-6.404 9.845-7.384 1.366-.98 2.737-1.988 3.047-2.241.31-.252 2.202-1.695 4.204-3.207 2.002-1.511 3.724-2.882 3.826-3.047.102-.165 1.604-1.253 3.338-2.419 1.735-1.166 3.6-2.534 4.145-3.039.545-.505 2.234-1.765 3.752-2.8 1.518-1.035 2.854-2.031 2.967-2.215.113-.184 1.108-.932 2.209-1.663 1.102-.731 2.196-1.562 2.431-1.845.316-.381.42-12.832.399-47.917-.033-53.831-.386-48.333 3.216-50.121.999-.496 3.369-1.795 5.267-2.888 1.898-1.093 3.53-1.987 3.625-1.987.096 0 1.039-.51 2.097-1.134 1.058-.624 3.881-2.167 6.273-3.43 2.391-1.263 5.189-2.827 6.216-3.476 1.657-1.048 2.833-1.684 7.096-3.837.616-.311 1.54-.853 2.054-1.204.513-.352 3.111-1.779 5.773-3.171 2.662-1.393 5.652-3.012 6.646-3.598.993-.586 1.902-1.065 2.019-1.065.117 0 1.412-.734 2.878-1.631 4.43-2.712 9.867-5.465 10.793-5.465 1.838 0 1.77-1.551 1.77 40.365 0 44.97-.323 41.308 3.388 38.425 1.32-1.025 2.82-2.156 3.332-2.512 1.194-.83 9.864-7.271 11.58-8.604.719-.558 2.791-2.105 4.603-3.438a294.377 294.377 0 0 0 6.317-4.802c1.662-1.307 3.461-2.651 3.999-2.987.538-.336 3.976-2.88 7.639-5.653 3.662-2.774 8.046-6.051 9.742-7.283a434.51 434.51 0 0 0 6.746-5.042c2.015-1.541 4.369-3.306 5.231-3.922a87.93 87.93 0 0 0 2.642-1.964c.591-.464 2.33-1.784 3.865-2.934 1.535-1.149 3.09-2.434 3.455-2.855.625-.72.663-2.707.663-34.28 0-31.383.042-33.562.654-34.267.359-.414 2.334-1.636 4.388-2.717 2.054-1.081 4.239-2.265 4.855-2.631a59.957 59.957 0 0 1 2.802-1.518 54.688 54.688 0 0 0 3.085-1.707c2.11-1.285 6.16-3.481 8.661-4.694 1.222-.593 2.735-1.455 3.361-1.916.627-.46 2.4-1.477 3.94-2.259a220.443 220.443 0 0 0 4.855-2.547c1.13-.619 2.559-1.374 3.175-1.679.616-.305 1.373-.76 1.681-1.011.308-.252 3.921-2.277 8.03-4.501 4.108-2.224 7.974-4.341 8.59-4.704.616-.363 1.961-1.08 2.988-1.593a124.891 124.891 0 0 0 4.295-2.299c1.335-.751 3.52-1.953 4.855-2.671 1.335-.718 2.587-1.454 2.782-1.636.512-.477 1.827-.406 2.571.138m-78.369 180.997c-.411.148-1.559.639-2.552 1.091-.993.453-2.004.824-2.246.824-.243 0-1.027.312-1.743.694-.716.383-1.722.823-2.236.979-.513.156-1.858.697-2.988 1.203l-2.801 1.252c-.787.351-3.423 1.298-5.105 1.834-.549.175-1.865.753-2.926 1.286-1.06.533-2.124.974-2.364.98-.239.006-1.276.438-2.303.958-1.027.521-2.288 1.093-2.801 1.272-3.165 1.1-7.624 2.83-12.512 4.854a770.176 770.176 0 0 1-7.283 2.983c-.924.365-2.941 1.199-4.482 1.854-1.54.654-3.641 1.493-4.668 1.864a56.675 56.675 0 0 0-3.922 1.636c-1.13.529-2.474 1.051-2.988 1.16-3.427.729-3.795 1.777-2.239 6.38 2.237 6.62 6.424 12.383 12.703 17.487 10.45 8.495 33.004 8.84 42.11.645.883-.794 2.697-2.264 4.128-3.345 1.921-1.45 6.356-7.26 7.868-10.309 3.356-6.761 4.184-12.103 4.063-26.195l-.099-11.526-.933-.064c-.514-.036-1.27.056-1.681.203" fill="#4c45f4"/><path d="M295.966 27.968c-.195.182-1.447.918-2.782 1.636-1.335.718-3.52 1.92-4.855 2.671a124.891 124.891 0 0 1-4.295 2.299c-1.027.513-2.372 1.23-2.988 1.593-.616.363-4.482 2.48-8.59 4.704-4.109 2.224-7.722 4.249-8.03 4.501-.308.251-1.065.706-1.681 1.011-.616.305-2.045 1.06-3.175 1.679a220.443 220.443 0 0 1-4.855 2.547c-1.54.782-3.313 1.799-3.94 2.259-.626.461-2.139 1.323-3.361 1.916-2.501 1.213-6.551 3.409-8.661 4.694a54.688 54.688 0 0 1-3.085 1.707 59.957 59.957 0 0 0-2.802 1.518c-.616.366-2.801 1.55-4.855 2.631-2.054 1.081-4.029 2.303-4.388 2.717-.726.836-1.046 70.511-.324 70.511.717 0 .781-2.833.786-35.18l.005-33.499.84-.925c.462-.509 2.521-1.805 4.575-2.88 2.054-1.074 3.903-2.078 4.108-2.231.496-.368 10.738-6.017 14.753-8.136 1.746-.922 3.763-2.035 4.482-2.474.719-.439 2.567-1.448 4.108-2.243 1.541-.795 3.389-1.811 4.108-2.258 1.628-1.012 4.571-2.641 8.217-4.549 1.541-.806 3.221-1.728 3.735-2.049.513-.32 2.53-1.422 4.482-2.447 4.289-2.254 13.859-7.543 14.379-7.948.859-.669 4.725-2.611 5.197-2.611.929 0 .965.984.965 26.547 0 23.08.222 28.964.879 23.369.619-5.263.28-50.458-.381-50.942-.744-.544-2.059-.615-2.571-.138M143.01 111.974c-2.176 1.169-4.975 2.755-6.219 3.526-1.245.77-2.356 1.4-2.47 1.4-.115 0-1.021.479-2.014 1.065-.994.586-3.984 2.205-6.646 3.598-2.662 1.392-5.26 2.819-5.773 3.171-.514.351-1.438.893-2.054 1.204-4.263 2.153-5.439 2.789-7.096 3.837-1.027.649-3.825 2.213-6.216 3.476-2.392 1.263-5.215 2.806-6.273 3.43-1.058.624-2.001 1.134-2.097 1.134-.095 0-1.727.894-3.625 1.987s-4.268 2.392-5.267 2.888c-3.615 1.794-3.268-3.761-3.146 50.375.099 44.496.198 48.952 1.08 48.952.194 0 .334-20.294.334-48.51v-48.511l1.4-.663c.77-.364 3.628-1.896 6.35-3.404 2.722-1.507 5.03-2.74 5.128-2.74.099 0 1.279-.673 2.621-1.494 1.343-.822 2.528-1.494 2.634-1.494.106 0 2.246-1.16 4.755-2.578a617.14 617.14 0 0 1 9.231-5.088c5.234-2.815 5.778-3.114 12.325-6.78a947.082 947.082 0 0 1 9.711-5.343 716.545 716.545 0 0 0 6.612-3.615c2.48-1.397 2.351-3.642 2.351 41.008 0 32.348.093 40.342.467 39.968.649-.649.886-81.679.241-82.456-.759-.915-2.314-.509-6.344 1.657m155.022 64.216c-.003.565 0 13.672.007 29.126.015 31.796-.285 37.504-2.493 47.345-1.021 4.548-2.971 11.523-3.523 12.6-.183.357-.333.836-.333 1.064 0 .229-.242.945-.539 1.592-.296.648-1.319 2.942-2.273 5.099-11.069 25.022-33.523 46.885-57.186 55.68-36.629 13.615-74.021 9.003-102.761-12.675-1.537-1.16-3.234-2.437-3.772-2.839-.537-.402-2.393-1.998-4.125-3.548-7.634-6.831-14.552-14.9-19.01-22.175-4.466-7.286-9.614-17.992-11.168-23.22-.75-2.527-1.546-3.995-2.008-3.709-.211.13-.267.514-.125.852.143.339.39 1.204.55 1.923.16.719.656 2.232 1.103 3.362.447 1.129.985 2.642 1.196 3.361.21.719.503 1.475.65 1.681.148.205.836 1.718 1.53 3.361.693 1.643 1.648 3.615 2.121 4.381.472.766.859 1.499.859 1.629 0 1.089 7.15 11.664 12.086 17.874 4.666 5.87 13.928 14.547 19.518 18.284.797.533 2.236 1.515 3.198 2.183 5.813 4.036 15.571 9.136 21.594 11.287 1.541.55 3.389 1.224 4.108 1.497 16.262 6.18 41.615 7.382 58.824 2.79 1.643-.439 3.66-.952 4.482-1.14 2.269-.521 10.886-3.541 14.005-4.909 3.777-1.657 10.782-5.293 12.834-6.663 1.205-.804 2.256-1.461 2.336-1.461.554 0 9.265-6.485 11.908-8.864 6.147-5.535 15.126-14.987 15.126-15.925 0-.135.781-1.204 1.736-2.376 1.884-2.314 4.801-6.725 5.474-8.279.232-.534.8-1.484 1.262-2.112 3.012-4.081 10.07-22.077 11.321-28.86.201-1.094.445-2.117.541-2.273.342-.552 1.322-8.135 1.695-13.104.408-5.441.526-58.67.138-61.905-.246-2.049-.874-2.711-.886-.934m-75.064 43.107c-.001 15.52-.767 20.571-4.15 27.388-1.512 3.049-5.947 8.859-7.868 10.309-1.431 1.081-3.245 2.551-4.128 3.345-9.106 8.195-31.66 7.85-42.11-.645-7.5-6.096-14.198-16.938-14.198-22.979 0-1.157-1.091-1.527-1.162-.394-.349 5.506 5.217 16.02 11.438 21.611 23.085 20.742 59.886 6.962 62.949-23.572.545-5.436.304-27.529-.303-27.731-.367-.122-.467 2.576-.468 12.668" fill="#8683e0"/><path d="M359.104 34.256c-.822.535-2.367 1.659-3.434 2.499-1.067.84-2.747 2.114-3.735 2.832-.987.717-1.879 1.396-1.982 1.508-.323.353-10.711 8.173-17.18 12.934-1.746 1.285-3.679 2.759-4.295 3.276-.616.516-2.203 1.723-3.525 2.681-1.323.957-2.583 1.889-2.801 2.071-.218.181-2.497 1.895-5.065 3.809-2.568 1.914-4.899 3.759-5.181 4.101-.282.342-.68.621-.883.621-.204 0-2.61 1.681-5.346 3.735-4.762 3.576-6.113 4.291-6.17 3.268-.052-.931-.669 1.059-.695 2.241-.036 1.667.326 1.557 3.668-1.121 1.603-1.283 3.392-2.67 3.975-3.081a89.942 89.942 0 0 0 2.862-2.158c.99-.777 2.441-1.869 3.224-2.428.782-.559 3.754-2.781 6.603-4.938 5.851-4.429 11.121-8.331 12.509-9.261.513-.345 1.144-.827 1.401-1.072.257-.245 5.131-3.932 10.831-8.192 5.7-4.26 11.691-8.748 13.315-9.974 3.321-2.508 3.971-2.715 4.311-1.379.502 1.975.193 113.068-.317 113.682-.263.317-1.765 1.077-3.338 1.69-1.574.613-5.55 2.225-8.836 3.584a744.545 744.545 0 0 1-7.47 3.053c-1.339.523-9.32 3.802-11.205 4.604-.41.174-3.183 1.274-6.162 2.444s-6.088 2.433-6.909 2.808c-2.355 1.072-13.585 5.594-16.06 6.467-2.312.815-2.864 1.594-2.233 3.152.218.538.299.507.579-.217.178-.464.708-.999 1.176-1.189.468-.19 3.12-1.218 5.893-2.284 2.773-1.067 5.668-2.256 6.433-2.642.765-.387 2.53-1.135 3.922-1.662 6.313-2.391 7.114-2.71 7.789-3.1.394-.228 2.734-1.175 5.199-2.104 3.975-1.5 8.065-3.159 14.753-5.984 1.129-.478 2.509-.98 3.065-1.118.557-.137 1.208-.485 1.447-.773.239-.288.69-.523 1.002-.523.312 0 1.93-.573 3.596-1.273 1.665-.7 3.868-1.541 4.895-1.869 3.413-1.089 4.051-1.896 4.35-5.499.445-5.359.371-111.433-.078-112.616-.723-1.901-1.677-2.048-3.898-.603m-136.882 102.4c-.308.384-1.821 1.641-3.361 2.793a296.389 296.389 0 0 0-3.875 2.938 87.93 87.93 0 0 1-2.642 1.964c-.862.616-3.216 2.381-5.231 3.922a434.51 434.51 0 0 1-6.746 5.042c-1.696 1.232-6.08 4.509-9.742 7.283-3.663 2.773-7.101 5.317-7.639 5.653-.538.336-2.337 1.68-3.999 2.987a294.377 294.377 0 0 1-6.317 4.802 321.834 321.834 0 0 0-4.603 3.438c-1.716 1.333-10.386 7.774-11.58 8.604-.512.356-2.012 1.487-3.332 2.512-1.693 1.315-2.532 1.755-2.846 1.494-.402-.333-.916.96-.916 2.302 0 .686 1.27.282 2.569-.816 1.496-1.265 6.483-5.104 9.044-6.96 2.716-1.97 13.825-10.28 16.025-11.987.513-.398 5.135-3.848 10.271-7.666 5.135-3.818 10.765-8.039 12.511-9.381 4.786-3.678 13.056-9.861 18.382-13.743 4.382-3.194 4.75-3.556 4.762-4.675.014-1.415.001-1.424-.735-.506m-2.614 71.016c-1.335.591-4.697 1.98-7.47 3.086-9.787 3.904-14.778 5.953-17.103 7.022-1.293.594-2.519 1.081-2.723 1.081-.204 0-1.049.345-1.877.768-.828.422-2.628 1.165-4 1.65-1.372.486-6.78 2.636-12.019 4.78-5.238 2.143-10.7 4.361-12.138 4.928a269.875 269.875 0 0 0-6.402 2.67c-2.084.9-4.142 1.637-4.575 1.637-.679 0-.786.219-.776 1.587.009 1.264.089 1.454.393.931.428-.734 2.984-2.144 3.888-2.144.323 0 1.461-.443 2.528-.983 1.067-.541 2.784-1.286 3.815-1.656 1.032-.37 3.137-1.208 4.677-1.862a241.334 241.334 0 0 1 4.482-1.854c.924-.365 4.202-1.707 7.283-2.983 4.888-2.024 9.347-3.754 12.512-4.854.513-.179 1.774-.751 2.801-1.272 1.027-.52 2.064-.952 2.303-.958.24-.006 1.249-.419 2.241-.916 1.759-.882 4.018-1.771 6.287-2.473.616-.19 1.456-.503 1.867-.695 2.471-1.154 4.98-2.225 5.789-2.471.514-.156 1.52-.596 2.236-.979.716-.382 1.524-.694 1.797-.694.272 0 1.451-.454 2.62-1.009 1.168-.555 2.754-1.017 3.523-1.027 1.326-.017 1.4-.082 1.401-1.232.001-1.469-.208-1.474-3.36-.078M83.786 240.46c-.238.381-1.365 1.312-2.504 2.068s-2.164 1.524-2.277 1.708c-.113.184-1.449 1.18-2.967 2.215s-3.207 2.295-3.752 2.8c-.545.505-2.41 1.873-4.145 3.039-1.734 1.166-3.236 2.254-3.338 2.419-.102.165-1.824 1.536-3.826 3.047-2.002 1.512-3.894 2.955-4.204 3.207-.31.253-1.681 1.261-3.047 2.241-1.365.98-5.796 4.303-9.845 7.384-4.049 3.081-8.324 6.275-9.5 7.096a155 155 0 0 0-4.721 3.482 382.373 382.373 0 0 1-4.37 3.313c-5.091 3.773-2.208 5.018 4.518 1.95 1.374-.627 4.431-1.893 6.793-2.814 2.363-.922 4.631-1.824 5.042-2.006 3.014-1.333 7.097-2.991 7.365-2.991.177 0 1.366-.483 2.642-1.074 1.275-.591 2.738-1.201 3.252-1.356.513-.155 1.606-.586 2.428-.957.821-.371 3.51-1.463 5.975-2.426 2.465-.963 5.322-2.162 6.35-2.664 1.027-.503 2.959-1.256 4.295-1.673 1.335-.418 2.609-.906 2.83-1.086.222-.18 1.566-.765 2.988-1.3s2.753-1.104 2.958-1.265c.738-.576 5.454-1.95 5.989-1.745.695.266.708-.525.025-1.459-.443-.606-.657-.648-1.401-.275-.483.242-1.97.884-3.305 1.426-1.336.542-2.932 1.21-3.548 1.484-.617.274-3.138 1.277-5.603 2.23-4.983 1.925-10.631 4.266-11.204 4.643-.206.135-1.046.468-1.868.741-.821.273-3.678 1.422-6.349 2.555-2.67 1.133-6.374 2.61-8.231 3.282a123.12 123.12 0 0 0-6.723 2.712c-1.841.82-3.767 1.612-4.28 1.761-.514.148-1.774.658-2.801 1.133-2.208 1.02-4.669 1.544-4.669.994 0-.493 5.21-4.554 18.907-14.74 5.629-4.186 8.713-6.499 21.006-15.751 11.296-8.503 12.153-9.14 13.826-10.276.901-.612 1.798-1.166 1.993-1.232.213-.071.23-.599.042-1.325-.285-1.098-.352-1.145-.746-.515" fill="#4688eb"/></g></svg>
