<svg width="21" height="20" viewBox="0 0 21 20" fill="none" xmlns="http://www.w3.org/2000/svg"><g clip-path="url(#a)" stroke="#F1F1F3" stroke-width="1.5"><path d="M16.333 16.998H4.667A1.667 1.667 0 0 1 3 15.332v-7.5a1.667 1.667 0 0 1 1.667-1.667h11.666A1.666 1.666 0 0 1 18 7.832v7.5a1.666 1.666 0 0 1-1.667 1.666Z"/><path d="M14.25 11.998a.417.417 0 1 1 0-.833.417.417 0 0 1 0 .833Z" stroke-linecap="round" stroke-linejoin="round"/><path d="M15.5 6.165V5a1.666 1.666 0 0 0-2.096-1.61L4.238 5.834A1.667 1.667 0 0 0 3 7.445v.387"/></g><defs><clipPath id="a"><path fill="#fff" transform="translate(2.167 2.5)" d="M0 0h16.667v15.833H0z"/></clipPath></defs></svg>
