<svg xmlns="http://www.w3.org/2000/svg" width="20.623" height="30" viewBox="0 0 20.623 30">
    <defs>
        <linearGradient id="linear-gradient" x1="-.033" x2="1.033" y1=".955" y2=".224" gradientUnits="objectBoundingBox">
            <stop offset="0" stop-color="#2ebac6"/>
            <stop offset="1" stop-color="#b6509e"/>
        </linearGradient>
        <style>
            .cls-2{fill:none}.cls-5{opacity:.21}.cls-6{opacity:.1}
        </style>
    </defs>
    <g id="Group_30000" transform="translate(-69.977 -583.325)">
        <path id="Path_7142" fill="url(#linear-gradient)" d="M166.468 108.568a10.275 10.275 0 0 0-20.545 0v18.811a1.142 1.142 0 0 0 2.284 0v-3.32a1.142 1.142 0 1 1 2.284 0v1.574a1.142 1.142 0 0 0 2.284 0v-1.574a1.142 1.142 0 0 1 1.142-1.142 1.142 1.142 0 0 1 1.142 1.142v.43a1.142 1.142 0 0 0 2.284 0v-.43a1.142 1.142 0 0 1 2.284 0v1.574a1.142 1.142 0 1 0 2.284 0v-1.574a1.142 1.142 0 0 1 1.142-1.142 1.142 1.142 0 0 1 1.142 1.142v3.32a1.142 1.142 0 1 0 2.284 0v-18.733c-.007-.026-.009-.052-.011-.078zm-14.061 1.645a2.116 2.116 0 1 1 1.828-2.1 1.976 1.976 0 0 1-1.828 2.099zm3.871 2.958c-.916 0-1.659-.546-1.659-1.219s.743-.267 1.659-.267 1.659-.407 1.659.267-.737 1.219-1.659 1.219zm3.708-2.958a2.116 2.116 0 1 1 1.828-2.1 1.976 1.976 0 0 1-1.828 2.099z" transform="translate(-75.943 484.805)"/>
        <g id="Group_13464" transform="translate(74.634 590.823)">
            <ellipse id="Ellipse_598" cx="1.828" cy="2.096" class="cls-2" rx="1.828" ry="2.096"/>
            <path id="Path_7143" d="M236.169 231.383c-.916 0-1.659-.407-1.659.267s.743 1.219 1.659 1.219 1.659-.546 1.659-1.219-.742-.267-1.659-.267z" class="cls-2" transform="translate(-230.471 -225.719)"/>
            <ellipse id="Ellipse_599" cx="1.828" cy="2.096" class="cls-2" rx="1.828" ry="2.096" transform="translate(7.578)"/>
        </g>
        <path id="Path_7146" fill="#fff" d="M147.49 106.961s1.987-6.313 10.234-6.251c10.234.124 10.163 11.588 10.163 11.588s.923-8.036-3.876-11.6a10.251 10.251 0 0 0-10.723-1.284c-1.864.698-5.397 3.663-5.798 7.547z" opacity="0.06" transform="translate(-77.36 484.871)"/>
        <path id="Path_7147" fill="#fff" d="M160.8 103.469s3.336-3.631 7.964-3.679 7.868 1.468 9.392 4.589a20.24 20.24 0 0 1 1.735 6.752s.923-6.857-3.876-10.421a10.254 10.254 0 0 0-10.723-1.284c-1.864.7-3.181 2.243-4.492 4.043z" opacity="0.15" transform="translate(-89.362 484.86)"/>
        <path id="Path_7148" d="M193.352 175.545s.129-2.242 1.828-2.245 1.828 2.245 1.828 2.245-.354-2.1-1.828-2.1c-1.052.003-1.875 1.626-1.828 2.1z" class="cls-5" transform="translate(-118.717 417.376)"/>
        <path id="Path_7149" d="M270.542 175.545s.129-2.242 1.828-2.245 1.828 2.245 1.828 2.245-.354-2.1-1.828-2.1c-1.054.003-1.877 1.626-1.828 2.1z" class="cls-5" transform="translate(-188.327 417.376)"/>
        <path id="Path_7150" d="M193.007 170.53a2.412 2.412 0 0 0-2.067 2.517 2.219 2.219 0 0 0 2.067 2.32 2.15 2.15 0 0 0 1.969-2.32 2.346 2.346 0 0 0-1.969-2.517zm.027 4.579c-1.147.033-1.827-1.248-1.827-2.182a1.842 1.842 0 0 1 1.827-1.887 1.685 1.685 0 0 1 1.631 1.887c0 .934-.484 2.148-1.631 2.182z" class="cls-6" transform="translate(-116.544 419.874)"/>
        <path id="Path_7151" d="M270.867 170.53a2.412 2.412 0 0 0-2.067 2.517 2.219 2.219 0 0 0 2.067 2.32 2.15 2.15 0 0 0 1.969-2.32 2.346 2.346 0 0 0-1.969-2.517zm.027 4.579c-1.147.033-1.827-1.248-1.827-2.182a1.842 1.842 0 0 1 1.827-1.887 1.685 1.685 0 0 1 1.631 1.887c0 .934-.484 2.148-1.631 2.182z" class="cls-6" transform="translate(-186.757 419.874)"/>
        <path id="Path_7152" d="M234.86 237.73a1.567 1.567 0 0 0 1.648.974 1.636 1.636 0 0 0 1.588-.892 1.512 1.512 0 0 1-1.579 1.339 1.6 1.6 0 0 1-1.657-1.421z" class="cls-6" transform="translate(-156.15 359.272)"/>
    </g>
</svg>
