<svg width="16" height="16" viewBox="0 0 16 16" fill="none" xmlns="http://www.w3.org/2000/svg">
<path d="M8.00006 14.2218C6.76942 14.2218 5.56641 13.8569 4.54318 13.1732C3.51994 12.4895 2.72242 11.5177 2.25147 10.3807C1.78053 9.24375 1.65731 7.99267 1.89739 6.78567C2.13748 5.57868 2.73009 4.46999 3.60028 3.59979C4.47047 2.7296 5.57917 2.13699 6.78616 1.8969C7.99315 1.65682 9.24424 1.78004 10.3812 2.25098C11.5182 2.72193 12.4899 3.51945 13.1736 4.54269C13.8574 5.56593 14.2223 6.76893 14.2223 7.99957C14.2223 9.6498 13.5667 11.2325 12.3998 12.3993C11.2329 13.5662 9.65029 14.2218 8.00006 14.2218ZM8.00006 2.66624C6.94522 2.66624 5.91408 2.97903 5.03702 3.56506C4.15995 4.1511 3.47637 4.98405 3.0727 5.95859C2.66903 6.93313 2.56341 8.00548 2.7692 9.04005C2.97499 10.0746 3.48294 11.0249 4.22882 11.7708C4.9747 12.5167 5.92501 13.0246 6.95957 13.2304C7.99414 13.4362 9.0665 13.3306 10.041 12.9269C11.0156 12.5233 11.8485 11.8397 12.4346 10.9626C13.0206 10.0855 13.3334 9.0544 13.3334 7.99957C13.3334 6.58508 12.7715 5.22853 11.7713 4.22833C10.7711 3.22814 9.41454 2.66624 8.00006 2.66624Z" fill="#383D51"/>
<path d="M8.42667 4.71094H7.56445V9.27983H8.42667V4.71094Z" fill="#383D51"/>
<path d="M8.42667 10.1865H7.56445V11.2887H8.42667V10.1865Z" fill="#383D51"/>
</svg>
