<svg width="14" height="14" viewBox="0 0 14 14" fill="none" xmlns="http://www.w3.org/2000/svg">
<path d="M7.00011 12.4446C5.9233 12.4446 4.87067 12.1252 3.97534 11.527C3.08001 10.9288 2.38218 10.0785 1.9701 9.08361C1.55802 8.08877 1.4502 6.99407 1.66028 5.93795C1.87036 4.88183 2.38889 3.91173 3.15031 3.15031C3.91173 2.38889 4.88183 1.87036 5.93795 1.66028C6.99407 1.4502 8.08877 1.55802 9.08361 1.9701C10.0785 2.38218 10.9288 3.08001 11.527 3.97534C12.1252 4.87067 12.4446 5.9233 12.4446 7.00011C12.4446 8.44407 11.8709 9.82888 10.8499 10.8499C9.82888 11.8709 8.44407 12.4446 7.00011 12.4446ZM7.00011 2.33344C6.07713 2.33344 5.17488 2.60714 4.40745 3.11992C3.64002 3.6327 3.04188 4.36153 2.68867 5.21425C2.33546 6.06698 2.24305 7.00529 2.42311 7.91053C2.60318 8.81578 3.04763 9.6473 3.70028 10.2999C4.35292 10.9526 5.18444 11.397 6.08969 11.5771C6.99493 11.7572 7.93325 11.6648 8.78597 11.3115C9.63869 10.9583 10.3675 10.3602 10.8803 9.59277C11.3931 8.82534 11.6668 7.92309 11.6668 7.00011C11.6668 5.76243 11.1751 4.57545 10.2999 3.70028C9.42477 2.82511 8.23779 2.33344 7.00011 2.33344V2.33344Z" fill="#2EBAC6"/>
<path d="M7.37334 4.12231H6.6189V8.12009H7.37334V4.12231Z" fill="#2EBAC6"/>
<path d="M7.37334 8.91333H6.6189V9.87777H7.37334V8.91333Z" fill="#2EBAC6"/>
</svg>
