<svg width="10" height="10" viewBox="0 0 10 10" fill="none" xmlns="http://www.w3.org/2000/svg"><path d="M5 0a5 5 0 100 10A5 5 0 005 0zm0 9.342A4.342 4.342 0 115 .658a4.342 4.342 0 010 8.684z" fill="#DE5959"/><path d="M5.578 6.938a1.021 1.021 0 00-.058-.103c-.019-.028-.048-.056-.067-.084a.859.859 0 00-.095-.084.323.323 0 00-.114-.057.596.596 0 00-.248-.047.553.553 0 00-.125.01.345.345 0 00-.104.037h-.01a.612.612 0 00-.2.14l-.01.01a.515.515 0 00-.066.084.292.292 0 00-.048.094c0 .01 0 .01-.01.018a.602.602 0 00-.038.367.544.544 0 00.153.292l.019.018a.83.83 0 00.095.075c.038.019.067.038.104.057a.544.544 0 00.24.047.51.51 0 00.238-.047h.01c.035-.017.07-.036.104-.057a.83.83 0 00.095-.075.611.611 0 00.076-.084 1.02 1.02 0 00.058-.103.522.522 0 00.038-.113.568.568 0 00.01-.122.842.842 0 00-.047-.273z" fill="#DE5959"/><rect x="4.375" y="1.875" width="1.25" height="4.375" rx=".625" fill="#DE5959"/></svg>