<svg xmlns="http://www.w3.org/2000/svg" width="9.897" height="12" viewBox="0 0 9.897 12"><defs><style>.cls-1{fill:#fff}</style></defs><g id="Group_23329" data-name="Group 23329" transform="translate(1011 4947)"><g id="back" transform="rotate(-90 -2973 -1962)"><g id="Group_21929" data-name="Group 21929"><path id="Path_9170" data-name="Path 9170" class="cls-1" d="M1.954 4.951l3.7-3.7a.543.543 0 000-.766L5.332.158a.542.542 0 00-.766 0L.158 4.567a.546.546 0 000 .768l4.4 4.4a.542.542 0 00.766 0l.324-.324a.542.542 0 000-.766z"/></g></g><g id="back-2" data-name="back" transform="rotate(-90 -2976.093 -1965.093)"><g id="Group_21929-2" data-name="Group 21929"><path id="Path_9170-2" data-name="Path 9170" class="cls-1" d="M1.954 4.951l3.7-3.7a.543.543 0 000-.766L5.332.158a.542.542 0 00-.766 0L.158 4.567a.546.546 0 000 .768l4.4 4.4a.542.542 0 00.766 0l.324-.324a.542.542 0 000-.766z"/></g></g></g></svg>