<svg xmlns="http://www.w3.org/2000/svg" width="1401.207" height="201.766" viewBox="0 0 1401.207 201.766"><defs><style>.cls-2,.cls-5{fill:none}.cls-2,.cls-3,.cls-5{stroke:#f1f1f3;stroke-linecap:round}.cls-3{fill:#fff}.cls-4{opacity:.5}.cls-5{stroke-linejoin:round}</style></defs><g id="Group_30309" opacity=".05" transform="translate(20236.02 13249.155)"><g id="Group_30307" transform="translate(-19508.369 -13065.255)"><path id="Path_10584" d="M0 0l78.744 8.052" class="cls-2" transform="translate(593.771 .127)"/><path id="Path_10586" d="M0 0l7.182 17.037" class="cls-2" transform="translate(0 .145)"/><path id="Path_10588" d="M0 0l16.645 16.767" class="cls-2" transform="translate(54.047 .145)"/><path id="Path_10590" d="M0 0l23.25 16.982" class="cls-2" transform="translate(108.217 .185)"/><path id="Path_10592" d="M0 0l31.943 17.039" class="cls-2" transform="translate(162.123 .145)"/><path id="Path_10594" d="M50.023 17.04L0 0" class="cls-2" transform="translate(215.68 .047)"/><path id="Path_10596" d="M0 0l60.348 16.941" class="cls-2" transform="translate(271.078 .047)"/><path id="Path_10598" d="M0 0l71.715 16.965" class="cls-2" transform="translate(325.182 .047)"/><path id="Path_10600" d="M0 0l84.92 17.206" class="cls-2" transform="translate(378.898 .047)"/><path id="Path_10602" d="M0 0l103.18 16.93" class="cls-2" transform="translate(432.977 .185)"/><path id="Path_10604" d="M0 0l141.4 17.072" class="cls-2" transform="translate(487.107 .022)"/><path id="Path_10606" d="M0 0l132.872 14.9" class="cls-2" transform="translate(539.645)"/></g><g id="Group_30308" transform="translate(-20235.088 -13065.255)"><path id="Path_10584-2" d="M0 8.052L78.744 0" class="cls-2" transform="rotate(180 39.373 4.09)"/><path id="Path_10586-2" d="M0 17.037L7.182 0" class="cls-2" transform="rotate(180 336.259 8.591)"/><path id="Path_10588-2" d="M0 16.767L16.645 0" class="cls-2" transform="rotate(180 309.235 8.456)"/><path id="Path_10590-2" d="M0 16.982L23.25 0" class="cls-2" transform="rotate(180 282.15 8.584)"/><path id="Path_10592-2" d="M0 17.039L31.943 0" class="cls-2" transform="rotate(180 255.197 8.592)"/><path id="Path_10594-2" d="M50.023 0L0 17.04" class="cls-2" transform="rotate(180 228.418 8.544)"/><path id="Path_10596-2" d="M0 16.941L60.348 0" class="cls-2" transform="rotate(180 200.72 8.494)"/><path id="Path_10598-2" d="M0 16.965L71.715 0" class="cls-2" transform="rotate(180 173.667 8.506)"/><path id="Path_10600-2" d="M0 17.206L84.92 0" class="cls-2" transform="rotate(180 146.809 8.627)"/><path id="Path_10602-2" d="M0 16.93L103.18 0" class="cls-2" transform="rotate(180 119.77 8.557)"/><path id="Path_10604-2" d="M0 17.072L141.4 0" class="cls-2" transform="rotate(180 92.704 8.548)"/><path id="Path_10606-2" d="M0 14.9L132.872 0" class="cls-2" transform="rotate(180 66.436 7.45)"/></g><path id="Line_268" d="M0 0h1399.829" class="cls-2" transform="translate(-20235.518 -13048.13)"/><path id="Line_269" d="M0 0h1399.829" class="cls-2" transform="translate(-20235.518 -13054.698)"/><path id="Path_10608" d="M0 0h1399.829" class="cls-3" transform="translate(-20235.52 -13060.171)"/><path id="Path_10609" d="M0 0h1399.829" class="cls-3" transform="translate(-20235.52 -13065.231)"/><g id="Group_30303" transform="translate(-20235 -13248.655)"><g id="Group_30301" class="cls-4" transform="translate(.681)"><path id="Path_10610" d="M-7248-5501.306l88.175-100.526 48.532 49.717" class="cls-5" transform="translate(7252.319 5601.832)"/><path id="Path_10611" d="M-6576.239-5418.769l-89.151-66.133-33.594 34-17.961-18.177-17.96 18.177h-31.935l-53.128-53.766-47.5 48.072-91.027-92.118-43.524 44.045-78.07-79.007-47.7 48.273 71.487 20.058" class="cls-5" transform="translate(7252.319 5602.05)"/><path id="Path_10612" d="M-7248-5536.83l23.59-23.873 15.055 15.4 77.672 91.728 4.073-81.705-32.39-66.449-14.893 96.987-44.72-28.771-28.39 61.4 116.316 18.721-120.635 34.318" class="cls-5" transform="translate(7252.319 5601.833)"/><path id="Path_10613" d="M-6847.016-5479.193l-29.47-29.824-21.017 21.269-2.784 62.222" class="cls-5" transform="translate(7252.32 5602.944)"/><path id="Path_10614" d="M-6867.443-5458.162l-32.478 32.867-41.55-42.048-41.549 42.048" class="cls-5" transform="translate(7252.319 5603.444)"/><path id="Path_10615" d="M-7001.762-5505.914l-60.111 60.832-16.76-16.96-22.5-22.767-59.159 60.216" class="cls-5" transform="translate(7252.319 5602.982)"/><path id="Path_10616" d="M-7080-5005.2l24.109 67.531-45.085 31.911 82.754-4.813-37.669-27.1" class="cls-5" transform="translate(7252.32 5024.055)"/><path id="Path_10617" d="M-7100.973-4906.693l12.261 59.964 26.984-20.213 31.473 20.213 132.721-62.92-104.756-17.833-27.964 80.753 76.022-72.488" class="cls-5" transform="translate(7252.32 5024.987)"/><path id="Path_10618" d="M-6876.606-4930.736l17.88 42.213" class="cls-2" transform="translate(7252.319 5024.948)"/><path id="Path_10619" d="M-6820.116-4927.483l-55.221 81.052 108.691-26.946 10.857 26.846 56.721-27.274-35.829-.052 24.158-11.8" class="cls-5" transform="translate(7252.32 5024.987)"/><path id="Path_10620" d="M-6665.386-4907.9l56.578 60.889-108.435-17.909 73.21-19.383" class="cls-5" transform="translate(7252.32 5025.221)"/></g><g id="Group_30302" transform="translate(0 5.06)"><path id="Path_10621" d="M-7248-5501.306l88.175-100.526 48.532 49.717" class="cls-5" transform="translate(7248 5601.832)"/><path id="Path_10622" d="M-6580.1-5423.837l-85.817-61.352-33.557 33.9-17.941-18.123-17.941 18.123h-31.9l-53.068-53.609-47.449 47.933-90.922-91.851-43.476 43.918-77.983-78.778-47.646 48.133 71.406 20" class="cls-5" transform="translate(7248 5602.05)"/><path id="Path_10623" d="M-7248-5536.83l23.59-23.873 15.054 15.4 77.672 91.728 4.073-81.705-32.389-66.449-14.893 96.987-44.72-28.771-28.389 61.4 116.315 18.721-116.313 29.716" class="cls-5" transform="translate(7248 5601.833)"/><path id="Path_10624" d="M-6847.016-5479.193l-29.47-29.824-21.017 21.269-2.784 62.222" class="cls-5" transform="translate(7248 5602.944)"/><path id="Path_10625" d="M-6867.443-5458.162l-32.478 32.867-41.55-42.048-41.549 42.048" class="cls-5" transform="translate(7248 5603.444)"/><path id="Path_10626" d="M-7001.762-5505.914l-60.111 60.832-16.76-16.96-22.5-22.767-59.159 60.216" class="cls-5" transform="translate(7248.001 5602.982)"/><path id="Path_10627" d="M-7080-5005.2l24.109 67.531-45.085 31.911 82.754-4.813-37.669-27.1" class="cls-5" transform="translate(7248 5024.055)"/><path id="Path_10628" d="M-7100.973-4906.693l12.261 59.964 26.984-20.213 31.473 20.213 132.721-62.92-104.756-17.833-27.964 80.753 76.022-72.488" class="cls-5" transform="translate(7248 5024.987)"/><path id="Path_10629" d="M-6876.606-4930.736l17.88 42.213" class="cls-2" transform="translate(7248 5024.948)"/><path id="Path_10630" d="M-6820.116-4927.483l-55.221 81.052 108.691-26.946 10.857 26.846 56.721-27.274-35.829-.052 24.158-11.8" class="cls-5" transform="translate(7248.001 5024.987)"/><path id="Path_10631" d="M-6665.386-4907.9l56.578 60.889-108.435-17.909 73.21-19.383" class="cls-5" transform="translate(7248.001 5025.221)"/></g></g><g id="Group_30306" transform="translate(-19512.281 -13248.655)"><g id="Group_30304" class="cls-4"><path id="Path_10632" d="M-7111.293-5501.306l-88.176-100.526-48.531 49.717" class="cls-5" transform="translate(7783.056 5601.832)"/><path id="Path_10633" d="M-7127.794-5418.769l89.151-66.133 33.595 34 17.961-18.177 17.961 18.177h31.934l53.128-53.766 47.5 48.072 91.026-92.118 43.523 44.045 78.071-79.007 47.7 48.273-71.488 20.058" class="cls-5" transform="translate(7127.794 5602.05)"/><path id="Path_10634" d="M-7131.931-5536.83l-23.59-23.873-15.055 15.4-77.671 91.728-4.073-81.705 32.388-66.446 14.892 96.987 44.721-28.771 28.389 61.4-116.315 18.721 120.635 34.318" class="cls-5" transform="translate(7803.692 5601.833)"/><path id="Path_10635" d="M-6900.286-5479.193l29.471-29.824 21.017 21.269 2.784 62.222" class="cls-5" transform="translate(7171.063 5602.944)"/><path id="Path_10636" d="M-6983.02-5458.162l32.478 32.867 41.55-42.048 41.549 42.048" class="cls-5" transform="translate(7274.225 5603.444)"/><path id="Path_10637" d="M-7160.288-5505.914l60.111 60.832 16.759-16.96 22.5-22.767 59.158 60.216" class="cls-5" transform="translate(7585.811 5602.982)"/><path id="Path_10638" d="M-7039.193-5005.2l-24.11 67.531 45.086 31.911-82.754-4.813 37.668-27.1" class="cls-5" transform="translate(7542.952 5024.055)"/><path id="Path_10639" d="M-6897.534-4906.693l-12.262 59.964-26.984-20.213-31.473 20.213-132.721-62.92 104.757-17.833 27.964 80.753-76.022-72.488" class="cls-5" transform="translate(7422.269 5024.987)"/><path id="Path_10640" d="M-6858.726-4930.736l-17.88 42.213" class="cls-2" transform="translate(7159.093 5024.948)"/><path id="Path_10641" d="M-6754.287-4927.483l55.22 81.052-108.689-26.946-10.859 26.846-56.721-27.274 35.829-.052-24.158-11.8" class="cls-5" transform="translate(6998.165 5024.987)"/><path id="Path_10642" d="M-6660.665-4907.9l-56.579 60.889 108.435-17.909-73.21-19.383" class="cls-5" transform="translate(6749.813 5025.221)"/></g><g id="Group_30305" transform="translate(8.858 5.06)"><path id="Path_10643" d="M-7111.293-5501.306l-88.176-100.526-48.531 49.717" class="cls-5" transform="translate(7779.198 5601.832)"/><path id="Path_10644" d="M-7127.793-5423.837l85.816-61.352 33.556 33.9 17.941-18.123 17.94 18.123h31.9l53.068-53.609 47.449 47.933 90.923-91.851 43.474 43.918 77.983-78.778 47.647 48.133-71.408 20" class="cls-5" transform="translate(7127.793 5602.05)"/><path id="Path_10645" d="M-7127.612-5536.83l-23.588-23.87-15.056 15.4-77.67 91.728-4.074-81.705 32.388-66.446 14.892 96.987 44.721-28.771 28.389 61.4-116.314 18.721 116.314 29.72" class="cls-5" transform="translate(7795.516 5601.833)"/><path id="Path_10646" d="M-6900.286-5479.193l29.471-29.824 21.017 21.269 2.784 62.222" class="cls-5" transform="translate(7167.206 5602.944)"/><path id="Path_10647" d="M-6983.02-5458.162l32.478 32.867 41.55-42.048 41.549 42.048" class="cls-5" transform="translate(7270.367 5603.444)"/><path id="Path_10648" d="M-7160.288-5505.914l60.111 60.832 16.759-16.96 22.5-22.767 59.158 60.216" class="cls-5" transform="translate(7581.953 5602.982)"/><path id="Path_10649" d="M-7039.193-5005.2l-24.11 67.531 45.086 31.911-82.754-4.813 37.668-27.1" class="cls-5" transform="translate(7539.094 5024.055)"/><path id="Path_10650" d="M-6897.534-4906.693l-12.262 59.964-26.984-20.213-31.473 20.213-132.721-62.92 104.757-17.833 27.964 80.753-76.022-72.488" class="cls-5" transform="translate(7418.412 5024.987)"/><path id="Path_10651" d="M-6858.726-4930.736l-17.88 42.213" class="cls-2" transform="translate(7155.235 5024.948)"/><path id="Path_10652" d="M-6754.287-4927.483l55.22 81.052-108.689-26.946-10.859 26.846-56.721-27.274 35.829-.052-24.158-11.8" class="cls-5" transform="translate(6994.307 5024.987)"/><path id="Path_10653" d="M-6660.665-4907.9l-56.579 60.889 108.435-17.909-73.21-19.383" class="cls-5" transform="translate(6745.955 5025.221)"/></g></g></g></svg>