<svg xmlns="http://www.w3.org/2000/svg" width="30" height="30" viewBox="0 0 30 30"><defs><linearGradient id="linear-gradient" x1="-.033" x2="1.033" y1=".955" y2=".224" gradientUnits="objectBoundingBox"><stop offset="0" stop-color="#2ebac6"/><stop offset="1" stop-color="#b6509e"/></linearGradient><style>.cls-3{fill:none}.cls-6{opacity:.21}.cls-7{opacity:.1}</style></defs><g id="Group_42521" transform="translate(12835 12606)"><g id="Ellipse_1660" fill="#fff" stroke="#f1f1f3" transform="translate(-12835 -12606)"><circle cx="15" cy="15" r="15" stroke="none"/><circle cx="15" cy="15" r="14.5" class="cls-3"/></g><g id="Group_30000" transform="translate(-12894.977 -13181.325)"><path id="Path_7142" fill="url(#linear-gradient)" d="M155.509 103.214a4.8 4.8 0 00-9.588 0v8.779a.533.533 0 101.066 0v-1.549a.533.533 0 011.066 0v.735a.533.533 0 001.066 0v-.735a.533.533 0 01.533-.533.533.533 0 01.533.533v.2a.533.533 0 101.066 0v-.2a.533.533 0 011.066 0v.735a.533.533 0 001.066 0v-.735a.533.533 0 01.533-.533.533.533 0 01.533.533v1.549a.533.533 0 101.066 0v-8.742a.15.15 0 01-.006-.037zm-6.562.768a.987.987 0 11.853-.982.922.922 0 01-.853.982zm1.806 1.381c-.428 0-.774-.255-.774-.569s.347-.125.774-.125.774-.19.774.125-.345.568-.773.568zm1.73-1.381a.987.987 0 11.853-.978.922.922 0 01-.852.978z" transform="translate(-75.943 484.8)"/><g id="Group_13464" transform="translate(72.15 586.824)"><ellipse id="Ellipse_598" cx=".853" cy=".978" class="cls-3" rx=".853" ry=".978"/><path id="Path_7143" d="M235.284 231.318c-.428 0-.774-.19-.774.125s.347.569.774.569.774-.255.774-.569-.346-.125-.774-.125z" class="cls-3" transform="translate(-232.625 -228.675)"/><ellipse id="Ellipse_599" cx=".853" cy=".978" class="cls-3" rx=".853" ry=".978" transform="translate(3.536)"/></g><path id="Path_7146" fill="#fff" d="M147.49 102.424a4.7 4.7 0 014.776-2.917c4.776.058 4.743 5.408 4.743 5.408s.431-3.75-1.809-5.414a4.794 4.794 0 00-7.709 2.923z" opacity=".06" transform="translate(-77.442 484.871)"/><path id="Path_7147" fill="#fff" d="M160.8 100.8a5.7 5.7 0 013.717-1.717c2.16-.022 3.672.685 4.383 2.142a9.446 9.446 0 01.81 3.151s.431-3.2-1.809-4.863a4.785 4.785 0 00-5-.6 4.88 4.88 0 00-2.101 1.887z" opacity=".15" transform="translate(-90.141 484.858)"/><path id="Path_7148" d="M193.351 174.347s.06-1.046.853-1.047.853 1.047.853 1.047-.165-.978-.853-.978c-.491 0-.875.758-.853.978z" class="cls-6" transform="translate(-121.201 413.456)"/><path id="Path_7149" d="M270.54 174.347s.06-1.046.853-1.047.853 1.047.853 1.047-.165-.978-.853-.978c-.493 0-.875.758-.853.978z" class="cls-6" transform="translate(-194.853 413.456)"/><path id="Path_7150" d="M191.9 170.53a1.126 1.126 0 00-.965 1.174 1.035 1.035 0 00.965 1.083 1 1 0 00.919-1.083 1.1 1.1 0 00-.919-1.174zm.013 2.137c-.535.016-.853-.582-.853-1.018a.859.859 0 01.853-.881.786.786 0 01.761.881c.004.435-.221 1.002-.757 1.018z" class="cls-7" transform="translate(-118.901 416.099)"/><path id="Path_7151" d="M269.765 170.53a1.126 1.126 0 00-.965 1.174 1.035 1.035 0 00.965 1.083 1 1 0 00.919-1.083 1.1 1.1 0 00-.919-1.174zm.013 2.137c-.535.016-.853-.582-.853-1.018a.859.859 0 01.853-.881.786.786 0 01.761.881c-.001.435-.226 1.002-.762 1.018z" class="cls-7" transform="translate(-193.193 416.099)"/><path id="Path_7152" d="M234.86 237.73a.731.731 0 00.769.455.764.764 0 00.741-.416.705.705 0 01-.737.625.747.747 0 01-.773-.664z" class="cls-7" transform="translate(-160.808 351.978)"/></g></g></svg>