<svg width="12" height="12" viewBox="0 0 12 12" fill="none" xmlns="http://www.w3.org/2000/svg">
<circle cx="6" cy="6" r="6" fill="#8D8F99"/>
<path fill-rule="evenodd" clip-rule="evenodd" d="M6.55742 2.02059C6.73582 2.07891 6.85714 2.25049 6.85714 2.44447V4.66668L8.57143 4.66668C8.73123 4.66668 8.87776 4.75888 8.95156 4.90587C9.02536 5.05286 9.01417 5.23022 8.92253 5.36599L5.92253 9.8104C5.81526 9.96932 5.62099 10.0377 5.44258 9.97941C5.26418 9.92109 5.14286 9.74951 5.14286 9.55553L5.14286 7.33332H3.42857C3.26877 7.33332 3.12224 7.24112 3.04844 7.09413C2.97464 6.94714 2.98583 6.76978 3.07747 6.63401L6.07747 2.1896C6.18474 2.03068 6.37901 1.96227 6.55742 2.02059Z" fill="white"/>
</svg>
