<svg width="12" height="12" viewBox="0 0 12 12" fill="none" xmlns="http://www.w3.org/2000/svg">
<circle cx="6" cy="6" r="6" fill="url(#paint0_linear_666_4012)"/>
<path fill-rule="evenodd" clip-rule="evenodd" d="M6.55742 2.02181C6.73582 2.08013 6.85714 2.25171 6.85714 2.44569V4.6679L8.57143 4.6679C8.73123 4.6679 8.87776 4.7601 8.95156 4.90709C9.02536 5.05408 9.01417 5.23145 8.92253 5.36721L5.92253 9.81162C5.81526 9.97054 5.62099 10.0389 5.44258 9.98063C5.26418 9.92231 5.14286 9.75073 5.14286 9.55675L5.14286 7.33454H3.42857C3.26877 7.33454 3.12224 7.24234 3.04844 7.09535C2.97464 6.94836 2.98583 6.771 3.07747 6.63523L6.07747 2.19082C6.18474 2.0319 6.37901 1.96349 6.55742 2.02181Z" fill="white"/>
<defs>
<linearGradient id="paint0_linear_666_4012" x1="12" y1="4.52344" x2="-1.58585e-07" y2="9.16406" gradientUnits="userSpaceOnUse">
<stop stop-color="#B6509E"/>
<stop offset="1" stop-color="#2EBAC6"/>
</linearGradient>
</defs>
</svg>
