<svg width="14" height="14" viewBox="0 0 14 14" fill="none" xmlns="http://www.w3.org/2000/svg">
<path d="M13.6528 5.698L12.404 5.5482C12.2768 5.07766 12.0886 4.62581 11.844 4.2042L12.6252 3.22C12.6829 3.14312 12.7114 3.04822 12.7055 2.95227C12.6996 2.85633 12.6597 2.76563 12.593 2.6964L11.305 1.4C11.2349 1.33403 11.1436 1.29514 11.0474 1.29026C10.9512 1.28539 10.8564 1.31486 10.78 1.3734L9.8 2.1504C9.37966 1.90525 8.92866 1.71694 8.4588 1.5904L8.302 0.3472C8.28815 0.252371 8.2412 0.165499 8.16946 0.101956C8.09771 0.0384141 8.00581 0.0022983 7.91 0L6.09 0C5.99411 0.00201982 5.90205 0.0380386 5.83026 0.101631C5.75846 0.165224 5.71159 0.252255 5.698 0.3472L5.5482 1.596C5.07802 1.72292 4.62661 1.9112 4.2056 2.156L3.22 1.3748C3.1436 1.3157 3.04864 1.28577 2.95216 1.29038C2.85568 1.295 2.764 1.33387 2.6936 1.4L1.4 2.695C1.33423 2.76531 1.2956 2.85671 1.29098 2.95287C1.28636 3.04904 1.31607 3.14371 1.3748 3.22L2.1518 4.2C1.90674 4.62138 1.71845 5.07329 1.5918 5.544L0.343 5.6938C0.248002 5.70872 0.161383 5.75687 0.0985689 5.82968C0.0357553 5.9025 0.000825347 5.99524 0 6.0914L0 7.9114C0.0022983 8.00721 0.0384141 8.09911 0.101956 8.17086C0.165499 8.2426 0.252371 8.28955 0.3472 8.3034L1.596 8.4532C1.72325 8.92282 1.91152 9.37373 2.156 9.7944L1.3762 10.78C1.31877 10.857 1.29049 10.9518 1.29638 11.0477C1.30228 11.1436 1.34197 11.2342 1.4084 11.3036L2.6936 12.6C2.76366 12.6665 2.85515 12.7059 2.95164 12.711C3.04812 12.7162 3.14328 12.6867 3.22 12.628L4.2 11.8496C4.62083 12.0948 5.07229 12.2831 5.5426 12.4096L5.6924 13.6584C5.70735 13.7533 5.75556 13.8397 5.8284 13.9023C5.90124 13.9649 5.99397 13.9995 6.09 14H7.91C8.00597 13.9983 8.09818 13.9623 8.17003 13.8987C8.24189 13.8351 8.28868 13.7479 8.302 13.6528L8.4518 12.404C8.92359 12.2792 9.37688 12.0928 9.8 11.8496L10.7884 12.6266C10.8643 12.6833 10.9576 12.7117 11.0522 12.7068C11.1468 12.7019 11.2367 12.6642 11.3064 12.6L12.6 11.3064C12.6661 11.236 12.705 11.1443 12.7096 11.0478C12.7142 10.9514 12.6843 10.8564 12.6252 10.78L11.8482 9.8C12.0931 9.37903 12.2814 8.9276 12.4082 8.4574L13.657 8.3076C13.7519 8.29299 13.8385 8.24511 13.9013 8.17253C13.9641 8.09995 13.9991 8.0074 14 7.9114V6.09C13.9983 5.99403 13.9623 5.90182 13.8987 5.82997C13.8351 5.75811 13.7479 5.71132 13.6528 5.698ZM7 10.5C6.30777 10.5 5.63108 10.2947 5.0555 9.91014C4.47993 9.52556 4.03133 8.97893 3.76642 8.33939C3.50151 7.69985 3.4322 6.99612 3.56725 6.31718C3.7023 5.63825 4.03564 5.01461 4.52513 4.52513C5.01461 4.03564 5.63825 3.7023 6.31718 3.56725C6.99612 3.4322 7.69985 3.50151 8.33939 3.76642C8.97893 4.03133 9.52556 4.47993 9.91014 5.0555C10.2947 5.63108 10.5 6.30777 10.5 7C10.5 7.92826 10.1313 8.8185 9.47487 9.47487C8.8185 10.1313 7.92826 10.5 7 10.5Z" fill="#8D8F99"/>
</svg>
