<svg xmlns="http://www.w3.org/2000/svg" width="14" height="14" viewBox="0 0 14 14"><defs><style>.cls-2{fill:#383d51}</style></defs><g id="Group_46897" opacity=".3"><g id="Group_10915"><path id="Path_5180" d="M192.064 106.79a1.4 1.4 0 00.077.141c.026.038.064.077.09.115a1.16 1.16 0 00.128.115.432.432 0 00.154.077.634.634 0 00.166.051.787.787 0 00.166.013.729.729 0 00.166-.013.459.459 0 00.141-.051h.013a.955.955 0 00.154-.09.823.823 0 00.115-.1l.013-.013a.7.7 0 00.09-.115.4.4 0 00.064-.128c0-.013 0-.013.013-.026a.831.831 0 00.051-.166 1.091 1.091 0 000-.333 1.2 1.2 0 00-.051-.166.727.727 0 00-.154-.23l-.026-.026a1.112 1.112 0 00-.128-.1c-.051-.026-.09-.051-.141-.077a.721.721 0 00-.154-.051.786.786 0 00-.166-.013.674.674 0 00-.32.064h-.013a1.4 1.4 0 00-.141.077 1.122 1.122 0 00-.128.1.83.83 0 00-.1.115 1.4 1.4 0 00-.077.141.722.722 0 00-.051.154.788.788 0 00-.013.166.73.73 0 00.013.166 1.164 1.164 0 00.049.203z" class="cls-2" transform="translate(-185.857 -102.222)"/><path id="Path_5181" d="M179.9 184.268h-.294v-3.135a.33.33 0 00-.333-.333h-1.344a.33.33 0 00-.333.333v.691a.33.33 0 00.333.333h.269v2.124h-.269a.33.33 0 00-.333.333v.691a.33.33 0 00.333.333h1.971a.33.33 0 00.333-.333v-.691a.342.342 0 00-.333-.346z" class="cls-2" transform="translate(-171.918 -175.016)"/><path id="Path_5182" d="M7 0a7 7 0 107 7 7 7 0 00-7-7zm0 13.079A6.079 6.079 0 1113.079 7 6.084 6.084 0 017 13.079z" class="cls-2"/></g></g></svg>