<svg xmlns="http://www.w3.org/2000/svg" id="Group_20017" viewBox="0 0 12 12"><defs><style>.cls-1{fill:#8d8f99}</style></defs><g id="Group_10915"><path id="Path_5180" d="M192.055 106.62a1.2 1.2 0 00.066.121c.022.033.055.066.077.1a.994.994 0 00.11.1.37.37 0 00.132.066.542.542 0 00.143.044.674.674 0 00.143.011.626.626 0 00.143-.011.393.393 0 00.121-.044h.01a.818.818 0 00.132-.077.708.708 0 00.1-.088l.011-.011a.6.6 0 00.077-.1.344.344 0 00.055-.11c0-.011 0-.011.011-.022a.713.713 0 00.044-.143.934.934 0 000-.285 1.025 1.025 0 00-.044-.143.623.623 0 00-.132-.2l-.022-.022a.955.955 0 00-.11-.088c-.044-.022-.077-.044-.121-.066a.618.618 0 00-.132-.044.674.674 0 00-.143-.011.625.625 0 00-.143.011.618.618 0 00-.132.044h-.011a1.2 1.2 0 00-.121.066.96.96 0 00-.11.088.711.711 0 00-.088.1 1.2 1.2 0 00-.066.121.617.617 0 00-.044.132.675.675 0 00-.011.143.626.626 0 00.011.143 1 1 0 00.044.175z" class="cls-1" transform="translate(-186.735 -102.704)"/><path id="Path_5181" d="M179.574 183.773h-.252v-2.687a.283.283 0 00-.285-.285h-1.152a.283.283 0 00-.285.285v.592a.283.283 0 00.285.285h.23v1.821h-.23a.283.283 0 00-.285.285v.592a.283.283 0 00.285.285h1.689a.283.283 0 00.285-.285v-.592a.293.293 0 00-.285-.296z" class="cls-1" transform="translate(-172.73 -175.842)"/><path id="Path_5182" d="M6 0a6 6 0 106 6 6 6 0 00-6-6zm0 11.21A5.21 5.21 0 1111.21 6 5.215 5.215 0 016 11.21z" class="cls-1"/></g></svg>