<svg xmlns="http://www.w3.org/2000/svg" width="5.783" height="11.145" viewBox="0 0 5.783 11.145"><path fill="#65c970" d="M4.09 7.641a1.072 1.072 0 00-.267-.765 2.417 2.417 0 00-.905-.524 10.68 10.68 0 01-1.1-.478 3.509 3.509 0 01-.794-.545 2.189 2.189 0 01-.516-.724 2.429 2.429 0 01-.185-.99 2.2 2.2 0 01.633-1.623 2.67 2.67 0 011.682-.738V0h.938v1.271a2.447 2.447 0 011.623.864 2.848 2.848 0 01.586 1.86H4.09a1.617 1.617 0 00-.29-1.052.958.958 0 00-.776-.349.987.987 0 00-.744.272 1.037 1.037 0 00-.264.753.991.991 0 00.258.715 2.841 2.841 0 00.958.551 10.64 10.64 0 011.151.53 3.323 3.323 0 01.762.563 2.178 2.178 0 01.475.715 2.458 2.458 0 01.164.935 2.188 2.188 0 01-.623 1.618 2.724 2.724 0 01-1.71.733v1.166H2.52v-1.16a2.819 2.819 0 01-1.859-.853A2.748 2.748 0 010 7.207h1.693a1.558 1.558 0 00.331 1.069 1.208 1.208 0 00.952.372 1.163 1.163 0 00.814-.272.946.946 0 00.3-.735z" data-name="Path 9142"/></svg>