<svg width="16" height="14" viewBox="0 0 16 14" fill="none" xmlns="http://www.w3.org/2000/svg">
<path d="M7.14331 10.7143C7.14331 10.9416 7.23361 11.1596 7.39436 11.3204C7.55511 11.4811 7.77312 11.5714 8.00045 11.5714C8.22778 11.5714 8.4458 11.4811 8.60654 11.3204C8.76729 11.1596 8.85759 10.9416 8.85759 10.7143C8.85759 10.487 8.76729 10.2689 8.60654 10.1082C8.4458 9.94745 8.22778 9.85714 8.00045 9.85714C7.77312 9.85714 7.55511 9.94745 7.39436 10.1082C7.23361 10.2689 7.14331 10.487 7.14331 10.7143ZM7.42902 5.28571V8.57143C7.42902 8.65 7.49331 8.71429 7.57188 8.71429H8.42902C8.5076 8.71429 8.57188 8.65 8.57188 8.57143V5.28571C8.57188 5.20714 8.5076 5.14286 8.42902 5.14286H7.57188C7.49331 5.14286 7.42902 5.20714 7.42902 5.28571ZM15.9237 13.1429L8.4951 0.285714C8.38438 0.0946429 8.19331 0 8.00045 0C7.80759 0 7.61474 0.0946429 7.50581 0.285714L0.0772382 13.1429C-0.142405 13.525 0.132595 14 0.571881 14H15.429C15.8683 14 16.1433 13.525 15.9237 13.1429ZM1.9326 12.6446L8.00045 2.14107L14.0683 12.6446H1.9326Z" fill="#FFAC4D"/>
</svg>
