<svg width="19" height="16" viewBox="0 0 19 16" fill="none" xmlns="http://www.w3.org/2000/svg">
<path d="M8.16378 12.2449C8.16378 12.5047 8.26699 12.7539 8.4507 12.9376C8.63441 13.1213 8.88357 13.2245 9.14337 13.2245C9.40318 13.2245 9.65234 13.1213 9.83605 12.9376C10.0198 12.7539 10.123 12.5047 10.123 12.2449C10.123 11.9851 10.0198 11.7359 9.83605 11.5522C9.65234 11.3685 9.40318 11.2653 9.14337 11.2653C8.88357 11.2653 8.63441 11.3685 8.4507 11.5522C8.26699 11.7359 8.16378 11.9851 8.16378 12.2449ZM8.49031 6.04082V9.79592C8.49031 9.88571 8.56378 9.95918 8.65358 9.95918H9.63317C9.72297 9.95918 9.79644 9.88571 9.79644 9.79592V6.04082C9.79644 5.95102 9.72297 5.87755 9.63317 5.87755H8.65358C8.56378 5.87755 8.49031 5.95102 8.49031 6.04082ZM18.1985 15.0204L9.70868 0.326531C9.58215 0.108163 9.36378 0 9.14337 0C8.92297 0 8.70256 0.108163 8.57807 0.326531L0.0882723 15.0204C-0.162748 15.4571 0.151537 16 0.653578 16H17.6332C18.1352 16 18.4495 15.4571 18.1985 15.0204ZM2.20868 14.451L9.14337 2.44694L16.0781 14.451H2.20868Z" fill="#fff"/>
</svg>
