<svg xmlns="http://www.w3.org/2000/svg" width="56.619" height="40" viewBox="0 0 56.619 40"><defs><linearGradient id="a" x1=".972" y1=".028" x2="0" y2="1" gradientUnits="objectBoundingBox"><stop offset="0" stop-color="#11c4d1"/><stop offset="1" stop-color="#0062ad"/></linearGradient></defs><g data-name="Group 25766"><path data-name="Path 9437" d="M56.462 1.414C58.33 26.7 42.073 38.657 27.5 39.931 13.951 41.116 1.2 32.791.079 20-.844 9.432 5.687 4.933 10.819 4.485c5.278-.463 9.713 3.177 10.1 7.584.371 4.237-2.273 6.165-4.112 6.326a3.085 3.085 0 01-3.449-2.651c-.142-1.629.477-1.851.326-3.581-.269-3.08-2.955-3.439-4.426-3.312-1.78.156-5.009 2.233-4.556 7.407.456 5.219 5.46 9.343 12.019 8.769C23.8 24.409 28.727 18.9 29.1 11.167a2.809 2.809 0 01.25-1.187v-.009a3.331 3.331 0 01.267-.465 6.291 6.291 0 01.595-.751c0-.007 0-.007.007-.007.182-.205.4-.427.649-.666C33.963 5.165 45.1-1.716 55.632.463a1.055 1.055 0 01.831.951" transform="translate(.009 -.044)" fill="url(#a)"/></g></svg>