<svg xmlns="http://www.w3.org/2000/svg" width="40" height="24.516" viewBox="0 0 40 24.516"><path fill="#3b99fc" d="M8.189 4.79a16.957 16.957 0 0123.622 0l.785.769a.806.806 0 010 1.156l-2.685 2.63a.424.424 0 01-.591 0l-1.08-1.058a11.83 11.83 0 00-16.48 0L10.603 9.42a.424.424 0 01-.591 0L7.327 6.79a.806.806 0 010-1.156zm29.173 5.438l2.39 2.34a.806.806 0 010 1.156L28.978 24.277a.848.848 0 01-1.181 0l-7.649-7.489a.212.212 0 00-.3 0l-7.649 7.489a.848.848 0 01-1.181 0L.244 13.724a.806.806 0 010-1.156l2.39-2.34a.848.848 0 011.181 0l7.647 7.489a.212.212 0 00.3 0l7.649-7.489a.848.848 0 011.181 0l7.649 7.489a.212.212 0 00.3 0l7.649-7.489a.848.848 0 011.172 0z"/></svg>