<svg width="22" height="16" viewBox="0 0 22 16" fill="none" xmlns="http://www.w3.org/2000/svg"><path d="M3.929 15a9.893 9.893 0 0 1-2.168-3.212 9.813 9.813 0 0 1 0-7.576A9.893 9.893 0 0 1 3.93 1m14.14 0a9.896 9.896 0 0 1 2.168 3.212 9.814 9.814 0 0 1 0 7.576A9.896 9.896 0 0 1 18.07 15m-11-3.112A5.472 5.472 0 0 1 5.445 8c0-1.458.585-2.857 1.626-3.888m7.858 0A5.472 5.472 0 0 1 16.555 8a5.472 5.472 0 0 1-1.626 3.888M12.11 8c0 .292-.117.571-.325.778a1.117 1.117 0 0 1-1.572 0 1.095 1.095 0 0 1 0-1.556 1.117 1.117 0 0 1 1.572 0c.208.206.325.486.325.778Z" stroke="#A5A8B6" stroke-width="1.5" stroke-linecap="round" stroke-linejoin="round"/></svg>
