<svg width="118" height="20" viewBox="0 0 118 20" fill="none" xmlns="http://www.w3.org/2000/svg">
<path d="M43.3203 13.875H39.5625L38.9062 16H35.9766L40.1484 4.625H42.7266L46.9297 16H43.9844L43.3203 13.875ZM40.2188 11.7578H42.6641L41.4375 7.8125L40.2188 11.7578Z" fill="white"/>
<path d="M52.1522 11.9844H50.6678V16H47.9256V4.625H52.4022C53.7511 4.625 54.8058 4.92448 55.5662 5.52344C56.3267 6.1224 56.7069 6.96875 56.7069 8.0625C56.7069 8.85417 56.5454 9.51042 56.2225 10.0312C55.9048 10.5521 55.4048 10.974 54.7225 11.2969L57.0975 15.8828V16H54.16L52.1522 11.9844ZM50.6678 9.86719H52.4022C52.923 9.86719 53.3136 9.73177 53.5741 9.46094C53.8397 9.1849 53.9725 8.80208 53.9725 8.3125C53.9725 7.82292 53.8397 7.4401 53.5741 7.16406C53.3084 6.88281 52.9178 6.74219 52.4022 6.74219H50.6678V9.86719Z" fill="white"/>
<path d="M58.5231 16V4.625H62.6091C64.0726 4.625 65.1846 4.89323 65.945 5.42969C66.7106 5.96615 67.0934 6.74479 67.0934 7.76562C67.0934 8.35417 66.958 8.85677 66.6872 9.27344C66.4164 9.6901 66.0179 9.9974 65.4919 10.1953C66.0856 10.3516 66.5414 10.6432 66.8591 11.0703C67.1768 11.4974 67.3356 12.0182 67.3356 12.6328C67.3356 13.7474 66.9815 14.5859 66.2731 15.1484C65.57 15.7057 64.5257 15.9896 63.1403 16H58.5231ZM61.2653 11.1641V13.8906H63.0622C63.557 13.8906 63.9372 13.7786 64.2028 13.5547C64.4684 13.3255 64.6012 13.0052 64.6012 12.5938C64.6012 11.6458 64.1299 11.1693 63.1872 11.1641H61.2653ZM61.2653 9.36719H62.695C63.294 9.36198 63.721 9.2526 63.9762 9.03906C64.2315 8.82552 64.3591 8.51042 64.3591 8.09375C64.3591 7.61458 64.221 7.27083 63.945 7.0625C63.669 6.84896 63.2236 6.74219 62.6091 6.74219H61.2653V9.36719Z" fill="white"/>
<path d="M71.9331 16H69.1987V4.625H71.9331V16Z" fill="white"/>
<path d="M82.6947 6.74219H79.2806V16H76.5384V6.74219H73.1869V4.625H82.6947V6.74219Z" fill="white"/>
<path d="M88.2453 11.9844H86.7609V16H84.0187V4.625H88.4953C89.8443 4.625 90.899 4.92448 91.6594 5.52344C92.4198 6.1224 92.8 6.96875 92.8 8.0625C92.8 8.85417 92.6385 9.51042 92.3156 10.0312C91.9979 10.5521 91.4979 10.974 90.8156 11.2969L93.1906 15.8828V16H90.2531L88.2453 11.9844ZM86.7609 9.86719H88.4953C89.0161 9.86719 89.4068 9.73177 89.6672 9.46094C89.9328 9.1849 90.0656 8.80208 90.0656 8.3125C90.0656 7.82292 89.9328 7.4401 89.6672 7.16406C89.4016 6.88281 89.0109 6.74219 88.4953 6.74219H86.7609V9.86719Z" fill="white"/>
<path d="M103.538 4.625V12.0703C103.538 12.9141 103.358 13.6458 102.999 14.2656C102.64 14.8802 102.124 15.349 101.452 15.6719C100.78 15.9948 99.986 16.1562 99.0694 16.1562C97.684 16.1562 96.5928 15.7969 95.7959 15.0781C94.9991 14.3594 94.5928 13.375 94.5772 12.125V4.625H97.335V12.1797C97.3662 13.4245 97.9444 14.0469 99.0694 14.0469C99.6371 14.0469 100.067 13.8906 100.358 13.5781C100.65 13.2656 100.796 12.7578 100.796 12.0547V4.625H103.538Z" fill="white"/>
<path d="M109.018 4.625L111.558 12.5391L114.089 4.625H117.698V16H114.948V13.3438L115.214 7.90625L112.464 16H110.651L107.893 7.89844L108.159 13.3438V16H105.417V4.625H109.018Z" fill="white"/>
<path d="M5.13109 18.0378L2.90185 16.4424H2.9106C2.9206 16.4262 3.28568 15.8173 3.8433 14.8958V14.8883C5.08483 12.8279 7.16154 9.37959 8.44808 7.26162L8.67313 6.88653C8.86067 6.57897 9.04821 6.26139 9.24201 5.94632C9.25552 5.91824 9.27688 5.89468 9.30351 5.87848C9.33014 5.86228 9.36089 5.85415 9.39204 5.85505H9.47206H9.59708H9.70961L11.6575 5.84505H12.2077L12.1702 5.91382C12.1427 5.95633 12.1276 5.99259 12.1064 6.02884L10.3085 9.07702L10.2785 9.12828L5.73373 16.8337C5.71577 16.8659 5.70031 16.8993 5.68747 16.9338L5.66746 16.9813L5.70497 16.9975L5.75998 17.0213L5.13484 18.0365L5.13109 18.0378ZM2.19169 15.9348L0.0149536 14.3769V13.6268L1.26523 11.5663C1.26523 11.7976 1.26523 12.0252 1.26523 12.2965C1.26613 12.3102 1.26613 12.324 1.26523 12.3377C1.26523 12.3815 1.25398 12.4265 1.30274 12.4628L1.32274 12.4303L1.36525 12.3615L2.33297 10.8612V10.8537C3.17566 9.54463 4.0471 8.19057 4.89979 6.86653C5.13891 6.48541 5.49839 6.195 5.92127 6.04135C6.36164 5.88271 6.82733 5.80601 7.29532 5.81505H7.39159C7.64165 5.81505 7.8917 5.82755 8.14176 5.83505L8.37931 5.8438C8.39458 5.84512 8.40967 5.84805 8.42432 5.85255L8.45683 5.86006C7.37159 7.59961 6.32511 9.28207 5.31738 10.9074C4.31133 12.5295 3.26943 14.2052 2.19169 15.9348Z" fill="white"/>
<path d="M5.66877 16.9817C5.70877 16.9992 5.75003 17.0142 5.79379 17.0368C6.72566 17.5719 7.65712 18.1074 8.58816 18.6433C8.65858 18.6938 8.73883 18.729 8.8237 18.7464C8.90857 18.7639 8.99615 18.7632 9.08077 18.7446C9.11894 18.7358 9.15589 18.7224 9.1908 18.7046L11.7151 17.2368C11.719 17.2335 11.7224 17.2298 11.7251 17.2255C11.9064 17.1255 12.0889 17.028 12.2677 16.9242C12.7387 16.6533 13.2084 16.3812 13.6768 16.1078C13.8806 15.9828 14.0819 15.8577 14.2844 15.7415L14.9958 15.3264C15.0709 15.2889 15.1484 15.2563 15.2221 15.2138C15.561 15.0188 15.8923 14.8112 16.2374 14.6262C16.3479 14.5752 16.4401 14.4915 16.5016 14.3864C16.5631 14.2813 16.5909 14.1599 16.5812 14.0386C16.5737 13.6172 16.5812 13.1959 16.5812 12.7745C16.5812 12.7195 16.5812 12.6658 16.5812 12.6108C16.5812 10.3969 16.5812 8.18352 16.5812 5.97053C16.5892 5.8714 16.5737 5.7718 16.5362 5.67972C16.4986 5.58765 16.4399 5.50567 16.3649 5.44041C16.3225 5.40625 16.2774 5.37572 16.2299 5.34915L10.8249 2.24096C10.3173 1.94965 9.80593 1.66457 9.30457 1.36575C9.18734 1.28653 9.0491 1.24419 8.90761 1.24419C8.76612 1.24419 8.62787 1.28653 8.51064 1.36575C6.28098 2.66271 4.04924 3.95467 1.81541 5.24162C1.73414 5.28913 1.65413 5.34039 1.56536 5.38415C1.46052 5.43747 1.3732 5.51979 1.3138 5.62131C1.25439 5.72282 1.2254 5.83927 1.23027 5.95679C1.23027 6.12058 1.24028 6.28436 1.24028 6.4469C1.24028 8.39733 1.24319 10.3478 1.24903 12.2982C1.24903 12.352 1.21902 12.4232 1.28279 12.4607L0.815182 13.1846L0.0937766 14.2949C0.0712716 14.3299 0.04501 14.3637 0 14.4199V14.2561C0 11.4713 0 8.68696 0 5.90301C0.000194961 5.66428 0.0475762 5.42795 0.13941 5.20759C0.231245 4.98723 0.365723 4.7872 0.535121 4.61898C0.717281 4.45039 0.922767 4.30891 1.14525 4.19889C1.89542 3.76796 2.64184 3.33537 3.3845 2.90111L5.68877 1.5683C6.43143 1.13821 7.1741 0.710606 7.91426 0.276759C8.26488 0.0648987 8.67406 -0.0292869 9.08202 0.00795394C9.32549 0.0264232 9.56195 0.0981261 9.77467 0.218C10.8532 0.838971 11.9314 1.46036 13.0091 2.08216C13.7181 2.48975 14.4295 2.89485 15.1346 3.30119C15.7323 3.64377 16.3374 3.97508 16.925 4.33516C17.1992 4.49023 17.4263 4.71678 17.5819 4.99067C17.7376 5.26457 17.8161 5.57556 17.809 5.89051C17.809 8.63029 17.809 11.3701 17.809 14.1098C17.8143 14.3817 17.7541 14.6508 17.6335 14.8945C17.513 15.1382 17.3356 15.3494 17.1163 15.5102C16.9245 15.6423 16.7245 15.7622 16.5174 15.869L14.8921 16.8079L13.283 17.7381L10.9074 19.1135C10.5261 19.3348 10.1473 19.5623 9.76092 19.7748C9.48982 19.9293 9.18175 20.007 8.86982 19.9995C8.55789 19.992 8.2539 19.8997 7.99053 19.7323C7.33164 19.3573 6.67399 18.9822 6.01759 18.5996L5.09114 18.0632C5.07113 18.0507 5.05238 18.0357 5.02737 18.017C5.04162 17.9794 5.0579 17.9427 5.07613 17.9069C5.24284 17.6202 5.40953 17.3339 5.57624 17.048C5.60404 17.0219 5.63515 16.9997 5.66877 16.9817Z" fill="white"/>
<path d="M16.5822 12.7776C16.5822 13.1989 16.5822 13.6203 16.5822 14.0416C16.5919 14.163 16.5642 14.2844 16.5027 14.3895C16.4412 14.4945 16.349 14.5782 16.2384 14.6292C15.8946 14.813 15.562 15.0206 15.2232 15.2169C15.1507 15.2594 15.0732 15.2919 14.9969 15.3294C14.8194 15.0493 14.6393 14.7693 14.4655 14.488C13.5912 13.0751 12.716 11.6623 11.8399 10.2495L11.1685 9.16427L12.6339 6.67871C12.6676 6.72122 12.6951 6.75248 12.7176 6.78749L15.8621 11.6823C16.0659 11.9999 16.2684 12.3175 16.4722 12.6338C16.5097 12.6825 16.5472 12.7301 16.5822 12.7776Z" fill="white"/>
<path d="M14.2868 15.7413C14.0843 15.8664 13.8843 15.9914 13.6792 16.1077C13.2099 16.3819 12.7398 16.6541 12.2689 16.9241C12.0901 17.0279 11.9076 17.1254 11.7263 17.2254C11.4262 16.752 11.1261 16.2785 10.8261 15.8051L9.02566 12.982C9.00941 12.957 8.9969 12.9307 8.9769 12.8957L10.661 10.0388L11.0686 10.679L13.1503 13.9585L14.2268 15.6538C14.2456 15.6851 14.2668 15.7126 14.2868 15.7413Z" fill="white"/>
</svg>
