<svg width="107" height="21" viewBox="0 0 107 21" fill="none" xmlns="http://www.w3.org/2000/svg">
   <path d="M17.5851 6.10717C17.3617 5.98246 17.11 5.917 16.8541 5.917C16.5982 5.917 16.3466 5.98246 16.1231 6.10717L12.7691 8.05217L10.4911 9.32117L7.13709 11.2662C6.91363 11.3909 6.662 11.4564 6.4061 11.4564C6.1502 11.4564 5.89857 11.3909 5.67511 11.2662L3.0091 9.74417C2.79225 9.61977 2.61109 9.44163 2.48306 9.2269C2.35503 9.01217 2.28445 8.76809 2.27811 8.51817V5.51817C2.27518 5.26631 2.34189 5.01853 2.47089 4.80219C2.59988 4.58584 2.78613 4.40935 3.0091 4.29218L5.63211 2.81217C5.85557 2.68746 6.1072 2.62199 6.3631 2.62199C6.619 2.62199 6.87063 2.68746 7.09409 2.81217L9.7171 4.29218C9.93408 4.41643 10.1154 4.59454 10.2434 4.8093C10.3715 5.02406 10.4419 5.26821 10.4481 5.51817V7.46217L12.7261 6.15218V4.20718C12.7292 3.95529 12.6625 3.70746 12.5335 3.4911C12.4045 3.27473 12.2181 3.09825 11.9951 2.98117L7.13709 0.19017C6.91363 0.0654619 6.662 0 6.4061 0C6.1502 0 5.89857 0.0654619 5.67511 0.19017L0.731111 2.98117C0.508142 3.09834 0.321867 3.27484 0.192872 3.49119C0.0638775 3.70753 -0.00283944 3.95531 9.26454e-05 4.20718V9.83118C-0.00283944 10.083 0.0638775 10.3308 0.192872 10.5472C0.321867 10.7635 0.508142 10.94 0.731111 11.0572L5.67511 13.8482C5.89857 13.9729 6.1502 14.0384 6.4061 14.0384C6.662 14.0384 6.91363 13.9729 7.13709 13.8482L10.4911 11.9482L12.7691 10.6372L16.1231 8.73717C16.3466 8.61247 16.5982 8.547 16.8541 8.547C17.11 8.547 17.3617 8.61247 17.5851 8.73717L20.2081 10.2172C20.4249 10.3416 20.606 10.5197 20.7338 10.7345C20.8617 10.9492 20.9321 11.1933 20.9381 11.4432V14.4432C20.9411 14.6949 20.8746 14.9426 20.7458 15.159C20.6169 15.3753 20.4309 15.5519 20.2081 15.6692L17.5851 17.1912C17.3617 17.3159 17.11 17.3813 16.8541 17.3813C16.5982 17.3813 16.3466 17.3159 16.1231 17.1912L13.5001 15.7112C13.2832 15.5868 13.1021 15.4086 12.9741 15.1939C12.846 14.9792 12.7754 14.7351 12.7691 14.4852V12.5402L10.4911 13.8512V15.7962C10.488 16.0481 10.5547 16.2959 10.6837 16.5122C10.8127 16.7286 10.9991 16.9051 11.2221 17.0222L16.1661 19.8132C16.3896 19.9379 16.6412 20.0033 16.8971 20.0033C17.153 20.0033 17.4047 19.9379 17.6281 19.8132L22.5721 17.0222C22.7891 16.8979 22.9703 16.7198 23.0984 16.5051C23.2264 16.2903 23.297 16.0461 23.3031 15.7962V10.1622C23.306 9.91031 23.2393 9.66253 23.1103 9.44619C22.9813 9.22985 22.7951 9.05334 22.5721 8.93617L17.5851 6.10717Z" fill="white"/>
   <path d="M38.8089 11.8793V15.834H36V4.17569H40.6506C41.4669 4.15908 42.2765 4.32721 43.0187 4.66752C43.675 4.96935 44.229 5.45621 44.6126 6.06835C44.993 6.68807 45.1889 7.40336 45.1773 8.13042C45.1979 8.64909 45.0985 9.16551 44.8868 9.63946C44.6751 10.1134 44.3569 10.5321 43.9568 10.8628C42.9969 11.5903 41.8093 11.9519 40.6069 11.883L38.8089 11.8793ZM38.8089 9.70976H40.6506C41.1027 9.74136 41.5492 9.59492 41.8948 9.30172C42.0436 9.15052 42.1591 8.96977 42.2338 8.77116C42.3085 8.57254 42.3407 8.36047 42.3283 8.14864C42.3521 7.6737 42.1945 7.20746 41.8875 6.84436C41.7347 6.68035 41.5484 6.5512 41.3413 6.4657C41.1341 6.38019 40.911 6.34035 40.687 6.34888H38.8144L38.8089 9.70976ZM56.5406 10.2453C56.5612 11.2864 56.3451 12.3185 55.9085 13.2637C55.5219 14.1009 54.8964 14.8051 54.1105 15.2876C53.3093 15.7667 52.3899 16.0122 51.4564 15.9962C50.53 16.0133 49.6165 15.7764 48.8151 15.3112C48.0388 14.8472 47.4142 14.1675 47.0172 13.3548C46.5743 12.4469 46.3432 11.4504 46.3413 10.4402V9.78445C46.3201 8.74258 46.5349 7.7094 46.9698 6.76239C47.357 5.92495 47.984 5.22125 48.7714 4.74039C49.5752 4.25649 50.4982 4.00666 51.4364 4.01903C52.3653 4.00352 53.2801 4.24768 54.0777 4.72399C54.8623 5.20204 55.4913 5.89748 55.8884 6.72595C56.3312 7.65745 56.5531 8.67852 56.5369 9.70976L56.5406 10.2453ZM53.6825 9.75713C53.7396 8.84082 53.5382 7.92689 53.1014 7.11942C52.9296 6.83428 52.6846 6.6004 52.3918 6.44213C52.0989 6.28386 51.769 6.207 51.4364 6.21954C50.0277 6.21954 49.2832 7.27608 49.2031 9.38916V10.2453C49.15 11.1586 49.3465 12.0692 49.7714 12.8794C49.9422 13.1722 50.1899 13.4126 50.4875 13.5748C50.7851 13.7369 51.1215 13.8146 51.4601 13.7993C51.79 13.8088 52.1164 13.7293 52.4049 13.569C52.6934 13.4087 52.9333 13.1736 53.0995 12.8885C53.531 12.092 53.7333 11.1917 53.6843 10.2872L53.6825 9.75713ZM60.7995 13.6718H65.6906V15.834H57.9942V4.17569H60.7995V13.6718ZM68.9094 9.23614L71.0534 4.17569H74.0882L70.3339 11.6443V15.834H67.483V11.6443L63.7378 4.17569H66.7562L68.9094 9.23614ZM84.2474 14.3913C83.7215 14.931 83.069 15.3305 82.3493 15.5535C81.4701 15.8546 80.5461 16.0036 79.6168 15.9943C78.9426 16.0268 78.2689 15.9191 77.6383 15.678C77.0078 15.4369 76.4341 15.0676 75.9536 14.5935C74.9913 13.5258 74.4704 12.1324 74.4963 10.6953V9.68608C74.4729 8.6514 74.6808 7.62456 75.1047 6.68041C75.4713 5.86479 76.0716 5.1763 76.8298 4.70213C77.6214 4.23037 78.5297 3.99052 79.4511 4.00992C80.6606 3.93486 81.8581 4.28758 82.8338 5.00635C83.255 5.38298 83.5964 5.84033 83.8376 6.3513C84.0789 6.86227 84.2151 7.41647 84.2383 7.98105H81.5332C81.4972 7.45704 81.2756 6.963 80.9084 6.58751C80.5194 6.29079 80.0357 6.14575 79.5476 6.17947C79.2191 6.16807 78.8935 6.24527 78.6051 6.40295C78.3166 6.56063 78.0759 6.793 77.9082 7.0757C77.4782 7.8582 77.2757 8.74534 77.3234 9.6369V10.3419C77.2654 11.2533 77.475 12.1619 77.9264 12.9559C78.1378 13.2509 78.4217 13.4863 78.7507 13.6395C79.0797 13.7927 79.4426 13.8584 79.8045 13.8303C80.3927 13.8775 80.9774 13.7034 81.4439 13.3421V11.535H79.4893V9.60593H84.2456L84.2474 14.3913ZM95.7509 10.2453C95.7716 11.2864 95.5554 12.3185 95.1188 13.2637C94.7323 14.1009 94.1067 14.8051 93.3209 15.2876C92.5196 15.7667 91.6003 16.0122 90.6668 15.9962C89.7403 16.0133 88.8268 15.7764 88.0254 15.3112C87.2496 14.8464 86.6255 14.1661 86.2293 13.353C85.7864 12.4451 85.5554 11.4486 85.5535 10.4384V9.78263C85.5322 8.74075 85.7471 7.70758 86.182 6.76056C86.566 5.91733 87.1925 5.20767 87.9817 4.72217C88.7881 4.24048 89.7131 3.99378 90.6522 4.00992C91.5811 3.99441 92.4959 4.23857 93.2935 4.71489C94.0767 5.19646 94.7033 5.8951 95.097 6.72595C95.5407 7.65659 95.7639 8.67703 95.7491 9.70794L95.7509 10.2453ZM92.8928 9.75713C92.9499 8.84082 92.7486 7.92689 92.3117 7.11942C92.1403 6.83484 91.8958 6.60131 91.6037 6.44307C91.3116 6.28484 90.9824 6.20766 90.6504 6.21954C89.2417 6.21954 88.4972 7.27608 88.4171 9.38916V10.2453C88.364 11.1586 88.5604 12.0692 88.9854 12.8794C89.1562 13.1722 89.4038 13.4126 89.7015 13.5748C89.9991 13.7369 90.3355 13.8146 90.6741 13.7993C91.004 13.8088 91.3303 13.7293 91.6189 13.569C91.9074 13.4087 92.1473 13.1736 92.3135 12.8885C92.7449 12.092 92.9473 11.1917 92.8983 10.2872L92.8928 9.75713ZM106.934 15.834H104.139L100.008 8.58218V15.834H97.1991V4.17569H100.008L104.13 11.4276V4.17569H106.932L106.934 15.834Z" fill="white"/>
</svg>
