<svg version="1.1" id="Layer_1" xmlns="http://www.w3.org/2000/svg" x="0" y="0" viewBox="0 0 1080 1218.5" style="enable-background:new 0 0 1080 1218.5" xml:space="preserve"><style>.st0{fill:#213147}</style><path class="st0" d="M41 370.4v477.7c0 30.5 16.3 58.7 42.7 73.9l413.7 238.9c26.4 15.2 58.9 15.2 85.3 0L996.4 922c26.4-15.2 42.7-43.4 42.7-73.9V370.4c0-30.5-16.3-58.7-42.7-73.9L582.7 57.6a85.482 85.482 0 0 0-85.3 0L83.6 296.5C57.2 311.7 41 339.9 41 370.4z"/><path d="m630.3 701.9-59 161.8c-1.6 4.5-1.6 9.4 0 13.9L672.8 1156l117.4-67.8-140.9-386.3c-3.2-8.9-15.8-8.9-19 0zm118.3-272.1c-3.2-8.9-15.8-8.9-19 0l-59 161.8c-1.6 4.5-1.6 9.4 0 13.9l166.3 455.8 117.4-67.8-205.7-563.7z" style="fill:#12aaff"/><path d="M540 75.5c2.9 0 5.8.8 8.4 2.2l447.7 258.5c5.2 3 8.4 8.6 8.4 14.5v516.9c0 6-3.2 11.5-8.4 14.5l-447.7 258.5c-2.5 1.5-5.5 2.2-8.4 2.2-2.9 0-5.8-.8-8.4-2.2L83.9 882.3c-5.2-3-8.4-8.6-8.4-14.5v-517c0-6 3.2-11.5 8.4-14.5L531.6 77.8c2.6-1.5 5.5-2.3 8.4-2.3M540 0c-15.9 0-31.9 4.1-46.2 12.4L46.2 270.8a92.35 92.35 0 0 0-46.2 80v516.9c0 33 17.6 63.5 46.2 80l447.7 258.5c14.3 8.2 30.2 12.4 46.2 12.4 15.9 0 31.9-4.1 46.2-12.4L1034 947.7c28.6-16.5 46.2-47 46.2-80V350.8c0-33-17.6-63.5-46.2-80L586.2 12.4C571.9 4.1 555.9 0 540 0z" style="fill:#9dcced"/><path class="st0" d="m243.9 1061.9 41.2-112.8L368 1018l-77.5 70.8z"/><path d="M502.3 313.8H388.8c-8.5 0-16.1 5.3-19 13.3l-243.3 667 117.4 67.8 267.9-734.5c2.5-6.6-2.4-13.6-9.5-13.6zm198.6 0H587.4c-8.5 0-16.1 5.3-19 13.3l-277.8 761.6 117.4 67.8 302.4-829.1c2.4-6.6-2.5-13.6-9.5-13.6z" style="fill:#fff"/></svg>
