<svg width="24" height="24" fill="none" xmlns="http://www.w3.org/2000/svg"><g clip-path="url(#a)"><path d="M19.389 4.117H4.58v13.468h14.81V4.117Z" fill="#fff"/><path fill-rule="evenodd" clip-rule="evenodd" d="M23.976 12c0 6.619-5.366 11.984-11.984 11.984C5.373 23.984.008 18.619.008 12S5.373.016 11.992.016C18.61.016 23.976 5.381 23.976 12Zm-15.38 4.769H6.27c-.489 0-.73 0-.877-.094a.591.591 0 0 1-.268-.462c-.009-.174.112-.386.353-.81l5.743-10.122c.244-.43.368-.645.524-.724a.593.593 0 0 1 .536 0c.156.08.28.294.524.724l1.18 2.06.006.011c.264.461.398.695.457.94a1.77 1.77 0 0 1 0 .819c-.06.247-.192.483-.46.951l-3.016 5.332-.008.014c-.266.465-.4.7-.587.878a1.757 1.757 0 0 1-.715.415c-.245.068-.518.068-1.066.068Zm5.873 0h3.333c.491 0 .739 0 .886-.097a.589.589 0 0 0 .268-.465c.009-.168-.11-.372-.341-.771a4.694 4.694 0 0 1-.024-.042l-1.67-2.855-.018-.033c-.235-.396-.353-.597-.505-.674a.586.586 0 0 0-.533 0c-.153.08-.277.288-.521.71l-1.664 2.855-.005.01c-.244.42-.366.63-.357.803a.597.597 0 0 0 .268.465c.144.094.392.094.883.094Z" fill="#E84142"/></g><defs><clipPath id="a"><path fill="#fff" d="M0 0h23.984v24H0z"/></clipPath></defs></svg>
