<svg xmlns="http://www.w3.org/2000/svg" width="60" height="60" viewBox="0 0 60 60">
  <defs>
    <style>
      .cls-2{fill:#fff}
    </style>
  </defs>
  <g id="Group_48459" transform="translate(2212 23570)">
    <g id="Group_48383" transform="translate(-3408 -24310)">
      <path id="Rectangle_11116" fill="#e84142" d="M0 0h59a1 1 0 0 1 1 1v58a1 1 0 0 1-1 1H0V0z" transform="translate(1196 740)"/>
      <g id="Group_48382" transform="translate(-80.027 41.324)">
        <path id="Path_13299" d="M3.719-1.172H1.664L1.273 0H.027l2.118-5.687H3.23L5.359 0H4.113zM1.98-2.121H3.4L2.688-4.25zm5.711.711L8.98-5.687h1.3L8.3 0H7.082L5.109-5.687h1.3zm6.047.238h-2.054L11.293 0h-1.246l2.117-5.687h1.086L15.379 0h-1.246zM12-2.121h1.422l-.715-2.129zm5.082 1.18h2.488V0h-3.66v-5.687h1.172zm6.445-.23h-2.054L21.082 0h-1.246l2.117-5.687h1.086L25.168 0h-1.246zm-1.738-.949h1.422L22.5-4.25zM30.324 0h-1.172l-2.281-3.742V0H25.7v-5.687h1.172l2.285 3.75v-3.75h1.168zm5.488-1.895a2.013 2.013 0 0 1-.678 1.445 2.38 2.38 0 0 1-1.611.527A2.14 2.14 0 0 1 31.8-.658a3.019 3.019 0 0 1-.627-2.021v-.348a3.409 3.409 0 0 1 .289-1.445 2.166 2.166 0 0 1 .826-.959 2.314 2.314 0 0 1 1.248-.334 2.319 2.319 0 0 1 1.586.527 2.163 2.163 0 0 1 .7 1.48h-1.174a1.188 1.188 0 0 0-.307-.8 1.136 1.136 0 0 0-.8-.248 1 1 0 0 0-.877.42 2.353 2.353 0 0 0-.3 1.3v.43a2.519 2.519 0 0 0 .279 1.356.977.977 0 0 0 .881.426 1.157 1.157 0 0 0 .811-.248 1.12 1.12 0 0 0 .307-.768zM41.211 0h-1.172v-2.437h-2.285V0h-1.172v-5.687h1.172v2.3h2.285v-2.3h1.172zm4.445-2.465h-2.25v1.524h2.641V0h-3.813v-5.687h3.8v.949h-2.628v1.355h2.25z" class="cls-2" transform="translate(1283 746)"/>
        <g id="Group_48381" transform="translate(567.048)">
          <g id="Group_48367" transform="translate(726.952 711.678)">
            <path id="Path_13289" d="M458.023 368.3h-4.036a3.236 3.236 0 0 1-1.522-.164 1.025 1.025 0 0 1-.465-.8c-.015-.3.194-.669.613-1.4l9.964-17.563c.424-.746.639-1.119.909-1.257a1.028 1.028 0 0 1 .93 0c.271.138.485.511.909 1.257l2.048 3.576a6.8 6.8 0 0 1 .8 1.65 3.033 3.033 0 0 1 0 1.42 6.736 6.736 0 0 1-.8 1.65l-5.234 9.252a6.755 6.755 0 0 1-1.032 1.548 3.045 3.045 0 0 1-1.241.72 7.287 7.287 0 0 1-1.843.111z" class="cls-2" transform="translate(-452 -347)"/>
            <path id="Path_13290" d="M914.273 759.255h-5.783a3.269 3.269 0 0 1-1.532-.163 1.035 1.035 0 0 1-.465-.807c-.015-.3.2-.669.628-1.41l2.886-4.955c.424-.73.639-1.093.9-1.231a1.017 1.017 0 0 1 .925 0c.271.138.48.5.909 1.226l2.9 4.955c.429.741.649 1.109.633 1.41a1.021 1.021 0 0 1-.465.807 3.212 3.212 0 0 1-1.536.168z" class="cls-2" transform="translate(-892.276 -737.954)"/>
          </g>
        </g>
      </g>
    </g>
  </g>
</svg>
