<svg width="133" height="20" viewBox="0 0 133 20" fill="none" xmlns="http://www.w3.org/2000/svg">
   <path d="M5.6495 19.9721H1.86425C1.38299 20.0357 0.893475 19.9829 0.436812 19.8182C0.310381 19.7361 0.205032 19.6255 0.129275 19.4951C0.053517 19.3648 0.00947742 19.2185 0.000707015 19.068C-0.013361 18.7866 0.18266 18.4405 0.575626 17.755L9.92053 1.28316C10.3182 0.583508 10.5198 0.233694 10.7731 0.104268C10.9082 0.0357193 11.0576 0 11.2092 0C11.3607 0 11.5101 0.0357193 11.6453 0.104268C11.8994 0.233694 12.1002 0.583508 12.4978 1.28316L14.4185 4.63699C14.7374 5.11658 14.9898 5.63713 15.1689 6.18447C15.2742 6.62214 15.2742 7.07858 15.1689 7.51625C14.9905 8.06387 14.738 8.58452 14.4185 9.06373L9.50976 17.7409C9.25564 18.2671 8.92991 18.7557 8.54187 19.1927C8.21323 19.5073 7.81419 19.7388 7.37798 19.868C6.80856 19.9758 6.22774 20.0108 5.6495 19.9721Z" fill="white"/>
   <path d="M20.6311 19.973H15.2074C14.7231 20.0372 14.2305 19.9848 13.7706 19.8201C13.6438 19.7368 13.5383 19.6249 13.4625 19.4935C13.3868 19.362 13.3429 19.2146 13.3344 19.0632C13.3204 18.7818 13.522 18.4358 13.9234 17.7408L16.6301 13.0937C17.0278 12.409 17.2294 12.0686 17.4742 11.9392C17.6085 11.8706 17.7572 11.8348 17.908 11.8348C18.0588 11.8348 18.2074 11.8706 18.3417 11.9392C18.5959 12.0686 18.7919 12.4081 19.1943 13.089L21.9141 17.7361C22.3164 18.4311 22.5227 18.7763 22.5077 19.0586C22.5003 19.2103 22.4568 19.358 22.381 19.4896C22.3052 19.6212 22.1992 19.7328 22.0716 19.8154C21.6114 19.9843 21.1169 20.0384 20.6311 19.973Z" fill="white"/>
   <path d="M45.5767 13.4312H41.3594L40.557 15.8364H38L42.3466 4.16552H44.5732L48.9423 15.8364H46.3853L45.5767 13.4312ZM42.0079 11.4837H44.9221L43.4609 7.11453L42.0079 11.4837ZM53.728 12.9428L56.3733 4.16552H59.0412L54.9778 15.8364H52.4783L48.4293 4.16552H51.0971L53.728 12.9428ZM66.1377 13.4312H61.9225L61.1201 15.8364H58.563L62.9075 4.16552H65.1362L69.5053 15.8364H66.9483L66.1377 13.4312ZM62.571 11.4837H65.4892L64.0219 7.11453L62.571 11.4837ZM73.0002 13.9052H78.1061V15.8364H70.5951V4.16552H73.0002V13.9052ZM86.2267 13.4332H82.0114L81.209 15.8364H78.652L82.9965 4.16552H85.2252L89.5943 15.8364H87.0373L86.2267 13.4332ZM82.6599 11.4857H85.5782L84.119 7.11453L82.6599 11.4857ZM100.175 15.8364H97.7703L93.0892 8.15704V15.8364H90.6861V4.16552H93.0913L97.7805 11.8613V4.16552H100.177L100.175 15.8364ZM111.438 11.9475C111.42 12.5105 111.288 13.064 111.049 13.574C110.809 14.0839 110.468 14.5396 110.047 14.9129C109.115 15.6669 107.938 16.0518 106.74 15.9944C106.075 16.0275 105.411 15.909 104.799 15.6476C104.186 15.3863 103.641 14.9891 103.204 14.486C102.289 13.304 101.832 11.831 101.918 10.3385V9.62436C101.897 8.60447 102.099 7.59235 102.511 6.65894C102.867 5.84878 103.458 5.1635 104.206 4.69088C104.977 4.22389 105.866 3.98614 106.767 4.00545C107.949 3.94889 109.109 4.33445 110.022 5.08695C110.88 5.87205 111.396 6.96268 111.458 8.12421H109.049C109.051 7.51764 108.826 6.93227 108.419 6.48245C107.957 6.10989 107.369 5.92786 106.777 5.9735C106.429 5.95218 106.081 6.02015 105.766 6.17098C105.451 6.32181 105.179 6.5505 104.978 6.83543C104.519 7.64669 104.305 8.57323 104.362 9.50328V10.3857C104.289 11.3486 104.487 12.3126 104.934 13.1685C105.132 13.4603 105.404 13.6948 105.721 13.8483C106.039 14.0018 106.391 14.0689 106.742 14.0427C107.342 14.0899 107.936 13.908 108.407 13.5338C108.81 13.1081 109.036 12.5442 109.037 11.9577L111.438 11.9475ZM122.518 15.8364H120.113V10.8352H115.423V15.8364H113.018V4.16552H115.423V8.88557H120.113V4.16552H122.518V15.8364ZM131.64 10.7777H127.022V13.9052H132.442V15.8364H124.617V4.16552H132.415V6.11305H127.022V8.89378H131.64V10.7777Z" fill="white"/>
</svg>
