<svg width="24" height="24" fill="none" xmlns="http://www.w3.org/2000/svg"><rect width="24" height="24" rx="12" fill="#26B7EA"/><path d="M11.343 5.146a1.513 1.513 0 0 1 1.296 0l3.764 1.992a.637.637 0 0 1 .366.473v10.005a.622.622 0 0 1-.37.52l-3.758 1.99a1.514 1.514 0 0 1-1.296 0l-3.765-1.99a.616.616 0 0 1-.361-.522V7.61a.611.611 0 0 1 .36-.474l3.764-1.99Zm4.837 8.046-3.539 1.873a1.514 1.514 0 0 1-1.296 0l-3.534-1.869v4.4l3.532 1.859c.193.122.41.199.636.225h.013a1.49 1.49 0 0 0 .623-.208l3.565-1.892v-4.388Zm-9.573 4.206c-.017.278.028.556.133.814.09.164.22.3.381.396l.012.008c.044.03.092.06.152.097l.07.043.213.13-.305.507-.24-.144-.04-.025c-.069-.043-.126-.076-.18-.115a1.72 1.72 0 0 1-.788-1.684v-.027h.592Zm5.089-6.888a.535.535 0 0 0-.076.033l-3.763 1.99-.011.006h.006l.008.005 3.762 1.991c.024.013.05.024.076.033l-.002-4.058Zm.592 0v4.063a.54.54 0 0 0 .076-.033l3.762-1.99.012-.007h-.006l-.009-.004-3.759-1.997a.536.536 0 0 0-.076-.032Zm3.892-2.19-3.374 1.785 3.375 1.786V8.32Zm-8.369.004v3.563l3.367-1.782-3.367-1.781Zm4.553-2.654a.933.933 0 0 0-.744 0L7.857 7.66l-.012.007h.006l.008.004 3.76 1.997a.934.934 0 0 0 .745 0l3.762-1.991.012-.006h-.006l-.009-.005-3.759-1.996Zm4.372.218.24.144.04.025c.07.043.127.076.18.115a1.72 1.72 0 0 1 .79 1.683v.027h-.593a1.847 1.847 0 0 0-.133-.812 1.034 1.034 0 0 0-.381-.397l-.012-.007a3.817 3.817 0 0 0-.152-.098l-.072-.041-.213-.13.306-.509Z" fill="#fff"/></svg>
