<svg width="24" height="24" fill="none" xmlns="http://www.w3.org/2000/svg"><rect width="24" height="24" rx="12" fill="url(#a)"/><path d="M16 5c-1.652 0-3 1.352-3.043 3.01v3.357c-.305 0-.61.044-.957.044-.348 0-.652 0-.957.043V8.01c0-1.657-1.39-3.009-3.086-2.965-1.61 0-2.914 1.352-2.957 2.965v8.024c.043 1.658 1.391 3.01 3.087 2.966 1.652-.044 2.957-1.352 2.957-2.965v-3.358c.304 0 .608-.044.956-.044s.652 0 .957-.044v3.402c.043 1.657 1.39 3.009 3.087 2.965C17.696 18.912 19 17.603 19 15.99V8.01A3.01 3.01 0 0 0 16 5ZM8.043 6.221c1 0 1.783.785 1.783 1.788v3.533c-.87.13-1.739.392-2.565.741-.348.174-.696.349-1 .61V8.01c0-.96.782-1.788 1.782-1.788Zm1.783 9.813a1.766 1.766 0 0 1-1.783 1.788c-1 0-1.782-.785-1.782-1.788v-.785c0-.698.565-1.396 1.522-1.789.652-.305 1.347-.48 2.087-.61l-.044 3.184ZM16 17.822c-1 0-1.783-.785-1.783-1.788V12.5c.87-.13 1.74-.393 2.566-.741.347-.175.695-.35 1-.61v4.883A1.793 1.793 0 0 1 16 17.822Zm.26-7.196c-.651.305-1.347.48-2.086.61V8.01c0-1.003.783-1.788 1.783-1.788 1 0 1.782.785 1.782 1.788v.785c.044.741-.522 1.396-1.478 1.832Z" fill="#fff"/><defs><linearGradient id="a" x1="12" y1="0" x2="-4.597" y2="16.547" gradientUnits="userSpaceOnUse"><stop stop-color="#00E8A2"/><stop offset="1" stop-color="#00ADE8"/></linearGradient></defs></svg>
