<svg width="100" height="100" viewBox="0 0 100 100" fill="none" xmlns="http://www.w3.org/2000/svg"><path fill-rule="evenodd" clip-rule="evenodd" d="M100 50c0-27.614-22.386-50-50-50S0 22.386 0 50s22.386 50 50 50 50-22.386 50-50ZM57.136 87.42c0 3.393-2.784 6.15-6.735 6.23h-.473C25.853 93.613 6.349 74.085 6.349 50 6.35 25.892 25.892 6.35 50 6.35l.39.001c4.459.08 6.746 2.836 6.746 6.228 0 3.452-3.051 5.992-6.284 5.992-3.233 0-3.392 0-6.486.248-3.095.248-6.295 2.789-6.295 6.23 0 3.463 2.813 6.25 6.295 6.25H71.81c3.472 0 6.284 2.789 6.284 6.23 0 3.443-2.812 6.23-6.284 6.23H29.538c-3.482 0-6.294 2.8-6.294 6.251 0 3.442 2.812 6.23 6.294 6.23h21.314c3.472 0 6.284 2.788 6.284 6.24 0 3.442-2.812 6.23-6.284 6.23h-6.486c-3.482 0-6.295 2.789-6.295 6.23 0 3.452 2.883 5.972 6.295 6.23l.741.057c1.201.091 1.857.141 2.514.169.791.033 1.584.033 3.331.033 3.472 0 6.184 2.55 6.184 5.992Z" fill="#7132F5"/></svg>
