<svg width="105" height="105" viewBox="0 0 105 105" fill="none" xmlns="http://www.w3.org/2000/svg"><path d="M62.753 81.632a5.817 5.817 0 0 0 5.83-5.813 5.818 5.818 0 0 0-5.83-5.812 5.812 5.812 0 0 0-5.804 5.813 5.812 5.812 0 0 0 5.804 5.812Zm-20.888.173a5.797 5.797 0 0 0 5.804-5.813c0-3.21-2.58-5.812-5.804-5.812a5.812 5.812 0 0 0-5.805 5.812 5.812 5.812 0 0 0 5.805 5.813Z" fill="#19191A"/><path d="M29.138 21.08h13.848c2.605 7.049 9.405 27.022 9.901 28.135.124-.556 6.974-22.323 8.91-28.012H76.19v49.655c-1.786-.99-3.573-1.979-5.51-3.092-1.34-.68-2.58-1.422-3.945-1.979-.124-9.646-.248-19.23-.546-29.249-1.935 5.751-8.611 26.034-9.157 26.59h-8.91s-8.66-24.61-9.083-25.724c-.124 9.461-.248 18.922-.57 28.693-5.311 2.72-8.463 4.267-9.455 4.637V21.08h.124Z" fill="#19191A"/><path d="M52.512 8.348c24.296 0 44.15 19.788 44.15 44.152s-19.78 44.152-44.15 44.152c-24.37 0-44.149-19.788-44.149-44.152s19.78-44.152 44.15-44.152Zm0-8.348C23.502 0 0 23.498 0 52.5S23.502 105 52.512 105C81.498 105 105 81.502 105 52.5S81.498 0 52.512 0Z" fill="#19191A"/></svg>
