<svg width="24" height="24" viewBox="0 0 24 24" fill="none" xmlns="http://www.w3.org/2000/svg"><path d="M23.998 11.741a12 12 0 1 0-16.77 11.27 10.383 10.383 0 0 0 1.325-2.85c.24-.612.502-1.214.773-1.797a3.766 3.766 0 0 0 3.753-.954l.04-.04a3.732 3.732 0 0 0-3.562.53 32.21 32.21 0 0 1 1.064-2.017 3.746 3.746 0 0 0 3.783-.773l.04-.04a3.744 3.744 0 0 0-3.532.331c.371-.612.753-1.214 1.155-1.776A3.759 3.759 0 0 0 15.8 12.52l.03-.04a3.689 3.689 0 0 0-3.282.501l.1-.13c.241-.311.492-.622.742-.923a4.419 4.419 0 0 0 2.981-3.453l.01-.06h-.01a4.398 4.398 0 0 0-3.201 3.372c-.241.29-.482.583-.713.883a3.683 3.683 0 0 0-.24-3.142l-.03.04a3.756 3.756 0 0 0-.322 3.915 28.533 28.533 0 0 0-1.104 1.675 3.709 3.709 0 0 0-.973-3.281l-.02.05a3.744 3.744 0 0 0 .642 3.844 33.698 33.698 0 0 0-1.004 1.897 3.877 3.877 0 0 0-1.104-3.372l-.02.05a3.89 3.89 0 0 0 .843 3.922c-.212.452-.411.9-.602 1.375a.546.546 0 0 0-.18-.11c-.343-.1-.67-.245-.974-.432a4.022 4.022 0 0 0-.795-.361c-1.084-.352-.923-.873-1.484-1.927a7.987 7.987 0 0 0-.581-.621 1.336 1.336 0 0 1-.452-.492 2.341 2.341 0 0 1-.23-.795.733.733 0 0 0-.513-.682c-1.595-.552-.883-2.62-.823-2.891a3.458 3.458 0 0 0-.23-1.023 1.41 1.41 0 0 1 .301-1.345c.19-.19.853-.502.993-.683.14-.18.24-.381.382-.551a5.819 5.819 0 0 1 1.525-1.094c.461-.25.542-.893.722-1.094.301-.341.763-.341 1.104-.642.17-.15.424-.231.583-.392a5.235 5.235 0 0 1 2.89-1.334 6.554 6.554 0 0 1 2.227.2c.105.018.209.042.31.071 1.656.06 3.644.402 4.366 1.104.358.344.624.772.773 1.245.117.366.28.716.482 1.043l.441.723a2.02 2.02 0 0 1 .25 1.525 1.395 1.395 0 0 0-.02.783c.234.351.506.675.814.963.122.121.256.229.4.321.34.203.67.424.985.663a.54.54 0 0 1-.232.502c-.28.25-.822.642-.822.642.02.111.053.219.1.321.08.14.26.362.2.552-.06.19-.451.351-.34.562.11.22.39.28.31.482-.08.19-.471.53-.431.672.04.143.361 1.484-.382 1.716-.92.182-1.852.286-2.79.311a.897.897 0 0 0-.732.462 2.434 2.434 0 0 0-.27.853 19.95 19.95 0 0 1-1.075 3.121s-.03.06-.07.15a1.86 1.86 0 0 0-.18.633c.062.161.158.308.28.431a.505.505 0 0 0 .53.15 12.095 12.095 0 0 0 8.113-11.635Z" fill="#00DACC"/></svg>
