<svg viewBox="0 0 500 500" xmlns="http://www.w3.org/2000/svg"><circle style="paint-order:fill;stroke:#fff;fill:#fff;stroke-opacity:0" cx="250" cy="250" r="250"/><path class="cls-1" d="M193.5 125.2c0-37.7-30.6-68.2-68.2-68.3-37.7 0-68.2 30.6-68.2 68.3s30.6 68.2 68.2 68.3c37.7 0 68.2-30.6 68.2-68.3Zm-68.3 34.1v31.3c-27.5 0-49.8-22.3-49.8-49.8S97.7 91 125.2 91V59.7c27.5 0 49.8 22.3 49.8 49.8s-22.3 49.8-49.8 49.8Z" style="fill:#ff0420" transform="matrix(3.66569 0 0 3.66032 -209.31 -208.272)"/><path class="cls-1" d="M125.4 101.7h-.4c-5.2 10.4-12.9 18.1-23.3 23.3v.4c10.4 5.2 18.1 12.9 23.3 23.3h.4c5.2-10.4 12.9-18.1 23.3-23.3v-.4c-10.4-5.2-18.1-12.9-23.3-23.3Z" style="fill:#ff0420" transform="matrix(3.66569 0 0 3.66032 -209.31 -208.272)"/></svg>
