<svg xmlns="http://www.w3.org/2000/svg" width="60" height="60" viewBox="0 0 60 60">
  <defs>
    <style>
      .cls-2{fill:#fff}
    </style>
  </defs>
  <g id="Group_48454" transform="translate(2212 23640)">
    <g id="Group_47814" transform="translate(2021 681)">
      <path id="Rectangle_10821" fill="#8247e5" d="M0 0h59a1 1 0 0 1 1 1v58a1 1 0 0 1-1 1H0V0z" transform="translate(-4233 -24321)"/>
      <g id="Group_47813" transform="translate(-5 2)">
        <path id="Path_12947" d="M353.584 105.145a1.5 1.5 0 0 0-1.462 0l-3.354 1.945-2.278 1.269-3.354 1.945a1.5 1.5 0 0 1-1.462 0l-2.666-1.522a1.456 1.456 0 0 1-.731-1.226v-3a1.367 1.367 0 0 1 .731-1.226l2.623-1.48a1.5 1.5 0 0 1 1.462 0l2.623 1.48a1.454 1.454 0 0 1 .731 1.226v1.944l2.278-1.31v-1.945a1.366 1.366 0 0 0-.731-1.226l-4.858-2.791a1.5 1.5 0 0 0-1.462 0l-4.944 2.791a1.367 1.367 0 0 0-.731 1.226v5.624a1.367 1.367 0 0 0 .731 1.226l4.944 2.791a1.5 1.5 0 0 0 1.462 0l3.354-1.9 2.278-1.311 3.354-1.9a1.5 1.5 0 0 1 1.462 0l2.623 1.48a1.454 1.454 0 0 1 .73 1.226v3a1.367 1.367 0 0 1-.73 1.226l-2.623 1.522a1.5 1.5 0 0 1-1.462 0l-2.623-1.48a1.456 1.456 0 0 1-.731-1.226v-1.945l-2.278 1.311v1.945a1.366 1.366 0 0 0 .731 1.226l4.944 2.791a1.5 1.5 0 0 0 1.462 0l4.944-2.791a1.454 1.454 0 0 0 .731-1.226V109.2a1.367 1.367 0 0 0-.731-1.226z" class="cls-2" transform="translate(-4546 -24410.035)"/>
        <path id="Path_13303" d="M-17.932-2.171V0h-1.542v-6.4h2.553a2.974 2.974 0 0 1 1.3.27 2.037 2.037 0 0 1 .875.769 2.1 2.1 0 0 1 .31 1.132 1.851 1.851 0 0 1-.67 1.5 2.781 2.781 0 0 1-1.839.56zm0-1.191h1.011a.953.953 0 0 0 .683-.224.833.833 0 0 0 .238-.633 1.029 1.029 0 0 0-.242-.716.856.856 0 0 0-.659-.272h-1.028zm9.734.294a3.773 3.773 0 0 1-.347 1.657A2.566 2.566 0 0 1-9.532-.3a2.747 2.747 0 0 1-1.457.389 2.786 2.786 0 0 1-1.45-.376 2.561 2.561 0 0 1-.987-1.074 3.665 3.665 0 0 1-.371-1.6v-.36a3.79 3.79 0 0 1 .345-1.659 2.559 2.559 0 0 1 .989-1.11A2.766 2.766 0 0 1-11-6.486a2.739 2.739 0 0 1 1.45.387A2.606 2.606 0 0 1-8.556-5 3.681 3.681 0 0 1-8.2-3.362zm-1.569-.268a2.691 2.691 0 0 0-.319-1.448A1.022 1.022 0 0 0-11-5.278q-1.16 0-1.226 1.74v.47a2.767 2.767 0 0 0 .312 1.446 1.02 1.02 0 0 0 .927.505 1.008 1.008 0 0 0 .9-.5 2.692 2.692 0 0 0 .321-1.428zm3.907 2.149h2.685V0H-7.4v-6.4h1.54zm4.452-2.435L-.231-6.4h1.666L-.626-2.3V0h-1.565v-2.3l-2.056-4.1h1.657zm8.42 2.83a2.48 2.48 0 0 1-1.042.638 4.492 4.492 0 0 1-1.5.242 2.68 2.68 0 0 1-2.011-.769 3.113 3.113 0 0 1-.8-2.14v-.554a3.818 3.818 0 0 1 .334-1.65 2.48 2.48 0 0 1 .947-1.086 2.7 2.7 0 0 1 1.439-.38 2.835 2.835 0 0 1 1.857.547 2.318 2.318 0 0 1 .771 1.633H5.522a1.213 1.213 0 0 0-.343-.765 1.106 1.106 0 0 0-.747-.224 1.006 1.006 0 0 0-.9.492 2.628 2.628 0 0 0-.321 1.406v.387a2.573 2.573 0 0 0 .331 1.435 1.158 1.158 0 0 0 1.031.48 1.3 1.3 0 0 0 .9-.268v-.992H4.4v-1.059h2.611zm6.315-2.276a3.773 3.773 0 0 1-.347 1.657A2.566 2.566 0 0 1 11.993-.3a2.747 2.747 0 0 1-1.457.389 2.786 2.786 0 0 1-1.45-.376A2.561 2.561 0 0 1 8.1-1.362a3.665 3.665 0 0 1-.371-1.6v-.36a3.79 3.79 0 0 1 .345-1.659A2.559 2.559 0 0 1 9.062-6.1a2.766 2.766 0 0 1 1.466-.391 2.739 2.739 0 0 1 1.45.387A2.606 2.606 0 0 1 12.968-5a3.681 3.681 0 0 1 .358 1.637zm-1.569-.268a2.691 2.691 0 0 0-.319-1.448 1.022 1.022 0 0 0-.912-.494q-1.16 0-1.226 1.74v.47a2.767 2.767 0 0 0 .312 1.446 1.02 1.02 0 0 0 .927.505 1.008 1.008 0 0 0 .9-.5 2.692 2.692 0 0 0 .321-1.428zM19.466 0h-1.534l-2.268-3.981V0h-1.542v-6.4h1.542l2.263 3.981V-6.4h1.538z" class="cls-2" transform="translate(-4198 -24276)"/>
      </g>
    </g>
  </g>
</svg>
