<svg height="32" stroke-miterlimit="10" style="fill-rule:nonzero;clip-rule:evenodd;stroke-linecap:round;stroke-linejoin:round" viewBox="0 0 24 24" width="32" xml:space="preserve" xmlns="http://www.w3.org/2000/svg"><path d="M.035 11.975c0-6.6 5.35-11.95 11.95-11.95s11.95 5.35 11.95 11.95-5.35 11.95-11.95 11.95-11.95-5.35-11.95-11.95Z" fill="#ffeeda"/><path d="M18.104 17.014a1.743 1.743 0 0 1-1.736 1.687l-5.027-.017a2.637 2.637 0 0 0 .644-1.719c0-1.035-.62-1.744-.62-1.744h5.003a1.74 1.74 0 0 1 1.736 1.744v.049Z" fill="#ebc28e"/><g fill="#190602"><path d="M5.776 10.47c-.579-.545-.986-1.254-.986-2.101v-.09c.048-1.434 1.23-2.591 2.664-2.64h9.142c.237.008.432.18.432.424v7.732c.212.041.31.066.514.139.154.057.382.187.382.187V6.063a1.332 1.332 0 0 0-1.328-1.32H7.454a3.626 3.626 0 0 0-3.56 3.626c0 1.149.52 2.135 1.384 2.827.058.049.115.106.27.106a.437.437 0 0 0 .448-.448c-.009-.196-.09-.269-.22-.383Z"/><path d="M16.368 14.317h-7.17a.88.88 0 0 0-.872.88v1.027c.016.472.424.888.896.888h.53v-.888h-.53v-1.01h.294c.904 0 1.572.838 1.572 1.743 0 .798-.725 1.817-1.94 1.735-1.083-.073-1.661-1.034-1.661-1.735V8.214a.718.718 0 0 0-.717-.717h-.717v.896h.53v8.564C6.557 18.7 7.82 19.58 9.14 19.58l7.227.024a2.64 2.64 0 0 0 2.64-2.64 2.646 2.646 0 0 0-2.64-2.648Zm1.736 2.697a1.743 1.743 0 0 1-1.736 1.687l-5.027-.017a2.637 2.637 0 0 0 .644-1.719c0-1.035-.62-1.744-.62-1.744h5.003a1.74 1.74 0 0 1 1.736 1.744v.049Zm-3.61-8.466h-5.46V7.66h5.46a.39.39 0 0 1 .391.39v.107a.39.39 0 0 1-.39.39Z"/><path d="M14.494 12.76h-5.46v-.888h5.46c.22 0 .391.18.391.392v.105a.397.397 0 0 1-.39.392Zm.946-2.102H9.026V9.77h6.412c.22 0 .391.18.391.391v.106a.386.386 0 0 1-.39.391Z"/></g></svg>
