<svg stroke-miterlimit="10" style="fill-rule:nonzero;clip-rule:evenodd;stroke-linecap:round;stroke-linejoin:round" viewBox="0 0 24 24" xml:space="preserve" xmlns="http://www.w3.org/2000/svg"><path d="M.035 11.975c0-6.6 5.35-11.95 11.95-11.95s11.95 5.35 11.95 11.95-5.35 11.95-11.95 11.95-11.95-5.35-11.95-11.95Z" fill="#f5e6d3"/><path d="M5.344 4.031C3.744 3.786 2.809 5.854 4 6.906c.155.155.376.145.563.219.664.263 1.447.216 2.156.25 0 3.667-.001 7.31-.032 11.031-.035 1.418 1.13 2.163 2.47 2h9.28c.203-.05.277-.237.438-.343.665-.44 1.057-1.186.844-1.844-.159-.568-.64-1.181-1.594-1.188-.001-3.694-.031-7.312 0-11.062a1.954 1.954 0 0 0-.563-1.375 1.847 1.847 0 0 0-1.312-.563c-3.675.017-7.242.01-10.906 0Z" fill="#e5d1b8"/><path d="M9.25 17.156c-1.473-.256-2.211 1.566-1.094 2.438l.031.031a1.28 1.28 0 0 0 .844-.188c-.19.138-.333.35-.594.344.363.155.826.069 1.22.094.547-.447.7-1.252.374-1.813l-.687.032c.014.022.049.041.062.062.129.171.03.344.031.532h-.874c-.764.045-.288-.928.562-.72.165-.022.293-.021.656-.03.105-.002.193 0 .25 0a1.668 1.668 0 0 0-.406-.5c-.121-.1-.315-.098-.375-.282Z" fill="#bb9168"/><path d="M18.878 20.076a2.66 2.66 0 0 1-.454.199H9.338c1.311-.494 1.396-2.525.1-3.082 2.953-.006 5.73.01 8.666-.008 1.687.033 2.097 2.038.774 2.891m-9.104-2.144c-.363.01-.492 0-.657.023-.85-.21-1.33.778-.567.732l.886.004c-.002.664-.6 1.015-1.25.942l-.034-.035-.003.003c-1.118-.871-.387-2.702 1.087-2.446.06.185.258.189.379.288.17.133.311.3.416.485l-.257.004m-.382.21c-.013-.02-.027-.041-.04-.064l.694-.01c.326.56.15 1.365-.397 1.813-.394-.026-.862.051-1.225-.103.872.02 1.482-.953.968-1.636M9.13 20.27l-.006.01c-1.302.127-2.308-.56-2.293-1.884.022-2.713.018-5.444.015-8.086.002-1.185-.011-2.382 0-3.567.02-1.054.044-2-1.082-2.548 3.534-.024 6.933.015 10.472-.015a1.71 1.71 0 0 1 1.216.52c.337.336.523.782.526 1.257-.031 3.74-.01 7.374-.008 11.06-3.342.013-6.134.014-8.778.002-1.46-.3-2.405 1.749-1.117 2.7.36.378.883.332 1.365.33-.113.054-.23.1-.31.22M6.682 6.904v.346c-.704-.026-1.473.113-2.14-.128.728.01 1.337-.387 1.423-1.123h.01c-.005-.053.006-.12.003-.173h-.005c-.014-.274-.17-.491-.323-.64l.874-.002c.273.51.117 1.17.158 1.72m-2.975-1.78c.497-1.29 2.176-1.17 2.732-.113-.303.001-.956.004-1.126 0V5.01l-.038-.002-.01-.002v.001c-.277-.014-.56-.024-.805.178-.216.125-.377.54-.107.72.434.207.967.04 1.436.094-.12.774-.797 1.042-1.578.921a1.499 1.499 0 0 1-.504-1.796M19.73 18.23c-.158-.567-.667-1.177-1.622-1.183 0-3.695-.023-7.34.008-11.09a1.911 1.911 0 0 0-.566-1.355 1.85 1.85 0 0 0-1.315-.561c-3.675.017-7.23.015-10.894.005-1.6-.245-2.543 1.82-1.352 2.871.706.705 1.806.429 2.714.473 0 3.667.018 7.285-.012 11.005-.035 1.418 1.134 2.183 2.474 2.02h9.275c1.04-.256 1.555-1.367 1.29-2.185"/><path d="M9.438 17.188c1.296.557 1.217 2.6-.094 3.093h9.094c.157-.052.293-.138.437-.218 1.323-.854.905-2.842-.781-2.875-2.937.018-5.704-.006-8.657 0Z" fill="#d7af94"/><path d="M5.656 5.188c.153.148.298.35.313.625.003.052-.005.134 0 .187-.084.725-.694 1.123-1.407 1.125.66.227 1.432.1 2.125.125v-.344c-.04-.55.117-1.208-.156-1.718h-.875Z" fill="#c2956d"/><path d="M16.846 11.664c-2.668.15-5.362-.006-8.038.056-.183.024-.448-.05-.411-.283-.028-.228.235-.273.41-.258 2.743.006 5.271.006 7.73 0 .176-.022.43.048.395.269a.234.234 0 0 1-.086.216M8.78 14.176c2.604.007 5.22.007 7.773 0 .318 0 .374.086.379.28.034.225-.23.287-.404.265-2.589-.008-5.147-.009-7.73 0-.176.022-.437-.044-.4-.268.002-.188.06-.277.381-.277m-.001-1.498c2.6.007 5.215.007 7.775 0 .319 0 .374.085.378.276.034.224-.228.284-.402.263-2.594-.007-5.138-.007-7.731 0-.174.023-.435-.041-.4-.264.002-.186.06-.275.38-.275m8.072 3.484c-2.672.154-5.36-.006-8.052.057-.174.021-.436-.041-.4-.265.002-.186.06-.275.38-.275 2.582.007 5.196.007 7.77 0 .46-.042.447.357.303.483m-.001-5.998c-2.672.154-5.36-.006-8.052.056-.174.022-.436-.04-.4-.264.002-.186.06-.276.38-.276 2.582.008 5.196.008 7.77 0 .46-.041.447.357.303.484m-.001-1.498c-2.672.154-5.36-.006-8.052.056-.174.022-.436-.04-.4-.264.002-.187.06-.276.38-.276 2.582.008 5.196.008 7.77 0 .46-.041.447.357.303.484m-.001-1.498c-2.672.154-5.36-.006-8.052.056-.174.022-.436-.04-.4-.264.002-.187.06-.276.38-.276 2.582.008 5.196.008 7.77 0 .46-.041.447.357.303.484"/></svg>
