<svg width="181" height="181" viewBox="0 0 181 181" fill="none" xmlns="http://www.w3.org/2000/svg"><rect x=".125" y=".15" width="180" height="180.003" rx="90" fill="#fff"/><path d="M99.019 127.825c-12.694 3.016-26.615-.425-36.515-10.33-12.799-12.797-15.297-31.787-6.05-46.829 3.817-6.21 7.444-9.923 10.577-13.044 12.916-12.865 36.639-36.283 36.639-36.283-22.15-4.385-46.008 1.998-63.167 19.162-27.337 27.334-27.337 71.659 0 98.993 8.474 8.474 18.578 14.315 29.31 17.54l29.212-29.209h-.006Z" fill="#000"/><path d="M80.983 52.17c12.694-3.016 26.615.425 36.515 10.33 12.798 12.798 15.296 31.787 6.051 46.829-3.818 6.211-7.445 9.924-10.579 13.045-12.916 12.865-36.638 36.282-36.638 36.282 22.15 4.385 46.008-1.998 63.167-19.162 27.337-27.334 27.337-71.659 0-98.993-8.475-8.474-18.578-14.314-29.31-17.54L80.977 52.17h.006Z" fill="#000"/></svg>
