<svg width="460" height="460" viewBox="0 0 460 460" fill="none" xmlns="http://www.w3.org/2000/svg"><path fill-rule="evenodd" clip-rule="evenodd" d="M166 152h129c4.564 0 9.124.67 13.89 2.892 5.714 2.663 8.743 6.861 10.865 9.965.166.241.32.49.463.745C322.714 170.044 324 174.841 324 180c0 4.902-1.166 10.243-3.782 14.898l-.076.133-81.5 140a10 10 0 0 1-17.32-.061l-80.004-139.702-.069-.114c-1.831-3.017-4.662-7.683-5.157-13.704a27.288 27.288 0 0 1 3.571-15.895 27.156 27.156 0 0 1 12.008-11.011C157.073 152.02 162.548 152 166 152Zm54 20h-54c-3.548 0-4.91.218-5.862.663a7.163 7.163 0 0 0-3.162 2.904 7.292 7.292 0 0 0-.951 4.244c.07.851.416 1.823 2.46 5.195.043.071.085.142.126.214L220 292.416V172Zm20 0v120.945l62.811-107.895c.709-1.288 1.189-3.149 1.189-5.05 0-1.542-.319-2.881-1.034-4.262-.75-1.078-1.207-1.649-1.589-2.04-.328-.334-.58-.513-.936-.679-1.485-.692-3.005-1.019-5.441-1.019h-55Z" fill="#303757"/><path fill-rule="evenodd" clip-rule="evenodd" d="M460 230c0 127.025-102.975 230-230 230C102.974 460 0 357.025 0 230 0 102.974 102.974 0 230 0c127.025 0 230 102.974 230 230Zm-20 0c0 115.98-94.02 210-210 210S20 345.98 20 230 114.02 20 230 20s210 94.02 210 210Z" fill="#08C"/></svg>
