<svg width="62" height="48" viewBox="0 0 62 48" fill="none" xmlns="http://www.w3.org/2000/svg"><mask id="a" style="mask-type:alpha" maskUnits="userSpaceOnUse" x="50" y="32" width="7" height="17"><path transform="matrix(-1 0 0 1 56.14 32.012)" fill="#000" d="M0 0h5.431v15.988H0z"/></mask><g mask="url(#a)"><path d="M55.072 32.012H41.215c-.588 0-1.066.477-1.066 1.066v13.856c0 .589.478 1.066 1.066 1.066h13.857c.589 0 1.066-.477 1.066-1.066V33.078c0-.589-.477-1.066-1.066-1.066Z" fill="#fff"/></g><mask id="c" style="mask-type:alpha" maskUnits="userSpaceOnUse" x="50" y="0" width="7" height="16"><path transform="matrix(-1 0 0 1 56.14 0)" fill="url(#b)" d="M0 0h5.431v15.988H0z"/></mask><g mask="url(#c)"><path d="M55.072 0H41.215c-.588 0-1.066.477-1.066 1.066v13.856c0 .589.478 1.066 1.066 1.066h13.857c.589 0 1.066-.477 1.066-1.066V1.066C56.138.477 55.66 0 55.072 0Z" fill="#fff"/></g><mask id="d" style="mask-type:alpha" maskUnits="userSpaceOnUse" x="58" y="0" width="4" height="16"><path transform="matrix(-1 0 0 1 61.582 0)" fill="#000" d="M0 0h2.702v15.988H0z"/></mask><g mask="url(#d)"><path d="M60.508 0H46.65c-.589 0-1.066.477-1.066 1.066v13.856c0 .589.477 1.066 1.066 1.066h13.856c.59 0 1.066-.477 1.066-1.066V1.066A1.064 1.064 0 0 0 60.507 0Z" fill="#fff"/></g><mask id="e" style="mask-type:alpha" maskUnits="userSpaceOnUse" x="58" y="32" width="4" height="17"><path transform="matrix(-1 0 0 1 61.59 32.012)" fill="#000" d="M0 0h2.702v15.988H0z"/></mask><g mask="url(#e)"><path d="M60.515 32.012H46.66c-.589 0-1.066.477-1.066 1.066v13.856c0 .589.477 1.066 1.066 1.066h13.856c.589 0 1.066-.477 1.066-1.066V33.078c0-.589-.477-1.066-1.066-1.066Z" fill="#fff"/></g><path d="M30.887 16.025h-13.79c-.587 0-1.062.472-1.062 1.053V30.77c0 .582.475 1.053 1.061 1.053h13.791c.586 0 1.061-.471 1.061-1.053V17.078c0-.581-.475-1.053-1.06-1.053ZM14.922 0H1.066C.477 0 0 .477 0 1.066v13.856c0 .589.477 1.066 1.066 1.066h13.857c.588 0 1.065-.477 1.065-1.066V1.066C15.988.477 15.511 0 14.922 0Zm31.972 0H33.038c-.59 0-1.066.477-1.066 1.066v13.856c0 .589.477 1.066 1.066 1.066h13.856c.589 0 1.066-.477 1.066-1.066V1.066C47.96.477 47.483 0 46.894 0ZM14.922 31.975H1.066c-.589 0-1.066.477-1.066 1.066v13.857c0 .588.477 1.065 1.066 1.065h13.857c.588 0 1.065-.477 1.065-1.066V33.041c0-.588-.477-1.066-1.066-1.066Zm31.972.001H33.038c-.59 0-1.066.477-1.066 1.066v13.856c0 .588.477 1.066 1.066 1.066h13.856c.589 0 1.066-.478 1.066-1.066V33.04c0-.588-.477-1.065-1.066-1.065Z" fill="#fff"/><defs><linearGradient id="b" x1="5.895" y1="8.917" x2=".055" y2="7.735" gradientUnits="userSpaceOnUse"><stop/><stop offset="1" stop-color="#fff"/></linearGradient></defs></svg>
