<svg width="147" height="147" viewBox="0 0 147 147" fill="none" xmlns="http://www.w3.org/2000/svg"><rect width="146.52" height="146.52" rx="12.45" fill="#A7A7A7"/><mask id="a" style="mask-type:alpha" maskUnits="userSpaceOnUse" x="103" y="84" width="9" height="23"><path transform="matrix(-1 0 0 1 111.531 84.498)" fill="#000" d="M0 0h7.619v22.429H0z"/></mask><g mask="url(#a)"><path d="M110.031 84.498H90.592c-.826 0-1.495.67-1.495 1.495v19.438c0 .826.67 1.496 1.495 1.496h19.439c.825 0 1.495-.67 1.495-1.496V85.993c0-.825-.67-1.495-1.495-1.495Z" fill="#121212" fill-opacity=".5"/></g><mask id="c" style="mask-type:alpha" maskUnits="userSpaceOnUse" x="103" y="39" width="9" height="24"><path transform="matrix(-1 0 0 1 111.531 39.595)" fill="url(#b)" d="M0 0h7.619v22.429H0z"/></mask><g mask="url(#c)"><path d="M110.031 39.595H90.592c-.826 0-1.495.67-1.495 1.495v19.438c0 .826.67 1.495 1.495 1.495h19.439c.825 0 1.495-.67 1.495-1.495V41.09c0-.826-.67-1.495-1.495-1.495Z" fill="#121212" fill-opacity=".5"/></g><mask id="d" style="mask-type:alpha" maskUnits="userSpaceOnUse" x="115" y="39" width="5" height="24"><path transform="matrix(-1 0 0 1 119.168 39.595)" fill="#000" d="M0 0h3.79v22.429H0z"/></mask><g mask="url(#d)"><path d="M117.668 39.595H98.23c-.826 0-1.496.67-1.496 1.495v19.438c0 .826.67 1.495 1.496 1.495h19.438c.826 0 1.496-.67 1.496-1.495V41.09c0-.826-.67-1.495-1.496-1.495Z" fill="#121212" fill-opacity=".3"/></g><mask id="e" style="mask-type:alpha" maskUnits="userSpaceOnUse" x="115" y="84" width="5" height="23"><path transform="matrix(-1 0 0 1 119.183 84.498)" fill="#000" d="M0 0h3.79v22.429H0z"/></mask><g mask="url(#e)"><path d="M117.682 84.498H98.243c-.825 0-1.495.67-1.495 1.495v19.438c0 .826.67 1.496 1.495 1.496h19.439c.826 0 1.495-.67 1.495-1.496V85.993c0-.825-.669-1.495-1.495-1.495Z" fill="#121212" fill-opacity=".3"/></g><path d="M76.102 62.074H56.756c-.822 0-1.488.662-1.488 1.478V82.76c0 .816.666 1.477 1.488 1.477h19.346c.822 0 1.489-.661 1.489-1.477V63.552c0-.816-.667-1.478-1.489-1.478ZM53.711 39.595H34.273c-.826 0-1.496.67-1.496 1.495v19.438c0 .826.67 1.495 1.496 1.495H53.71c.826 0 1.495-.67 1.495-1.495V41.09c0-.826-.669-1.495-1.495-1.495Zm44.849 0H79.12c-.826 0-1.495.67-1.495 1.495v19.438c0 .826.67 1.495 1.495 1.495h19.44c.826 0 1.495-.67 1.495-1.495V41.09c0-.826-.67-1.495-1.495-1.495ZM53.711 84.45H34.273c-.826 0-1.496.67-1.496 1.495v19.439c0 .825.67 1.495 1.496 1.495H53.71c.826 0 1.495-.67 1.495-1.495V85.945c0-.825-.669-1.495-1.495-1.495Zm44.849 0H79.12c-.826 0-1.495.67-1.495 1.495v19.439c0 .825.67 1.495 1.495 1.495h19.44c.826 0 1.495-.67 1.495-1.495V85.945c0-.825-.67-1.495-1.495-1.495Z" fill="#121212"/><defs><linearGradient id="b" x1="8.27" y1="12.509" x2=".077" y2="10.85" gradientUnits="userSpaceOnUse"><stop/><stop offset="1" stop-color="#fff"/></linearGradient></defs></svg>
