<svg xmlns="http://www.w3.org/2000/svg" viewBox="0 0 193.47 77.61"><g data-name="Layer 2"><path d="M38.81 58.21a19.41 19.41 0 1 1 19.11-22.64h19.55a38.81 38.81 0 1 0 0 6.47H57.92a19.39 19.39 0 0 1-19.11 16.17Zm64.56-38.02h16.08c8 0 12.54 4.49 12.54 11S127.5 42.3 119.45 42.3H109v15.13h-5.61Zm22.91 10.74c0-3.65-2.33-5.93-7-5.93H109v12.54h10.3c4.65 0 7-2.28 7-6Zm29.79 17.61H139.4l-3.28 8.89h-5.82l14.28-37.24H151l14.44 37.24h-6Zm-14.92-4.81h13.12l-6.56-17.57h-.11Zm33.43-.9-13.22-22.64h6.13l9.9 17.14h.1l9.89-17.14h6.09l-13.28 22.64v14.6h-5.61Z" style="fill:#0052ff" data-name="Layer 1"/></g></svg>
