<svg viewBox="0 0 64 64" fill="none" xmlns="http://www.w3.org/2000/svg"><path d="M32 64c17.673 0 32-14.327 32-32C64 14.327 49.673 0 32 0 14.327 0 0 14.327 0 32c0 17.673 14.327 32 32 32Z" fill="#1461DB"/><path d="m52.206 30.048-9.038-9.038-.017-.017-.036-.03a2.281 2.281 0 0 0-.183-.15 1.795 1.795 0 0 0-.137-.101c-.02-.015-.042-.027-.064-.04a2.454 2.454 0 0 0-3.28.544L25.393 35.274V22.75a2.483 2.483 0 0 0-4.965 0v12.524l-5.132-5.132a2.483 2.483 0 0 0-3.51 3.51l9.37 9.37c.059.06.121.116.186.168.063.05.129.1.194.15.339.218.726.352 1.127.388h.01c.081.008.162.012.242.012h.038c.067 0 .134-.003.2-.009h.05c.064-.007.128-.015.191-.028h.028c.07-.015.14-.031.209-.052h.012a2.298 2.298 0 0 0 .519-.228l.056-.033a2.38 2.38 0 0 0 .269-.191l.025-.022c.052-.045.105-.09.15-.14l14.253-14.264V41.26a2.483 2.483 0 0 0 4.965 0V28.735l4.816 4.825a2.482 2.482 0 0 0 3.51-3.512Z" fill="#fff"/></svg>
