<svg xmlns="http://www.w3.org/2000/svg" width="24" height="24" fill="none"><g clip-path="url(#a)"><path d="m5.949 13.699.661-4.97L.874 4.747l5.242 1.776 1.238-1.899 4.52-2.805 9.964 5.49.516 8.376-4.439 6.169-3.509.538 1.815-3.321v-3.198l-1.319-2.497-1.341-.888-2.062 2.126v2.25L9.89 18.368l-2.044.248-.905.513-1.486-.474-.619-2.228L5.95 14.86V13.7z" fill="#fff"/><path d="M15.11 4.704c-1.093-.226-2.289-.166-2.289-.166s-.393 1.815-2.826 2.292c.018 0 3.215 1.093 5.115-2.126zm.99 16.465c1.319-1.033 2.31-2.455 2.766-4.064.021-.06.205-.166.329-.248.205-.124.414-.226.453-.393A8.7 8.7 0 0 0 19.772 15c0-.184-.187-.371-.371-.555-.145-.124-.29-.269-.29-.371a7.839 7.839 0 0 0-2.455-4.909l-.145.145c1.341 1.259 2.207 2.971 2.395 4.786.021.166.184.329.35.495.145.124.311.311.311.393a8.4 8.4 0 0 1-.124 1.422c-.021.081-.205.166-.35.248-.205.103-.393.205-.431.371a7.633 7.633 0 0 1-3.137 4.273l1.567-3.406-.081-3.052-2.621-2.536-1.486.205-1.631 2.642s.764.969-.311 2.104c-1.051 1.114-1.878 1.362-1.878 1.362l-.764-.414c.226-.29.683-.722 1.033-1.012.598-.495 1.195-.538 1.195-1.072.025-1.118-1.174-.81-1.174-.81l-.435.414-.184 1.528-.905 1.135-.103-.021-1.486-.329s.909-.474 1.054-1.012c.145-.516-.29-2.228-.311-2.331.021.021.435.371.619.948.329-.909.764-1.776.888-1.857s1.793-.969 1.793-.969l-.555 1.464.414-.226.99-2.433s.969-.474 1.691-.474c1.298-.021 3.219-1.609 2.352-4.457.248.103 4.538 2.25 5.281 6.459.555 3.236-1.28 6.268-4.375 8.022z" fill="#94a6c3"/><g fill="#1b314f"><path d="M11.191 5.157c.474-.559.29-1.383.29-1.383l-1.383 2.044c-.021 0 .492.021 1.093-.661zM6.547 16.32l.166-.824-.743 1.362c-.064.187.042.516.308.495s.598-.414.598-.7c0-.371-.329-.332-.329-.332zM18.803 3.198l2.104.166c-2.415-1.9-4.704-2.455-6.561-2.455-2.557 0-4.29 1.054-4.397 1.114l.806-1.28S7.538.432 6.402 3.838c-.29-.722-.555-1.776-.555-1.776S4.174 3.53 4.959 5.964L.191 4.273c-.145-.021-.187.042-.187.042s-.042.06.081.166l5.514 4c-.205.743-.205 1.093 0 1.443.29.474.308.722.269 1.072l-.495 3.756c-.081.371-.948 1.691-.909 2.083s.577 2.062 1.054 2.25c.35.124 1.217.393 1.793.393.205 0 .393-.042.474-.124.35-.308.453-.371.7-.371h.06c.103 0 .226.021.371.021.329 0 .764-.064 1.072-.35l1.486-1.362a1.92 1.92 0 0 0 .393-1.464c-.064-.495.205-.93.516-1.362l1.114-1.443c1.425 1.068 2.313 2.699 2.313 4.513 0 3.219-2.805 5.819-6.271 5.819a6.64 6.64 0 0 1-1.567-.184c1.588.555 2.929.743 4.025.743 2.331 0 3.569-.845 3.569-.845s-.431.559-1.135 1.195h.021c3.859-.538 5.737-3.714 5.737-3.714l-.329 1.733c5.132-3.859 4.266-8.687 4.244-8.85.043.06.559.679.824 1.012.828-8.503-6.126-11.248-6.126-11.248zm-7.902 13.579c-.081.103-.432.414-.679.64s-.516.453-.722.662c-.081.081-.248.124-.495.124h-.619c.311-.414 1.217-1.362 1.528-1.567.371-.248.559-.495.329-.927s-.824-.329-.824-.329.35-.145.661-.145c-.393-.103-.888 0-1.114.226-.248.226-.205 1.033-.308 1.546-.103.538-.453.806-.99 1.302-.29.269-.495.35-.661.35a7.04 7.04 0 0 1-1.054-.269c-.205-.269-.516-1.157-.598-1.528.06-.205.308-.64.432-.888.248-.474.393-.743.435-.99.081-.35.35-2.518.453-3.424.269.35.64.93.555 1.302.598-.845.166-1.673-.042-2.002-.184-.329-.432-.99-.226-1.691s.948-2.642.948-2.642.248.435.598.35 3.176-4.333 3.176-4.333.764 1.67-.042 2.89c-.824 1.217-1.631 1.443-1.631 1.443s1.135.205 2.186-.559c.431 1.012.845 2.062.867 2.207l-.969 2.25c-.042.043-.329.124-.538.166-.35.102-.555.166-.64.226-.145.124-.806 1.938-1.114 2.826a1.715 1.715 0 0 0-1.012.722c.145-.103.598-.166.93-.205.29-.021 1.174.453 1.404 1.341v.042c.046.325-.057.637-.223.884zm-1.938.248c.187-.269.166-.722.187-.867s.06-.414.226-.453.559.021.559.308c0 .269-.29.329-.495.516a15.16 15.16 0 0 0-.478.495zm8.231-3.944c.205-1.05.226-1.96.166-2.702a7.58 7.58 0 0 1 1.443 3.714c.021.166.184.329.35.495.145.124.311.29.311.393a8.46 8.46 0 0 1-.124 1.425c-.021.06-.205.166-.35.248-.205.103-.393.205-.431.371a7.69 7.69 0 0 1-2.724 3.983c1.917-2.002 2.844-5.306 1.358-7.927zm-1.298 8.111c1.341-1.033 2.373-2.476 2.826-4.107.021-.06.205-.166.329-.248.205-.103.414-.226.453-.393a8.7 8.7 0 0 0 .124-1.464c0-.184-.187-.371-.371-.555-.103-.124-.269-.269-.269-.371a8.088 8.088 0 0 0-1.691-4.107c-.414-2.476-2.062-3.24-2.105-3.261.042.064 1.114 1.609.371 3.424-.764 1.836-2.723 1.549-2.89 1.567-.166 0-.803.824-1.609 2.352-.103-.042-.538-.145-1.033-.06.371-1.033.93-2.497 1.033-2.621.042-.042.35-.124.559-.184.393-.103.577-.166.64-.248.043-.064.248-.538.453-1.033.187 0 .661-.042.7-.064.043-.042.435-1.051.435-1.174 0-.103-.806-2.105-1.114-2.869a4.76 4.76 0 0 0 .431-.598 8.46 8.46 0 0 1 7.534 8.397 8.45 8.45 0 0 1-4.807 7.615z"/><path d="M10.406 10.049c.393-.453.188-1.298-.538-1.443.187-.432.453-1.298.453-1.298l-2.289 3.364c-.187.064-.371-.661-.371-.661-.393 1.507.661 1.712.785 1.238.577-.149 1.567-.768 1.959-1.199z"/></g><path d="m8.609 10.852 1.072-1.836s.619.311.308.806c-.389.577-1.379 1.029-1.379 1.029z" fill="#ffd923"/><path d="M21.877 19.355c-.311.414-.662.845-1.072 1.259 2.66-5.118.124-9.801.021-9.985l.538.576c2.041 2.267 2.288 5.674.513 8.149zm2.476-6.582c-.93-2.497-2.25-4.623-5.157-6.54-2.805-1.857-5.818-1.712-5.985-1.691h-.043c.103-.042.205-.064.308-.081.64-.205 1.464-.371 2.292-.474 2.189-.315 4.397.428 5.903 2.02l.042.042c1.712 1.815 2.6 4.082 2.639 6.724zM18.534 2.557c-3.074-.577-5.054-.29-6.48.248-.042-.166-.187-.495-.311-.764l-1.171 1.528c-.785.538-1.114 1.054-1.114 1.054.453-1.549 1.776-2.702 3.385-2.992a8.41 8.41 0 0 1 1.486-.124c1.422.021 2.844.371 4.205 1.051zM7.166 6.519c-2.412-.081-1.609-2.89-1.567-3.052 0 .021.163 2.207 1.567 3.052zm2.373-5.054C7.683 2.579 8.054 5.238 8.054 5.238c-1.776-2.698 1.34-3.71 1.485-3.774z" fill="#d82122"/><path d="M6.487 7.262c.124.103.248.29.103.559-.081.145-.205.124-.393.042-.248-.124-1.733-.99-3.074-1.878l3.321 1.238.042.039z" fill="#fff"/></g><defs><clipPath id="a"><path fill="#fff" d="M0 0h25v25H0z"/></clipPath></defs></svg>
