<svg xmlns="http://www.w3.org/2000/svg" width="32" height="32" fill="none"><g clip-path="url(#a)"><rect width="32" height="32" fill="#fff" rx="16"/><g clip-path="url(#b)"><path fill="url(#c)" d="M16 32c8.837 0 16-7.163 16-16S24.837 0 16 0 0 7.163 0 16s7.163 16 16 16Z"/><path fill="#fff" d="M23.001 22.373 17.59 9.295a1.455 1.455 0 0 0-1.356-1.007h-.478A1.455 1.455 0 0 0 14.4 9.295l-2.355 5.698h-1.781a.975.975 0 0 0-.971.967v.013a.975.975 0 0 0 .97.967h.958l-2.247 5.433a1.146 1.146 0 0 0-.066.371c-.01.269.085.53.266.73a.933.933 0 0 0 .719.278.972.972 0 0 0 .559-.185 1.18 1.18 0 0 0 .385-.491l2.47-6.135h1.717a.975.975 0 0 0 .97-.966v-.027a.974.974 0 0 0-.97-.967h-.916l1.886-4.705 5.146 12.8c.082.195.215.365.385.49a.972.972 0 0 0 .559.186.933.933 0 0 0 .718-.279 1.02 1.02 0 0 0 .267-.729.875.875 0 0 0-.067-.37Z"/></g><circle cx="16" cy="16" r="15" stroke="url(#d)" stroke-width="2"/></g><defs><linearGradient id="c" x1="29.024" x2="5.216" y1="7.264" y2="27.296" gradientUnits="userSpaceOnUse"><stop stop-color="#B6509E"/><stop offset="1" stop-color="#2EBAC6"/></linearGradient><linearGradient id="d" x1="25.5" x2="3" y1="0" y2="28" gradientUnits="userSpaceOnUse"><stop stop-color="#B6509E"/><stop offset="1" stop-color="#2EBAC6"/></linearGradient><clipPath id="a"><rect width="32" height="32" fill="#fff" rx="16"/></clipPath><clipPath id="b"><path fill="#fff" d="M0 0h32v32H0z"/></clipPath></defs></svg>
