<svg xmlns="http://www.w3.org/2000/svg" width="24" height="24" fill="none"><g clip-path="url(#a)"><path d="M12.5 25C19.404 25 25 19.404 25 12.5S19.404 0 12.5 0 0 5.596 0 12.5 5.596 25 12.5 25z" fill="url(#b)"/><path d="M17.97 17.479 13.742 7.261a1.138 1.138 0 0 0-1.059-.787h-.374a1.137 1.137 0 0 0-1.059.787l-1.84 4.452H8.018a.76.76 0 0 0-.758.755v.01a.76.76 0 0 0 .758.755h.748L7.01 17.479a.895.895 0 0 0-.052.29.8.8 0 0 0 .208.57.73.73 0 0 0 .561.218.76.76 0 0 0 .436-.145.92.92 0 0 0 .301-.383l1.93-4.793h1.341a.76.76 0 0 0 .758-.755v-.021a.76.76 0 0 0-.758-.755h-.716l1.474-3.676 4.02 10a.92.92 0 0 0 .301.383.76.76 0 0 0 .436.145.73.73 0 0 0 .561-.218.8.8 0 0 0 .208-.57.688.688 0 0 0-.052-.29z" fill="#fff"/></g><defs><linearGradient id="b" x1="22.675" y1="5.675" x2="4.075" y2="21.325" gradientUnits="userSpaceOnUse"><stop stop-color="#b6509e"/><stop offset="1" stop-color="#2ebac6"/></linearGradient><clipPath id="a"><path fill="#fff" d="M0 0h25v25H0z"/></clipPath></defs></svg>
