<svg data-name="Layer 2" xmlns="http://www.w3.org/2000/svg" viewBox="0 0 1867.83 1867.83"><g data-name="Layer 1"><circle cx="933.92" cy="933.92" r="933.92" style="fill:#027d55"/><path d="M476.1 1028.92h-94.29l-16.47 53.32h-73.51l104.68-285.41h64.69l105.46 285.41h-73.9l-16.66-53.32Zm-77.82-53.12h61.36l-30.78-98.99-30.58 98.99Zm420.08 9.8c-.92 19.87-6.27 37.41-16.07 52.63-9.8 15.23-23.56 27.02-41.26 35.38-17.71 8.36-37.93 12.55-60.67 12.55-37.51 0-67.04-12.22-88.6-36.66-21.56-24.44-32.34-58.94-32.34-103.5v-14.11c0-27.96 4.87-52.44 14.6-73.41s23.75-37.18 42.05-48.61c18.29-11.43 39.47-17.15 63.51-17.15 34.63 0 62.46 9.12 83.51 27.35 21.04 18.23 33 43.36 35.87 75.37h-68.61c-.52-17.38-4.9-29.86-13.13-37.44-8.23-7.58-20.78-11.37-37.64-11.37s-29.67 6.4-37.64 19.21c-7.97 12.81-12.15 33.26-12.55 61.36v20.19c0 30.45 3.82 52.21 11.47 65.28s20.81 19.6 39.5 19.6c15.81 0 27.9-3.72 36.26-11.17 8.36-7.45 12.81-19.27 13.33-35.48h68.41Zm138.59-4.31h-37.24v100.95h-68.8V796.83h112.32c33.85 0 60.31 7.51 79.39 22.52s28.62 36.23 28.62 63.64c0 19.84-4.02 36.29-12.06 49.35-8.04 13.05-20.62 23.63-37.73 31.72l59.59 115.24v2.94h-73.71l-50.38-100.95Zm-37.24-52.93h43.52c13.07 0 22.9-3.44 29.5-10.32 6.6-6.88 9.9-16.48 9.9-28.79s-3.33-21.98-10-28.98-16.47-10.52-29.4-10.52h-43.52v78.61Zm370.09 32.73h-108.21v68.22h127.81v52.93h-196.61V796.83h197v53.12h-128.2v60.18h108.21v50.97Zm47.63 121.15V796.83h91.94c25.22 0 47.89 5.72 68.02 17.15 20.12 11.44 35.84 27.58 47.14 48.42 11.3 20.85 17.02 44.2 17.15 70.08v13.13c0 26.14-5.52 49.56-16.56 70.28-11.04 20.71-26.59 36.92-46.65 48.61-20.06 11.7-42.44 17.61-67.14 17.74h-93.9Zm68.81-232.29v179.36h23.92c19.73 0 34.89-7.02 45.48-21.07 10.58-14.05 15.88-34.92 15.88-62.63v-12.35c0-27.57-5.29-48.35-15.88-62.34-10.59-13.98-26.01-20.97-46.26-20.97h-23.13Z" style="fill:#fff"/></g></svg>
