<svg xmlns="http://www.w3.org/2000/svg" width="24" height="24" fill="none"><g clip-path="url(#a)"><g stroke="#000"><path d="M12.5 24.903c6.85 0 12.403-5.553 12.403-12.403S19.35.097 12.5.097.097 5.65.097 12.5 5.65 24.903 12.5 24.903z" fill="url(#b)" stroke-width=".5"/><path d="M4.128 10.276 12.5 1.957l8.372 8.319-4.108 4.082-4.183-4.157-.075-.075-.075.075-4.186 4.159-4.116-4.084z" fill="#fff6f0"/></g><path d="M5.978 15.663h3.289v.938H6.961v1.191h2.218v.938H6.961v1.206h2.396v.938H5.978v-5.209zm8.099 0v3.408c0 .595-.159 1.062-.476 1.399s-.779.506-1.399.506-1.089-.169-1.406-.506-.469-.804-.469-1.399v-3.408h.982v3.408c0 .308.072.548.216.722s.37.261.677.261.533-.087.677-.261.216-.414.216-.722v-3.408h.982zm4.445 5.209h-.982v-1.563a.424.424 0 0 0-.097-.29c-.059-.074-.161-.112-.305-.112h-1.131v1.965h-.982v-5.209h1.995c.268 0 .504.037.707.112s.372.179.506.313c.137.126.244.281.313.454a1.4 1.4 0 0 1 .112.558v.179c0 .213-.057.414-.171.603s-.29.325-.528.424v.134a.61.61 0 0 1 .409.201.616.616 0 0 1 .156.432v1.801zm-2.515-2.902h.938c.238 0 .419-.055.543-.164s.186-.273.186-.476v-.089a.61.61 0 0 0-.186-.447c-.124-.129-.305-.193-.543-.193h-.938v1.369z" fill="#2a363a"/></g><defs><linearGradient id="b" x1="12.5" y1=".097" x2="12.5" y2="24.903" gradientUnits="userSpaceOnUse"><stop stop-color="#99b998"/><stop offset="1" stop-color="#fdceaa"/></linearGradient><clipPath id="a"><path fill="#fff" d="M0 0h25v25H0z"/></clipPath></defs></svg>
