<svg xmlns="http://www.w3.org/2000/svg" width="24" height="24" fill="none"><g clip-path="url(#a)"><path d="M24.976 12.5A12.48 12.48 0 0 1 12.5 24.976 12.48 12.48 0 0 1 .024 12.5 12.48 12.48 0 0 1 12.5.024 12.48 12.48 0 0 1 24.976 12.5z" fill="#fff" stroke="#383d51" stroke-width=".5"/><path d="m5.771 18.75-.003-.57a1.3 1.3 0 0 1 .193-.041 4.88 4.88 0 0 0 .563-.133l.152-.054c.244-.095.459-.253.624-.456a2.92 2.92 0 0 0 .298-.459 6.91 6.91 0 0 0 .32-.687l.566-1.421 1.937-4.9 1.801-4.673.038-.095.652-.184.035.089.747 2.092 2.577 7.119.725 1.941c.095.264.208.521.339.769l.184.31c.203.316.517.543.88.636.196.052.394.091.595.117l.143.022a.6.6 0 0 1 .01.184v.193c.002.062.001.125-.003.187l-.054.01h-5.01a.148.148 0 0 1-.013-.035v-.513a.08.08 0 0 1 .006-.022.81.81 0 0 1 .127-.025 5.08 5.08 0 0 0 .611-.12c.081-.023.16-.05.237-.082a.866.866 0 0 0 .114-.057.486.486 0 0 0 .212-.211.49.49 0 0 0 .048-.295 1.59 1.59 0 0 0-.054-.297c-.041-.152-.095-.301-.146-.446l-3.081-8.702a.18.18 0 0 0-.047-.095.537.537 0 0 0-.032.019.172.172 0 0 0-.019.047l-1.551 4.261-1.14 3.156-.421 1.279a3.075 3.075 0 0 0-.117.5c-.019.114-.022.23-.01.345a.53.53 0 0 0 .218.374.98.98 0 0 0 .263.133c.148.053.301.092.456.117l.516.082.038.006.01.038v.497a.15.15 0 0 1-.006.029.195.195 0 0 1-.047.006h-.066l-4.416.015z" fill="#000"/></g><defs><clipPath id="a"><path fill="#fff" d="M0 0h25v25H0z"/></clipPath></defs></svg>
