<svg xmlns="http://www.w3.org/2000/svg" width="256" height="256" viewBox="0 0 256 256">
    <circle cx="128" cy="128" r="128" fill="#fff"/>
    <path d="M.11 139.9c-.1-1.945-.13-3.89-.032-5.835a13.4 13.4 0 0 1 1.977-.421 49.748 49.748 0 0 0 5.77-1.361c.519-.162 1.037-.357 1.556-.551a15.5 15.5 0 0 0 6.386-4.668 29.9 29.9 0 0 0 3.047-4.7 69.29 69.29 0 0 0 3.274-7.034c1.945-4.862 3.89-9.692 5.8-14.554L47.727 50.6q9.385-23.877 18.445-47.848l.389-.972C68.8 1.164 70.969.516 73.238-.1c.13.324.259.616.357.908q3.841 10.7 7.65 21.426c8.72 24.344 17.439 48.655 26.386 72.9 2.464 6.613 4.927 13.258 7.423 19.87a63.118 63.118 0 0 0 3.468 7.877c.583 1.1 1.2 2.139 1.88 3.177a15.209 15.209 0 0 0 9.011 6.515 48.223 48.223 0 0 0 6.094 1.2l1.459.227a6.17 6.17 0 0 1 .1 1.88v1.977a18.825 18.825 0 0 1-.032 1.912c-.194.032-.357.065-.551.1H85.2a1.161 1.161 0 0 1-.13-.357v-5.252a.6.6 0 0 1 .065-.227 8.345 8.345 0 0 1 1.3-.259 52.029 52.029 0 0 0 6.256-1.232 21.55 21.55 0 0 0 2.431-.843 9.791 9.791 0 0 0 1.167-.583 4.984 4.984 0 0 0 2.658-5.186 16.247 16.247 0 0 0-.551-3.047c-.421-1.556-.972-3.079-1.491-4.57Q80.953 73.822 65.361 29.2a1.849 1.849 0 0 0-.486-.972 2.85 2.85 0 0 0-.324.194 1.528 1.528 0 0 0-.194.486c-5.089 14.619-10.5 29.141-15.883 43.63C44.486 83.271 40.5 94.033 36.8 104.859c-1.491 4.344-2.917 8.72-4.311 13.1a31.7 31.7 0 0 0-1.2 5.122 12.877 12.877 0 0 0-.1 3.533 5.421 5.421 0 0 0 2.237 3.825 10.009 10.009 0 0 0 2.69 1.361 25.979 25.979 0 0 0 4.668 1.2c1.75.324 3.5.583 5.284.843.13.032.227.032.389.065l.1.389v5.089a.946.946 0 0 1-.065.292 2.5 2.5 0 0 1-.486.065h-.681L.11 139.9z" transform="translate(58.98 52.1)"/>
</svg>
