<svg width="256" height="256" viewBox="0 0 256 256" fill="none" xmlns="http://www.w3.org/2000/svg"><path d="M255.75 128c0 70.554-57.196 127.75-127.75 127.75S.25 198.554.25 128 57.446.25 128 .25 255.75 57.446 255.75 128Z" fill="#fff" stroke="#383D51" stroke-width=".5"/><path d="M59.09 192c-.1-1.945-.13-3.89-.032-5.835.648-.19 1.308-.331 1.977-.421a49.831 49.831 0 0 0 5.77-1.361c.52-.162 1.037-.357 1.556-.551a15.505 15.505 0 0 0 6.386-4.668 29.888 29.888 0 0 0 3.047-4.7 69.33 69.33 0 0 0 3.274-7.034c1.945-4.862 3.89-9.692 5.8-14.554l19.839-50.176a3895.314 3895.314 0 0 0 18.445-47.848l.389-.972c2.239-.616 4.408-1.264 6.677-1.88.13.324.259.616.357.908a6493.547 6493.547 0 0 1 7.65 21.426c8.72 24.344 17.439 48.655 26.386 72.9 2.464 6.613 4.927 13.258 7.423 19.87a63.172 63.172 0 0 0 3.468 7.877c.583 1.1 1.2 2.139 1.88 3.177a15.21 15.21 0 0 0 9.011 6.515c2.004.531 4.039.931 6.094 1.2l1.459.227c.129.618.163 1.252.1 1.88v1.977c.022.637.011 1.276-.032 1.912-.194.032-.357.065-.551.1H144.18a1.169 1.169 0 0 1-.13-.357v-5.252a.623.623 0 0 1 .065-.227 8.355 8.355 0 0 1 1.3-.259 51.966 51.966 0 0 0 6.256-1.232 21.558 21.558 0 0 0 2.431-.843 9.768 9.768 0 0 0 1.167-.583 4.982 4.982 0 0 0 2.658-5.186 16.25 16.25 0 0 0-.551-3.047c-.421-1.556-.972-3.079-1.491-4.57A11668.71 11668.71 0 0 1 124.341 81.3a1.847 1.847 0 0 0-.486-.972 2.89 2.89 0 0 0-.324.194c-.092.15-.158.314-.194.486-5.089 14.619-10.5 29.141-15.883 43.63-3.988 10.733-7.974 21.495-11.674 32.321a613.2 613.2 0 0 0-4.31 13.1 31.69 31.69 0 0 0-1.2 5.122 12.875 12.875 0 0 0-.1 3.533 5.428 5.428 0 0 0 2.236 3.825 9.999 9.999 0 0 0 2.69 1.361 25.92 25.92 0 0 0 4.668 1.2c1.75.324 3.5.583 5.284.843.13.032.227.032.389.065l.1.389v5.089a.945.945 0 0 1-.065.292 2.481 2.481 0 0 1-.486.065h-.681L59.09 192Z" fill="#000"/></svg>
