<svg xmlns="http://www.w3.org/2000/svg" width="24" height="24" fill="none"><g clip-path="url(#a)"><path d="M4.774 4.289H20.21v14.029H4.774V4.289z" fill="#fff"/><path fill-rule="evenodd" d="M24.992 12.5a12.49 12.49 0 1 1-24.983 0A12.49 12.49 0 0 1 12.5.017 12.49 12.49 0 0 1 24.992 12.5zM8.96 17.468H6.536c-.509 0-.761 0-.914-.098a.613.613 0 0 1-.279-.482c-.009-.181.117-.402.368-.843l5.986-10.544c.255-.448.384-.672.546-.754a.62.62 0 0 1 .559 0c.163.083.291.307.546.754l1.231 2.147.006.011c.275.48.415.724.476.98a1.82 1.82 0 0 1 0 .853c-.061.258-.199.503-.479.99l-3.144 5.554-.008.014c-.277.484-.417.73-.612.915a1.83 1.83 0 0 1-.746.433c-.255.07-.54.07-1.111.07zm6.122 0h3.474c.512 0 .77 0 .924-.101a.61.61 0 0 0 .279-.485c.009-.175-.114-.387-.355-.803l-.025-.043-1.74-2.975-.02-.033c-.244-.413-.368-.622-.526-.703a.61.61 0 0 0-.555 0c-.16.083-.288.301-.543.739l-1.734 2.975-.006.01c-.254.438-.381.657-.371.836a.62.62 0 0 0 .279.485c.15.098.408.098.921.098z" fill="#e84142"/></g><defs><clipPath id="a"><path fill="#fff" d="M0 0h25v25H0z"/></clipPath></defs></svg>
