<svg xmlns="http://www.w3.org/2000/svg" width="24" height="24" fill="none"><g clip-path="url(#a)"><path d="M24.864 12.5c0 6.829-5.535 12.364-12.364 12.364S.136 19.329.136 12.5 5.671.136 12.5.136 24.864 5.671 24.864 12.5z" fill="#fff" stroke="#383d51" stroke-width=".5"/><g fill="#000"><path fill-rule="evenodd" d="M15.856 13.977c2.913.427 4.945 1.392 4.945 2.515 0 1.518-3.716 2.749-8.3 2.749S4.2 18.011 4.2 16.492c0-1.123 2.032-2.089 4.945-2.515 1.106.215 2.23.32 3.356.315a17.263 17.263 0 0 0 3.28-.3l.076-.015h-.001zm-1.251-4.592c2.643.291 4.55 1.116 4.55 2.087 0 1.215-2.98 2.2-6.655 2.2s-6.655-.985-6.655-2.2c0-.971 1.907-1.796 4.55-2.087a13.27 13.27 0 0 0 2.105.163 13.38 13.38 0 0 0 2.037-.152l.068-.011z"/><path d="M12.5 9.061c2.727 0 4.937-.739 4.937-1.649s-2.21-1.649-4.937-1.649-4.937.738-4.937 1.649 2.21 1.649 4.937 1.649z"/></g></g><defs><clipPath id="a"><path fill="#fff" d="M0 0h25v25H0z"/></clipPath></defs></svg>
