<svg xmlns="http://www.w3.org/2000/svg" width="24" height="24" fill="none"><g clip-path="url(#a)"><path d="M24.976 12.5A12.48 12.48 0 0 1 12.5 24.976 12.48 12.48 0 0 1 .024 12.5 12.48 12.48 0 0 1 12.5.024 12.48 12.48 0 0 1 24.976 12.5z" fill="#fff" stroke="#383d51" stroke-width=".5"/><path d="m21.607 18.734-9.067-5.192-9.154 5.213 18.221-.021z" fill="#662d91"/><path d="m12.544 3.095-.003 10.448 9.067 5.192-9.064-15.639z" fill="#9e1f63"/><path d="m3.387 18.756 9.154-5.213.003-10.448-9.157 15.661z" fill="#ff5000"/><path d="m12.522 9.433-3.743 6.252h7.503l-3.76-6.252z" fill="#fff" stroke="#ff5000" stroke-miterlimit="10"/></g><defs><clipPath id="a"><path fill="#fff" d="M0 0h25v25H0z"/></clipPath></defs></svg>
