<svg xmlns="http://www.w3.org/2000/svg" width="24" height="24" fill="none"><g clip-path="url(#a)"><path d="M12.5 25C19.404 25 25 19.404 25 12.5S19.404 0 12.5 0 0 5.596 0 12.5 5.596 25 12.5 25z" fill="#fff"/><path d="M12.484 25V6.98c-1.513-.005-2.734-.416-2.734-.923 0-.377.677-.701 1.646-.845a5.67 5.67 0 0 0 1.117.106 5.7 5.7 0 0 0 1.092-.101l.025-.005c.97.143 1.646.468 1.646.845 0 .502-1.2.911-2.695.923V25h-.097zM10.302 4.395c0-.326.633-.603 1.511-.701a4.36 4.36 0 0 0 .699.055 4.38 4.38 0 0 0 .677-.051l.023-.004c.878.098 1.511.375 1.511.701 0 .408-.99.739-2.211.739s-2.211-.331-2.211-.739zm.553-1.348c0-.306.742-.554 1.658-.554s1.658.248 1.658.554-.742.554-1.658.554-1.658-.248-1.658-.554zm1.629-.605V0h.098v2.441h-.098z" fill="#000"/><path d="M12.5 25a12.6 12.6 0 0 1-2.519-.254 12.447 12.447 0 0 1-4.47-1.881 12.539 12.539 0 0 1-4.529-5.499 12.44 12.44 0 0 1-.728-2.346 12.62 12.62 0 0 1 0-5.038 12.43 12.43 0 0 1 1.881-4.47A12.534 12.534 0 0 1 7.634.982 12.531 12.531 0 0 1 9.981.254a12.62 12.62 0 0 1 5.038 0 12.43 12.43 0 0 1 4.47 1.881 12.536 12.536 0 0 1 4.529 5.5c.32.756.564 1.542.728 2.346a12.62 12.62 0 0 1 0 5.038 12.43 12.43 0 0 1-1.881 4.47 12.536 12.536 0 0 1-5.5 4.529c-.756.32-1.542.564-2.346.728A12.59 12.59 0 0 1 12.5 25zm0-24.023c-.78 0-1.558.078-2.322.234a11.46 11.46 0 0 0-4.121 1.734 11.557 11.557 0 0 0-4.175 5.07c-.295.697-.52 1.422-.671 2.163a11.643 11.643 0 0 0 0 4.645 11.46 11.46 0 0 0 1.734 4.121 11.557 11.557 0 0 0 5.07 4.175c.697.295 1.422.52 2.163.672a11.64 11.64 0 0 0 4.645 0 11.46 11.46 0 0 0 4.121-1.734 11.56 11.56 0 0 0 4.175-5.07c.295-.697.52-1.422.672-2.163a11.64 11.64 0 0 0 0-4.645 11.46 11.46 0 0 0-1.734-4.121 11.56 11.56 0 0 0-5.07-4.175 11.47 11.47 0 0 0-2.163-.671A11.61 11.61 0 0 0 12.5.977z" fill="url(#b)"/><path d="M18.084 16.33v1.931l2.387-3.364-2.387 1.432zm2.3-2.061-2.3-3.819v2.778l2.3 1.042z" fill="#3b3735"/><path d="M18.084 13.444v2.365l2.279-1.324-2.279-1.042z" fill="#1f1d19"/><path d="m15.567 14.269 2.3-3.819v2.778l-2.3 1.042z" fill="#959190"/><path d="M17.867 13.444v2.365l-2.279-1.324 2.279-1.042z" fill="#403c3a"/><path d="M17.867 16.33v1.931l-2.387-3.364 2.387 1.432z" fill="#959190"/><path d="M6.731 18.262a3.906 3.906 0 1 0 0-7.813 3.906 3.906 0 0 0 0 7.813z" fill="url(#c)"/><path d="M8.441 15.912 7.12 12.719c-.075-.165-.185-.246-.331-.246h-.117c-.146 0-.256.081-.331.246l-.575 1.391h-.435a.236.236 0 0 0-.237.236v.003a.237.237 0 0 0 .237.236h.234l-.549 1.326a.28.28 0 0 0-.016.091.25.25 0 0 0 .065.178.22.22 0 0 0 .175.068c.049-.001.097-.017.137-.045s.074-.072.094-.12l.604-1.498h.419a.236.236 0 0 0 .237-.236v-.006a.237.237 0 0 0-.237-.236H6.27l.461-1.149 1.256 3.125c.02.048.053.089.094.12s.087.045.136.045a.22.22 0 0 0 .175-.068.25.25 0 0 0 .065-.178.212.212 0 0 0-.016-.09z" fill="#fff"/></g><defs><linearGradient id="b" x1="22.2" y1="4.975" x2="12.5" y2="25" gradientUnits="userSpaceOnUse"><stop stop-color="#b6509e"/><stop offset="1" stop-color="#2ebac6"/></linearGradient><linearGradient id="c" x1="9.911" y1="12.223" x2="4.098" y2="17.113" gradientUnits="userSpaceOnUse"><stop stop-color="#b6509e"/><stop offset="1" stop-color="#2ebac6"/></linearGradient><clipPath id="a"><path fill="#fff" d="M0 0h25v25H0z"/></clipPath></defs></svg>
