<svg xmlns="http://www.w3.org/2000/svg" width="500" height="500" viewBox="0 0 500 500"><defs><linearGradient id="a" x1=".888" y1=".199" x2=".5" y2="1" gradientUnits="objectBoundingBox"><stop offset="0" stop-color="#b6509e"/><stop offset="1" stop-color="#2ebac6"/></linearGradient><linearGradient id="b" x1=".907" y1=".227" x2=".163" y2=".853" gradientUnits="objectBoundingBox"><stop offset="0" stop-color="#b6509e"/><stop offset="1" stop-color="#2ebac6"/></linearGradient><style>.a{fill:#fff}.e{fill:#959190}</style></defs><g transform="translate(-16032 -3347)"><circle class="a" cx="250" cy="250" r="250" transform="translate(16032 3347)"/><path d="M16281.688 3847v-360.4c-30.256-.1-54.688-8.329-54.688-18.463 0-7.542 13.53-14.028 32.922-16.9a113.364 113.364 0 0 0 22.345 2.121 113.975 113.975 0 0 0 21.843-2.02l.5-.1c19.391 2.867 32.922 9.354 32.922 16.9 0 10.046-24 18.219-53.895 18.462V3847zm-43.64-412.1c0-6.526 12.663-12.064 30.227-14.019a87.205 87.205 0 0 0 13.988 1.093 87.569 87.569 0 0 0 13.537-1.025l.454-.073c17.56 1.956 30.223 7.494 30.223 14.024 0 8.159-19.8 14.774-44.214 14.774s-44.215-6.619-44.215-14.774zm11.052-26.966c0-6.119 14.846-11.08 33.161-11.08s33.16 4.961 33.16 11.08-14.848 11.08-33.162 11.08-33.159-4.96-33.159-11.08zm32.588-12.106V3347h1.953v48.828z"/><path d="M250 500a251.848 251.848 0 0 1-50.384-5.079 248.633 248.633 0 0 1-89.393-37.621 250.728 250.728 0 0 1-90.577-109.989 248.741 248.741 0 0 1-14.567-46.928 252.437 252.437 0 0 1 0-100.767A248.633 248.633 0 0 1 42.7 110.223a250.729 250.729 0 0 1 109.989-90.577 248.741 248.741 0 0 1 46.927-14.567 252.437 252.437 0 0 1 100.767 0A248.632 248.632 0 0 1 389.777 42.7a250.729 250.729 0 0 1 90.576 109.993 248.741 248.741 0 0 1 14.567 46.927 252.437 252.437 0 0 1 0 100.767 248.632 248.632 0 0 1-37.62 89.39 250.729 250.729 0 0 1-109.993 90.576 248.741 248.741 0 0 1-46.928 14.567A251.848 251.848 0 0 1 250 500zm0-480.468a232.169 232.169 0 0 0-46.447 4.682 229.206 229.206 0 0 0-82.41 34.678 231.145 231.145 0 0 0-83.5 101.4 229.309 229.309 0 0 0-13.429 43.261 232.715 232.715 0 0 0 0 92.895 229.206 229.206 0 0 0 34.678 82.41 231.143 231.143 0 0 0 101.4 83.5 229.321 229.321 0 0 0 43.261 13.429 232.719 232.719 0 0 0 92.895 0 229.2 229.2 0 0 0 82.41-34.678 231.141 231.141 0 0 0 83.5-101.4 229.319 229.319 0 0 0 13.429-43.261 232.719 232.719 0 0 0 0-92.895 229.2 229.2 0 0 0-34.678-82.41 231.142 231.142 0 0 0-101.4-83.5 229.316 229.316 0 0 0-43.261-13.429A232.174 232.174 0 0 0 250 19.531z" transform="translate(16032 3347)" fill="url(#a)"/><path d="M16393.681 3673.598v38.628l47.742-67.273zm46.006-41.223-46.006-76.388v55.555z" fill="#3b3735"/><path d="M16393.681 3615.87v47.308l45.572-26.475z" fill="#1f1d19"/><path class="e" d="m16343.34 3632.375 46.006-76.388v55.555z"/><path d="M16389.343 3615.87v47.308l-45.572-26.475z" fill="#403c3a"/><path class="e" d="M16389.331 3673.598v38.628l-47.742-67.273z"/><g transform="translate(16088.5 3555.984)"><circle cx="78.125" cy="78.125" r="78.125" fill="url(#b)"/><path class="a" d="m112.312 109.25-26.42-63.861c-1.5-3.299-3.705-4.917-6.627-4.917h-2.337c-2.922 0-5.129 1.618-6.622 4.917L58.814 73.211h-8.7a4.758 4.758 0 0 0-4.739 4.723v.065a4.758 4.758 0 0 0 4.739 4.723h4.678L43.817 109.25a5.6 5.6 0 0 0-.325 1.812 4.994 4.994 0 0 0 1.3 3.559 4.557 4.557 0 0 0 3.5 1.358 4.747 4.747 0 0 0 2.731-.907 5.762 5.762 0 0 0 1.883-2.394l12.076-29.956h8.375a4.758 4.758 0 0 0 4.735-4.723v-.127a4.758 4.758 0 0 0-4.739-4.723h-4.48l9.219-22.972 25.126 62.5a5.762 5.762 0 0 0 1.887 2.395 4.747 4.747 0 0 0 2.727.906 4.557 4.557 0 0 0 3.506-1.359 4.994 4.994 0 0 0 1.3-3.559 4.278 4.278 0 0 0-.326-1.81z"/></g></g></svg>
