<svg xmlns="http://www.w3.org/2000/svg" width="24" height="24" fill="none"><g clip-path="url(#a)"><path d="M24.623 15.524a12.5 12.5 0 0 1-15.149 9.102 12.5 12.5 0 0 1-9.1-15.148A12.5 12.5 0 0 1 15.521.374a12.5 12.5 0 0 1 9.102 15.15z" fill="#f7931a"/><path d="M18.008 10.719c.249-1.663-1.018-2.557-2.749-3.154l.562-2.253-1.371-.342-.547 2.194-1.099-.259.551-2.208-1.371-.342-.562 2.252-.876-.206.002-.007-1.891-.472-.365 1.465.996.248c.555.139.656.506.639.798L9.286 11c.038.01.088.024.143.046l-.145-.036-.897 3.596c-.068.169-.24.422-.629.326.014.02-.997-.249-.997-.249l-.681 1.57 1.785.445.978.252-.568 2.279 1.37.342.562-2.255 1.093.284-.56 2.244 1.372.342.568-2.275c2.339.443 4.097.264 4.838-1.851.596-1.703-.03-2.686-1.26-3.326.896-.207 1.571-.796 1.751-2.014zm-3.134 4.394c-.424 1.703-3.291.782-4.221.551l.753-3.019c.93.232 3.911.691 3.468 2.468zm.424-4.419c-.387 1.549-2.773.762-3.548.569l.683-2.738c.774.193 3.268.553 2.865 2.169z" fill="#fff"/></g><defs><clipPath id="a"><path fill="#fff" d="M0 0h25v25H0z"/></clipPath></defs></svg>
