<svg width="256" height="256" viewBox="0 0 256 256" fill="none" xmlns="http://www.w3.org/2000/svg">
<path d="M252.139 158.965C235.043 227.536 165.592 269.268 97.0128 252.168C28.4615 235.072 -13.27 165.617 3.8338 97.0494C20.9216 28.4701 90.3729 -13.2655 158.932 3.83034C227.508 20.9262 269.235 90.3895 252.139 158.965Z" fill="#F7931A"/>
<path d="M184.4 109.765C186.948 92.7335 173.98 83.5776 156.248 77.4697L162 54.3979L147.956 50.898L142.356 73.3617C138.664 72.4417 134.872 71.5737 131.104 70.7138L136.744 48.102L122.708 44.602L116.952 67.6658C113.896 66.9698 110.896 66.2818 107.984 65.5578L108 65.4858L88.6326 60.6499L84.8966 75.6497C84.8966 75.6497 95.3165 78.0377 95.0965 78.1857C100.784 79.6057 101.812 83.3696 101.64 86.3536L95.0885 112.637C95.4805 112.737 95.9885 112.881 96.5485 113.105C96.0805 112.989 95.5805 112.861 95.0645 112.737L85.8806 149.557C85.1846 151.285 83.4207 153.877 79.4447 152.893C79.5847 153.097 69.2368 150.345 69.2368 150.345L62.2649 166.421L80.5407 170.977C83.9407 171.829 87.2726 172.721 90.5526 173.561L84.7406 196.896L98.7685 200.396L104.524 177.309C108.356 178.349 112.076 179.309 115.716 180.213L109.98 203.192L124.024 206.692L129.836 183.401C153.784 187.933 171.792 186.105 179.372 164.445C185.48 147.005 179.068 136.945 166.468 130.385C175.644 128.269 182.556 122.233 184.4 109.765ZM152.312 154.761C147.972 172.201 118.608 162.773 109.088 160.409L116.8 129.493C126.32 131.869 156.848 136.573 152.312 154.761ZM156.656 109.513C152.696 125.377 128.256 117.317 120.328 115.341L127.32 87.3016C135.248 89.2776 160.78 92.9655 156.656 109.513Z" fill="white"/>
</svg>
