<svg data-name="Layer 2" xmlns="http://www.w3.org/2000/svg" viewBox="0 0 1867.83 1867.83"><g data-name="Layer 1"><circle cx="933.92" cy="933.92" r="933.92"/><path d="M229.86 1120.24V748.42h133.56c47.84 0 84.23 8.77 109.17 26.3 24.94 17.54 37.41 42.99 37.41 76.36 0 19.24-4.43 35.67-13.28 49.29-8.85 13.62-21.88 23.67-39.07 30.13 19.41 5.11 34.3 14.64 44.69 28.6 10.38 13.96 15.58 30.99 15.58 51.08 0 36.43-11.54 63.8-34.6 82.1-23.07 18.3-57.25 27.62-102.53 27.96H229.87Zm89.63-216.81h46.73c19.58-.17 33.54-3.75 41.88-10.76 8.34-7 12.51-17.33 12.51-30.99 0-15.71-4.51-27.02-13.53-33.94-9.03-6.92-23.58-10.37-43.67-10.37h-43.92v86.06Zm0 58.73v89.12h58.74c16.17 0 28.6-3.7 37.28-11.11 8.68-7.41 13.02-17.83 13.02-31.28 0-30.98-15.41-46.56-46.22-46.73h-62.82Zm539.35-213.74v243.37c0 27.58-5.87 51.46-17.62 71.63-11.75 20.17-28.6 35.54-50.56 46.09-21.96 10.56-47.93 15.83-77.89 15.83-45.29 0-80.95-11.75-107-35.24s-39.33-55.67-39.84-96.53V748.41h90.15v246.94c1.02 40.69 19.92 61.03 56.69 61.03 18.55 0 32.6-5.11 42.14-15.32 9.53-10.21 14.3-26.81 14.3-49.8V748.4h89.63Zm151.43 371.82h-89.38V748.42h89.38v371.82Zm62.31 0V748.42h119.77c32.86 0 62.39 7.45 88.61 22.34 26.22 14.9 46.69 35.92 61.42 63.08 14.72 27.16 22.17 57.59 22.34 91.29v17.11c0 34.05-7.19 64.57-21.58 91.55-14.39 26.99-34.65 48.1-60.78 63.33-26.14 15.24-55.29 22.94-87.46 23.11h-122.32Zm89.64-302.62v233.67h31.15c25.71 0 45.46-9.15 59.25-27.45 13.79-18.3 20.69-45.5 20.69-81.59v-16.09c0-35.92-6.89-62.99-20.69-81.21-13.79-18.22-33.88-27.33-60.27-27.33h-30.13Zm338.11 233.67h156.03v68.95h-245.67V748.42h89.64v302.87Z" style="fill:#fff"/></g></svg>
