<svg xmlns="http://www.w3.org/2000/svg" width="24" height="24" fill="none"><g clip-path="url(#a)"><path d="M12.5 25C19.404 25 25 19.404 25 12.5S19.404 0 12.5 0 0 5.596 0 12.5 5.596 25 12.5 25z" fill="#fff"/><path d="m12.498 1.073 2.849 2.85-7.15 7.152-2.85-2.85 7.151-7.152zM5.361 16.785l2.849 2.85L19.636 8.208l-2.849-2.85L5.361 16.785zm4.285 4.285 2.852 2.857L23.924 12.5l-2.849-2.85L9.646 21.07zM6.773 12.5l-2.85-2.85-2.849 2.85 2.849 2.849 2.85-2.849z" fill="#f0b90b"/></g><defs><clipPath id="a"><path fill="#fff" d="M0 0h25v25H0z"/></clipPath></defs></svg>
