<svg width="256" height="256" viewBox="0 0 256 256" fill="none" xmlns="http://www.w3.org/2000/svg"><path d="M128 256c70.692 0 128-57.308 128-128C256 57.308 198.692 0 128 0 57.308 0 0 57.307 0 128c0 70.692 57.307 128 128 128Z" fill="#fff"/><path d="m127.981 10.992 29.175 29.182-73.22 73.241-29.182-29.182 73.227-73.241ZM54.895 171.877l29.175 29.182L201.076 84.052 171.901 54.87 54.895 171.877Zm43.878 43.878 29.2 29.252 117.009-117.008-29.175-29.182L98.773 215.755ZM69.354 128 40.172 98.818l-29.177 29.181 29.175 29.175L69.354 128Z" fill="#F0B90B"/></svg>
