<svg width="256" height="256" viewBox="0 0 256 256" fill="none" xmlns="http://www.w3.org/2000/svg">
  <path d="M128 256C198.692 256 256 198.692 256 128C256 57.3075 198.692 0 128 0C57.3075 0 0 57.3075 0 128C0 198.692 57.3075 256 128 256Z" fill="white"/>
  <path d="M127.981 10.9919L157.156 40.1739L83.9361 113.415L54.7541 84.2329L127.981 10.9919ZM54.8951 171.877L84.0701 201.059L201.076 84.0519L171.901 54.8699L54.8951 171.877ZM98.7731 215.755L127.973 245.007L244.982 127.999L215.807 98.8169L98.7731 215.755ZM69.3541 128L40.1721 98.8179L10.9951 127.999L40.1701 157.174L69.3541 128Z" fill="#F0B90B"/>
</svg>