<svg xmlns="http://www.w3.org/2000/svg" width="24" height="24" fill="none"><g clip-path="url(#a)"><mask id="b" maskUnits="userSpaceOnUse" x="0" y="0" width="25" height="25"><path d="M0 0h25v25H0V0Z" fill="#fff"/></mask><g mask="url(#b)"><path d="M24.375 12.5C24.375 5.942 19.058.625 12.5.625S.625 5.942.625 12.5 5.942 24.375 12.5 24.375 24.375 19.058 24.375 12.5z" fill="#fff"/><path d="m12.5 3.75-5.283 8.923L12.5 10.22V3.75z" fill="#0052ff"/><path d="m12.5 15.826-5.283-3.164L12.5 10.22v5.606z" fill="#6697ff"/><path d="m12.5 16.862-5.282-3.165L12.5 21.25v-4.388z" fill="#0052ff"/><path d="m12.5 3.75 5.283 8.923L12.5 10.22V3.75z" fill="#6697ff"/><path d="m12.5 15.826 5.283-3.153L12.5 10.22v5.606z" fill="#ccdcff"/><path d="m12.5 16.862 5.283-3.108L12.5 21.25v-4.388z" fill="#6697ff"/><path fill-rule="evenodd" d="M12.5 1.25C6.287 1.25 1.25 6.287 1.25 12.5S6.287 23.75 12.5 23.75s11.25-5.037 11.25-11.25S18.713 1.25 12.5 1.25zM0 12.5C0 5.596 5.596 0 12.5 0S25 5.596 25 12.5 19.404 25 12.5 25 0 19.404 0 12.5z" fill="#0052ff"/></g></g><defs><clipPath id="a"><path fill="#fff" d="M0 0h25v25H0z"/></clipPath></defs></svg>
