<svg xmlns="http://www.w3.org/2000/svg" xmlns:xlink="http://www.w3.org/1999/xlink" width="512" height="513" fill="none"><path fill="url(#a)" d="M512 257a256 256 0 1 1-512 0 256 256 0 0 1 512 0z"/><g fill-rule="evenodd"><use xlink:href="#b" fill="#52be68"/><use xlink:href="#b" fill="url(#c)"/><g fill="#fff"><path d="m237 280 2 14-28 6-4-15 30-5zm-27 7 3 10 23-5-1-9-25 4z"/><path d="m210 285 3 14-24 8-6-14 27-8zm-24 9 4 10 20-6-2-10-22 6z"/><path d="m235 267 2 15-29 6-4-17 31-4zm-28 6 3 12 25-5-2-10-26 3z"/><path d="m207 271 3 16-26 8-5-17 28-7zm-25 9 4 12 21-6-2-12-23 6zm56 11 3 12-26 6-5-12 28-6zm-24 8 2 8 22-6-1-7-23 5z"/><path d="m213 297 4 12-23 9-6-13 25-8zm-22 10 4 8 19-8-3-7-20 7zm43-55 2 17-31 5-3-18 32-4zm-29 6 2 13 26-4-1-12-27 3z"/><path d="m204 255 3 18-27 7-5-18 29-7zm-26 8 3 14 24-5-3-14-24 5zm88 14 1 13-31 4-2-14 32-3zm-29 5 1 9 26-3v-8l-27 2zm3 18 2 9-24 7-4-9 26-7zm-23 9 2 5 20-6-1-5-21 6zm-32-17 6 14-20 11-8-15 22-10zm-18 11 5 11 16-9-4-10-17 8z"/><path d="m216 306 4 10-20 9-7-10 23-9zm-19 10 3 6 17-8-2-5-18 7zm69-51v15l-31 3-2-16 33-2zm-30 4 1 11 27-3v-10l-28 2zm-55 8 5 17-22 10-6-17 23-10zm-20 11 5 13 17-8-3-13-19 8zm106 0v10l-29 5-2-11 31-4zm-28 6 1 6 24-4v-6l-25 4z"/><path d="m190 304 6 12-18 11-8-12 20-11zm-17 12 6 8 14-9-4-8-16 9zm60-80 1 18-32 4-2-19 33-3zm-30 5 1 14 28-3-1-13-28 2z"/><path d="m202 238 3 20-29 6-4-20 30-6zm-27 8 3 15 24-5-2-15-25 5zm91 5v16l-33 2-1-17 34-1zm-31 4 1 12 28-2v-11l-29 1z"/><path d="m178 261 4 19-24 9-5-19 25-9zm-22 10 4 15 19-8-3-14-20 7zm111 25v9l-27 5-2-9 29-5zm-26 7 1 4 22-4v-4l-23 4z"/><path d="m242 307 2 6-22 8-5-7 25-7zm-21 9 2 2 18-6-1-2-19 6zm-26-2 7 10-17 11-9-10 19-11zm-15 12 6 6 12-9-4-5-14 8z"/><path d="m219 314 5 6-18 9-8-6 21-9zm-16 10 3 3 15-8-2-2-16 7zm63-88v17l-34 2-1-19h35zm-33 3 1 13 30-1v-13l-31 1zm-58 4 3 20-25 9-4-21 26-8zm-23 10 3 16 20-7-2-16-21 7zm115 49v6l-25 6-3-6 28-6zm-24 7v2l22-5v-1l-22 4z"/><path d="M233 219v19l-33 3-1-20 34-2zm-32 4 1 16 29-3-1-14-29 1zm96 53-2 12-31 2v-13l33-1zm-30 4v8l26-2 1-7-27 1z"/><path d="m201 221 2 20-30 5-3-21 31-4zm-28 6 2 16 25-4-1-16-26 4zm123 59-2 10-30 3v-11l32-2zm-29 4v6l25-2 1-6-26 2zm-3-25h34l-1 14-33 1v-15zm2 2v10l29-1v-9h-29zm-101 34 8 15-16 12-9-15 17-12zm-14 12 7 11 12-9-5-11-14 9z"/><path d="m160 286 6 17-17 12-8-18 19-11zm-16 12 6 13 14-9-5-13-15 9zm56 24 8 6-15 11-10-6 17-11zm-12 11 5 3 11-8-4-3-12 8zm-16-20 8 13-14 12-10-12 16-13zm-13 13 7 9 11-10-6-8-12 9zm84-15 4 3-21 8-7-3 24-8zm-17 9 7-3-7 3zm69-27-2 8-29 4v-9l31-3zm-28 6v3l24-3 1-3-25 3zm-3-48 35 1-1 15h-34v-16zm2 2v12h30l1-11-31-1z"/><path d="m223 318 6 3-18 10-8-3 20-10zm0 3-14 7h2l12-7zm7-102 36 1v18l-35 1-1-20zm3 3v14h31v-14h-31zm-78 47 6 19-19 12-7-20 20-11zm-17 12 5 15 15-9-4-15-16 9zm129 25v3l-23 6-4-3 27-6zm-89 18 9 9-12 13-11-9 14-13zm-10 13 7 6 9-10-6-6-10 10zm4-112 3 21-26 8-3-22 26-7zm-24 9 3 17 21-7-2-16-22 6z"/><path d="m294 299-3 6-26 4-1-6 30-4zm-27 6v1l23-3v-1l-23 3zm-35-103 1 20-34 1-1-20 34-1zm-32 3 1 16 29-2v-15l-30 1zm64 31 36 2-1 16-35-1v-17zm2 2v13l31 1v-12l-31-2z"/><path d="m200 202 1 21-31 5-1-22 31-4zm-29 6 1 17 27-4-1-16-27 3zm34 119 9 2-14 12-10-2 15-12zm1 2-10 8 4 1 9-8-3-1zm-55-79 5 21-20 11-6-21 21-11zm-18 12 4 17 16-9-4-16-16 8zm123 45-11 8-13 5-2 1-3 1-1-2 5-2 25-11z"/><path d="m185 332 10 6-11 12-11-5 12-13zm1 3-9 9 7 3 7-9-5-3zm44-133 36 2v18h-36v-20zm2 2 1 15 31 1v-14l-32-2zm64 98-6 4-25 4v-4l31-4zm-1-26 32 1-3 11h-31l2-12zm2 3-1 7h26l2-7h-27z"/><path d="m325 286-3 9-30 1 1-10h32zm-30 2v6l25-1 1-5h-26zm-56 27-22 15-14 3 23-13 13-5zm25-95 37 3-1 17-36-2v-18zm2 3v13l31 2 1-13-32-2zm2 82-1 4-28 8 7-5 22-7zm28-40 33 2-3 12h-32l2-14zm2 2-1 9 28 1 1-8-28-2zm-127-61 2 21-27 8-2-23 27-6zm-25 8 2 17 22-6-1-16-23 5z"/><path d="m323 293-4 7-29 2 2-8 31-1zm-29 3-1 3 24-1 2-3-25 1zm-144 15 9 15-11 14-11-15 13-14zm-10 14 8 11 8-10-7-11-9 10z"/><path d="m158 324 9 12-9 14-12-12 12-14zm0 4-9 10 9 9 7-10-7-9zm39-144 35 1v19l-34 1-1-21zm3 3v16l30-1v-15h-30zm97 65 34 3-2 14-33-2 1-15zm2 2-1 11 29 1 1-9-29-3zm-156 42 8 17-13 14-9-18 14-13zm-11 14 7 13 9-10-6-13-10 10zm16-79 3 22-21 11-4-23 22-10zm-19 12 3 17 17-8-3-17-17 8z"/><path d="M200 184v21l-31 4-1-22 32-3zm-30 5 1 17 27-3-1-16-27 2zm151 108-5 6-27 2 2-6 30-2zm-28 5h-1l23-2-22 2zm-73 24-12 13-12 3 15-13 9-3zm-8 5-8 6h2l7-6h-1z"/><path d="m192 336 10 3-9 13-11-2 10-14zm1 3-7 9 6 1 6-9-5-1zm-27-4 10 9-7 14-13-9 10-14zm0 3-7 10 9 6 5-9-7-7zm122-36 4 3-27 5v-4l23-4zm-151-24 7 20-14 14-8-20 15-14zm-12 15 6 15 10-11-5-14-11 10zm105-109 36 4v18l-36-2v-20zm2 3v15l32 2v-14l-32-3z"/><path d="m264 204 37 4-1 18-36-4v-18zm2 2v14l32 3v-13l-32-4zm31 32 35 4-1 15-35-3 1-16zm3 3-1 11 29 3 2-11-30-3zm-50 65-3 8-21 9 6-8 18-9zm-16 11 11-5 1-1-12 6z"/><path d="m268 302-1 6-23 7 3-7 21-7zm-19 8-1 1 17-5v-1l-16 5zm66-10 1 3h-3l-28 3 5-4 25-2zm-76 10-9 11-13 8-1-1 5-5 18-13zm-69-123 1 21-27 7-1-22 27-6zm-25 7 1 18 23-6-1-16-23 4zm29 149 11 5-6 14-13-5 8-14zm1 3-5 10 8 3 4-10-7-3zm-43-86 6 21-15 14-7-22 16-13zm-13 14 5 16 11-10-4-16-12 10z"/><path d="m146 211 2 23-22 10-3-23 23-10zm-20 12 2 17 18-8-2-17-18 8zm172 0 36 5-2 16-35-4 1-17zm2 3v12l30 4 1-12-31-4zm-103-60 35 2v19h-35v-21zm3 3v15l30 1v-15l-30-1zm88 129 1 6-24 4v-6l23-4zm-20 6-1 2 19-4v-2l-18 4zm-59 32-7 14-12 2 9-13 10-3zm-8 5-6 8 6-1 4-8-4 1zm121-55 30 1-5 8h-28l3-9zm2 2-2 5h24l2-4-24-1z"/><path d="m325 277 30 2-4 10-29-1 3-11zm1 2-1 7 24 1 2-6-25-2zm-62-92 37 6v17l-37-4v-19zm2 3v14l33 4v-13l-33-5zm-66-24v21l-32 2v-21l32-2zm-29 4-1 17 27-3v-15l-26 1zm140 129 5 4-27 3-3-4 25-3zm-95 29 5-5 1 2-7 9-17 12 18-18zm104-35h29l-5 7h-28l4-7zm1 2-1 2h22l2-2h-23z"/><path d="m327 266 31 4-4 11-30-2 3-13zm2 3-2 8 25 2 3-7-26-3zm-99-101 37 4-1 18-36-3v-19zm2 2v15l32 2v-13l-32-4zm-49 178 11 1-4 14-13-1 6-14zm2 2-5 10 8 1 3-10-6-1zm66-50-2 10-18 8 4-10 16-8zm-14 10-2 3 12-5 1-4-11 6zm111-13-8 5-27 1 5-5 30-1zm-29 3h8-8z"/><path d="M268 295v9l-22 7 3-10 19-6zm-17 8-1 4 15-5v-4l-14 5zm78-49 31 5-3 13-31-3 3-15zm2 3-2 10 26 2 2-8-26-4zm-32-49 35 6-1 17-35-6 1-17zm2 3v12l30 5 1-12-31-5zm-173 29 5 22-17 14-5-23 17-13zm-14 14 4 17 12-10-3-17-13 10zm25 69 10 15-6 15-12-15 8-15zm0 5-6 10 9 11 5-11-8-10z"/><path d="m148 336 11 12-5 15-13-12 7-15zm0 4-4 11 9 8 3-10-8-9zm91-35-5 12-17 12 8-13 14-11zm-12 13-1 1 6-4 1-2-6 5zm-97-11 10 18-8 16-11-18 9-16zm-6 16 8 13 5-11-7-13-6 11zm47-155-1 21-27 6v-22l28-5zm-26 7v17l23-5v-16l-23 4zm194 125 1 2h-4l-23 1v-2l3-1h23zm-30-5 4 6-26 3-2-6 24-3zm-21 5 1 2 20-3-1-1-20 2z"/><path d="m145 192 1 22-22 10-2-23 23-9zm-20 10 1 18 18-8-1-17-18 7zm32 145 12 9-4 15-13-9 5-15zm1 4-3 10 9 6 3-10-9-6zm129-60 1 9-23 5v-9l22-5zm-19 7v4l17-4v-4l-17 4zm62-56 32 5-2 14-32-4 2-15zm2 2-1 11 27 4 1-10-27-5zm-68-73 37 7v17l-37-5v-19zm2 3v14l33 4v-12l-33-6zm-68-25 35 3-1 18-35-1 1-20zm2 3v14l30 2v-14l-30-2zm16 178-5 15-12 7 7-15 10-7zm-8 9-3 7 4-3 2-6-3 2zm-85-49 9 20-9 16-10-20 10-16zm-7 16 7 15 6-11-6-15-7 11z"/><path d="m201 149-1 20-32 2 1-20 32-2zm-29 4-1 15 26-1 1-15-26 1zm58-2 37 5v18l-37-4v-19zm3 3-1 14 32 3v-12l-31-5zm-30 193-3 14-13 2 5-14 11-2zm-9 4-3 9 7-1 2-9-6 1zm105-159 36 8-1 17-35-7v-18zm2 3v13l31 6v-12l-31-7zm32 103 7 4-27 1-6-4 26-1zm-114 27 6-9 2 1-5 8-7 9-2-1 6-8zm-52 30 13 5-3 14-14-5 4-14zm2 3-3 10 9 3 2-10-8-3zm-43-138 3 23-17 13-4-24 18-12zm-15 13 3 18 12-9-2-18-13 9zm220-5 33 7-2 15-32-6 1-16zm2 3-1 11 28 5 1-10-28-6zm-65 55v12l-20 6 2-12 18-6zm-16 8-1 6 14-4 1-6-14 4z"/><path d="m253 291-2 12-17 8 4-13 15-7zm-13 9-2 7 11-6 1-6-10 5zm67-11 3 8-24 3-2-8 23-3zm-20 5 1 4 19-3-2-3-18 2zm-169-23 7 22-11 15-7-21 11-16zm-9 16 6 16 7-11-5-16-8 11zm240 0 26 2-5 8-26-2 5-8zm2 2-3 4 21 2 2-4-20-2z"/><path d="m346 293 26 2-7 6-24-1 5-7zm1 2-2 2 19 1 2-1-19-2zm5-16 27 4-5 9-26-3 4-10zm2 3-2 5 21 2 2-5-21-2zm-68 1 1 11-22 4 1-11 20-4zm-18 6v6l17-3-1-6-16 3zm-27 7-4 13-14 12 6-15 12-10zm-10 12-2 5 6-5 1-5-5 5zm99-14 5 6-25 2-4-7 24-1zm-20 4 1 1 19-1-1-2-19 2zm-46-142 37 8v16l-37-6v-18zm2 3v13l33 5v-11l-33-7zm-88 200 12 2-1 14-14-1 3-15zm2 3-2 10h9l1-9-8-1zm-34-190-1 22-23 9 1-22 23-9zm-21 10v18l18-7v-17l-18 6z"/><path d="m343 297 27 1-9 4h-26l8-5zM172 150l-2 20-27 6 2-21 27-5zm-25 7-1 16 22-5 1-15-22 4zm208 112 27 5-4 11-26-4 3-12zm2 3-2 7 21 3 3-6-22-4zm-25-58 33 8-1 15-33-7 1-16zm2 3v11l27 6 1-10-28-7zm-35-40 36 9v16l-36-7v-18zm2 3v13l31 6v-11l-31-8zm-102-46 34 3v17l-35-2 1-18zm3 2-1 14 29 1 1-12-29-3zm21 185-5 15-12 13 7-16 10-12zm-8 13-2 4 3-3 1-4-2 3z"/><path d="M339 300h22v2h-25v-2h3zm-128 42-1 13-13 7 3-14 11-6zm-8 8-2 8 7-4v-8l-5 4zm155-91 27 6-3 11-27-4 3-13zm2 2-2 9 22 4 2-8-22-5zM231 137l36 6v16l-37-5 1-17zm2 2v13l31 4v-11l-31-6zm72 142 3 10-23 3-1-11 21-2zm-19 4 1 7 18-3-1-5-18 1zm-84-151-2 18-31 1 2-19h31zm-29 3-1 13h26l1-14-26 1zm-48 62 1 23-17 13-2-24 18-12zm-15 14 1 18 13-10-1-17-13 9zm3 38 6 23-11 16-6-24 11-15zm-9 16 5 17 7-11-4-17-8 11zm120 48 5-9 2 1-4 10-6 10-2-2 5-10z"/><path d="m327 288 4 8-24 2-2-9 22-1zm-19 4 1 3 18-1-1-3-18 1zm-167 57 13 12-1 15-13-12 1-15zm2 5-1 9 9 8 1-9-9-8z"/><path d="m131 335 12 16-1 15-13-15 2-16zm2 6-2 9 9 11 1-9-8-11zm135-66v14l-18 5 1-14 17-5zm-15 7-1 9 14-4v-8l-13 3zm75 16h24l10 4h-26l-8-4z"/><path d="m254 279-2 15-15 7 3-15 14-7zm-12 9-2 9 10-5 1-9-9 5zm118-41 28 7-3 13-28-6 3-14zm2 3-2 9 23 5 2-9-23-5zM152 359l14 9-1 15-14-9 1-15zm2 5-1 9 10 6v-10l-9-5zm46-6v14l-14 3 2-14 12-3zm-10 5-1 9 9-2v-9l-8 2zm142-164 34 10-1 15-33-8v-17zm3 4-1 11 29 7v-10l-28-8zM122 320l11 18-2 16-12-18 3-16zm1 6-1 9 7 13 2-9-8-13zm162-53 1 12-20 4v-13l19-3zm-17 5v8l16-3-1-8-15 3zm-4-136 37 9v15l-37-8v-16zm3 3v11l32 7-1-10-31-8z"/><path d="m299 163 35 10 1 16-36-9v-17zm2 3v12l31 7v-10l-31-9zm-58 118-3 16-12 10 4-16 11-10zm-8 11-3 8 6-4 1-8-4 4zm-71 72 14 5v14l-15-5 1-14zm2 3-1 10 10 3v-10l-9-3zm161-76h22l6 6h-23l-5-6zm5 2 1 2h16l-1-2h-16zM147 154l-2 21-22 8 2-21 22-8zm-20 9-2 17 18-7 1-16-17 6zm235 71 28 8-3 14-27-7 2-15zm2 3-2 10 23 6 2-9-23-7z"/><path d="m174 134-3 19-27 4 3-19 27-4zm-25 6-2 14 22-3 2-14-22 3zm-35 162 10 21-3 17-10-21 3-17zm1 8-2 8 7 14 1-9-6-13zm210-30 3 10-23 2-2-11 22-1zm-19 4 1 5 18-1-2-5-17 1z"/><path d="m304 271 2 12-22 3-1-13 21-2zm-18 4v8l17-2-1-7-16 1zm-85-155 33 4-1 15-34-3 2-16zm2 3-1 11 29 3 1-11-29-3zm-92 107 3 24-12 16-3-25 12-15zm-10 16 3 18 7-11-2-17-8 10zm117 87 1 14-12 11 2-15 9-10zm-7 11-1 7 6-5v-7l-5 5z"/><path d="m232 123 35 7v15l-36-6 1-16zm2 3-1 11 31 5 1-10-31-6zm-6 182-3 17-11 19 5-18 9-18zm-7 18v2l2-4v-1l-2 3zm111-141 33 11 1 15-34-9v-17zm3 4v11l28 8v-10l-28-9zm34 106 22 3-8 5-21-3 7-5zm1 2-2 2 14 1 2-1-14-2z"/><path d="m373 289 21 4-6 7-21-3 6-8zm1 3-3 3 16 2 2-3-15-2zM125 179v23l-18 12 1-23 17-12zm-15 13v18l12-9 1-17-13 8zm255 106 24 3-11 3-23-2 10-4z"/><path d="m377 282 21 5-6 8-21-4 6-9zm1 3-3 5 16 2 3-4-16-3zM174 120h30l-2 16-31 1 3-17zm2 2-2 12h26l1-11-25-1zm92 141v15l-17 5 1-16 16-4zm-14 6v11l12-4v-10l-12 3zm-79 102 14 1 1 14h-15v-15zm3 3v9l9 1v-9l-9-1zm32-21 1 13-13 7v-14l12-6zm-10 8v8l9-4-1-9-8 5zm125-73h21l4 8h-21l-4-8zm3 3 2 3h16l-2-3h-16zm-96 3h3l-4 13-5 9-2-1 5-13 3-8zm131-73 28 10-2 14-28-8 2-16zm2 3-1 11 23 7 1-10-23-8z"/><path d="M285 261v14l-19 3v-15l19-2zm-17 4v11l15-3v-10l-15 2zm-160 17 8 24-4 17-8-23 4-18zm0 9-2 8 6 15 1-8-5-15zm248 11v-2h5l17 1-1 3-21-2zm-101-36-2 16-14 7 3-17 13-6zm-11 8-2 11 9-4 1-11-8 4zm136 0 22 5-5 10-21-5 4-10zm2 2-3 7 16 3 3-5-16-5zm-84-126 36 10 1 15-36-10-1-15zm3 3v11l31 8-1-10-30-9z"/><path d="m265 130 35 9 1 14-37-8 1-15zm2 3v10l31 7v-9l-31-8zm35 138h21l2 12h-22l-1-12zm2 3 2 7 17-1-2-6h-17zm42 23 23 2 10 5-23-2-10-5zm37-33 22 7-4 11-22-6 4-12zm2 3-3 7 17 5 3-7-17-5z"/><path d="m303 260 1 14-21 1-1-14 21-1zm-18 3v10l17-2-1-9-16 1zm-41 7-2 18-10 10 3-19 9-9zm-7 10-2 11 5-4 1-11-4 4zm95-108 33 11 1 15-34-10v-16zm3 3v11l28 9v-10l-28-10zm-13 105 21 1 4 10h-21l-4-11zm4 3 1 5h16l-2-5h-15zm37-75 29 11-1 14-29-9 1-16zm2 3v11l24 8v-10l-24-9zM200 369l1 14-14 4v-15l13-3zm-11 5 1 10 9-3-1-9-9 2zm-80-165 2 24-12 16-2-25 12-15zm-10 16 2 18 8-10-2-18-8 10zm51-88-3 20-23 7 4-20 22-7zm-20 9-3 15 18-6 2-15-17 6zm74-38 32 5-2 13-33-4 3-14zm2 3-2 9 28 3 1-8-27-4z"/><path d="m176 120-3 17-26 3 4-17 25-3zm-23 5-3 12 21-3 3-12-21 3zm80-13 34 7v13l-35-6 1-14zm2 3-1 9 31 5v-8l-30-6zm110 179 19 1 8 6-20-1-7-6zm7 3 1 1 12 1-2-2h-11zm-213 64 14 12 2 15-14-13-2-14zm3 6 1 7 9 8-1-8-9-7zm244-114 22 8-4 12-21-7 3-13zm1 3-2 9 18 5 2-8-18-6z"/><path d="m128 347 14 16 2 16-14-16-2-16zm4 8 1 7 8 9-1-7-8-9zm93-34 1 14-10 15v-14l9-15zm-7 15 1 6 5-8-1-6-5 8zm-115-74 6 25-4 18-6-26 4-17zm0 10-2 7 4 16 2-8-4-15zm48 99 14 9 2 14-15-9-1-14zm3 5 1 8 9 6-1-9-9-5z"/><path d="M231 294v18l-10 23 3-20 7-21zm-4 19 1-2-1 2zm41-65v17l-16 4 1-18 15-3zm-13 5-1 13 12-3v-12l-11 2zm-37 91 3 13-12 11-2-14 11-10zm-8 11 1 8 7-7-1-8-7 7zm88-217 34 11 2 14-36-11v-14zm2 3 1 9 30 10-1-9-30-10z"/><path d="M285 247v16l-19 2v-16l19-2zm-16 4v12l14-2-1-11-13 1zm-142-91-2 22-18 12 3-22 17-12zm-15 13-2 16 13-8 1-16-12 8zm7 158 12 19 2 17-12-20-2-16zm3 10 1 6 7 10-1-6-7-10zm179-81 21 1 1 13h-21l-1-14zm2 2 1 9h17l-2-8-16-1zM178 107l28 2-3 14-29-1 4-15zm2 3-3 10h24l2-9-23-1zm85 9 34 10 1 12-35-9v-13zm2 3v8l31 8-1-7-30-9zm-12 129-1 18-13 6 2-19 12-5zm-10 7-1 13 8-4 1-13-8 4zm98 30 18 2 5 8-18-2-5-8zm4 3 2 3 13 1-3-3-12-1zm-112-12 2 1-2 15-9 18 6-26 3-8z"/><path d="m320 271 20 1 4 12-21-1-3-12zm3 3 2 7h15l-1-6-16-1zm64-32 23 9-3 12-22-8 2-13zm2 3-1 9 17 6 2-8-18-7zM163 379l14 5 2 13-15-4-1-14zm3 3 1 9 9 3-1-9-9-3zm197-187 29 12v14l-29-11v-15zm2 3v11l24 9v-10l-24-10zm-34-39 33 13 1 14-33-12-1-15zm3 4v10l28 10-1-9-27-11zm-52 84h20l1 15-20 1-1-16zm3 2v12l16-1-1-10-15-1zm-175 62 12 24 2 19-12-24-2-19zm4 15 1 3 5 11-1-4-5-10zm273-29 16 4-9 4-15-3 8-5zm0 3-2 1 9 2 2-1-9-2zm-176 63 1 14-13 7-1-14 13-7zm-11 9 1 8 9-4-1-9-9 5z"/><path d="m382 300 18 4-11 2-17-3 10-3zm9-8 16 5-7 6-15-4 6-7zm1 3-3 3 10 2 3-2-10-3z"/><path d="M373 303v-2h5l11 3v2l-5-1-11-2zm23-17 15 6-6 7-15-5 6-8zm1 3-3 4 10 3 3-3-10-4zm-152-35-1 19-9 9 2-20 8-8zm-6 9-1 13 4-4 1-12-4 3zm-139-23 4 27-4 18-5-27 5-18zm-2 19 2 14 2-6-2-15-2 7zm242 22 18 2 4 9-18-1-4-10zm4 3 2 4 12 1-2-4-12-1zM235 103l32 8v11l-34-7 2-12zm2 3-1 7 29 6v-6l-28-7zm152 124 22 10-1 13-23-9 2-14zm2 3-1 9 18 8 1-9-18-8zm-281-45v25l-13 15v-24l13-16zm-10 16-1 17 8-9v-17l-7 9zm75 179 14 1 2 14-15-1-1-14zm3 3 1 8 9 1-1-9h-9z"/><path d="m207 99 30 5-2 11-32-4 4-12zm1 3-2 7 27 3 1-6-26-4zm89 26 34 12 2 12-35-12-1-12zm3 3v8l30 10-1-7-29-11zm60 166 20 4 13 6-21-4-12-6zm-60-50 21 2 1 14-21-1-1-15zm3 3v10h16v-9l-16-1zm97 29 15 6-6 9-15-6 6-9zm1 3-3 5 10 4 3-5-10-4zM153 122l-4 18-22 7 5-19 21-6zm-19 8-3 13 16-5 3-13-16 5z"/><path d="m180 107-4 15-26 3 6-15 24-3zm-23 5-3 10 20-2 3-10-20 2zm162 148 20 2 2 13-20-1-2-14zm3 3 1 8 15 1-1-7-15-2zm-37-31v17l-19 2v-18l19-1zm-17 3v13l14-1v-12h-14z"/><path d="m269 233-1 18-15 3v-19l16-2zm-14 4v14l11-2v-14l-11 2zm108-55 28 13 1 14-29-11v-16zm2 4v10l24 10v-9l-24-11zM230 307l3 14-9 18-1-14 7-18zm-5 18 1 5 4-9-1-6-4 10zm40-215 33 11 2 10-35-10v-11zm2 4v5l30 9-1-5-29-9zM103 289l10 29 3 22-10-29-3-22zm5 21v1l3 8-3-9zm222-162 32 14 2 13-33-13-1-14zm3 4 1 8 27 11-1-8-27-11z"/><path d="m226 332 3 13-10 14-3-13 10-14zm-7 14 1 7 7-9-2-7-6 9zm15-68 1 17-7 27 1-20 5-24zm126 16 15 3 9 7-16-3-8-7zm8 4 1 1 6 1-1-1-6-1zm-86-66 20 2v16l-20-1v-17zm3 3v12h15v-11l-15-1zm118 35 15 8-5 9-15-6 5-11zm1 3-2 7 10 4 3-5-11-6zM182 98l27 1-3 12-29-1 5-12zm2 2-4 8h24l2-7-22-1zm-53 43-4 20-18 12 4-21 18-11zm-15 12-3 15 12-8 2-14-11 7zm139 79v19l-12 6v-21l12-4zm-9 6-1 15 8-3v-14l-7 2zm92 32 17 3 4 10-18-2-3-11zm3 3 2 6 12 1-2-5-12-2zm48-58 23 12-1 13-22-10v-15zm3 4-1 10 18 8 1-9-18-9z"/><path d="m240 251-3 29-6 17 3-28 6-18zm-39 130 2 14-14 3-2-14 14-3zm-11 5 1 9 9-2-1-9-9 2zm30-32 3 14-13 11-2-14 12-11zm-9 12 1 8 8-7-1-8-8 7zm146-77 14 3 6 8-14-3-6-8zm6 3 2 3 7 1-2-2-7-2zm43-32 15 9-4 11-15-8 4-12zm1 4-2 7 11 5 2-6-11-6zm-89-15 20 3 1 13-20-2-1-15zm3 2 1 10 14 1-1-8-14-3z"/><path d="m300 233 20 3 1 15-21-2v-16zm2 3 1 11 15 2v-11l-16-2zM237 97l31 8-1 9-33-8 3-9zm1 3-1 4 28 6v-3l-27-7zm-98 271 15 13 3 14-15-12-3-15zm4 7 2 6 8 8-1-7-9-7zm217-207 28 14 2 13-28-13-2-14zm3 4 1 9 23 10-1-8-23-11zm-68-55 33 12 3 11-35-13-1-10zm3 3v6l29 10-1-5-28-11z"/><path d="m129 358 14 16 4 15-14-16-4-15zm5 9 1 5 7 8-1-5-7-8zM99 217l2 29-5 20-2-29 5-20zm-3 20 1 14 2-5-1-14-2 5zm150 0-1 20-8 8 1-21 8-7zm-6 8-1 15 4-4v-14l-3 3zM210 93l29 5-2 8-31-5 4-8zm2 2-3 4 26 4 1-3-24-5zM99 280l2-1 5 20 2 12h-2l-6-20-1-11zm167-64 19 1v18h-19v-19zm3 3v14l13-1v-13h-13zM152 382l15 9 2 13-14-8-3-14zm3 5 2 7 9 5-2-6-9-6zm173-248 32 14 3 11-33-13-2-12zm3 4 1 6 27 11-1-6-27-11z"/><path d="M269 216v19l-16 2v-20l16-1zm-14 3v15l11-1v-14h-11zm81 43 17 3 3 12-18-2-2-13zm3 3 2 8 12 1-2-7-12-2zm-74-161 32 11 2 8-34-10v-9zm2 4v3l29 9-1-3-28-9zm122 97 23 13v14l-23-12v-15zm3 4v10l18 9v-9l-18-10zm-280-41-2 24-13 16 3-24 12-16zm-10 17-2 15 8-9 1-15-7 9zm17 155 14 22 4 17-14-21-4-18zm6 14 1 3 5 9-1-3-5-9zm230-72 13 3 5 9-14-2-4-10zm4 4 2 4 8 1-3-4-7-1zm-77-69 20 2v17l-20-1v-18zm3 3v12l15 1v-11l-15-2zm123 30 15 9-3 12-15-9 3-12zm1 3-1 8 11 6 2-7-12-7zM185 98l-6 12-25 2 7-12 24-2zm-22 4-4 7 19-1 3-8-18 2z"/><path d="m159 109-6 16-22 6 7-16 21-6zm-19 8-4 10 15-4 4-11-15 5zm254 186 9 5-9 1-9-5 9-1zm-1 3 2 1 1-1-2-1-1 1z"/><path d="m399 300 8 6-8 3-7-5 7-4zm-2 4 3 2 2-1-3-2-2 1zm-233 86 15 5 2 12-15-4-2-13zm3 4 2 7 9 3-1-7-10-3zm210-92 12 2 13 6-13-2-12-6zm-122-85v20l-12 4v-21l12-3zm-9 5v16l7-3v-15l-7 2z"/><path d="m404 296 8 6-7 5-8-5 7-6zm0 3-3 3 4 2 3-2-4-3zm-170-8 4 13-7 21-3-14 6-20zm0 9-3 11 1 5 3-12-1-4zm-22 75 2 13-14 8-1-14 13-7zm-11 8 1 9 9-5-1-9-9 5z"/><path d="m232 318 5 12-9 18-4-13 8-17zm-6 17 2 6 6-11-3-6-5 11zM187 91l26 2-5 9-27-2 6-9zm1 2-3 5 22 1 2-4-21-2zm130 143 19 4 1 14-20-3v-15zm2 3 1 10 14 2v-9l-15-3zm59 64 1-2 5 2 5 3-1 2-5-3-5-2zm-269 16 13 28 5 21-13-27-5-22zm126-59 2 17-5 29-1-19 4-27zm123-100 28 15 3 12-29-13-2-14zm3 5 2 7 23 11-2-6-23-12z"/><path d="m300 219 21 4-1 16-20-3v-17zm2 3v12l16 2v-11l-16-3zm107 69 7 6-6 7-8-6 7-7zm0 3-3 3 4 3 3-3-4-3zm-57-20 13 4 4 10-13-3-4-11zm4 3 2 6 7 2-2-5-7-3zm-61-163 32 13 3 8-34-12-1-9zm3 4v3l28 10-1-2-27-11zm-162 9-6 19-18 11 7-20 17-10zm-15 12-4 12 11-7 3-12-10 7zm288 100 16 11-2 12-16-10 2-13zm2 4-1 8 11 7 1-7-11-8zm-76 8 17 4 1 13-16-3-2-14zm3 3 1 9 12 2-1-8-12-3zM239 94l29 8-1 6-31-9 3-5zm1 3-1 1 26 7v-1l-25-7zm148 97 23 13 1 14-23-13-1-14zm3 4 1 9 17 10v-8l-18-11zm-150 37-2 28-5 16 2-29 5-15zm125 57 15 8 13 11-15-8-13-11z"/><path d="m326 131 31 15 4 10-32-14-3-11zm4 4 1 5 26 11-2-4-25-12zM229 342l3 14-11 14-3-14 11-14zm-8 15 1 7 7-9-2-8-6 10zm45-158 19 2v18h-19v-20zm3 3v14l13 1 1-13-14-2zm144 82 7 7-6 8-7-6 6-9zm0 4-3 4 4 4 3-4-4-4zM176 394l15 1 2 12h-14l-3-13zm3 3 2 7 9 1-1-8h-10zm86-296 31 11 2 6-33-11v-6zm3 3v1l26 9-26-10zM95 259l3-1 3 21 2 12h-3l-3-21-2-11z"/><path d="m283 201 20 4-1 17-20-3 1-18zm2 3v13l15 2 1-12-16-3zm-32-5h16v20l-16 1v-21zm2 3 1 15 10-1v-14h-11zM214 89l27 5-3 6-30-5 6-6zm1 3-2 1 24 4v-1l-22-4zm31 127v21l-8 7v-23l8-5zm-6 7v16l3-3v-16l-3 3zm-140-32-1 31-5 23v-32l6-22zm-3 23-1 10 1-2v-11 3zm269 72 10 6 8 10-10-6-8-10zm-260 22h2l7 19 2 10-2 1-7-19-2-11zm244-46 13 4 3 11-13-3-3-12zm4 3 1 7 8 2-2-6-7-3zm62 8 8 8-5 10-8-8 5-10zm1 4-3 5 4 5 3-5-4-5zm-99-57 19 5v15l-19-5v-15zm3 3-1 10 15 4v-10l-14-4zm89 1 15 13-1 12-15-11 1-14zm2 5-1 8 11 8 1-7-11-9zm-55-81 28 16 3 11-28-15-3-12zm4 5 1 6 22 11-1-5-22-12z"/><path d="m301 204 20 6-1 16-20-5 1-17zm2 4-1 12 16 3 1-11-16-4zm-48-9v20l-12 3v-21l12-2zm-10 4 1 16 7-2v-15l-8 1zm90 36 16 6 1 13-17-4v-15zm2 4 1 9 11 3v-9l-12-3zm-44-133 31 14 5 6-34-13-2-7zm4 5 9 4-9-4zm-180 35-5 23-13 16 5-24 13-15zm-11 16-3 14 7-8 2-13-6 7zm281 17 22 15 3 13-23-14-2-14zm3 5 1 7 17 11-1-7-17-11zM190 91l-6 9-25 2 9-10 22-1zm-21 4-4 4 17-1 3-4-16 1zm195 188 9 6 6 10-9-5-6-11zm6 7 2 2h1l-2-2h-1zm-148 75 2 14-13 11-1-14 12-11zm-10 12 1 8 8-7-1-8-8 7z"/><path d="m324 125 30 15 5 9-32-15-3-9zm4 5 1 2 24 12-1-2-24-12zM193 87l24 2-6 6-27-2 9-6zm0 3-2 1 19 2 2-2-19-1zm73 92 20 4-1 18-19-2v-20zm3 3v15l14 1v-13l-14-3zm-28-91 28 8-2 2-32-9 6-1zm-76 5-8 13-21 6 9-14 20-5zm-18 7-5 8 14-4 4-7-13 3zm272 161 8 10-4 10-8-9 4-11zm1 5-2 6 4 4 2-5-4-5zM202 392l2 13-13 3-3-13 14-3zm-11 5 1 8 10-2-2-8-9 2z"/><path d="m266 101 28 10 2 1-1 2-30-11 1-2zm17 84 21 6-1 16-20-4v-18zm3 4-1 13 16 3 1-12-16-4zm-34-8 17 2v19h-16l-1-21zm3 3v15h11v-14l-11-1zm-19 89 5 13-4 23-5-13 4-23zm1 9-2 13 1 4 3-13-2-4zm112-28 13 6 2 12-13-5-2-13zm3 4 1 8 8 2-1-7-8-3z"/><path d="m236 301 6 12-7 21-5-13 6-20zm1 7-4 13 2 6 5-14-3-5zm-1-68 3 18-1 19h-3l-1-7 2-30zM218 89l28 6-7 2-33-7 12-1zm-76 292 15 13 3 13-14-13-4-13zm5 7 1 5 8 7-1-5-8-7zm263-172 15 14v12l-15-12v-14zm2 5v8l11 9v-7l-11-10z"/><path d="m131 367 15 17 3 15-14-17-4-15zm6 10 1 4 6 8-1-3-6-9zm182-168 19 7-1 14-19-5 1-16zm2 3v11l14 4 1-9-15-6zm-81 6v26l-4 14v-28l4-12zm122 57 8 6 5 11-9-5-4-12zm5 7 1 4h2l-2-3-1-1zm34 24-2 6-8 1 3-6 7-1zm-6 3v1h2l1-1h-3zm-41-165 27 16 5 10-28-16-4-10zm4 5 2 4 21 11-2-3-21-12zM100 291h3l5 20 3 11h-3l-5-20-3-11z"/><path d="m302 190 21 7-2 15-21-5 2-17zm2 3-1 12 16 4 1-11-16-5zm85 112 7 2-2 6-8-2 3-6zm1 3v1l2 1 1-1-3-1zM142 113l-8 17-17 11 9-18 16-10zm-14 12-5 10 9-6 5-10-9 6zM94 237h2l2 12 1 21h-2l-2-11-1-22zm60 155 15 9 2 12-14-9-3-12zm4 5 1 5 9 6-1-5-9-6zm135-284 1-2 14 6 16 6-1 3-3-1-13-6-12-5-2-1zm114 190-3 8-8 2 3-7 8-3zm-6 5-1 1h2l1-2-2 1zM245 200l1 21-8 6-1-23 8-4zm-6 6 1 17 3-3v-16l-4 2zm-3 121 3 14-9 18-3-15 9-17zm-7 18 2 7 5-12-1-6-6 11zm106-118 17 7-1 13-16-5v-15zm2 4v9l12 4v-9l-12-4zm84 26 8 11-3 12-8-10 3-13zm1 6-1 6 4 5 1-5-4-6zm-37-90 22 16 3 12-23-15-2-13zm3 5 1 7 17 11-1-6-17-12z"/><path d="m384 303 7 3-2 6-7-4 2-5zm1 3v1l2 1 1-1-3-1zm-264 44 14 22 5 17-14-22-5-17zm7 15v1l5 8v-1l-5-8zm191-244 31 16 9 8-34-16-6-8zm93 178-3 9-8 4 3-7 8-6zm-6 7-1 1 2-1v-1l-1 1zM266 166l20 5v17l-20-3v-19zm3 3v14l14 3 1-13-15-4zm-14 12v20l-12 2-2-21 14-1zm-11 3 1 17 8-2-1-15h-8zm-6-92 30 9v5l-26-8-4-6z"/><path d="m265 100 31 11-3 4-27-10-1-5zm19 70 22 7-2 16-21-5 1-18zm2 4v12l16 4 1-11-17-5zm93 125 7 5-2 6-7-6 2-5zm1 4v1l3 2v-1l-3-2zM100 184h2l-2 20-3 13-3-1 3-20 3-12zm66 216 15 5 2 11-14-5-3-11zm3 4 2 5 9 3-1-5-10-3zm82-240 18 3v18l-17-1-1-20zm3 3 1 14 11 2v-14l-12-2zm163 126-3 10-9 8 4-10 8-8zm-6 10 1-1-1 1zm-62-60 12 7 1 12-12-5-1-14zm2 4 1 8 7 4v-8l-8-4zm9 20 8 6 3 12-8-6-3-12zm4 6 1 5 2 1-1-4-2-2zm44-68 16 15 2 13-16-14-2-14zm3 6 1 7 11 9-1-6-11-10zM198 87l32 3-16 2-21-2v-3h5zm15 299 2 13-13 7-2-13 13-7zm-10 8 1 8 9-5-1-7-9 4z"/><path d="m375 293 6 7-2 6-6-7 2-6zm1 5v1l2 3v-1l-2-3zM197 87l-9 6-25 2 12-7 22-1zm-21 4-2 1 13-1 2-1-13 1zm144 105 20 8-2 14-19-6 1-16zm3 3-2 11 15 5 1-9-14-7zm-30-89 31 14-6 2-27-12 2-4z"/><path d="m303 176 22 8-2 15-21-7 1-16zm2 3-1 12 17 5 1-10-17-7zm118 68 7 12-2 13-7-12 2-13zm1 7-1 6 4 5 1-5-4-6zm-309 87 2-1 9 17 2 9-2 1-8-17-3-9zm98-253 29 6 4 5-25-5-8-6zm137 50 28 16 7 10-30-17-5-9zm6 6 1 2 19 11v-1l-20-12zM231 352l2 15-11 15-2-15 11-15zm-8 16v7l7-9-1-8-6 10zm43-217 21 6-1 16-20-4v-18zm3 3v13l15 3 1-11-16-5zm153 131-4 13-8 11 3-12 9-12zm-86-70 17 8-2 13-16-6 1-15zm2 4-1 9 12 5 1-9-12-5z"/><path d="m320 125 1-3 3 1 26 14-1 2-3-1-26-13zm61 39 23 17 5 11-24-16-4-12zm5 7 1 4 17 11-2-4-16-11zm-120-68 28 10-2 7-26-10v-7zm2 3v2l22 9 1-2-23-9zm-145 26-7 23-14 17 8-23 13-17zm-11 18-3 10 4-6 4-10-5 6zm173 6 22 8-2 15-21-6 1-17zm2 4-1 11 17 5 2-10-18-6z"/><path d="m241 95 27 8v8l-24-8-3-8zm4 4 1 2 20 7v-3l-21-6zm-73-8-9 11-21 6 11-11 19-6zm-17 8-5 4 12-3 3-4-10 3zm217 188 5 9-2 6-5-9 2-6zm0 5v1l2 3-2-4zM240 164h14l1 20h-13l-2-20zm2 2 2 16 8-1-1-15h-9zm8-19 19 5v17l-17-3-2-19zm3 4 1 13 12 2v-13l-13-2zm-75 253 15 1 1 11-14-1-2-11zm3 3 1 6h10l-1-6h-10z"/><path d="m244 181 1 22-8 4-2-22 9-4zm-7 5 2 17 4-2-1-16-5 1zm122 71 8 8 2 12-8-6-2-14zm4 7v5l2 2-1-5-1-2zm-266 6h2l3 11 3 21h-2l-3-11-3-21zm195-158 28 13-4 5-26-11 2-7zm1 3v2l22 10 1-1-23-11z"/><path d="m239 200 1 25-4 11-2-26 5-10zm-2 10v8-8zm112 22 13 8-1 13-12-7v-14zm3 5-1 8 8 4v-8l-7-4zm-86-100 22 7-1 15-21-6v-16zm3 3v12l16 4 1-10-17-6zm157 135-5 17-8 14 4-15 9-16z"/><path d="m236 231 2-1 1 7v21h-2l-1-7v-20zm69-68 22 10-3 14-21-8 2-16zm2 4-1 10 16 6 2-9-17-7zm-41-60 26 10-2 10-24-9v-11zm2 4v5l21 7 1-4-22-8z"/><path d="m237 253 6 13-2 25-6-14 2-24zm2 9-1 15 1 4 2-15-2-4zm47-118 23 8-2 15-22-8 1-15zm2 3-1 10 18 6 2-9-19-7zm119 48 16 16 2 13-16-15-2-14zm3 7 1 6 10 9-1-5-10-10zm13 34 8 14-1 13-8-13 1-14zm2 8v6l3 6 1-5-4-7zm-103-61 20 10-2 13-20-8 2-15zm2 4-1 10 15 6 2-9-16-7z"/><path d="m240 282 6 12-5 23-6-12 5-23zm1 7-3 15 2 6 4-15-3-6zm100-158 32 20 5 3-2 2-24-14-11-11z"/><path d="m321 122 28 15-7 2-26-14 5-3zm0 3 22 12v-1l-22-11zm-78-24 25 7v10l-22-7-3-10zm4 3 1 6 18 5v-5l-19-6z"/><path d="m219 91 25 5 3 8-22-5-6-8zm5 3 2 3 17 4-1-3-18-4zm42 31 24 8-2 14-22-7v-15zm3 3v10l17 6 1-9-18-7zM94 217l3-1 1 12v21h-3l-1-12v-20z"/><path d="m266 115 25 9-2 12-23-9v-12zm2 3v8l19 6 1-6-20-8zM108 322l2-1 7 19 3 10h-2l-7-18-3-10zm261-43 4 10-2 7-4-10 2-7zm0 7 2 4v-1l-2-3z"/><path d="m290 117 27 11-3 9-26-11 2-9zm2 3-1 4 21 10 2-4-22-10zm-43 13 20 5v16l-19-4-1-17zm2 3 2 12 13 3v-11l-15-4zm36-4 25 10-3 13-23-9 1-14zm2 4-1 8 19 8 2-8-20-8zm49 67 17 9-3 13-16-8 2-14zm2 4-2 9 12 6 2-9-12-6zM150 101l-10 16-18 11 12-16 16-11zm-15 13-4 6 7-5 4-5-7 4zm57-28 26 3 8 5-22-2-13-6zm185 71 23 17 7 12-24-18-6-11zm7 7 1 2 14 11v-1l-15-12z"/><path d="m289 123 25 11-3 11-24-10 2-12zm2 4-1 6 20 9 1-6-20-9zm-50 182 4 15-7 21-4-15 7-21zm-4 21 1 6 4-12-1-7-4 13zm8-221 23 7v12l-21-6-2-13zm3 3 2 8 16 5v-7l-18-6z"/><path d="m247 120 22 6v14l-20-5-2-15zm3 3 1 10 15 4v-9l-16-5zm57 29 23 10-3 13-22-9 2-14zm2 3-2 9 18 8 2-9-18-8zm-72-9 16 2 1 18h-14l-3-20zm3 3 2 15h9l-1-14-10-1zm184 127 2 1-2 8-3 7-2-1 2-7 3-8zM318 124l27 14-6 5-25-14 4-5zm1 3-2 2 22 11 1-2-21-11zm40 120 7 9 1 13-7-8-1-14zm3 7v6l2 2v-5l-2-3zm26 55 8 2-11 6-9-3 12-5zm0 2-5 3h2l4-2-1-1zM183 88l15-1 1 2-6 1-17 1-1-3h8z"/><path d="m403 310-13 7-10-1 13-6h10zm-180 66 2 13-12 11-2-13 12-11zm-9 12 1 8 8-7-1-8-8 7zm169-82 8 4-11 5-7-4 10-5zm-5 5 2 2 5-3-2-1-5 2zm-53-139 20 10-3 13-20-9 3-14zm2 3-2 9 15 8 3-9-16-8zm23 46 13 9-2 13-12-8 1-14zm2 5v8l7 5 1-8-8-5zm-14-93 12 4 31 19-13-4-30-19zM224 97l22 4 2 11-20-4-4-11zm4 3 2 6 15 3-1-6-16-3zm82 41 23 12-4 11-22-10 3-13zm1 4-2 8 19 8 2-7-19-9zm-210 33 3-13 2 1-4 19-3 12-2-1 4-18zm103 224 2 11-14 3-2-11 14-3zm-11 5 1 6 9-2-1-6-9 2zm49-244 2 21-9 3-3-22 10-2zm-7 4 2 17 4-2-1-16-5 1zm132 103 3 12-2 9-3-12 2-9z"/><path d="m414 305-19 10-15 4 18-9 16-5zm9-80 8 16v14l-8-15v-15zm2 10v5l4 6v-5l-4-6zM315 127l26 14-5 7-25-12 4-9zm1 4-2 3 21 11 2-3-21-11zm88 54 16 17 4 13-17-16-3-14zm4 8 1 5 10 9-1-4-10-10zm-29 110 6 5-10 5-6-6 10-4zm-6 5 2 2 6-3-3-2-5 3z"/><path d="m312 133 25 13-5 9-23-11 3-11zm2 4-2 6 19 9 3-5-20-10zm-80-7 17 3 2 17-16-1-3-19zm3 3 3 13 10 2-1-13-12-2zm-92 257 14 13 2 10-13-12-3-11zm4 7 1 3 7 6v-2l-8-7zm191-206 17 11-3 12-17-9 3-14zm2 4-2 9 12 7 2-8-12-8zm61 114 4-3 2 2-9 5-5 2-1-2 9-4zm-32-160 25 20 11 13-27-21-9-12zm-143-44 20 5 2 13-18-4-4-14zm3 3 3 9 13 3-1-8-15-4z"/><path d="m134 376 14 17 3 12-14-16-3-13zm5 10 1 2 6 7v-1l-7-8zm285-109 2-9 3 1-2 8-3 8-2-1 2-7zm-49 20 5 7-9 5-6-7 10-5zm-6 6 2 3 6-2-3-4-5 3zM231 117l19 3 1 16-16-3-4-16zm3 3 3 11 12 2-2-11-13-2zm3 62 2 23-4 9-3-25 5-7zm-3 8 2 16 1-1-2-16-1 1zm4 146 2 16-9 19-2-16 9-19zm-7 19 1 8 6-11-1-7-6 10zM186 85l-17 10-15 4-1-2 9-5 24-7zm15 4 22 2 5 9-19-2-8-9zm6 3 4 4 12 1-2-3-14-2zm121 69 21 12-4 11-21-10 4-13zm1 4-2 8 16 8 3-7-17-9zm17-30 26 17-8 1-24-16 6-2zm-1 3 19 12h1l-19-12h-1zM156 401l15 8 1 10-14-9-2-9zm4 5v3l9 5-1-3-8-5zm-57-104h2l3 10 6 19-3 1-3-10-5-20zm-8-53h3l2 12 2 20-2 1-3-12-2-21zm264-12 7 10v13l-7-9v-14zm3 7-1 6 3 3v-5l-2-4zM120 136l-2 2 1-1 1-2v1zm6-13 2 2-7 14-9 11-2-1 8-15 8-11zm286 179 1 2-4 4-9 5-1-2 4-4 9-5z"/><path d="m123 359 15 22 4 15-14-21-5-16zm243-100 2 15-2 10-3-13 3-12zm-132-49h3l1 6 1 21h-2l-1-6-2-21zm137 82 5 7-10 5-4-7 9-5zm-6 6 2 3 6-2-3-4-5 3zm-13-88 13 10-3 13-12-9 2-14zm2 5-1 8 8 5 1-7-8-6zm-23-63 22 13-5 10-21-12 4-11zm1 4-2 6 17 10 3-6-18-10zm-92-10 2 20-10 2-4-21 12-1zm-9 3 3 16 6-1-2-15h-7zm112-13 23 16-6 4-23-15 6-5zm0 3-2 2 19 12 2-1-19-13zm78 75 9 18 2 15-9-17-2-16zm4 13v3l3 5v-3l-3-5zm-25-51 17 19 6 13-18-18-5-14zm6 11 1 2 8 8v-1l-9-9zm-63-6 17 11-4 12-16-10 3-13zm2 4-3 8 13 8 2-8-12-8zm27-32 2-2 4 3 18 15-1 2-5-3-18-15z"/><path d="m237 232 6 12v27l-6-13v-26zm2 10v15l2 3v-15l-2-3zm96-97 22 14-5 8-22-13 5-9zm1 3-3 5 18 11 3-5-18-11z"/><path d="m339 140 22 14-6 6-21-13 5-7zm0 3-2 3 18 11 3-2-19-12zM168 408l14 5 1 9-13-5-2-9zm3 4 1 3 9 3-1-3-9-3zm28-325 10 4-19 2-13-5 22-1zm-10 3h10l-1-1-9 1zm237 178 2-9 2 1-1 9-2 8h-3l2-9zm-3 24-10 12-15 10 9-11 16-11zM208 95l18 2 5 11-16-1-7-12zm4 3 4 6 11 1-2-6-13-1zm29 164 7 12-2 24-7-12 2-24zm2 8-2 15 3 5 2-16-3-4zm126 15 3 9-9 5-4-9 10-5zm-7 6 2 4 5-2-2-5-5 3zM98 187l3 21-4 30-3-21 4-30zm0 19-1 11v2l1-11v-2zm55-109 2 2-8 7-12 8-1-2 9-8 10-7zm62 299 1 11-13 7-1-11 13-7zm-11 8 1 6 9-4-1-6-9 4zm-86-54 2-1 8 17 3 8-3 1-8-17-2-8zm106-219h13l3 18-11 1-5-19zm3 2 4 14h6l-2-14h-8zm134 94 6 11-1 12-7-9 2-14zm1 7v6l2 4 1-6-3-4z"/><path d="m366 248 1 18-3 13-1-17 3-14zM214 104l16 2 5 13h-15l-6-15zm3 3 5 9 9 1-3-9-11-1zm130 64 17 13-5 11-17-12 5-12zm1 4-3 7 13 9 3-6-13-10zm-114-11 3 22-4 7-5-24 6-5zm-3 6 3 17 1-2-2-16-2 1zm132-22 10 3 23 19-10-4-23-18zm-8 52 12 11-3 12-12-10 3-13zm1 5-1 7 8 7 2-7-9-7zm-111 84 4 16-5 24-4-16 5-24zm0 11-3 13 1 5 3-13-1-5z"/><path d="m219 116 15 1 3 16h-12l-6-17zm3 3 4 12h8l-2-12h-10zm10 245 2 14-11 14-2-14 11-14zm-8 15 1 7 7-9-1-7-7 9zm169-213 20 23 4 6-2 1-13-14-9-16zm31 121-6 11-14 10 6-11 14-10zm-12 12 4-2v-1l-4 3zm7-97 9 21 4 18-10-20-3-19zm-52 75 2 10-9 5-3-9 10-6zm-7 7 1 5 6-3-2-5-5 3zM180 413h14l1 9-14-1-1-8zm3 2v4h9v-3l-9-1zm246-165h2l-1 10-2 9-2-1 1-8 2-10zM193 87l-21 7-21 2 24-8 18-1zm187 226 9 2-18 6-9-3 18-5zm0 2-10 3h1l10-3h-1zm-29-152 17 14-5 9-17-12 5-11zm1 4-3 6 13 10 3-5-13-11z"/><path d="m375 310 8 4-17 6-8-5 17-5zm-11 6 2 1 11-3-2-1-11 3zm5-166 20 16-8 1-20-16 8-1zm-2 2 15 12h1l-15-12h-1zM100 282l2-1 3 11 3 20-2 1-3-11-3-20zm10-133h2l-3 12-6 17h-2l3-13 6-16zm275 165h13l-23 7h-11l21-7z"/><path d="m371 306 7 6-17 5-6-6 16-5zm-11 6 2 2 11-3-2-2-11 3zM205 89l8 9-15 1-11-8 18-2zm-11 4 5 3h8l-3-4-10 1zm38 97 2-1 2 14 2 13h-3l-1-6v-6l-2-9v-5zm123-33 18 15-6 7-17-13 5-9zm1 4-3 4 14 11 3-4-14-11zm8-11 20 16-8 3-18-15 6-4zm-2 4 14 12 3-1-15-12-2 1zm2 93h2v10l-1 6-2-1v-8l1-7zm-1-29 6 11-2 12-7-10 3-13zm1 6-1 6 3 5 1-6-3-5zm-6-33 13 12-5 11-12-11 4-12zm1 4-2 7 8 8 3-7-9-8zm30 119 5-1 1 2-15 5-5 1v-2l14-5zm37-33-5 11-13 10 5-11 13-10zm-11 11-1 2 5-3 1-3-5 4z"/><path d="m367 301 6 7-16 5-6-7 16-5zm-12 7 3 2 11-3-3-3-11 4zm-244 24 3-1 6 19 3 8h-2l-7-17-3-9zm249-179 18 15-7 5-18-14 7-6zm0 3-3 3 14 11 3-2-14-12zm34 15 2-2 7 9 10 11-2 1-4-5-5-6-3-3-5-5zM244 318l2 17-8 23-1-18 7-22zm-5 23 1 6 4-12-1-6-4 12zM96 218l5 22-1 30-5-21 1-31zm2 20v13-13zm133-92 4 21-6 5-6-22 8-4zm-5 6 4 15 2-1-3-16-3 2zm139 116 2 11-9 6-2-10 9-7zm-7 8 1 5 5-3v-5l-6 3zm60-73 2-1 6 14 2 7-2 1-6-12-2-9zm-292-80 8-11 2 2-7 10-9 12-2-2 8-11zm258 193 15-5 1 2-5 2-15 5-1-2 5-2z"/><path d="m364 296 5 8-16 4-5-7 16-5zm-12 6 2 4 11-4-2-3-11 3zm77-61h2v9l-4 22v-21l2-10zm-194-31 6 13 3 28-7-14-2-27zm3 12 1 15 1 1-1-14-1-2zM211 95l6 12-12 1-9-11 15-2zm-10 4 5 7 8-1-5-7-8 1zm161 83 13 14-6 9-12-12 5-11zm1 5-3 6 9 8 3-5-9-9zm21-27 12 9 18 22-12-9-18-22zM225 387l1 11-12 11-1-12 12-10zm-10 11 1 6 8-7-1-6-8 7zm-9 12v9l-14 3v-8l14-4zm-12 5 1 4 8-2v-4l-9 2zm234-142-4 12-12 10 3-11 13-11zm-11 12v3l5-4 1-4-6 5zm-6 19-11 9-23 8 11-8 23-9zm-45-96 6 13-4 11-6-11 4-13zm0 7-1 6 3 5 1-5-3-6zm-140-85 5 19-7 4-6-20 8-3zm-5 5 5 14 2-1-3-15-4 2zm143 110 1-7h2l-1 9-1 7h-2l1-9zM172 87l-17 14-11 5-1-2 10-7 19-10zm-25 310 13 12 1 8-13-12-1-8zm3 6 1 1 7 7v-1l-8-7z"/><path d="m361 289 4 9-16 5-3-9 15-5zm-12 7 2 4 11-4-2-4-11 4zm-213 87 14 17 2 9-13-15-3-11zm229-123 1 11-10 7-1-10 10-8zm-7 9v5l5-4v-5l-5 4zm-117-28 7 11v26l-7-12v-25zm2 8v16l3 5v-17l-3-4zm-27-145 7 14-11 3-8-15 12-2zm-8 4 5 10 6-1-4-10-7 1zm-25-20 11 4-13 5-13-4 15-5zm-7 5 5 1 6-2-4-2-7 3zm239 103 2-1 3 7 6 13-3 1-3-7-5-13z"/><path d="m222 116 5 17-8 2-8-17 11-2zm-8 4 6 12 4-1-4-12-6 1zm-56 287 14 9v6l-13-8-1-7zm3 5v1l8 5v-1l-8-5zm206-237 12 14-6 9-12-13 6-10zm0 4-3 5 9 10 3-4-9-11zm-265-8 3 19-6 25-2-19 5-25zm-3 26 1 5 2-12v-5l-3 12zm284-34 9 3 15 18-10-3-14-18zm7 5 9 11-9-11zm39 56 2 17-4 19-1-17 3-19zm-1 19v1l1-3-1 2zm-199-83 5 29 1 6h-3l-4-20 1-15zM126 366l14 22 3 12-13-20-4-14zm286-65-7 8-21 8 8-8 20-8zm-19 10 10-4h1l-11 4zm-287 2 2-1 3 9 5 19-2 1-3-9-5-19zm134 35 2 15-10 18-2-14 10-19zm-7 19 1 6 5-10-1-7-5 11zm126-85 3 9-16 6-2-9 15-6zm-12 7 1 5 11-4-1-5-11 4z"/><path d="m371 170 13 15-7 6-12-14 6-7zm0 4-3 3 10 11 3-3-10-11zm-125 94 5 16-3 27-4-16 2-27zm1 13-1 13 1 4 1-14-1-3zm140-117 13 17h-8l-13-16 8-1zm-3 3 9 12h2l-9-12h-2zM97 249l7 23 2 31-6-21-3-33zm4 23 1 9-1-9zm328-7-2 12-12 11 2-12 12-11zm-10 13-1 3 7-5v-4l-6 6zm-50-78 6 13-4 11-6-12 4-12zm0 6-2 6 4 6 2-5-4-7z"/><path d="m376 166 13 16-7 4-12-14 6-6zm-3 6 10 11 3-2-10-11-3 2z"/><path d="m382 164 13 16-8 3-13-16 8-3zm-4 4 10 12 3-1-10-12-3 1zm-13 70 2-9h2l-1 9-2 8-2-1 1-7zM169 415l14 4v6l-14-4v-6zm3 3v1l9 3v-1l-9-3zm189-104 8 5-23 5-7-4 22-6zm-16 7 2 1 16-4-2-1-16 4zm66-131 2-1 4 6 6 13-3 2-3-6-6-14zm-46 61v12l-10 8v-11l10-9zm-7 10v5l5-4v-6l-5 5z"/><path d="m366 317 9 3-24 6-9-3 24-6zm-16 6h1l15-3v-1l-16 4zm7-13 7 6-22 5-6-5 21-6zm-16 7 2 2 16-4-2-2-16 4z"/><path d="m370 318 13 1-27 7-12-1 26-7zM122 127l-5 20-12 22 5-20 12-22zm-10 23-1 3 4-7 1-3-4 7zm242 156 5 6-21 6-6-7 22-5zm-17 6 2 3 16-4-2-3-16 4zm77-16-5 9-20 7 6-8 19-8zm-17 10-1 1 11-4 1-2-11 5zm-277 52 3-1 7 17 2 5-2 1-8-16-2-6zm238-84 2 10-16 6-2-10 16-6zm-13 8 1 5 11-4-1-5-11 4zm82-65 3 15-3 17-3-14 3-18zm0 13-1 5 1 2 1-5-1-2zM191 90l10 8-10 5-12-8 12-5zm-7 6 7 4 5-3-6-4-6 3zm189 97 6 14-5 9-6-13 5-10zm-2 10 3 8 3-4-4-8-2 4zM216 404v9l-13 7v-9l13-7zm-10 9v3l8-4v-4l-8 5z"/><path d="m375 319 5-1v2l-20 6h-4l-1-2 20-5zM231 186l7 16 5 29-8-15-4-30zm119 114 5 8-21 5-5-8 21-5zm-17 7 2 3 16-4-2-3-16 4zM225 147l6 23-1 11-8-25 3-9zm0 9v2-3 1zM99 201l4 20-3 26-4-19 3-27zm1 15-2 12 1 5 2-12-1-5zm329 41-1 12-12 11 1-11 12-12zm-9 13-1 4 7-6v-5l-6 7zM149 99l-10 17-17 14 12-18 15-13zm-13 15-3 3 4-3 2-3-3 3zm268 65 9 10 8 19-9-9-8-20zM248 297l2 19-6 27-2-20 6-26zm-3 27v4l3-12-1-4-2 12zm125-103h2l-1 9-3 8-2-1 1-8 3-8zM175 91l-10 9-15 2 12-10 13-1zm-12 4-5 4 6-1 4-4-5 1zm204 147-2 12-10 9 1-11 11-10zm-8 11-1 4 5-4v-4l-4 4zM181 419h14l-1 7-14-1 1-6zm2 2v2h9v-1l-9-1z"/><path d="m384 316 1 2-5 2-20 6-1-3 5-1 20-6zm-150 58 1 12-11 15-1-12 11-15zm-9 15 1 5 6-8v-6l-7 9zm192-100-5 10-19 8 5-9 19-9zm-18 11-1 2 12-5 2-3-13 6zm-51-6 3 8-20 6-4-9 21-5zm-18 7 2 4 16-4-2-4-16 4zm48-114 6 15-6 7-6-13 6-9zm-3 9 3 9 3-4-4-9-2 4zm-18 70 1 11-16 6v-10l15-7zm-13 8 1 5 11-4-1-5-11 4zm80-63 4 13-3 16-4-12 3-17zm1 10-1 7 1 2 1-6-1-3zm-25-43 9 6 7 18-9-6-7-18zm5 6 4 10 2 1-4-10-2-1zM199 96l8 11-7 5-11-11 10-5zm-6 6 7 7 4-2-6-8-5 3zm-90 190h2l3 10 3 19-2 1-3-9-3-21zm135-74 8 13 2 27-7-13-3-27zm4 10 1 17 2 3-1-16-2-4zm-22-97 6 20-2 8-9-21 5-7zm-2 7 5 14 1-1-5-14-1 1zM114 341l2-1 7 18 2 6h-3l-6-17-2-6z"/><path d="m383 183 6 14-7 6-6-14 7-6zm-4 7 4 9 3-2-4-10-3 3zm16 121-10 7-27 8 10-7 27-8zm34-62v12l-12 11v-11l12-12zm-9 13v4l7-6v-5l-7 7zm-74 25 3 9-21 5-3-9 21-5zm-18 7 2 4 16-4-2-4-16 4zm49-89-3 18-7 14 3-16 7-16zm19-27 8 2 6 17-8-3-6-16zm4 4 4 11h2l-4-11h-2zm-194-77 8 14-6 6-10-15 8-5zm-4 6 7 10 2-2-6-10-3 2z"/><path d="m213 117 8 17-5 7-9-18 6-6zm-3 6 7 13 1-2-6-13-2 2zm159 111-3 12-11 10 3-12 11-10zm-9 12v3l4-4 1-4-5 5zm28-66 6 15-7 4-6-15 7-4zm-4 5 4 10 3-1-4-11-3 2zm-275-29 2 17-8 22-2-17 8-22zm-6 22 1 7 5-12-1-7-5 12zm315 104-3 11-18 8 3-10 18-9zm-16 11-1 4 12-6 1-4-12 6zm-11-115h8l6 17-8-1-6-16zm4 3 4 11h2l-4-11h-2z"/><path d="m393 178 6 16-7 2-6-15 7-3zm-4 4 4 11 3-1-4-11-3 1zm-31 76v11l-16 6v-10l16-7zm-14 9v5l11-5v-5l-11 5zm-2 52 8 4-27 7-7-5 26-6zm-20 7 2 1 19-5-1-1-20 5z"/><path d="m338 315 7 6-26 6-6-6 25-6zm-20 7 2 2 20-4-2-2-20 4zM99 232l5 20v28l-6-19 1-29zm2 16-1 13 2 3v-12l-1-4zm320-43 5 11-3 16-5-10 3-17zm1 8-1 8 1 3 1-8-1-3zM148 402l13 11-1 4-12-10v-5zm97-72 2 16-7 22-2-16 7-22zm-5 22 1 5 4-11-1-5-4 11zm6-108 5 19v30l-5-19v-30zm2 17v13l1 2v-13l-1-2zm99 61 8 3-27 6-9-3 28-6zm-20 7h1l19-4-1-1-19 5z"/><path d="m138 389 13 15v6l-12-14-1-7zm90-214 2-1 3 7 5 21h-3l-3-7-4-20zm107 135 5 7-25 6-5-7 25-6zm-21 7 2 3 20-4-2-3-20 4zm82-10-7 8-25 7 7-7 25-8zm-23 10-1 1 16-5 1-1-16 5zM206 417l-2 6-13 3 1-6 14-3zm-12 5v1l8-2 1-1-9 2zm151-142 1 9-20 6-2-10 21-5zm-18 7 1 5 16-5-1-4-16 4zM159 412l13 8-2 3-12-7 1-4zm221-211-2 17-7 10 2-15 7-12zm-5 13v4-1l1-5-1 2zm-24 109 11 2-30 7-10-2 29-7zM171 91l12 4-7 8-14-3 9-9zm1 3-5 5 8 1 4-4-7-2z"/><path d="m332 305 4 7-25 6-4-8 25-5zm-21 7 2 3 20-4-2-4-20 5zm-85 83v10l-12 10v-9l12-11zm-10 12v3l7-6v-4l-7 7zm212-166 1 11-11 12-2-11 12-12zm-9 13v5l8-8-1-5-7 8zM128 372l13 21 1 8-11-18-3-11zm2-253-3 16-13 16 4-17 12-15zm-10 16-2 7 7-8 1-6-6 7zm253 90-5 13-12 12 5-13 12-12zm-10 14-1 1 4-3v-2l-3 4zm54-39 6 9-3 16-6-9 3-16zm1 6-1 10 2 2 1-9-2-3zm1 69-2 10-18 9 2-10 18-9zm-16 11-1 4 13-6 1-5-13 7zM157 98l-7 13-15 7 8-14 14-6zm-12 8-4 6 7-3 3-6-6 3zm215 217v3l-24 6h-4v-2l23-6 5-1zm-1-73-1 11-16 7 1-10 16-8zm-14 10v4l10-5 1-5-11 6z"/><path d="m329 299 4 8-25 5-3-8 24-5zm-21 7 2 4 20-5-2-4-20 5zm-199 16 2-1 3 7 4 19h-2l-2-7-5-18zm290-19-6 8-24 7 5-8 25-7zm-23 9-1 2 17-5 1-2-17 5zM170 419l14 4-3 3-13-4 2-3zm174-147 1 10-21 6v-10l20-6zm-18 8v5l16-5v-5l-16 5zm58-83-2 16-7 8 2-15 7-9zm-5 10-1 7 2-2 1-7-2 2zm-275-23 4 18-6 24-4-18 6-24zm-3 24 1 7 3-13-1-7-3 13zm149 65 2 23-3 32-3-23 4-32zm0 23-1 9 1-9zm114 26 1 2-5 2-24 6v-3l4-1 24-6zm48-126 7 7-3 15-6-6 2-16zm2 5-2 10 3 2 1-9-2-3zm12 32 2 11-11 12-3-10 12-13zm-9 13 1 5 8-8-2-5-7 8zm-183-51 8 14 5 28-8-13-5-29zm5 13 2 15 2 2-3-15-1-2zM122 364l3-1 7 16 1 3-2 1-7-15-2-4zm-21-103 6 21 2 30-6-20-2-31z"/><path d="m328 292 2 9-24 5-3-9 25-5zm-22 7 1 4 20-4-1-4-20 4zm-65 59 1 14-9 18-1-13 9-19zm-7 19v5l6-10-1-5-5 10zm-12-221 3-1 5 19 3 7-3 1-6-20-2-6zm167 38-2 16-8 5 2-14 8-7zm-5 8-1 8 2-2 1-8-2 2zm-6 14-8 15-13 14 7-14 14-15zM181 94l11 7-5 8-13-7 7-8zm0 3-4 4 9 5 3-4-8-5zm239 170-1 11-18 9 1-10 18-10zm-16 11-1 5 14-7v-5l-13 7zm3-85 7 5-2 15-7-4 2-16zm2 4-1 11 2 1 2-10-3-2z"/><path d="m361 243-2 10-17 8 3-10 16-8zm-14 10-1 4 10-5 1-5-10 6zm54 44-4 9-24 7 4-8 24-8zm-23 10-1 2 18-5 1-3-18 6zm-33-42v10l-21 6v-10l21-6zm-19 8v4l16-4v-5l-16 5zm-8 49 6 6-29 7-6-6 29-7zm-24 8 2 2 23-6-2-1-23 5z"/><path d="m314 318 5 6-28 7-5-7 28-6zm-24 8 2 2 23-5-2-3-23 6zm104-134-2 15-8 4 2-15 8-4zm-5 6-2 9 3-1 1-9-2 1zM217 410l-3 8-13 6 2-7 14-7zm-12 9v1l7-4 1-1-8 4zm169-102-9 7-31 8 9-7 31-8zm-53 9 8 4-30 7-7-4 29-7zm-22 8h1l22-5-1-1-22 6zm-118 89h16l-6 4-14-1 4-3zm221-231 8 2-3 16-7-3 2-15zm2 3-1 10 2 1 2-10-3-1zm-78 90 2 9-24 5-2-9 24-5zm-21 7v5l20-5-1-4-19 4z"/><path d="m311 312 4 8-28 7-4-8 28-7zm-25 9 2 3 24-6-2-3-24 6zm113-129-2 15-8 1 2-15 8-1zm-5 3-2 10h3l1-10h-2zm29 31 3 10-11 12-3-9 11-13zm-8 13 1 5 8-9-2-5-7 9z"/><path d="M397 192h7l-2 16-7-1 2-15zm2 2-2 11h3l2-10-3-1zm-74 134 9 3-30 7-9-3 30-7zm43-102 8-10 2 2-4 6-8 9-2-2 4-5zm-153-95 9 24 4 17-13-27v-14zm93 176 4 8-28 6-4-8 28-6zm-25 8 2 3 24-5-2-4-24 6zM117 143l2 16-10 18-2-16 10-18zm-7 18 1 8 5-11-1-8-5 11zm134 70h2l3 10 2 22h-2l-3-10-2-22zm-54-131 11 11-3 8-13-11 5-8zm1 3-3 4 9 8 1-4-7-8zm-89 111 4 19-3 25-4-18 3-26zm0 13-1 13 1 6 2-13-2-6zm14 120 2-1 7 18 1 3-2 1-7-16-1-5zm304-88v11l-18 10-1-11 19-10zm-16 12v5l13-7v-6l-13 8z"/><path d="m330 329 12 1-34 8h-13l35-9zM166 98l-4 11-15 2 6-12 13-1zm-11 4-4 6 9-1 3-6-8 1zm209 134-4 10-16 8 3-9 17-9zm-15 10-1 3 10-5 2-3-11 5zm54 44-3 10-24 8 3-10 24-8zm-22 10-2 4 19-6 1-4-18 6zm-5 14-7 7-29 8 7-7 29-8zm-28 10 20-5v-1l-20 6zm-113 58-1 12-11 14 1-11 11-15zm-9 16v2l6-7v-3l-6 8zm23-89 2 19-5 25-2-18 5-26zm-3 26v4l3-12-1-3-2 11zm100-78-2 10-20 6 1-9 21-7zm-19 9-1 4 16-5 1-5-16 6zm-221 36h2l3 8 3 19h-3l-2-7-3-20zm42 105 2-2v1l10 8-1 2-2-1-9-8zm178-130 1 10-25 5-1-9 25-6zm-22 8v4l20-4v-5l-20 5z"/><path d="m139 392 17 20-8-5-9-11v-4zm167-92 3 9-28 6-3-9 28-6zm-25 8 1 4 24-5-1-4-24 5zm139-89 4 9-11 13-4-8 11-14zm-8 14 2 4 7-9-2-4-7 9zM208 120l10 18v11l-12-19 2-10zm1 7v2l6 11v-1l-6-12z"/><path d="m200 108 10 15-2 9-12-15 4-9zm0 5-1 4 8 9v-3l-7-10zm-61-1-2 15-13 11 2-15 13-11zm-10 12-2 8 8-6 1-8-7 6zm247 92 4-4 2 1-8 10-5 5-1-2 8-10zM158 415l1-1 10 5 1 2-1 2-10-7-2-1zm70-244 8 18 9 30-10-17-7-31zm106 159 4-1v2l-25 6-4 1-1-2 26-6zm-203 53 2-1 8 13v5l-10-16v-1zm81 36-11 5-18 4 9-5 20-4zm206-168 2 11-18 10-2-10 18-11zm-15 12v5l14-7-1-6-13 8zm-98 30 2 9-28 7-3-10 29-6zm-26 8 1 5 24-5-1-5-24 5zm137-87 5 7-11 14-5-8 11-13zm-8 13 2 4 8-10-3-3-7 9zm-30 82-5 8-28 8 5-8 28-8zm-27 10-1 2 21-6 1-2-21 6zm17-90-5 10-18 10 5-10 18-10zm-16 12-1 2 10-6 1-2-10 6zm-60 87 6 6-29 7-7-5 30-8zm-25 9 2 2 24-6-2-2-24 6zm137-54-2 10-24 8 2-9 24-9zm-22 11-1 4 19-7v-4l-18 7z"/><path d="m288 324 6 6-30 8-5-7 29-7zm-25 9 2 2 24-6-2-2-24 6zm129-130-14 17-11 8 13-16 12-9zm-66 67v10l-24 5v-9l24-6zm-22 8v4l20-4v-5l-20 5zm44-28-3 10-21 6 2-9 22-7zm-20 9-1 4 16-5 1-4-16 5zM161 417l18 6 11 6-21-6-8-6zm135-85 7 4-30 8-7-4 30-8zm-24 9h1l24-6-2-1-23 7zm-170-97 5 19v27l-6-18 1-28zm2 16v12l1 2v-11l-1-3z"/><path d="m285 318 5 8-30 7-5-8 30-7zm-26 9 2 3 25-6-2-3-25 6zm92-3-12 7-35 9 12-7 35-9zm-102-61h2l1 12v21h-2l-1-12v-21zm-139-94 4 17-8 21-4-17 8-21zm-5 21 2 8 4-12-2-9-4 13zm123 210-5 9-13 12 4-9 14-12zm183-190 6 6-11 13-5-6 10-13zm0 3-7 10 2 3 8-10-3-3z"/><path d="m300 334 8 3-30 8-9-2 31-9zm-22 9 22-6-22 6zm-31-3 1 16-8 22-1-15 8-23zm-6 23 1 3 3-11v-3l-4 11zm-130-34 3-1 1 6 5 17-3 1-1-5-5-18zm284-125-12 15-9 3 11-14 10-4zm-8 6-6 7h1l5-7zM124 368l2-1 7 15v1l-2 1-7-14v-2zm158-56 4 9-29 7-4-9 29-7zm-26 9 2 4 25-6-2-4-25 6zm48-35 1 9-28 7-2-10 29-6zm-26 8 1 5 23-5v-5l-24 5zM164 98l13 3-3 11-15-3 5-11zm1 3-2 6 9 2 2-6-9-2zm252 143 2 10-18 11-2-10 18-11zm-16 12 1 5 14-8-1-5-14 8zm5-50 7 5-11 14-6-5 10-14zm1 4-8 9 3 2 7-9-2-2zm-34 13-7 10-19 11 7-10 19-11zm-17 13 8-5-8 5z"/><path d="m399 204-11 14-8 1 10-14 9-1zm-7 4-7 8h2l6-9-1 1zm-88 128h12l-34 9h-12l34-9zm76-32-4 8-28 8 4-8 28-8zm-26 10-1 2 21-6 1-2-21 6zm47-109 7 3-10 13-7-3 10-13zm1 3-8 9 3 1 7-9-2-1z"/><path d="m396 204 8 1-11 14-8-1 11-14zm1 3-7 9h2l7-9h-2zm7 69-1 10-23 8v-9l24-9zm-21 10-1 5 19-7v-5l-18 7zm-56-23-1 10-25 5 1-9 25-6zm-22 8-1 4 20-4v-5l-19 5zm45-27-3 9-22 7 4-9 21-7zm-20 9-1 3 16-5 1-4-16 6zm20 69-7 7-31 7 8-6 30-8zm-70-16 3 9-29 6-4-9 30-6zm-26 8 1 5 25-6-1-4-25 5zm-30-152 2-1 3 8 7 20-2 1-4-8-6-20zm16 48 2-1 3 10 4 22h-2l-3-10-4-21zm-67 212 15 1 8 4-16-1-7-4zm-69-152 5 21 2 29-5-18-2-32zm200 9v9l-28 6-1-9 29-6zm-26 8v4l24-5-1-4-23 5z"/><path d="m308 336 4-1 1 2-26 7-4 1-1-2 26-7zM126 132l2 15-11 15-2-16 11-14zm-9 15 2 9 7-9-1-9-8 9zm297 90 3 9-18 11-3-9 18-11zm-15 12 2 5 13-9-1-4-14 8zM147 401l11 10 3 7-13-11-1-6zm63 16 3-1 1 2-10 5-3 1-1-2 10-5zm55-82 6 6-28 8-7-6 29-8zm-24 9 3 2 22-6-2-2-23 6z"/><path d="m261 330 6 7-29 8-6-7 29-8zm-24 10 2 2 24-6-3-3-23 7zm-98 51 11 12 1 8-12-15v-5zm243-175-13 12-24 14 13-12 24-14zM150 108l-1 14-14 6 2-14 13-6zm-11 8-1 8 9-4 1-8-9 4zm130 223 7 4-28 9-8-5 29-8zm-23 9 2 1 22-7-1-1-23 7zm-3 18-2 14-10 19 1-13 11-20zm-8 20v1l4-8v-1l-4 8zM106 197l5 18-6 23-4-17 5-24zm0 10-3 14 2 7 3-13-2-8zm12 145 2-1 1 3 6 15-3 1v-2l-6-16zm161-53 2 9-30 6-2-9 30-6zm-27 8 1 5 25-6-1-4-25 5z"/><path d="m258 325 5 7-29 8-5-8 29-7zm-25 9 2 3 24-6-2-3-24 6zm-78 75 12 7 4 7-14-8-2-6zm226-111-2 9-28 7 3-9 27-7zm-25 9-1 4 22-6 1-4-22 6zm48-39v11l-24 8v-10l24-9zm-21 11v5l18-7v-5l-18 7zM175 100l13 7-2 11-14-7 3-11zm1 3-1 7 9 4 1-6-9-5zm176 215-6 8-29 7 6-7 29-8zm-28 10-1 1 22-5 1-2-22 6z"/><path d="m251 285 2 22-3 32-2-23 3-31zm22 56 9 3-29 9-9-3 29-9zm-21 9 1 1 21-7h-1l-21 6zm102-112-5 8-22 8 5-8 22-8zm-21 10-1 2 15-5 2-3-16 6zm-4 8-2 10-25 5 2-9 25-6zm-23 8-1 4 20-4 1-4-20 4zM133 380l8 14v6l-10-16 2-4zm193-50-13 7-36 10 13-7 36-10z"/><path d="m255 319 4 8-29 7-4-9 29-6zm-25 8 2 4 24-6-2-4-24 6zm181-96 4 8-18 11-4-8 18-11zm-15 12 2 4 14-8-2-5-14 9zm-181-98 3-1 8 18 3 7-2 1-9-17-3-8zm152 82-3 3-5 2-1-2 8-5 11-7 1 2-4 3-7 4zm-63 45v9l-29 6 1-9 28-6zm-26 8v4l23-5 1-4-24 5zm-170 30h3l1 6 3 18-2 1-2-6-3-19zm56 105 12 4 5 7-14-5-3-6zm5 4 6 2-6-2zm109-76h11l-32 10h-11l32-10zm0-51 1 9-30 6-1-10 30-5zm-27 7v5l25-5v-5l-25 5zm-53 122 7 2-14 4-7-3 14-3z"/><path d="m253 312 3 9-29 7-3-10 29-6zm-26 8 2 5 24-6-2-5-24 6zm180-94 5 7-18 11-5-7 18-11zm-14 12 2 3 13-9-2-3-13 9zM186 105l13 11v11l-15-10 2-12zm1 5v5l9 8v-5l-9-8zm52 273-7 15-15 20 6-14 16-21zm153-170-24 15-13 5 22-15 15-5zm11 48 1 10-24 9-1-10 24-9zm-21 11v5l19-8v-5l-19 8zm-255 96 7 14-2 4-8-17 3-1zm255-77-1 9-28 8 2-9 27-8zm-25 10-1 4 23-7v-4l-22 7zm-118 41 7 6-27 9-6-6 26-9zm-22 10 3 2 21-7-3-2-21 7z"/><path d="m235 337 6 7-27 9-6-7 27-9zm-22 10 2 3 22-7-3-3-21 7zM105 226l4 18-3 25-4-17 3-26zm1 13-2 13 2 5 1-13-1-5zm252-6-6 8-23 8 6-8 23-8zm-22 10v1l14-5 1-1-15 5zM205 124l13 20 4 15-15-21-2-14zm4 11 1 2 6 9v-1l-7-10zm145 179-4 7-29 7 4-8 29-6zm-27 8-1 3 22-6 1-2-22 5zm-80-81h2l1 12 2 22h-2l-1-12-2-22zm-4 105 8 5-26 9-8-4 26-10zm-20 10 2 1 20-7-2-1-20 7zm102-28-8 7-31 8 8-6 31-9zm6-78-3 9-25 6 3-9 25-6zm-23 8-1 4 19-5 2-3-20 4z"/><path d="m196 114 12 15 2 12-14-16v-11zm2 6v4l9 9-1-3-8-10zm84 223 4-1 1 2-25 8-4 1-1-2 25-8zm-51-12 5 8-26 9-6-9 27-8zm-23 10 3 4 22-7-3-4-22 7zm194-120 6 6-17 12-6-6 17-12zm-13 12 2 3 13-9-2-3-13 9zm-271-78 4 17-10 17-3-16 9-18zm-7 18 2 9 6-11-2-9-6 11zm281 42-19 13-10 1 19-13 10-1zm-158-26h2l6 21 3 9-2 1-6-21-3-10zM113 335l2-1 2 4 4 16-2 1-1-3-5-17zm35 62 10 9 1 8-12-10 1-7zm2 5v1l6 6v-2l-6-5zm98-53 8 3-26 10-9-3 27-10zm0 3-20 7h2l19-7h-1zm58-87-2 9-29 6 2-9 29-6zm-27 8-1 4 24-5 1-4-24 5z"/><path d="M251 318v20l-5 27-1-19 6-28zm-4 28 2-9-2 9zm-106 42 9 11-1 8-10-13 2-6zm1 5v1l5 7 1-1-6-7zm136-109v10l-30 6v-10l30-6zm-28 8v5l25-5v-5l-25 5zm1 12 2 10-29 6-2-10 29-6zm-26 8 1 6 25-6-2-5-24 5zm173-94 6 5-17 12-7-5 18-12zm-14 12 3 2 13-9-3-2-13 9zm3-14 9 1-18 12-8-2 17-11zm1 2-12 8h1l12-8h-1zM173 418l13 1 4 6h-13l-4-7zm5 3 1 1 6 1-1-2h-6z"/><path d="m392 216 8 3-18 12-7-3 17-12zm1 3-13 8 2 1 13-8-2-1zM228 325l5 9-27 7-5-9 27-7zm-23 9 2 4 22-6-2-4-22 6zm-49 70 11 7 1 8-12-7v-8zm2 4v3l7 4-1-3-6-4zm4-301v13l-15 2 1-13 14-2zm-12 4-1 9 10-2 1-8-10 1zm82 291-18 16-12 6 16-14 14-8zm169-148 2 9-24 10-2-10 24-9zm-21 11 1 4 19-7-1-5-19 8zm-16-37-9 8-25 9 9-7 25-10zM134 377l9 13-2 7-10-14 3-6zm1 5h-1l6 9v-1l-5-8zm248-98-1 10-28 7 1-9 28-8zm-26 10v4l23-6v-5l-23 7zm-105 57h11l-28 11-11-1 28-10zm-147-97 5 18-1 27-5-17 1-28zm2 17v12-12zm183 69 1 2-4 2-25 8-1-2 5-3 24-7zm-75 10 7 6-23 10-7-6 23-10zm-19 10 4 3 17-8-2-2-19 7zm160-52-3 9-29 6 3-8 29-7zm-27 9-1 3 23-5 1-4-23 6zm-3 8-5 7-30 8 6-8 29-7zm-27 9-1 2 21-6 1-1-21 5z"/><path d="m211 345 6 7-23 9-7-7 24-9zm-20 10 4 4 18-8-3-3-19 7zm-73-3 4 2 6 16-3 1-7-19zm217-107-5 8-25 6 4-8 26-6zm-24 8-2 3 20-5 1-3-19 5zM137 124l2 15-13 10-2-15 13-10zm-10 11 1 10 9-7-2-9-8 6zm93 219 7 5-22 10-8-5 23-10zm-18 11 3 1 17-7-2-2-18 8zm24-47 3 9-27 7-3-10 27-6zm-24 8 2 5 22-6-2-5-22 6zm-38 84 11 3 2 9-12-4-1-8zm3 3v3l7 2-1-3-6-2z"/><path d="m207 338 5 9-23 9-6-9 24-9zm-20 10 3 5 19-7-3-5-19 7zm63-51 2 10-30 6-1-11 29-5zm-26 7v6l25-5-1-5-24 4zm-18 112 8 2-13 7-7-3 12-6zm1 2-7 4h1l6-3v-1zm71-141v10l-30 5v-10l30-5zm-28 7v5l25-4v-5l-25 4zm58-25-3 8-29 6 3-9 29-5zm-27 7-1 4 23-5 1-3-23 4zm117-19 3 9-23 9-3-8 23-10zm-20 11 1 4 19-7-1-5-19 8zm-153 99 8 3-22 11-9-3 23-11zm0 3-17 8h2l17-7-2-1zm138-133 1 3-5 2-19 8-1-2 4-3 20-8zM249 344l-2 20-10 26 3-18 9-28z"/><path d="M262 350v2l-22 9-5 1-1-2 23-9 5-1zm-111 41 9 8-2 9-11-9 4-8zm1 4-2 4 6 5 1-4-5-5zm-23-30 7 14-3 6-8-16 4-4zm-1 4 5 11v-1l-5-10zm-21-78h2l2 7 2 30-5-18-1-19z"/><path d="m144 382 9 11-4 9-9-12 4-8zm0 5-1 3 5 7 2-4-6-6zm-31-205 4 17-8 20-4-17 8-20zm-5 20 2 9 4-12-2-9-4 12zm96 129 4 10-24 8-4-10 24-8zm-21 9 3 6 19-7-3-5-19 6zm11 19 8 6-19 10-8-7 19-9zm-14 10 3 3 14-8-3-3-14 8zm119-34-8 7-30 9 9-7 29-9z"/><path d="m190 353 6 7-19 10-7-8 20-9zm-16 10 4 4 14-7-3-4-15 7zm76-88h2l1 11v21l-2 1-1-12v-21zm-92 123 10 5-2 10-10-6 2-9zm2 3-2 5 7 3v-4l-5-4zm222-124 1 9-28 8v-9l27-8zm-25 9 1 5 22-6v-5l-23 6zM194 417l6 6-13 2-4-5 11-3zm-7 4 1 2 7-2-2-1-6 1zm37-111 3 10-28 6-2-10 27-6zm-24 7 1 6 23-5-2-5-22 4zm27-147 2-1 7 20 3 10h-2l-8-19-2-10zm-27 193 7 5-18 11-8-5 19-11zm-14 11 3 2 14-8-3-2-14 8zm153-134-6 8-26 6 5-7 27-7zm-25 9-1 1 19-4 1-2-19 5zm14 71-4 8-28 7 4-8 28-7zm-27 9-1 2 23-5 1-3-23 6zm56-27-2 9-28 6 2-9 28-6zm-26 8-1 4 23-5 1-4-23 5zm-193 63 8 11-5 9-8-14 5-6zm-2 6 5 9 2-3-5-8-2 2zm93-20 11 1-24 11-11-1 24-11zm1 3-15 6h1l14-6zm165-121 4 8-23 10-4-8 23-10zm-20 11 2 4 19-8-2-4-19 8z"/><path d="m185 346 6 9-19 9-6-10 19-8zm-16 9 4 6 15-7-3-5-16 6zm194-128 5-1v2l-19 8-5 1-1-2 20-8zm-253 90 2-1 2 5 5 28-6-14-3-18zm63 96h11l3 9-12-1-2-8zm3 2 1 4h6l-1-3-6-1zm74-126 1 10-30 6v-11l29-5zm-27 7v6l25-5v-5l-25 4zm-63-189 14 2v13l-15-2 1-13zm2 3v8l10 2v-9l-10-1zm-6 274 9 7-6 10-9-8 6-9zm0 3-3 6 5 5 4-6-6-5zm22-20 7 7-14 10-8-7 15-10zm-11 10 4 4 10-7-4-4-10 7z"/><path d="m150 376 8 9-7 10-8-10 7-9zm0 4-4 5 5 6 4-5-5-6zm51-57 4 11-25 7-3-11 24-7zm-21 9 2 6 19-6-1-6-20 6zm-8 29 7 8-14 10-8-9 15-9zm-11 10 4 5 11-8-4-4-11 7zm44-5 8 3-18 11-9-3 19-11zm0 3-13 8 3 1 13-8-3-1zm-39 33 10 4-1 10-11-4 1-10zm1 4v4l6 2v-5l-6-1zm76-186h2l4 21 1 12h-2l-4-21-1-12zm23 127 1 3-4 2-23 9-1-3 5-2 22-9zm-34 46 7-14 2 1-3 5-6 13-3-1 3-4zm47-123-1 10-30 5 1-10 30-5zm-28 7v5l25-5v-4l-25 4zm59-24-3 8-29 6 3-8 29-6zm-27 8-1 3 23-5 1-3-23 5z"/><path d="m165 376 8 7-10 10-9-8 11-9zm0 3-7 6 5 5 6-7-4-4z"/><path d="m183 372 8 5-13 11-9-5 14-11zm0 3-10 8 4 2 10-8-4-2zm-20 15 9 5-5 11-10-6 6-10zm1 3-4 6 6 3 3-6-5-3zm-51-59 5 5 5 18-4-2-6-21zm278-98 5 7-23 10-5-8 23-9zm-19 10 2 4 19-8-3-3-18 7zM159 369l7 8-10 10-8-9 11-9zm-8 9 5 6 7-7-4-5-8 6zm229-153-27 11-12 1 27-11 12-1zM182 338l5 10-20 8-5-11 20-7zm-17 9 3 6 15-6-2-6-16 6z"/><path d="m168 353 6 10-15 9-7-11 16-8zm-13 9 4 7 11-7-3-6-12 6zm-11 5 7 11-7 9-8-13 8-7zm-5 8 5 7 4-4-4-7-5 4zm-15-23 6 15-4 5-6-18 4-2zm-1 3 4 12-4-12zm48 26 8 5-8 11-10-5 10-11zm0 3-6 7 5 3 6-7-5-3zm210-115 2 10-28 8-1-10 27-8zm-24 10v5l23-7-1-5-22 7z"/><path d="m133 361 6 14-5 7-7-15 6-6zm-3 6 5 10 1-2-4-10-2 2zm171-36-6 8-28 8 6-8 28-8zm-26 10-2 2 21-6 1-2-21 6zm-25 15-28 14-16 3 29-14 15-3zM110 210l4 17-6 22-4-16 6-23zm0 10-4 13 2 6 3-12-1-7zm113 82 2 10-28 6-1-11 27-5zm-25 7 1 6 23-5-1-5-23 4zm146-73-8 7-28 7 8-7 28-7zm-11 6 2-1-2 1zm54-10 6 6-23 9-6-6 23-9zm-19 10 2 3 19-8-3-3-18 8zM154 360l7 10-11 10-8-12 12-8zm-8 9 4 7 7-6-4-6-7 5zm227-143 9 1-24 10-9-2 24-10zm0 2-16 7 16-7zM189 376l9 3-13 11-10-3 14-11zm0 2-9 8 4 1 9-7-4-2z"/><path d="m210 368 10 1-18 12-11-1 19-12zm1 3-12 7h2l11-7h-1zm25 22-13 17-8 4 11-15 10-6zM128 144l3 16-11 14-4-16 12-14zm-9 15 2 10 7-9-1-10-8 9zm239 136-2 9-28 7 2-10 28-6zm-26 8-1 5 23-6 1-4-23 5zm-162 91 9 3-4 11-10-3 5-11zm1 3-3 6 6 2 2-6-5-2zm211-169 7 5-23 10-6-5 22-10zm-18 11 2 1 18-7-2-2-18 8zm-34 75-3 8-28 8 3-9 28-7zm-26 9-1 3 22-6 1-3-22 6z"/><path d="m378 226 7 4-23 10-7-4 23-10zm-18 10 2 1 17-7-1-1-18 7zm-161 79 3 11-25 6-3-11 25-6zm-22 8 2 6 20-5-2-6-20 5zm0 62 9 3-8 12-10-4 9-11zm1 3-6 7 5 2 5-8-4-1zm-14-44 5 11-16 9-5-12 16-8zm-13 9 3 7 12-6-3-6-12 5zm65-208 13 24 4 19-14-25-3-18zm5 15 1 2 5 10v-2l-6-10zm30 122-1 10-30 5 1-11 30-4zm-28 6v6l25-4v-5l-25 3zm-50 117 11 1v10l-11-1v-10zm3 3-1 5h7l-1-5h-5z"/><path d="m179 329 4 11-21 8-4-12 21-7zm-18 8 3 7 16-5-3-7-16 5zm90-30h2l1 11-2 19h-3v-10l2-20zm-112 50 6 12-8 8-6-14 8-6zm-5 7 4 9 5-5-4-8-5 4zm80 45 8 1-11 9-7-1 10-9zm1 2-6 6h1l6-6h-1zm-66-292 2 15-14 6-2-14 14-7zm-11 8 1 10 9-5-1-9-9 4zm138 215-9 8-28 10 9-8 28-10zM172 108l15 7v13l-15-6v-14zm2 4v8l11 5-1-8-10-5zm18 299 4 8-12 3-3-8 11-3zm-8 4 2 4 6-2-1-3-7 1zm130-167-5 8-29 5 4-7 30-6zm-28 8-1 2 23-4 1-2-23 4z"/><path d="m150 351 5 11-11 8-7-12 13-7zm-9 8 3 8 8-5-3-8-8 5zm62 53 6 5-12 6-5-5 11-6zm-7 7 2 1 6-3-2-2-6 4zm85-155-2 9-30 5 2-10 30-4zm-28 7-1 4 25-4 1-4-25 4zm127-9 2 10-28 8-2-10 28-8zm-25 10 1 5 23-7-1-5-23 7zm-247-35 4 17-3 25-4-16 3-26zm1 14-2 12 1 3 2-11-1-4zm86 127h9l-13 12h-10l14-12zm1 2-9 8h4l7-8h-2zm156-147-12 7-32 8 12-7 32-8zM226 365l18-9 1 2-5 2-18 10-1-3 5-2zm-97-16 5 15-6 5-6-16 7-4zm-4 5 4 11 2-2-4-10-2 1z"/><path d="m227 366-19 13-13 3 20-13 12-3zm-4-72v10l-27 5-1-11 28-4zm-25 6v6l23-4v-5l-23 3zm-21 97h9l-3 11h-10l4-11zm1 2-2 7h6l1-6-5-1zm125-73-4 8-27 8 4-8 27-8zm-25 10-2 3 21-7 1-2-20 6z"/><path d="m184 387 9 1-7 12-11-1 9-12zm1 3-5 7h4l5-7h-4zm-24-55 4 12-17 7-4-13 17-6zm-14 8 3 8 12-5-3-8-12 5zm60-211 13 20 3 15-14-19-2-16zm3 10 1 5 8 10-1-4-8-11zm148 146-1 9-28 7 1-10 28-6zm-26 8v5l23-6v-4l-23 5zm-216 42h5l4 16-4 3-5-19zm3 3 3 12-3-12zm-11-78 4 17-1 27-4-16 1-28zm76-150 14 11 2 14-15-11-1-14zm3 6v7l10 7-1-7-9-7zm144 189-2 9-28 6 2-9 28-7zm-26 8-1 4 23-5 1-4-23 5zm-107-10 1 11-24 6-2-12 25-5zm-22 7 1 7 20-4-1-7-20 4z"/><path d="m177 320 3 12-21 6-3-12 21-6zm-18 7 2 8 16-5-2-7-16 4zm218-71 3 9-27 8-3-9 27-8zm-24 9 1 5 23-7-1-4-23 6zm-242 51 5 7 3 20-5-5-3-22zm25 29 4 14-8 6-6-15 10-5zm-7 7 4 9 5-3-4-9-5 3z"/><path d="m108 287 5 17 2 26-5-13-2-30zm88-165 14 15 2 14-15-15-1-14zm3 7 1 6 8 9-1-6-8-9zm-53 212 5 12-13 7-5-14 13-6zm-10 7 4 9 8-5-3-8-9 4zm198-108-9 2-4 1-1-2 13-3 15-4 1 2-5 1-10 3zm-82 35-2 9-29 5 1-10 30-4zm-28 6v5l24-4 1-5-25 4zm94-37-6 7-30 6 6-7 30-6zm-29 8-1 1 23-4v-1l-22 4zm-12 86-6 8-26 10 7-9 25-9zm-24 11-1 2 18-7v-1l-17 6z"/><path d="m245 355 4-18 3 1-2 8-3 18-3-1 1-8zm-54 49 1 10-10 2-1-10 10-2zm-7 4v5l6-1-1-5-5 1zm27-32-13 13-11 2 14-13 10-2zm-9 4-7 7 2-1 6-6h-1zm46-127h2l1 12 2 21-2 1-1-12-2-22zm-11-54h2l6 21 1 12h-2l-6-21-1-12z"/><path d="m284 258-4 8-30 5 4-8 30-5zm-29 7-1 3 25-4 1-3-25 4zm-134-97 3 17-9 17-4-16 10-18zm-7 18 2 9 6-10-2-10-6 11zm142 162-11 10-26 13 12-10 25-13zm118-98 4 8-27 8-4-8 27-8zm-24 9 2 4 23-6-2-4-23 6z"/><path d="m226 365 1 2-14 9-5 3-2-2 15-10 5-2zm122-131h14l-33 9-13-1 32-8zM200 386l-7 12-11 2 8-12 10-2zm-8 4-5 7 4-1 4-7-3 1z"/><path d="m194 395-3 11-10 3 3-12 10-2zm-8 4-2 6 5-1 1-6-4 1zm37-113v10l-28 5 1-11 27-4zm-25 6v6l23-4v-5l-23 3zm159-12 1 10-28 6-1-10 28-6zm-26 8 1 5 23-5v-5l-24 5zm-173 37 3 13-16 6-4-14 17-5zm-14 7 2 9 12-5-2-8-12 4zm161-12-3 9-27 8 3-10 27-7zm-25 9-1 4 21-6 1-3-21 5zm-81 78 5 7-11 6-3-8 9-5zm-6 6 1 4 7-4-2-3-6 3zm-68-77 4 16-6 4-5-17 7-3zm-4 4 3 12 2-1-2-11h-3zm211-39-1 9-28 7 1-10 28-6zm-26 8v5l23-6v-4l-23 5zm-64 60 2-6 3 1-6 16-3 5-2-1 6-15zm129-125 4 8-27 8-4-8 27-8zm-24 10 2 3 23-6-2-4-23 7z"/><path d="m197 298 1 11-25 5v-12l24-4zm-22 6 1 7 20-4-1-6-20 3zm178-70 9 2-29 8-8-3 28-7zm-14 6-6 1 6-1z"/><path d="m175 311 2 12-21 5-2-12 21-5zm-18 6 1 8 17-4-2-7-16 3zm167-76-9 6-32 6 9-6 32-6zM162 118l1 15-14 2-2-15 15-2zm-13 4 2 10 10-1-2-10-10 1zm61 284 7 4-11 9-5-5 9-8zm0 3-6 5 2 2 7-6-3-1zm-66-79 3 13-13 6-3-15 13-4zm-11 6 3 9 8-4-2-8-9 3z"/><path d="m133 333 3 15-9 5-4-16 10-4zm-7 6 3 10 5-3-3-9-5 2zm241-99 5 7-27 7-5-6 27-8zm-23 9 2 3 22-7-2-2-22 6zm-90 19-3 9-29 4 2-9 30-4zm-28 6-1 4 24-3 2-4-25 3zm131-39 8 4-27 7-8-4 27-7zm-21 8 2 1 20-6-1-1-21 6zm-95 138-10 18-7 5 8-17 9-6z"/><path d="m362 237 7 5-28 8-6-6 27-7zm-22 9 2 1 22-6-2-1-22 6zm-61 87-4 8-25 9 5-9 24-8zm-22 10-2 3 18-7 1-2-18 6zm-36 56h8l-9 13-7-1 8-12zm2 2-6 8h2l5-8h-1zm-84-265 3 16-13 10-3-15 13-11zm-11 12 2 10 9-7-2-10-9 7zm91 222-15 15-13 7 15-15 13-7zm68-117-4 8-31 4 5-7 30-5zm-29 7-1 2 24-3 2-3-25 4zm-142-66 4 17-8 20-4-16 8-21zm-5 21 2 8 4-12-2-8-4 12zm2 107 6 2 2 17h-5l-3-19zm3 4 2 12-2-12zm240-53 1 10-28 6-1-10 28-6zm-26 8 1 5 23-5v-5l-24 5zM198 400l2 9-10 6-1-10 9-5zm-6 6v5l6-3-1-5-5 3z"/><path d="m256 345-6 9-23 11 7-10 22-10zm-20 12-1 2 13-7 1-1-13 6z"/><path d="m231 361 1 2-5 4-13 9-2-2 5-4 14-9zm91-121 1 3-4 1-26 5-1-2 4-2 26-5zm-97 38-2 10-28 4 2-11 28-3zm-26 6-1 5 23-3 1-5-23 3zm107 29-2 10-27 7 3-10 26-7zm-24 9-1 5 21-6 1-4-21 5zm-76 59-7 13-10 6 8-13 9-6zm-8 7-3 6 3-2 3-5-3 1zm-41-73 2 12-17 6-3-14 18-4zm-15 6 2 9 12-4-1-8-13 3zm109-35h2l1 11v21h-3v-32zm81 7v10l-28 6v-10l28-6zm-25 8v5l23-5v-5l-23 5z"/><path d="m200 391-2 11-10 6 3-12 9-5zm-7 7-1 5 4-2 1-6-4 3zm-83-100 5 9 1 21-4-7-2-23zm118-127 11 28 2 21-11-28-2-21zm4 17v4l5 11-1-4-4-11zm-119 33 3 17-5 22-4-16 6-23zm-3 23 1 5 2-11-1-6-2 12zm88 45v11l-25 4v-11l25-4zm-23 6v6l20-3v-6l-20 3z"/><path d="m175 301 1 12-21 5-1-13 21-4zm-19 6 1 8 16-4v-7l-17 3zm198-41 2 10-28 5-3-9 29-6zm-26 8 2 5 23-5-1-5-24 5zm-205 49 3 16-7 2-3-17 7-1zm-4 3 2 12 2-1-2-11h-2zm137-64-3 9-30 3 4-9 29-3zm-28 6-1 3 24-3 2-3-25 3zm63-18-5 6-31 4 6-6 30-4zm-29 6-1 1 23-3 1-1-23 3zm-153 16 4 15v25l-4-14v-26z"/><path d="m110 247 4 16-3 24-4-15 3-25zm1 15-1 10v2l1-10v-2zm31 56 2 14-13 5-3-15 14-4zm-11 5 2 10 8-3-1-9-9 2zm191-83h5v2l-26 5-4 1-1-3 26-5zM206 400l6 7-10 9-5-8 9-8zm-5 9 2 3 5-5-2-3-5 5zm80-83-3 10-24 8 3-10 24-8zm-22 10-1 4 18-6 1-4-18 6z"/><path d="m131 321 2 15-9 4-3-17 10-2zm-7 4 1 11 5-2-1-10-5 1zm88 49 5-4 2 1-9 9-6 5-1-2 9-9zm-53-256 15 2 2 15-15-2-2-15zm3 3 1 9 10 2-1-10-10-1zm82 111h2l4 21 1 12h-2l-4-21-1-12zm107 28 3 9-28 5-3-8 28-6zm-25 8 2 4 23-5-2-4-23 5zm5 18 1 10-28 6-1-11 28-5zm-25 7v6l24-5-1-5-23 4zm-48 47-4 9-21 10 5-10 20-9zm-19 11-1 3 14-7 1-3-14 7z"/><path d="m240 352-8 10-20 13 9-11 19-12zm-17 13h1-1zm84-59-2 10-26 7 1-11 27-6zm-24 8-1 6 21-6 1-5-21 5zm44-74 11 2-33 6-11-2 33-6zm-100 31-3 10-28 3 3-10 28-3zm-26 5-2 5 23-2 1-5-22 2zm49 51 1-9h3l-2 20-2 8h-2l2-19zM130 157l4 17-11 13-4-16 11-14zm-8 15 2 10 7-9-2-10-7 9zm34 133 1 12-17 4-1-14 17-2zm-15 4 1 9 12-3v-8l-13 2z"/><path d="m213 374-7 15-12 10 9-15 10-10zm-9 11-1 3 1-1 1-2h-1zm12 12 8 3-9 12-7-5 8-10zm1 2-5 8 2 1 6-7-3-2zm131-145 4 8-28 6-5-8 29-6zm-25 8 2 3 23-4-2-4-23 5zm-26-15-8 5-32 4 8-5 32-4zm-92 147 3 9-10 8-2-10 9-7zm-6 8 1 4 5-4-2-4-4 4zm20-246 12 23 2 19-12-23-2-19zm4 12v6l6 12v-6l-6-12zM112 305l6 4 1 18-5-2-2-20zm3 5 1 13-1-12v-1zm216-69 9 3-31 6-8-4 30-5zm-22 6h1l22-4h-1l-22 4zm-49 10-5 8-30 3 5-8 30-3zm-28 5-2 3 24-2 1-3-23 2zm-33 19-1 11-25 3 1-11 25-3zm-22 5-1 6 20-2 1-6-20 2z"/><path d="m206 385-1 11-9 9 1-12 9-8zm-6 9-1 4 4-3v-4l-3 3zm-25-102v12l-21 3v-12l21-3zm-18 5-1 8 17-3v-7l-16 2zm187-48 5 8-28 5-5-7 28-6zm-24 8 2 3 23-5-2-3-23 5zm16-15 7 5-29 6-7-5 29-6zm-23 7 1 1 23-4-2-1-22 4zM150 131l3 16-14 6-3-15 14-7zm-11 8 2 11 9-4-1-11-10 4z"/><path d="m340 245 6 6-29 6-6-6 29-6zm-24 7 2 3 23-5-2-2-23 4zm-68 93 2 1-4 18-7 16 6-28 3-7zm82-66 2 9-28 6-2-10 28-5zm-25 7 1 5 23-4-1-5-23 4zm-23 33-2 10-24 8 3-11 23-7zm-21 9-1 5 18-6 1-4-18 5zm-26 58-7 15h-8l7-14 8-1zm-6 4-5 9h2l5-10-2 1zm-57-271 15 7 2 15-16-7-1-15zm3 4 1 10 10 4-1-10-10-4zm-34 184 1 14-13 3-1-15 13-2zm-11 4 1 10 9-2-1-9-9 1z"/><path d="m245 366-7 20-7 5 6-18 8-7zm-6 8-3 11v-1l4-11-1 1zm-18-10 2 1-4 6-9 9-2-1 5-7 8-8zm86-65v10l-27 6v-11l27-5zm-24 7v6l21-5v-5l-21 4zm-168 3 7 1 2 15-8 1-1-17zm3 2 1 13 2-1-1-11-2-1zm188-67-13 5-37 5 13-5 37-5zm-98-101 14 19 2 17-14-19-2-17zm4 9 1 7 7 11v-7l-8-11z"/><path d="m130 309 1 15-10 2-1-16 10-1zm-7 3v11l6-1-1-11-5 1zm-12-31 4 11v21l-5-9 1-23zm149 52-3 10-21 9 4-11 20-8zm-18 10-2 4 15-6 1-4-14 6zm-12-78-4 9-28 2 4-9 28-2zm-26 4-2 5 22-2 2-4-22 1zm-80-88 3 17-9 16-4-16 10-17zm-7 18 2 9 5-11-1-9-6 11z"/><path d="m242 346-6 11-17 11 6-12 17-10zm-15 12-2 3 9-6 1-2-8 5zm-43-234 15 11 2 15-15-10-2-16zm3 5 1 9 10 7-1-9-10-7zm77 124-6 7-30 3 6-7 30-3zm-29 5-1 2 23-3 1-1-23 2zm93 14 2 9-28 5-2-9 28-5zm-25 6 1 5 23-4-1-5-23 4zm-91 114 6 6-8 11-5-7 7-10zm1 4-5 6 2 3 5-7-2-2z"/><path d="m197 132 14 15 2 16-14-15-2-16zm3 7 1 8 9 9-1-8-9-9zm49 126h2l2 21 1 11h-3l-2-21v-11zm-92 29-1 13-17 3v-14l18-2zm-15 4-1 9 13-2v-8l-12 1zm154-53h5v2l-27 4h-4l-1-2 27-4zm-95 29-2 10-25 2 3-11 24-1zm-22 4-2 5 20-2 1-5-19 2zm34 94 2 1-4 8-5 8-2-2 4-8 5-7zm25-161h2l6 21 1 12h-2l-6-20-1-13zm-126 45 3 15-3 23-3-13 3-25zm1 15-1 10 1-10z"/><path d="m177 283-2 12-21 2 1-12 22-2zm-19 4-1 7 16-2 1-6-16 1zm-39-80 3 16-8 19-3-15 8-21zm-5 20 1 6 4-10-1-7-4 11zm169 85-1 10-24 7 2-11 23-6zm-21 8-1 6 19-6v-5l-18 5zm44-29 1 10-27 6v-11l26-5zm-24 7 1 6 21-5v-5l-22 4z"/><path d="m115 232 3 16-6 21-2-15 5-22zm-3 22 1 4 2-10-1-4-2 10zm213 11 4 9-28 5-4-9 28-5zm-25 7 2 4 23-4-1-4-24 4zm-90 114 4 8-8 11-3-10 7-9zm-5 10 2 4 4-6-1-4-5 6z"/><path d="M211 377v11l-9 12 1-13 8-10zm-5 11-1 4 4-5v-3l-3 4zm95-143 13 2-35 4-13-2 35-4zm-188 44 5 6v17l-6-4 1-19zm2 6v13l1-12-1-1zm118-35-5 8-28 2 5-9 28-1zm-26 4-2 3 22-2 2-3-22 2zm62-14-7 6-32 2 8-5 31-3zm-30 5 22-2-22 2zm-97 41-1 14-13 2v-15l14-1zm-11 3-1 10 9-2v-8h-8z"/><path d="m230 352-7 13-14 14 8-15 13-12zm-11 14-1 1 3-3 1-1-3 3zm3 19 8 3-7 14-8-3 7-14zm1 3-5 9 3 2 5-10-3-1zm38-63-2 11-20 8 3-11 19-8zm-17 9-1 6 14-6 1-5-14 5zm78-75 4 9-28 4-5-8 29-5zm-25 7 2 4 24-4-2-4-24 4zM163 130l2 16-14 2-3-16 15-2zm-12 4 2 11 10-1-2-11-10 1zm-10 15 3 17-12 10-4-16 13-11zm-10 12 2 10 8-6-2-11-8 7zm174 85 9 3-31 4-9-3 31-4zm-22 5 22-3-22 3z"/><path d="m243 339-4 11-15 10 4-12 15-9zm-13 11-2 5 9-6 2-4-9 5zm21-53h3v21l-2 9h-2v-20l1-10zm67-42 5 7-28 4-6-7 29-4zm-24 5 2 4 23-4-2-3-23 3zm16-13 7 5-30 5-7-6 30-4zm-24 6 2 1 23-3-2-1-23 3zm-170 41 7 2v16l-8-1 1-17zm2 3v12h2v-11l-2-1z"/><path d="m121 296 10 1-1 14-10 1 1-16zm2 3v10h5v-10h-5zm182-16 1 10-26 6-2-11 27-4zm-24 7 1 6 22-5-1-5-22 4zm33-40 6 7-29 4-6-7 29-4zm-24 6 2 2 23-3-2-2-23 3zm-86 11-3 9-25 2 4-10 24-1zm-23 3-2 5 20-1 2-4h-20zm102 34v10l-24 6v-11l24-5zm-21 7v6l18-5v-5l-18 4zm-104-26-2 12-17 2 2-14h17zm-15 3-1 8 12-1 1-8-12 1zm97 83-6 18-8 1 6-16 8-3zm-6 5-4 11h2l4-12-2 1zm43-128-12 5-34 3 12-5 34-3z"/><path d="m179 275-3 11-21 1 3-11 21-1zm-19 3-2 7 16-1 2-6h-16zm53 94 4-8 2 1-4 8-4 8-2-1 4-8zm40-53-3 27-6 14 3-26 6-15zm-139-54 3 12-2 20-4-10 3-22zm1 12-2 10 2-10zm114-94 11 28 2 21-11-27-2-22zm4 17 1 4 4 11v-4l-5-11zm4 56-6 6-28 2 6-7 28-1zm-26 3-2 2 21-1 2-2-21 1zm6 123 7 5-7 13-6-6 6-12zm1 3-4 8 3 3 4-9-3-2z"/><path d="m248 349-4 21-8 6 5-19 7-8zm-5 9-3 12 2-1 2-13-1 2zm59-82 3 10-27 4-2-10 26-4zm-23 6 1 6 22-4-2-5-21 3zm-17 35-1 11-19 7 1-12 19-6zm-17 8-1 7 15-6v-5l-14 4zm0-81h2l4 21 1 11-3 1-4-21v-12zm-112-73 3 16-11 13-3-16 11-13zm-8 14 1 10 7-8-1-11-7 9zm90 182 1 12-8 14 1-13 6-13zm-4 14v2l2-5v-1l-2 4z"/><path d="m248 250 26-2v3h-4l-27 2v-2l5-1zm-33 126 4 7-7 13-4-8 7-12zm0 5-4 7 2 3 3-8-1-2zm16-36-4 13-12 11 5-14 11-10zm-9 11-1 5 4-4 1-4-4 3zm-92-71h13l-2 13-13 1 2-14zm2 2-1 10 8-1 1-8-8-1zm28-157 16 2 2 16-15-2-3-16zm3 3 2 11 10 1-1-11-11-1zm119 163 1 10-23 6-1-12 23-4zm-21 6 1 7 18-5v-5l-19 3z"/><path d="m245 331-3 12-15 8 3-12 15-8zm-13 9-2 6 10-5 1-5-9 4zm-115-99 2 15-5 21-3-13 6-23zm-3 23v2l2-10v-2l-2 10zm185 6 4 9-27 4-3-10 26-3zm-23 5 2 5 22-3-2-5-22 3zm-68-14-5 8-25 1 5-8 25-1zm-23 3-2 4 19-1 2-3h-19zm-70 10 5 7-2 17-5-5 2-19zm2 7-2 11 1 1 1-11v-1zm126-29-8 6-29 1 8-6 29-1zm-28 4-1 1 20-1 1-1-20 1zm59-8 15 3-36 2-15-2 36-3zm-148-54 3 16-9 16-3-15 9-17zm-6 17 1 8 5-9-1-9-5 10zm23 64 17 1-2 11-18 1 3-13zm2 3-2 7h13l1-7h-12zm-23 5 10 2-2 14-10-1 2-15zm2 3-1 10 5 1 1-10-5-1z"/><path d="m121 218 2 16-7 18-3-14 8-20zm-5 20 1 5 3-10v-5l-4 10zm45 30h21l-4 10h-21l4-10zm2 2-2 6 16-1 2-5h-16zm57-102 12 24 3 19-13-23-2-20zm4 13 1 6 6 11-1-6-6-11zm72 83 4 8-26 3-5-8 27-3zm-23 5 2 4 22-3-2-4-22 3zm-47 104 8 1-5 16-8-2 5-15zm2 2-4 11 3 1 4-11-3-1zm-75-230 2 16-13 6-3-16 14-6zm-11 7 2 12 9-4-2-12-9 4zm-24 128 7 4-2 15-7-3 2-16zm2 4-2 11 3 1 1-11-2-1zm159-35 9 4-30 3-10-5 31-2zm-21 4 13-1-13 1zm4 56v11l-19 6v-12l19-5zm-17 7v7l14-5v-6l-14 4zm35-28 2 10-23 5-2-11 23-4zm-20 6 1 6 18-4-1-6-18 4zm-40 61 2 1-3 9-4 8-2-1 4-11 3-6z"/><path d="m292 258 5 8-27 3-5-8 27-3zm-23 5 2 4 22-3-2-3-22 2zm14-12 8 5-29 3-8-6 29-2zm-22 4 2 1 21-2-1-1-22 2zm-88-124 15 7 3 16-15-6-3-17zm3 4 2 11 10 4-2-10-10-5z"/><path d="m288 254 6 7-28 3-6-7 28-3zm-23 5 2 2 22-2-2-2-22 2zm-14 6 3 32-3 21-3-31 3-22zm-1-14-11 4-31 1 11-5h31zm-62 6h25l-6 7h-26l7-7zm1 2-2 3 18-1 2-2h-18zm56 63-1 12-15 8 2-13 14-7zm-12 8-1 7 10-4v-7l-9 4z"/><path d="m233 337-3 13-11 9 3-14 11-8zm-9 9-1 6 5-4 1-5-5 3zm-14-191 13 19 2 18-13-19-2-18zm3 9 1 8 8 11-1-8-8-11zm8 206 7 3-5 16-7-5 5-14zm1 3-3 10 3 2 3-10-3-2zm21-18-4 19-8 2 4-17 8-4zm-6 5-3 13 3-1 3-13-3 1zm-19-4 2 11-6 18-1-13 5-16zm-85-82 13 2-3 12-14-1 4-13zm1 3-2 8h9l2-7-9-1zm52-141 15 11 2 17-15-11-2-17zm3 5 1 11 10 6-1-10-10-7zm-71 110 2 12-4 19-3-11 5-20zm-3 20 1 2 2-10v-1l-3 9zm163 9 3 10-24 4-3-11 24-3zm-21 5 2 6 19-3-2-5-19 2zm-18-71 8 30 1 21-8-29-1-22zm3 19v3l3 10v-2l-3-11z"/><path d="m198 144 15 15 2 17-15-15-2-17zm3 7 2 9 8 9-1-9-9-9zm17 214 5 6-5 15-5-8 5-13zm1 5-3 8 1 3 3-9-1-2zm33-70v27l-5 13v-25l5-15zm-3 15v13l1-1v-13l-1 1zm-84-54 21 1-5 8h-21l5-9zm2 2-3 5h16l2-4-15-1z"/><path d="m261 300 1 11-19 5-1-12 19-4zm-17 6 1 7 14-4v-6l-15 3zm6 25-3 22-7 7 2-21 8-8zm-5 9-2 14 2-2 2-14-2 2zm-21-89 24-1v3h-5l-24 1v-3h5zm-77 16 17 1-4 10h-18l5-11zm1 2-2 6 12 1 2-6-12-1zm-4-106 2 16-12 10-3-16 13-10zm-10 11 1 11 8-7-1-10-8 6zm-9 97 10 3-3 14-10-3 3-14zm2 3-2 10 5 1 2-9-5-2zm148-1 4 9-24 4-4-10 24-3zm-21 5 3 5 18-3-2-5-19 3zm-61-25h25l-8 6h-25l8-6zm1 2-2 2h17l2-1-17-1zm-75 5 4 9-4 16-4-8 4-17zm0 7-2 10 1 2 2-10-1-2zm46-123 2 16-14 2-3-16 15-2zm-12 4 2 11 10-1-2-12-10 2zm73 190-4 18-7 14 4-20 7-12zM122 228l2 15-7 18-2-13 7-20zm-4 20v4l3-9v-4l-3 9z"/><path d="m248 250 5 1v2l-23 1-6-1v-2l24-1zm-3 63v12l-15 7v-14l15-5zm-12 7v8l10-4v-7l-10 3zm-112-54 7 6-4 14-7-4 4-16zm1 5-2 10 3 2 2-10-3-2zm149-5 5 9-24 3-5-9 24-3zm-20 5 2 4 19-2-2-4-19 2z"/><path d="m233 327-1 13-10 8 1-14 10-7zm-8 8v8l5-4v-7l-5 3zm-89-151 1 16-10 13-3-16 12-13zm-9 14 1 9 7-8-1-9-7 8zm111 160-4 18-9-1 4-16 9-1zm-7 3-3 12h4l3-12h-4zm28-70 2 11-19 5-2-12 19-4zm-16 6 1 7 15-3-2-7-14 3zm10-46 10 4-28 1-11-4 29-1zm-18 3h3-3z"/><path d="m128 206 2 16-9 15-2-14 9-17zm-6 17v7l5-9v-7l-5 9zm145 38 6 8-25 2-6-8 25-2zm-20 4 2 3 20-1-3-4-19 2zm-77-10 21 2-6 7-21-1 6-8zm1 3-2 3 15 1 2-3-15-1zm87-5 8 6-26 1-9-6 27-1zm-20 3 2 2 19-1-2-1h-19zm-102 8 13 3-4 11-13-2 4-12zm2 3-3 7 8 1 3-6-8-2z"/><path d="m263 256 6 7-25 2-7-7 26-2zm-20 4 2 2 19-1-2-2-19 1zm-45-9 27 1-10 4-27-1 10-4zm33-54 11 26v20l-10-25-1-21zm3 15 1 5 4 12v-5l-5-12z"/><path d="m246 247 6 29-2 19-6-28 2-20zm1 17v3l2 12v-3l-2-12zm-27 80 2 11-4 20-1-13 3-18zm-69-85 17 2-5 9-17-1 5-10zm2 3-3 5 11 1 3-5-11-1zm71 95 7 2-3 17-7-4 3-15zm1 3-2 11 3 1 3-11-4-1z"/><path d="m220 353 6 5-4 16-5-6 3-15zm2 4-3 10 2 2 2-10-1-2zm35-74 3 11-20 3-3-11 20-3zm-17 5 2 6 15-2-2-6-15 2zm4 16 1 12-14 5-2-13 15-4zm-12 6 1 8 10-4-1-7-10 3zm-109-72 2 13-6 16-3-11 7-18zm-4 18v3l4-8-1-3-3 8zm126 81-2 21-8 3 2-19 8-5zm-6 7-2 14 4-2 1-14-3 2zm-76-201 15 3 2 16-15-2-2-17zm2 3 2 12 10 1-1-11-11-2zm39 104 20 1 1 2-6 1-20-1-1-2 6-1zm-74 10 9 5-5 12-9-4 5-13zm1 4-3 8 5 2 3-8-5-2z"/><path d="m226 330-2 16-6 10 2-18 6-8zm-4 9v6l1-6h-1zm-67-180 2 16-13 6-3-16 14-6zm-11 7 2 11 8-4-1-11-9 4zm106 115 2 26-5 13-2-24 5-15zm-2 15 1 14 1-3-1-14-1 3z"/><path d="M233 317v13l-10 7v-15l10-5zm-8 7v8l5-3v-8l-5 3zm-49-73 21 2-8 6-22-1 9-7zm0 3-2 2 14 1 2-2-14-1zm73 57v24l-7 8v-22l7-10zm-4 11v14l2-2v-15l-2 3zm8-47 5 10-20 3-5-11 20-2zm-16 4 2 6 15-2-2-5-15 1zm-113-32 4 10-6 15-4-9 6-16zm-4 16 2 3 3-9-1-3-4 9zm102-81 12 22 1 19-12-22-1-19zm3 11 1 7 6 12v-7l-7-12z"/><path d="m126 255 6 7-5 13-7-6 6-14zm1 4-4 9 3 3 3-9-2-3zm77-7v-2l21 1 5 1v2l-20-1-6-1zm-63 4 13 3-6 10-13-3 6-10zm2 3-4 6 8 1 3-5-7-2z"/><path d="m157 253 16 3-6 7-17-2 7-8zm1 2-4 4 12 2 3-4-11-2zm-28-38v15l-8 15-2-14 10-16zm-7 17 1 5 4-8v-6l-5 9zm119 60 2 12-14 4-3-13 15-3zm-12 5 2 8 10-3-2-7-10 2zm-55-154 15 6 2 17-15-7-2-16zm3 4 2 11 9 4-1-11-10-4zm72 119 5 10-21 2-5-10 21-2zm-17 4 3 5 15-1-3-5-15 1zm-12 60 2 10-2 22-2-13 2-19zm18 10-2 19h-8l1-17 9-2zm-6 4-2 13 4-1 1-13-3 1zm-87-169 1 16-12 9-2-16 13-9zm-10 10 1 10 8-5-1-11-8 6zm68 64 26 1 11 4h-26l-11-5z"/><path d="m240 229 8 27-2 17-7-25 1-19zm2 14-1 4 4 14v-5l-3-13zm-31-74 14 18 1 18-13-18-2-18zm4 8v9l8 11-1-9-7-11zm-33 72 22 2-10 4-23-2 11-4zm0 2-1 1 12 1h1l-12-2z"/><path d="m245 262 6 9-21 1-6-9 21-1zm-16 3 2 4h16l-3-4h-15zm-92-69 1 16-10 12-2-14 11-14zm-8 14v8l6-7v-8l-6 7zm83 43 23 1 9 6h-23l-9-7zm7 3 3 2h14l-2-2h-15z"/><path d="M218 258h22l7 7h-21l-8-7zm6 2 3 3h15l-3-3h-15zm-36-110 15 10 1 17-14-10-2-17zm3 5 1 10 9 7-1-10-9-7zm41 152 1 13-10 5-1-14 10-4zm-8 5 1 9 5-2v-9l-6 2z"/><path d="m200 158 14 14 1 17-13-14-2-17zm3 6 1 10 9 9-1-10-9-9zm18 176 6 3-2 18-5-5 1-16zm2 4-1 11 2 1 1-11-2-1z"/><path d="M225 320v15l-5 8v-17l5-6zm-3 7v8l1-1v-8l-1 1zm3 16h8l-2 18-8-2 2-16zm2 2-1 12 3 1 1-12-3-1zm13-60 3 12-15 3-4-13 15-2zm-13 4 3 8 10-2-2-7-11 1zm-92-38 9 6-6 10-9-5 6-11zm1 4-4 6 5 3 3-6-4-3zm31-98 2 17-14 1-2-16 14-2zm-12 4 2 12 9-1-1-12-10 1zm-25 66 1 13-8 14-2-11 9-16zm-6 16 1 4 4-7-1-5-4 8zm39 6 16 3-8 6-17-3 9-6zm0 2-3 2 10 2 3-2-10-2zm82 68v21l-9 5v-20l9-6zm-6 8v14l3-2v-15l-3 3zm-51-79 27 3-16 2-28-3 17-2z"/><path d="m147 249 12 5-7 8-12-4 7-9zm1 3-4 5 8 2 3-4-7-3zm98 10 5 25-5 14-5-25 5-14zm-2 15 3 14 1-4-3-15-1 5zm-112-32 5 8-7 11-5-7 7-12zm0 4-4 8 2 3 4-7-2-4z"/><path d="m130 237 3 10-7 13-3-9 7-14zm-5 14 1 3 5-7-1-4-5 8zm122 41 2 23-6 10-2-22 6-11zm-4 11 2 15 2-3-2-16-2 4zm-7-26 4 11-15 2-5-12 16-1zm-12 3 3 7 10-1-3-6h-10zm6 17 2 12-10 4-3-14 11-2zm-8 4 2 9 5-2-1-8-6 1zm-2 19 3 8v23l-3-12v-19zm12-108 10 24-1 17-10-23 1-18zm2 11v6l5 13 1-6-6-13zm-46 28v-3l16 2 6 1v2l-16-1-6-1zm-50-43v14l-10 12-1-13 11-13zm-8 14v6l6-6v-7l-6 7z"/><path d="m224 309 1 15-5 5-1-16 5-4zm-3 5 1 10 1-1-1-9h-1zm-64-142 1 16-13 6-2-16 14-6zm-11 8 1 10 8-3v-11l-9 4zm69 89h17l5 10-16 1-6-11zm4 3 4 6 10-1-3-5h-11zm-50-26 17 4-10 4-17-4 10-4zm0 2-2 1 9 2 2-1-9-2zm70 76v20l-9 2v-18l9-4zm-6 5v14l3-1v-14l-3 1zm-68-172 15 3 1 16-15-2-1-17zm2 3 1 12 10 1-1-11-10-2zm19 88 24 3 13 6-23-3-14-6zm-45-4 8 6-7 9-8-6 7-9zm1 3-5 6 5 3 4-5-4-4z"/><path d="m221 327 6 1v18l-6-3v-16zm2 3v11l2 1v-12h-2zm-76-140v15l-11 9-1-15 12-9zm-10 10 1 9 7-5v-10l-8 6zm73 62 17 1 6 9h-16l-7-10zm5 3 3 4h11l-3-4h-11zm-19-13 20 2 9 6-19-1-10-7zm9 3 2 1 10 1-2-1-10-1z"/><path d="M233 327v19l-8-1v-17l8-1zm-6 3v13h3v-13h-3zm-73-86 11 5-8 6-12-4 9-7zm0 3-4 3 7 3 4-3-7-3zm49 9 19 2 7 7h-17l-9-9zm7 3 3 3 10 1-3-3-10-1zm17 28 3 12-10 2-4-13 11-1zm-8 3 3 9 5-2-2-7h-6zm4-94 12 21-1 17-11-21v-17zm2 9v8l7 12v-7l-7-13zm-87 14v13l-9 11-1-12 10-12zm-8 13 1 5 5-6v-6l-6 7zm110 11 7 24-4 14-7-23 4-15zm0 9-2 6 5 14 1-5-4-15zm-64-7 18 5-12 1-19-4 13-2zm-37-8 4 9-8 9-5-8 9-10zm-6 10 3 4 4-6-2-4-5 6zm110 54 2 21-8 6-2-20 8-7zm-6 8 2 15 3-3-1-15-4 3zm-60-150 15 6 1 16-15-6-1-16zm3 3v12l10 4v-11l-10-5zm38 148 4 4 2 23-4-10-2-17z"/><path d="m222 299 2 13-5 4-3-16 6-1zm-3 3 2 10 1-1-2-9h-1zm-81-73 2 10-9 11-2-10 9-11zm-7 11 1 5 5-6-1-5-5 6zm112 33 5 23-7 10-4-21 6-12zm-3 12 2 15 3-4-3-16-2 5zm-28-7h11l5 11-11 1-5-12zm3 2 4 8 5-1-3-7h-6zm-2-98 13 18-1 17-12-17v-18zm2 8v9l8 11v-9l-8-11zm-46-19v16l-14 2-1-16 15-2zm-12 4v11l9-1v-11l-9 1zm32-11 15 10v16l-14-10-1-16zm3 4v11l10 7v-11l-10-7zm-16 79v-2l7 1 12 3-1 3-6-1-12-4zm-15-6 11 6-9 4-12-5 10-5zm-4 5 6 2 4-1-6-3-4 2z"/><path d="m149 239 7 7-8 6-8-7 9-6zm-5 7 4 3 4-4-3-3-5 4zm58-74 13 14v16l-13-14v-16zm2 6v9l9 9v-9l-9-9zm-57 24v14l-11 9v-14l11-9zm-9 10v8l6-5 1-8-7 5zm87 101 2 18-6-2-2-16h6zm-3 3 1 11 2 1-2-13-1 1zm15-10 2 21-9 3-1-18 8-5zm-6 7 1 14 4-2-1-14-4 2zm-25-45 12 1 6 11h-11l-7-12zm5 3 3 7h6l-3-6-6-1z"/><path d="m158 186-1 15-12 5v-15l13-5zm-11 7v9l8-3v-10l-8 4zm35 56 1-3 12 3 6 3-1 2-11-2-7-3zm49 62 2 19-8 1-2-18 8-2zm-5 4 1 13 3-1-1-13-3 1zm-14-27h7l3 13-5 1-5-14zm4 2 2 10 1-1-2-9h-1zm16-65 9 22-3 15-9-21 3-16zm1 9-1 7 5 13 2-6-6-14zm-33 26 13 2 7 10-12-1-8-11zm5 3 4 5 6 1-4-4-6-2z"/><path d="m184 248 17 4 11 8-16-4-12-8zm11 5 2 1 4 1-1-1-5-1zm24 46 4 20-4-5-3-14 3-1z"/><path d="m193 253 14 3 9 9-14-2-9-10zm7 4 3 4 6 1-3-3-6-2zm-54-26 4 10-9 6-4-8 9-8zm-6 8 2 5 5-4-2-5-5 4zm29 2 11 6-11 1-12-6 12-1zm-4 2 5 3h2l-4-3h-3zm-18-30-1 13-10 8v-12l11-9zm-9 10v6l6-5v-6l-6 5zm28-52 15 2-1 16-14-2v-16zm3 3v11l9 1v-11l-9-1zm70 108 4 22-8 7-4-20 8-9zm-5 10 3 14 3-3-2-16-4 5z"/><path d="m146 223 1 11-9 7-2-10 10-8zm-8 9 1 5 6-4-1-6-6 5zm19 4 6 7-9 4-8-7 11-4zm-6 5 3 3 5-2-3-4-5 3zm87 14 6 22-6 11-6-21 6-12zm-4 12 5 15 2-6-4-15-3 6zm-27 9 7 2 5 12h-6l-6-14zm4 3 4 9h1l-3-8-2-1zm11 18 4 18-6 1-3-16 5-3zm-3 4 3 12h1l-2-12h-2zm4-91 11 19-3 15-10-19 2-15zm2 7-2 8 7 12 1-7-6-13zm-63 23 14 2 13 8-13-3-14-7zm13 4 1 1h1l-2-1zm-17-46-2 14-12 5 1-14 13-5zm-11 7v8l7-3 1-8-8 3z"/><path d="m169 185-1 15-13 1v-15l14-1zm-11 4-1 10 9-1v-11l-8 2zm56 93 6 19-3 2-4-14 1-7zm20 7 3 20-8 5-4-18 9-7zm-6 8 3 13 4-2-3-15-4 4zm-50-124 15 6-1 16-14-6v-16zm3 3-1 11 9 4 1-11-9-4zm20 89 8 4 7 12-7-2-8-14zm6 5 3 7h1l-3-6-1-1z"/><path d="m228 294 3 19-8 3-3-17 8-5zm-5 6 2 13 3-2-2-13-3 2zm-68-72 3 10-10 4-4-9 11-5zm-7 6 1 5 6-3-2-4-5 2zm27 10 1-2 8 3 6 4-1 3-7-4-7-4z"/><path d="m165 235 5 8-10 1-6-8 11-1zm-6 3 2 3h5l-2-4-5 1zm54-42 12 17-2 15-12-16 2-16zm2 6-1 9 7 11 2-8-8-12zm-22 53 11 6 8 12-9-4-10-14zm9 8 3 4-3-4zm-12-86 14 10-1 16-14-10 1-16zm2 5v10l9 7 1-10-10-7zm-9 65 1-2 6 4 7 5-1 2-6-3-7-6zm-27-38-1 13-11 5v-12l12-6zm-9 7v7l6-3 1-7-7 3zm83 21 9 21-6 12-8-19 5-14zm0 7-2 7 5 13 3-6-6-14z"/><path d="m183 245 14 9 12 13-12-7-14-15zm19-60 13 14-2 15-13-13 2-16zm2 6-1 9 9 9 1-9-9-9zm30 73 6 21-8 9-6-20 8-10zm-5 11 4 14 4-5-4-14-4 5zm-73-56v12l-11 4-1-11 12-5zm-9 7v6l6-3v-6l-6 3zm60 41 8 20v6l-7-15-1-11z"/><path d="m218 283 5 17-6 2-4-15 5-4zm-2 5 3 11 1-1-3-11-1 1zm-50-103 14 2-1 15-14-2 1-15zm3 2-1 11 9 1 1-10-9-2zm-7 47 11 2 5 9-10-2-6-9zm5 4 2 3h4l-1-3h-5z"/><path d="m168 197-2 14-12 2 1-14 13-2zm-11 4v9l7-1 1-9-8 1zm71 71 6 20-8 6-5-18 7-8zm-4 9 3 13 4-3-4-14-3 4zm-60-54 2 10-11 1-2-9 11-2zm-8 4 1 5 6-1-1-5-6 1z"/><path d="m223 278 5 19-7 4-5-17 7-6zm-4 7 3 12 3-2-3-12-3 2zm-19-29 10 19 1 8-8-15-3-12zm22-34 10 19-5 13-10-18 5-14zm0 6-2 8 6 12 3-7-7-13zm-52 7 12 5 4 9-11-5-6-9zm5 5 2 2 4 2-1-2-5-2zm-8-31-2 12-12 2 1-13 13-1zm-11 3v8l7-1 1-8-8 1z"/><path d="m212 269 7 16-5 5-6-15 4-6zm-2 6 5 11 1-2-4-10-2 1zm-45-56-1 11-11 1v-11l12-1zm-10 3v6h7v-6h-7zm72 26 8 19-7 10-8-18 7-11zm-4 11 5 13 4-5-6-14-3 6zm-45-73 14 6-2 15-14-6 2-15zm2 4-1 10 9 3 1-9-9-4zm13 58 11 16 2 9-10-14-3-11zm-16-11 13 9 3 9-11-8-5-10zm7 8v1l4 2-4-3z"/><path d="m185 241 12 13 3 9-10-11-5-11zm27-32 11 16-4 13-11-15 4-14zm1 5-2 9 7 10 3-8-8-11zm-52 13 12 2 1 10-11-2-2-10zm3 3 1 5 6 1v-5l-7-1zm2-33 13 2-3 14-12-2 2-14zm2 3-1 9 8 1 1-9-8-1zm22-9 13 9-3 15-13-9 3-15zm1 4-1 10 9 6 1-10-9-6zm26 69 7 17-7 6-7-16 7-7zm-4 8 5 11 3-3-5-12-3 4z"/><path d="m201 198 13 13-4 14-12-12 3-15zm1 5-1 9 8 9 2-9-9-9zm20 54 7 18-7 8-7-17 7-9zm-4 9 5 12 3-4-5-12-3 4zm-13-9 8 15-4 5-7-13 3-7zm0 5-1 2 5 9 1-2-5-9z"/><path d="m218 233 10 18-7 11-8-17 5-12zm1 6-4 6 7 12 3-6-6-12zm-56-20 12 2-2 11-11-2 1-11zm2 3-1 6 7 1 1-6-7-1z"/><path d="m171 228 11 5v10l-11-5v-10zm2 4 1 5 6 2v-4l-7-3zm-9-23 13 2-3 12-12-2 2-12zm2 2-1 8 7 1 2-7-8-2zm31 35 10 13-4 8-8-12 2-9zm1 6-1 2 6 8 1-3-6-7z"/><path d="m177 199 13 5-3 14-13-6 3-13zm1 3-1 9 8 3 2-8-9-4zm2 30 11 8-1 9-11-7 1-10zm2 4v4l6 5v-4l-6-5zm27 15 9 15-6 8-8-15 5-8zm-2 8 5 10 3-3-6-11-2 4z"/><path d="m189 238 10 11-2 8-10-10 2-9zm1 5v3l6 6v-3l-6-6zm24 0 9 16-7 9-8-15 6-10zm-3 10 5 11 4-5-6-11-3 5z"/><path d="m209 221 11 15-6 12-10-15 5-12zm1 5-3 7 7 10 3-7-7-10zm-38-6 12 5-2 11-11-5 1-11zm2 3-1 7 7 3 2-6-8-4zm14-20 13 9-4 13-12-8 3-14zm1 4-2 9 8 6 3-9-9-6z"/><path d="m175 210 12 6-3 12-12-6 3-12zm1 3-1 8 7 3 2-7-8-4zm23-3 12 13-5 12-11-11 4-14zm1 5-3 8 8 8 3-8-8-8zm1 24 10 14-6 8-9-12 5-10zm0 5-2 5 6 8 3-4-7-9z"/><path d="m205 231 10 14-6 10-9-13 5-11zm1 5-3 6 6 9 4-6-7-9zm-24-12 12 8-4 10-10-7 2-11zm2 4-2 6 7 5 2-6-7-5z"/><path d="m192 230 11 12-5 9-10-10 4-11zm1 5-2 5 6 7 3-5-7-7z"/><path d="m185 214 12 9-4 12-11-9 3-12zm1 4-2 7 8 6 2-7-8-6z"/><path d="m195 221 12 12-6 11-10-11 4-12zm1 5-2 6 7 8 3-7-8-7z"/></g></g><defs><linearGradient id="a" x1="-29.4" x2="374.9" y1="-172.2" y2="512.8" gradientUnits="userSpaceOnUse"><stop offset=".3" stop-color="#2e6c49"/><stop offset="1" stop-color="#468949"/></linearGradient><linearGradient id="c" x1="531.4" x2="6.1" y1="519.9" y2="-4.3" gradientUnits="userSpaceOnUse"><stop offset=".3" stop-color="#2e6c49"/><stop offset="1" stop-color="#468949"/></linearGradient><path id="b" d="M256 501a244 244 0 1 0 0-489 244 244 0 0 0 0 489zm0 12a256 256 0 1 0 0-512 256 256 0 0 0 0 512z"/></defs></svg>
