<svg xmlns="http://www.w3.org/2000/svg" viewBox="0 0 32 32" width="32" height="32"><defs><linearGradient id="a" x1="22.895" y1="5.098" x2="4.045" y2="34.55" gradientUnits="userSpaceOnUse" gradientTransform="translate(4.646 3.261) scale(.6308)"><stop stop-color="#1682FE"/><stop offset=".3" stop-color="#60D8A4"/><stop offset=".7" stop-color="#FCA75B"/><stop offset="1" stop-color="#FF5A5A"/></linearGradient></defs><circle style="fill:#fff" cx="16" cy="16" r="16"/><path d="M25.188 13.502v-5h-2.5v-2.5h-4.999v-2.5h-5v2.5h-5v2.5h-2.5v14.999h2.5v2.5h5V28.5h4.999v-2.499h5v-2.5h2.5v-5h-4.999v2.5h-2.5v2.5h-5v-2.5h-2.498v-9.999h2.5v-2.5h4.999v2.5h2.5v2.5h4.998Z" fill="url(#a)"/><path fill="#1682FE" d="M17.689 8.376h1.741v2.625h-1.741zM12.685 3.5h1.741v2.625h-1.741z"/><path fill="#60D8A4" d="M7.687 6h1.741v2.625H7.687z"/><path fill="#F4BB3B" d="M5.186 16h1.759v7.499H5.186z"/><path fill="#60D8A4" d="M5.186 8.502h1.759v7.499H5.186z"/><path fill="#1682FE" d="M20.187 10.875h1.741V13.5h-1.741z"/><path fill="#FF5A5A" d="M20.186 18.5h1.741v2.625h-1.741zM17.689 21h1.741v2.625h-1.741zm-5.003 4.874h1.741v2.625h-1.741z"/><path fill="#F4BB3B" d="M7.686 23.375h1.741V26H7.686z"/><path d="M26.814 13.5v-5h-2.501V6h-4.999V3.5h-5V6h-5v2.5H6.813v15h2.5V26h4.999v2.499h5V26h5.001v-2.5h2.501v-5h-5V21h-2.5v2.5h-5V21h-2.5V11h2.5V8.5h5V11h2.5v2.5h5Z" fill="#3A3A3A"/></svg>
