<svg xmlns="http://www.w3.org/2000/svg" width="24" height="24" fill="none"><g clip-path="url(#a)"><path d="M12.5 25C19.404 25 25 19.404 25 12.5S19.404 0 12.5 0 0 5.596 0 12.5 5.596 25 12.5 25z" fill="#fff"/><path d="M19.678 10.549V6.642h-1.953V4.689H13.82V2.736H9.913v1.953H6.007v1.953H4.054V18.36h1.953v1.953h3.906v1.952h3.905v-1.952h3.906V18.36h1.953v-3.906h-3.905v1.953H13.82v1.953H9.913v-1.953H7.962V8.595h1.953V6.642h3.905v1.953h1.953v1.953h3.905z" fill="url(#b)"/><path d="M13.82 6.544h1.36v2.051h-1.36V6.544zm-3.91-3.81h1.36v2.051H9.91V2.734z" fill="#1682fe"/><path d="M6.005 4.688h1.36v2.051h-1.36V4.688z" fill="#60d8a4"/><path d="M4.052 12.5h1.374v5.859H4.052V12.5z" fill="#f4bb3b"/><path d="M4.052 6.642h1.374v5.859H4.052V6.642z" fill="#60d8a4"/><path d="M15.771 8.496h1.36v2.051h-1.36V8.496z" fill="#1682fe"/><path d="M15.77 14.453h1.36v2.051h-1.36v-2.051zm-1.951 1.953h1.36v2.051h-1.36v-2.051zM9.91 20.214h1.36v2.051H9.91v-2.051z" fill="#ff5a5a"/><path d="M6.005 18.262h1.36v2.051h-1.36v-2.051z" fill="#f4bb3b"/><path d="M20.948 10.547V6.641h-1.954V4.688h-3.905V2.734h-3.906v1.953H7.277V6.64H5.323v11.719h1.953v1.953h3.905v1.952h3.906v-1.952h3.907v-1.953h1.954v-3.906h-3.906v1.953h-1.953v1.953h-3.906v-1.953H9.23V8.594h1.953V6.641h3.906v1.953h1.953v1.953h3.906z" fill="#3a3a3a"/></g><defs><linearGradient id="b" x1="14.913" y1="5.06" x2="5.623" y2="19.574" gradientUnits="userSpaceOnUse"><stop stop-color="#1682fe"/><stop offset=".3" stop-color="#60d8a4"/><stop offset=".7" stop-color="#fca75b"/><stop offset="1" stop-color="#ff5a5a"/></linearGradient><clipPath id="a"><path fill="#fff" d="M0 0h25v25H0z"/></clipPath></defs></svg>
