<svg xmlns="http://www.w3.org/2000/svg" width="24" height="24" fill="none"><g clip-path="url(#a)"><path d="M12.5 25C19.404 25 25 19.404 25 12.5S19.404 0 12.5 0 0 5.596 0 12.5 5.596 25 12.5 25z" fill="url(#b)"/><path d="M19.913 10.438h-1.484c-.816-2.266-3.012-3.821-5.908-3.821H7.758v3.821H6.104v1.371h1.654v1.438H6.104v1.37h1.654v3.775h4.763c2.862 0 5.042-1.541 5.879-3.775h1.512v-1.371h-1.179a6.21 6.21 0 0 0 .046-.742v-.034c0-.225-.012-.446-.034-.662h1.171v-1.371l-.004.001zm-10.821-2.6h3.429c2.125 0 3.704 1.046 4.434 2.596H9.092V7.838zm3.429 9.321H9.092v-2.546h7.854c-.733 1.525-2.308 2.546-4.425 2.546zm4.879-4.625c0 .237-.016.474-.05.709H9.092v-1.437h8.263a5.42 5.42 0 0 1 .046.696v.033z" fill="#fff"/></g><defs><linearGradient id="b" x1="12.5" y1="28.55" x2="12.5" y2="-2.625" gradientUnits="userSpaceOnUse"><stop stop-color="#f9a606"/><stop offset="1" stop-color="#fbcc5f"/></linearGradient><clipPath id="a"><path fill="#fff" d="M0 0h25v25H0z"/></clipPath></defs></svg>
