<svg xmlns="http://www.w3.org/2000/svg" width="24" height="24" fill="none"><g clip-path="url(#a)"><mask id="b" maskUnits="userSpaceOnUse" x="0" y="0" width="25" height="25" mask-type="alpha"><path d="M.154.065h24.783v24.87H.154V.065z" fill="#fff"/></mask><g mask="url(#b)"><path d="M24.937 12.5c0 6.868-5.548 12.435-12.392 12.435S.154 19.368.154 12.5 5.701.065 12.545.065 24.937 5.632 24.937 12.5z" fill="#8150e6"/></g><path d="m24.474 15.878-8.822-8.712-5.027-.942-2.942 11.11 7.424 7.334a12.43 12.43 0 0 0 9.368-8.79z" fill="#3c176b"/><path d="M11.476 16.36V9.486h1.731a5.49 5.49 0 0 1 1.603.222c.487.148.908.379 1.265.692l.142.135c.006-.932-.33-1.86-.806-2.7a5.924 5.924 0 0 0-1.631-.226h-4.2v8.743l1.897.009z" fill="#6b42bd"/><path d="M18.747 10.861c-.301-.73-.703-1.337-1.204-1.82s-1.079-.843-1.731-1.079l-.401-.128c.476.84.812 1.768.806 2.7.289.293.473 1.428.647 1.864l-5.388 4.936v-.974c-.635.051-1.259-.001-1.897-.009v2.86h3.974c.642 0 1.297-.118 1.965-.354s1.275-.593 1.822-1.071.994-1.081 1.34-1.812.519-1.595.519-2.594c0-.988-.15-1.79-.452-2.52z" fill="#9b74ec"/><path d="M10.994 15.454c.592 0 1.152-.074 1.679-.222s.986-.379 1.377-.692.7-.719.926-1.219.339-1.106.339-1.82c0-.703-.101-1.249-.301-1.754s-.479-.914-.835-1.227a3.38 3.38 0 0 0-1.265-.692 5.492 5.492 0 0 0-1.603-.222H9.579v7.848h1.415zM7.682 5.728h4.2c.703 0 1.38.118 2.033.354s1.229.596 1.731 1.079.903 1.09 1.204 1.82.452 1.532.452 2.52c0 .999-.173 1.864-.519 2.594s-.793 1.334-1.34 1.812a5.58 5.58 0 0 1-1.822 1.07 5.876 5.876 0 0 1-1.965.354H7.682V5.728z" fill="#fff"/></g><defs><clipPath id="a"><path fill="#fff" d="M0 0h25v25H0z"/></clipPath></defs></svg>
