<svg width="256" height="256" viewBox="0 0 256 256" fill="none" xmlns="http://www.w3.org/2000/svg"><mask id="a" mask-type="alpha" maskUnits="userSpaceOnUse" x="1" y="0" width="255" height="256"><path d="M1.573.667h253.78v254.665H1.573V.667Z" fill="#fff"/></mask><g mask="url(#a)"><path d="M255.353 127.999c0 70.324-56.81 127.333-126.89 127.333S1.573 198.323 1.573 127.999C1.573 57.676 58.383.667 128.463.667S255.353 57.676 255.353 128Z" fill="#8150E6"/></g><path d="m250.611 162.593-90.339-89.208-51.478-9.646-30.128 113.762 76.02 75.101c46.25-9.753 83.228-44.773 95.925-90.009Z" fill="#3C176B"/><path d="M117.509 167.53V97.136h17.729c5.959 0 11.432.76 16.418 2.277 4.984 1.519 9.301 3.88 12.949 7.085.501.439.983.901 1.454 1.378.061-9.542-3.383-19.05-8.256-27.65a60.885 60.885 0 0 0-16.707-2.317H98.084v89.533c6.537.074 12.921.608 19.425.088Z" fill="#6B42BD"/><path d="M191.97 111.219c-3.083-7.477-7.195-13.688-12.333-18.637-5.14-4.947-11.049-8.628-17.729-11.047a60.562 60.562 0 0 0-4.105-1.31c4.873 8.6 8.317 18.108 8.256 27.65 2.958 2.998 4.848 14.624 6.623 19.085l-55.173 50.543v-9.974c-6.504.52-12.888-.014-19.424-.088v29.289h40.699c6.576 0 13.282-1.207 20.118-3.626 6.834-2.417 13.051-6.072 18.653-10.963 5.601-4.891 10.176-11.074 13.721-18.552 3.546-7.476 5.319-16.331 5.319-26.564 0-10.12-1.541-18.328-4.625-25.806Z" fill="#9B74EC"/><path d="M112.579 158.25c6.063 0 11.794-.758 17.189-2.276 5.396-1.519 10.098-3.88 14.106-7.084 4.008-3.204 7.169-7.363 9.481-12.481 2.313-5.115 3.469-11.326 3.469-18.637 0-7.194-1.029-12.79-3.084-17.963-2.057-5.171-4.908-9.36-8.555-12.565-3.65-3.205-7.966-5.567-12.95-7.084-4.986-1.518-10.459-2.277-16.419-2.277H98.088v80.367h14.491ZM78.663 58.656h43.011c7.193 0 14.13 1.21 20.813 3.626 6.679 2.42 12.588 6.1 17.728 11.048 5.139 4.949 9.251 11.16 12.333 18.636 3.084 7.478 4.625 15.687 4.625 25.806 0 10.233-1.773 19.088-5.318 26.564-3.546 7.479-8.121 13.661-13.721 18.553-5.602 4.891-11.82 8.545-18.653 10.962-6.837 2.419-13.543 3.627-20.119 3.627H78.663V58.656Z" fill="#fff"/></svg>
