<svg xmlns="http://www.w3.org/2000/svg" xmlns:xlink="http://www.w3.org/1999/xlink" width="24" height="24" fill="none"><g clip-path="url(#a)"><path d="M24.172 12.498a11.67 11.67 0 0 1-7.205 10.783 11.67 11.67 0 0 1-12.719-2.53 11.67 11.67 0 0 1-2.53-12.719A11.67 11.67 0 0 1 12.501.826a11.67 11.67 0 0 1 8.253 3.418 11.67 11.67 0 0 1 3.419 8.253z" fill="url(#b)"/><mask id="c" maskUnits="userSpaceOnUse" x="0" y="0" width="25" height="25"><path d="M13.36 24.139c6.428-.475 11.255-6.071 10.779-12.5S18.068.385 11.64.86.385 6.931.86 13.36s6.071 11.255 12.5 10.779z" fill="#fff"/></mask><g mask="url(#c)"><path d="M20.159 8.838c1.608 1.56 2.832 3.512 3.08 5.846.546 5.141-3.453 9.779-8.931 10.361S3.946 21.932 3.4 16.791s2.552-4.792 8.03-5.374c2.989-.317 7.755-3.524 8.729-2.579z" fill="url(#d)"/></g><path d="m20.717 9.842-.012-.15h-1.912l1.924-1.645-.003-.079a6.36 6.36 0 0 0-.981-3.175l-.046-.088H9.365c-.975 0-2.869.302-4.26 1.857-.606.678-1.906 2.713-1.889 4.997.01 1.285.134 2.284.619 3.402.23.537.505 1.053.821 1.543.979 1.757 2.047 2.98 3.173 3.636.954.555 1.798.63 2.499.63h5.851l.035-.02 3.662-2.061.05-.03.02-.054.018-.048a.889.889 0 0 0 .038-.102c.213-.61.391-1.92.477-2.645l.055-.44.022-.181h-.007l.015-.147h-2.042l2.189-1.658.006-.073c.133-1.613 0-3.451-.001-3.469z" fill="url(#e)"/><path d="M12.122 17.015s-1.917.185-7.57-1.291c2.306 4.498 4.466 4.743 6.073 4.743h5.485l3.551-2.038-7.54-1.415z" fill="#fff"/><path d="M10.626 20.31c-.693 0-1.665.006-2.63-.623-1.678-1.094-2.232-1.956-3.191-3.762 4.309 1.106 6.376 1.229 7.073 1.229l.238-.007 7.442 1.206-3.531 1.957h-5.401v-.001z" fill="url(#f)"/><path d="M8.495 15.258s-.927-1.074-1.25-1.89l10.484 1.89 2.687-2.035-.01-3.266H7.245s.465-1.333 1.303-1.863l9.6 1.793 2.266-1.938c-.091-1.823-.964-2.933-.964-2.933H9.318c-.884 0-2.692.195-4.053 1.717s-2.574 4.914-1.269 8.075c1.326 3.21 3.046 3.622 4.018 3.622h11.647l.055-.145c.28-.948.52-3.026.52-3.026H8.495v-.001z" fill="#fff"/><path d="m11.297 6.088-3.968.83c-.185.092-.923 3.415-.923 3.415h10.989l2.818-2.383-8.916-1.861z" fill="url(#g)"/><path d="m11.369 11.362-3.968.831c-.184.093-.923 3.414-.923 3.414h10.584l3.235-2.443-8.928-1.802z" fill="url(#h)"/><path d="M20.417 13.223H7.256c.323.817 1.25 1.89 1.25 1.89h11.742s-.231 2.317-.531 3.171H8.37c-1.446 0-3.002-.484-4.362-3.622S3.915 8.11 5.276 6.588s3.168-1.717 4.052-1.717H19.46s.877 1.21.954 3.079H8.559c-.838.531-1.304 1.863-1.304 1.863h13.16a25.05 25.05 0 0 1 .001 3.411z" fill="url(#i)"/><path d="M18.378 4.106s-4.578-1.816-8.71.52c-3.62 2.049-7.727 5.323-4.677 12.043-2.756-3.933-2.786-7.128-.621-10.475C6.416 3.03 12.438.144 18.379 4.107z" fill="url(#j)"/><path opacity=".4" d="M12.49.822a11.721 11.721 0 0 0-9.308 4.681 11.726 11.726 0 0 0-1.909 10.243l-.012-.318c-.037-1.22.12-5.709 2.411-5.318s5.645 1.07 9.613-.024 7.131-4.805 5.093-7.67c.001 0-2.386-1.594-5.888-1.594z" fill="url(#k)"/><path d="M10.585 4.934c.284.724-.686 1.59-1.902 1.855s-2.441-.133-2.656-.879c-.341-1.185.841-1.607 2.057-1.872s1.929-.56 2.501.896z" fill="#fff"/></g><defs><linearGradient id="e" x1="14.385" y1="12.834" x2="20.333" y2="17.48" xlink:href="#l"><stop stop-color="#5a27ed"/><stop offset="1" stop-color="#ab37f4"/></linearGradient><linearGradient id="f" x1="5.38" y1="17" x2="7.702" y2="23.636" xlink:href="#l"><stop stop-color="#7618f4"/><stop offset=".504" stop-color="#575ff8"/><stop offset="1" stop-color="#09ffff"/></linearGradient><linearGradient id="g" x1="8.753" y1="8.202" x2="14.09" y2="13.911" xlink:href="#l"><stop stop-color="#7f4cff"/><stop offset="1" stop-color="#3095ff"/></linearGradient><linearGradient id="h" x1="8.413" y1="11.6" x2="9.487" y2="17.967" xlink:href="#l"><stop stop-color="#7f52ff"/><stop offset="1" stop-color="#3096ff"/></linearGradient><linearGradient id="i" x1="17.235" y1="15.736" x2="14.332" y2="11.042" xlink:href="#l"><stop stop-color="#fff"/><stop offset=".157" stop-color="#fbffff"/><stop offset=".319" stop-color="#efffff"/><stop offset=".483" stop-color="#daffff"/><stop offset=".648" stop-color="#bdfffe"/><stop offset=".814" stop-color="#98fffe"/><stop offset=".979" stop-color="#6bfffd"/><stop offset="1" stop-color="#65fffd"/></linearGradient><linearGradient id="j" x1="4.787" y1="16.553" x2="12.66" y2=".846" xlink:href="#l"><stop stop-color="#fff" stop-opacity="0"/><stop offset=".515" stop-color="#e6ffff"/><stop offset="1" stop-color="#ceffff" stop-opacity=".502"/></linearGradient><linearGradient id="k" x1=".829" y1="8.284" x2="19.015" y2="8.284" xlink:href="#l"><stop stop-color="#fff"/><stop offset=".867" stop-color="#fff" stop-opacity=".306"/><stop offset="1" stop-color="#fff" stop-opacity=".2"/></linearGradient><linearGradient id="l" gradientUnits="userSpaceOnUse"/><radialGradient id="b" cx="0" cy="0" r="1" gradientTransform="translate(5.428 4.561) scale(12.9551)" xlink:href="#l"><stop stop-color="#7ff"/><stop offset=".394" stop-color="#87e4ff"/><stop offset=".861" stop-color="#6273ff"/><stop offset="1" stop-color="#9468ff"/></radialGradient><radialGradient id="d" cx="0" cy="0" r="1" gradientTransform="matrix(9.05207 -1.17157 1.34856 10.4195 12.699 21.602)" xlink:href="#l"><stop offset=".497" stop-color="#0ff"/><stop offset="1" stop-color="#00f4ff" stop-opacity="0"/></radialGradient><clipPath id="a"><path fill="#fff" d="M0 0h25v25H0z"/></clipPath></defs></svg>
