<svg xmlns="http://www.w3.org/2000/svg" width="24" height="24" fill="none"><g clip-path="url(#a)"><path d="M25 12.5C25 5.596 19.404 0 12.5 0S0 5.596 0 12.5 5.596 25 12.5 25 25 19.404 25 12.5z" fill="url(#b)"/><g fill="#fff"><path d="M7.041 10.916c.162.345.564 1.028.564 1.028L12.246 4.3l-4.53 3.152a1.97 1.97 0 0 0-.645.707 3.26 3.26 0 0 0-.03 2.758zm-1.839 2.517a5.13 5.13 0 0 0 .608 2.088 5.15 5.15 0 0 0 1.419 1.651l5.01 3.481s-3.135-4.501-5.779-8.98a4.51 4.51 0 0 1-.531-1.527 2.434 2.434 0 0 1 0-.733l-.203.388a5.895 5.895 0 0 0-.541 1.727 10.54 10.54 0 0 0 .016 1.905zm12.782.604c-.162-.345-.564-1.028-.564-1.028l-4.641 7.645 4.53-3.149c.27-.179.491-.422.645-.707a3.26 3.26 0 0 0 .03-2.76zm1.839-2.517a5.13 5.13 0 0 0-.608-2.088 5.15 5.15 0 0 0-1.419-1.651L12.785 4.3s3.133 4.501 5.779 8.98a4.51 4.51 0 0 1 .529 1.527c.037.243.037.49 0 .733l.203-.388a5.91 5.91 0 0 0 .541-1.727 10.54 10.54 0 0 0-.014-1.905z"/><path d="M7.071 8.159a1.97 1.97 0 0 1 .645-.707l4.53-3.152-4.641 7.647-.564-1.028a3.26 3.26 0 0 1 .03-2.76zm-1.87 5.275a5.13 5.13 0 0 0 .608 2.088 5.15 5.15 0 0 0 1.419 1.651l5.01 3.481s-3.135-4.501-5.779-8.98a4.51 4.51 0 0 1-.531-1.527 2.434 2.434 0 0 1 0-.733l-.203.388a5.895 5.895 0 0 0-.541 1.727 10.54 10.54 0 0 0 .016 1.905zm12.774.606c-.162-.345-.564-1.028-.564-1.028l-4.633 7.643 4.53-3.149c.27-.179.491-.422.645-.707a3.26 3.26 0 0 0 .03-2.76l-.008.002zm1.839-2.517a5.13 5.13 0 0 0-.608-2.088 5.15 5.15 0 0 0-1.419-1.651L12.785 4.3s3.133 4.501 5.779 8.98a4.51 4.51 0 0 1 .529 1.527c.037.243.037.49 0 .733l.203-.388a5.91 5.91 0 0 0 .541-1.727 10.54 10.54 0 0 0-.014-1.905l-.008.002z"/></g></g><defs><linearGradient id="b" x1="16.652" y1="27.963" x2="-7.647" y2="-14.806" gradientUnits="userSpaceOnUse"><stop stop-color="#44bcf0"/><stop offset=".379" stop-color="#7298f8"/><stop offset="1" stop-color="#a099ff"/></linearGradient><clipPath id="a"><path fill="#fff" d="M0 0h25v25H0z"/></clipPath></defs></svg>
