<svg width="100" height="100" viewBox="0 0 100 100" fill="none" xmlns="http://www.w3.org/2000/svg"><path d="M50 100c27.709 0 50-22.291 50-50S77.709 0 50 0 0 22.291 0 50s22.291 50 50 50Z" fill="#25292E" style="fill:color(display-p3 .1451 .1608 .1804);fill-opacity:1"/><path d="m49.994 15.91-.457 1.553v45.083l.457.456 20.927-12.37L49.994 15.91Z" fill="#fff" style="fill:#fff;fill-opacity:1"/><path d="M49.994 15.91 29.067 50.631l20.927 12.37V15.91Z" fill="#fff" style="fill:#fff;fill-opacity:1"/><path fill-rule="evenodd" clip-rule="evenodd" d="m49.994 84.088 20.939-29.49-20.94 12.364-20.926-12.363 20.926 29.488v.001Z" fill="url(#a)"/><path d="m49.994 63.001 20.927-12.37-20.927-9.512v21.882Z" fill="#fff" style="fill:#fff;fill-opacity:1"/><path d="m29.067 50.632 20.927 12.37V41.118l-20.927 9.513Z" fill="#fff" style="fill:#fff;fill-opacity:1"/><defs><linearGradient id="a" x1="50" y1="54.599" x2="50" y2="84.088" gradientUnits="userSpaceOnUse"><stop stop-color="#fff" style="stop-color:white;stop-opacity:1"/><stop offset="1" stop-color="#fff" stop-opacity=".85" style="stop-color:white;stop-opacity:.85"/></linearGradient></defs></svg>
