<svg xmlns="http://www.w3.org/2000/svg" width="24" height="24" fill="none"><g clip-path="url(#a)"><path d="M12.5 25C19.404 25 25 19.404 25 12.5S19.404 0 12.5 0 0 5.596 0 12.5 5.596 25 12.5 25z" fill="#fff"/><path d="M12.84 18.388v5.758l7.117-10.028-7.117 4.27zm6.858-6.147L12.84.854v8.281l6.858 3.105z" fill="#3b3735"/><path d="M12.84 9.781v7.052l6.793-3.947-6.793-3.105z" fill="#1f1d19"/><path d="M5.335 12.241 12.193.854v8.281L5.335 12.24z" fill="#959190"/><path d="M12.192 9.781v7.052l-6.793-3.947 6.793-3.105z" fill="#403c3a"/><path d="M12.193 18.388v5.758L5.076 14.118l7.117 4.27z" fill="#959190"/></g><defs><clipPath id="a"><path fill="#fff" d="M0 0h25v25H0z"/></clipPath></defs></svg>
