<svg width="500" height="500" viewBox="0 0 500 500" fill="none" xmlns="http://www.w3.org/2000/svg"><circle cx="250" cy="250" r="250" fill="#1B1645"/><path fill-rule="evenodd" clip-rule="evenodd" d="m178.758 141.804 43.987-45.33 10.126 35.054a9692.89 9692.89 0 0 0-18.794 18.582c-7.3-2.026-17.957-4.514-26.916-6.492a874.126 874.126 0 0 0-8.403-1.814Zm-13.549 13.963-62.21 64.109c2.384.509 5.1 1.101 7.979 1.744 8.341 1.863 18.171 4.178 25.318 6.134a9821.424 9821.424 0 0 1 16.31-16.379c7.002-7.018 14.366-14.382 21.818-21.82l-9.215-33.788Zm17.364 25.66c7.876-7.851 15.74-15.674 23.272-23.151-6.373-1.621-14.042-3.392-20.841-4.894a813.642 813.642 0 0 0-10.705-2.293l8.274 30.338Zm-82.748 47.998a819.11 819.11 0 0 1 8.973 1.955c6.287 1.404 13.325 3.044 19.363 4.576a3965.81 3965.81 0 0 0-10.281 10.418c-4.435 4.512-8.04 8.212-10.555 10.84l-.25.262-7.25-28.051ZM245.47 130.35a325.557 325.557 0 0 0-2.722-.664l-9.933-34.382 34.143 8.354 9.537 34.717a4380.013 4380.013 0 0 0-19.496-5.091c-4.441-1.147-8.5-2.183-11.529-2.934Zm-15.992 62.547 44.118-44.945a4348.28 4348.28 0 0 0-19.098-4.986 1318.985 1318.985 0 0 0-11.434-2.91 217.61 217.61 0 0 0-3.566-.86l-.13-.03a9542.019 9542.019 0 0 0-18.466 18.259c1.408 7.067 3.883 17.297 6.106 26.012.9 3.528 1.754 6.787 2.47 9.46Zm-9.16 4.435c-6.822-2.154-15.47-4.604-22.92-6.625a853.588 853.588 0 0 0-7.869-2.094c7.757-7.732 15.503-15.438 22.932-22.815 1.421 6.356 3.221 13.694 4.858 20.111a766.559 766.559 0 0 0 2.999 11.423Zm-4.191 9.166c-6.41-1.995-14.345-4.24-21.347-6.139a716.16 716.16 0 0 0-11.408-3.003c-.774-.195-1.473-.37-2.087-.52a14641.229 14641.229 0 0 0-21.6 21.602 9974.593 9974.593 0 0 0-16.468 16.538c1.443 6.961 3.726 16.365 5.791 24.461a767 767 0 0 0 3.204 12.166l44.323-45.2a5.95 5.95 0 0 1 .5-.455l19.092-19.45Zm-91.115 46.885c2.927-2.978 6.224-6.319 9.818-9.95 1.355 5.957 2.99 12.602 4.489 18.476a763.607 763.607 0 0 0 3.029 11.533l.021.078-28.665-8.505.847-.888c2.467-2.579 6.035-6.24 10.461-10.744Zm20.855 31.606-42.246-12.535a6 6 0 0 1-4.103-4.25L88.3 224.795a6 6 0 0 1 1.504-5.68l130.21-134.186a6 6 0 0 1 5.732-1.65l45.872 11.225a6 6 0 0 1 4.36 4.238l12.192 44.379a6 6 0 0 1-1.504 5.792l-76.361 77.791 36.784 8.796a6 6 0 0 1 4.39 4.246l10.114 36.815 72.421-74.632a6 6 0 0 1 5.732-1.65l45.872 11.225a5.999 5.999 0 0 1 4.36 4.238l12.192 44.379a6 6 0 0 1-1.504 5.792L267.497 401.567a6.002 6.002 0 0 1-6.065 1.526l-43.885-13.653a6 6 0 0 1-4.026-4.228l-10.67-41.287-42.342-13.493a6.002 6.002 0 0 1-3.987-4.216l-10.655-41.227Zm19.784 36.586-8.561-33.127c.644.128 1.385.278 2.211.449 2.996.618 7.041 1.488 11.497 2.483 7.301 1.63 15.614 3.58 22.198 5.307 1.478 6.799 3.502 15.081 5.324 22.222a767.303 767.303 0 0 0 3.029 11.534c.284 1.043.541 1.971.762 2.751l-36.46-11.619Zm45.522 6.884-.176-.645a767 767 0 0 1-2.988-11.377c-1.883-7.381-3.947-15.849-5.39-22.562l13.783-14.205c4.27 1.356 12.742 4.094 21.344 6.874l.009.003c3.579 1.156 7.18 2.32 10.51 3.394l-37.092 38.518Zm30.528-51.147-.051-.016-.009-.003c-6.313-2.04-12.68-4.098-17.466-5.634l20.03-20.643 8.171 29.744c-3.289-1.061-6.916-2.233-10.567-3.413l-.06-.02-.039-.012-.009-.003Zm-4.14-33.809-20.73 21.365-8.507-28.356 29.237 6.991Zm-28.705 29.584-10.319-34.395-39.259 39.995c.617.124 1.302.263 2.045.416 3.058.632 7.157 1.513 11.655 2.517 7.256 1.621 15.64 3.584 22.403 5.354l13.475-13.887Zm120.487 12.176a58319.976 58319.976 0 0 0-22.786 22.447c1.798.446 3.735.932 5.752 1.447 7.875 2.007 17.083 4.462 24.06 6.562a8894.287 8894.287 0 0 1-5.304-22.925 3623.05 3623.05 0 0 1-1.722-7.531Zm-60.476 45.597c7.091-7.011 14.538-14.362 22.063-21.785-.259-.834-.568-1.846-.915-2.997-.937-3.108-2.175-7.293-3.518-11.889a2462.754 2462.754 0 0 1-6.413-22.324l-64.025 65.98.264.053 1 .205c3.058.632 7.157 1.513 11.655 2.517 7.897 1.764 17.129 3.933 24.155 5.819 4.946-4.906 10.234-10.141 15.734-15.579Zm55.189-54.425a60199.498 60199.498 0 0 0-25.081 24.708 2405.135 2405.135 0 0 1-9.542-32.973c3.406.737 7.906 1.748 12.843 2.899 7.057 1.646 14.943 3.563 21.78 5.366Zm-25.635 39.587-.237-.056a24896.41 24896.41 0 0 0-22.286 22.005 14338.173 14338.173 0 0 0-15.167 15.016l.048.219.131.586.119.532c.707 3.164 1.689 7.472 2.782 12.232a8831.78 8831.78 0 0 0 4.583 19.822l61.112-62.252c-6.088-1.746-13.268-3.648-19.666-5.279a762.113 762.113 0 0 0-11.419-2.825Zm-46.068 45.284a3487.42 3487.42 0 0 0 1.712 7.488c1.733 7.546 3.74 16.202 5.369 23.205l-28.766-8.95c2.458-2.512 5.748-5.83 9.702-9.791 3.517-3.522 7.551-7.546 11.983-11.952Zm-30.443 16.403-7.765-30.049 1.156.237c2.996.618 7.041 1.488 11.497 2.483 5.848 1.306 12.345 2.816 18.083 4.253-4.274 4.251-8.174 8.14-11.588 11.56-4.549 4.557-8.251 8.295-10.833 10.949l-.55.567Zm70.964-119.024L338.175 212l12.139 38.583-13.064 12.862-.003.003-4.941 4.864c-8.064-2.261-18.676-4.863-27.759-6.981a898.762 898.762 0 0 0-11.673-2.646Zm56.042-45.867 32.042 7.84 9.421 34.292c-5.899-1.478-12.52-3.016-18.401-4.33a787.637 787.637 0 0 0-11.655-2.517l-.328-.067-11.079-35.218Zm8.423 44.882.962.197c2.996.618 7.041 1.488 11.497 2.483 5.855 1.308 12.362 2.82 18.105 4.259l-42.966 43.769a7956.854 7956.854 0 0 1-4.126-17.852c-1.093-4.76-2.075-9.068-2.782-12.232l-.295-1.323 6.515-6.413.017-.017.048-.047 13.025-12.824Z" fill="url(#a)"/><defs><linearGradient id="a" x1="407.5" y1="259" x2="72.5" y2="231" gradientUnits="userSpaceOnUse"><stop stop-color="#B25AFA"/><stop offset="1" stop-color="#2ABAF9"/></linearGradient></defs></svg>
