<svg width="24" height="24" viewBox="0 0 24 24" fill="none" xmlns="http://www.w3.org/2000/svg"><path fill-rule="evenodd" clip-rule="evenodd" d="M24 12c0 6.627-5.373 12-12 12S0 18.627 0 12 5.373 0 12 0s12 5.373 12 12Zm-6.858 9.385 4.243-4.243-2.018-2.018a8.028 8.028 0 0 1-4.243 4.243l2.018 2.018Zm-7.71-1.806a8.025 8.025 0 0 1-4.554-3.93l-1.635 1.635 4.242 4.243 1.948-1.948ZM4.634 8.876a8.028 8.028 0 0 1 4.243-4.243L7.243 3 3 7.243l1.633 1.633Zm11.015-3.998 1.737-1.736 4.242 4.243-2.048 2.048a8.025 8.025 0 0 0-3.93-4.555Z" fill="#060710"/><path d="m12 6-.081.273v7.935l.08.08 3.683-2.177L12 6Z" fill="#B7B7B7"/><path d="m12 6-3.684 6.111 3.683 2.177V6Z" fill="#fff"/><path d="m12 14.986-.046.055v2.826L12 18l3.686-5.19L12 14.986Z" fill="#939090"/><path d="M12 18v-3.014L8.315 12.81 11.999 18Z" fill="#fff"/><path d="m11.999 14.288 3.683-2.177L12 10.437v3.851Z" fill="#939090"/><path d="m8.316 12.111 3.683 2.177v-3.85L8.316 12.11Z" fill="#B1B1B1"/></svg>
