<svg xmlns="http://www.w3.org/2000/svg" width="56" height="56" viewBox="0 0 56 56"><defs><clipPath id="a"><circle cx="28" cy="28" r="28"/></clipPath></defs><g clip-path="url(#a)"><path fill="#3BC77B" d="M0 0h56v56H0z"/><path d="M36.5 28c1.78 0 3.39-.71 4.56-1.87l.94 3.15A9.54 9.54 0 0 1 27.67 25h-4.98l.98-2h3.45a9.53 9.53 0 0 1-.1-2h-3.2l.97-2h2.54a9.53 9.53 0 0 1 14.64-5.3l-1 3.08A6.48 6.48 0 0 0 30.5 19h9.74l-.75 2h-9.47a6.62 6.62 0 0 0 .15 2h8.95l-.75 2h-7.35a6.5 6.5 0 0 0 5.48 3ZM12 30.5a13.5 13.5 0 0 1 9.02-12.74 17.3 17.3 0 0 0 .4 4.16 9.5 9.5 0 1 0 12.6 12.78c1.33.33 2.71.5 4.14.51A13.5 13.5 0 0 1 12 30.5Z" fill="#fff"/></g></svg>
