<svg xmlns="http://www.w3.org/2000/svg" width="24" height="24" fill="none"><g clip-path="url(#a)"><path d="M12.5 25C19.404 25 25 19.404 25 12.5S19.404 0 12.5 0 0 5.596 0 12.5 5.596 25 12.5 25z" fill="#fff"/><path fill-rule="evenodd" d="M21.175 21.5a12.464 12.464 0 0 0 3.825-9c0-4.177-2.049-7.875-5.196-10.145-4.334.495-7.934 2.51-9.179 5.395H22.25l-1.312 3H10s-.068 1.15-.062 1.688c.009.784.063 1.688.063 1.688h9.5l-1.25 2.901h-6.937c1.374 2.597 5.243 4.471 9.862 4.474zm-3.648 2.448A12.448 12.448 0 0 1 12.5 25C5.596 25 0 19.404 0 12.5S5.596 0 12.5 0c1.145 0 2.254.154 3.308.442-4.047.741-7.375 3.555-8.855 7.307H4.375l-1.312 3h3.313v1.375l.002.379c.003.147.013.294.04 1.621H4.25l-1.187 2.901h4.112c1.721 3.88 4.799 6.176 10.352 6.922z" fill="url(#b)"/></g><defs><linearGradient id="b" x1="2.938" y1="19.875" x2="21.875" y2="5.125" gradientUnits="userSpaceOnUse"><stop offset=".333" stop-color="#15bcff"/><stop offset=".664" stop-color="#406bee"/><stop offset=".925" stop-color="#ae3eeb"/></linearGradient><clipPath id="a"><path fill="#fff" d="M0 0h25v25H0z"/></clipPath></defs></svg>
