<svg xmlns="http://www.w3.org/2000/svg" viewBox="0 0 220.2 220.2" style="enable-background:new 0 0 220.2 220.2" xml:space="preserve"><style>.st1,.st2{display:inline;fill:none;stroke:#21aaf3;stroke-width:.4734;stroke-miterlimit:10;stroke-dasharray:1.8936,1.8936}.st2{stroke-width:.4482;stroke-dasharray:1.7929,1.7929}</style><g id="logo"><circle cx="110.1" cy="110.1" r="76.1" style="fill:#06f"/><path d="M78.2 75.2H66.5c-7.7 9.6-12.3 21.7-12.3 34.8s4.6 25.3 12.3 34.8h11.7S65.1 130.4 65.1 110s13.1-34.8 13.1-34.8zm63.8 69.7h11.7c7.7-9.6 12.3-21.7 12.3-34.8s-4.6-25.3-12.3-34.8H142s13.1 14.4 13.1 34.8-13.1 34.8-13.1 34.8zm-37.8-69.6v10.1h5.3V75.3h6.4v10s.5 0 .9.1c2.3.2 4.6.6 6.8 1.4 2.3.8 4.5 1.9 6.1 3.9 1.2 1.5 1.8 3.2 2.1 5.1.3 1.7.2 3.5-.2 5.1-.5 1.9-1.4 3.6-3 4.9-.6.4-1.1 1-1.8 1.2-.1 0-.2.2-.3.4.6.2 1.1.5 1.7.6 1.6.4 2.9 1.3 4.2 2.3 1.4 1.1 2.2 2.5 2.7 4.1.5 1.3.7 2.7.7 4 0 2.6-.3 5.2-1.4 7.6-.9 1.8-2 3.3-3.6 4.5-1.5 1.1-3.2 1.9-5 2.4-1.8.6-3.6.9-5.4 1.1-2.4.3-4.2.4-4.2.4v10.5h-6.5v-10.5h-5.3v10.5H98v-10.5H85.3l.6-7.7s3.3.1 4.7 0c1.8-.1 2.5-1.3 2.5-2.7V95.6c0-1.2-.5-2.2-1.5-2.8-.5-.3-1-.5-1.6-.6-1.6-.1-5.4-.1-5.4-.1v-6.8h13.1V75.2h6.5zm4 37h-3.4c-.2 0-.4-.1-.4.3V126c0 .6.1.7.8.8 2.7 0 5.5 0 8.2-.3 1.9-.2 3.8-.6 5.6-1.5.7-.3 1.5-.8 2-1.3 1.4-1.3 2-3.1 1.8-5-.2-1.8-1.1-3.2-2.6-4.2-1.9-1.3-4-1.8-6.3-2-1.9-.2-5.7-.3-5.7-.2zm-3.9-9.9v2.8c0 .5.2.7.6.7 2.2 0 4.3 0 6.5-.2 2-.2 3.9-.6 5.6-1.7 1.4-.8 2.2-2 2.6-3.4.1-.4.1-.9.1-1.4 0-1.3-.3-2.5-1.1-3.4-.8-1-1.9-1.7-3.2-2.2-2.1-.8-4.3-1-6.5-1h-3.8c-.6 0-.8.2-.8.8v9z" style="fill:#fff"/></g></svg>
