<svg width="256" height="256" viewBox="0 0 256 256" fill="none" xmlns="http://www.w3.org/2000/svg"><path d="M128 256c70.692 0 128-57.308 128-128C256 57.308 198.692 0 128 0 57.308 0 0 57.307 0 128c0 70.692 57.307 128 128 128Z" fill="#22996E"/><path d="M128 185.027H57.95c-9.488 0-15.224-10.49-10.102-18.477l39.854-62.159a16 16 0 0 1 13.47-7.364h53.657a16 16 0 0 1 13.469 7.364l39.855 62.159c5.121 7.987-.614 18.477-10.101 18.477H128Zm7.158-142.985 16.739 25.577C155.379 72.94 151.562 80 145.203 80H111.1c-6.42 0-10.225-7.182-6.619-12.494l17.364-25.577c3.207-4.723 10.187-4.664 13.313.113Z" fill="#fff"/></svg>
