<svg xmlns="http://www.w3.org/2000/svg" width="24" height="24" fill="none"><g clip-path="url(#a)"><path d="M12.5 25C19.404 25 25 19.404 25 12.5S19.404 0 12.5 0 0 5.596 0 12.5 5.596 25 12.5 25z" fill="#22996e"/><path d="M12.5 18.069H5.659a1.172 1.172 0 0 1-.987-1.804l3.892-6.07c.141-.221.336-.402.566-.528a1.56 1.56 0 0 1 .75-.192h5.24a1.561 1.561 0 0 1 1.316.72l3.892 6.07c.5.78-.06 1.804-.986 1.804H12.5zm.699-13.963 1.635 2.498a.781.781 0 0 1-.654 1.209h-3.33a.781.781 0 0 1-.646-1.22L11.9 4.095a.78.78 0 0 1 1.3.011z" fill="#fff"/></g><defs><clipPath id="a"><path fill="#fff" d="M0 0h25v25H0z"/></clipPath></defs></svg>
