<svg width="256" height="256" viewBox="0 0 256 256" fill="none" xmlns="http://www.w3.org/2000/svg">
<path d="M128 256C198.692 256 256 198.692 256 128C256 57.3075 198.692 0 128 0C57.3075 0 0 57.3075 0 128C0 198.692 57.3075 256 128 256Z" fill="#22996E"/>
<path d="M128 185.027H57.9492C48.4616 185.027 42.7264 174.537 47.8476 166.55L87.7024 104.391C90.6444 99.8024 95.7204 97.0272 101.172 97.0272H154.829C160.28 97.0272 165.356 99.8024 168.298 104.391L208.153 166.55C213.274 174.537 207.539 185.027 198.052 185.027H128Z" fill="white"/>
<path d="M135.158 42.042L151.897 67.6192C155.379 72.94 151.562 80 145.203 80H111.1C104.68 80 100.875 72.8184 104.481 67.5064L121.845 41.9292C125.052 37.2059 132.032 37.2651 135.158 42.042Z" fill="white"/>
</svg>
