<svg xmlns="http://www.w3.org/2000/svg" width="24" height="24" fill="none"><g clip-path="url(#a)"><mask id="b" maskUnits="userSpaceOnUse" x="0" y="0" width="25" height="25"><path d="M0 0h25v25H0V0Z" fill="#fff"/></mask><g mask="url(#b)"><path d="M12.5 25C19.404 25 25 19.404 25 12.5S19.404 0 12.5 0 0 5.596 0 12.5 5.596 25 12.5 25z" fill="#000" stroke="#000" stroke-width="1.237" stroke-miterlimit="11.339"/><path d="m5.604 5.547-.966 1.028c-.004.013.47.479 1.054 1.032l1.129 1.076.066.062-.119.198a6.745 6.745 0 0 0-.602 5.701 6.76 6.76 0 0 0 .514 1.124c.088.149.127.246.119.264a77.83 77.83 0 0 1-1.182 1.252l-1.173 1.234a84.685 84.685 0 0 0 1.963 1.889l.066.057 1.015-1.059 1.159-1.217.149-.149.141.088c.716.457 1.555.773 2.481.94.466.084 1.353.106 1.849.044a6.776 6.776 0 0 0 2.684-.9l.202-.123.215.211 2.244 2.135a65.52 65.52 0 0 0 1.941-2.034 164.78 164.78 0 0 0-2.135-2.042l-.268-.255.123-.202a6.759 6.759 0 0 0 .58-5.719 9.2 9.2 0 0 0-.562-1.203l-.083-.145 1.129-1.181 1.12-1.199c-.018-.044-1.994-1.911-2.02-1.911-.018 0-.514.505-1.107 1.129l-1.098 1.133c-.009.004-.066-.022-.119-.062a6.813 6.813 0 0 0-2.671-.979c-.36-.053-1.441-.062-1.774-.013a6.627 6.627 0 0 0-2.121.646l-.505.268-.158.097-.18-.176-.971-.927-.984-.94-.193-.189-.953 1.019zm7.374 2.864a4.07 4.07 0 0 1 1.897.725c.294.207.734.646.94.94a4.051 4.051 0 0 1-.527 5.301 4.035 4.035 0 0 1-4.616.659 4.076 4.076 0 0 1-2.139-2.846c-.079-.395-.079-1.133 0-1.524s.176-.663.365-1.05a4.03 4.03 0 0 1 4.08-2.205z" fill="#fff"/></g></g><defs><clipPath id="a"><path fill="#fff" d="M0 0h25v25H0z"/></clipPath></defs></svg>
