<svg width="256" height="256" viewBox="0 0 256 256" fill="none" xmlns="http://www.w3.org/2000/svg"><g clip-path="url(#a)"><path d="M128 256c70.692 0 128-57.308 128-128C256 57.308 198.692 0 128 0 57.308 0 0 57.307 0 128c0 70.692 57.308 128 128 128Z" fill="#000" stroke="#000" stroke-width="1.237" stroke-miterlimit="11.339"/><path d="M57.388 56.804c-5.397 5.667-9.85 10.434-9.894 10.524-.045.135 4.812 4.903 10.794 10.57 5.981 5.711 11.199 10.704 11.558 11.018l.675.63-1.214 2.024c-10.66 17.63-12.863 38.859-6.162 58.378 1.26 3.688 3.418 8.41 5.262 11.514.9 1.529 1.305 2.518 1.215 2.698-.09.18-5.532 5.937-12.099 12.818-6.566 6.836-11.918 12.548-12.008 12.638-.045.135 18.35 17.901 20.104 19.34l.674.584 10.39-10.839a7342.608 7342.608 0 0 0 11.873-12.458l1.53-1.529 1.439.9c7.33 4.677 15.921 7.915 25.411 9.624 4.767.855 13.852 1.08 18.934.45 9.805-1.124 19.52-4.408 27.48-9.22l2.069-1.259 2.204 2.159c4.812 4.677 22.802 21.768 22.982 21.858.18.09 19.924-20.554 19.879-20.824-.044-.135-13.582-13.133-21.858-20.914l-2.743-2.608 1.259-2.069c10.569-17.585 12.773-38.904 5.937-58.558-.989-2.878-4.003-9.355-5.757-12.323l-.854-1.485 11.558-12.098c6.342-6.611 11.514-12.143 11.469-12.278-.18-.45-20.419-19.564-20.689-19.564-.18 0-5.262 5.172-11.333 11.558-6.072 6.342-11.109 11.559-11.244 11.604-.09.045-.675-.225-1.215-.63-1.529-1.034-5.397-3.148-7.555-4.138-6.567-3.013-12.684-4.857-19.79-5.891-3.688-.54-14.752-.63-18.17-.135-8.185 1.17-14.887 3.193-21.723 6.611-1.979.945-4.272 2.204-5.172 2.744l-1.62.99-1.843-1.8c-.99-.99-5.487-5.217-9.94-9.49-4.452-4.227-8.995-8.545-10.074-9.624l-1.98-1.934-9.759 10.434Zm75.514 29.324c7.151.854 13.538 3.283 19.429 7.42 3.014 2.115 7.511 6.612 9.625 9.626 12.008 17 9.715 40.118-5.397 54.285-12.908 12.053-31.573 14.752-47.269 6.746-11.334-5.802-19.34-16.416-21.903-29.144-.81-4.048-.81-11.604 0-15.606.764-3.958 1.799-6.792 3.733-10.749 7.736-15.562 24.511-24.647 41.782-22.578Z" fill="#fff"/></g><defs><clipPath id="a"><path fill="#fff" d="M0 0h256v256H0z"/></clipPath></defs></svg>
