<svg xmlns="http://www.w3.org/2000/svg" width="24" height="24" fill="none"><g clip-path="url(#a)"><path d="M12.5 25C19.404 25 25 19.404 25 12.5S19.404 0 12.5 0 0 5.596 0 12.5 5.596 25 12.5 25z" fill="#1969ff"/><path d="M11.742 3.975c.421-.222 1.062-.222 1.483 0l4.297 2.266c.254.134.393.333.418.539h.004v11.388c-.005.224-.146.447-.422.593l-4.297 2.266a1.74 1.74 0 0 1-1.483 0l-4.297-2.266c-.275-.145-.406-.369-.413-.593V6.78h.002c.019-.208.152-.402.411-.539l4.297-2.266zm5.519 9.135-4.037 2.135a1.73 1.73 0 0 1-1.481 0l-4.028-2.13v5.016l4.028 2.119c.238.127.486.251.726.257h.014c.241.001.474-.122.711-.237l4.067-2.157V13.11zM6.358 17.92c0 .437.05.723.15.926.083.168.207.296.434.451l.013.009.171.111.079.049.242.147-.346.578-.271-.165-.045-.028-.203-.132c-.646-.439-.887-.919-.892-1.916v-.03h.67zm5.8-7.837a.61.61 0 0 0-.087.037L7.78 12.393l-.013.007-.004.002.007.004.01.005 4.291 2.273a.63.63 0 0 0 .087.037v-4.639zm.684 0v4.639a.632.632 0 0 0 .087-.037l4.291-2.273.013-.007.004-.002-.007-.004-.01-.005-4.291-2.273a.554.554 0 0 0-.087-.037zm4.419-2.49-3.857 2.026 3.857 2.026V7.593zm-9.546 0v4.053l3.857-2.026-3.857-2.026zm5.211-3.012a1.07 1.07 0 0 0-.851 0L7.78 6.851l-.013.007-.004.002.007.004.01.005 4.294 2.271a1.07 1.07 0 0 0 .851 0l4.294-2.27.013-.007.004-.002-.007-.004-.01-.005-4.294-2.271zm4.975.229.27.165.045.028.203.132c.646.439.887.919.892 1.916v.03h-.669c0-.437-.05-.723-.15-.926-.083-.168-.207-.296-.434-.451l-.013-.009-.171-.111-.079-.049-.242-.147.347-.578z" fill="#fff"/></g><defs><clipPath id="a"><path fill="#fff" d="M0 0h25v25H0z"/></clipPath></defs></svg>
