<svg width="256" height="256" viewBox="0 0 256 256" fill="none" xmlns="http://www.w3.org/2000/svg"><path d="M128 256c70.692 0 128-57.308 128-128C256 57.308 198.692 0 128 0 57.308 0 0 57.307 0 128c0 70.692 57.307 128 128 128Z" fill="#1969FF"/><path d="M120.238 40.705c4.313-2.273 10.874-2.273 15.187 0l44.004 23.199c2.597 1.369 4.023 3.41 4.279 5.516h.042v116.608c-.057 2.297-1.497 4.579-4.321 6.068l-44.004 23.199c-4.313 2.273-10.874 2.273-15.187 0l-44.004-23.199c-2.812-1.482-4.162-3.781-4.229-6.068a8.057 8.057 0 0 1 0-.588V70.205a6.012 6.012 0 0 1 0-.484v-.301h.02c.195-2.13 1.557-4.118 4.21-5.516l44.003-23.199Zm56.512 93.545-41.339 21.865c-4.306 2.278-10.858 2.278-15.164 0L79 134.299v51.368l41.247 21.701c2.437 1.304 4.972 2.575 7.44 2.63l.142.002c2.463.008 4.854-1.244 7.279-2.43l41.642-22.09v-51.23ZM65.106 183.5c0 4.47.515 7.408 1.537 9.478.848 1.716 2.12 3.027 4.44 4.622l.133.091c.51.346 1.071.709 1.754 1.136l.806.498 2.474 1.506-3.548 5.919-2.77-1.687-.465-.289a60.7 60.7 0 0 1-2.083-1.348c-6.617-4.5-9.085-9.407-9.133-19.615l-.001-.311h6.856Zm59.394-80.25c-.32.11-.62.238-.894.383l-43.937 23.273-.132.072-.037.022.069.04.1.054 43.937 23.273c.274.145.574.273.894.383v-47.5Zm7 0v47.5c.32-.11.621-.238.894-.383l43.937-23.273.132-.072.037-.022-.069-.04-.1-.054-43.937-23.273a6.228 6.228 0 0 0-.894-.383Zm45.25-25.5-39.5 20.75 39.5 20.75v-41.5Zm-97.75 0v41.5l39.5-20.75L79 77.75Zm53.356-30.843c-2.287-1.21-6.425-1.21-8.712 0L79.669 70.156l-.132.072-.037.022.07.04.1.054 43.974 23.25c2.287 1.208 6.425 1.208 8.712 0l43.975-23.25.132-.072.037-.022-.069-.04-.1-.054-43.975-23.25Zm50.942 2.343 2.77 1.687.465.289c.801.498 1.464.927 2.083 1.348 6.617 4.5 9.085 9.407 9.133 19.615l.001.311h-6.856c0-4.47-.515-7.408-1.537-9.478-.848-1.716-2.119-3.027-4.441-4.622l-.132-.09a53.84 53.84 0 0 0-1.754-1.137l-.806-.498-2.474-1.506 3.548-5.919Z" fill="#fff"/></svg>
