<svg width="40" height="40" viewBox="0 0 40 40" fill="none" xmlns="http://www.w3.org/2000/svg"><rect x=".833" y=".833" width="39.167" height="39.167" rx="19.583" fill="#669AFF"/><path d="M23.934 8.8a.462.462 0 0 0-.458-.466h-2.14a.462.462 0 0 0-.458.466v2.262c0 .215-.17.39-.382.39a.386.386 0 0 1-.382-.39V8.8a.462.462 0 0 0-.457-.466h-2.14a.462.462 0 0 0-.458.466v2.185a.462.462 0 0 1-.458.467h-1.759a.453.453 0 0 0-.323.137l-3.552 3.624a.472.472 0 0 0-.134.33v9.748c0 .123.049.242.134.33l3.552 3.624a.453.453 0 0 0 .323.137h1.76c.252 0 .457.209.457.467v2.184c0 .258.205.467.457.467h2.14a.462.462 0 0 0 .458-.467v-2.261c0-.216.171-.39.382-.39s.382.174.382.39v2.261c0 .258.205.467.458.467h2.14a.462.462 0 0 0 .458-.467V29.85c0-.258.205-.467.457-.467h.767c.121 0 .237-.05.323-.137l3.552-3.624a.472.472 0 0 0 .134-.33v-7.136a.462.462 0 0 0-.458-.467H18.166a.462.462 0 0 0-.458.467v4.523c0 .258.205.467.458.467h5.271c.211 0 .382.175.382.39 0 .215-.17.39-.382.39h-6.303a.453.453 0 0 1-.324-.137l-.495-.506a.472.472 0 0 1-.135-.33v-5.07c0-.124.049-.243.134-.33l.496-.506a.453.453 0 0 1 .324-.137h11.575c.253 0 .458-.21.458-.467V11.92a.462.462 0 0 0-.458-.467h-4.318a.462.462 0 0 1-.457-.467V8.8Z" fill="#EEE"/></svg>
