<svg width="40" height="40" viewBox="0 0 40 40" fill="none" xmlns="http://www.w3.org/2000/svg"><rect x=".833" y=".833" width="39.167" height="39.167" rx="19.583" fill="#669AFF"/><path d="M16.471 17.585c.248-.247.584-.386.933-.386h9.148a2.706 2.706 0 1 0 0-5.413h-1.947a1.547 1.547 0 0 1-1.547-1.547c0-.854-.692-1.546-1.546-1.546h-1.557c-.854 0-1.547.692-1.547 1.546 0 .855-.692 1.547-1.547 1.547h-1.194c-.726 0-1.423.288-1.937.8l-1.898 1.894a4 4 0 0 0-1.174 2.832v6.733a4 4 0 0 0 1.175 2.832l1.897 1.894c.514.512 1.21.8 1.937.8h1.194c.855 0 1.547.693 1.547 1.547s.692 1.546 1.547 1.546h1.557c.854 0 1.546-.692 1.546-1.546 0-.854.693-1.547 1.547-1.547h.098c.436 0 .854-.172 1.162-.48l2.299-2.294a3.732 3.732 0 0 0 1.095-2.639v-5.411a.775.775 0 0 0-.775-.775h-8.145a2.707 2.707 0 0 0-2.706 2.707v.892c0 1.002.812 1.814 1.814 1.814h3.451a.387.387 0 0 1 0 .773h-5.494a1.322 1.322 0 0 1-1.321-1.321V18.52c0-.35.14-.687.388-.935Z" fill="#ECE4D9"/></svg>
