<svg width="256" height="256" viewBox="0 0 256 256" fill="none" xmlns="http://www.w3.org/2000/svg"><path d="M249.446 78.787h-6.574V52.51h-13.127V39.383h-13.128V26.255h-13.128V13.128h-26.255V0H78.787v13.128H52.53v13.127H39.404v13.128H26.276v13.128H13.128v26.276H0v23.121h256V78.787h-6.554Z" fill="#FA34F3"/><path d="M249.446 98.468H0v54.21h256v-54.21h-6.554Z" fill="#CF15F9"/><path d="M249.446 137.851H0v39.383h13.128v6.082h229.744v-6.082H256v-39.383h-6.554Z" fill="#AC15F9"/><path d="M236.319 177.234H13.127v26.255h13.149v13.128h13.127l.226 8.499h176.988v-8.499h13.127v-13.128h13.128v-26.255h-6.553Z" fill="#8F17F9"/><path d="M124.723 256H78.786v-13.128H52.531v-13.127H39.403v-13.128h177.214v13.128h-13.128v13.127h-26.255V256h-52.511Z" fill="#7E18F8"/><path d="M166.134 148.173v4.505h9.031v-13.537h-9.031v9.032Zm-9.032 4.505h-22.589v9.053h18.063v9.031h9.032v-9.031h4.526v-9.053h-9.032Zm-13.558-13.537h22.59v-9.052h-22.59v9.052Zm-9.031-22.61v13.558h9.031v-13.558h-9.031Zm31.621-9.031h-4.526v-9.032h-9.032v9.032h-9.032v9.031h31.621V107.5h-9.031Zm58.737 0h-40.653v9.031h18.063v45.2h9.032v-45.2h18.084V107.5h-4.526Zm-108.442 0v22.589h-22.59V107.5h-9.031v54.231h9.031v-22.59h22.59v22.59h9.031V107.5h-9.031Zm-49.705 0H39.629v9.031h36.147V107.5h-9.052Zm9.052 45.178v-22.589H48.661v9.052h18.063v13.537h9.052Zm-36.147 9.053h27.095v-9.053H39.629v9.053Zm-9.052-45.2v36.147h9.052v-36.147h-9.052Z" fill="#fff"/></svg>
