<svg xmlns="http://www.w3.org/2000/svg" width="24" height="24" fill="none"><g clip-path="url(#a)"><path d="M24.36 7.694h-.642V5.128h-1.282V3.846h-1.282V2.564h-1.282V1.282h-2.564V0H7.694v1.282H5.13v1.282H3.848v1.282H2.566v1.282H1.282v2.566H0v2.258h25V7.694h-.64z" fill="#fa34f3"/><path d="M24.36 9.616H0v5.294h25V9.616h-.64z" fill="#cf15f9"/><path d="M24.36 13.462H0v3.846h1.282v.594h22.436v-.594H25v-3.846h-.64z" fill="#ac15f9"/><path d="M23.078 17.308H1.282v2.564h1.284v1.282h1.282l.022.83h17.284v-.83h1.282v-1.282h1.282v-2.564h-.64z" fill="#8f17f9"/><path d="M12.18 25H7.694v-1.282H5.13v-1.282H3.848v-1.282h17.306v1.282h-1.282v1.282h-2.564V25H12.18z" fill="#7e18f8"/><path d="M16.224 14.47v.44h.882v-1.322h-.882v.882zm-.882.44h-2.206v.884H14.9v.882h.882v-.882h.442v-.884h-.882zm-1.324-1.322h2.206v-.884h-2.206v.884zm-.882-2.208v1.324h.882V11.38h-.882zm3.088-.882h-.442v-.882H14.9v.882h-.882v.882h3.088v-.882h-.882zm5.736 0h-3.97v.882h1.764v4.414h.882V11.38h1.766v-.882h-.442zm-10.59 0v2.206H9.164v-2.206h-.882v5.296h.882v-2.206h2.206v2.206h.882v-5.296h-.882zm-4.854 0H3.87v.882H7.4v-.882h-.884zM7.4 14.91v-2.206H4.752v.884h1.764v1.322H7.4zm-3.53.884h2.646v-.884H3.87v.884zm-.884-4.414v3.53h.884v-3.53h-.884z" fill="#fff"/></g><defs><clipPath id="a"><path fill="#fff" d="M0 0h25v25H0z"/></clipPath></defs></svg>
