<svg width="249" height="249" viewBox="0 0 249 249" fill="none" xmlns="http://www.w3.org/2000/svg"><mask id="a" style="mask-type:alpha" maskUnits="userSpaceOnUse" x="2" y="2" width="245" height="245"><circle cx="124.5" cy="124.5" r="122.5" fill="#D9D9D9"/></mask><g mask="url(#a)"><path d="M0 0h249v249H0V0Z" fill="#162B22"/><path d="M80.73 62.25c7.859-.082 15.715-.16 23.572-.201 3.661-.02 7.321-.048 10.981-.093 3.539-.043 7.076-.065 10.615-.076 1.337-.007 2.675-.02 4.012-.041 18.733-.286 34.859 5.232 48.602 18.224 10.635 10.56 18.02 25.752 18.334 40.878-.046 18.498-5.761 35.395-19.021 48.666-14.014 13.026-29.945 17.646-48.747 17.428-5.056-.008-10.112-.036-15.167-.085-4.404-.035-8.807-.048-13.211-.065-6.657-.029-13.313-.084-19.97-.135v-35.016H65.169c-.521-11.724-.521-11.724 1.763-15.197 2.257-2.451 3.833-4.151 7.246-4.445l6.553.189v-15.562l-4.073.243c-3.386 0-4.533-.156-7.538-1.945-5.029-5.487-4.108-10.56-3.951-17.751h15.563V62.25Z" fill="#FDBC33"/><path d="M100.184 81.703c5.446-.097 10.894-.167 16.343-.214a732.04 732.04 0 0 0 5.544-.08c16.353-.291 29.259 1.067 42.003 12.33 8.749 9.931 13.438 18.979 13.193 32.376-.807 10.768-5.2 21.822-12.888 29.51-10.312 8.516-21.102 11.847-34.275 11.767l-2.597-.005c-2.724-.005-5.449-.017-8.175-.029a6158.2 6158.2 0 0 1-19.148-.061v-15.563l3.999-.027c4.914-.039 9.828-.103 14.743-.175 2.123-.027 4.246-.048 6.371-.061 3.059-.021 6.118-.066 9.177-.117l2.859-.003c5.995-.128 9.409-1.163 14.401-4.48h1.946c2.342-4.685 4.046-9.668 5.836-14.59h-59.332v-15.562h58.359c-1.291-7.522-1.291-7.522-4.863-12.645v-1.945l-2.128-.851c-2.736-1.094-2.736-1.094-4.71-2.11-4.286-1.38-8.462-1.279-12.938-1.333l-2.923-.057a2082.99 2082.99 0 0 0-9.217-.148l-6.259-.113c-5.107-.094-10.214-.175-15.321-.251V81.703Z" fill="#192D22"/><path d="M248.027 136.172H249V249H136.172v-.973l3.139-.502c34.291-5.645 65.044-21.261 85.737-50.015 12.864-18.551 20.019-39.032 22.979-61.338Z" fill="#FCFDFD"/><path d="M136.172 0H249v115.746h-.973l-.254-2.754c-3.043-29.729-15.039-54.562-35.734-76.031l-1.93-2.117C190.85 14.31 163.247 5.01 136.172.973V0ZM0 0h112.828v.973l-1.732.28C82.386 5.97 59.322 15.784 37.934 35.988l-2.211 2.022C14.826 57.806 5.683 84.21.973 111.855H0V0Zm0 136.172h.973l.502 3.139c4.046 24.579 12.43 47.31 29.152 66.091 1.8 2.029 3.527 4.121 5.18 6.272 18.967 21.967 48.584 31.552 76.048 36.353V249H0V136.172Z" fill="#FDFDFD"/></g></svg>
