<svg xmlns="http://www.w3.org/2000/svg" width="24" height="24" fill="none"><g clip-path="url(#a)"><mask id="b" maskUnits="userSpaceOnUse" x="0" y="0" width="25" height="25"><path d="M0 0h25v25H0V0Z" fill="#fff"/></mask><g mask="url(#b)"><path d="M12.5 25C19.404 25 25 19.404 25 12.5S19.404 0 12.5 0 0 5.596 0 12.5 5.596 25 12.5 25z" fill="#fff"/><path d="M14.932 4.776a5.417 5.417 0 0 0-5.35 4.806 5.38 5.38 0 0 0-4.137 7.95 5.38 5.38 0 0 0 7.84 1.779 5.38 5.38 0 0 0 1.518-1.664 5.377 5.377 0 0 0 .704-2.14 5.38 5.38 0 0 0-.576-10.732zm4.121 5.99a4.19 4.19 0 0 1-3.512 3.512v-3.512h3.512zM6.037 14.323a4.19 4.19 0 0 1 3.512-3.512v3.512H6.037zm8.241 1.217a4.17 4.17 0 0 1-1.399 2.545 4.163 4.163 0 0 1-5.444 0 4.163 4.163 0 0 1-1.399-2.545h8.241zm.045-4.774v3.557h-3.557v-3.557h3.557zm4.729-1.216h-8.241a4.17 4.17 0 0 1 1.399-2.545 4.163 4.163 0 0 1 5.444 0 4.163 4.163 0 0 1 1.399 2.545zM12.5 25a12.63 12.63 0 0 1-2.52-.254 12.43 12.43 0 0 1-4.47-1.881 12.536 12.536 0 0 1-4.529-5.5 12.44 12.44 0 0 1-.728-2.346 12.62 12.62 0 0 1 0-5.038 12.43 12.43 0 0 1 1.881-4.47 12.536 12.536 0 0 1 5.5-4.529A12.5 12.5 0 0 1 9.98.254a12.62 12.62 0 0 1 5.038 0 12.43 12.43 0 0 1 4.47 1.881 12.536 12.536 0 0 1 4.529 5.5 12.43 12.43 0 0 1 .729 2.346 12.62 12.62 0 0 1 0 5.038 12.43 12.43 0 0 1-1.881 4.47 12.536 12.536 0 0 1-5.5 4.529 12.43 12.43 0 0 1-2.346.729c-.829.169-1.673.254-2.52.254zm0-24.609a12.2 12.2 0 0 0-2.44.246c-1.549.317-3.02.936-4.33 1.822a12.14 12.14 0 0 0-4.387 5.328 12.05 12.05 0 0 0-.706 2.273 12.23 12.23 0 0 0 0 4.881c.317 1.549.936 3.02 1.822 4.33a12.14 12.14 0 0 0 5.328 4.387c.733.31 1.494.546 2.273.706a12.23 12.23 0 0 0 4.881 0 12.04 12.04 0 0 0 4.33-1.822 12.14 12.14 0 0 0 4.387-5.328c.31-.732.546-1.494.706-2.273a12.23 12.23 0 0 0 0-4.881 12.035 12.035 0 0 0-1.822-4.33 12.14 12.14 0 0 0-5.328-4.387A12.05 12.05 0 0 0 14.94.637 12.2 12.2 0 0 0 12.5.391z" fill="#26ddf9"/></g></g><defs><clipPath id="a"><path fill="#fff" d="M0 0h25v25H0z"/></clipPath></defs></svg>
