<svg xmlns="http://www.w3.org/2000/svg" width="292" height="292" viewBox="0 0 292 292"><defs><filter id="Ellipse_1465" width="292" height="292" x="0" y="0" filterUnits="userSpaceOnUse"><feOffset dy="1"/><feGaussianBlur result="blur" stdDeviation="6"/><feFlood flood-opacity=".161"/><feComposite in2="blur" operator="in"/><feComposite in="SourceGraphic"/></filter><style>.cls-2{fill:#26ddf9}</style></defs><g id="Group_26314" transform="translate(18 17)"><g filter="url(#Ellipse_1465)" transform="translate(-18 -17)"><circle id="Ellipse_1465-2" cx="128" cy="128" r="128" fill="#fff" transform="translate(18 17)"/></g><path id="Path_9374" d="M156.362 2a55.448 55.448 0 00-54.784 49.213 55.107 55.107 0 1060.684 60.687 55.106 55.106 0 00-5.9-109.9zm42.194 61.341a42.922 42.922 0 01-35.964 35.964V63.341zM65.283 99.768A42.924 42.924 0 01101.249 63.8v35.968zm84.391 12.457a42.653 42.653 0 01-84.392 0zm.46-48.884v36.427h-36.429V63.341zm48.424-12.457h-84.393a42.653 42.653 0 0184.392 0z" class="cls-2" transform="translate(-3.461 46.902)"/><path id="Subtraction_208" d="M128 256a128.946 128.946 0 01-25.8-2.6 127.3 127.3 0 01-45.769-19.26 128.373 128.373 0 01-46.375-56.316A127.355 127.355 0 012.6 153.8a129.248 129.248 0 010-51.593 127.3 127.3 0 0119.26-45.773 128.373 128.373 0 0156.317-46.375A127.356 127.356 0 01102.2 2.6a129.248 129.248 0 0151.593 0 127.3 127.3 0 0145.77 19.26 128.373 128.373 0 0146.375 56.316A127.355 127.355 0 01253.4 102.2a129.247 129.247 0 010 51.593 127.3 127.3 0 01-19.26 45.77 128.373 128.373 0 01-56.316 46.375A127.354 127.354 0 01153.8 253.4 128.946 128.946 0 01128 256zm0-252a124.916 124.916 0 00-24.99 2.519 123.32 123.32 0 00-44.34 18.658 124.364 124.364 0 00-44.926 54.557 123.379 123.379 0 00-7.225 23.276 125.209 125.209 0 000 49.981 123.32 123.32 0 0018.658 44.339 124.363 124.363 0 0054.556 44.926 123.38 123.38 0 0023.276 7.225 125.211 125.211 0 0049.981 0 123.32 123.32 0 0044.339-18.658 124.362 124.362 0 0044.926-54.556 123.38 123.38 0 007.225-23.276 125.211 125.211 0 000-49.981 123.321 123.321 0 00-18.657-44.34 124.363 124.363 0 00-54.556-44.926 123.377 123.377 0 00-23.277-7.225A124.918 124.918 0 00128 4z" class="cls-2"/></g></svg>