<svg width="76" height="76" viewBox="0 0 76 76" fill="none" xmlns="http://www.w3.org/2000/svg"><g clip-path="url(#a)"><rect width="75" height="75" rx="7.413" fill="#fff"/><path d="M21.247 64.4c-.544 0-.997-.119-1.36-.354-.353-.236-.53-.58-.53-1.033 0-.299.082-.54.245-.72a.857.857 0 0 1 .666-.286c.217 0 .39.06.517.177a.92.92 0 0 1 .258.38.888.888 0 0 1 .081.245c-.262.19-.394.412-.394.666 0 .172.055.317.163.435a.58.58 0 0 0 .449.177c.29 0 .516-.195.68-.585.171-.398.257-1.083.257-2.052v-7.706l-1.25-.19v-.3h3.941v.3l-1.25.19v7.706c0 .634-.063 1.164-.19 1.59a1.731 1.731 0 0 1-.72.992c-.363.245-.884.367-1.563.367Zm3.186-.273v-.285l1.332-.544 3.927-10.315h.218l3.71 10.655 1.25.204v.285h-3.995v-.285l1.114-.177-1.155-3.22h-3.615l-1.101 2.853 1.223.544v.285h-2.908Zm2.895-3.968h3.41l-1.63-4.784-1.78 4.784Zm7.009 3.968v-.285l1.332-.544 3.928-10.315h.217l3.71 10.655 1.25.204v.285H40.78v-.285l1.114-.177-1.155-3.22h-3.615l-1.1 2.853 1.222.544v.285h-2.908Zm2.895-3.968h3.411l-1.63-4.784-1.781 4.784Zm7.01 3.968v-.285l1.331-.544 3.928-10.315h.217l3.71 10.655 1.25.204v.285h-3.995v-.285l1.115-.177-1.156-3.22h-3.615l-1.1 2.853 1.223.544v.285h-2.91Zm2.894-3.968h3.411l-1.63-4.784-1.781 4.784Z" fill="#242523"/><path d="M57.39 13.592v28.306h-5.127V13.592h5.127Z" fill="#F06C00"/><path d="M57.393 18.793v13.59h-5.13v-13.59h5.13Z" fill="#F48A34"/><path d="M57.393 24.97v4.942h-5.13V24.97h5.13Z" fill="#F7B885"/><path d="M29.339 41.898V13.592h5.127v11.379h10.645V13.592h5.141v28.306h-5.141v-12.63H34.466v12.63H29.34ZM21.914 13.59h5.364v20.263c-.01 1.857-.23 3.857-1.037 5.2-.807 1.332-1.912 2.16-3.315 2.768-1.438.713-4.93.433-6.864-.024.134-1.416.313-3.549.434-4.687.987.304 2.19.534 3.296.248.708-.202 1.206-.418 1.646-1.198.383-.602.498-1.246.476-2.306V13.59Z" fill="#242523"/></g><defs><clipPath id="a"><circle cx="37.5" cy="37.5" r="37.5"/></clipPath></defs></svg>
