<svg xmlns="http://www.w3.org/2000/svg" width="24" height="24" fill="none"><g clip-path="url(#a)"><mask id="b" maskUnits="userSpaceOnUse" x="0" y="0" width="25" height="25"><path d="M0 0h25v25H0V0Z" fill="#fff"/></mask><g mask="url(#b)"><path d="M12.5 24.599A12.1 12.1 0 0 0 24.599 12.5 12.1 12.1 0 0 0 12.5.401 12.1 12.1 0 0 0 .401 12.5 12.1 12.1 0 0 0 12.5 24.599z" fill="#fc0"/><path d="M12.5 1.042c-2.637.005-5.19.924-7.225 2.599a11.41 11.41 0 0 0-3.94 6.591 11.404 11.404 0 0 0 1.132 7.595 11.4 11.4 0 0 0 5.691 5.155 11.404 11.404 0 0 0 7.669.379 11.41 11.41 0 0 0 6.171-4.569 11.4 11.4 0 0 0 1.875-7.446 11.405 11.405 0 0 0-3.271-6.947A11.46 11.46 0 0 0 12.5 1.042zM12.5 0a12.5 12.5 0 0 1 8.838 21.339A12.5 12.5 0 0 1 .951 17.284 12.5 12.5 0 0 1 6.607 1.476 12.5 12.5 0 0 1 12.5 0zm10.417 12.5a10.42 10.42 0 0 1-1.755 5.787 10.416 10.416 0 0 1-4.675 3.837 10.42 10.42 0 0 1-12.353-3.418 10.415 10.415 0 0 1-1.85-4.173 10.41 10.41 0 0 1 2.164-8.64 10.417 10.417 0 0 1 3.598-2.808 10.42 10.42 0 0 1 4.454-1 10.393 10.393 0 0 1 3.988.789A10.4 10.4 0 0 1 19.87 5.13a10.41 10.41 0 0 1 2.258 3.381c.523 1.264.791 2.62.789 3.988z" fill="#039"/><path d="m12.5 4.333.25.75h.75l-.583.5.25.667-.667-.417-.667.417.25-.667-.583-.5h.75l.25-.75zm-3.667 1 .25.75h.75l-.667.417.25.75-.583-.417-.667.417.25-.75-.667-.417h.833l.25-.75zM6.083 8l.25.75h.833l-.667.417.25.75-.667-.5-.583.5.25-.75-.667-.417h.75l.25-.75zm10.083-2.667.25.75h.833l-.667.417.25.75-.667-.417-.583.417.25-.75-.667-.417h.75l.25-.75zm3.667 3.333-.667.417.25.75-.667-.417-.583.417.25-.75-.667-.417h.75l.25-.75.25.75h.833zm1 3.667-.667.417.25.75-.583-.5-.667.5.25-.75-.667-.417h.833l.25-.75.167.75h.833zM19.5 17l-.667-.5-.667.5.25-.75-.583-.417h.75l.25-.75.25.75h.833l-.667.417.25.75zm-7.583 3.667.25-.75-.667-.5h.833l.25-.75.25.75h.75l-.583.5.167.75-.583-.5-.667.5zm-3.667-1 .25-.75-.667-.417h.75l.25-.75.25.75h.833l-.667.417.25.75-.667-.417-.583.417zm8.5 0-.583-.5-.667.5.25-.75-.667-.417h.833l.25-.75.25.75h.75l-.667.417.25.75zM4.167 12.333H5l.167-.75.25.75h.833l-.667.417.25.75-.667-.417-.583.417.25-.75-.667-.417zM5.5 17l.25-.75-.667-.417h.833l.25-.75.25.75h.75l-.583.417.25.75-.667-.5-.667.5z" fill="#fc0"/></g></g><defs><clipPath id="a"><path fill="#fff" d="M0 0h25v25H0z"/></clipPath></defs></svg>
