<svg width="256" height="256" viewBox="0 0 256 256" fill="none" xmlns="http://www.w3.org/2000/svg"><g clip-path="url(#a)"><path d="M128 251.897c68.427 0 123.897-55.47 123.897-123.897S196.427 4.103 128 4.103 4.103 59.573 4.103 128 59.573 251.897 128 251.897Z" fill="#FC0"/><path d="M128 10.667a116.778 116.778 0 1 0 82.965 34.368A117.332 117.332 0 0 0 128 10.667ZM128 0a128.001 128.001 0 0 1 90.51 218.51A128 128 0 1 1 128 0Z" fill="#039"/><path d="M234.667 128a106.664 106.664 0 0 1-65.847 98.547A106.672 106.672 0 0 1 23.383 148.81 106.667 106.667 0 0 1 128 21.333 106.524 106.524 0 0 1 234.667 128Z" fill="#039"/><path d="m128 44.373 2.56 7.68h7.68l-5.973 5.12 2.56 6.827L128 59.733 121.174 64l2.56-6.827-5.974-5.12h7.68l2.56-7.68Zm-37.546 10.24 2.56 7.68h7.68l-6.827 4.267 2.56 7.68-5.973-4.267-6.827 4.267 2.56-7.68-6.827-4.267h8.534l2.56-7.68ZM62.294 81.92l2.56 7.68h8.533l-6.827 4.267 2.56 7.68-6.826-5.12-5.974 5.12 2.56-7.68-6.826-4.267h7.68l2.56-7.68Zm103.253-27.307 2.56 7.68h8.533l-6.826 4.267 2.56 7.68-6.827-4.267-5.973 4.267 2.56-7.68-6.827-4.267h7.68l2.56-7.68Zm37.547 34.134-6.827 4.266 2.56 7.68L192 96.427l-5.973 4.266 2.56-7.68-6.827-4.266h7.68l2.56-7.68 2.56 7.68h8.534Zm10.24 37.546-6.827 4.267 2.56 7.68-5.973-5.12-6.827 5.12 2.56-7.68-6.827-4.267h8.534l2.56-7.68 1.706 7.68h8.534ZM199.68 174.08l-6.826-5.12-6.827 5.12 2.56-7.68-5.973-4.267h7.68l2.56-7.68 2.56 7.68h8.533l-6.827 4.267 2.56 7.68Zm-77.653 37.547 2.56-7.68-6.827-5.12h8.534l2.56-7.68 2.56 7.68h7.68l-5.974 5.12 1.707 7.68-5.973-5.12-6.827 5.12Zm-37.547-10.24 2.56-7.68-6.826-4.267h7.68l2.56-7.68 2.56 7.68h8.533l-6.827 4.267 2.56 7.68-6.826-4.267-5.974 4.267Zm87.04 0-5.973-5.12-6.827 5.12 2.56-7.68-6.826-4.267h8.533l2.56-7.68 2.56 7.68h7.68l-6.827 4.267 2.56 7.68ZM42.667 126.293H51.2l1.707-7.68 2.56 7.68H64l-6.826 4.267 2.56 7.68-6.827-4.267-5.973 4.267 2.56-7.68-6.827-4.267ZM56.32 174.08l2.56-7.68-6.826-4.267h8.533l2.56-7.68 2.56 7.68h7.68l-5.973 4.267 2.56 7.68-6.827-5.12-6.827 5.12Z" fill="#FC0"/></g><defs><clipPath id="a"><path fill="#fff" d="M0 0h256v256H0z"/></clipPath></defs></svg>
