<svg width="75" height="75" viewBox="0 0 75 75" fill="none" xmlns="http://www.w3.org/2000/svg"><g clip-path="url(#a)"><rect width="75" height="75" rx="7.413" fill="#fff"/><path d="M16.938 64.4c-.543 0-.996-.119-1.359-.354-.353-.236-.53-.58-.53-1.033 0-.299.082-.54.245-.72a.857.857 0 0 1 .666-.286c.217 0 .39.06.516.177a.92.92 0 0 1 .258.38.888.888 0 0 1 .082.245c-.263.19-.394.412-.394.666a.58.58 0 0 0 .612.612c.29 0 .516-.195.679-.585.172-.398.258-1.083.258-2.052v-7.706l-1.25-.19v-.3h3.941v.3l-1.25.19v7.706c0 .634-.064 1.164-.19 1.59a1.731 1.731 0 0 1-.72.992c-.363.245-.884.367-1.564.367Zm7.003-.273v-.285l1.25-.204V53.595h-2.242l-1.033 2.69h-.395v-3.03h8.848v3.03h-.408l-1.019-2.69h-2.256v10.043l1.25.204v.285h-3.995Zm15.333.136c-.508 0-.888-.122-1.142-.367-.254-.244-.426-.661-.517-1.25l-.258-1.821c-.09-.616-.303-1.096-.638-1.44-.327-.354-.839-.53-1.536-.53h-1.06v4.783l1.25.204v.285h-3.996v-.285l1.25-.204v-9.894l-1.25-.19v-.3h3.806c1.477 0 2.546.232 3.207.694.662.462.992 1.164.992 2.107 0 1.558-.942 2.46-2.826 2.704v.082c.697.1 1.254.349 1.671.747.426.399.693.929.802 1.59l.177 1.17c.072.506.154.85.244 1.032.1.181.25.272.449.272.136 0 .28-.041.435-.123a2.18 2.18 0 0 0 .435-.34l.23.245c-.262.3-.534.512-.815.64-.28.126-.584.19-.91.19Zm-3.63-5.735c.662 0 1.174-.2 1.537-.598.371-.408.557-1.006.557-1.794v-.285c0-1.504-.852-2.256-2.555-2.256h-1.06v4.933h1.522ZM45.697 64.4c-.843 0-1.672-.24-2.487-.72l-1.155.584h-.3V60.77h.3l1.169 2.528c.752.535 1.612.802 2.582.802.797 0 1.454-.208 1.97-.625.526-.426.789-1.02.789-1.78 0-.553-.168-.988-.503-1.305-.335-.326-.879-.584-1.631-.775l-2.256-.584c-.788-.209-1.382-.562-1.78-1.06-.4-.507-.599-1.105-.599-1.794 0-.625.123-1.178.367-1.658.254-.49.621-.865 1.101-1.128.48-.272 1.051-.408 1.713-.408.824 0 1.563.14 2.215.421l.992-.42h.3v2.772h-.3l-.978-1.985a5.051 5.051 0 0 0-2.216-.489c-.788 0-1.408.204-1.862.612-.453.398-.68.928-.68 1.59 0 .489.16.874.477 1.155.326.28.801.503 1.427.666l2.432.639c.789.199 1.373.543 1.753 1.033.39.48.585 1.214.585 2.201 0 1.006-.313 1.794-.938 2.365-.616.57-1.445.856-2.487.856Zm6.734-.272v-.285l1.264-.204v-4.131l-3.303-5.763-1.073-.19v-.3h4.09v.3l-1.263.19L55 58.679l2.623-4.472-1.631-.652v-.3h3.044v.3l-1.046.666-2.827 4.838v4.58l1.264.204v.285H52.43Z" fill="#242523"/><path d="M57.39 13.592v28.306h-5.127V13.592h5.127Z" fill="#F06C00"/><path d="M57.393 18.793v13.59h-5.13v-13.59h5.13Z" fill="#F48A34"/><path d="M57.393 24.97v4.942h-5.13V24.97h5.13Z" fill="#F7B885"/><path d="M29.339 41.898V13.592h5.127v11.379h10.645V13.592h5.141v28.306h-5.141v-12.63H34.466v12.63H29.34ZM21.914 13.59h5.364v20.263c-.01 1.857-.23 3.857-1.037 5.2-.807 1.332-1.912 2.16-3.315 2.768-1.438.713-4.93.433-6.864-.024.134-1.416.313-3.549.434-4.687.987.304 2.19.534 3.296.248.708-.202 1.206-.418 1.646-1.198.383-.602.498-1.246.476-2.306V13.59Z" fill="#242523"/></g><defs><clipPath id="a"><circle cx="37.5" cy="37.5" r="37.5"/></clipPath></defs></svg>
