<svg width="250" height="250" viewBox="0 0 250 250" fill="none" xmlns="http://www.w3.org/2000/svg"><g clip-path="url(#a)"><path d="M125 5C58.735 5 5 58.735 5 125s53.735 120 120 120 120-53.735 120-120S191.265 5 125 5Z" fill="#fff"/><path fill-rule="evenodd" clip-rule="evenodd" d="M0 125C0 55.974 55.974 0 125 0c69.026 0 125 55.974 125 125 0 69.026-55.974 125-125 125C55.974 250 0 194.026 0 125Zm12.999-.001c0-61.847 50.153-112 112-112s112 50.153 112 112-50.153 112-112 112-112-50.153-112-112Z" fill="url(#b)"/><path d="M125 21.999c-56.877 0-103 46.123-103 103 0 56.878 46.123 103 103 103 56.878 0 103-46.122 103-103 0-56.877-46.122-103-103-103Z" fill="url(#c)"/><path d="M170.051 110.551c2.039-13.63-8.339-20.958-22.53-25.846l4.603-18.464-11.239-2.801-4.482 17.978c-2.954-.737-5.989-1.431-9.005-2.12l4.514-18.096-11.233-2.8-4.606 18.457a374.708 374.708 0 0 1-7.177-1.687l.013-.057-15.5-3.87-2.99 12.004s8.339 1.91 8.163 2.03c4.552 1.136 5.374 4.148 5.237 6.536l-5.244 21.035-7.369 29.546c-.557 1.383-1.969 3.458-5.15 2.67.112.163-8.17-2.039-8.17-2.039l-5.58 12.865 14.627 3.646c2.72.682 5.387 1.396 8.012 2.068l-4.651 18.676 11.226 2.801 4.607-18.477c3.066.832 6.044 1.6 8.957 2.324l-4.591 18.391 11.239 2.801 4.652-18.641c19.165 3.627 33.576 2.164 39.643-15.17 4.888-13.957-.244-22.008-10.327-27.258 7.343-1.693 12.875-6.524 14.351-16.502Zm-25.68 36.01c-3.473 13.957-26.973 6.412-34.592 4.52l6.172-24.742c7.619 1.902 32.05 5.666 28.42 20.222Zm3.476-36.211c-3.169 12.695-22.728 6.245-29.072 4.664l5.595-22.44c6.345 1.581 26.778 4.532 23.477 17.776Z" fill="#fff"/></g><defs><linearGradient id="b" x1="212.851" y1="212.855" x2="142.687" y2="1.455" gradientUnits="userSpaceOnUse"><stop stop-color="#7538F5"/><stop offset="1" stop-color="#9B63F9"/></linearGradient><linearGradient id="c" x1="52" y1="52" x2="198" y2="198" gradientUnits="userSpaceOnUse"><stop stop-color="#7C3FF6"/><stop offset="1" stop-color="#7132F5"/></linearGradient><clipPath id="a"><rect width="250" height="250" rx="125" fill="#fff"/></clipPath></defs></svg>
