<svg xmlns="http://www.w3.org/2000/svg" viewBox="0 0 100 100" style="enable-background:new 0 0 100 100" xml:space="preserve"><path d="M50 100c27.6 0 50-22.4 50-50S77.6 0 50 0 0 22.4 0 50s22.4 50 50 50z" style="fill:#31cb9e"/><path d="M44.6 54.7 74 70.5c1 .5 1.1 1.8.2 2.4L54.3 87.2c-.9.7-2.2.2-2.5-.9l-7.2-31.6zm-.9-40.3c1.2-.8 2.8.1 2.5 1.5L38.3 50l7.8 34.1c.3 1.3-1.3 2.3-2.5 1.5l-20-14.3c-1-.7-1.6-1.9-1.6-3.1V31.8c0-1.2.6-2.4 1.6-3.1l20.1-14.3zm32.2 19.5c1-.6 2.4.1 2.4 1.3v29.6c0 1.1-1.3 1.8-2.4 1.3L46 50l29.9-16.1zM51.8 13.7c.2-1.1 1.6-1.5 2.5-.9L74.2 27c.9.6.8 1.9-.2 2.4L44.6 45.3l7.2-31.6z" style="fill:#fff"/></svg>
