<svg xmlns="http://www.w3.org/2000/svg" width="24" height="24" fill="none"><g clip-path="url(#a)"><path d="M12.5 25C19.404 25 25 19.404 25 12.5S19.404 0 12.5 0 0 5.596 0 12.5 5.596 25 12.5 25z" fill="#6c8275"/><path d="m11.541 12.501 6.766 3.876a.354.354 0 0 0 .361.004.358.358 0 0 0 .181-.313v-7.14a.357.357 0 0 0-.047-.181.35.35 0 0 0-.133-.132.36.36 0 0 0-.182-.046.356.356 0 0 0-.18.053l-6.766 3.879zm6.623-5.595-4.626-3.402a.368.368 0 0 0-.492.04.37.37 0 0 0-.087.156l-1.689 7.578 6.853-3.789a.34.34 0 0 0 .129-.116c.032-.049.051-.105.056-.164s-.007-.117-.032-.17a.34.34 0 0 0-.111-.132m-4.631 14.588 4.631-3.402a.353.353 0 0 0 .091-.472.348.348 0 0 0-.129-.118l-6.855-3.789 1.689 7.578a.363.363 0 0 0 .151.218.37.37 0 0 0 .258.059.356.356 0 0 0 .165-.069m-3.753-9.14 1.759-8.228a.35.35 0 0 0-.542-.354L6.493 7.233a.946.946 0 0 0-.366.744v8.769a.94.94 0 0 0 .093.421.93.93 0 0 0 .272.334l4.485 3.445a.35.35 0 0 0 .541-.355L9.782 12.36z" fill="#fff"/></g><defs><clipPath id="a"><path fill="#fff" d="M0 0h25v25H0z"/></clipPath></defs></svg>
