<svg width="256" height="256" viewBox="0 0 256 256" fill="none" xmlns="http://www.w3.org/2000/svg"><path d="M128 256c70.692 0 128-57.308 128-128C256 57.308 198.692 0 128 0 57.308 0 0 57.307 0 128c0 70.692 57.307 128 128 128Z" fill="#6C8275"/><path d="m118.179 128.005 69.288 39.689a3.662 3.662 0 0 0 3.697.043 3.657 3.657 0 0 0 1.846-3.203V91.421a3.637 3.637 0 0 0-1.844-3.207 3.632 3.632 0 0 0-3.699.075l-69.288 39.716Zm67.819-57.288-47.366-34.838a3.764 3.764 0 0 0-5.037.405c-.424.45-.731.998-.894 1.595l-17.294 77.599 70.175-38.8a3.497 3.497 0 0 0 1.887-2.862 3.497 3.497 0 0 0-1.471-3.097m-47.421 149.385 47.421-34.839a3.543 3.543 0 0 0 1.5-3.131 3.556 3.556 0 0 0-1.891-2.912l-70.2-38.8 17.294 77.6a3.746 3.746 0 0 0 4.185 2.836 3.755 3.755 0 0 0 1.691-.702" fill="#fff"/><path d="m100.163 126.564 18.015-84.255a3.575 3.575 0 0 0-5.543-3.627L66.489 74.071a9.562 9.562 0 0 0-3.742 7.622v89.8a9.559 9.559 0 0 0 3.742 7.733l45.924 35.282a3.576 3.576 0 0 0 5.543-3.631l-17.793-84.313Z" fill="#fff"/></svg>
