<svg xmlns="http://www.w3.org/2000/svg" width="24" height="24" fill="none"><g clip-path="url(#a)"><path d="M12.5 25C19.404 25 25 19.404 25 12.5S19.404 0 12.5 0 0 5.596 0 12.5 5.596 25 12.5 25z" fill="#f69988"/><g fill="#fff"><path fill-rule="evenodd" d="m12.506 3.662 4.385 6.847-4.385 2.549-4.384-2.549 4.385-6.847zm-3.042 6.523 3.042-4.751 3.042 4.751-3.043 1.769-3.042-1.769z"/><path d="m12.499 14.564-5.087-2.958-.139.217a6.172 6.172 0 0 0 .841 7.703 6.214 6.214 0 0 0 8.77 0 6.173 6.173 0 0 0 .841-7.703l-.139-.217-5.087 2.958z"/></g></g><defs><clipPath id="a"><path fill="#fff" d="M0 0h25v25H0z"/></clipPath></defs></svg>
