<svg xmlns="http://www.w3.org/2000/svg" width="24" height="24" fill="none"><g clip-path="url(#a)"><mask id="b" maskUnits="userSpaceOnUse" x="0" y="0" width="25" height="25"><path d="M0 0h25v25H0V0Z" fill="#fff"/></mask><g mask="url(#b)"><path d="M12.5 25C19.404 25 25 19.403 25 12.5S19.404 0 12.5 0 0 5.596 0 12.5 5.596 25 12.5 25z" fill="url(#c)"/><path d="m17.999 4.953-1.531-1.528-5.109 5.109 5.109 5.112 1.531-1.531-3.581-3.581 3.581-3.581zm-4.358 11.512-5.109-5.112-1.531 1.531 3.581 3.581-3.581 3.581 1.531 1.528 5.109-5.109zM10.707 9.18l5.11 5.11-1.523 1.524-5.11-5.11 1.523-1.523z" fill="#fff"/></g></g><defs><linearGradient id="c" x1="0" y1="12.5" x2="25" y2="12.5" gradientUnits="userSpaceOnUse"><stop stop-color="#01aec9"/><stop offset="1" stop-color="#1e8fca"/></linearGradient><clipPath id="a"><path fill="#fff" d="M0 0h25v25H0z"/></clipPath></defs></svg>
