<svg width="256" height="256" viewBox="0 0 256 256" fill="none" xmlns="http://www.w3.org/2000/svg">
  <path d="M128 256C198.692 256 256 198.692 256 128C256 57.3075 198.692 0 128 0C57.3075 0 0 57.3075 0 128C0 198.692 57.3075 256 128 256Z" fill="white"/>
  <path d="M128.181 19.416L108.258 30.872L53.966 62.252L34.042 73.708V182.292L53.966 193.748L108.756 225.128L128.68 236.584L148.604 225.128L202.398 193.748L222.322 182.292V73.708L202.397 62.252L148.105 30.872L128.181 19.416ZM73.889 159.38V96.616L128.181 65.236L182.473 96.616V159.376L128.181 190.756L73.889 159.38Z" fill="#2A5ADA"/>
</svg>