<svg xmlns="http://www.w3.org/2000/svg" width="24" height="24" fill="none"><g clip-path="url(#a)"><path d="M12.5 25C19.404 25 25 19.404 25 12.5S19.404 0 12.5 0 0 5.596 0 12.5 5.596 25 12.5 25z" fill="#fff"/><path d="m12.518 1.896-1.946 1.119L5.27 6.079 3.324 7.198v10.604l1.946 1.119 5.351 3.064 1.946 1.119 1.946-1.119 5.253-3.064 1.946-1.119V7.198l-1.946-1.119-5.302-3.064-1.946-1.119zM7.216 15.564V9.435l5.302-3.064 5.302 3.064v6.129l-5.302 3.064-5.302-3.064z" fill="#2a5ada"/></g><defs><clipPath id="a"><path fill="#fff" d="M0 0h25v25H0z"/></clipPath></defs></svg>
