<svg xmlns="http://www.w3.org/2000/svg" width="24" height="24" fill="none"><g clip-path="url(#a)"><mask id="b" maskUnits="userSpaceOnUse" x="0" y="0" width="25" height="25"><path d="M0 0h25v25H0V0Z" fill="#fff"/></mask><g mask="url(#b)"><path d="M24.499 16.077a12.48 12.48 0 0 1-9.773 8.807v-3.557a5.929 5.929 0 0 0 2.22-1.49 5.74 5.74 0 0 0 .871-1.223 5.8 5.8 0 0 0 .676-2.747c0-3.145-2.27-4.402-4.398-5.334l-1.078-.476c-1.152-.517-2.034-.977-2.034-1.763 0-1.088.949-1.672 1.845-1.672.953 0 1.493.352 2.064 1.341l.443.767 2.848-1.828-.371-.689a5.53 5.53 0 0 0-3.084-2.656V.294l.828.179.088.02a.717.717 0 0 1 .091.024.09.09 0 0 1 .027.007l.23.061a12.5 12.5 0 0 1 7.464 5.984 12.5 12.5 0 0 1 1.046 9.509z" fill="#745ddf"/><path d="M14.996 16.04c0 1.432-1.294 2.317-2.49 2.317-1.436 0-2.257-1.186-2.415-2.287l-.135-.956-3.446.97.156.77c.493 2.429 2.152 4.176 4.405 4.703V25a12.58 12.58 0 0 1-1.811-.348l-.25-.068a12.51 12.51 0 0 1-6.504-4.497A12.512 12.512 0 0 1 0 12.588V.578A.495.495 0 0 1 .493.085H11.07v3.439a5.062 5.062 0 0 0-2.949 2.284 4.82 4.82 0 0 0-.635 2.422v.068c.033 2.804 2.095 3.977 4.04 4.858l.973.422.081.037c1.543.706 2.415 1.169 2.415 2.426z" fill="#2eb6ea"/><path d="M18.492 15.868a5.789 5.789 0 0 1-.676 2.746 5.74 5.74 0 0 1-.872 1.223 5.93 5.93 0 0 1-2.219 1.489l.002 3.574-.999.088h-2.652l-.005-3.432c-2.253-.527-3.912-2.274-4.405-4.703l-.156-.77 3.446-.97.135.956c.16 1.102.98 2.288 2.416 2.288 1.196 0 2.49-.885 2.49-2.317 0-1.257-.872-1.719-2.415-2.426l-.081-.037-.973-.422c-1.946-.882-4.007-2.054-4.04-4.858V8.23a4.82 4.82 0 0 1 .635-2.422 5.066 5.066 0 0 1 2.949-2.284V.081c2.253-.019 2.426-.006 3.655.21v3.266a5.53 5.53 0 0 1 3.084 2.656l.371.689-2.847 1.826-.443-.767c-.571-.99-1.111-1.341-2.064-1.341-.895 0-1.844.584-1.844 1.672 0 .787.882 1.246 2.034 1.763l1.077.477c2.129.932 4.399 2.189 4.399 5.334z" fill="#fff"/></g></g><defs><clipPath id="a"><path fill="#fff" d="M0 0h25v25H0z"/></clipPath></defs></svg>
