<svg xmlns="http://www.w3.org/2000/svg" width="128" height="128" viewBox="0 0 128 128"><defs><clipPath id="a"><path d="M0 0h128v128H0z"/></clipPath></defs><g clip-path="url(#a)"><path d="M125.435 82.316a63.907 63.907 0 0 1-50.039 45.091v-18.212a30.378 30.378 0 0 0 11.364-7.628 29.384 29.384 0 0 0 4.461-6.26 29.685 29.685 0 0 0 3.46-14.063c0-16.1-11.623-22.537-22.52-27.311l-5.518-2.439c-5.9-2.646-10.413-5-10.413-9.029 0-5.569 4.86-8.562 9.444-8.562 4.878 0 7.645 1.8 10.568 6.867l2.266 3.926 14.581-9.357-1.9-3.528a28.319 28.319 0 0 0-15.792-13.6V1.507c1.418.242 2.819.553 4.238.917.138.035.294.069.45.1a3.682 3.682 0 0 1 .467.121.535.535 0 0 1 .138.035c.381.1.778.19 1.176.311a63.992 63.992 0 0 1 43.569 79.325Z" fill="#745ddf"/><path d="M76.779 82.127c0 7.334-6.625 11.865-12.748 11.865-7.351 0-11.554-6.071-12.367-11.71l-.692-4.895-17.642 4.968.8 3.944c2.525 12.436 11.018 21.379 22.555 24.077v17.625a64.405 64.405 0 0 1-9.271-1.782c-.432-.1-.848-.225-1.28-.346A64.037 64.037 0 0 1 0 64.45V2.96A2.528 2.528 0 0 1 2.525.435h54.156v17.608a25.936 25.936 0 0 0-15.1 11.692 24.69 24.69 0 0 0-3.252 12.4v.346c.171 14.358 10.724 20.36 20.687 24.874L64 69.517l.415.19c7.902 3.616 12.364 5.985 12.364 12.42Z" fill="#2eb6ea"/><path d="M94.681 81.244a29.685 29.685 0 0 1-3.459 14.062 29.384 29.384 0 0 1-4.463 6.261 30.378 30.378 0 0 1-11.364 7.626l.008 18.3-5.115.452s-10.969.329-13.581 0l-.027-17.573c-11.536-2.699-20.029-11.641-22.554-24.079l-.8-3.944 17.642-4.964.692 4.895c.817 5.641 5.02 11.713 12.371 11.713 6.123 0 12.748-4.532 12.748-11.865 0-6.434-4.463-8.8-12.367-12.419l-.415-.19-4.981-2.162c-9.963-4.516-20.514-10.518-20.687-24.874v-.346a24.69 24.69 0 0 1 3.252-12.4A25.936 25.936 0 0 1 56.68 18.043V.417C68.216.319 69.099.387 75.395 1.493v16.723a28.319 28.319 0 0 1 15.792 13.6l1.9 3.528-14.578 9.349-2.266-3.926C73.32 35.699 70.552 33.9 65.675 33.9c-4.584 0-9.444 2.992-9.444 8.562 0 4.03 4.514 6.382 10.413 9.029l5.516 2.442c10.9 4.774 22.521 11.208 22.521 27.311Z" fill="#fff"/></g></svg>
