<svg xmlns="http://www.w3.org/2000/svg" width="24" height="24" fill="none"><g clip-path="url(#a)"><path d="M12.5 25C19.404 25 25 19.404 25 12.5S19.404 0 12.5 0 0 5.596 0 12.5 5.596 25 12.5 25z" fill="url(#b)"/><path d="M12.5 22.504c5.525 0 10.004-4.479 10.004-10.004 0-5.525-4.479-10.004-10.004-10.004-5.525 0-10.004 4.479-10.004 10.004 0 5.525 4.479 10.004 10.004 10.004Z" stroke="url(#c)" stroke-width="2.56"/><g fill="#fff"><path d="M17.222 7.558h-1.218l-3.589 7.579-3.576-7.579H7.607v10.016h1.362v-6.622l3.118 6.622h.668l3.105-6.622v6.622h1.362V7.558z"/><path d="M5.604 10.435h13.621v1.434H5.604v-1.434zm0 3.226h13.621v1.434H5.604v-1.434z"/></g></g><defs><linearGradient id="b" x1="12.5" y1="0" x2="12.5" y2="25" gradientUnits="userSpaceOnUse"><stop stop-color="#ffa6aa"/><stop offset=".206" stop-color="#fb7c83"/><stop offset=".519" stop-color="#fa515a"/><stop offset="1" stop-color="#ff5c65"/></linearGradient><linearGradient id="c" x1="12.5" y1="2.371" x2="12.5" y2="22.629" gradientUnits="userSpaceOnUse"><stop stop-color="#e3252e"/><stop offset="1" stop-color="#ff898f"/></linearGradient><clipPath id="a"><path fill="#fff" d="M0 0h25v25H0z"/></clipPath></defs></svg>
