<svg xmlns="http://www.w3.org/2000/svg" width="24" height="24" fill="none"><style>.B{fill-rule:evenodd}</style><g clip-path="url(#E)"><mask id="A" maskUnits="userSpaceOnUse" x="0" y="0" width="25" height="25"><path d="M0 0h25v25H0V0Z" fill="#fff"/></mask><g mask="url(#A)"><path d="M12.5 25C19.404 25 25 19.404 25 12.5S19.404 0 12.5 0 0 5.596 0 12.5 5.596 25 12.5 25z" fill="url(#B)"/><path d="M8.848 8.118v9.367h7.805L8.848 8.118z" fill="url(#C)" class="B"/><path d="M1.043 17.484h7.805V8.118l-7.805 9.367z" fill="#fff" class="B"/><path d="M2.498 19.982a12.79 12.79 0 0 0 2.498 2.498h14.986a12.795 12.795 0 0 0 2.498-2.498H2.498z" fill="#fc9965" class="B"/><path d="M4.995 22.48a12.49 12.49 0 0 0 14.986 0H4.995z" fill="#ff2d55" class="B"/><path d="M16.754 13.113v6.869h5.726l-5.726-6.869z" fill="url(#D)" class="B"/><path d="M16.753 17.484H1.043c.386.886.875 1.724 1.455 2.498H16.76v-2.498h-.006z" fill="#ffbc5b" class="B"/><path d="M11.034 19.982h5.72v-6.869l-5.72 6.869z" fill="#fff" class="B"/><path d="M16.754 11.24a3.122 3.122 0 1 0 0-6.245 3.122 3.122 0 0 0 0 6.245zM8.848 6.244a1.561 1.561 0 1 0 0-3.122 1.561 1.561 0 1 0 0 3.122z" fill="#ffc95b"/></g></g><defs><linearGradient id="B" x1="21.35" y1="3.65" x2="3.65" y2="21.35" gradientUnits="userSpaceOnUse"><stop stop-color="#ff2d55"/><stop offset="1" stop-color="#ffbc5b"/></linearGradient><linearGradient id="C" x1="12.751" y1="8.118" x2="12.751" y2="17.484" gradientUnits="userSpaceOnUse"><stop stop-color="#a524b3"/><stop offset="1" stop-color="#ff2d55"/></linearGradient><linearGradient id="D" x1="19.617" y1="13.113" x2="19.617" y2="19.982" gradientUnits="userSpaceOnUse"><stop stop-color="#a524b3"/><stop offset="1" stop-color="#ff2d55"/></linearGradient><clipPath id="E"><path fill="#fff" d="M0 0h25v25H0z"/></clipPath></defs></svg>
