<svg data-name="Layer 1" xmlns="http://www.w3.org/2000/svg" viewBox="0 0 771.511 792"><path d="M384.417 54.21a327.724 327.724 0 0 1 113.748 17.571 322.125 322.125 0 0 1 102 57.307c31.211 25.759 57.949 55.512 79.206 90.086a321.948 321.948 0 0 1 42.79 113.383 358.987 358.987 0 0 1 5.274 76.139c-2.476 67.88-22.418 129.928-62.579 185.1-36.673 50.381-83.03 89.081-139.687 115.16-26.519 12.207-54.434 19.987-83.255 24.6a360.7 360.7 0 0 1-75.865 3.787c-65.325-3.395-124.992-23.537-178.017-62.132-42.663-31.053-77.516-69.275-103.319-115.473a318.724 318.724 0 0 1-35.5-100.276 369 369 0 0 1-5.356-69.407c.728-59.688 15.207-115.648 45.783-167.2 17.126-28.875 38.7-54.073 62.918-77.176a329.332 329.332 0 0 1 84.417-59 323.333 323.333 0 0 1 90.7-28.422 316.414 316.414 0 0 1 56.742-4.047Z" style="fill:#ffce3b"/><path d="M533.475 545.023c4.744 1.4 5.428 4.94 5.43 9.088a46.631 46.631 0 0 1-1.982 14.043c-1.418 4.549-4.659 6.845-9.018 7.777-8.989 1.924-17.943 4.038-27.057 5.34-7.44 1.062-14.867 2.214-22.314 3.246-10.593 1.47-21.256 2.11-31.881 3.145-3.865.377-7.792.692-11.711.712-4.38.022-8.745.5-13.121.686-2.7.117-4.341 2.93-5.3 5.151-4.214 9.737-11.828 14.79-21.958 15.943-10.746 1.223-20.471-3.475-25.972-13.993-2.239-4.282-5.451-6.746-10.855-6.812-11.165-.135-22.33-.885-33.48-1.619q-12.093-.8-24.14-2.228c-8.572-1.006-17.107-2.323-25.653-3.546-10.124-1.45-20.073-3.789-30.054-5.967-5.309-1.159-8.676-4.02-10.1-9.538-1.347-5.2-.873-10.388-.974-15.592a3.773 3.773 0 0 1 .818-2.329c1.752-2.057.748-2.963-1.175-4.061a106.723 106.723 0 0 1-24.7-19.079 121.322 121.322 0 0 1-22.9-34.9c-6.347-14.352-10.032-29.418-12.592-44.778a167.214 167.214 0 0 1-1.73-37.948 242.136 242.136 0 0 1 12.844-62.958c3.394-9.983 7.505-19.685 11.854-29.305 3.3-7.293 7.754-14.079 9.584-22.049a60.132 60.132 0 0 0 .619-22.972c-.96-6.229-1.574-12.529-1.985-18.849a130.073 130.073 0 0 1-.413-14.814c.651-13.184 2.318-26.139 9.254-37.83 4.971-8.379 11.537-14.7 21.365-16.654 10.526-2.093 20.1 1.045 29.172 6.123 13.615 7.622 25.18 17.842 36.508 28.446 4.488 4.2 8.474 8.97 13.511 12.584 8.586 6.16 17.842 7.772 28.06 4.676a142.729 142.729 0 0 1 25.047-5.4 167.441 167.441 0 0 1 26.82-.93 146.777 146.777 0 0 1 36.98 6.464c10.779 3.344 20.565.911 29.336-6.163 3.952-3.188 7.29-6.972 10.943-10.447 10.685-10.162 21.628-20.028 34.388-27.566 8.085-4.776 16.564-8.532 26.3-8.463 10.143.073 17.8 4.7 23.92 12.409 6.406 8.069 9.283 17.473 10.736 27.514a100.953 100.953 0 0 1 .967 20.917c-.611 9.535-1.766 19.026-3.023 28.517a51.37 51.37 0 0 0 3.949 28.489c7.507 16.274 15.318 32.428 20.889 49.487a277.675 277.675 0 0 1 9.806 39.212c2.449 14.266 2.721 28.636 2.018 42.957a142.631 142.631 0 0 1-12.034 50.793 139.155 139.155 0 0 1-20.982 33.567 133.1 133.1 0 0 1-21.969 20.631c-3.92 2.95-7.89 5.815-12.045 8.873Z" style="fill:#fff"/></svg>
