<svg xmlns="http://www.w3.org/2000/svg" width="24" height="24" fill="none"><g clip-path="url(#a)"><path d="M25 12.5C25 5.596 19.404 0 12.5 0S0 5.596 0 12.5 5.596 25 12.5 25 25 19.404 25 12.5z" fill="#000"/><g fill="#fff"><path d="M3.353 7.092 17.951 21.69l3.753-3.752L7.106 3.339 3.353 7.092z"/><path d="M7.106 21.689 21.704 7.092l-3.753-3.753L3.353 17.937l3.753 3.752z"/></g><path d="M20.377 12.5A7.88 7.88 0 0 0 12.5 4.623 7.88 7.88 0 0 0 4.623 12.5a7.88 7.88 0 0 0 7.877 7.877 7.88 7.88 0 0 0 7.877-7.877z" fill="#000"/><path d="M15.464 10.53a.768.768 0 0 0-.722 0l-1.685.992-1.143.631-1.655.992a.768.768 0 0 1-.722 0l-1.294-.782a.732.732 0 0 1-.361-.631V10.23a.74.74 0 0 1 .361-.631l1.294-.752a.768.768 0 0 1 .722 0l1.294.782c.211.12.361.361.361.632v.992l1.143-.662V9.568a.74.74 0 0 0-.361-.631l-2.407-1.413a.768.768 0 0 0-.722 0L7.099 8.967a.66.66 0 0 0-.361.601v2.827a.74.74 0 0 0 .361.631l2.437 1.413c.211.12.481.12.722 0l1.655-.962 1.143-.662 1.655-.962a.768.768 0 0 1 .722 0l1.294.752c.211.12.361.361.361.631v1.504a.74.74 0 0 1-.361.631l-1.264.752a.768.768 0 0 1-.722 0l-1.294-.752a.732.732 0 0 1-.361-.631v-.962l-1.143.662v.992a.74.74 0 0 0 .361.631l2.437 1.413c.211.12.482.12.722 0l2.437-1.413a.732.732 0 0 0 .361-.631v-2.857a.74.74 0 0 0-.361-.632l-2.437-1.413z" fill="#8247e5"/></g><defs><clipPath id="a"><path fill="#fff" d="M0 0h25v25H0z"/></clipPath></defs></svg>
