<svg width="125" height="125" viewBox="0 0 125 125" fill="none" xmlns="http://www.w3.org/2000/svg"><mask id="a" style="mask-type:luminance" maskUnits="userSpaceOnUse" x="1" y="1" width="123" height="123"><path d="M62.5 123.728c33.815 0 61.227-27.412 61.227-61.227S96.315 1.273 62.5 1.273 1.272 28.686 1.272 62.501s27.413 61.227 61.228 61.227Z" fill="#fff"/></mask><g mask="url(#a)"><path d="M129.525-4.523H-4.525v134.05h134.05V-4.523Z" fill="url(#b)"/></g><path d="M80.208 75.712 97.53 65.71a2.978 2.978 0 0 0 1.485-2.575V43.132c0-1.057-.57-2.045-1.485-2.575L80.208 30.555a2.983 2.983 0 0 0-2.973 0L59.913 40.557a2.981 2.981 0 0 0-1.485 2.575V78.88L46.28 85.892 34.133 78.88V64.852L46.28 57.84l8.013 4.625v-9.41l-6.528-3.768a2.978 2.978 0 0 0-2.972 0L27.47 59.29a2.978 2.978 0 0 0-1.485 2.575v20.002c0 1.058.57 2.045 1.485 2.575l17.323 10.003a2.99 2.99 0 0 0 2.972 0l17.323-10a2.981 2.981 0 0 0 1.485-2.575V46.122l.22-.125L78.72 39.11l12.148 7.012V60.15L78.72 67.162l-8-4.62v9.41l6.515 3.763a2.99 2.99 0 0 0 2.973 0v-.003Z" fill="#fff"/><defs><linearGradient id="b" x1="-29.023" y1="6.494" x2="109.362" y2="91.179" gradientUnits="userSpaceOnUse"><stop stop-color="#A229C5"/><stop offset="1" stop-color="#7B3FE4"/></linearGradient></defs></svg>
