<svg xmlns="http://www.w3.org/2000/svg" width="24" height="24" fill="none"><g clip-path="url(#a)"><mask id="b" maskUnits="userSpaceOnUse" x="0" y="0" width="25" height="25"><path d="M12.5 24.746A12.25 12.25 0 0 0 24.745 12.5 12.25 12.25 0 0 0 12.5.255 12.25 12.25 0 0 0 .254 12.5 12.25 12.25 0 0 0 12.5 24.746z" fill="#fff"/></mask><g mask="url(#b)"><path d="M25.905-.905H-.905v26.81h26.81V-.905z" fill="url(#c)"/></g><path d="m16.042 15.142 3.464-2a.59.59 0 0 0 .297-.515V8.626a.6.6 0 0 0-.297-.515l-3.464-2a.595.595 0 0 0-.594 0l-3.464 2a.59.59 0 0 0-.297.515v7.15l-2.43 1.402-2.429-1.402V12.97l2.429-1.402 1.603.925v-1.882l-1.306-.754a.595.595 0 0 0-.594 0l-3.465 2.001a.59.59 0 0 0-.297.515v4c0 .212.114.409.297.515l3.465 2.001a.6.6 0 0 0 .594 0l3.465-2a.59.59 0 0 0 .297-.515v-7.15l.044-.025 2.385-1.377 2.43 1.402v2.806l-2.43 1.402-1.6-.924v1.882l1.303.753a.6.6 0 0 0 .595 0v-.001z" fill="#fff"/></g><defs><linearGradient id="c" x1="-5.805" y1="1.299" x2="21.872" y2="18.236" gradientUnits="userSpaceOnUse"><stop stop-color="#a229c5"/><stop offset="1" stop-color="#7b3fe4"/></linearGradient><clipPath id="a"><path fill="#fff" d="M0 0h25v25H0z"/></clipPath></defs></svg>
