<svg xmlns="http://www.w3.org/2000/svg" width="56" height="56" fill="none" class="hidden md:block w-[30px] h-[30px]"><path fill="currentColor" d="m28.147 29.59-.06.001-4.63-13.806-6.23.037-.117 19.822a19.6 19.6 0 0 1 3.624-1.455l.073-12.376.07-1.59 5.441 13.03c.711-.065.916-.09 1.651-.094s.928.03 1.639.074l5.597-13.24.05 1.591-.074 12.52c1.311.378 2.526.853 3.607 1.413l.117-19.823-6.23.037-4.54 13.86zM22.91 43.15a2.457 2.457 0 0 0 2.436-2.436 2.39 2.39 0 0 0-2.407-2.408 2.457 2.457 0 0 0-2.437 2.436 2.39 2.39 0 0 0 2.408 2.408m10.002-.058a2.457 2.457 0 0 0 2.436-2.437 2.39 2.39 0 0 0-2.407-2.408 2.457 2.457 0 0 0-2.437 2.437 2.39 2.39 0 0 0 2.408 2.408"/><path fill="currentColor" d="M28.165.164c-15.352.09-27.91 12.647-28 28-.091 15.352 12.319 27.763 27.67 27.673s27.909-12.648 28-28C55.925 12.484 43.516.073 28.165.164m-.308 51.961c-13.303.078-24.06-10.68-23.98-23.983C3.954 14.838 14.84 3.953 28.142 3.875s24.06 10.68 23.98 23.983c-.078 13.304-10.963 24.189-24.266 24.267"/></svg>
