<svg id="_图层_2" data-name="图层 2" xmlns="http://www.w3.org/2000/svg" viewBox="0 0 1068.49 1068.74"><defs><style>.cls-1{fill:#345941}.cls-2{fill:#c7ccc8}</style></defs><g id="_图层_1-2" data-name="图层 1"><g id="gDXCRh.tif"><path class="cls-1" d="M844.09 205.55c264.12 248.9 139.28 693.54-214.24 768.62-329.81 70.04-617.7-234.96-528.44-560.41C190.44 89.18 597.46-26.88 844.09 205.55Zm-408.76 10.6H300.95v485.57c10.1-4.69 19.02-12.08 28.67-17.79 19.24-11.39 39.53-21.29 60.47-29.19.71-.28 1.78-2.02 1.78-2.48V346.53l102.84 280.81c2.74 3.09 17.82-.43 22.5-.61 13.69-.52 29.33-.46 43.04 0 4.21.14 11.21 2.14 15.02 1.96 3.19-.15 5.57-8.17 6.72-11.11 34.85-89.14 62-182.03 96.15-271.52.44-1.16 1.07-4.02 2.46-4.03v309.22c22.95 9.88 45.71 19.96 67.27 32.64 7.66 4.5 15.21 11.58 23.65 13.81V217.65l-1.5-1.5H636.14l-98.4 290.74-102.42-290.74Zm47.46 484.57c-13.6-3.87-26.69-7.34-41.03-7.43-2.75-1.92 1.15-13.84-2.43-16.55h-23.48v16.98c-21.64 1.6-44.53 13-49.67 35.76-8.14 36.04 13.61 56.6 47.98 59.34l1.69 1.31v34.47c-16.58.92-32.43-3.92-47.96-8.99v32.97c15.6 6.23 31.36 7.67 47.96 8.99v14.49c.63.99 1.38 1.29 2.5 1.5 3.2.59 15.53.46 19.03.05 1.45-.17 2.57-.12 3.45-1.55v-15.49c10.82-1.84 21.97-4.11 31.31-10.15 27.84-18.02 26.74-61.9-3.29-77.31-8.99-4.61-19.02-5.4-28.02-8.95v-34.47c14.47-.77 28.14 4.81 41.96 7.99v-32.97Zm173.84-23.98h-23.98v16.98c-29.97 1.74-55.12 22.24-51.83 54.33 2.9 28.27 26.72 38.53 51.83 41.59v34.97c-16.46.89-32.11-3.6-47.4-8.96-2.81 1.74-.59 4.59-.51 7.42.23 8.45-.39 16.95.09 25.38 15.25 6.96 31.41 7.47 47.82 9.13v14.49l1.5 1.5h22.48v-15.49c2.61-3.23 6.53-2.08 10.04-2.94 30.09-7.37 46.92-27.23 40.47-59.56-4.23-21.23-29.28-32.45-48.83-34.1l-1.69-1.31V725.7c14.91-1.33 28.64 5.25 42.96 7.99v-32.97c-7.64-1.68-15-4.44-22.76-5.72-3.59-.59-20.21-.72-20.21-3.77v-14.49Z"/><path class="cls-2" d="m435.33 216.15 102.42 290.74 98.4-290.74h133.88l1.5 1.5v480.07c-8.44-2.24-16-9.31-23.65-13.81-21.56-12.68-44.32-22.76-67.27-32.64V342.05c-1.39.01-2.02 2.87-2.46 4.03-34.14 89.49-61.3 182.39-96.15 271.52-1.15 2.94-3.52 10.96-6.72 11.11-3.81.18-10.81-1.82-15.02-1.96-13.71-.46-29.35-.52-43.04 0-4.69.18-19.77 3.7-22.5.61L391.88 346.55v305.73c0 .46-1.08 2.2-1.78 2.48-20.94 7.9-41.23 17.8-60.47 29.19-9.65 5.71-18.57 13.1-28.67 17.79V216.15h134.38Z"/><path class="cls-2" d="M482.79 700.72v32.97c-13.83-3.19-27.49-8.76-41.96-7.99v34.47c9 3.54 19.03 4.34 28.02 8.95 30.03 15.41 31.14 59.29 3.29 77.31-9.34 6.04-20.49 8.31-31.31 10.15v15.49c-.88 1.43-1.99 1.38-3.45 1.55-3.5.41-15.83.53-19.03-.05-1.12-.2-1.87-.51-2.5-1.5v-14.49c-16.6-1.32-32.35-2.77-47.96-8.99v-32.97c15.52 5.07 31.37 9.91 47.96 8.99v-34.47l-1.69-1.31c-34.37-2.74-56.12-23.31-47.98-59.34 5.14-22.76 28.02-34.16 49.67-35.76v-16.98h23.48c3.58 2.71-.31 14.63 2.43 16.55 14.34.09 27.43 3.56 41.03 7.43Zm-66.94 55.95V727.2c-1.46-2.2-6.81.07-8.98 1.01-6.97 3.02-9.78 7.33-9.06 15.05.8 8.53 10.8 11.8 18.04 13.42Zm24.98 36.97v29.97c23.12-1.93 22.83-26.94 0-29.97Zm215.8-116.9v14.49c0 3.05 16.61 3.18 20.21 3.77 7.76 1.28 15.12 4.03 22.76 5.72v32.97c-14.32-2.74-28.05-9.32-42.96-7.99v34.47l1.69 1.31c19.55 1.64 44.6 12.87 48.83 34.1 6.45 32.33-10.38 52.19-40.47 59.56-3.51.86-7.44-.29-10.04 2.94v15.49h-22.48l-1.5-1.5v-14.49c-16.41-1.66-32.57-2.17-47.82-9.13-.48-8.43.14-16.94-.09-25.38-.08-2.83-2.3-5.68.51-7.42 15.29 5.36 30.94 9.85 47.4 8.96v-34.97c-25.12-3.06-48.93-13.32-51.83-41.59-3.29-32.08 21.87-52.58 51.83-54.33v-16.98h23.98Zm-23.97 49.96c-24.78-.44-24.22 28.19 0 29.97V726.7Zm23.97 68.44v26.98c0 3.69 10.32-.95 11.94-2.04 7.11-4.78 8.63-15.03 1.99-20.88-1.88-1.65-12.99-7.41-13.93-4.05Z"/><path class="cls-1" d="M415.85 756.67c-7.25-1.62-17.25-4.89-18.04-13.42-.72-7.72 2.09-12.03 9.06-15.05 2.17-.94 7.53-3.21 8.98-1.01v29.47Zm24.98 36.97c22.83 3.04 23.12 28.05 0 29.97v-29.97Zm191.83-66.94v29.97c-24.22-1.79-24.78-30.41 0-29.97Zm23.97 68.44c.94-3.35 12.05 2.4 13.93 4.05 6.65 5.85 5.12 16.1-1.99 20.88-1.62 1.09-11.94 5.73-11.94 2.04v-26.98Z"/></g><path class="cls-2" d="M890.73 932.67c-130.84 116.79-308.29 161.76-480.26 121.78C162.67 996.85-14.28 762.81.91 507.94c.24-4.01-.81-10.44-.02-13.84.19-.81 1.89-.31 2.07-2.14.77-7.64.01-16.2 1.04-24.88C24.39 294.85 133.39 140.46 285.74 60.42 345.09 29.24 423.83 4.86 490.93 1.05c130.22-7.39 253.3 23.97 359.1 101.29 273.82 200.13 293.44 604.71 40.7 830.32ZM840.7 204.09C583.82-32.58 168.04 98.71 94.08 438.25c-75 344.31 259.87 639.18 592.14 520.2 315.95-113.13 402.74-525.65 154.49-754.37Z"/></g></svg>
