<svg xmlns="http://www.w3.org/2000/svg" width="24" height="24" fill="none"><g clip-path="url(#a)"><path d="M12.5 25C19.404 25 25 19.404 25 12.5S19.404 0 12.5 0 0 5.596 0 12.5 5.596 25 12.5 25z" fill="#303145"/><path d="M20.311 12.234a7.81 7.81 0 0 0-1.178-3.96A7.817 7.817 0 0 0 16.1 5.469a7.81 7.81 0 0 0-4.04-.866 7.814 7.814 0 0 0-5.887 12.383 7.81 7.81 0 0 0 3.222 2.587 6.76 6.76 0 0 0 .863-1.856l.503-1.17a2.45 2.45 0 0 0 2.444-.621l.026-.026a2.43 2.43 0 0 0-2.319.345l.692-1.313a2.44 2.44 0 0 0 2.463-.503l.026-.026a2.434 2.434 0 0 0-2.3.216l.752-1.157a2.44 2.44 0 0 0 1.316-.02 2.45 2.45 0 0 0 1.115-.699l.02-.026a2.4 2.4 0 0 0-2.137.327l.065-.085.483-.601a2.882 2.882 0 0 0 1.941-2.248l.006-.039h-.006a2.864 2.864 0 0 0-2.085 2.196l-.464.575a2.4 2.4 0 0 0 .151-1.04 2.391 2.391 0 0 0-.308-1.005l-.02.026a2.442 2.442 0 0 0-.209 2.549l-.719 1.091a2.417 2.417 0 0 0-.634-2.137l-.013.033a2.44 2.44 0 0 0 .418 2.502l-.654 1.235a2.52 2.52 0 0 0-.718-2.196l-.013.033a2.53 2.53 0 0 0 .549 2.554l-.392.895a.357.357 0 0 0-.118-.072 2.587 2.587 0 0 1-.634-.281 2.573 2.573 0 0 0-.518-.235c-.706-.229-.601-.568-.966-1.255a5.344 5.344 0 0 0-.378-.404.87.87 0 0 1-.294-.32 1.536 1.536 0 0 1-.15-.518.474.474 0 0 0-.333-.445c-1.039-.359-.575-1.705-.536-1.882a2.25 2.25 0 0 0-.15-.666.56.56 0 0 1-.02-.085.92.92 0 0 1 .216-.79c.124-.124.556-.327.647-.444s.157-.248.248-.359a3.79 3.79 0 0 1 .993-.712c.301-.163.353-.581.47-.712.196-.222.497-.222.719-.418.111-.098.276-.15.38-.255a3.41 3.41 0 0 1 1.882-.869c.487-.04.977.005 1.449.131.068.011.136.027.202.046 1.078.039 2.372.261 2.842.719a1.93 1.93 0 0 1 .503.81c.076.238.182.467.314.679l.287.47c.183.297.242.653.163.993a.912.912 0 0 0-.013.51 3.55 3.55 0 0 0 .529.627 1.59 1.59 0 0 0 .261.209c.221.132.435.276.64.431a.35.35 0 0 1-.15.327c-.183.163-.536.418-.536.418a.86.86 0 0 0 .065.209c.052.091.17.235.131.359s-.294.229-.222.366c.072.144.255.183.203.314-.052.124-.307.345-.281.438s.235.966-.248 1.117c-.599.118-1.206.186-1.816.203a.581.581 0 0 0-.477.301 1.6 1.6 0 0 0-.176.556c-.177.695-.41 1.375-.699 2.032l-.046.098a1.21 1.21 0 0 0-.118.412.818.818 0 0 0 .183.281.33.33 0 0 0 .345.098 7.88 7.88 0 0 0 5.282-7.575z" fill="#00dacc"/></g><defs><clipPath id="a"><path fill="#fff" d="M0 0h25v25H0z"/></clipPath></defs></svg>
