<svg width="256" height="256" viewBox="0 0 256 256" fill="none" xmlns="http://www.w3.org/2000/svg"><circle cx="128" cy="128" r="128" fill="#303145"/><path d="M207.987 125.276A80.001 80.001 0 0 0 55.752 92.649a80.007 80.007 0 0 0 40.437 107.763 69.238 69.238 0 0 0 8.833-19.002 215.617 215.617 0 0 1 5.151-11.978 25.11 25.11 0 0 0 25.023-6.36l.268-.269a24.876 24.876 0 0 0-23.75 3.534c2.208-4.618 4.618-9.099 7.091-13.448a24.977 24.977 0 0 0 25.224-5.152l.268-.268a24.955 24.955 0 0 0-23.549 2.208c2.474-4.081 5.017-8.095 7.696-11.844a25.053 25.053 0 0 0 24.888-7.36l.201-.268a24.578 24.578 0 0 0-21.878 3.346c.202-.269.47-.601.668-.869a226.297 226.297 0 0 1 4.947-6.155 29.454 29.454 0 0 0 19.871-23.016l.067-.403h-.067a29.321 29.321 0 0 0-21.345 22.479c-1.604 1.94-3.211 3.887-4.748 5.886a24.573 24.573 0 0 0-1.604-20.942l-.202.269a25.045 25.045 0 0 0-2.141 26.094c-2.544 3.614-5.017 7.292-7.36 11.172a24.727 24.727 0 0 0-6.49-21.878l-.135.335a24.965 24.965 0 0 0 4.283 25.624c-2.343 4.081-4.551 8.296-6.692 12.646a25.858 25.858 0 0 0-7.36-22.479l-.134.335a25.936 25.936 0 0 0 5.621 26.147 176.653 176.653 0 0 0-4.014 9.165 3.639 3.639 0 0 0-1.204-.735 26.468 26.468 0 0 1-6.49-2.876 26.854 26.854 0 0 0-5.3-2.41c-7.226-2.342-6.156-5.819-9.894-12.847a53.143 53.143 0 0 0-3.872-4.137 8.91 8.91 0 0 1-3.01-3.279 15.61 15.61 0 0 1-1.541-5.3 4.883 4.883 0 0 0-3.413-4.551c-10.639-3.678-5.886-17.462-5.487-19.271a23.061 23.061 0 0 0-1.54-6.823 5.723 5.723 0 0 1-.202-.869 9.402 9.402 0 0 1 2.208-8.095c1.272-1.272 5.689-3.346 6.625-4.55.936-1.205 1.604-2.544 2.544-3.679a38.79 38.79 0 0 1 10.168-7.292c3.078-1.672 3.615-5.954 4.816-7.293 2.007-2.276 5.085-2.276 7.36-4.283 1.138-1.003 2.827-1.54 3.887-2.607a34.901 34.901 0 0 1 19.27-8.897 43.685 43.685 0 0 1 14.839 1.34c.7.117 1.392.273 2.074.469 11.038.403 24.288 2.675 29.104 7.36a19.762 19.762 0 0 1 5.151 8.296 31.352 31.352 0 0 0 3.212 6.957l2.943 4.816a13.543 13.543 0 0 1 1.671 10.169 9.297 9.297 0 0 0-.134 5.219 36.34 36.34 0 0 0 5.42 6.423c.814.806 1.71 1.524 2.675 2.141a72.214 72.214 0 0 1 6.557 4.417 3.588 3.588 0 0 1-1.54 3.346c-1.873 1.671-5.487 4.283-5.487 4.283.13.739.355 1.458.667 2.141.534.936 1.739 2.409 1.34 3.678-.4 1.268-3.011 2.343-2.276 3.745.735 1.474 2.608 1.873 2.074 3.212-.533 1.272-3.144 3.533-2.876 4.484.269.95 2.41 9.893-2.544 11.441a111.323 111.323 0 0 1-18.599 2.074 5.97 5.97 0 0 0-4.883 3.077 16.238 16.238 0 0 0-1.805 5.689 133.074 133.074 0 0 1-7.159 20.808s-.201.402-.469 1.003a12.393 12.393 0 0 0-1.205 4.215 8.461 8.461 0 0 0 1.872 2.877 3.371 3.371 0 0 0 3.534 1.003 80.637 80.637 0 0 0 54.086-77.574Z" fill="#00DACC"/></svg>
