<svg width="600" height="600" viewBox="0 0 600 600" fill="none" xmlns="http://www.w3.org/2000/svg"><g clip-path="url(#a)"><path d="M300 600c165.685 0 300-134.315 300-300S465.685 0 300 0 0 134.315 0 300s134.315 300 300 300Z" fill="#FC784A"/><path d="M300 600c165.685 0 300-134.315 300-300S465.685 0 300 0 0 134.315 0 300s134.315 300 300 300Z" fill="url(#b)"/><path d="M300 600c165.685 0 300-134.315 300-300S465.685 0 300 0 0 134.315 0 300s134.315 300 300 300Z" fill="#FC784A"/><path d="M300 600c165.685 0 300-134.315 300-300S465.685 0 300 0 0 134.315 0 300s134.315 300 300 300Z" fill="url(#c)"/><path d="M300 600c165.685 0 300-134.315 300-300S465.685 0 300 0 0 134.315 0 300s134.315 300 300 300Z" fill="#FC784A"/><path d="M300 600c165.685 0 300-134.315 300-300S465.685 0 300 0 0 134.315 0 300s134.315 300 300 300Z" fill="url(#d)"/><path d="M300 600c165.685 0 300-134.315 300-300S465.685 0 300 0 0 134.315 0 300s134.315 300 300 300Z" fill="url(#e)"/><path d="M300 600c165.685 0 300-134.315 300-300S465.685 0 300 0 0 134.315 0 300s134.315 300 300 300Z" fill="url(#f)"/><path d="M300 600c165.685 0 300-134.315 300-300S465.685 0 300 0 0 134.315 0 300s134.315 300 300 300Z" fill="#FC784A"/><path d="M300 600c165.685 0 300-134.315 300-300S465.685 0 300 0 0 134.315 0 300s134.315 300 300 300Z" fill="url(#g)"/><path d="M300 600c165.685 0 300-134.315 300-300S465.685 0 300 0 0 134.315 0 300s134.315 300 300 300Z" fill="url(#h)"/><path d="M300 600c165.685 0 300-134.315 300-300S465.685 0 300 0 0 134.315 0 300s134.315 300 300 300Z" fill="url(#i)"/><path d="M325.39 117.859c2.962-.058 15.011-.316 16.603 1.485.127.882-.202 1.923-.68 2.659-5.185 8.024-11.372 15.644-16.655 23.597-3.841 6.284-7.005 5.399-13.444 5.551-45.327 1.074-87.001 25.958-112.847 62.653-24.265 34.452-31.973 73.441-24.666 114.7 7.336 41.427 28.04 75.582 62.648 99.9a171.332 171.332 0 0 0 140.4 25.826c7.55-1.925 13.682-4.027 20.928-6.798 3.306-1.265 12.62-5.955 14.939-6.358l.208.151c-.754 1.048-3.821 2.773-5.088 3.541-20.196 13.457-48.009 19.769-71.888 20.797-48 2.067-91.64-11.236-127.203-44.194-23.8-22.058-42.358-49.169-51.352-80.652-3.676-12.867-5.57-27.569-6.138-40.863a175.793 175.793 0 0 1 46.787-126.295c29.194-31.718 71.259-51.569 114.068-55.27 4.343-.375 8.991-.253 13.38-.43Z" fill="#FEFDFD"/><path d="M213.82 121.019c.118-.011.236-.04.354-.034.358.019.62.105.857.365 1.532 1.683 1.231 20.629.872 23.856-.469 4.221-1.746 5.158-4.922 7.702-37.721 30.215-60.839 71.447-66.139 119.587a205.551 205.551 0 0 0 10.97 90.008c2.133 6.082 4.914 13.413 7.846 19.19a148.129 148.129 0 0 0 16.608 25.267 190.294 190.294 0 0 0 129.091 69.876 181.986 181.986 0 0 0 139.295-44.927 180.75 180.75 0 0 0 16.449-16.405c2.309-2.618 4.504-5.38 6.788-8.009 1.248-1.436 4.633-5.994 6.599-5.764 2.82 2.541-7.347 14.036-9.287 16.432a206.948 206.948 0 0 1-69.156 51.291 191.212 191.212 0 0 1-146.691 5.808 192.76 192.76 0 0 1-91.083-68.826c-6.231-8.726-10.846-17.14-16.038-26.453-27.396-49.131-28.767-108.693-9.488-161.045a202.688 202.688 0 0 1 59.343-85.121c4.32-3.659 12.596-10.429 17.732-12.798Z" fill="#FEFDFD"/><path d="M310.59 156.878c3.517-.521 5.027 1.087 2.929 4.102-5.507 7.918-11.118 15.875-16.544 23.845-3.405 5.002-6.512 5.304-12.006 6.719-2.763.712-5.704 1.538-8.416 2.46a115.003 115.003 0 0 0-47.856 32.018 123.639 123.639 0 0 0-30.579 89.1c3.39 60.588 48.967 109.408 106.627 124.406a172.407 172.407 0 0 0 12.981 2.835c2.697.463 19.383 2.304 20.199 3.032l-.241.255c-5.339.898-9.226.977-14.617.813-30.822-1.535-63.012-14.294-86.88-33.837-20.734-16.978-40.22-42.427-49.598-67.673-3.605-9.703-6.14-22.193-7.145-32.46a142.712 142.712 0 0 1 32.163-104.336 140.92 140.92 0 0 1 77.186-47.971c7.58-1.747 14.106-2.564 21.797-3.308Z" fill="#FEFDFD"/><path d="M255.514 232.947c1.293-.177 3.151-.383 4.098.573.067.888-.157 1.451-.775 2.158-2.459 2.816-5.265 5.561-7.877 8.237a110.167 110.167 0 0 0-10.609 12.509 94.585 94.585 0 0 0-15.717 33.524c-4.284 17.623-3.303 34.561.669 52.129 4.888 21.612 14.36 38.858 30.452 54.125a151.065 151.065 0 0 0 8.359 7.312c2.551 2.05 12.61 9.03 13.641 10.727l-.1.292c-1.962.171-5.403-1.815-7.041-2.721-4.779-2.607-9.491-6.283-13.755-9.51-45.033-34.079-64.079-92.749-40.437-145.276 1.248-2.772 5.08-12.031 6.978-13.741 6.683-6.022 23.486-9.407 32.114-10.338Z" fill="#FEFDFD"/><path d="M234.421 298.499c12.302-.221 11.065-.079 9.02 10.912a72.929 72.929 0 0 0-1.046 8.46c-.733 10.914.508 25.057 3.357 35.644a174.837 174.837 0 0 0 3.6 11.554c.524 1.517 2.391 5.535 1.91 6.86-.721.157-.342.164-1.157-.266-2.655-2.584-5.077-6.222-7.022-9.407a93.194 93.194 0 0 1-13.384-40.452c-.348-3.839-1.195-19.442 1.195-22.112.989-1.107 2.154-1.114 3.527-1.193Z" fill="#FEFDFD"/></g><defs><radialGradient id="b" cx="0" cy="0" r="1" gradientUnits="userSpaceOnUse" gradientTransform="rotate(64.407 36.885 133.386) scale(593.202)"><stop stop-color="#68B3FE"/><stop offset=".168" stop-color="#65A0FE"/><stop offset=".62" stop-color="#22834A"/><stop offset="1" stop-color="#21BF63"/></radialGradient><radialGradient id="c" cx="0" cy="0" r="1" gradientUnits="userSpaceOnUse" gradientTransform="rotate(61.812 36.863 118.902) scale(619.524)"><stop stop-color="#5C7FCD"/><stop offset=".061" stop-color="#3F6FC2"/><stop offset=".484" stop-color="#298963"/><stop offset="1" stop-color="#317943"/></radialGradient><radialGradient id="e" cx="0" cy="0" r="1" gradientUnits="userSpaceOnUse" gradientTransform="matrix(0 390 -390 0 300 0)"><stop stop-color="#1BA8A8"/><stop offset="1" stop-color="#277B94"/></radialGradient><radialGradient id="f" cx="0" cy="0" r="1" gradientUnits="userSpaceOnUse" gradientTransform="matrix(0 390 -390 0 300 0)"><stop stop-color="#7796FA"/><stop offset="1" stop-color="#187D7D"/></radialGradient><radialGradient id="h" cx="0" cy="0" r="1" gradientUnits="userSpaceOnUse" gradientTransform="matrix(0 390 -390 0 300 0)"><stop stop-color="#1BA8A8"/><stop offset="1" stop-color="#277B94"/></radialGradient><radialGradient id="i" cx="0" cy="0" r="1" gradientUnits="userSpaceOnUse" gradientTransform="matrix(0 390 -390 0 300 0)"><stop stop-color="#7796FA"/><stop offset="1" stop-color="#187D7D"/></radialGradient><linearGradient id="d" x1="97.275" y1="-100.545" x2="438.965" y2="600" gradientUnits="userSpaceOnUse"><stop stop-color="#1BA8A8"/><stop offset=".265" stop-color="#1BA8A8"/><stop offset=".634" stop-color="#268395"/><stop offset="1" stop-color="#287993"/></linearGradient><linearGradient id="g" x1="97.275" y1="-100.545" x2="438.965" y2="600" gradientUnits="userSpaceOnUse"><stop stop-color="#1BA8A8"/><stop offset=".265" stop-color="#1BA8A8"/><stop offset=".634" stop-color="#268395"/><stop offset="1" stop-color="#287993"/></linearGradient><clipPath id="a"><path fill="#fff" d="M0 0h600v600H0z"/></clipPath></defs></svg>
