<svg width="1024" height="1024" viewBox="0 0 1024 1024" fill="none" xmlns="http://www.w3.org/2000/svg"><g clip-path="url(#a)"><rect width="1024" height="1024" rx="512" fill="#E5FFC3"/><circle cx="511.248" cy="511.248" r="511.248" fill="#CCE7FF"/><g clip-path="url(#b)"><path d="m874.787 1424.83-180.21-53.33-135.904 80.74-94.819-.04-135.983-80.7-180.132 53.33L92.946 1241l54.793-204.02-54.793-172.488 54.793-213.783L429.21 817.83h164.106l281.471-167.121 54.794 213.783-54.794 172.488L929.581 1241l-54.794 183.83Z" fill="#FF5C16"/><path d="m147.784 650.709 281.452 167.227-11.194 114.765-270.258-281.992Zm294.099 435.351-23.801-153.266L265.73 1037.01l-.079-.04v.08l.472 107.28 61.781-58.27h113.979Zm432.908-435.351L593.339 817.936l11.155 114.765 270.297-281.992ZM756.88 1037.05h.04-.04v-.08l-.039.04-152.352-104.216-23.801 153.266h113.94l61.82 58.27.432-107.28Z" fill="#FF5C16"/><path d="M593.359 817.839H429.252l-11.155 114.773 58.172 374.868h70.073l58.211-374.868-11.194-114.773Z" fill="#FF8D5D"/><path d="M147.74 650.709 92.946 864.492l54.794 172.488h117.836l152.44-104.26L147.74 650.709Zm727.063 0 54.794 213.783-54.794 172.488H756.967l-152.44-104.26 270.276-282.011Z" fill="#661800"/></g><path d="M304.263 647.155V540.092h272.789v-53.474H376.827l-72.564-62.809V295.483l72.564-73.076h67.718v-70.275h132.507v70.275h140.281V329.47H444.545v53.474h201.246l72.564 68.985v122.15l-72.564 73.076h-68.739v70.275l-132.507.909v-71.184H304.263Z" fill="#190066"/></g><defs><clipPath id="a"><rect width="1024" height="1024" rx="512" fill="#fff"/></clipPath><clipPath id="b"><path fill="#fff" transform="translate(92.945 650.709)" d="M0 0h836.635v836.635H0z"/></clipPath></defs></svg>
