<svg xmlns="http://www.w3.org/2000/svg" width="24" height="24" fill="none"><g clip-path="url(#a)"><path d="M12.5 25C19.404 25 25 19.404 25 12.5S19.404 0 12.5 0 0 5.596 0 12.5 5.596 25 12.5 25z" fill="#fff"/><path d="M16.786 5c-1.77 0-3.214 1.449-3.261 3.224v3.598l-1.025.047-1.025.047V8.224c0-1.775-1.491-3.224-3.308-3.177-1.724 0-3.121 1.448-3.168 3.177v8.598c.047 1.776 1.491 3.224 3.307 3.177 1.77-.047 3.168-1.448 3.168-3.177v-3.598l1.025-.047 1.025-.047v3.645c.047 1.776 1.491 3.224 3.307 3.177 1.77-.047 3.168-1.449 3.168-3.177V8.224A3.224 3.224 0 0 0 16.786 5zM8.261 6.308a1.89 1.89 0 0 1 1.91 1.916v3.785c-.932.14-1.863.42-2.748.794-.373.187-.745.374-1.071.654V8.224c0-1.028.839-1.916 1.91-1.916zm1.91 10.513a1.89 1.89 0 0 1-1.91 1.916 1.89 1.89 0 0 1-1.91-1.916v-.841c0-.748.606-1.495 1.63-1.916.699-.327 1.444-.514 2.236-.654l-.047 3.411zm6.615 1.916a1.89 1.89 0 0 1-1.91-1.916v-3.785a11.51 11.51 0 0 0 2.748-.794c.373-.187.745-.374 1.071-.654v5.233a1.921 1.921 0 0 1-1.91 1.916zm.279-7.71c-.699.327-1.444.514-2.236.654V8.224a1.89 1.89 0 0 1 1.91-1.916 1.89 1.89 0 0 1 1.91 1.916v.841c.047.794-.559 1.495-1.584 1.962z" fill="url(#b)"/></g><defs><linearGradient id="b" x1="12.5" y1="5" x2="2.127" y2="15.342" gradientUnits="userSpaceOnUse"><stop stop-color="#00e8a2"/><stop offset="1" stop-color="#00ade8"/></linearGradient><clipPath id="a"><path fill="#fff" d="M0 0h25v25H0z"/></clipPath></defs></svg>
