<svg width="256" height="256" viewBox="0 0 256 256" fill="none" xmlns="http://www.w3.org/2000/svg"><circle cx="128" cy="128" r="128" fill="#fff"/><path d="M171.886 51.2c-18.127 0-32.914 14.833-33.392 33.014v36.843c-3.339 0-6.677.478-10.494.478-3.816 0-7.155 0-10.494.479v-37.8c0-18.181-15.265-33.014-33.869-32.535-17.65 0-31.96 14.832-32.437 32.535v88.039c.477 18.182 15.265 33.015 33.868 32.536 18.127-.478 32.438-14.833 32.438-32.536V135.41c3.339 0 6.678-.478 10.494-.478 3.817 0 7.155 0 10.494-.478v37.321c.478 18.181 15.265 33.014 33.868 32.536 18.128-.479 32.438-14.833 32.438-32.536v-87.56c0-18.182-14.788-33.015-32.914-33.015ZM84.592 64.597c10.97 0 19.557 8.613 19.557 19.617v38.757c-9.54 1.435-19.08 4.306-28.144 8.134-3.816 1.913-7.632 3.827-10.971 6.698V84.214c0-10.526 8.586-19.617 19.557-19.617Zm19.557 107.656c0 11.005-8.586 19.618-19.558 19.618-10.97 0-19.557-8.613-19.557-19.618v-8.612c0-7.656 6.201-15.312 16.695-19.617 7.156-3.35 14.788-5.264 22.897-6.699l-.477 34.928Zm67.737 19.618c-10.972 0-19.558-8.613-19.558-19.618v-38.756c9.541-1.435 19.081-4.306 28.144-8.134 3.816-1.914 7.633-3.828 10.971-6.699v53.589c0 11.005-9.063 19.618-19.557 19.618Zm2.861-78.948c-7.155 3.349-14.787 5.263-22.896 6.698V84.214c0-11.004 8.587-19.617 19.558-19.617s19.557 8.613 19.557 19.617v8.613c.477 8.134-5.724 15.311-16.219 20.096Z" fill="url(#a)"/><defs><linearGradient id="a" x1="128" y1="51.2" x2="21.778" y2="157.1" gradientUnits="userSpaceOnUse"><stop stop-color="#00E8A2"/><stop offset="1" stop-color="#00ADE8"/></linearGradient></defs></svg>
