<svg width="256" height="256" viewBox="0 0 256 256" fill="none" xmlns="http://www.w3.org/2000/svg">
<circle cx="128" cy="128" r="128" fill="white"/>
<path d="M171.886 51.2C153.759 51.2 138.972 66.0326 138.494 84.2144V121.057C135.155 121.057 131.817 121.535 128 121.535C124.184 121.535 120.845 121.535 117.506 122.014V84.2144C117.506 66.0326 102.241 51.2 83.6374 51.6785C65.9878 51.6785 51.6772 66.5111 51.2002 84.2144V172.253C51.6772 190.435 66.4648 205.268 85.0685 204.789C103.195 204.311 117.506 189.956 117.506 172.253V135.41C120.845 135.41 124.184 134.932 128 134.932C131.817 134.932 135.155 134.932 138.494 134.454V171.775C138.972 189.956 153.759 204.789 172.362 204.311C190.49 203.832 204.8 189.478 204.8 171.775V84.2144C204.8 66.0326 190.012 51.2 171.886 51.2ZM84.5915 64.5972C95.5629 64.5972 104.149 73.2097 104.149 84.2144V122.971C94.6089 124.406 85.0685 127.277 76.0051 131.105C72.189 133.018 68.3729 134.932 65.0337 137.803V84.2144C65.0337 73.6882 73.6201 64.5972 84.5915 64.5972ZM104.149 172.253C104.149 183.258 95.5629 191.871 84.5915 191.871C73.6201 191.871 65.0337 183.258 65.0337 172.253V163.641C65.0337 155.985 71.235 148.329 81.7294 144.024C88.8846 140.674 96.5169 138.76 104.626 137.325L104.149 172.253ZM171.886 191.871C160.914 191.871 152.328 183.258 152.328 172.253V133.497C161.869 132.062 171.409 129.191 180.472 125.363C184.288 123.449 188.105 121.535 191.443 118.664V172.253C191.443 183.258 182.38 191.871 171.886 191.871ZM174.747 112.923C167.592 116.272 159.96 118.186 151.851 119.621V84.2144C151.851 73.2097 160.438 64.5972 171.409 64.5972C182.38 64.5972 190.966 73.2097 190.966 84.2144V92.8269C191.443 100.961 185.242 108.138 174.747 112.923Z" fill="url(#paint0_linear_1749_1924)"/>
<defs>
<linearGradient id="paint0_linear_1749_1924" x1="128" y1="51.2" x2="21.7779" y2="157.1" gradientUnits="userSpaceOnUse">
<stop stop-color="#00E8A2"/>
<stop offset="1" stop-color="#00ADE8"/>
</linearGradient>
</defs>
</svg>
