<svg xmlns="http://www.w3.org/2000/svg" width="24" height="24" fill="none"><g clip-path="url(#a)"><path d="M12.5 25C19.404 25 25 19.404 25 12.5S19.404 0 12.5 0 0 5.596 0 12.5 5.596 25 12.5 25z" fill="#ff0420"/><path d="M8.857 15.822c-.744 0-1.354-.175-1.829-.525-.469-.357-.704-.863-.704-1.52 0-.138.016-.306.047-.507l.347-1.623c.425-1.72 1.523-2.58 3.293-2.58.482 0 .913.081 1.295.244.382.156.682.394.901.713.219.313.328.688.328 1.126 0 .131-.016.297-.047.497l-.338 1.623c-.219.857-.597 1.498-1.135 1.923-.538.419-1.257.629-2.158.629zm.131-1.351c.35 0 .647-.103.891-.31.25-.206.428-.522.535-.948l.328-1.539a2.15 2.15 0 0 0 .037-.403c0-.569-.297-.854-.891-.854a1.37 1.37 0 0 0-.901.31c-.244.206-.419.522-.525.948l-.338 1.539a2.003 2.003 0 0 0-.038.394c0 .575.3.863.901.863zm3.977 1.257c-.069 0-.122-.022-.159-.066a.223.223 0 0 1-.028-.169l1.295-6.098c.012-.069.047-.125.103-.169s.116-.066.178-.066h2.496c.694 0 1.251.144 1.67.432.425.288.638.704.638 1.248a2.25 2.25 0 0 1-.056.488c-.156.719-.472 1.251-.948 1.595-.469.344-1.113.516-1.933.516h-1.267l-.432 2.055c-.013.069-.047.125-.103.169s-.116.066-.178.066h-1.276zm3.321-3.584c.263 0 .491-.072.685-.216.2-.144.332-.35.394-.619a1.64 1.64 0 0 0 .028-.281c0-.181-.053-.319-.16-.413-.106-.1-.288-.15-.544-.15h-1.126l-.357 1.679h1.079z" fill="#fff"/></g><defs><clipPath id="a"><path fill="#fff" d="M0 0h25v25H0z"/></clipPath></defs></svg>
