<svg viewBox="0 0 500 500" xmlns="http://www.w3.org/2000/svg"><circle class="cls-1" cx="250" cy="250" r="250" style="fill:#ff0420;stroke-width:0"/><path class="cls-2" d="M354.571 161.081h-91.589l.095 208.648h56.831v-37.78h34.663c47.173 0 85.411-38.242 85.411-85.411v-.047c0-47.172-38.238-85.41-85.411-85.41Zm24.788 85.721c-13.681 6.817-23.93 17.066-30.747 30.747h-.579c-6.817-13.681-17.066-23.93-30.747-30.747v-.575c13.681-6.82 23.93-17.069 30.747-30.747h.579c6.817 13.678 17.066 23.927 30.747 30.747v.575ZM150.67 156.414c-49.762 0-90.099 40.341-90.099 90.099 0 49.762 40.337 90.102 90.099 90.102s90.099-40.34 90.099-90.102c0-49.758-40.337-90.099-90.099-90.099Zm31.037 90.388c-13.681 6.817-23.93 17.066-30.747 30.747h-.579c-6.817-13.681-17.066-23.93-30.747-30.747v-.575c13.681-6.82 23.93-17.069 30.747-30.747h.579c6.817 13.678 17.066 23.927 30.747 30.747v.575Z" style="fill:#fff;stroke-width:0"/></svg>
