<svg width="24" height="24" viewBox="0 0 24 24" fill="none" xmlns="http://www.w3.org/2000/svg"><path d="M12.014 23.974.027 18.891l11.987-4.846v9.929Z" fill="url(#a)"/><path d="M12.005 23.97.027 18.892l12.046-4.85-.049 9.931-.02-.003Z" stroke="#5A9DDB" stroke-width=".05" stroke-miterlimit="10"/><path d="M12.024 14.045 24.011 18.9l-11.987 5.074v-9.929Z" fill="url(#b)"/><path d="M12.024 14.045 24.011 18.9l-11.985 5.073.01-9.928h-.012Z" stroke="url(#c)" stroke-width=".05" stroke-miterlimit="10"/><path d="m19.128 11.214 4.883 7.674-11.987-4.849 7.104-2.825Z" fill="url(#d)"/><path d="m19.133 11.22 4.876 7.667-11.985-4.841 7.104-2.832.005.006Z" stroke="#3FAEFF" stroke-width=".05" stroke-miterlimit="10"/><path d="m4.953 11.198 7.062 2.85L.027 18.88l4.926-7.68Z" fill="url(#e)"/><path d="m4.953 11.198 7.07 2.843L.028 18.879l4.926-7.68Z" stroke="#69A5FF" stroke-width=".05" stroke-miterlimit="10"/><path d="M12.015 14.04V.011l-7.05 11.202 7.075 2.825h-.025Z" fill="url(#f)"/><path d="M12.024 14.04V.011l7.104 11.2-7.104 2.827Z" fill="url(#g)"/><path d="M12.014 23.974.027 18.891l11.987-4.846v9.929Z" fill="url(#h)"/><path d="M12.005 23.97.028 18.89l12.045-4.848-.049 9.93-.019-.003Z" stroke="#5A9DDB" stroke-width=".05" stroke-miterlimit="10"/><path d="M12.024 14.045 24.011 18.9l-11.987 5.074v-9.929Z" fill="url(#i)"/><path d="M12.024 14.045 24.011 18.9l-11.985 5.073.01-9.928h-.012Z" stroke="url(#j)" stroke-width=".05" stroke-miterlimit="10"/><path d="m19.128 11.214 4.883 7.674-11.987-4.849 7.104-2.825Z" fill="url(#k)"/><path d="m19.133 11.22 4.876 7.667-11.985-4.841 7.104-2.832.005.006Z" stroke="#3FAEFF" stroke-width=".05" stroke-miterlimit="10"/><path d="m4.953 11.198 7.062 2.85-11.973 4.82 4.91-7.67Z" fill="url(#l)"/><path d="m4.953 11.198 7.07 2.843L.028 18.879l4.926-7.68Z" stroke="#69A5FF" stroke-width=".05" stroke-miterlimit="10"/><path d="M12.015 14.04V.011l-7.05 11.202 7.075 2.825h-.025Z" fill="url(#m)"/><path d="M12.024 14.04V.011l7.104 11.2-7.104 2.827Z" fill="url(#n)"/><path d="M12.024 14.043 12.026.018l7.102 11.195-7.116 2.826.011.004Z" stroke="#51A2ED" stroke-width=".05" stroke-miterlimit="10"/><path d="M12.014 23.974.027 18.891l11.987-4.846v9.929Z" fill="url(#o)"/><path d="M12.014 23.97.027 18.892l11.997-4.85-.01 9.922v.006Z" stroke="#5A9DDB" stroke-width=".05" stroke-miterlimit="10"/><path d="M12.024 14.045 24.011 18.9l-11.987 5.074v-9.929Z" fill="url(#p)"/><path d="M12.024 14.045 24.011 18.9l-11.985 5.073.01-9.928h-.012Z" stroke="url(#q)" stroke-width=".05" stroke-miterlimit="10"/><path d="m19.128 11.214 4.883 7.674-11.987-4.849 7.104-2.825Z" fill="url(#r)"/><path d="m19.14 11.228 4.87 7.659-11.986-4.841 7.104-2.832.005.006.007.008Z" stroke="#3FAEFF" stroke-width=".05" stroke-miterlimit="10"/><path d="m4.953 11.198 7.062 2.85L.027 18.892l4.926-7.694Z" fill="url(#s)"/><path d="m4.953 11.198 7.07 2.843L.028 18.879l4.926-7.68Z" stroke="#69A5FF" stroke-width=".05" stroke-miterlimit="10"/><path d="M12.015 14.04V.011l-7.05 11.202 7.075 2.825h-.025Z" fill="url(#t)"/><path d="M12.024 14.043 12.026.018l-7.062 11.19 7.076 2.835h-.016Z" stroke="#88AABD" stroke-width=".05" stroke-miterlimit="10"/><path d="M12.024 14.04V.011l7.104 11.2-7.104 2.827Z" fill="url(#u)"/><path d="M12.024 14.043V.015l7.104 11.197-7.104 2.828v.003Z" stroke="#51A2ED" stroke-width=".05" stroke-miterlimit="10"/><defs><linearGradient id="a" x1="2.621" y1="16.213" x2="14.874" y2="21.529" gradientUnits="userSpaceOnUse"><stop stop-color="#45C7FF"/><stop offset="1" stop-color="#0E2450"/></linearGradient><linearGradient id="b" x1="11.971" y1="24.74" x2="20.916" y2="14.048" gradientUnits="userSpaceOnUse"><stop stop-color="#3B9CF7"/><stop offset=".2" stop-color="#579CED"/><stop offset=".703" stop-color="#3789D7"/><stop offset="1" stop-color="#A5C4DA"/></linearGradient><linearGradient id="c" x1="12.036" y1="-82.975" x2="24.011" y2="-82.975" gradientUnits="userSpaceOnUse"><stop stop-color="#4FB8D9"/><stop offset=".6" stop-color="#39D8FB"/><stop offset="1" stop-color="#3F5FBC"/></linearGradient><linearGradient id="d" x1="17.246" y1="15.615" x2="26.63" y2="7.455" gradientUnits="userSpaceOnUse"><stop stop-color="#33B6FF"/><stop offset="1" stop-color="#6562FD"/></linearGradient><linearGradient id="e" x1="6.078" y1="16.319" x2="7.393" y2="12.968" gradientUnits="userSpaceOnUse"><stop stop-color="#4AB0EA"/><stop offset="1" stop-color="#6D7F9B"/></linearGradient><linearGradient id="f" x1="13.642" y1="7.183" x2="7.419" y2="7.183" gradientUnits="userSpaceOnUse"><stop stop-color="#695CFB"/><stop offset="1" stop-color="#479AFD"/></linearGradient><linearGradient id="g" x1="14.029" y1="8.855" x2="18.426" y2="12.376" gradientUnits="userSpaceOnUse"><stop stop-color="#57E"/><stop offset="1" stop-color="#84A6FF"/></linearGradient><linearGradient id="h" x1="2.621" y1="16.213" x2="14.874" y2="21.529" gradientUnits="userSpaceOnUse"><stop stop-color="#45C7FF"/><stop offset="1" stop-color="#0E2450"/></linearGradient><linearGradient id="i" x1="11.971" y1="24.74" x2="20.916" y2="14.048" gradientUnits="userSpaceOnUse"><stop stop-color="#3B9CF7"/><stop offset=".2" stop-color="#579CED"/><stop offset=".703" stop-color="#3789D7"/><stop offset="1" stop-color="#A5C4DA"/></linearGradient><linearGradient id="j" x1="12.036" y1="-82.975" x2="24.011" y2="-82.975" gradientUnits="userSpaceOnUse"><stop stop-color="#4FB8D9"/><stop offset=".6" stop-color="#39D8FB"/><stop offset="1" stop-color="#3F5FBC"/></linearGradient><linearGradient id="k" x1="17.246" y1="15.615" x2="26.63" y2="7.455" gradientUnits="userSpaceOnUse"><stop stop-color="#33B6FF"/><stop offset="1" stop-color="#6562FD"/></linearGradient><linearGradient id="l" x1="6.078" y1="16.319" x2="7.393" y2="12.968" gradientUnits="userSpaceOnUse"><stop stop-color="#4AB0EA"/><stop offset="1" stop-color="#6D7F9B"/></linearGradient><linearGradient id="m" x1="13.642" y1="7.183" x2="7.419" y2="7.183" gradientUnits="userSpaceOnUse"><stop stop-color="#695CFB"/><stop offset="1" stop-color="#479AFD"/></linearGradient><linearGradient id="n" x1="14.029" y1="8.855" x2="18.426" y2="12.376" gradientUnits="userSpaceOnUse"><stop stop-color="#57E"/><stop offset="1" stop-color="#84A6FF"/></linearGradient><linearGradient id="o" x1="2.621" y1="16.213" x2="14.874" y2="21.529" gradientUnits="userSpaceOnUse"><stop stop-color="#45C7FF"/><stop offset="1" stop-color="#0E2450"/></linearGradient><linearGradient id="p" x1="11.971" y1="24.74" x2="20.916" y2="14.048" gradientUnits="userSpaceOnUse"><stop stop-color="#3B9CF7"/><stop offset=".2" stop-color="#579CED"/><stop offset=".703" stop-color="#3789D7"/><stop offset="1" stop-color="#A5C4DA"/></linearGradient><linearGradient id="q" x1="12.036" y1="-82.975" x2="24.011" y2="-82.975" gradientUnits="userSpaceOnUse"><stop stop-color="#4FB8D9"/><stop offset=".6" stop-color="#39D8FB"/><stop offset="1" stop-color="#3F5FBC"/></linearGradient><linearGradient id="r" x1="17.246" y1="15.615" x2="26.63" y2="7.455" gradientUnits="userSpaceOnUse"><stop stop-color="#33B6FF"/><stop offset="1" stop-color="#6562FD"/></linearGradient><linearGradient id="s" x1="6.078" y1="16.319" x2="7.393" y2="12.968" gradientUnits="userSpaceOnUse"><stop stop-color="#4AB0EA"/><stop offset="1" stop-color="#6D7F9B"/></linearGradient><linearGradient id="t" x1="13.642" y1="7.183" x2="7.419" y2="7.183" gradientUnits="userSpaceOnUse"><stop stop-color="#695CFB"/><stop offset="1" stop-color="#479AFD"/></linearGradient><linearGradient id="u" x1="14.029" y1="8.855" x2="18.426" y2="12.376" gradientUnits="userSpaceOnUse"><stop stop-color="#57E"/><stop offset="1" stop-color="#84A6FF"/></linearGradient></defs></svg>
