<svg width="1801" height="2176" viewBox="0 0 1801 2176" fill="none" xmlns="http://www.w3.org/2000/svg"><path d="M900.48 2175.2.885 1715.89 900.48 1274.7v900.5Z" fill="url(#a)"/><path d="M900.48 2175.2.885 1716.8l900.501-442.1v900.5h-.906Z" stroke="#5A9DDB" stroke-width=".05" stroke-miterlimit="10"/><path d="M900.405 1274.7 1800 1718.61 900.405 2175.2v-900.5Z" fill="url(#b)"/><path d="M900.405 1274.7 1800 1718.61 901.311 2175.2v-900.5h-.906Z" stroke="url(#c)" stroke-width=".05" stroke-miterlimit="10"/><path d="m1432.19 1015.63 367.81 702.1-899.595-443.91 531.785-258.19Z" fill="url(#d)"/><path d="m1433.1 1015.52 366.9 702.1-899.595-443 531.785-260.01.91.91Z" stroke="#3FAEFF" stroke-width=".05" stroke-miterlimit="10"/><path d="m369.622 1013.88 530.878 260.9L0 1715.07l369.622-701.19Z" fill="url(#e)"/><path d="m369.601 1013.88 531.785 260-900.5 442.1 368.715-702.1Z" stroke="#69A5FF" stroke-width=".05" stroke-miterlimit="10"/><path d="M900.54 1274.5V1.66L370.568 1014.5l531.784 260h-1.812Z" fill="url(#f)"/><path d="M900.504 1274.67V.922L371.438 1013.76l530.878 260.91h-1.812Z" stroke="#88AABD" stroke-width=".05" stroke-miterlimit="10"/><path d="M900.405 1274.5V1.66L1432.19 1015.4l-531.785 259.1Z" fill="url(#g)"/><path d="M900.405 1274.67V.922L1433.1 1015.57l-532.695 258.19v.91Z" stroke="#51A2ED" stroke-width=".05" stroke-miterlimit="10"/><path d="M900.48 2175.2.885 1715.89 900.48 1274.7v900.5Z" fill="url(#h)"/><path d="M900.48 2175.2.885 1716.8l900.501-442.1v900.5h-.906Z" stroke="#5A9DDB" stroke-width=".05" stroke-miterlimit="10"/><path d="M900.405 1274.7 1800 1718.61 900.405 2175.2v-900.5Z" fill="url(#i)"/><path d="M900.405 1274.7 1800 1718.61 901.311 2175.2v-900.5h-.906Z" stroke="url(#j)" stroke-width=".05" stroke-miterlimit="10"/><path d="m1432.19 1015.63 367.81 702.1-899.595-443.91 531.785-258.19Z" fill="url(#k)"/><path d="m1433.1 1015.52 366.9 702.1-899.595-443 531.785-260.01.91.91Z" stroke="#3FAEFF" stroke-width=".05" stroke-miterlimit="10"/><path d="m369.622 1013.88 530.878 260.9L0 1715.07l369.622-701.19Z" fill="url(#l)"/><path d="m369.601 1013.88 531.785 260-900.5 442.1 368.715-702.1Z" stroke="#69A5FF" stroke-width=".05" stroke-miterlimit="10"/><path d="M900.54 1274.5V1.66L370.568 1014.5l531.784 260h-1.812Z" fill="url(#m)"/><path d="M900.504 1274.67V.922L371.438 1013.76l530.878 260.91h-1.812Z" stroke="#88AABD" stroke-width=".05" stroke-miterlimit="10"/><path d="M900.405 1274.5V1.66L1432.19 1015.4l-531.785 259.1Z" fill="url(#n)"/><path d="M900.405 1274.67V.922L1433.1 1015.57l-532.695 258.19v.91Z" stroke="#51A2ED" stroke-width=".05" stroke-miterlimit="10"/><path d="M900.48 2175.2.885 1715.89 900.48 1274.7v900.5Z" fill="url(#o)"/><path d="M900.48 2175.2.885 1716.8l900.501-442.1v900.5h-.906Z" stroke="#5A9DDB" stroke-width=".05" stroke-miterlimit="10"/><path d="M900.405 1274.7 1800 1718.61 900.405 2175.2v-900.5Z" fill="url(#p)"/><path d="M900.405 1274.7 1800 1718.61 901.311 2175.2v-900.5h-.906Z" stroke="url(#q)" stroke-width=".05" stroke-miterlimit="10"/><path d="m1432.19 1015.63 367.81 702.1-899.595-443.91 531.785-258.19Z" fill="url(#r)"/><path d="m1433.1 1015.52 366.9 702.1-899.595-443 531.785-260.01.91.91Z" stroke="#3FAEFF" stroke-width=".05" stroke-miterlimit="10"/><path d="m369.622 1013.88 530.878 260.9L0 1715.07l369.622-701.19Z" fill="url(#s)"/><path d="m369.601 1013.88 531.785 260-900.5 442.1 368.715-702.1Z" stroke="#69A5FF" stroke-width=".05" stroke-miterlimit="10"/><path d="M900.54 1274.5V1.66L370.568 1014.5l531.784 260h-1.812Z" fill="url(#t)"/><path d="M900.504 1274.67V.922L371.438 1013.76l530.878 260.91h-1.812Z" stroke="#88AABD" stroke-width=".05" stroke-miterlimit="10"/><path d="M900.405 1274.5V1.66L1432.19 1015.4l-531.785 259.1Z" fill="url(#u)"/><path d="M900.405 1274.67V.922L1433.1 1015.57l-532.695 258.19v.91Z" stroke="#51A2ED" stroke-width=".05" stroke-miterlimit="10"/><path d="M900.48 2175.2.885 1715.89 900.48 1274.7v900.5Z" fill="url(#v)"/><path d="M900.48 2175.2.885 1716.8l900.501-442.1v900.5h-.906Z" stroke="#5A9DDB" stroke-width=".05" stroke-miterlimit="10"/><path d="M900.405 1274.7 1800 1718.61 900.405 2175.2v-900.5Z" fill="url(#w)"/><path d="M900.405 1274.7 1800 1718.61 901.311 2175.2v-900.5h-.906Z" stroke="url(#x)" stroke-width=".05" stroke-miterlimit="10"/><path d="m1432.19 1015.63 367.81 702.1-899.595-443.91 531.785-258.19Z" fill="url(#y)"/><path d="m1433.1 1015.52 366.9 702.1-899.595-443 531.785-260.01.91.91Z" stroke="#3FAEFF" stroke-width=".05" stroke-miterlimit="10"/><path d="m369.622 1013.88 530.878 260.9L0 1715.07l369.622-701.19Z" fill="url(#z)"/><path d="m369.601 1013.88 531.785 260-900.5 442.1 368.715-702.1Z" stroke="#69A5FF" stroke-width=".05" stroke-miterlimit="10"/><path d="M900.54 1274.5V1.66L370.568 1014.5l531.784 260h-1.812Z" fill="url(#A)"/><path d="M900.504 1274.67V.922L371.438 1013.76l530.878 260.91h-1.812Z" stroke="#88AABD" stroke-width=".05" stroke-miterlimit="10"/><path d="M900.405 1274.5V1.66L1432.19 1015.4l-531.785 259.1Z" fill="url(#B)"/><path d="M900.405 1274.67V.922L1433.1 1015.57l-532.695 258.19v.91Z" stroke="#51A2ED" stroke-width=".05" stroke-miterlimit="10"/><defs><linearGradient id="a" x1="195.662" y1="1413.31" x2="1115.19" y2="1876.24" gradientUnits="userSpaceOnUse"><stop stop-color="#45C7FF"/><stop offset="1" stop-color="#0E2450"/></linearGradient><linearGradient id="b" x1="893.158" y1="2264.89" x2="1561.74" y2="1285.57" gradientUnits="userSpaceOnUse"><stop stop-color="#3B9CF7"/><stop offset=".2" stop-color="#579CED"/><stop offset=".703" stop-color="#3789D7"/><stop offset="1" stop-color="#A5C4DA"/></linearGradient><linearGradient id="c" x1="901.311" y1="-7869.82" x2="1800.91" y2="-7869.82" gradientUnits="userSpaceOnUse"><stop stop-color="#4FB8D9"/><stop offset=".6" stop-color="#39D8FB"/><stop offset="1" stop-color="#3F5FBC"/></linearGradient><linearGradient id="d" x1="1289.96" y1="1482.19" x2="1992.06" y2="707.615" gradientUnits="userSpaceOnUse"><stop stop-color="#33B6FF"/><stop offset="1" stop-color="#6562FD"/></linearGradient><linearGradient id="e" x1="454.78" y1="1446.91" x2="553.527" y2="1149.77" gradientUnits="userSpaceOnUse"><stop stop-color="#4AB0EA"/><stop offset="1" stop-color="#6D7F9B"/></linearGradient><linearGradient id="f" x1="1021.94" y1="637.627" x2="555.378" y2="637.627" gradientUnits="userSpaceOnUse"><stop stop-color="#695CFB"/><stop offset="1" stop-color="#479AFD"/></linearGradient><linearGradient id="g" x1="1051.7" y1="784.389" x2="1381.46" y2="1096.94" gradientUnits="userSpaceOnUse"><stop stop-color="#57E"/><stop offset="1" stop-color="#84A6FF"/></linearGradient><linearGradient id="h" x1="195.662" y1="1413.31" x2="1115.19" y2="1876.24" gradientUnits="userSpaceOnUse"><stop stop-color="#45C7FF"/><stop offset="1" stop-color="#0E2450"/></linearGradient><linearGradient id="i" x1="893.158" y1="2264.89" x2="1561.74" y2="1285.57" gradientUnits="userSpaceOnUse"><stop stop-color="#3B9CF7"/><stop offset=".2" stop-color="#579CED"/><stop offset=".703" stop-color="#3789D7"/><stop offset="1" stop-color="#A5C4DA"/></linearGradient><linearGradient id="j" x1="901.311" y1="-7869.82" x2="1800.91" y2="-7869.82" gradientUnits="userSpaceOnUse"><stop stop-color="#4FB8D9"/><stop offset=".6" stop-color="#39D8FB"/><stop offset="1" stop-color="#3F5FBC"/></linearGradient><linearGradient id="k" x1="1289.96" y1="1482.19" x2="1992.06" y2="707.615" gradientUnits="userSpaceOnUse"><stop stop-color="#33B6FF"/><stop offset="1" stop-color="#6562FD"/></linearGradient><linearGradient id="l" x1="454.78" y1="1446.91" x2="553.527" y2="1149.77" gradientUnits="userSpaceOnUse"><stop stop-color="#4AB0EA"/><stop offset="1" stop-color="#6D7F9B"/></linearGradient><linearGradient id="m" x1="1021.94" y1="637.627" x2="555.378" y2="637.627" gradientUnits="userSpaceOnUse"><stop stop-color="#695CFB"/><stop offset="1" stop-color="#479AFD"/></linearGradient><linearGradient id="n" x1="1051.7" y1="784.389" x2="1381.46" y2="1096.94" gradientUnits="userSpaceOnUse"><stop stop-color="#57E"/><stop offset="1" stop-color="#84A6FF"/></linearGradient><linearGradient id="o" x1="195.662" y1="1413.31" x2="1115.19" y2="1876.24" gradientUnits="userSpaceOnUse"><stop stop-color="#45C7FF"/><stop offset="1" stop-color="#0E2450"/></linearGradient><linearGradient id="p" x1="893.158" y1="2264.89" x2="1561.74" y2="1285.57" gradientUnits="userSpaceOnUse"><stop stop-color="#3B9CF7"/><stop offset=".2" stop-color="#579CED"/><stop offset=".703" stop-color="#3789D7"/><stop offset="1" stop-color="#A5C4DA"/></linearGradient><linearGradient id="q" x1="901.311" y1="-7869.82" x2="1800.91" y2="-7869.82" gradientUnits="userSpaceOnUse"><stop stop-color="#4FB8D9"/><stop offset=".6" stop-color="#39D8FB"/><stop offset="1" stop-color="#3F5FBC"/></linearGradient><linearGradient id="r" x1="1289.96" y1="1482.19" x2="1992.06" y2="707.615" gradientUnits="userSpaceOnUse"><stop stop-color="#33B6FF"/><stop offset="1" stop-color="#6562FD"/></linearGradient><linearGradient id="s" x1="454.78" y1="1446.91" x2="553.527" y2="1149.77" gradientUnits="userSpaceOnUse"><stop stop-color="#4AB0EA"/><stop offset="1" stop-color="#6D7F9B"/></linearGradient><linearGradient id="t" x1="1021.94" y1="637.627" x2="555.378" y2="637.627" gradientUnits="userSpaceOnUse"><stop stop-color="#695CFB"/><stop offset="1" stop-color="#479AFD"/></linearGradient><linearGradient id="u" x1="1051.7" y1="784.389" x2="1381.46" y2="1096.94" gradientUnits="userSpaceOnUse"><stop stop-color="#57E"/><stop offset="1" stop-color="#84A6FF"/></linearGradient><linearGradient id="v" x1="195.662" y1="1413.31" x2="1115.19" y2="1876.24" gradientUnits="userSpaceOnUse"><stop stop-color="#45C7FF"/><stop offset="1" stop-color="#0E2450"/></linearGradient><linearGradient id="w" x1="893.158" y1="2264.89" x2="1561.74" y2="1285.57" gradientUnits="userSpaceOnUse"><stop stop-color="#3B9CF7"/><stop offset=".2" stop-color="#579CED"/><stop offset=".703" stop-color="#3789D7"/><stop offset="1" stop-color="#A5C4DA"/></linearGradient><linearGradient id="x" x1="901.311" y1="-7869.82" x2="1800.91" y2="-7869.82" gradientUnits="userSpaceOnUse"><stop stop-color="#4FB8D9"/><stop offset=".6" stop-color="#39D8FB"/><stop offset="1" stop-color="#3F5FBC"/></linearGradient><linearGradient id="y" x1="1289.96" y1="1482.19" x2="1992.06" y2="707.615" gradientUnits="userSpaceOnUse"><stop stop-color="#33B6FF"/><stop offset="1" stop-color="#6562FD"/></linearGradient><linearGradient id="z" x1="454.78" y1="1446.91" x2="553.527" y2="1149.77" gradientUnits="userSpaceOnUse"><stop stop-color="#4AB0EA"/><stop offset="1" stop-color="#6D7F9B"/></linearGradient><linearGradient id="A" x1="1021.94" y1="637.627" x2="555.378" y2="637.627" gradientUnits="userSpaceOnUse"><stop stop-color="#695CFB"/><stop offset="1" stop-color="#479AFD"/></linearGradient><linearGradient id="B" x1="1051.7" y1="784.389" x2="1381.46" y2="1096.94" gradientUnits="userSpaceOnUse"><stop stop-color="#57E"/><stop offset="1" stop-color="#84A6FF"/></linearGradient></defs></svg>
