<svg data-name="Layer 1" xmlns="http://www.w3.org/2000/svg" viewBox="0 0 771.511 792"><path d="M205.324 181.576c.411-14.207 1.685-27.854 6.538-40.914 7.793-20.975 22.6-35.018 43.124-43.229 22.717-9.09 46.316-12.564 70.559-8.992 25.776 3.8 44.409 18.164 56.866 40.826q1.943 3.537 3.895 7.078c2.654-.745 2.878-2.973 3.687-4.644 14.524-29.982 38.379-44.79 71.728-45.136 19.549-.2 38.325 3.008 56.238 10.609 29.606 12.564 44.363 35.913 47.645 67.24.543 5.186.841 10.4 1.253 15.616 2.266-.166 2.408-1.966 3-3.16 13.684-27.353 36.171-41.331 66.329-43a133.308 133.308 0 0 1 62.128 11.23c28.214 12.513 42.908 34.845 45.993 65.128 3.479 34.155-5.19 66.43-15.789 98.344-6.467 19.472-9.1 39-.87 58.58a331.905 331.905 0 0 1 14.778 43.181C756.761 464.122 756.49 517 732.281 568.388Q682.13 674.831 566.507 696.18c-27.887 5.206-56.072 6.709-84.273 7.616-66 2.124-132.037 2-198.05.739-42.329-.806-84.257-5-124.347-20.337-43.542-16.654-77.528-44.488-102.5-83.986-15.37-24.309-28.2-49.387-33.75-77.844-8.614-44.126-3.279-87.022 11.081-129.128 2.9-8.5 6.366-16.808 9.791-25.116 8.091-19.629 6.017-39.193-.535-58.589-7.369-21.813-13.782-43.815-16.365-66.789-2.034-18.091-1.48-35.941 4.578-53.319 6.5-18.653 18.886-32.316 36.376-41.039a128.988 128.988 0 0 1 78.691-12.3c23.911 3.658 41.2 16.894 52.929 37.764 1.345 2.393 2.554 4.863 3.853 7.282.072.139.401.143 1.338.442Z" style="fill:#ffce3b"/><path d="M365.79 216.7c-1.037 9.9-1.639 21.872-3.713 33.586-1.874 10.587-8.752 18.5-18.7 22.364-11.107 4.313-22.543 8.3-34.2 10.578-23.031 4.511-39.863-7.036-50.66-25.565-9.138-15.683-17.674-32.851-21.186-50.419-5.487-27.45 2.95-53.311 25.9-70.377 22.208-16.511 47.717-14.966 72.011-3.09 15.666 7.658 22.17 22.661 25.134 38.809 2.544 13.823 3.5 27.936 5.414 44.114Zm41.925-6.18c2.027-13.411 3.168-28.933 6.891-43.808 6.315-25.235 22.612-37.874 48.534-40.078 20.145-1.713 39.934.415 53.5 16.774 18.174 21.926 26.811 46.861 15.791 75.6-6.485 16.908-12.156 33.975-24.342 48.127-12.6 14.639-27.761 20.221-46.358 15.514a258.712 258.712 0 0 1-29.628-9.293c-13.036-5.031-20.466-15.106-22-28.97-1.171-10.561-1.53-21.206-2.388-33.866ZM140.04 300.7c-12.324-1.657-22.928-2.655-33.352-4.609A33.8 33.8 0 0 1 83.7 280.172c-10.941-17.567-16.23-36.853-12.347-57.21 4.3-22.565 22.282-33.183 41.939-39.65 10.515-3.459 22.5-3.929 33.715-3.417 14.805.675 25.933 9.11 32.983 22.147 12.185 22.535 17.057 46.435 10.83 71.663-2.849 11.544-12.062 18.312-22.66 21.71-9.478 3.038-19.688 3.785-28.12 5.285Zm493.79.456c-9.645-1.664-19.653-2.222-28.853-5.242-15.121-4.966-24.045-15.664-25.5-32.29a104.219 104.219 0 0 1 11.985-59.432c11.019-20.624 31.474-28.4 58.523-22.588 15.786 3.395 30.038 10.649 40.036 23.218 5.485 6.9 7.944 16.431 10.773 25.1 1.243 3.812.376 8.481-.162 12.68-5.652 44.098-21.061 57.319-66.802 58.554ZM256.092 474.423c1.275-9.85 8.092-54.08 47.4-84.995 33.183-26.1 69.2-26.724 81.586-26.757 45.571-.121 76.493 22.314 82.412 26.757 40.585 30.466 49.82 73.907 51.76 84.45 32.79-25.171 69.443-29.554 89.06-13.628 4.053 3.291 10.275 9.8 13.915 22.346a47.869 47.869 0 0 1 2.7 24.371c-4.076 25.688-28.944 37.62-31.574 38.83a351.972 351.972 0 0 1-204.316 60.478A418.906 418.906 0 0 1 263.7 586.852a3718.746 3718.746 0 0 0-54.467-24.164c-30.806-13.363-43.645-18.4-53.142-32.511-7.384-10.968-9.438-22.5-10.06-30.146.9-19.8 11.7-37.224 28.259-45.04 15.257-7.2 29.9-3.646 34.4-2.362Z" style="fill:#fff"/></svg>
