<svg height="256" width="256" xmlns="http://www.w3.org/2000/svg" viewBox="-92.72 -92.72 673.44 673.44" xml:space="preserve"><rect x="-92.72" y="-92.72" width="673.44" height="673.44" rx="336.72" fill="#ffaf4d"/><path style="fill:#bacbcc" d="M488 452.965v-1.6c0-98.4-119.2-176.8-239.2-176.8s-239.2 78.4-239.2 176v1.6H488v.8z"/><path style="fill:#a1b4b5" d="M488 452.165c0-98.4-119.2-176.8-239.2-176.8-8 0-15.2.8-23.2 1.6l-99.2 96.8 80.8 79.2H488v-.8z"/><path style="fill:#cedcdd" d="M180 117.765c16 39.2-15.2 54.4-39.2 64s-60.8 65.6-76 26.4c-16-39.2-1.6-164 21.6-173.6s77.6 44 93.6 83.2z"/><path style="fill:#c10865" d="M164 112.165c16 39.2 5.6 59.2-18.4 68.8s-48 30.4-64-8.8S64 49.765 88 39.365c24.8-9.6 60 33.6 76 72.8z"/><path style="fill:#a5085e" d="M88.8 40.165c24-9.6 59.2 32.8 75.2 72s5.6 59.2-18.4 68.8"/><path style="fill:#cedcdd" d="M310.4 117.765c-16 39.2 15.2 54.4 39.2 64s60.8 65.6 76 26.4c16-39.2 1.6-164-21.6-173.6-24.8-9.6-77.6 44-93.6 83.2z"/><path style="fill:#c10865" d="M326.4 112.165c-16 39.2-5.6 59.2 18.4 68.8s48 30.4 64-8.8 17.6-122.4-6.4-132.8c-24.8-9.6-60.8 33.6-76 72.8z"/><path style="fill:#a5085e" d="M401.6 40.165c-24-9.6-59.2 32.8-75.2 72s-5.6 59.2 18.4 68.8"/><path style="fill:#d81a71" d="M401.6 305.765c0 66.4-68 120-152.8 120-84 0-152.8-53.6-152.8-120s68-99.2 152.8-99.2c84.8 0 152.8 33.6 152.8 99.2z"/><path style="fill:#c10865" d="M248.8 206.565c-80 0-145.6 29.6-152 88.8 6.4 61.6 72 109.6 152 109.6s145.6-48 152-109.6c-6.4-59.2-72-88.8-152-88.8z"/><path style="fill:#dfedec" d="M436 235.365c0 80.8-84 146.4-187.2 146.4s-187.2-65.6-187.2-146.4 84-136.8 187.2-136.8c103.2 0 187.2 55.2 187.2 136.8z"/><path style="fill:#cedcdd" d="M436 235.365c0 80.8-84 146.4-187.2 146.4s-187.2-65.6-187.2-146.4 84-121.6 187.2-121.6 187.2 40 187.2 121.6z"/><path style="fill:#bacbcc" d="M248.8 113.765c103.2 0 187.2 40.8 187.2 121.6s-84 146.4-187.2 146.4"/><circle style="fill:#efc618" cx="248.8" cy="423.365" r="31.2"/><path style="fill:#edb61b" d="M226.4 400.965c12-12 32-12 44.8 0 12 12 12 32 0 44.8"/><path style="fill:#a3b5b5" d="M208 213.765c0 14.4-11.2 34.4-25.6 34.4-14.4 0-25.6-20.8-25.6-34.4 0-14.4 11.2-25.6 25.6-25.6 13.6 0 25.6 11.2 25.6 25.6z"/><circle style="fill:#2c363a" cx="182.4" cy="213.765" r="25.6"/><path d="M182.4 188.165c14.4 0 25.6 11.2 25.6 25.6 0 14.4-11.2 25.6-25.6 25.6"/><path style="fill:#5f6668" d="M180 192.965c1.6 1.6-.8 5.6-4 8-4 2.4-8 3.2-9.6.8-1.6-1.6.8-5.6 4-8 4-2.4 8-2.4 9.6-.8z"/><path style="fill:#dfedec" d="M232 254.565c0 7.2-22.4-.8-49.6-.8-28 0-49.6 8.8-49.6.8 0-7.2 22.4-13.6 49.6-13.6 27.2 0 49.6 5.6 49.6 13.6z"/><path style="fill:#a3b5b5" d="M341.6 213.765c0 14.4-11.2 34.4-25.6 34.4s-25.6-20.8-25.6-34.4c0-14.4 11.2-25.6 25.6-25.6 13.6 0 25.6 11.2 25.6 25.6z"/><circle style="fill:#2c363a" cx="316" cy="213.765" r="25.6"/><path d="M316 188.165c14.4 0 25.6 11.2 25.6 25.6 0 14.4-11.2 25.6-25.6 25.6"/><path style="fill:#5f6668" d="M313.6 192.965c1.6 1.6-.8 5.6-4 8-4 2.4-8 3.2-9.6.8-1.6-1.6.8-5.6 4-8 4-2.4 8-2.4 9.6-.8z"/><path style="fill:#cedcdd" d="M365.6 254.565c0 7.2-22.4-.8-49.6-.8-28 0-49.6 8.8-49.6.8 0-7.2 22.4-13.6 49.6-13.6 27.2 0 49.6 5.6 49.6 13.6z"/><path style="fill:#a0baba" d="M276 248.965c0 6.4-12 24-27.2 24s-27.2-17.6-27.2-24 12-12 27.2-12 27.2 4.8 27.2 12z"/><path style="fill:#d81a71" d="M276 248.965c0 6.4-12 17.6-27.2 17.6s-27.2-10.4-27.2-17.6c0-6.4 12-12 27.2-12s27.2 4.8 27.2 12z"/><path style="fill:#c10865" d="M248.8 236.965c15.2 0 27.2 5.6 27.2 12s-12 17.6-27.2 17.6"/><path style="fill:#8d9998" d="M178.4 148.965c-.8 0-1.6 0-1.6-.8-1.6-.8-2.4-3.2-1.6-4.8 4.8-7.2 11.2-12.8 20-15.2 8-2.4 16.8-.8 24.8 3.2 1.6.8 2.4 3.2 1.6 4.8-.8 1.6-3.2 2.4-4.8 1.6-5.6-3.2-12.8-4.8-19.2-2.4-6.4 1.6-12 5.6-15.2 11.2-1.6 1.6-3.2 2.4-4 2.4zm140.8 0c.8 0 1.6 0 1.6-.8 1.6-.8 2.4-3.2 1.6-4.8-4.8-7.2-11.2-12.8-20-15.2-8-2.4-16.8-.8-24.8 3.2-1.6.8-2.4 3.2-1.6 4.8s3.2 2.4 4.8 1.6c5.6-3.2 12.8-4.8 19.2-2.4 6.4 1.6 12 5.6 15.2 11.2 1.6 1.6 3.2 2.4 4 2.4z"/><path style="fill:#bacbcc" d="M124 428.965c0 32-24 20-56 20s-56 11.2-56-20v-160.8c0-32 24-57.6 56-57.6s56 25.6 56 57.6v160.8z"/><path style="fill:#a1b4b5" d="M124 379.365v-111.2c0-22.4-12-41.6-30.4-51.2l-65.6 65.6 96 96.8z"/><path style="fill:#bacbcc" d="M134.4 264.965c0 29.6-30.4 24.8-67.2 24.8s-67.2 4.8-67.2-24.8 30.4-54.4 67.2-54.4 67.2 24 67.2 54.4z"/><path style="fill:#c10865" d="M112 276.965c0 9.6-20 8-44.8 8s-44.8 1.6-44.8-8 20-17.6 44.8-17.6c24.8-.8 44.8 7.2 44.8 17.6z"/><path style="fill:#a5085e" d="M112 276.965c0 9.6-20 8-44.8 8s-44.8 1.6-44.8-8"/><path style="fill:#cedcdd" d="M0 264.965c0-29.6 30.4-54.4 67.2-54.4"/><circle style="fill:#efc618" cx="249.6" cy="393.765" r="8"/></svg>
