<svg xmlns="http://www.w3.org/2000/svg" width="24" height="24" fill="none"><g clip-path="url(#a)"><path d="M12.5 25C19.404 25 25 19.404 25 12.5S19.404 0 12.5 0 0 5.596 0 12.5 5.596 25 12.5 25z" fill="#fff"/><g fill-rule="evenodd"><path d="m8.38 6.008.987-1.039c-5.222-.169-3.702 3.634-5.403 7.5-1.959 4.452.231 6.149 3.494 6.677a7.15 7.15 0 0 1-1.103-1.818C4.239 14.644 5.091 9.754 8.38 6.008z" fill="#b3d234"/><path d="M20.944 10.75c-.486 1.379-1.378 2.926-2.638 4.449a12.638 12.638 0 0 1-3.203 2.798c-1.303.851-2.92 1.353-4.728 1.353a18.52 18.52 0 0 1-2.918-.205 5.985 5.985 0 0 0 1.954 1.542c4.721 2.301 5.019-1.973 10.014-4.142 2.805-1.218 2.815-3.598 1.519-5.796" fill="#0095d9"/><path d="M15.102 6.302a6.185 6.185 0 0 1 1.949.696c1.585.904 3.03 2.287 3.893 3.752.851-2.414.454-4.312-1.406-4.655-2.045-.377-3.644-.498-5.18-1.579-1.893-1.331-3.551-.892-4.991.454l.313.014c1.997.119 3.902.51 5.423 1.319z" fill="#eee809"/><path d="M8.379 6.008c-3.289 3.746-4.14 8.636-2.024 11.321-.95-2.247-.884-5.05.455-7.287 1.783-2.979 5.358-4.278 8.293-3.738-1.521-.809-3.426-1.201-5.423-1.32l-.312-.014c-.309.289-.632.634-.987 1.038z" fill="#51b849"/><path d="M17.051 6.998a6.18 6.18 0 0 0-1.949-.696c2.002 1.065 3.334 2.855 3.319 5.705-.013 2.473-1.281 4.659-3.318 5.989a12.638 12.638 0 0 0 3.203-2.798c1.261-1.523 2.152-3.07 2.638-4.449-.864-1.465-2.308-2.849-3.894-3.752z" fill="#00845d"/><path d="M14.773 16.642a4.86 4.86 0 0 1-3.67.67 4.855 4.855 0 0 1-1.744-.759 4.86 4.86 0 0 1-1.319-1.37c-1.458-2.269-.737-5.192 1.452-6.76 2.449-1.754 5.588-1.062 6.733 1.458 1.116 2.457.808 5.297-1.452 6.76zm.329-10.34c-2.935-.54-6.51.759-8.293 3.738-1.339 2.238-1.406 5.041-.455 7.287a7.14 7.14 0 0 0 1.103 1.818c.966.145 1.941.213 2.918.204 1.808 0 3.425-.502 4.728-1.353 2.037-1.33 3.305-3.516 3.318-5.989.015-2.851-1.317-4.64-3.319-5.705z" fill="#005121"/></g></g><defs><clipPath id="a"><path fill="#fff" d="M0 0h25v25H0z"/></clipPath></defs></svg>
