<svg xmlns="http://www.w3.org/2000/svg" width="256" height="256" viewBox="0 0 256 256"><circle cx="128" cy="128" r="128" fill="#fff"/><g fill-rule="evenodd"><path fill="#b3d234" d="M85.807 61.519c3.634-4.141 6.946-7.678 10.109-10.635-53.47-1.735-37.905 37.216-55.326 76.8-20.065 45.588 2.361 62.961 35.777 68.374a73.207 73.207 0 0 1-11.295-18.617C43.407 149.959 52.127 99.884 85.807 61.519"/><path fill="#0095d9" d="M214.47 110.08c-4.975 14.121-14.107 29.966-27.015 45.561a129.493 129.493 0 0 1-32.793 28.652c-13.346 8.713-29.904 13.859-48.416 13.859a189.532 189.532 0 0 1-29.883-2.1 61.2 61.2 0 0 0 20.012 15.787c48.342 23.558 51.395-20.2 102.541-42.41 28.721-12.471 28.827-36.848 15.554-59.352"/><path fill="#eee809" d="M154.645 64.536a63.422 63.422 0 0 1 19.954 7.122c16.235 9.256 31.024 23.419 39.87 38.418 8.709-24.718 4.653-44.151-14.4-47.669-20.941-3.859-37.314-5.1-53.048-16.17-19.38-13.633-36.363-9.135-51.107 4.65 1.04.032 2.1.08 3.2.144 20.444 1.214 39.961 5.227 55.531 13.505"/><path fill="#51b849" d="M85.806 61.518c-33.68 38.366-42.4 88.44-20.735 115.926-9.729-23.01-9.053-51.709 4.658-74.623 18.253-30.509 54.865-43.81 84.916-38.28-15.57-8.287-35.08-12.295-55.53-13.513-1.1-.064-2.16-.106-3.2-.144-3.164 2.959-6.475 6.494-10.109 10.635"/><path fill="#00845d" d="M174.597 71.664a63.291 63.291 0 0 0-19.954-7.122c20.5 10.906 34.145 29.232 33.992 58.421-.137 25.325-13.119 47.706-33.976 61.332a129.4 129.4 0 0 0 32.793-28.651c12.913-15.6 22.04-31.441 27.015-45.561-8.847-15-23.635-29.168-39.87-38.418"/><path fill="#005121" d="M151.275 170.417a49.756 49.756 0 0 1-68.947-14.935c-14.931-23.239-7.548-53.162 14.873-69.226 25.074-17.958 57.225-10.874 68.945 14.935 11.429 25.165 8.271 54.237-14.871 69.226m3.373-105.877c-30.052-5.525-66.663 7.771-84.916 38.28-13.712 22.914-14.393 51.618-4.657 74.622a73.088 73.088 0 0 0 11.29 18.619 189.523 189.523 0 0 0 29.878 2.086c18.517 0 35.075-5.142 48.416-13.855 20.862-13.62 33.844-36.007 33.976-61.332.158-29.189-13.489-47.515-33.987-58.421"/></g></svg>
