<svg xmlns="http://www.w3.org/2000/svg" width="256" height="256" viewBox="0 0 256 256">
    <g>
        <circle cx="128" cy="128" r="128" fill="#fff"/>
    </g>
    <g fill-rule="evenodd">
        <path fill="#b3d234" d="M53.817 14.078C57.451 9.937 60.763 6.4 63.926 3.443 10.456 1.708 26.021 40.659 8.6 80.243c-20.065 45.588 2.361 62.961 35.777 68.374A73.207 73.207 0 0 1 33.082 130C11.417 102.518 20.137 52.443 53.817 14.078" transform="translate(20729.855 17589.877) translate(-20697.865 -17542.436)"/>
        <path fill="#0095d9" d="M148.66 16.428c-4.975 14.121-14.107 29.966-27.015 45.561a129.493 129.493 0 0 1-32.793 28.652C75.506 99.354 58.948 104.5 40.436 104.5a189.532 189.532 0 0 1-29.883-2.1 61.2 61.2 0 0 0 20.012 15.787c48.342 23.558 51.395-20.2 102.541-42.41 28.721-12.471 28.827-36.848 15.554-59.352" transform="translate(20729.855 17589.877) translate(-20664.045 -17496.225)"/>
        <path fill="#eee809" d="M73.587 27.1a63.422 63.422 0 0 1 19.954 7.122c16.235 9.256 31.024 23.419 39.87 38.418 8.709-24.718 4.653-44.151-14.4-47.669-20.941-3.859-37.314-5.1-53.048-16.17C46.583-4.832 29.6-.334 14.856 13.451c1.04.032 2.1.08 3.2.144C38.5 14.809 58.017 18.822 73.587 27.1" transform="translate(20729.855 17589.877) translate(-20648.797 -17552.441)"/>
        <path fill="#51b849" d="M38.041 14.034C4.361 52.4-4.359 102.474 17.306 129.96c-9.729-23.01-9.053-51.709 4.658-74.623 18.253-30.509 54.865-43.81 84.916-38.28C91.31 8.77 71.8 4.762 51.35 3.544c-1.1-.064-2.16-.106-3.2-.144-3.164 2.959-6.475 6.494-10.109 10.635" transform="translate(20729.855 17589.877) translate(-20682.09 -17542.393)"/>
        <path fill="#00845d" d="M47.736 13.527a63.291 63.291 0 0 0-19.954-7.122c20.5 10.906 34.145 29.232 33.992 58.421-.137 25.325-13.119 47.706-33.976 61.332a129.4 129.4 0 0 0 32.793-28.651c12.913-15.6 22.04-31.441 27.015-45.561-8.847-15-23.635-29.168-39.87-38.418" transform="translate(20729.855 17589.877) translate(-20602.994 -17531.74)"/>
        <path fill="#005121" d="M99.4 113.235A49.756 49.756 0 0 1 30.453 98.3c-14.931-23.239-7.548-53.162 14.873-69.226C70.4 11.116 102.551 18.2 114.271 44.009c11.429 25.165 8.271 54.237-14.871 69.226m3.373-105.877c-30.052-5.525-66.663 7.771-84.916 38.28C4.145 68.552 3.464 97.256 13.2 120.26a73.088 73.088 0 0 0 11.29 18.619 189.523 189.523 0 0 0 29.878 2.086c18.517 0 35.075-5.142 48.416-13.855 20.862-13.62 33.844-36.007 33.976-61.332.158-29.189-13.489-47.515-33.987-58.421" transform="translate(20729.855 17589.877) translate(-20677.98 -17532.695)"/>
    </g>
</svg>
