<svg width="164" height="164" viewBox="0 0 164 164" fill="none" xmlns="http://www.w3.org/2000/svg"><path d="M81.998 3.447h.004c43.382 0 78.55 35.168 78.551 78.551v.004c0 43.382-35.169 78.551-78.551 78.551h-.004c-43.383-.001-78.55-35.169-78.55-78.551v-.004c0-43.383 35.167-78.55 78.55-78.55Z" fill="#111" stroke="#111" stroke-width="2.894"/><path d="M82.001 2H82C37.817 2 2 37.817 2 81.999V82c0 44.183 35.817 80 79.999 80H82c44.183 0 80-35.817 80-79.999V82c0-44.183-35.817-80-79.999-80Z" fill="#321D63"/><path d="M82.001 2H82C37.817 2 2 37.817 2 81.999V82c0 44.183 35.817 80 79.999 80H82c44.183 0 80-35.817 80-79.999V82c0-44.183-35.817-80-79.999-80Z" fill="url(#a)" fill-opacity=".6"/><path d="M82.001 2H82C37.817 2 2 37.817 2 81.999V82c0 44.183 35.817 80 79.999 80H82c44.183 0 80-35.817 80-79.999V82c0-44.183-35.817-80-79.999-80Z" stroke="url(#b)" stroke-width="2.93"/><path d="M69.662 2.964C26.084 9.767-3.838 50.76 2.964 94.338c6.803 43.578 47.796 73.5 91.374 66.698 43.578-6.803 73.5-47.796 66.698-91.374-6.803-43.578-47.796-73.5-91.374-66.698Zm1.613 10.332c4.964-.775 9.893-1 14.715-.72-6.314 7.79-15.831 15.806-30.156 21.804-13.55 5.676-27.445 11.508-38.113 21.137 8.976-21.69 28.712-38.343 53.554-42.221Zm-57.98 79.429a69.702 69.702 0 0 1-.832-11.13c1.292-3.626 2.935-6.93 4.942-9.937 9.137-13.671 25.329-20.453 42.47-27.632C79.4 35.85 90.986 24.183 97.755 14.279a69.632 69.632 0 0 1 10.537 3.372c-.922 2.906-2.409 6.63-4.804 10.782-5.143 8.916-15.65 21.673-36.495 31.806-13.84 6.727-31.059 15.104-41.23 33.916-2.82 5.218-5.026 11.05-6.635 17.561a69.38 69.38 0 0 1-5.832-18.991Zm14.05 32.234c4.523-36.006 23.968-45.471 44.227-55.322 18.492-8.993 29.96-19.938 37.073-29.864-2.999 16.618-10.7 32.44-23.004 47.21-12.613 15.134-25.116 33.585-22.18 55.674a51.089 51.089 0 0 0 1.36 6.715c-14.85-3.81-28.039-12.461-37.471-24.414l-.006.001ZM93.67 93.677c21.94-26.327 26.714-52.086 26.859-69.057.001-.16-.001-.307.001-.466 11.706 7.803 21.032 19.106 26.299 32.676a78.668 78.668 0 0 1-4.704 17.086c-6.84 16.995-18.725 29.709-35.339 37.785-11.263 5.478-23.614 12.221-33.297 24.02.154-15.693 9.68-29.446 20.18-42.044Zm-.94 57.027a69.631 69.631 0 0 1-16.24.619c-.13-.329-.256-.659-.376-.989 7.783-13.767 19.763-21.701 35.242-29.224 23.111-11.238 34.535-29.002 40.105-42.407 1.692 35.009-23.335 66.48-58.731 72.006v-.005Z" fill="#fff"/><defs><linearGradient id="a" x1="-.384" y1="82" x2="176.546" y2="82" gradientUnits="userSpaceOnUse"><stop stop-color="#E7EFFC"/><stop offset=".75" stop-color="#BFD4FA"/><stop offset="1" stop-color="#A4AFC2"/></linearGradient><linearGradient id="b" x1="82" y1=".491" x2="82" y2="163.509" gradientUnits="userSpaceOnUse"><stop stop-color="#A6BBDF"/><stop offset="1" stop-color="#fff"/></linearGradient></defs></svg>
