<svg width="37" height="37" viewBox="0 0 37 37" xmlns="http://www.w3.org/2000/svg"><g xmlns="http://www.w3.org/2000/svg" fill="none" transform="scale(.925)"><g clip-path="url(#a)"><path fill="#2c6eff" d="M20 0C8.954 0 0 8.954 0 20s8.954 20 20 20 20-8.954 20-20S31.046 0 20 0"/><path stroke="#fff" stroke-opacity=".2" d="M20 .5C30.77.5 39.5 9.23 39.5 20S30.77 39.5 20 39.5.5 30.77.5 20 9.23.5 20 .5Z"/><path fill="#fff" fill-rule="evenodd" d="M16.862 3.838c-7.586 1.46-13.317 8.14-13.317 16.147 0 8.008 5.731 14.687 13.317 16.147v-1.54c-6.75-1.441-11.806-7.435-11.806-14.607S10.113 6.82 16.86 5.38zm6.285 1.551V3.85c7.575 1.47 13.286 8.138 13.286 16.136s-5.711 14.667-13.286 16.137v-1.541c6.729-1.45 11.775-7.434 11.775-14.596S29.876 6.84 23.147 5.39" clip-rule="evenodd"/><path fill="#fff" d="M22.333 19.441c1.259.242 2.226.705 2.921 1.38.695.665 1.037 1.521 1.037 2.559v1.642c0 1.249-.453 2.256-1.35 3.022-.896.755-2.084 1.128-3.545 1.128h-.504v2.609H19.16v-2.61h-.534c-.967 0-1.813-.21-2.559-.644a4.63 4.63 0 0 1-1.732-1.843c-.403-.806-.605-1.723-.605-2.77h1.733c0 1.057.292 1.924.866 2.589.595.644 1.38.977 2.337.977h2.68q1.42 0 2.296-.665c.575-.464.867-1.058.867-1.793V23.38c0-.584-.222-1.078-.655-1.49-.423-.414-.997-.676-1.733-.797l-4.341-.765c-1.219-.222-2.176-.685-2.85-1.38-.676-.705-1.018-1.582-1.018-2.64v-1.38q0-1.87 1.3-2.97c.886-.756 2.054-1.13 3.494-1.13h.434V8.22h1.732v2.609h.554c1.37 0 2.468.443 3.304 1.33.836.866 1.26 2.024 1.26 3.455h-1.733c0-.937-.262-1.693-.776-2.257q-.771-.846-2.055-.846h-2.73c-.916 0-1.652.222-2.195.665-.544.423-.816 1.007-.816 1.742v1.38q0 .892.604 1.512c.423.413.987.684 1.712.815z"/></g><defs><clipPath id="a"><path fill="#fff" d="M0 0h40v40H0z"/></clipPath></defs></g><circle cx="18.5" cy="18.5" r="17.5" stroke="#1BE3C2" stroke-width="2" fill="none"/></svg>
