<svg width="38" height="38" viewBox="0 0 38 38" fill="none" xmlns="http://www.w3.org/2000/svg"><path d="M18.509.334c10.038 0 18.175 8.137 18.175 18.175S28.547 36.683 18.51 36.683h-.001C8.472 36.683.335 28.547.335 18.51S8.472.334 18.509.334Z" fill="#fff" stroke="#000" stroke-width=".67"/><path fill-rule="evenodd" clip-rule="evenodd" d="M15.54 3.278C8.395 4.654 2.998 10.94 2.998 18.486c0 7.547 5.397 13.832 12.542 15.208v-1.451c-6.354-1.354-11.12-7-11.12-13.757S9.187 6.084 15.54 4.73V3.278Zm5.92 1.457V3.283c7.131 1.387 12.515 7.666 12.515 15.203 0 7.537-5.384 13.817-12.515 15.203v-1.452c6.34-1.364 11.092-7.003 11.092-13.75 0-6.749-4.752-12.387-11.092-13.752Z" fill="#000"/><path d="M20.693 17.969c1.182.225 2.099.66 2.75 1.303.652.627.977 1.432.977 2.413v1.545c0 1.174-.424 2.123-1.272 2.847-.849.708-1.962 1.062-3.341 1.062h-.477V29.6h-1.636v-2.461h-.5c-.91 0-1.712-.201-2.41-.604a4.387 4.387 0 0 1-1.636-1.737c-.378-.756-.568-1.625-.568-2.606h1.636c0 .997.273 1.81.819 2.437.56.611 1.295.917 2.204.917h2.523c.893 0 1.613-.21 2.159-.627.545-.435.818-.998.818-1.69v-1.544c0-.547-.205-1.013-.614-1.4-.394-.386-.94-.635-1.636-.747l-4.09-.724c-1.152-.21-2.046-.644-2.683-1.303-.636-.66-.954-1.489-.954-2.486v-1.303c0-1.174.41-2.107 1.227-2.8.833-.707 1.932-1.061 3.296-1.061h.409V7.4h1.636v2.46h.523c1.287 0 2.325.418 3.113 1.255.788.82 1.182 1.906 1.182 3.258H22.51c0-.885-.242-1.593-.727-2.124-.485-.53-1.128-.796-1.931-.796h-2.569c-.863 0-1.552.209-2.068.627-.515.402-.772.95-.772 1.64v1.304c0 .563.19 1.038.568 1.424.394.386.932.643 1.613.772l4.068.748Z" fill="#000"/><circle cx="18.5" cy="18.5" r="17.5" stroke="#1BE3C2" stroke-width="2"/></svg>
