<svg width="37" height="37" viewBox="0 0 37 37" xmlns="http://www.w3.org/2000/svg"><g xmlns="http://www.w3.org/2000/svg"><path d="M66.906 33.398C66.906 15.02 51.934.125 33.465.125 14.992.125.02 15.02.02 33.398c0 18.375 14.972 33.274 33.445 33.274 18.469 0 33.441-14.899 33.441-33.274m0 0" style="stroke:none;fill-rule:nonzero;fill:#314012;fill-opacity:1" transform="translate(.067 .184) scale(.55224)"/><path d="M58.328 35.203C57.363 48 46.621 58.086 33.504 58.086c-13.746 0-24.89-11.086-24.89-24.758S19.757 8.574 33.503 8.574c13.094 0 23.824 10.051 24.816 22.817H46.422c2.598-5.711 2.754-10.899-.086-13.27-4.195-3.5-13.34.469-20.426 8.867s-9.43 18.047-5.234 21.547 13.34-.469 20.426-8.867a39 39 0 0 0 3.265-4.465Zm0 0" style="stroke:none;fill-rule:evenodd;fill:#c7e36c;fill-opacity:1" transform="translate(.067 .184) scale(.55224)"/><path d="M35.375 35.203h9.953l-3.844 5.004-6.109-2.437Zm0 0" style="stroke:none;fill-rule:nonzero;fill:#c7e36c;fill-opacity:1" transform="translate(.067 .184) scale(.55224)"/></g><circle cx="18.5" cy="18.5" r="17.5" stroke="#1BE3C2" stroke-width="2" fill="none"/></svg>
