<svg width="256" height="256" viewBox="0 0 256 256" fill="none" xmlns="http://www.w3.org/2000/svg">
    <g clip-path="url(#clip0_2_6787)">
        <path d="M107.938 119.487C106.975 119.439 105.96 119.852 105.07 119.162C106.036 118.967 107.04 119.081 107.938 119.487Z" fill="#2A373B"/>
        <path d="M111.99 119.912C111.19 119.937 110.349 120.254 109.632 119.612C110.429 119.436 111.262 119.542 111.99 119.912Z" fill="#2A373B"/>
        <path d="M28.062 48.034C30.0742 45.2254 32.3242 42.5951 34.787 40.172C51.6783 22.1511 73.4619 9.45187 97.466 3.63201C101.357 2.59222 105.322 1.85667 109.327 1.43201C109.78 2.73801 108.677 3.11401 107.927 3.54701C103.439 6.14001 98.975 8.77501 94.468 11.337C89.621 14.093 84.848 16.975 80.002 19.737C79.4223 19.9708 78.944 20.4023 78.652 20.955C78.426 21.281 78.1052 21.5296 77.733 21.667C72.2192 24.2446 66.9249 27.2679 61.903 30.707C61.3422 31.1819 60.6851 31.5296 59.977 31.726C59.4118 31.6957 58.8516 31.8455 58.377 32.154C49.32 37.275 40.32 42.495 31.328 47.729C30.7332 48.1572 30.0692 48.4799 29.365 48.683C28.82 48.783 28.111 49.021 28.065 48.034H28.062Z" fill="#283036"/>
        <path d="M164.176 250.751C157.015 252.976 149.642 254.451 142.176 255.151C141.784 253.959 142.747 253.551 143.465 253.136C148.704 250.074 153.984 247.082 159.223 244.022C161.88 242.47 164.723 241.2 167.046 239.116C169.329 237.751 171.906 237.072 174.333 236.043C185.405 231.284 195.678 224.847 204.79 216.96C206.234 215.728 207.414 214.169 209.15 213.279C210.143 213.09 211.09 212.709 211.937 212.157C218.349 208.445 224.727 204.672 231.217 201.098C231.689 200.838 232.459 199.717 232.933 201.198C228.616 207.573 223.667 213.498 218.162 218.881C217.768 219.281 217.33 219.631 216.913 220.005C205.813 226.196 194.891 232.691 183.859 238.998C178.291 242.182 172.753 245.42 167.186 248.604C166.086 249.174 165.073 249.896 164.176 250.751Z" fill="#399584"/>
        <path d="M28.0618 48.034C28.8038 48.934 29.5248 48.281 30.1508 47.923C34.7278 45.305 39.2768 42.635 43.8448 40C48.7481 37.1707 53.6578 34.353 58.5738 31.547C58.9958 31.306 59.4658 30.957 59.9148 31.537C57.9139 33.4109 55.7985 35.1586 53.5808 36.77C47.8681 41.604 42.5705 46.9082 37.7438 52.627C37.1783 53.468 36.4487 54.1861 35.5988 54.738C32.5888 55.628 30.1168 57.55 27.4208 59.038C24.7648 60.502 22.1928 62.121 19.4978 63.515C18.9358 63.806 18.0288 64.707 17.5718 63.27C19.5807 59.5502 21.8756 55.9922 24.4358 52.628C25.5066 50.9927 26.72 49.4554 28.0618 48.034Z" fill="#293237"/>
        <path d="M78.5391 20.71C78.7391 19.266 80.1551 19.217 81.0391 18.677C85.0591 16.225 89.1751 13.929 93.2551 11.577L107.42 3.40404C108.25 2.92704 109.156 2.54304 109.336 1.44004C113.478 0.675696 117.672 0.229726 121.882 0.106042C123.782 -0.0129577 125.703 0.0630425 127.615 0.0500425C127.743 1.21004 126.786 1.53804 126.061 1.97604C121.93 4.46804 117.734 6.84704 113.552 9.25304C112.313 9.91209 111.156 10.7153 110.105 11.646C106.769 12.646 103.305 13.077 99.92 13.846C93.4668 15.3574 87.1624 17.4458 81.0831 20.086C80.2811 20.423 79.5071 20.993 78.5391 20.71Z" fill="#293237"/>
        <path d="M232.938 201.205C232.748 200.829 232.511 200.775 232.131 200.994C226.793 204.081 221.451 207.161 216.105 210.234C214.505 211.159 212.912 212.102 211.317 213.034C210.705 213.443 209.976 213.643 209.241 213.604C208.916 212.904 209.49 212.557 209.859 212.204C215.047 207.237 219.764 201.801 223.95 195.964C224.225 195.537 224.609 195.192 225.063 194.964C229.283 193.064 233.11 190.464 237.141 188.227C238.026 187.736 238.897 187.214 239.797 186.755C240.416 186.44 241.078 185.948 241.814 186.555C239.314 191.702 236.343 196.606 232.938 201.205Z" fill="#389181"/>
        <path d="M164.172 250.754C164.059 249.79 164.878 249.524 165.461 249.182C170.442 246.261 175.444 243.382 180.442 240.482C191.216 234.251 201.994 228.028 212.776 221.814C214.016 220.932 215.424 220.316 216.912 220.004C215.246 221.522 213.582 223.04 211.921 224.558C206.896 229.098 201.458 233.158 195.677 236.685C185.9 242.849 175.293 247.587 164.177 250.754H164.172Z" fill="#3A9987"/>
        <path d="M17.5729 63.262C18.2109 64.117 18.8159 63.43 19.3239 63.144C23.5629 60.754 27.7608 58.291 32.0089 55.918C33.1089 55.305 34.0759 54.236 35.5489 54.538C34.9319 56.403 33.4749 57.72 32.3909 59.273C30.0709 62.599 27.9909 66.073 25.9469 69.56C25.5539 70.229 25.2709 71.003 24.4379 71.293C22.6439 71.377 21.3549 72.593 19.9179 73.411C17.4319 74.83 14.9579 76.274 12.4669 77.687C11.7489 78.094 11.0079 78.853 10.0269 78.198C12.078 72.9981 14.6041 67.9983 17.5729 63.262Z" fill="#293439"/>
        <path d="M110.016 11.235C112.266 9.06502 115.195 7.96902 117.795 6.35302C120.55 4.64002 123.395 3.07002 126.205 1.44502C126.8 1.12318 127.291 0.637279 127.618 0.045021C131.236 -0.0807733 134.858 0.058934 138.455 0.46302C139.142 0.74502 139.899 0.405021 140.583 0.704021L141.838 0.798023C142.397 1.06302 143.026 0.78002 143.588 1.02002V1.00202C143.756 1.95702 142.98 2.23602 142.388 2.60202C139.688 4.29502 136.909 5.86802 134.116 7.40202C132.545 8.26502 131.143 9.37702 129.578 10.244C127.032 10.566 124.455 10.062 121.919 10.558C120.941 10.6997 119.952 10.7503 118.964 10.709C118.291 10.6354 117.61 10.7035 116.964 10.909C115.319 11.09 113.68 11.322 112.042 11.558C111.704 11.6751 111.342 11.7069 110.989 11.6505C110.635 11.5942 110.301 11.4515 110.016 11.235Z" fill="#293439"/>
        <path d="M188.535 15.346C191.126 16.4669 193.599 17.843 195.917 19.454C197.568 20.465 199.131 21.622 200.733 22.715C200.905 23.299 200.433 23.528 200.085 23.739C197.285 25.439 194.522 27.218 191.566 28.657C190.998 28.6428 190.447 28.4578 189.986 28.126C186.745 26.189 183.535 24.189 180.135 22.532C179.768 22.375 179.462 22.1048 179.26 21.761C179.032 20.9 179.632 20.529 180.23 20.198C183.03 18.646 185.757 16.942 188.535 15.346Z" fill="#2C4345"/>
        <path d="M167.215 239.343C165.994 241.161 163.915 241.775 162.171 242.807C155.995 246.454 149.739 249.964 143.52 253.541C143.181 253.682 142.881 253.902 142.646 254.184C142.411 254.465 142.247 254.8 142.169 255.158L140.599 255.258C139.908 255.541 139.152 255.219 138.46 255.492C135.88 255.886 133.265 256.002 130.66 255.837C130.284 254.813 131.192 254.588 131.743 254.269C136.2 251.69 140.629 249.062 145.113 246.529C146.538 245.761 147.871 244.833 149.085 243.762C154.685 242.395 160.32 241.129 165.785 239.262C166.255 239.101 166.763 238.923 167.215 239.343Z" fill="#389282"/>
        <path d="M10.0269 78.195C12.0789 77.857 13.6199 76.473 15.3699 75.532C17.8699 74.187 20.2819 72.678 22.7569 71.283C23.2309 71.015 23.7769 70.429 24.3839 71.133C24.489 71.4559 24.5106 71.8 24.4468 72.1335C24.383 72.4669 24.2357 72.7788 24.0189 73.04C22.3278 76.1549 20.8137 79.3627 19.4839 82.648C19.2289 83.204 19.0979 83.842 18.4519 84.122C17.2188 84.2635 16.0437 84.7232 15.0419 85.456C12.6889 86.879 10.2839 88.213 7.89886 89.581C7.25786 89.949 6.62488 90.598 5.75488 90.081C6.8254 86.0007 8.25495 82.0232 10.0269 78.195Z" fill="#2A373B"/>
        <path d="M119.386 255.59C115.309 255.527 111.247 255.068 107.259 254.221C107.616 253.58 108.177 253.077 108.852 252.79C111.94 250.959 115.043 249.155 118.187 247.421C119.268 246.821 120.2 246.013 121.26 245.384C125.844 245.831 130.428 244.972 135.007 245.403C136.307 246.374 135.121 246.833 134.535 247.222C132.765 248.4 130.902 249.431 129.055 250.488C126.335 252.044 123.588 253.555 120.943 255.241C120.474 255.541 119.992 255.866 119.386 255.59Z" fill="#388D7E"/>
        <path d="M129.987 9.87703C131.537 7.82703 134.013 7.16003 136.058 5.85403C138.169 4.50603 140.385 3.32303 142.558 2.07103C142.999 1.82351 143.358 1.4527 143.592 1.00403C147.421 1.25569 151.208 1.9445 154.881 3.05703C155.264 3.13501 155.655 3.16857 156.046 3.15703C156.439 4.29103 155.403 4.46703 154.822 4.80603C152.692 6.05103 150.585 7.33703 148.429 8.53903C146.977 9.35003 145.462 10.067 144.5 11.523C141.106 11.39 137.76 10.767 134.372 10.571C133.501 10.3636 132.604 10.2868 131.71 10.343C131.102 10.32 130.458 10.401 129.987 9.87703Z" fill="#2A373B"/>
        <path d="M165.19 5.53302C169.362 6.66045 173.434 8.12631 177.368 9.91602C177.841 10.978 176.942 11.302 176.335 11.68C173.403 13.503 170.384 15.18 167.394 16.91C165.062 16.844 163.007 15.727 160.824 15.11C158.753 14.526 156.524 14.405 154.632 13.238C154.332 12.108 155.226 11.77 155.932 11.365C158.332 9.99002 160.676 8.53402 163.11 7.22502C163.927 6.83327 164.64 6.25342 165.19 5.53302Z" fill="#2A3C3F"/>
        <path d="M1.021 112.077C1.38845 107.597 2.17726 103.163 3.37698 98.831C4.70798 98.859 5.642 97.95 6.702 97.374C8.909 96.174 11.04 94.831 13.274 93.674C13.874 93.364 14.727 92.682 15.127 94C14.168 98.223 13.462 102.506 12.086 106.629C8.919 108.313 5.81198 110.104 2.71198 111.91C2.18598 112.22 1.639 112.61 1.021 112.077Z" fill="#2A3C3F"/>
        <path d="M167.552 16.665C169.508 14.738 172.199 13.977 174.352 12.375C175.389 11.603 177.002 11.507 177.374 9.91602C181.272 11.342 185.014 13.1614 188.542 15.346C187.189 17.171 184.987 17.746 183.214 18.958C182.221 19.5877 181.194 20.1626 180.137 20.68C179.928 20.7622 179.747 20.9041 179.617 21.0881C179.487 21.272 179.414 21.49 179.407 21.715C178.846 22.153 178.324 21.825 177.84 21.582C174.912 20.1521 171.912 18.8738 168.852 17.752C168.335 17.552 167.584 17.502 167.552 16.665Z" fill="#2B4042"/>
        <path d="M54.805 232.978C51.2044 230.645 47.8061 228.014 44.646 225.112C47.567 223.112 50.692 221.468 53.783 219.76C54.0367 219.746 54.2904 219.785 54.528 219.875C54.7655 219.965 54.9815 220.104 55.162 220.283C57.65 222.227 60.162 224.145 62.811 225.863C63.0703 225.977 63.2987 226.152 63.4771 226.372C63.6555 226.592 63.7789 226.852 63.837 227.129C63.8158 227.384 63.7285 227.628 63.5838 227.839C63.4391 228.049 63.242 228.218 63.012 228.329C60.254 229.843 57.64 231.607 54.805 232.978Z" fill="#34736A"/>
        <path d="M249.39 168.586C248.312 172.181 246.961 175.689 245.349 179.078C240.997 181.841 236.458 184.286 232 186.868C231.739 187.083 231.427 187.227 231.094 187.286C230.761 187.345 230.419 187.317 230.1 187.205C229.813 186.668 230.117 186.232 230.361 185.805C232.168 182.72 233.786 179.528 235.208 176.247C235.372 175.765 235.707 175.36 236.15 175.108C239.561 173.849 242.455 171.637 245.631 169.944C246.375 169.544 247.107 169.122 247.848 168.715C248.332 168.445 248.834 168.094 249.39 168.586Z" fill="#388C7D"/>
        <path d="M1.02087 112.076C2.99487 111.689 4.43285 110.259 6.17685 109.418C7.57685 108.741 8.90086 107.886 10.2639 107.118C10.73 106.799 11.2864 106.638 11.8509 106.66C12.112 107.345 12.1515 108.094 11.9639 108.803C11.5349 111.903 11.1489 115.01 10.9449 118.136C10.9298 118.473 10.8203 118.799 10.6289 119.077C7.52888 119.996 4.99787 121.996 2.18887 123.468C1.53987 123.807 0.937848 124.548 0.0688477 123.918V123.57C0.393848 122.313 -0.0371409 121.008 0.311859 119.753C0.270168 117.176 0.507904 114.602 1.02087 112.076Z" fill="#2B4042"/>
        <path d="M119.387 255.594L125.587 252.001C128.487 250.32 131.397 248.656 134.276 246.939C134.718 246.675 135.337 246.473 135.4 245.791C136.2 245.006 137.284 245.106 138.244 245.02C141.199 244.755 144.128 244.333 147.054 243.866C147.689 243.766 148.387 243.504 148.938 244.131C148.338 245.576 146.895 245.969 145.722 246.655C141.094 249.363 136.422 251.996 131.789 254.694C131.346 254.952 130.727 255.156 130.662 255.838C126.905 256.117 123.129 256.036 119.387 255.594Z" fill="#389081"/>
        <path d="M253.905 105.217C254.656 108.435 255.107 111.716 255.252 115.017C255.565 117.551 255.559 117.54 253.472 118.717C251.618 119.764 249.797 120.871 247.942 121.917C247.488 122.131 247.108 122.476 246.852 122.907C246.596 123.339 246.475 123.837 246.504 124.338C246.499 125.024 246.867 125.956 245.815 126.325C245.633 126.191 245.489 126.012 245.396 125.806C245.303 125.6 245.265 125.374 245.284 125.149C245.356 120.455 244.749 115.804 244.412 111.138C244.544 110.569 245.04 110.401 245.482 110.157C248.33 108.583 251.151 106.957 253.905 105.217Z" fill="#34736A"/>
        <path d="M191.583 28.503C193.859 26.682 196.571 25.573 198.972 23.955C199.572 23.555 200.149 23.129 200.737 22.715C203.869 24.6871 206.823 26.929 209.565 29.415C209.713 30.674 208.613 30.952 207.874 31.392C205.628 32.731 203.332 33.992 201.112 35.373C201.006 35.4089 200.89 35.4089 200.784 35.373C197.584 33.458 194.684 31.12 191.653 28.964C191.522 28.872 191.53 28.67 191.583 28.503Z" fill="#2D4949"/>
        <path d="M216.295 35.355C219.077 37.8587 221.671 40.5636 224.055 43.448C224.096 44.589 223.095 44.838 222.402 45.302C220.331 46.688 217.984 47.628 216.026 49.202C215.434 49.347 215.066 48.958 214.711 48.609C212.543 46.4757 210.393 44.325 208.261 42.157C208.086 42.0138 207.943 41.8361 207.839 41.635C207.736 41.4339 207.676 41.2136 207.661 40.988C207.955 40.082 208.809 39.819 209.515 39.394C211.767 38.037 214.149 36.894 216.295 35.355Z" fill="#2E504F"/>
        <path d="M6.81808 169.26C5.49223 165.86 4.47121 162.349 3.76709 158.768C4.07509 157.938 4.89009 157.699 5.54709 157.317C7.43509 156.217 9.3311 155.136 11.2261 154.049C11.8671 153.682 12.5361 153.29 13.1581 154.104C14.1821 157.491 15.3971 160.829 15.7931 164.378C13.1797 166.279 10.3907 167.926 7.46408 169.296C7.36069 169.339 7.24886 169.358 7.13696 169.352C7.02507 169.346 6.91603 169.314 6.81808 169.26Z" fill="#2E504F"/>
        <path d="M253.906 105.217C253.861 105.379 253.869 105.617 253.764 105.69C250.864 107.555 248.053 109.567 244.764 110.724C244.555 110.578 244.383 110.387 244.258 110.165C244.134 109.943 244.063 109.695 244.048 109.441C243.668 106.771 242.998 104.155 242.587 101.493C242.539 100.991 242.65 100.487 242.904 100.052C243.159 99.6171 243.543 99.2731 244.004 99.069C246.529 97.634 249.031 96.157 251.547 94.706C252.644 98.1327 253.434 101.65 253.906 105.217Z" fill="#336E66"/>
        <path d="M251.545 94.707C251.095 96.077 249.655 96.17 248.684 96.844C247.14 97.868 245.534 98.7928 243.873 99.613C243.565 99.7475 243.312 99.9842 243.158 100.283C243.005 100.582 242.958 100.925 243.028 101.254C242.959 101.268 242.888 101.268 242.82 101.254C242.751 101.24 242.686 101.213 242.628 101.173C242.57 101.133 242.521 101.082 242.483 101.022C242.445 100.963 242.42 100.897 242.409 100.827C241.567 97.401 240.346 94.077 239.65 90.611C239.663 90.3849 239.728 90.165 239.84 89.9679C239.952 89.7708 240.107 89.6019 240.294 89.474C242.98 87.874 245.524 86.026 248.484 84.922C249.814 88.0788 250.84 91.3553 251.547 94.707H251.545Z" fill="#326962"/>
        <path d="M53.885 219.989C51.128 221.639 48.376 223.297 45.607 224.925C45.2974 225.04 44.9711 225.104 44.641 225.113C42.044 223 39.5759 220.733 37.25 218.324C37.278 218.157 37.309 217.954 37.44 217.871C40.302 216.071 43.056 214.071 46.306 212.971C48.369 214.039 49.77 215.906 51.525 217.347C52.425 218.092 53.748 218.547 53.885 219.989Z" fill="#336E66"/>
        <path d="M54.8071 232.979C56.0981 231.505 57.9941 230.947 59.5341 229.851C60.8881 228.888 62.6791 228.571 63.6611 227.061C66.2801 227.792 68.4321 229.439 70.7611 230.724C71.6311 231.203 72.8701 231.305 73.1901 232.554C70.8901 234.533 68.1081 235.754 65.5231 237.278C64.7961 237.707 64.2101 238.555 63.1771 238.353C60.2412 236.8 57.4414 235.002 54.8071 232.979Z" fill="#34786D"/>
        <path d="M14.9041 93.803C14.3041 93.188 13.8541 93.825 13.4431 94.053C10.5651 95.653 7.72705 97.315 4.84305 98.908C4.42305 99.141 3.78205 100.178 3.37305 98.833C3.87483 95.8434 4.67035 92.9105 5.74805 90.077C8.84105 88.863 11.5311 86.916 14.4181 85.325C15.3021 84.838 16.2031 84.38 17.0981 83.912C17.5091 83.697 17.924 83.494 18.286 83.995C18.406 84.1523 18.4772 84.3413 18.4907 84.5386C18.5042 84.736 18.4595 84.9329 18.3621 85.105C17.4501 87.705 16.5921 90.318 15.7241 92.931C15.5971 93.323 15.5441 93.86 14.9041 93.803Z" fill="#2A393D"/>
        <path d="M165.19 5.53304C165.625 6.39004 164.89 6.59404 164.4 6.88404C161.718 8.4647 159.028 10.0314 156.332 11.584C155.704 11.945 155.009 12.203 154.69 12.932C154.5 13.1 154.268 13.2145 154.019 13.2638C153.77 13.3132 153.513 13.2957 153.273 13.213C150.857 12.734 148.454 12.197 146.008 11.877C145.783 11.856 145.566 11.7863 145.371 11.6727C145.176 11.559 145.008 11.4042 144.879 11.219C144.33 10.385 144.879 10.075 145.526 9.70904C148.579 7.98637 151.618 6.2387 154.644 4.46604C155.192 4.14404 155.897 3.92604 156.044 3.15204C158.744 3.38304 161.206 4.50104 163.76 5.25904C164.242 5.31749 164.72 5.40735 165.19 5.52804V5.53304Z" fill="#2A393D"/>
        <path d="M248.486 84.925C246.276 86.4332 243.985 87.8203 241.624 89.08C241.002 89.457 240.297 89.708 239.978 90.441C239.461 90.497 239.299 90.095 239.173 89.741C238.21 87.056 237.148 84.41 236.148 81.741C236.023 81.4266 235.992 81.0828 236.058 80.751C236.905 79.467 238.345 79.025 239.585 78.317C241.198 77.2198 242.919 76.291 244.721 75.545C246.258 78.5511 247.518 81.6907 248.486 84.925Z" fill="#31655F"/>
        <path d="M46.3592 213.256C43.1382 214.613 40.2922 216.644 37.2512 218.323C34.8473 215.975 32.577 213.494 30.4512 210.891C31.4852 209.535 33.1112 209.072 34.4922 208.248C35.9859 207.247 37.5576 206.368 39.1922 205.619C40.4502 206.113 41.0722 207.319 42.0092 208.172C43.2502 209.301 44.4162 210.515 45.5752 211.73C45.9702 212.146 46.6032 212.49 46.3542 213.256H46.3592Z" fill="#326962"/>
        <path d="M255.158 142.203C254.869 145.959 254.301 149.688 253.458 153.36C250.327 154.766 247.433 156.601 244.464 158.301C243.686 158.746 242.876 159.517 241.864 158.708C241.493 157.796 241.941 156.957 242.123 156.108C242.599 153.88 243.041 151.642 243.723 149.463C244.012 148.907 244.476 148.462 245.044 148.197C247.705 146.833 250.17 145.116 252.853 143.797C253.724 143.367 254.234 142.497 255.158 142.197V142.203Z" fill="#368275"/>
        <path d="M39.2399 205.82C36.4022 207.668 33.468 209.363 30.4499 210.898C28.226 208.461 26.1896 205.859 24.3579 203.115C24.5939 202.398 25.2459 202.115 25.8189 201.794C27.6769 200.743 29.5339 199.694 31.3709 198.605C31.6072 198.405 31.8851 198.259 32.1845 198.18C32.4839 198.1 32.7973 198.088 33.1019 198.145C35.1689 199.653 36.3949 201.907 38.0509 203.781C38.5559 204.352 39.4829 204.776 39.2399 205.82Z" fill="#31655F"/>
        <path d="M246.07 126.309C245.441 123.317 246.759 121.544 249.505 120.469C250.786 119.969 251.854 118.924 253.133 118.413C254.767 117.758 255.543 116.773 255.253 115.013C255.634 117.14 255.839 119.295 255.867 121.456C255.957 123.286 255.91 125.124 255.924 126.956C255.532 127.509 254.996 127.945 254.374 128.215C252.029 129.452 249.803 130.9 247.464 132.146C247.155 132.336 246.899 132.601 246.717 132.915C246.536 133.229 246.436 133.583 246.426 133.946C246.326 134.432 246.226 135.246 245.442 134.395C245.001 131.688 245.217 128.915 246.07 126.309Z" fill="#34786D"/>
        <path d="M249.392 168.587C246.66 169.499 244.416 171.319 241.886 172.603C240.01 173.555 238.428 175.132 236.192 175.333C236.063 175.149 235.99 174.932 235.98 174.707C235.971 174.482 236.025 174.26 236.138 174.065C237.179 171.665 238.124 169.225 239.005 166.765C239.112 166.505 239.284 166.277 239.505 166.104C242.883 164.55 246.005 162.542 249.235 160.704C250.016 160.259 250.777 159.446 251.835 160.126C251.27 163.012 250.453 165.844 249.392 168.587Z" fill="#37887A"/>
        <path d="M0.0678711 123.918C2.01787 123.485 3.45986 122.076 5.19986 121.234C6.39986 120.653 7.50886 119.886 8.68686 119.254C9.13486 119.013 9.64687 118.532 10.1669 119.186C10.4583 119.603 10.653 120.08 10.7369 120.581C10.8208 121.083 10.7918 121.597 10.6519 122.086C10.2599 125.176 10.8049 128.247 10.6869 131.326C10.7323 132.109 10.6676 132.895 10.4949 133.661C9.86687 134.561 9.61487 133.944 9.49487 133.361C9.34454 132.243 9.309 131.112 9.38885 129.987C9.38885 128.9 9.01185 128.674 8.07385 129.241C6.00085 130.496 3.93786 131.776 1.74686 132.82C1.12886 133.114 0.346862 133.614 0.0708618 132.392L0.0678711 123.918Z" fill="#2C4345"/>
        <path d="M86.6598 249.091C83.6332 248.245 80.6908 247.123 77.8698 245.738C77.8578 245.003 78.3968 244.651 78.9148 244.338C81.8278 242.592 84.8618 241.051 87.6758 239.138C87.9202 239.002 88.1962 238.933 88.4758 238.938C91.4695 239.578 94.3917 240.516 97.1988 241.738C97.3608 242.677 96.6388 243.023 96.0268 243.387C93.8978 244.655 91.7738 245.932 89.6068 247.133C88.5783 247.713 87.5934 248.368 86.6598 249.091Z" fill="#368275"/>
        <path d="M12.849 154.04C10.977 154.14 9.73904 155.578 8.15604 156.297C6.63304 156.988 5.22604 157.935 3.76904 158.77C2.83008 155.68 2.16091 152.515 1.76904 149.309C4.36904 148.009 6.84303 146.469 9.39203 145.07C9.99203 144.738 10.65 143.939 11.445 144.827C11.909 147.258 12.486 149.665 12.927 152.098C13.046 152.733 13.349 153.413 12.849 154.04Z" fill="#2D4C4B"/>
        <path d="M0.0729187 132.386C0.494919 133.105 0.997929 132.762 1.48393 132.486C3.77293 131.18 6.07192 129.886 8.33992 128.548C9.48092 127.873 9.83992 128.073 9.86192 129.448C9.88292 130.989 9.45492 132.576 10.1509 134.078C10.9169 135.034 10.6589 136.099 10.4819 137.154C9.31392 138.619 7.45291 139.027 5.99891 140.065C4.91748 140.782 3.79191 141.429 2.62892 142.004C2.02892 142.325 1.30493 142.874 0.754925 141.868L0.654919 140.603C0.323919 139.809 0.712912 138.942 0.403912 138.146C0.0944274 136.243 -0.0164949 134.312 0.0729187 132.386Z" fill="#2C4647"/>
        <path d="M216.288 35.355C215.588 37.14 213.644 37.235 212.349 38.217C210.938 39.286 209.167 39.817 207.826 41.027C207.074 41.217 206.744 40.581 206.278 40.227C204.766 39.072 203.392 37.75 201.909 36.557C201.509 36.232 200.878 35.999 201.06 35.266C202.607 33.455 204.916 32.824 206.815 31.556C207.786 30.907 208.956 30.533 209.563 29.42C211.263 30.5896 212.799 31.9802 214.132 33.555C214.717 34.2992 215.451 34.9124 216.288 35.355Z" fill="#2D4C4B"/>
        <path d="M230.164 187.198C234.024 185.516 237.492 183.123 241.181 181.132C242.541 180.399 243.699 179.232 245.35 179.079C244.358 181.658 243.176 184.16 241.812 186.563C239.254 187.046 237.299 188.748 235.091 189.928C232.22 191.462 229.424 193.138 226.591 194.737C226.137 195.077 225.591 195.273 225.024 195.299C224.747 194.822 225.002 194.421 225.245 194.049C226.63 191.928 228.045 189.827 229.367 187.665C229.534 187.385 229.742 187.083 230.167 187.198H230.164Z" fill="#388E7E"/>
        <path d="M215.95 49.157C216.584 47.504 218.366 47.397 219.57 46.513C221.027 45.442 222.857 44.906 224.055 43.443C226.059 45.5052 227.885 47.7331 229.514 50.103C229.914 50.77 229.487 51.183 229.002 51.474C226.596 53.0806 224.068 54.4969 221.441 55.71C221.244 55.7268 221.046 55.6946 220.865 55.6162C220.684 55.5379 220.525 55.4158 220.403 55.261C219.009 53.592 217.596 51.939 216.236 50.239C216.093 50.1023 215.991 49.929 215.941 49.7382C215.891 49.5473 215.894 49.3462 215.95 49.157Z" fill="#2F5552"/>
        <path d="M6.81787 169.259C9.17587 167.908 11.5279 166.544 13.8999 165.215C14.4459 164.95 15.0084 164.719 15.5839 164.526C15.6939 164.558 15.8389 164.581 15.8839 164.666C17.3106 167.129 18.2859 169.827 18.7639 172.633C16.3219 174.282 13.7319 175.686 11.1639 177.133C10.9512 177.272 10.7004 177.342 10.4464 177.332C10.1924 177.322 9.94789 177.233 9.74686 177.077C8.5483 174.56 7.56837 171.944 6.81787 169.259Z" fill="#2F5552"/>
        <path d="M88.4042 239.287C84.9682 241.56 81.1042 243.139 77.8702 245.737C75.1355 244.769 72.5033 243.533 70.0122 242.046C71.4692 240.431 73.5232 239.724 75.2992 238.598C76.8492 237.614 78.4502 236.71 79.9992 235.716C82.8568 236.437 85.6218 237.485 88.2392 238.84C88.3862 238.91 88.4032 239.116 88.4042 239.287Z" fill="#367F73"/>
        <path d="M120.847 245.794C120.699 247.001 119.519 247.094 118.78 247.54C114.98 249.84 111.107 252.01 107.259 254.226C104.86 254.04 102.49 253.582 100.195 252.861C99.9869 252.233 100.427 251.879 100.834 251.627C104.747 249.204 108.701 246.852 112.75 244.654C114.961 244.699 117.167 244.872 119.358 245.173C119.636 245.165 119.912 245.217 120.169 245.324C120.426 245.431 120.657 245.591 120.847 245.794Z" fill="#378A7B"/>
        <path d="M255.157 142.204C254.296 144.228 252.117 144.449 250.557 145.498C248.488 146.891 246.257 148.045 244.096 149.298C243.982 149.215 243.892 149.104 243.835 148.975C243.778 148.846 243.756 148.705 243.771 148.565C244.032 145.907 244.476 143.27 245.102 140.674C247.402 139.087 249.87 137.774 252.312 136.422C253.729 135.739 254.944 134.698 255.834 133.401C255.86 136.348 255.633 139.292 255.157 142.201V142.204Z" fill="#367F73"/>
        <path d="M255.834 133.406C255.763 134.017 255.525 134.596 255.146 135.081C254.768 135.565 254.263 135.936 253.687 136.153C251.308 137.4 249.023 138.83 246.701 140.186C246.314 140.42 245.864 140.53 245.412 140.501C244.441 138.51 244.917 136.616 245.798 134.75C245.717 132.595 247.177 131.687 248.833 130.836C251.233 129.605 253.563 128.257 255.924 126.959C256.048 129.107 256.018 131.262 255.834 133.406Z" fill="#357B70"/>
        <path d="M79.9008 235.867C79.0348 237.322 77.4299 237.738 76.1009 238.534C74.0899 239.74 72.0389 240.879 70.0009 242.047C67.6077 241.046 65.3204 239.808 63.1729 238.353C66.3809 236.253 69.7049 234.344 73.0939 232.553C73.271 232.466 73.4684 232.43 73.6648 232.447C73.8612 232.465 74.049 232.536 74.2079 232.653C75.7079 233.405 77.2469 234.079 78.7809 234.765C79.2729 234.976 79.8748 235.156 79.9008 235.867Z" fill="#357B70"/>
        <path d="M33.1418 198.367C31.2178 198.729 29.8418 200.167 28.1308 200.949C26.8188 201.549 25.6118 202.383 24.3578 203.113C22.7253 201.087 21.2506 198.938 19.9468 196.686C19.9654 196.545 20.0138 196.41 20.0888 196.289C20.1638 196.168 20.2637 196.065 20.3818 195.986C22.9826 194.327 25.665 192.799 28.4188 191.408C28.638 191.455 28.8435 191.551 29.0195 191.69C29.1955 191.828 29.3373 192.006 29.4338 192.208C30.5078 193.833 31.6808 195.388 32.7568 197.008C33.0188 197.406 33.4138 197.805 33.1418 198.367Z" fill="#31615C"/>
        <path d="M15.9488 189.907C14.4687 187.546 13.2059 185.055 12.1758 182.466C14.7428 181.832 16.7758 180.142 19.0678 178.966C19.7998 178.591 20.4598 177.938 21.4058 178.31C22.6418 180.217 23.6118 182.274 24.7058 184.26C24.8307 184.446 24.9073 184.66 24.9288 184.883C24.9503 185.107 24.9159 185.332 24.8288 185.538C22.4518 187.197 19.8478 188.474 17.3548 189.938C17.1499 190.089 16.9009 190.168 16.6465 190.162C16.3921 190.157 16.1467 190.067 15.9488 189.907Z" fill="#2F5A56"/>
        <path d="M244.72 75.545C242.111 77.612 239.082 78.972 236.22 80.615C236.049 80.631 235.832 80.628 235.762 80.486C234.639 78.212 233.14 76.102 232.712 73.523C234.512 71.893 236.787 71.023 238.812 69.752C239.541 69.1275 240.446 68.7433 241.402 68.652C242.719 70.842 243.83 73.1496 244.72 75.545Z" fill="#31615C"/>
        <path d="M233.725 55.848C235.19 57.78 236.495 59.8288 237.625 61.974C237.809 62.822 237.087 63.008 236.595 63.298C234.22 64.698 231.849 66.1073 229.482 67.526C229.426 67.526 229.347 67.544 229.317 67.514C227.302 65.6102 225.797 63.2322 224.937 60.597C225.297 60.0211 225.828 59.5721 226.456 59.313C228.264 58.289 230.073 57.267 231.85 56.19C232.425 55.844 233.006 55.45 233.725 55.848Z" fill="#2F5A56"/>
        <path d="M251.83 160.127C249.275 160.592 247.469 162.514 245.201 163.538C243.337 164.38 241.818 165.931 239.686 166.22C239.566 166.104 239.482 165.955 239.447 165.791C239.411 165.627 239.425 165.457 239.486 165.301C240.062 163.338 240.694 161.392 241.326 159.447C241.377 159.287 241.466 159.143 241.585 159.025C241.705 158.907 241.851 158.821 242.011 158.772C244.568 158.323 246.357 156.372 248.634 155.383C250.234 154.683 251.474 153.141 253.455 153.358C253.116 155.658 252.572 157.924 251.83 160.127Z" fill="#368578"/>
        <path d="M15.9492 189.906C18.3902 189.318 20.2682 187.633 22.4552 186.549C23.1526 186.087 23.9173 185.735 24.7222 185.506C26.2112 186.556 28.4902 190.279 28.4502 191.596L19.9502 196.689C18.4401 194.537 17.1026 192.269 15.9502 189.906H15.9492Z" fill="#305E59"/>
        <path d="M229.474 67.45C230.825 65.776 232.891 65.166 234.594 64.017C235.604 63.334 236.825 62.965 237.627 61.975C239.082 64.0839 240.345 66.3188 241.401 68.653C238.59 70.353 235.808 72.095 232.837 73.51C232.701 73.5503 232.555 73.5456 232.422 73.4966C232.289 73.4475 232.175 73.3569 232.098 73.238C231.078 71.5707 230.155 69.8458 229.334 68.072C229.295 67.9658 229.288 67.8508 229.313 67.7405C229.338 67.6303 229.393 67.5295 229.474 67.45Z" fill="#305E59"/>
        <path d="M112.408 245.056C109.295 247.342 105.802 248.999 102.528 251.016C101.597 251.406 100.792 252.043 100.198 252.859C97.8858 252.549 95.6148 251.985 93.4258 251.179C92.9678 250.193 93.7958 249.909 94.3688 249.55C96.4018 248.273 98.5018 247.107 100.605 245.95C101.982 245.194 103.205 244.226 104.536 243.409C107.069 243.328 109.476 244.142 111.955 244.448C112.025 244.458 112.092 244.481 112.153 244.517C112.214 244.553 112.267 244.6 112.309 244.657C112.351 244.714 112.381 244.778 112.398 244.847C112.415 244.915 112.419 244.986 112.408 245.056Z" fill="#37877A"/>
        <path d="M104.266 243.679C103.074 245.679 100.789 246.114 99.0361 247.308C97.5251 248.338 95.8761 249.167 94.2711 250.055C93.7991 250.316 93.4311 250.597 93.4221 251.18C91.1033 250.717 88.8381 250.017 86.6621 249.091C87.1311 247.439 88.8001 247.266 89.9541 246.491C92.3061 244.91 94.9751 243.831 97.1811 242.008C97.3532 241.864 97.5606 241.768 97.7819 241.731C98.0031 241.694 98.2304 241.716 98.4401 241.796C100.069 242.174 101.7 242.546 103.332 242.911C103.743 243.003 104.245 243.072 104.266 243.679Z" fill="#368577"/>
        <path d="M0.75 141.86C1.762 142.46 2.39899 141.592 3.14999 141.227C5.53899 140.06 7.581 138.245 10.173 137.453C11.2456 139.659 11.5882 142.149 11.151 144.563C8.884 145.863 6.639 147.205 4.336 148.438C3.553 148.858 2.852 149.697 1.772 149.309C1.21942 146.86 0.877505 144.368 0.75 141.86Z" fill="#2D4949"/>
        <path d="M233.729 55.85C230.658 57.12 227.965 59.074 225.063 60.65C224.127 60.1141 223.313 59.3874 222.676 58.5171C222.039 57.6468 221.591 56.6523 221.363 55.598C223.701 54.198 226.035 52.786 228.381 51.398C228.914 51.083 229.52 50.869 229.52 50.098C231.085 51.8915 232.493 53.8159 233.729 55.85Z" fill="#2F5754"/>
        <path d="M21.289 178.404C18.8756 179.501 16.5448 180.771 14.315 182.204C13.603 182.604 12.965 182.987 12.176 182.462C11.1835 180.754 10.3705 178.948 9.75 177.072C12.05 176.61 13.768 175.03 15.76 173.972C16.6447 173.4 17.6036 172.951 18.61 172.639C20.1246 174.206 21.0682 176.236 21.289 178.404Z" fill="#2F5754"/>
        <path d="M0.315995 119.754C0.256995 121.028 0.637014 122.33 0.0730141 123.571C-0.0780986 122.294 0.00422248 121.001 0.315995 119.754Z" fill="#2C4345"/>
        <path d="M0.406977 138.14C0.951977 138.912 0.598984 139.775 0.657984 140.597C0.357349 139.815 0.270699 138.967 0.406977 138.14Z" fill="#2D4949"/>
        <path d="M138.459 255.488C139.125 254.979 139.88 255.288 140.598 255.255C139.93 255.565 139.178 255.647 138.459 255.488Z" fill="#399584"/>
        <path d="M21.2902 178.404L18.6111 172.65C17.6018 169.943 16.5931 167.236 15.5851 164.528C14.6745 161.032 13.7631 157.536 12.8511 154.041C12.3571 150.869 11.2721 147.804 11.1511 144.565C10.8245 142.195 10.4981 139.825 10.1721 137.456C10.1648 136.329 10.1575 135.201 10.1501 134.074C10.2321 129.113 9.83114 124.149 10.1671 119.188C10.7431 117.424 10.5431 115.566 10.8311 113.765C11.2101 111.404 11.5141 109.032 11.8511 106.665C12.8511 102.373 13.6111 98.027 14.9031 93.806L18.2902 83.998C19.5812 81.707 20.4441 79.222 21.5461 76.847C22.4461 74.92 23.4321 73.038 24.3811 71.137C26.5981 67.596 28.7571 64.018 31.0551 60.53C32.3631 58.3988 33.8673 56.3945 35.5481 54.543C38.4931 51.074 41.6291 47.783 44.7131 44.443C48.3861 40.462 52.6721 37.215 56.6851 33.643C57.7068 32.8604 58.7877 32.1583 59.9181 31.543C65.6648 27.4874 71.7745 23.9724 78.1692 21.043C78.3131 20.981 78.4151 20.821 78.5361 20.707C87.0268 16.798 95.9664 13.9489 105.153 12.224C106.804 12.0676 108.434 11.7354 110.014 11.233C112.414 11.273 114.714 10.394 117.125 10.547C117.636 10.164 118.312 10.628 118.818 10.218L121.864 10.209C126.033 9.94839 130.214 9.94839 134.382 10.209C137.9 10.3304 141.406 10.6687 144.882 11.222L154.694 12.935L167.553 16.663L179.402 21.715C183.626 23.683 187.511 26.258 191.582 28.5L201.062 35.261L207.828 41.023C210.423 43.845 213.129 46.5564 215.947 49.157C217.616 51.4129 219.422 53.5637 221.356 55.597C222.407 57.4073 223.647 59.1005 225.056 60.648C226.366 63.0152 227.841 65.2874 229.469 67.448C230.403 69.5662 231.53 71.5944 232.834 73.507L236.215 80.612L239.974 90.438L243.026 101.253C243.603 104.41 244.18 107.566 244.757 110.723C245.452 115.745 245.811 120.807 245.833 125.877C245.833 126.02 245.986 126.164 246.067 126.307C246.119 129.127 245.567 131.925 245.792 134.749C245.753 136.672 245.242 138.563 245.407 140.499L244.091 149.299L242.005 158.772L239.681 166.219C238.516 169.256 237.35 172.294 236.181 175.331L230.153 187.196L225.01 195.296C220.237 201.804 214.96 207.926 209.226 213.606C205.398 217.006 201.54 220.362 197.397 223.38C188.382 229.958 178.474 235.215 167.972 238.99C167.709 239.09 167.462 239.224 167.208 239.342C161.221 241.317 155.117 242.916 148.931 244.13C144.431 244.816 139.931 245.442 135.393 245.791C130.542 245.683 125.693 246.299 120.839 245.791L112.396 245.054L104.258 243.677L97.1711 242.005L88.3951 239.284L79.8951 235.864L73.0951 232.544C70.6591 231.156 68.2201 229.774 65.7951 228.376C65.0701 227.96 64.3701 227.499 63.6581 227.058L53.8821 219.986L46.3551 213.255L39.2351 205.813L33.1352 198.363L28.4441 191.59C27.3091 189.496 26.0647 187.464 24.7161 185.501C23.9321 182.972 22.0991 180.937 21.2911 178.401L21.2902 178.404Z" fill="#192123"/>
        <path d="M134.382 10.213H121.864C123.353 9.50503 124.93 10.013 126.464 9.89803C127.633 9.81303 128.813 9.88003 129.987 9.87903C131.444 10.07 132.963 9.48603 134.382 10.213Z" fill="#293237"/>
        <path d="M118.818 10.22C118.34 10.772 117.697 10.479 117.125 10.549C117.602 9.99501 118.247 10.298 118.818 10.22Z" fill="#293237"/>
        <path d="M98.1709 158.533C97.1435 159.253 95.9296 159.66 94.6758 159.706C93.4219 159.751 92.1818 159.433 91.1049 158.789C89.4669 153.405 88.2449 147.911 86.7629 142.489C82.9999 128.706 79.3819 114.883 75.6789 101.083C75.4223 100.342 75.3536 99.5497 75.4789 98.776C75.5199 98.329 75.8519 98.1 76.1659 97.857C79.6759 96.149 83.5839 95.882 87.2659 94.807C88.0162 94.5895 88.7803 94.4224 89.5529 94.307C90.2889 94.6996 90.8862 95.3093 91.2635 96.0532C91.6409 96.7971 91.78 97.6392 91.6619 98.465C92.8399 96.242 93.0619 93.365 96.1279 92.724C97.0713 92.6031 98.0064 92.4244 98.9279 92.189C99.2047 92.169 99.4802 92.2418 99.7109 92.396C100.145 92.8458 100.419 93.426 100.491 94.047C103.691 107.657 106.924 121.26 110.191 134.855C110.321 135.287 110.396 135.733 110.416 136.184C110.255 138.002 109.081 139.368 108.255 140.878C105.349 146.192 102.482 151.528 99.4809 156.791C99.123 157.427 98.6825 158.013 98.1709 158.533Z" fill="#1FC8A7"/>
        <path d="M180.707 157.116C180.439 157.693 179.986 158.163 179.419 158.451C176.733 159.703 173.801 160.075 170.962 160.745C159.228 163.515 147.504 166.324 135.762 169.074C130.002 170.422 124.256 171.828 118.487 173.139C117.901 173.351 117.266 173.383 116.661 173.233C115.831 172.628 116.426 172.026 116.709 171.471C118.915 167.162 121.348 162.977 123.679 158.737C127.772 151.293 131.823 143.825 135.979 136.418C136.754 135.039 137.142 133.336 138.73 132.509C140.312 132.905 141.811 133.577 143.16 134.493C150.511 138.507 157.877 142.493 165.224 146.517C170.102 149.187 175.072 151.694 179.824 154.6C180.236 155.393 180.533 156.24 180.707 157.116Z" fill="#1FC8A7"/>
        <path d="M116.479 173.009C121.624 172.109 126.654 170.709 131.732 169.521C147.245 165.895 162.74 162.194 178.245 158.532C178.633 158.471 179.025 158.442 179.418 158.446C176.476 160.599 173.4 162.563 170.208 164.326C152.443 175.272 134.662 186.192 116.865 197.087C114.756 198.382 112.665 199.701 110.537 200.969C109.194 201.876 107.559 202.246 105.956 202.005C104.354 201.764 102.9 200.931 101.882 199.669C101.505 199.129 101.882 198.704 102.115 198.277C106.54 190.188 110.962 182.098 115.456 174.047C115.699 173.611 115.9 173.12 116.479 173.009Z" fill="#198889"/>
        <path d="M99.5543 92.457L98.8543 92.464C98.5023 92.689 98.2313 92.647 98.0803 92.224C97.1543 92.014 99.3803 91.984 98.0953 91.564C96.2233 90.953 94.1423 90.507 93.2953 88.323C93.1363 87.915 92.8743 87.523 93.1303 87.056C97.4633 84.449 101.814 81.872 106.13 79.23C119.13 71.262 132.122 63.2824 145.106 55.291C148.478 53.224 151.642 53.691 154.351 56.556C153.096 59.772 151.173 62.639 149.543 65.656C146.705 70.909 143.79 76.12 140.92 81.356C140.589 82.1383 140.054 82.8168 139.369 83.32C134.186 84.7867 128.948 86.02 123.656 87.02C122.096 87.436 120.538 87.865 118.956 88.212C116.24 88.928 113.524 89.642 110.764 90.178C107.738 90.8447 104.721 91.5507 101.714 92.296C101.029 92.5759 100.273 92.6323 99.5543 92.457Z" fill="#198889"/>
        <path d="M116.477 173.016L101.877 199.677C101.068 198.977 100.471 198.065 100.155 197.043C99.8386 196.021 99.8155 194.93 100.088 193.896C101.362 188.557 102.65 183.222 103.952 177.89C104.201 176.967 104.61 176.096 105.161 175.315C121.947 150.104 138.729 124.89 155.509 99.673C155.979 98.7021 156.76 97.9156 157.727 97.438C158.084 98.182 157.57 98.738 157.28 99.312C155.727 102.372 153.985 105.331 152.353 108.349C151.846 109.224 151.423 110.146 151.09 111.101C149.896 112.867 148.81 114.704 147.837 116.601C146.356 119.187 144.922 121.801 143.557 124.448C142.257 126.907 140.793 129.275 139.543 131.761C139.401 132.127 139.138 132.434 138.797 132.63C137.225 134.43 136.33 136.636 135.19 138.684C128.932 149.938 122.757 161.239 116.56 172.527C116.507 172.685 116.479 172.85 116.477 173.016Z" fill="#68FDE1"/>
        <path d="M139.462 82.969C143.543 75.581 147.604 68.181 151.721 60.814C152.533 59.361 153.087 57.736 154.339 56.548C155.096 57.4604 155.611 58.5485 155.837 59.7121C156.064 60.8758 155.993 62.0776 155.633 63.207C154.367 68.138 153.19 73.093 151.967 78.036C151.7 79.0109 151.264 79.9317 150.68 80.757C133.914 105.935 117.155 131.118 100.403 156.306C99.9234 157.272 99.1405 158.054 98.1743 158.533C101.677 152.116 105.181 145.698 108.686 139.281C109.261 138.38 109.731 137.415 110.086 136.407C110.965 133.519 112.736 131.077 114.116 128.442C115.343 126.098 116.678 123.808 117.905 121.461C120.076 117.941 121.955 114.261 123.958 110.643C125.297 108.136 126.636 105.627 128.032 103.15C131.149 97.697 134.114 92.16 137.154 86.665C137.772 85.3431 138.547 84.1007 139.462 82.965V82.969Z" fill="#68FDE1"/>
        <path d="M180.704 157.119C179.727 156.613 180.004 155.579 179.715 154.78C178.225 152.223 178.031 149.26 177.145 146.512C176.762 144.944 176.27 143.404 175.673 141.903C174.881 138.076 173.587 134.373 172.834 130.537C172.198 127.533 171.374 124.571 170.367 121.67C168.382 114.217 166.41 106.762 164.45 99.303C164.258 98.577 163.661 97.703 164.803 97.155C166.136 97.786 167.192 98.8845 167.768 100.242C173.734 112.287 179.694 124.335 185.646 136.386C186.028 137.041 186.274 137.767 186.368 138.52C186.462 139.272 186.402 140.036 186.193 140.765C184.41 146.232 182.824 151.765 180.704 157.119Z" fill="#68FDE1"/>
        <path d="M75.4802 98.772C77.4689 106.151 79.4562 113.529 81.4422 120.907C84.6056 132.741 87.7499 144.58 90.8753 156.425C91.0753 157.166 91.7542 157.937 91.1072 158.789C89.8923 158.178 88.9203 157.174 88.3502 155.939C82.4049 143.934 76.4516 131.934 70.4902 119.939C70.0274 119.04 69.7546 118.055 69.6889 117.046C69.6232 116.037 69.7659 115.025 70.1083 114.073C71.5823 109.615 73.0252 105.145 74.5082 100.691C74.6394 99.9707 74.9771 99.304 75.4802 98.772Z" fill="#68FDE1"/>
        <path d="M164.806 97.158C164.271 97.658 164.606 98.181 164.751 98.714C166.712 106.081 168.667 113.45 170.618 120.82C170.688 121.082 170.839 121.35 170.611 121.611C170.306 121.663 169.994 121.648 169.695 121.569C169.396 121.49 169.118 121.348 168.879 121.152C163.19 118.118 157.552 114.989 151.862 111.958C151.462 111.748 151.062 111.528 150.962 111.026C150.553 109.866 151.489 109.156 151.923 108.306C153.79 104.648 156.05 101.2 157.731 97.441C158.752 96.7038 159.967 96.2837 161.226 96.2334C162.484 96.1831 163.729 96.5047 164.806 97.158Z" fill="#1FC8A7"/>
        <path d="M93.12 87.053C93.714 89.753 96.001 90.431 98.161 91.216C99.174 91.584 98.984 91.832 98.183 92.168C97.616 92.868 96.732 92.809 95.992 93.097C94.386 93.491 93.692 94.754 93.111 96.124C92.744 96.994 92.392 97.869 91.984 98.861C91.116 97.321 90.867 95.661 89.818 94.402C88.24 93.545 86.391 93.202 85.058 91.879C84.858 91.645 84.919 91.511 85.213 91.442C88.843 90.588 91.113 88.372 91.813 84.224L93.12 87.053Z" fill="#FDFEFE"/>
        <path d="M85.0581 91.877C86.6881 92.634 88.5731 92.913 89.8181 94.399C88.0181 95.499 85.9001 95.507 83.9441 96.07C81.3911 96.806 78.7611 97.27 76.1641 97.857C78.5231 95.832 81.3711 94.557 83.9171 92.824C84.3291 92.543 84.8391 92.39 85.0581 91.877Z" fill="#19898A"/>
        <path d="M118.191 121.516C116.827 124.848 114.82 127.84 113.17 131.023C112.219 132.859 111.117 134.616 110.083 136.408C106.671 122.075 103.258 107.744 99.8448 93.417C99.7668 93.09 99.6448 92.772 99.5508 92.45C103.203 91.311 106.951 90.555 110.682 89.75C111.228 90.2457 111.576 90.923 111.661 91.656C113.903 100.946 116.115 110.243 118.296 119.548C118.52 120.192 118.483 120.899 118.191 121.516Z" fill="#A4E8DB"/>
        <path d="M95.9893 93.096C96.6466 92.6299 97.3972 92.3116 98.1892 92.163L98.8532 92.455C97.9824 92.9458 96.9862 93.1688 95.9893 93.096Z" fill="#2AA197"/>
        <path d="M176.027 141.887C177.244 143.575 177.297 145.641 177.842 147.543C178.527 149.943 179.099 152.365 179.719 154.778C174.475 151.955 169.233 149.13 163.991 146.305C155.591 141.754 147.194 137.194 138.801 132.625C139.901 129.619 141.841 127.051 143.214 124.187C143.951 123.847 144.526 124.287 145.104 124.612C154.914 130.042 164.79 135.35 174.646 140.695C175.215 140.945 175.696 141.36 176.027 141.887Z" fill="#A4E8DB"/>
        <path d="M135.296 173.138C136.092 172.91 136.805 172.454 137.345 171.826C137.885 171.198 138.23 170.425 138.337 169.604C138.516 170.495 138.966 171.31 139.625 171.936C140.284 172.562 141.121 172.97 142.02 173.104C141.117 173.219 140.276 173.624 139.624 174.259C138.971 174.893 138.543 175.722 138.402 176.621C137.852 174.625 136.925 173.561 135.296 173.138Z" fill="#F9FBFB"/>
        <path d="M118.192 121.518C117.051 116.602 115.925 111.683 114.763 106.772C113.42 101.095 112.045 95.426 110.684 89.754L118.84 87.761C119.262 88.2157 119.529 88.7916 119.605 89.407C121.105 95.733 122.594 102.061 124.132 108.378C124.4 109.119 124.453 109.92 124.284 110.689C122.513 114.439 120.477 118.057 118.192 121.518Z" fill="#1FC8A7"/>
        <path d="M139.463 82.974C138.324 85.5305 137.021 88.011 135.563 90.4C133.505 94.261 131.385 98.089 129.273 101.921C128.979 102.392 128.657 102.846 128.31 103.279C127.54 102.814 127.48 101.979 127.31 101.238C126.47 97.586 125.582 93.947 124.734 90.297C124.462 89.041 124.072 87.8133 123.571 86.63L139.463 82.974Z" fill="#1FC8A7"/>
        <path d="M123.573 86.63C124.411 86.661 124.463 87.283 124.612 87.91C125.83 93.037 127.075 98.157 128.312 103.279L124.284 110.69C122.324 103.081 120.478 95.446 118.842 87.761L123.573 86.63Z" fill="#A4E8DB"/>
        <path d="M176.025 141.889C165.696 136.277 155.365 130.666 145.034 125.057C144.444 124.736 143.819 124.477 143.211 124.189C144.673 121.602 145.899 118.881 147.598 116.428C148.653 116.237 149.427 116.912 150.236 117.363C157.37 121.345 164.612 125.127 171.751 129.099C172.378 129.36 172.912 129.804 173.283 130.373C174.126 133.719 174.976 137.062 175.807 140.41C175.905 140.899 175.977 141.393 176.025 141.889Z" fill="#1FC8A7"/>
        <path d="M173.284 130.374L147.599 116.429C148.651 114.585 149.199 112.429 150.962 111.029L170.61 121.615C171.888 123.287 171.8 125.427 172.538 127.29C172.862 128.298 173.111 129.329 173.284 130.374Z" fill="#A4E8DB"/>
        <path d="M114.001 98.08C114.884 97.9586 115.703 97.5552 116.338 96.9298C116.972 96.3045 117.388 95.4907 117.522 94.61C117.676 95.4706 118.095 96.2614 118.721 96.8713C119.348 97.4811 120.15 97.8794 121.014 98.01C119.214 98.655 117.956 99.435 117.596 101.224C117.35 100.417 116.883 99.6941 116.248 99.1384C115.612 98.5828 114.834 98.2161 114.001 98.08Z" fill="#FAFDFC"/>
    </g>
    <defs>
        <clipPath id="clip0_2_6787">
            <rect width="256" height="256" fill="white"/>
        </clipPath>
    </defs>
</svg>