<svg xmlns="http://www.w3.org/2000/svg" width="24" height="24" fill="none"><g clip-path="url(#a)"><mask id="b" maskUnits="userSpaceOnUse" x="0" y="0" width="25" height="25"><path d="M0 0h25v25H0V0Z" fill="#fff"/></mask><g mask="url(#b)"><path d="M10.541 11.669c-.094-.005-.193.036-.28-.032a.46.46 0 0 1 .28.032zm.396.042c-.078.002-.16.033-.23-.029a.345.345 0 0 1 .23.029z" fill="#2a373b"/><path d="M2.74 4.691c.197-.274.416-.531.657-.768A12.39 12.39 0 0 1 9.518.355c.38-.102.767-.173 1.158-.215.044.128-.064.164-.137.207l-1.314.761-1.413.82a.26.26 0 0 0-.132.119.19.19 0 0 1-.09.07A10.92 10.92 0 0 0 6.044 3a.517.517 0 0 1-.188.1.26.26 0 0 0-.156.042L3.059 4.661a.621.621 0 0 1-.192.093c-.053.01-.122.033-.127-.063z" fill="#283036"/><path d="M16.033 24.487c-.699.217-1.419.361-2.149.43-.038-.116.056-.156.126-.197l1.539-.89c.26-.152.537-.276.764-.479.223-.133.475-.2.712-.3a11.452 11.452 0 0 0 2.974-1.864c.141-.12.256-.273.426-.36a.75.75 0 0 0 .272-.11l1.883-1.08c.046-.025.121-.135.168.01a11.244 11.244 0 0 1-1.442 1.727c-.038.039-.081.073-.122.11l-3.228 1.855-1.628.938a1.28 1.28 0 0 0-.294.21z" fill="#399584"/><path d="M2.74 4.691c.072.088.143.024.204-.011l1.337-.774 1.438-.825c.041-.024.087-.058.131-.001a6.46 6.46 0 0 1-.618.511A13.08 13.08 0 0 0 3.685 5.14a.732.732 0 0 1-.209.206c-.294.087-.535.275-.799.42l-.774.437c-.055.028-.144.116-.188-.024a7.97 7.97 0 0 1 .67-1.039c.105-.16.223-.31.354-.449zm4.93-2.669c.02-.141.158-.146.244-.199l1.193-.693L10.49.332c.081-.047.17-.084.187-.192a7.992 7.992 0 0 1 1.225-.13c.186-.012.373-.004.56-.005.012.113-.081.145-.152.188l-1.222.711a1.74 1.74 0 0 0-.337.234c-.326.098-.664.14-.995.215a10.8 10.8 0 0 0-1.84.609c-.078.033-.154.089-.248.061z" fill="#293237"/><path d="M22.748 19.649c-.019-.037-.042-.042-.079-.021l-1.565.902-.468.273a.333.333 0 0 1-.203.056c-.032-.068.024-.102.06-.137a11.36 11.36 0 0 0 1.376-1.586.279.279 0 0 1 .109-.098c.412-.186.786-.439 1.18-.658l.259-.144c.06-.031.125-.079.197-.02a8.983 8.983 0 0 1-.867 1.431z" fill="#389181"/><path d="M16.032 24.488c-.011-.094.069-.12.126-.154l1.463-.85 3.158-1.823a1.08 1.08 0 0 1 .404-.177l-.487.445a10.6 10.6 0 0 1-1.586 1.184 11.863 11.863 0 0 1-3.076 1.374h-.001z" fill="#3a9987"/><path d="M1.716 6.178c.062.083.121.016.171-.012l1.239-.706c.107-.06.202-.164.346-.135-.06.182-.203.311-.308.462a15.03 15.03 0 0 0-.629 1.005c-.038.065-.066.141-.147.169-.175.008-.301.127-.441.207l-.728.418c-.07.04-.143.114-.238.05.2-.508.447-.996.737-1.459zm9.028-5.081c.22-.212.506-.319.76-.477l.821-.479a.343.343 0 0 0 .138-.137 7.23 7.23 0 0 1 1.058.041c.067.028.141-.006.208.024l.123.009c.055.026.116-.002.171.022V.098c.016.093-.059.121-.117.156l-.808.469c-.154.084-.29.193-.443.278-.249.031-.5-.018-.748.031a1.547 1.547 0 0 1-.289.015.46.46 0 0 0-.195.02l-.481.063a.211.211 0 0 1-.198-.032z" fill="#293439"/><path d="M18.412 1.499a4.15 4.15 0 0 1 .721.401l.47.318c.017.057-.029.079-.063.1l-.832.48a.269.269 0 0 1-.154-.052l-.962-.546a.178.178 0 0 1-.085-.075c-.022-.084.036-.12.095-.153l.811-.474z" fill="#2c4345"/><path d="M16.33 23.373c-.119.178-.322.238-.493.338l-1.821 1.048a.22.22 0 0 0-.131.158l-.153.01c-.067.028-.141-.004-.209.023-.252.039-.507.05-.762.034-.037-.1.052-.122.106-.153l1.306-.756a2.07 2.07 0 0 0 .388-.27l1.631-.439c.046-.016.095-.033.14.008z" fill="#389282"/><path d="M.979 7.636c.2-.033.351-.168.522-.26l.721-.415c.046-.026.1-.083.159-.015a.198.198 0 0 1-.036.187 9.226 9.226 0 0 0-.443.938c-.025.054-.038.117-.101.144a.7.7 0 0 0-.333.13l-.698.403c-.063.036-.124.099-.209.049.104-.398.244-.787.417-1.161z" fill="#2a373b"/><path d="M11.659 24.96a6.12 6.12 0 0 1-1.184-.134.322.322 0 0 1 .156-.14l.912-.524c.105-.059.197-.137.3-.199.448.044.895-.04 1.343.002.127.095.011.14-.046.178l-.535.319-.792.464c-.046.029-.093.061-.152.034z" fill="#388d7e"/><path d="M12.694.965c.151-.2.393-.265.593-.393l.635-.369a.253.253 0 0 0 .101-.104c.374.025.744.092 1.102.2a.484.484 0 0 0 .114.01c.038.111-.063.128-.12.161l-.624.365c-.142.079-.29.149-.384.291-.331-.013-.658-.074-.989-.093a.875.875 0 0 0-.26-.022c-.059-.002-.122.006-.168-.046z" fill="#2a373b"/><path d="M16.132.54c.407.11.805.253 1.189.428.046.104-.042.135-.101.172l-.873.511c-.228-.006-.428-.116-.642-.176-.202-.057-.42-.069-.605-.183-.029-.11.058-.143.127-.183l.701-.404a.56.56 0 0 0 .203-.165zM.1 10.945c.036-.437.113-.87.23-1.294.13.003.221-.086.325-.142l.642-.361c.059-.03.142-.097.181.032l-.297 1.233-.915.516c-.051.03-.105.068-.165.016z" fill="#2a3c3f"/><path d="M16.363 1.627c.191-.188.454-.262.664-.419.101-.075.259-.085.295-.24.381.139.746.317 1.091.53-.132.178-.347.234-.52.353a2.943 2.943 0 0 1-.3.168c-.02.008-.038.022-.051.04s-.02.039-.021.061c-.055.043-.106.011-.153-.013a9.28 9.28 0 0 0-.878-.374c-.05-.02-.124-.024-.127-.106z" fill="#2b4042"/><path d="M5.352 22.752a7.48 7.48 0 0 1-.992-.768c.285-.195.59-.356.892-.523a.18.18 0 0 1 .135.051l.747.545c.025.011.048.028.065.05s.029.047.035.074a.145.145 0 0 1-.081.117l-.801.454z" fill="#34736a"/><path d="M24.355 16.464a7.111 7.111 0 0 1-.395 1.025l-1.304.761a.193.193 0 0 1-.185.033c-.028-.053.002-.095.025-.137.177-.301.335-.613.473-.933a.202.202 0 0 1 .092-.111c.333-.123.616-.339.926-.504l.216-.12c.047-.026.096-.061.151-.013z" fill="#388c7d"/><path d="M.1 10.945c.193-.038.333-.177.504-.26.137-.066.266-.15.399-.225a.26.26 0 0 1 .155-.045.34.34 0 0 1 .011.209l-.1.911a.17.17 0 0 1-.031.092c-.303.09-.55.285-.824.429-.063.033-.122.106-.207.044v-.034c.032-.123-.01-.25.024-.373a3.497 3.497 0 0 1 .069-.75z" fill="#2b4042"/><path d="m11.659 24.96.605-.351.849-.494c.043-.026.104-.046.11-.112.078-.077.184-.067.278-.075l.86-.113c.062-.01.13-.035.184.026-.059.141-.2.179-.314.246l-1.361.785c-.043.025-.104.045-.11.112a5.786 5.786 0 0 1-1.101-.024z" fill="#389081"/><path d="M24.795 10.275c.073.314.117.635.131.957.031.247.03.246-.174.361l-.54.313a.248.248 0 0 0-.14.237c0 .067.035.158-.067.194a.13.13 0 0 1-.052-.115c.007-.458-.052-.913-.085-1.368.013-.056.061-.072.104-.096l.823-.482z" fill="#34736a"/><path d="M18.709 2.784c.222-.178.487-.286.722-.444l.172-.121a6.21 6.21 0 0 1 .862.654c.015.123-.093.15-.165.193l-.66.389a.05.05 0 0 1-.032 0c-.312-.187-.596-.415-.892-.626-.013-.009-.012-.029-.007-.045z" fill="#2d4949"/><path d="M21.123 3.453a7.43 7.43 0 0 1 .758.79c.004.111-.094.136-.161.181-.202.135-.431.227-.623.381-.058.014-.094-.024-.128-.058l-.63-.63c-.017-.014-.031-.031-.041-.051s-.016-.041-.018-.063c.029-.088.112-.114.181-.156l.662-.394zM.666 16.529a6.01 6.01 0 0 1-.298-1.025c.03-.081.11-.104.174-.142l.554-.319c.063-.036.128-.074.189.005.1.331.219.657.257 1.003a4.891 4.891 0 0 1-.813.48c-.01.004-.021.006-.032.005s-.022-.004-.031-.009z" fill="#2e504f"/><path d="M24.796 10.275c-.004.016-.004.039-.014.046-.283.182-.558.379-.879.492-.02-.014-.037-.033-.049-.055s-.019-.046-.021-.071l-.143-.776a.233.233 0 0 1 .138-.237l.737-.426c.107.335.184.678.23 1.026z" fill="#336e66"/><path d="M24.565 9.249c-.044.134-.184.143-.279.209-.151.1-.308.19-.47.27a.143.143 0 0 0-.083.16h-.02c-.006-.001-.013-.004-.019-.008s-.011-.009-.014-.015a.05.05 0 0 1-.007-.019l-.269-.998c.001-.022.008-.044.018-.063s.026-.036.044-.048c.262-.156.511-.337.8-.445a5.25 5.25 0 0 1 .299.956z" fill="#326962"/><path d="m5.262 21.483-.808.482a.301.301 0 0 1-.094.018 8.09 8.09 0 0 1-.722-.663c.003-.016.006-.036.019-.044.279-.176.548-.371.866-.479.201.104.338.287.51.427.088.073.217.117.23.258z" fill="#336e66"/><path d="M5.352 22.752c.126-.144.311-.198.462-.305.132-.094.307-.125.403-.272.256.071.466.232.693.358.085.047.206.057.237.179-.225.193-.496.313-.749.461-.071.042-.128.125-.229.105a5.735 5.735 0 0 1-.817-.525z" fill="#34786d"/><path d="M1.455 9.16c-.059-.06-.103.002-.143.024l-.84.474c-.041.023-.104.124-.144-.007a4.5 4.5 0 0 1 .232-.855c.302-.119.565-.309.847-.464l.262-.138c.04-.021.081-.041.116.008a.097.097 0 0 1 .007.108l-.258.764c-.012.038-.018.091-.08.085zM16.132.54c.043.084-.029.104-.077.132l-.788.459c-.061.035-.129.06-.16.132a.14.14 0 0 1-.138.027l-.71-.13a.15.15 0 0 1-.11-.064c-.054-.081 0-.112.063-.147l.89-.512c.053-.031.122-.053.137-.128.264.023.504.132.754.206.047.006.094.014.14.026z" fill="#2a393d"/><path d="M24.266 8.293a7.37 7.37 0 0 1-.67.406c-.061.037-.13.061-.161.133-.051.005-.066-.034-.079-.068l-.295-.781a.17.17 0 0 1-.009-.097c.083-.125.223-.169.344-.238a2.79 2.79 0 0 1 .502-.271 5.44 5.44 0 0 1 .368.916z" fill="#31655f"/><path d="M4.527 20.826c-.315.133-.593.331-.89.495a8.77 8.77 0 0 1-.664-.726c.101-.133.26-.178.395-.258.146-.098.299-.184.459-.257.123.048.184.166.275.249l.348.348c.039.041.1.074.076.149z" fill="#326962"/><path d="M24.918 13.887a7.4 7.4 0 0 1-.166 1.089c-.306.137-.588.317-.878.483-.076.043-.155.119-.254.04-.036-.089.008-.171.025-.254l.156-.649a.282.282 0 0 1 .129-.124l.763-.43c.085-.042.135-.127.225-.156v.001z" fill="#368275"/><path d="M3.832 20.1a9.28 9.28 0 0 1-.858.496 6.4 6.4 0 0 1-.595-.76c.023-.07.087-.098.143-.129l.542-.311c.023-.02.05-.034.079-.041s.06-.009.09-.003c.202.147.322.367.483.55.049.056.14.097.116.199z" fill="#31655f"/><path d="M24.03 12.335c-.061-.292.067-.465.335-.57.125-.049.229-.151.354-.201.16-.064.235-.16.207-.332a3.86 3.86 0 0 1 .06.629l.006.537a.362.362 0 0 1-.151.123l-.675.384a.21.21 0 0 0-.101.176c-.01.047-.02.127-.096.044a1.68 1.68 0 0 1 .061-.79z" fill="#34786d"/><path d="M24.355 16.464c-.267.089-.486.267-.733.392-.183.093-.338.247-.556.267a.115.115 0 0 1-.006-.124l.28-.713a.16.16 0 0 1 .049-.064c.33-.152.635-.348.95-.527.076-.043.151-.123.254-.056a4.936 4.936 0 0 1-.238.826z" fill="#37887a"/><path d="M.007 12.101c.19-.042.331-.18.501-.262.117-.057.225-.132.341-.193.044-.023.094-.07.145-.007a.332.332 0 0 1 .048.283c-.038.302.015.602.003.902a.82.82 0 0 1-.019.228c-.061.088-.086.028-.098-.029a1.575 1.575 0 0 1-.01-.329c0-.106-.037-.128-.128-.073l-.618.35c-.06.029-.137.078-.164-.042v-.828z" fill="#2c4345"/><path d="M8.463 24.325a5.01 5.01 0 0 1-.858-.327c-.001-.072.051-.106.102-.137l.855-.508a.165.165 0 0 1 .078-.02c.292.063.578.154.852.273.016.092-.055.125-.114.161l-.627.366c-.1.057-.197.121-.288.191z" fill="#368275"/><path d="M1.255 15.043c-.183.01-.304.15-.458.22-.149.067-.286.16-.428.241a5.405 5.405 0 0 1-.195-.924l.744-.414c.059-.032.123-.11.2-.024l.145.71c.012.062.041.128-.008.19z" fill="#2d4c4b"/><path d="M.007 12.928c.041.07.09.037.138.01l.67-.385c.111-.066.146-.046.149.088.002.15-.04.305.028.452.075.093.05.197.032.3-.114.143-.296.183-.438.284a3.02 3.02 0 0 1-.329.189c-.059.031-.129.085-.183-.013l-.01-.123c-.032-.078.006-.162-.025-.24a2.72 2.72 0 0 1-.032-.562z" fill="#2c4647"/><path d="M21.122 3.453c-.068.174-.258.184-.385.279-.138.104-.311.156-.442.274-.073.019-.106-.044-.151-.078l-.427-.358c-.039-.032-.101-.054-.083-.126.151-.177.377-.238.562-.362.095-.063.209-.1.268-.209.166.114.316.25.446.404a.66.66 0 0 0 .21.176z" fill="#2d4c4b"/><path d="M22.477 18.281c.377-.164.716-.398 1.076-.592.133-.072.246-.186.407-.2a5.362 5.362 0 0 1-.346.731c-.25.047-.441.213-.656.329l-.83.47a.282.282 0 0 1-.153.055c-.027-.046-.002-.086.021-.122l.403-.623c.016-.027.037-.057.078-.046z" fill="#388e7e"/><path d="M21.089 4.801c.062-.161.236-.172.354-.258.142-.105.321-.157.438-.3a4.99 4.99 0 0 1 .533.65c.039.065-.003.105-.05.134a5.43 5.43 0 0 1-.738.414c-.019.002-.038-.002-.056-.009s-.033-.02-.045-.035l-.407-.49c-.014-.013-.024-.03-.029-.049s-.005-.038.001-.057zM.666 16.529l.692-.395a1.39 1.39 0 0 1 .164-.067c.011.003.025.005.029.014.139.241.235.504.281.778-.238.161-.491.298-.742.44a.12.12 0 0 1-.07.019.118.118 0 0 1-.068-.025 4.75 4.75 0 0 1-.286-.764z" fill="#2f5552"/><path d="M8.633 23.368c-.336.222-.713.376-1.029.63a4.29 4.29 0 0 1-.767-.361c.142-.158.343-.227.516-.337l.459-.281a3.74 3.74 0 0 1 .805.305c.014.007.016.027.016.044z" fill="#367f73"/><path d="M11.801 24.003c-.014.118-.13.127-.202.171l-1.125.653a3.118 3.118 0 0 1-.69-.133c-.02-.061.023-.096.062-.12l1.164-.681c.216.004.431.021.645.051a.19.19 0 0 1 .145.061z" fill="#378a7b"/><path d="M24.918 13.887c-.084.198-.297.219-.449.322-.202.136-.42.249-.631.371a.077.077 0 0 1-.031-.071 5.59 5.59 0 0 1 .13-.771c.225-.155.466-.283.704-.415a.88.88 0 0 0 .344-.295c.003.288-.02.575-.066.859z" fill="#367f73"/><path d="M24.984 13.028a.33.33 0 0 1-.209.269l-.682.394a.215.215 0 0 1-.126.031c-.095-.194-.048-.379.038-.562-.008-.21.135-.299.296-.382l.692-.379c.012.21.009.42-.009.63zM7.803 23.034c-.084.142-.241.183-.371.26l-.596.343a3.81 3.81 0 0 1-.667-.361l.969-.566a.108.108 0 0 1 .109.01l.447.206c.048.021.107.038.109.108z" fill="#357b70"/><path d="M3.237 19.372c-.188.035-.322.176-.489.252-.128.059-.246.14-.368.211a4.96 4.96 0 0 1-.431-.628c.002-.014.007-.027.014-.039s.017-.022.029-.03l.785-.447c.021.005.041.014.059.027s.031.031.04.051l.325.469c.026.039.064.078.038.133z" fill="#31615c"/><path d="M1.557 18.546a4.428 4.428 0 0 1-.368-.727c.251-.062.449-.227.673-.342.071-.037.136-.1.228-.064.121.186.215.387.322.581a.132.132 0 0 1 .012.125c-.232.162-.486.287-.73.43a.111.111 0 0 1-.137-.003z" fill="#2f5a56"/><path d="M23.898 7.377c-.255.202-.551.335-.83.495-.017.002-.038.001-.045-.013-.11-.222-.256-.428-.298-.68.176-.159.398-.244.596-.368a.45.45 0 0 1 .253-.107 4.03 4.03 0 0 1 .324.673z" fill="#31615c"/><path d="M22.825 5.454a4.33 4.33 0 0 1 .381.598c.018.083-.053.101-.101.129l-.695.413a1.52 1.52 0 0 1-.444-.677.317.317 0 0 1 .148-.125l.527-.305c.056-.034.113-.072.183-.033z" fill="#2f5a56"/><path d="M24.593 15.637c-.25.045-.426.233-.647.333-.182.082-.33.234-.539.262-.012-.011-.02-.026-.023-.042s-.002-.033.004-.048l.18-.572a.1.1 0 0 1 .067-.066c.25-.044.424-.234.647-.331.156-.068.277-.219.471-.198a3.82 3.82 0 0 1-.159.661z" fill="#368578"/><path d="M1.558 18.546c.238-.057.422-.222.635-.328a.822.822 0 0 1 .221-.102c.146.103.368.466.364.595l-.83.497a4.86 4.86 0 0 1-.391-.662zM22.41 6.587c.132-.163.334-.223.5-.335.099-.067.218-.103.296-.199a4.19 4.19 0 0 1 .369.652l-.836.474c-.013.004-.027.003-.04-.001s-.024-.014-.032-.025a4.96 4.96 0 0 1-.27-.504c-.004-.01-.005-.022-.002-.032s.008-.021.016-.028z" fill="#305e59"/><path d="M10.977 23.931c-.304.223-.645.385-.965.582a.54.54 0 0 0-.228.18 3.06 3.06 0 0 1-.661-.164c-.045-.096.036-.124.092-.159l.609-.352c.134-.074.254-.168.384-.248.247-.008.482.072.724.102a.055.055 0 0 1 .035.02l.009.018a.049.049 0 0 1 .001.021z" fill="#37877a"/><path d="M10.182 23.797c-.116.195-.34.238-.511.354-.147.101-.309.181-.465.268-.046.026-.082.053-.083.11a3.384 3.384 0 0 1-.66-.204c.046-.161.209-.178.321-.254.23-.154.49-.26.706-.438.017-.014.037-.024.059-.027s.044-.001.064.006l.478.109c.04.009.089.016.091.075z" fill="#368577"/><path d="M.073 13.854c.099.059.161-.026.234-.062.233-.114.433-.291.686-.369a1.13 1.13 0 0 1 .096.694l-.666.378c-.076.041-.145.123-.25.085a4.354 4.354 0 0 1-.1-.727z" fill="#2d4949"/><path d="M22.825 5.454c-.3.124-.563.315-.846.469a.748.748 0 0 1-.233-.208.75.75 0 0 1-.128-.285l.685-.41c.052-.031.111-.052.111-.127.153.175.29.363.411.562zM2.079 17.422a5.36 5.36 0 0 0-.681.371c-.07.039-.132.076-.209.025a2.824 2.824 0 0 1-.237-.526c.225-.045.392-.199.587-.303a1.13 1.13 0 0 1 .278-.13.95.95 0 0 1 .262.563z" fill="#2f5754"/><path d="M.031 11.695c-.006.124.031.252-.024.373a1.019 1.019 0 0 1 .024-.373z" fill="#2c4345"/><path d="M.04 13.49c.053.075.019.16.025.24a.46.46 0 0 1-.025-.24z" fill="#2d4949"/><path d="M13.521 24.95c.065-.05.139-.02.209-.023a.334.334 0 0 1-.209.023z" fill="#399584"/><path d="m2.079 17.422-.262-.562-.296-.793-.267-1.024c-.048-.31-.154-.609-.166-.925l-.096-.694-.002-.33.002-1.454c.056-.172.037-.354.065-.53l.1-.693.298-1.256.331-.958c.126-.224.21-.466.318-.698l.277-.558.652-1.036c.128-.208.275-.404.439-.585l.895-.986c.359-.389.777-.706 1.169-1.055a2.43 2.43 0 0 1 .316-.205 11.13 11.13 0 0 1 1.782-1.025c.014-.006.024-.022.036-.033.829-.382 1.702-.66 2.599-.828.161-.015.32-.048.475-.097.234.004.459-.082.694-.067.05-.037.116.008.165-.032L11.9.997a9.82 9.82 0 0 1 1.222 0c.343.012.686.045 1.025.099l.958.167 1.256.364 1.157.493c.413.192.792.444 1.189.663l.926.66.661.563.793.794c.163.22.339.43.528.629a2.88 2.88 0 0 0 .361.493c.128.231.272.453.431.664.091.207.201.405.329.592l.33.694.367.96.298 1.056.169.925a11.15 11.15 0 0 1 .105 1.48c0 .014.015.028.023.042.005.275-.049.549-.027.824-.004.188-.054.372-.038.561l-.128.859-.204.925-.227.727-.342.89-.589 1.159-.502.791a15.02 15.02 0 0 1-1.541 1.788l-1.155.954a11.44 11.44 0 0 1-2.874 1.524c-.026.01-.05.023-.075.034a14.8 14.8 0 0 1-1.785.468l-1.322.162c-.474-.011-.947.05-1.421 0l-.825-.072-.795-.134-.692-.163-.857-.266-.83-.334-.664-.324-.713-.407-.209-.129-.955-.691-.735-.657-.695-.727-.596-.728-.458-.661a6.713 6.713 0 0 0-.364-.595c-.077-.247-.256-.446-.334-.693z" fill="#192123"/><path d="M13.123.997h-1.222c.145-.069.299-.02.449-.031.114-.008.229-.002.344-.002.142.019.291-.038.429.033zm-1.52.001c-.047.054-.11.025-.165.032.047-.054.11-.025.165-.032z" fill="#293237"/><path d="M9.587 15.482a.632.632 0 0 1-.69.025l-.424-1.592-1.082-4.044a.46.46 0 0 1-.02-.225c.004-.044.036-.066.067-.09.343-.167.724-.193 1.084-.298a1.71 1.71 0 0 1 .223-.049.394.394 0 0 1 .206.407c.115-.217.137-.498.436-.561.092-.012.183-.029.273-.052a.12.12 0 0 1 .076.02.282.282 0 0 1 .076.161l.947 3.985a.53.53 0 0 1 .022.13c-.016.177-.13.311-.211.458l-.857 1.554a.815.815 0 0 1-.128.17zm8.06-.138a.279.279 0 0 1-.126.13c-.262.122-.549.159-.826.224l-3.437.813-1.687.397a.3.3 0 0 1-.178.009c-.081-.059-.023-.118.005-.172l.681-1.244 1.201-2.179c.076-.135.114-.301.269-.382.154.039.301.104.433.194l2.155 1.174 1.426.789a.92.92 0 0 1 .086.246z" fill="#1fc8a7"/><path d="M11.375 16.895c.502-.088.994-.225 1.49-.341l4.542-1.073a.7.7 0 0 1 .115-.008 8.39 8.39 0 0 1-.899.574l-5.209 3.199-.618.379a.63.63 0 0 1-.845-.127c-.037-.053 0-.094.023-.136l1.303-2.366c.024-.043.043-.091.1-.101zM9.722 9.029l-.068.001c-.034.022-.061.018-.076-.023-.09-.021.127-.023.001-.064-.183-.06-.386-.103-.469-.317-.016-.04-.041-.078-.016-.124l1.27-.764L14.17 5.4c.329-.202.638-.156.903.124-.123.314-.31.594-.469.889l-.842 1.533a.46.46 0 0 1-.151.192l-1.535.361-.459.116-.8.192-.884.207a.347.347 0 0 1-.211.016z" fill="#198889"/><path d="M11.375 16.896 9.949 19.5a.56.56 0 0 1-.175-.565l.377-1.563a.796.796 0 0 1 .118-.252l4.917-7.387a.468.468 0 0 1 .217-.218c.035.073-.015.127-.044.183l-.481.883a1.57 1.57 0 0 0-.123.269 5.085 5.085 0 0 0-.318.537l-.418.766-.392.714a.169.169 0 0 1-.073.085c-.153.176-.241.391-.352.591l-1.819 3.305a.151.151 0 0 0-.008.048zm2.245-8.794 1.197-2.164c.079-.142.133-.301.256-.417a.69.69 0 0 1 .126.65l-.358 1.448a.85.85 0 0 1-.126.266l-4.91 7.378a.48.48 0 0 1-.218.217l1.027-1.88a1.38 1.38 0 0 0 .137-.281c.086-.282.259-.521.394-.778l.37-.682.591-1.056.398-.732.891-1.61a1.77 1.77 0 0 1 .225-.361zm4.027 7.241c-.095-.049-.068-.15-.097-.229-.146-.25-.164-.539-.251-.807a3.41 3.41 0 0 0-.144-.45l-.277-1.11a7.18 7.18 0 0 0-.241-.866l-.578-2.184c-.019-.071-.077-.156.035-.21.13.062.233.169.29.301l1.746 3.53a.551.551 0 0 1 .07.208.55.55 0 0 1-.017.219l-.536 1.597zM7.371 9.646l.582 2.162.921 3.469c.02.072.086.148.023.231a.585.585 0 0 1-.269-.278l-1.744-3.516a.72.72 0 0 1-.037-.573l.43-1.307a.37.37 0 0 1 .095-.187z" fill="#68fde1"/><path d="M16.094 9.488c-.052.049-.02.1-.005.152l.573 2.159c.007.026.022.052-.001.077a.205.205 0 0 1-.089-.004.21.21 0 0 1-.08-.041l-1.662-.898c-.039-.021-.078-.042-.088-.091-.04-.113.051-.183.094-.266l.567-1.061a.626.626 0 0 1 .691-.028z" fill="#1fc8a7"/><path d="M9.094 8.501c.058.264.281.33.492.407.099.036.08.06.002.093-.055.068-.142.063-.214.091-.157.038-.225.162-.281.296l-.11.267c-.085-.15-.109-.312-.212-.435-.154-.084-.335-.117-.465-.246-.02-.023-.014-.036.015-.043.354-.083.576-.3.645-.705l.128.276z" fill="#fdfefe"/><path d="M8.306 8.972c.159.074.343.101.465.246-.176.107-.383.108-.574.163-.249.072-.506.117-.76.175.23-.198.508-.322.757-.492.04-.027.09-.042.111-.092z" fill="#19898a"/><path d="M11.542 11.867c-.133.325-.329.618-.49.928l-.301.526-1-4.198c-.008-.032-.02-.063-.029-.094.357-.111.723-.185 1.087-.264a.303.303 0 0 1 .096.186l.648 2.724a.255.255 0 0 1-.01.192z" fill="#a4e8db"/><path d="M9.374 9.091A.527.527 0 0 1 9.589 9l.065.029a.496.496 0 0 1-.28.063z" fill="#2aa197"/><path d="M17.19 13.856c.119.165.124.367.177.552l.183.707-1.536-.828-2.46-1.336c.107-.294.297-.544.431-.824.072-.033.128.01.185.041l2.885 1.571a.3.3 0 0 1 .135.116z" fill="#a4e8db"/><path d="M13.213 16.908a.414.414 0 0 0 .297-.345.43.43 0 0 0 .36.342.41.41 0 0 0-.353.344c-.054-.195-.144-.299-.303-.34z" fill="#f9fbfb"/><path d="m11.542 11.867-.335-1.44-.398-1.662.796-.195a.294.294 0 0 1 .075.161l.442 1.853a.414.414 0 0 1 .015.226 8.55 8.55 0 0 1-.595 1.058zm2.077-3.764a6.37 6.37 0 0 1-.381.725l-.614 1.125c-.029.046-.06.09-.094.133-.075-.045-.081-.127-.098-.199l-.252-1.068a2.098 2.098 0 0 0-.113-.358l1.552-.357z" fill="#1fc8a7"/><path d="M12.068 8.46c.082.003.087.064.101.125l.361 1.501-.393.724-.531-2.239.462-.11z" fill="#a4e8db"/><path d="m17.19 13.856-3.027-1.644c-.058-.031-.119-.057-.178-.085l.428-.758c.103-.019.179.047.258.091l2.101 1.146a.33.33 0 0 1 .15.124l.247.98a1.44 1.44 0 0 1 .021.145z" fill="#1fc8a7"/><path d="m16.922 12.732-2.508-1.362c.103-.18.156-.391.329-.527l1.919 1.034c.125.163.116.372.188.554a2.12 2.12 0 0 1 .073.301z" fill="#a4e8db"/><path d="M11.133 9.578a.404.404 0 0 0 .344-.339.41.41 0 0 0 .341.332c-.176.063-.299.139-.334.314a.44.44 0 0 0-.351-.307z" fill="#fafdfc"/></g></g><defs><clipPath id="a"><path fill="#fff" d="M0 0h25v25H0z"/></clipPath></defs></svg>
