<svg xmlns="http://www.w3.org/2000/svg" width="256" height="256" viewBox="0 0 256 256">
    <defs>
        <style>
            .cls-1{fill:#2a373b}.cls-3{fill:#399584}.cls-4{fill:#293237}.cls-7{fill:#293439}.cls-8{fill:#2c4345}.cls-11{fill:#2a3c3f}.cls-12{fill:#2b4042}.cls-13{fill:#34736a}.cls-16{fill:#2d4949}.cls-17{fill:#2e504f}.cls-18{fill:#336e66}.cls-19{fill:#326962}.cls-20{fill:#34786d}.cls-21{fill:#2a393d}.cls-22{fill:#31655f}.cls-23{fill:#368275}.cls-25{fill:#2d4c4b}.cls-28{fill:#2f5552}.cls-29{fill:#367f73}.cls-31{fill:#357b70}.cls-32{fill:#31615c}.cls-33{fill:#2f5a56}.cls-35{fill:#305e59}.cls-38{fill:#2f5754}.cls-40{fill:#1fc8a7}.cls-41{fill:#198889}.cls-42{fill:#68fde1}.cls-45{fill:#a4e8db}
        </style>
    </defs>
    <g id="Group_47911" transform="translate(0.001 -0.001)">
        <g id="rai-logo" transform="translate(0.02 0.031)">
            <path id="Path_13157" d="M-263.688 126.26c-.963-.048-1.978.365-2.868-.325a4.7 4.7 0 0 1 2.868.325z" class="cls-1" transform="translate(371.606 -6.804)"/>
            <path id="Path_13158" d="M-257.245 126.926c-.8.025-1.641.342-2.358-.3a3.522 3.522 0 0 1 2.358.3z" class="cls-1" transform="translate(369.215 -7.045)"/>
            <path id="Path_13159" fill="#283036" d="M-383.958-6.953a60.272 60.272 0 0 1 6.725-7.862 126.886 126.886 0 0 1 62.679-36.54 77.653 77.653 0 0 1 11.861-2.2c.453 1.306-.65 1.682-1.4 2.115-4.488 2.593-8.952 5.228-13.459 7.79-4.847 2.756-9.62 5.638-14.466 8.4a2.646 2.646 0 0 0-1.35 1.218 1.933 1.933 0 0 1-.919.712 111.84 111.84 0 0 0-15.83 9.04 5.082 5.082 0 0 1-1.926 1.019 2.673 2.673 0 0 0-1.6.428c-9.057 5.121-18.057 10.341-27.049 15.575a6.392 6.392 0 0 1-1.963.954c-.545.1-1.254.338-1.3-.649z" transform="translate(412 54.956)"/>
            <path id="Path_13160" d="M-188.045 300.236a108.171 108.171 0 0 1-22 4.4c-.392-1.192.571-1.6 1.289-2.015 5.239-3.062 10.519-6.054 15.758-9.114 2.657-1.552 5.5-2.822 7.823-4.906 2.283-1.365 4.86-2.044 7.287-3.073a117.364 117.364 0 0 0 30.457-19.083c1.444-1.232 2.624-2.791 4.36-3.681a7.774 7.774 0 0 0 2.787-1.122c6.412-3.712 12.79-7.485 19.28-11.059.472-.26 1.242-1.381 1.716.1a114.657 114.657 0 0 1-14.771 17.683c-.394.4-.832.75-1.249 1.124-11.1 6.191-22.022 12.686-33.054 18.993-5.568 3.184-11.106 6.422-16.673 9.606a13.082 13.082 0 0 0-3.01 2.147z" class="cls-3" transform="translate(352.201 -49.516)"/>
            <path id="Path_13161" d="M-389.462 8.675c.742.9 1.463.247 2.089-.111 4.577-2.618 9.126-5.288 13.694-7.923q7.355-4.244 14.729-8.453c.422-.241.892-.59 1.341-.01a66.146 66.146 0 0 1-6.334 5.233 133.939 133.939 0 0 0-15.837 15.857 7.519 7.519 0 0 1-2.145 2.111c-3.01.89-5.482 2.812-8.178 4.3-2.656 1.464-5.228 3.083-7.923 4.477-.562.291-1.469 1.192-1.926-.245a81.606 81.606 0 0 1 6.864-10.642 33.14 33.14 0 0 1 3.626-4.594z" class="cls-4" transform="translate(417.504 39.328)"/>
            <path id="Path_13162" d="M-307.008-35.013c.2-1.444 1.616-1.493 2.5-2.033 4.02-2.452 8.136-4.748 12.216-7.1l14.165-8.173c.83-.477 1.736-.861 1.916-1.964a82.478 82.478 0 0 1 12.546-1.334c1.9-.119 3.821-.043 5.733-.056.128 1.16-.829 1.488-1.554 1.926-4.131 2.492-8.327 4.871-12.509 7.277a17.81 17.81 0 0 0-3.447 2.393c-3.336 1-6.8 1.431-10.185 2.2a110.6 110.6 0 0 0-18.837 6.24c-.802.337-1.576.907-2.544.624z" class="cls-4" transform="translate(385.527 55.692)"/>
            <path id="Path_13163" fill="#389181" d="M-84.1 243.241c-.19-.376-.427-.43-.807-.211q-8.007 4.63-16.026 9.24c-1.6.925-3.193 1.868-4.788 2.8a3.411 3.411 0 0 1-2.076.57c-.325-.7.249-1.047.618-1.4A116.34 116.34 0 0 0-93.088 238a2.842 2.842 0 0 1 1.113-1c4.22-1.9 8.047-4.5 12.078-6.737.885-.491 1.756-1.013 2.656-1.472.619-.315 1.281-.807 2.017-.2a92.62 92.62 0 0 1-8.876 14.65z" transform="translate(317.018 -42.067)"/>
            <path id="Path_13164" fill="#3a9987" d="M-176.461 310.5c-.113-.964.706-1.23 1.289-1.572 4.981-2.921 9.983-5.8 14.981-8.7q16.16-9.347 32.334-18.668a11.049 11.049 0 0 1 4.136-1.81q-2.5 2.277-4.991 4.554a108.636 108.636 0 0 1-16.244 12.127 121.5 121.5 0 0 1-31.5 14.069z" transform="translate(340.613 -59.777)"/>
            <path id="Path_13165" d="M-403.912 36.121c.638.855 1.243.168 1.751-.118 4.239-2.39 8.437-4.853 12.685-7.226 1.1-.613 2.067-1.682 3.54-1.38-.617 1.865-2.074 3.182-3.158 4.735-2.32 3.326-4.4 6.8-6.444 10.287-.393.669-.676 1.443-1.509 1.733-1.794.084-3.083 1.3-4.52 2.118-2.486 1.419-4.96 2.863-7.451 4.276-.718.407-1.459 1.166-2.44.511a90.987 90.987 0 0 1 7.546-14.936z" class="cls-7" transform="translate(421.465 27.11)"/>
            <path id="Path_13166" d="M-259.018-44.49c2.25-2.17 5.179-3.266 7.779-4.882 2.755-1.713 5.6-3.283 8.41-4.908a3.536 3.536 0 0 0 1.413-1.4 74.033 74.033 0 0 1 10.837.418c.687.282 1.444-.058 2.128.241l1.255.094c.559.265 1.188-.018 1.75.222v-.018c.168.955-.608 1.234-1.2 1.6-2.7 1.693-5.479 3.266-8.272 4.8-1.571.863-2.973 1.975-4.538 2.842-2.546.322-5.123-.182-7.659.314a15.965 15.965 0 0 1-2.955.151 4.854 4.854 0 0 0-2 .2c-1.645.181-3.284.413-4.922.649a2.174 2.174 0 0 1-2.026-.323z" class="cls-7" transform="translate(369.014 55.694)"/>
            <path id="Path_13167" d="M-144.2-32.343a42.521 42.521 0 0 1 7.382 4.108c1.651 1.011 3.214 2.168 4.816 3.261.172.584-.3.813-.648 1.024-2.8 1.7-5.563 3.479-8.519 4.918a2.827 2.827 0 0 1-1.58-.531c-3.241-1.937-6.451-3.937-9.851-5.594a1.868 1.868 0 0 1-.875-.771c-.228-.861.372-1.232.97-1.563 2.8-1.552 5.527-3.256 8.305-4.852z" class="cls-8" transform="translate(332.715 47.658)"/>
            <path id="Path_13168" fill="#389282" d="M-191.034 309.1c-1.221 1.818-3.3 2.432-5.044 3.464-6.176 3.647-12.432 7.157-18.651 10.734a2.278 2.278 0 0 0-1.351 1.617l-1.57.1c-.691.283-1.447-.039-2.139.234a36.418 36.418 0 0 1-7.8.345c-.376-1.024.532-1.249 1.083-1.568 4.457-2.579 8.886-5.207 13.37-7.74a21.217 21.217 0 0 0 3.972-2.767c5.6-1.367 11.235-2.633 16.7-4.5.47-.161.978-.339 1.43.081z" transform="translate(358.229 -69.788)"/>
            <path id="Path_13169" d="M-413.7 59.617c2.052-.338 3.593-1.722 5.343-2.663 2.5-1.345 4.912-2.854 7.387-4.249.474-.268 1.02-.854 1.627-.15a2.011 2.011 0 0 1-.365 1.907 94.288 94.288 0 0 0-4.535 9.608c-.255.556-.386 1.194-1.032 1.474a7.158 7.158 0 0 0-3.41 1.334c-2.353 1.423-4.758 2.757-7.143 4.125-.641.368-1.274 1.017-2.144.5a71.486 71.486 0 0 1 4.272-11.886z" class="cls-1" transform="translate(423.707 18.547)"/>
            <path id="Path_13170" fill="#388d7e" d="M-251.094 328.6a63.043 63.043 0 0 1-12.127-1.369 3.3 3.3 0 0 1 1.593-1.431c3.088-1.831 6.191-3.635 9.335-5.369 1.081-.6 2.013-1.408 3.073-2.037 4.584.447 9.168-.412 13.747.019 1.3.971.114 1.43-.472 1.819-1.77 1.178-3.633 2.209-5.48 3.266-2.72 1.556-5.467 3.067-8.112 4.753-.469.3-.951.625-1.557.349z" transform="translate(370.46 -73.041)"/>
            <path id="Path_13171" d="M-228.571-45.337c1.55-2.05 4.026-2.717 6.071-4.023 2.111-1.348 4.327-2.531 6.5-3.783a2.6 2.6 0 0 0 1.034-1.067 50.32 50.32 0 0 1 11.289 2.053 5.089 5.089 0 0 0 1.165.1c.393 1.134-.643 1.31-1.224 1.649-2.13 1.245-4.237 2.531-6.393 3.733-1.452.811-2.967 1.528-3.929 2.984-3.394-.133-6.74-.756-10.128-.952a9.043 9.043 0 0 0-2.662-.228c-.608-.023-1.252.058-1.723-.466z" class="cls-1" transform="translate(358.538 55.183)"/>
            <path id="Path_13172" d="M-180.47-47.306a79.462 79.462 0 0 1 12.178 4.383c.473 1.062-.426 1.386-1.033 1.764-2.932 1.823-5.951 3.5-8.941 5.23-2.332-.066-4.387-1.183-6.57-1.8-2.071-.584-4.3-.705-6.192-1.872-.3-1.13.594-1.468 1.3-1.873 2.4-1.375 4.744-2.831 7.178-4.14a5.736 5.736 0 0 0 2.08-1.692z" class="cls-11" transform="translate(345.64 52.808)"/>
            <path id="Path_13173" d="M-425.188 105.271a71.533 71.533 0 0 1 2.356-13.246c1.331.028 2.265-.881 3.325-1.457 2.207-1.2 4.338-2.543 6.572-3.7.6-.31 1.453-.992 1.853.326-.959 4.223-1.665 8.506-3.041 12.629-3.167 1.684-6.274 3.475-9.374 5.281-.526.31-1.073.7-1.691.167z" class="cls-11" transform="translate(426.189 6.775)"/>
            <path id="Path_13174" d="M-171.3-33.874c1.956-1.927 4.647-2.688 6.8-4.29 1.037-.772 2.65-.868 3.022-2.459a61.09 61.09 0 0 1 11.168 5.43c-1.353 1.825-3.555 2.4-5.328 3.612a32.224 32.224 0 0 1-3.077 1.722 1.151 1.151 0 0 0-.73 1.035c-.561.438-1.083.11-1.567-.133a95.07 95.07 0 0 0-8.988-3.83c-.517-.2-1.268-.25-1.3-1.087z" class="cls-12" transform="translate(338.832 50.508)"/>
            <path id="Path_13175" d="M-348.519 292.59a76.619 76.619 0 0 1-10.159-7.866c2.921-2 6.046-3.644 9.137-5.352a1.816 1.816 0 0 1 1.379.523c2.488 1.944 5 3.862 7.649 5.58a1.783 1.783 0 0 1 1.026 1.266 1.468 1.468 0 0 1-.825 1.2c-2.758 1.514-5.372 3.278-8.207 4.649z" class="cls-13" transform="translate(403.304 -59.643)"/>
            <path id="Path_13176" fill="#388c7d" d="M-56.711 201.208a73.783 73.783 0 0 1-4.041 10.492c-4.352 2.763-8.891 5.208-13.349 7.79a1.966 1.966 0 0 1-1.9.337c-.287-.537.017-.973.261-1.4a88.626 88.626 0 0 0 4.847-9.558 2.081 2.081 0 0 1 .942-1.139c3.411-1.259 6.305-3.471 9.481-5.164.744-.4 1.476-.822 2.217-1.229.484-.27.986-.621 1.542-.129z" transform="translate(306.081 -32.653)"/>
            <path id="Path_13177" d="M-425.688 112.317c1.974-.387 3.412-1.817 5.156-2.658 1.4-.677 2.724-1.532 4.087-2.3a2.631 2.631 0 0 1 1.587-.458 3.5 3.5 0 0 1 .113 2.143c-.429 3.1-.815 6.207-1.019 9.333a1.8 1.8 0 0 1-.316.941c-3.1.919-5.631 2.919-8.44 4.391-.649.339-1.251 1.08-2.12.45v-.348c.325-1.257-.106-2.562.243-3.817a35.674 35.674 0 0 1 .709-7.677z" class="cls-12" transform="translate(426.689 -0.272)"/>
            <path id="Path_13178" fill="#389081" d="M-244.731 327.787l6.2-3.593c2.9-1.681 5.81-3.345 8.689-5.062.442-.264 1.061-.466 1.124-1.148.8-.785 1.884-.685 2.844-.771 2.955-.265 5.884-.687 8.81-1.154.635-.1 1.333-.362 1.884.265-.6 1.445-2.043 1.838-3.216 2.524-4.628 2.708-9.3 5.341-13.933 8.039-.443.258-1.062.462-1.127 1.144a58.928 58.928 0 0 1-11.275-.244z" transform="translate(364.098 -72.224)"/>
            <path id="Path_13179" d="M-44.625 104.705a53.377 53.377 0 0 1 1.347 9.8c.313 2.534.307 2.523-1.78 3.7-1.854 1.047-3.675 2.154-5.53 3.2a2.512 2.512 0 0 0-1.438 2.421c-.005.686.363 1.618-.689 1.987a1.32 1.32 0 0 1-.531-1.176c.072-4.694-.535-9.345-.872-14.011.132-.569.628-.737 1.07-.981 2.848-1.574 5.669-3.2 8.423-4.94z" class="cls-13" transform="translate(298.51 0.481)"/>
            <path id="Path_13180" d="M-134.68-15.32c2.276-1.821 4.988-2.93 7.389-4.548.6-.4 1.177-.826 1.765-1.24a63.576 63.576 0 0 1 8.828 6.7c.148 1.259-.952 1.537-1.691 1.977-2.246 1.339-4.542 2.6-6.762 3.981a.513.513 0 0 1-.328 0c-3.2-1.915-6.1-4.253-9.131-6.409-.131-.092-.123-.294-.07-.461z" class="cls-16" transform="translate(326.243 43.792)"/>
            <path id="Path_13181" d="M-101.522-1.835a76.275 76.275 0 0 1 7.76 8.093c.041 1.141-.96 1.39-1.653 1.854-2.071 1.386-4.418 2.326-6.376 3.9-.592.145-.96-.244-1.315-.593q-3.252-3.2-6.45-6.452a1.646 1.646 0 0 1-.6-1.169c.294-.906 1.148-1.169 1.854-1.594 2.252-1.357 4.634-2.5 6.78-4.039z" class="cls-17" transform="translate(317.797 37.159)"/>
            <path id="Path_13182" d="M-417.949 194.158A61.585 61.585 0 0 1-421 183.666c.308-.83 1.123-1.069 1.78-1.451 1.888-1.1 3.784-2.181 5.679-3.268.641-.367 1.31-.759 1.932.055 1.024 3.387 2.239 6.725 2.635 10.274a50.752 50.752 0 0 1-8.329 4.918.741.741 0 0 1-.646-.036z" class="cls-17" transform="translate(424.747 -24.929)"/>
            <path id="Path_13183" d="M-45.588 99.189c-.045.162-.037.4-.142.473-2.9 1.865-5.711 3.877-9 5.034a1.68 1.68 0 0 1-.716-1.283c-.38-2.67-1.05-5.286-1.461-7.948a2.4 2.4 0 0 1 1.417-2.424c2.525-1.435 5.027-2.912 7.543-4.363a60.585 60.585 0 0 1 2.359 10.511z" class="cls-18" transform="translate(299.474 5.997)"/>
            <path id="Path_13184" d="M-49.483 83.544c-.45 1.37-1.89 1.463-2.861 2.137a43.732 43.732 0 0 1-4.811 2.769A1.461 1.461 0 0 0-58 90.091a.521.521 0 0 1-.4-.081.521.521 0 0 1-.219-.346c-.842-3.426-2.063-6.75-2.759-10.216a1.485 1.485 0 0 1 .644-1.137c2.686-1.6 5.23-3.448 8.19-4.552a53.837 53.837 0 0 1 3.063 9.785z" class="cls-19" transform="translate(301.008 11.132)"/>
            <path id="Path_13185" d="M-353.313 276.046c-2.757 1.65-5.509 3.308-8.278 4.936a3.021 3.021 0 0 1-.966.188 83.846 83.846 0 0 1-7.391-6.789c.028-.167.059-.37.19-.453 2.862-1.8 5.616-3.8 8.866-4.9 2.063 1.068 3.464 2.935 5.219 4.376.9.745 2.223 1.2 2.36 2.642z" class="cls-18" transform="translate(407.178 -56.088)"/>
            <path id="Path_13186" d="M-343.188 296.427c1.291-1.474 3.187-2.032 4.727-3.128 1.354-.963 3.145-1.28 4.127-2.79 2.619.731 4.771 2.378 7.1 3.663.87.479 2.109.581 2.429 1.83-2.3 1.979-5.082 3.2-7.667 4.724-.727.429-1.313 1.277-2.346 1.075a59.173 59.173 0 0 1-8.37-5.374z" class="cls-20" transform="translate(397.975 -63.479)"/>
            <path id="Path_13187" d="M-410.069 81.987c-.6-.615-1.05.022-1.461.25-2.878 1.6-5.716 3.262-8.6 4.855-.42.233-1.061 1.27-1.47-.075a46.089 46.089 0 0 1 2.375-8.756c3.093-1.214 5.783-3.161 8.67-4.752.884-.487 1.785-.945 2.68-1.413.411-.215.826-.418 1.188.083a1.01 1.01 0 0 1 .076 1.11c-.912 2.6-1.77 5.213-2.638 7.826-.127.392-.18.929-.82.872z" class="cls-21" transform="translate(424.953 11.785)"/>
            <path id="Path_13188" d="M-185.674-48.553c.435.857-.3 1.061-.79 1.351q-4.023 2.371-8.068 4.7c-.628.361-1.323.619-1.642 1.348a1.435 1.435 0 0 1-1.417.281c-2.416-.479-4.819-1.016-7.265-1.336a1.552 1.552 0 0 1-1.129-.658c-.549-.834 0-1.144.647-1.51q4.58-2.584 9.118-5.243c.548-.322 1.253-.54 1.4-1.314 2.7.231 5.162 1.349 7.716 2.107a11.158 11.158 0 0 1 1.43.269z" class="cls-21" transform="translate(350.844 54.055)"/>
            <path id="Path_13189" d="M-54.448 68.837a73.892 73.892 0 0 1-6.862 4.155c-.622.377-1.327.628-1.646 1.361-.517.056-.679-.346-.805-.7-.963-2.685-2.025-5.331-3.025-8a1.754 1.754 0 0 1-.09-.99c.847-1.284 2.287-1.726 3.527-2.434a28.524 28.524 0 0 1 5.136-2.772 55.687 55.687 0 0 1 3.765 9.38z" class="cls-22" transform="translate(302.914 16.057)"/>
            <path id="Path_13190" d="M-364.408 265.454c-3.221 1.357-6.067 3.388-9.108 5.067a89.824 89.824 0 0 1-6.8-7.432c1.034-1.356 2.66-1.819 4.041-2.643a33.569 33.569 0 0 1 4.7-2.629c1.258.494 1.88 1.7 2.817 2.553 1.241 1.129 2.407 2.343 3.566 3.558.395.416 1.028.76.779 1.526z" class="cls-19" transform="translate(410.747 -52.229)"/>
            <path id="Path_13191" d="M-44.786 161.106a75.837 75.837 0 0 1-1.7 11.157c-3.131 1.406-6.025 3.241-8.994 4.941-.778.445-1.588 1.216-2.6.407-.371-.912.077-1.751.259-2.6.476-2.228.918-4.466 1.6-6.645A2.849 2.849 0 0 1-54.9 167.1c2.661-1.364 5.126-3.081 7.809-4.4.871-.43 1.381-1.3 2.305-1.6z" class="cls-23" transform="translate(299.924 -18.934)"/>
            <path id="Path_13192" d="M-374.724 254.054a95.335 95.335 0 0 1-8.79 5.078 65.476 65.476 0 0 1-6.092-7.783c.236-.717.888-1 1.461-1.321 1.858-1.051 3.715-2.1 5.552-3.189a2.086 2.086 0 0 1 1.731-.46c2.067 1.508 3.293 3.762 4.949 5.636.505.571 1.432.995 1.189 2.039z" class="cls-22" transform="translate(413.944 -48.265)"/>
            <path id="Path_13193" d="M-52.031 130.941c-.629-2.992.689-4.765 3.435-5.84 1.281-.5 2.349-1.545 3.628-2.056 1.634-.655 2.41-1.64 2.12-3.4a39.413 39.413 0 0 1 .614 6.443c.09 1.83.043 3.668.057 5.5a3.715 3.715 0 0 1-1.55 1.259c-2.345 1.237-4.571 2.685-6.91 3.931a2.186 2.186 0 0 0-1.038 1.8c-.1.486-.2 1.3-.984.449a17.139 17.139 0 0 1 .628-8.086z" class="cls-20" transform="translate(298.081 -4.663)"/>
            <path id="Path_13194" fill="#37887a" d="M-53.565 196.762c-2.732.912-4.976 2.732-7.506 4.016-1.876.952-3.458 2.529-5.694 2.73a1.179 1.179 0 0 1-.054-1.268c1.041-2.4 1.986-4.84 2.867-7.3a1.625 1.625 0 0 1 .5-.661c3.378-1.554 6.5-3.562 9.73-5.4.781-.445 1.542-1.258 2.6-.578a50.257 50.257 0 0 1-2.443 8.461z" transform="translate(302.937 -28.206)"/>
            <path id="Path_13195" d="M-426.641 130.566c1.95-.433 3.392-1.842 5.132-2.684 1.2-.581 2.309-1.348 3.487-1.98.448-.241.96-.722 1.48-.068a3.42 3.42 0 0 1 .485 2.9c-.392 3.09.153 6.161.035 9.24a8.4 8.4 0 0 1-.192 2.335c-.628.9-.88.283-1-.3a16.536 16.536 0 0 1-.106-3.374c0-1.087-.377-1.313-1.315-.746-2.073 1.255-4.136 2.535-6.327 3.579-.618.294-1.4.794-1.676-.428z" class="cls-8" transform="translate(426.689 -6.679)"/>
            <path id="Path_13196" d="M-299.235 318.769a51.246 51.246 0 0 1-8.79-3.353c-.012-.735.527-1.087 1.045-1.4 2.913-1.746 5.947-3.287 8.761-5.2a1.588 1.588 0 0 1 .8-.2 45.93 45.93 0 0 1 8.723 2.8c.162.939-.56 1.285-1.172 1.649-2.129 1.268-4.253 2.545-6.42 3.746a24.364 24.364 0 0 0-2.947 1.958z" class="cls-23" transform="translate(385.875 -69.709)"/>
            <path id="Path_13197" d="M-412.966 174.107c-1.872.1-3.11 1.538-4.693 2.257-1.523.691-2.93 1.638-4.387 2.473a55.847 55.847 0 0 1-2-9.461c2.6-1.3 5.074-2.84 7.623-4.239.6-.332 1.258-1.131 2.053-.243.464 2.431 1.041 4.838 1.482 7.271.119.635.422 1.315-.078 1.942z" class="cls-25" transform="translate(425.795 -20.098)"/>
            <path id="Path_13198" fill="#2c4647" d="M-426.66 143.923c.422.719.925.376 1.411.1 2.289-1.306 4.588-2.6 6.856-3.938 1.141-.675 1.5-.475 1.522.9.021 1.541-.407 3.128.289 4.63.766.956.508 2.021.331 3.076-1.168 1.465-3.029 1.873-4.483 2.911a30.842 30.842 0 0 1-3.37 1.939c-.6.321-1.324.87-1.874-.136l-.1-1.265c-.331-.794.058-1.661-.251-2.457a27.845 27.845 0 0 1-.331-5.76z" transform="translate(426.713 -11.568)"/>
            <path id="Path_13199" d="M-105-4.95c-.7 1.785-2.644 1.88-3.939 2.862-1.411 1.069-3.182 1.6-4.523 2.81-.752.19-1.082-.446-1.548-.8-1.512-1.155-2.886-2.477-4.369-3.67-.4-.325-1.031-.558-.849-1.291 1.547-1.811 3.856-2.442 5.755-3.71.971-.649 2.141-1.023 2.748-2.136a23.262 23.262 0 0 1 4.569 4.135A6.768 6.768 0 0 0-105-4.95z" class="cls-25" transform="translate(321.268 40.274)"/>
            <path id="Path_13200" fill="#388e7e" d="M-78.606 225.456c3.86-1.682 7.328-4.075 11.017-6.066 1.36-.733 2.518-1.9 4.169-2.053a55.611 55.611 0 0 1-3.538 7.484c-2.558.483-4.513 2.185-6.721 3.365-2.871 1.534-5.667 3.21-8.5 4.809a2.837 2.837 0 0 1-1.567.562c-.277-.477-.022-.878.221-1.25 1.385-2.121 2.8-4.222 4.122-6.384.167-.28.375-.582.8-.467z" transform="translate(308.75 -38.289)"/>
            <path id="Path_13201" d="M-97.546 16.218c.634-1.653 2.416-1.76 3.62-2.644 1.457-1.071 3.287-1.607 4.485-3.07a51 51 0 0 1 5.459 6.66c.4.667-.027 1.08-.512 1.371a55.589 55.589 0 0 1-7.561 4.236 1.194 1.194 0 0 1-1.038-.449C-94.487 20.653-95.9 19-97.26 17.3a1.075 1.075 0 0 1-.286-1.082z" class="cls-28" transform="translate(313.476 32.908)"/>
            <path id="Path_13202" d="M-416.349 199.879c2.358-1.351 4.71-2.715 7.082-4.044a14.2 14.2 0 0 1 1.684-.689c.11.032.255.055.3.14a23.9 23.9 0 0 1 2.88 7.967c-2.442 1.649-5.032 3.053-7.6 4.5a1.222 1.222 0 0 1-1.417-.056 48.647 48.647 0 0 1-2.929-7.818z" class="cls-28" transform="translate(423.147 -30.651)"/>
            <path id="Path_13203" d="M-301.615 307.277c-3.436 2.273-7.3 3.852-10.534 6.45a43.956 43.956 0 0 1-7.858-3.691c1.457-1.615 3.511-2.322 5.287-3.448 1.55-.984 3.151-1.888 4.7-2.882a38.334 38.334 0 0 1 8.24 3.124c.147.07.164.276.165.447z" class="cls-29" transform="translate(389.999 -68.021)"/>
            <path id="Path_13204" fill="#378a7b" d="M-253.367 318.473c-.148 1.207-1.328 1.3-2.067 1.746-3.8 2.3-7.673 4.47-11.521 6.686a31.8 31.8 0 0 1-7.064-1.365c-.208-.628.232-.982.639-1.234 3.913-2.423 7.867-4.775 11.916-6.973a57.1 57.1 0 0 1 6.608.519 1.968 1.968 0 0 1 1.489.621z" transform="translate(374.194 -72.71)"/>
            <path id="Path_13205" d="M-43.714 156.489c-.861 2.024-3.04 2.245-4.6 3.294-2.069 1.393-4.3 2.547-6.461 3.8a.8.8 0 0 1-.325-.733 57.668 57.668 0 0 1 1.331-7.891c2.3-1.587 4.768-2.9 7.21-4.252a9.027 9.027 0 0 0 3.522-3.021 51.675 51.675 0 0 1-.677 8.8z" class="cls-29" transform="translate(298.851 -14.316)"/>
            <path id="Path_13206" d="M-42.454 144.307a3.349 3.349 0 0 1-2.147 2.747c-2.379 1.247-4.664 2.677-6.986 4.033a2.218 2.218 0 0 1-1.289.315c-.971-1.991-.495-3.885.386-5.751-.081-2.155 1.379-3.063 3.035-3.914 2.4-1.231 4.73-2.579 7.091-3.877a45.009 45.009 0 0 1-.09 6.447z" class="cls-31" transform="translate(298.268 -10.932)"/>
            <path id="Path_13207" d="M-313.7 302.131c-.866 1.455-2.471 1.871-3.8 2.667-2.011 1.206-4.062 2.345-6.1 3.513a39.014 39.014 0 0 1-6.828-3.694c3.208-2.1 6.532-4.009 9.921-5.8a1.079 1.079 0 0 1 1.114.1c1.5.752 3.039 1.426 4.573 2.112.492.211 1.094.391 1.12 1.102z" class="cls-31" transform="translate(393.581 -66.295)"/>
            <path id="Path_13208" d="M-383.137 243.1c-1.924.362-3.3 1.8-5.011 2.582-1.312.6-2.519 1.434-3.773 2.164a50.891 50.891 0 0 1-4.411-6.427 1 1 0 0 1 .435-.7 92.32 92.32 0 0 1 8.037-4.578 1.461 1.461 0 0 1 1.015.8c1.074 1.625 2.247 3.18 3.323 4.8.262.398.657.797.385 1.359z" class="cls-32" transform="translate(416.259 -44.764)"/>
            <path id="Path_13209" d="M-404.407 227.706a46.081 46.081 0 0 1-3.773-7.441c2.567-.634 4.6-2.324 6.892-3.5.732-.375 1.392-1.028 2.338-.656 1.236 1.907 2.206 3.964 3.3 5.95a1.351 1.351 0 0 1 .123 1.278c-2.377 1.659-4.981 2.936-7.474 4.4a1.151 1.151 0 0 1-1.406-.031z" class="cls-33" transform="translate(420.336 -37.83)"/>
            <path id="Path_13210" d="M-59.951 55.838c-2.609 2.067-5.638 3.427-8.5 5.07-.171.016-.388.013-.458-.129-1.123-2.274-2.622-4.384-3.05-6.963 1.8-1.63 4.075-2.5 6.1-3.771a4.664 4.664 0 0 1 2.59-1.1 41.265 41.265 0 0 1 3.318 6.893z" class="cls-32" transform="translate(304.651 19.676)"/>
            <path id="Path_13211" d="M-75.022 29.335a44.349 44.349 0 0 1 3.9 6.126c.184.848-.538 1.034-1.03 1.324q-3.563 2.1-7.113 4.228c-.056 0-.135.018-.165-.012a16.6 16.6 0 0 1-4.38-6.917 3.256 3.256 0 0 1 1.519-1.284c1.808-1.024 3.617-2.046 5.394-3.123.575-.346 1.156-.74 1.875-.342z" class="cls-33" transform="translate(308.727 26.482)"/>
            <path id="Path_13212" fill="#368578" d="M-49.314 184.875c-2.555.465-4.361 2.387-6.629 3.411-1.864.842-3.383 2.393-5.515 2.682a.845.845 0 0 1-.2-.919c.576-1.963 1.208-3.909 1.84-5.854a1.034 1.034 0 0 1 .685-.675c2.557-.449 4.346-2.4 6.623-3.389 1.6-.7 2.84-2.242 4.821-2.025a39.026 39.026 0 0 1-1.625 6.769z" transform="translate(301.124 -24.779)"/>
            <path id="Path_13213" d="M-402.427 231.539c2.441-.588 4.319-2.273 6.506-3.357a8.113 8.113 0 0 1 2.267-1.043c1.489 1.05 3.768 4.773 3.728 6.09l-8.5 5.093a49.852 49.852 0 0 1-4-6.783z" class="cls-35" transform="translate(418.356 -41.664)"/>
            <path id="Path_13214" d="M-76.991 44.24c1.351-1.674 3.417-2.284 5.12-3.433 1.01-.683 2.231-1.052 3.033-2.042a42.894 42.894 0 0 1 3.774 6.678c-2.811 1.7-5.593 3.442-8.564 4.857a.659.659 0 0 1-.739-.272 50.742 50.742 0 0 1-2.764-5.166.591.591 0 0 1 .14-.622z" class="cls-35" transform="translate(306.445 23.179)"/>
            <path id="Path_13215" fill="#37877a" d="M-265.4 317.082c-3.113 2.286-6.606 3.943-9.88 5.96a5.523 5.523 0 0 0-2.33 1.843 31.852 31.852 0 0 1-6.772-1.68c-.458-.986.37-1.27.943-1.629 2.033-1.277 4.133-2.443 6.236-3.6 1.377-.756 2.6-1.724 3.931-2.541 2.533-.081 4.94.733 7.419 1.039a.532.532 0 0 1 .354.209.532.532 0 0 1 .099.399z" transform="translate(377.788 -72.057)"/>
            <path id="Path_13216" fill="#368577" d="M-277.018 314.822c-1.192 2-3.477 2.435-5.23 3.629-1.511 1.03-3.16 1.859-4.765 2.747-.472.261-.84.542-.849 1.125a34.572 34.572 0 0 1-6.76-2.089c.469-1.652 2.138-1.825 3.292-2.6 2.352-1.581 5.021-2.66 7.227-4.483a1.263 1.263 0 0 1 1.259-.212q2.444.567 4.892 1.115c.411.092.913.161.934.768z" transform="translate(381.264 -71.174)"/>
            <path id="Path_13217" d="M-425.6 158.27c1.012.6 1.649-.268 2.4-.633 2.389-1.167 4.431-2.982 7.023-3.774a11.552 11.552 0 0 1 .978 7.11c-2.267 1.3-4.512 2.642-6.815 3.875-.783.42-1.484 1.259-2.564.871a44 44 0 0 1-1.022-7.449z" class="cls-16" transform="translate(426.33 -16.441)"/>
            <path id="Path_13218" d="M-76.9 26.407c-3.071 1.27-5.764 3.224-8.666 4.8a7.7 7.7 0 0 1-3.7-5.052c2.338-1.4 4.672-2.812 7.018-4.2.533-.315 1.139-.529 1.139-1.3a41.642 41.642 0 0 1 4.209 5.752z" class="cls-38" transform="translate(310.609 29.412)"/>
            <path id="Path_13219" d="M-400.34 213.287a54.87 54.87 0 0 0-6.974 3.8c-.712.4-1.35.783-2.139.258a28.631 28.631 0 0 1-2.426-5.39c2.3-.462 4.018-2.042 6.01-3.1a11.547 11.547 0 0 1 2.85-1.333 9.709 9.709 0 0 1 2.679 5.765z" class="cls-38" transform="translate(421.609 -34.914)"/>
            <path id="Path_13220" d="M-426.419 126.871c-.059 1.274.321 2.576-.243 3.817a10.6 10.6 0 0 1 .243-3.817z" class="cls-8" transform="translate(426.715 -7.148)"/>
            <path id="Path_13221" d="M-426.147 154.908c.545.772.192 1.635.251 2.457a4.712 4.712 0 0 1-.251-2.457z" class="cls-16" transform="translate(426.534 -16.799)"/>
            <path id="Path_13222" d="M-215.651 333.7c.666-.509 1.421-.2 2.139-.233a3.365 3.365 0 0 1-2.139.233z" class="cls-3" transform="translate(354.09 -78.243)"/>
            <path id="Path_13223" fill="#192123" d="M-400.192 127.918l-2.679-5.754q-1.514-4.06-3.026-8.122-1.366-5.244-2.734-10.487c-.494-3.172-1.579-6.237-1.7-9.476l-.979-7.109-.022-3.382c.082-4.961-.319-9.925.017-14.886.576-1.764.376-3.622.664-5.423.379-2.361.683-4.733 1.02-7.1 1-4.292 1.76-8.638 3.052-12.859l3.387-9.808c1.291-2.291 2.154-4.776 3.256-7.151.9-1.927 1.886-3.809 2.835-5.71 2.217-3.541 4.376-7.119 6.674-10.607a40.154 40.154 0 0 1 4.493-5.987c2.945-3.469 6.081-6.76 9.165-10.1 3.673-3.981 7.959-7.228 11.972-10.8a24.86 24.86 0 0 1 3.233-2.1 113.983 113.983 0 0 1 18.251-10.5c.144-.062.246-.222.367-.336a113.911 113.911 0 0 1 26.617-8.483 23.3 23.3 0 0 0 4.861-.991c2.4.04 4.7-.839 7.111-.686.511-.383 1.187.081 1.693-.329l3.046-.009a100.294 100.294 0 0 1 12.518 0 85.55 85.55 0 0 1 10.5 1.013l9.812 1.713 12.859 3.728 11.849 5.052c4.224 1.968 8.109 4.543 12.18 6.785l9.48 6.761 6.766 5.762q3.892 4.233 8.119 8.134a68.215 68.215 0 0 0 5.409 6.44 29.482 29.482 0 0 0 3.7 5.051 57.8 57.8 0 0 0 4.413 6.8 37.9 37.9 0 0 0 3.365 6.059l3.381 7.105 3.759 9.826 3.052 10.815 1.731 9.47a114.266 114.266 0 0 1 1.076 15.154c0 .143.153.287.234.43.052 2.82-.5 5.618-.275 8.442-.039 1.923-.55 3.814-.385 5.75l-1.316 8.8-2.086 9.473-2.324 7.447q-1.747 4.556-3.5 9.112l-6.028 11.865-5.143 8.1a153.837 153.837 0 0 1-15.784 18.31c-3.828 3.4-7.686 6.756-11.829 9.774a117.135 117.135 0 0 1-29.425 15.61c-.263.1-.51.234-.764.352a151.465 151.465 0 0 1-18.277 4.788c-4.5.686-9 1.312-13.538 1.661-4.851-.108-9.7.508-14.554 0l-8.443-.737-8.138-1.377-7.087-1.672-8.776-2.721-8.5-3.42-6.8-3.32c-2.436-1.388-4.875-2.77-7.3-4.168-.725-.416-1.425-.877-2.137-1.318l-9.776-7.072-7.527-6.731-7.12-7.442-6.1-7.45-4.691-6.773a67.894 67.894 0 0 0-3.728-6.089c-.784-2.529-2.617-4.564-3.425-7.1z" transform="translate(421.462 50.455)"/>
            <path id="Path_13224" d="M-228.435-40.373h-12.518c1.489-.708 3.066-.2 4.6-.315 1.169-.085 2.349-.018 3.523-.019 1.457.191 2.976-.393 4.395.334z" class="cls-4" transform="translate(362.797 50.555)"/>
            <path id="Path_13225" d="M-246.484-40.166c-.478.552-1.121.259-1.693.329.477-.554 1.122-.251 1.693-.329z" class="cls-4" transform="translate(365.282 50.355)"/>
            <path id="Path_13226" d="M-289.02 151.186a6.5 6.5 0 0 1-7.066.256c-1.638-5.384-2.86-10.878-4.342-16.3-3.763-13.783-7.381-27.606-11.084-41.406a4.734 4.734 0 0 1-.2-2.307c.041-.447.373-.676.687-.919 3.51-1.708 7.418-1.975 11.1-3.05a17.488 17.488 0 0 1 2.287-.5 4.061 4.061 0 0 1 2.109 4.158c1.178-2.223 1.4-5.1 4.466-5.741a23.265 23.265 0 0 0 2.8-.535 1.247 1.247 0 0 1 .783.207 2.847 2.847 0 0 1 .78 1.651q4.8 20.415 9.7 40.808a5.444 5.444 0 0 1 .225 1.329c-.161 1.818-1.335 3.184-2.161 4.694-2.906 5.314-5.773 10.65-8.774 15.913a8.27 8.27 0 0 1-1.31 1.742z" class="cls-40" transform="translate(387.171 7.316)"/>
            <path id="Path_13227" d="M-185.065 170.932a2.837 2.837 0 0 1-1.288 1.335c-2.686 1.252-5.618 1.624-8.457 2.294-11.734 2.77-23.458 5.579-35.2 8.329-5.76 1.348-11.506 2.754-17.275 4.065a3.142 3.142 0 0 1-1.826.094c-.83-.605-.235-1.207.048-1.762 2.206-4.309 4.639-8.494 6.97-12.734 4.093-7.444 8.144-14.912 12.3-22.319.775-1.379 1.163-3.082 2.751-3.909a13.9 13.9 0 0 1 4.43 1.984c7.351 4.014 14.717 8 22.064 12.024 4.878 2.67 9.848 5.177 14.6 8.083a9.44 9.44 0 0 1 .883 2.516z" class="cls-40" transform="translate(365.752 -13.847)"/>
            <path id="Path_13228" d="M-256.91 200.442c5.145-.9 10.175-2.3 15.253-3.488 15.513-3.626 31.008-7.327 46.513-10.989a7.163 7.163 0 0 1 1.173-.086 86.1 86.1 0 0 1-9.21 5.88q-26.648 16.419-53.343 32.761c-2.109 1.295-4.2 2.614-6.328 3.882a6.468 6.468 0 0 1-8.655-1.3c-.377-.54 0-.965.233-1.392 4.425-8.089 8.847-16.179 13.341-24.23.243-.436.444-.927 1.023-1.038z" class="cls-41" transform="translate(373.369 -27.464)"/>
            <path id="Path_13229" d="M-278.4 65.069l-.7.007c-.352.225-.623.183-.774-.24-.926-.21 1.3-.24.015-.66-1.872-.611-3.953-1.057-4.8-3.241-.159-.408-.421-.8-.165-1.267 4.333-2.607 8.684-5.184 13-7.826q19.5-11.952 38.976-23.939c3.372-2.067 6.536-1.6 9.245 1.265-1.255 3.216-3.178 6.083-4.808 9.1-2.838 5.253-5.753 10.464-8.623 15.7a4.72 4.72 0 0 1-1.551 1.964q-7.775 2.2-15.713 3.7c-1.56.416-3.118.845-4.7 1.192-2.716.716-5.432 1.43-8.192 1.966q-4.54 1-9.05 2.118a3.512 3.512 0 0 1-2.16.161z" class="cls-41" transform="translate(377.934 27.357)"/>
            <g id="Group_47908" transform="translate(69.653 56.517)">
                <path id="Path_13230" d="M-257.862 168.426l-14.6 26.661a5.715 5.715 0 0 1-1.789-5.781q1.911-8.008 3.864-16.006a8.12 8.12 0 0 1 1.209-2.575Q-244 132.909-218.83 95.083a4.85 4.85 0 0 1 2.218-2.235c.357.744-.157 1.3-.447 1.874-1.553 3.06-3.295 6.019-4.927 9.037a15.974 15.974 0 0 0-1.263 2.752 52.877 52.877 0 0 0-3.253 5.5c-1.481 2.586-2.915 5.2-4.28 7.847-1.3 2.459-2.764 4.827-4.014 7.313a1.721 1.721 0 0 1-.746.869c-1.572 1.8-2.467 4.006-3.607 6.054-6.258 11.254-12.433 22.555-18.63 33.843a1.57 1.57 0 0 0-.083.489z" class="cls-42" transform="translate(304.666 -51.958)"/>
                <path id="Path_13231" d="M-235.785 56.923c4.081-7.388 8.142-14.788 12.259-22.155.812-1.453 1.366-3.078 2.618-4.266a7.068 7.068 0 0 1 1.294 6.659c-1.266 4.931-2.443 9.886-3.666 14.829a8.7 8.7 0 0 1-1.287 2.721q-25.149 37.767-50.277 75.549a4.939 4.939 0 0 1-2.229 2.227q5.254-9.626 10.512-19.252a14 14 0 0 0 1.4-2.874c.879-2.888 2.65-5.33 4.03-7.965 1.227-2.344 2.562-4.634 3.789-6.981 2.171-3.52 4.05-7.2 6.053-10.818 1.339-2.507 2.678-5.016 4.074-7.493 3.117-5.453 6.082-10.99 9.122-16.485a18.08 18.08 0 0 1 2.308-3.7z" class="cls-42" transform="translate(305.574 -30.502)"/>
                <path id="Path_13232" d="M-159.939 152.38c-.977-.506-.7-1.54-.989-2.339-1.49-2.557-1.684-5.52-2.57-8.268a34.946 34.946 0 0 0-1.472-4.609c-.792-3.827-2.086-7.53-2.839-11.366a73.408 73.408 0 0 0-2.467-8.867q-2.978-11.179-5.917-22.367c-.192-.726-.789-1.6.353-2.148a6.019 6.019 0 0 1 2.965 3.087q8.949 18.068 17.878 36.144a5.619 5.619 0 0 1 .547 4.379c-1.783 5.467-3.369 11-5.489 16.354z" class="cls-42" transform="translate(270.97 -51.809)"/>
                <path id="Path_13233" d="M-314.721 94.882q2.983 11.068 5.962 22.135 4.745 17.751 9.433 35.518c.2.741.879 1.512.232 2.364a6.01 6.01 0 0 1-2.757-2.85q-8.918-18.007-17.86-36a7.368 7.368 0 0 1-.382-5.866c1.474-4.458 2.917-8.928 4.4-13.382a3.777 3.777 0 0 1 .972-1.919z" class="cls-42" transform="translate(320.528 -52.658)"/>
            </g>
            <path id="Path_13234" d="M-182.8 91.929c-.535.5-.2 1.023-.055 1.556q2.941 11.051 5.867 22.106c.07.262.221.53-.007.791a2.164 2.164 0 0 1-1.732-.459c-5.689-3.034-11.327-6.163-17.017-9.194-.4-.21-.8-.43-.9-.932-.409-1.16.527-1.87.961-2.72 1.867-3.658 4.127-7.106 5.808-10.865a6.407 6.407 0 0 1 7.075-.283z" class="cls-40" transform="translate(347.586 5.198)"/>
            <path id="Path_13235" fill="#fdfefe" d="M-289.065 75.521c.594 2.7 2.881 3.378 5.041 4.163 1.013.368.823.616.022.952-.567.7-1.451.641-2.191.929-1.606.394-2.3 1.657-2.881 3.027-.367.87-.719 1.745-1.127 2.737-.868-1.54-1.117-3.2-2.166-4.459-1.578-.857-3.427-1.2-4.76-2.523-.2-.234-.139-.368.155-.437 3.63-.854 5.9-3.07 6.6-7.218z" transform="translate(382.165 11.501)"/>
            <path id="Path_13236" fill="#19898a" d="M-301.733 84.363c1.63.757 3.515 1.036 4.76 2.522-1.8 1.1-3.918 1.108-5.874 1.671-2.553.736-5.183 1.2-7.78 1.787 2.359-2.025 5.207-3.3 7.753-5.033.412-.281.922-.434 1.141-.947z" transform="translate(386.771 7.483)"/>
            <path id="Path_13237" d="M-256.331 112.89c-1.364 3.332-3.371 6.324-5.021 9.507-.951 1.836-2.053 3.593-3.087 5.385q-5.118-21.5-10.238-42.991c-.078-.327-.2-.645-.294-.967 3.652-1.139 7.4-1.895 11.131-2.7a3.044 3.044 0 0 1 .979 1.906q3.364 13.935 6.635 27.892a2.6 2.6 0 0 1-.105 1.968z" class="cls-45" transform="translate(374.502 8.595)"/>
            <path id="Path_13238" fill="#2aa197" d="M-280.4 85.733a5.582 5.582 0 0 1 2.2-.933l.664.292a5.08 5.08 0 0 1-2.864.641z" transform="translate(376.369 7.332)"/>
            <path id="Path_13239" d="M-177.909 151.27c1.217 1.688 1.27 3.754 1.815 5.656.685 2.4 1.257 4.822 1.877 7.235q-7.865-4.235-15.728-8.473-12.6-6.826-25.19-13.68c1.1-3.006 3.04-5.574 4.413-8.438.737-.34 1.312.1 1.89.425 9.81 5.43 19.686 10.738 29.542 16.083a3.1 3.1 0 0 1 1.381 1.192z" class="cls-45" transform="translate(353.916 -9.414)"/>
            <path id="Path_13240" fill="#f9fbfb" d="M-220.475 206.423a4.246 4.246 0 0 0 3.041-3.534 4.42 4.42 0 0 0 3.683 3.5 4.2 4.2 0 0 0-3.618 3.517c-.55-1.996-1.477-3.06-3.106-3.483z" transform="translate(355.751 -33.316)"/>
            <path id="Path_13241" d="M-250.49 111.845c-1.141-4.916-2.267-9.835-3.429-14.746-1.343-5.677-2.718-11.346-4.079-17.018l8.156-1.993a2.951 2.951 0 0 1 .765 1.646c1.5 6.326 2.989 12.654 4.527 18.971a4.171 4.171 0 0 1 .152 2.311 87.427 87.427 0 0 1-6.092 10.829z" class="cls-40" transform="translate(368.662 9.642)"/>
            <path id="Path_13242" d="M-222.458 70.787a65.173 65.173 0 0 1-3.9 7.426c-2.058 3.861-4.178 7.689-6.29 11.521a14.1 14.1 0 0 1-.963 1.358c-.77-.465-.83-1.3-1-2.041-.84-3.652-1.728-7.291-2.576-10.941a20.564 20.564 0 0 0-1.163-3.667z" class="cls-40" transform="translate(361.901 12.156)"/>
            <path id="Path_13243" d="M-240.83 76.362c.838.031.89.653 1.039 1.28 1.218 5.127 2.463 10.247 3.7 15.369l-4.028 7.411c-1.96-7.609-3.806-15.244-5.442-22.929z" class="cls-45" transform="translate(364.383 10.237)"/>
            <path id="Path_13244" d="M-175.594 147.245q-15.494-8.418-30.991-16.832c-.59-.321-1.215-.58-1.823-.868 1.462-2.587 2.688-5.308 4.387-7.761 1.055-.191 1.829.484 2.638.935 7.134 3.982 14.376 7.764 21.515 11.736a3.369 3.369 0 0 1 1.532 1.274c.843 3.346 1.693 6.689 2.524 10.037a14.739 14.739 0 0 1 .218 1.479z" class="cls-40" transform="translate(351.599 -5.387)"/>
            <path id="Path_13245" d="M-176.033 132.911l-25.685-13.945c1.052-1.844 1.6-4 3.363-5.4l19.648 10.586c1.278 1.672 1.19 3.812 1.928 5.675a21.571 21.571 0 0 1 .746 3.084z" class="cls-45" transform="translate(349.297 -2.568)"/>
            <path id="Path_13246" fill="#fafdfc" d="M-252.94 92a4.131 4.131 0 0 0 3.521-3.47 4.182 4.182 0 0 0 3.492 3.4c-1.8.645-3.058 1.425-3.418 3.214A4.52 4.52 0 0 0-252.94 92z" transform="translate(366.921 6.049)"/>
        </g>
    </g>
</svg>
