<svg width="256" height="256" viewBox="0 0 256 256" fill="none" xmlns="http://www.w3.org/2000/svg"><g clip-path="url(#a)"><path d="M107.938 119.487c-.963-.048-1.978.365-2.868-.325a4.705 4.705 0 0 1 2.868.325Zm4.052.425c-.8.025-1.641.342-2.358-.3a3.525 3.525 0 0 1 2.358.3Z" fill="#2A373B"/><path d="M28.062 48.034a60.278 60.278 0 0 1 6.725-7.862 126.886 126.886 0 0 1 62.679-36.54 77.655 77.655 0 0 1 11.861-2.2c.453 1.306-.65 1.682-1.4 2.115-4.488 2.593-8.952 5.228-13.459 7.79-4.847 2.756-9.62 5.638-14.466 8.4a2.646 2.646 0 0 0-1.35 1.218 1.933 1.933 0 0 1-.919.712 111.845 111.845 0 0 0-15.83 9.04 5.082 5.082 0 0 1-1.926 1.019 2.673 2.673 0 0 0-1.6.428C49.32 37.275 40.32 42.495 31.328 47.729a6.391 6.391 0 0 1-1.963.954c-.545.1-1.254.338-1.3-.649h-.003Z" fill="#283036"/><path d="M164.176 250.751a108.18 108.18 0 0 1-22 4.4c-.392-1.192.571-1.6 1.289-2.015 5.239-3.062 10.519-6.054 15.758-9.114 2.657-1.552 5.5-2.822 7.823-4.906 2.283-1.365 4.86-2.044 7.287-3.073a117.343 117.343 0 0 0 30.457-19.083c1.444-1.232 2.624-2.791 4.36-3.681a7.763 7.763 0 0 0 2.787-1.122c6.412-3.712 12.79-7.485 19.28-11.059.472-.26 1.242-1.381 1.716.1a114.625 114.625 0 0 1-14.771 17.683c-.394.4-.832.75-1.249 1.124-11.1 6.191-22.022 12.686-33.054 18.993-5.568 3.184-11.106 6.422-16.673 9.606-1.1.57-2.113 1.292-3.01 2.147Z" fill="#399584"/><path d="M28.062 48.034c.742.9 1.463.247 2.089-.111 4.577-2.618 9.126-5.288 13.694-7.923 4.903-2.83 9.813-5.647 14.729-8.453.422-.241.892-.59 1.34-.01a66.156 66.156 0 0 1-6.333 5.233 133.94 133.94 0 0 0-15.837 15.857 7.52 7.52 0 0 1-2.145 2.111c-3.01.89-5.482 2.812-8.178 4.3-2.656 1.464-5.228 3.083-7.923 4.477-.562.291-1.47 1.192-1.926-.245a81.606 81.606 0 0 1 6.864-10.642 33.136 33.136 0 0 1 3.626-4.594ZM78.54 20.71c.2-1.444 1.615-1.493 2.5-2.033 4.02-2.452 8.135-4.748 12.215-7.1l14.165-8.173c.83-.477 1.736-.861 1.916-1.964A82.48 82.48 0 0 1 121.882.106c1.9-.119 3.821-.043 5.733-.056.128 1.16-.829 1.488-1.554 1.926-4.131 2.492-8.327 4.871-12.509 7.277a17.829 17.829 0 0 0-3.447 2.393c-3.336 1-6.8 1.431-10.185 2.2a110.604 110.604 0 0 0-18.837 6.24c-.802.337-1.576.907-2.544.624Z" fill="#293237"/><path d="M232.938 201.205c-.19-.376-.427-.43-.807-.211a7074.383 7074.383 0 0 1-16.026 9.24c-1.6.925-3.193 1.868-4.788 2.8a3.412 3.412 0 0 1-2.076.57c-.325-.7.249-1.047.618-1.4a116.375 116.375 0 0 0 14.091-16.24 2.838 2.838 0 0 1 1.113-1c4.22-1.9 8.047-4.5 12.078-6.737.885-.491 1.756-1.013 2.656-1.472.619-.315 1.281-.807 2.017-.2a92.64 92.64 0 0 1-8.876 14.65Z" fill="#389181"/><path d="M164.172 250.754c-.113-.964.706-1.23 1.289-1.572 4.981-2.921 9.983-5.8 14.981-8.7a24818.39 24818.39 0 0 1 32.334-18.668 11.047 11.047 0 0 1 4.136-1.81 4515.05 4515.05 0 0 0-4.991 4.554 108.605 108.605 0 0 1-16.244 12.127 121.477 121.477 0 0 1-31.5 14.069h-.005Z" fill="#3A9987"/><path d="M17.573 63.262c.638.855 1.243.168 1.75-.118 4.24-2.39 8.438-4.853 12.686-7.226 1.1-.613 2.067-1.682 3.54-1.38-.617 1.865-2.074 3.182-3.158 4.735-2.32 3.326-4.4 6.8-6.444 10.287-.393.669-.676 1.443-1.51 1.733-1.793.084-3.082 1.3-4.52 2.118-2.485 1.419-4.96 2.863-7.45 4.276-.718.407-1.46 1.166-2.44.511a90.979 90.979 0 0 1 7.546-14.936Zm92.443-52.027c2.25-2.17 5.179-3.266 7.779-4.882 2.755-1.713 5.6-3.283 8.41-4.908a3.535 3.535 0 0 0 1.413-1.4 74.03 74.03 0 0 1 10.837.418c.687.282 1.444-.058 2.128.241l1.255.094c.559.265 1.188-.018 1.75.222v-.018c.168.955-.608 1.234-1.2 1.6-2.7 1.693-5.479 3.266-8.272 4.8-1.571.863-2.973 1.975-4.538 2.842-2.546.322-5.123-.182-7.659.314-.978.142-1.967.192-2.955.151a4.855 4.855 0 0 0-2 .2c-1.645.181-3.284.413-4.922.649a2.171 2.171 0 0 1-2.026-.323Z" fill="#293439"/><path d="M188.535 15.346a42.511 42.511 0 0 1 7.382 4.108c1.651 1.011 3.214 2.168 4.816 3.261.172.584-.3.813-.648 1.024-2.8 1.7-5.563 3.479-8.519 4.918a2.826 2.826 0 0 1-1.58-.531c-3.241-1.937-6.451-3.937-9.851-5.594a1.866 1.866 0 0 1-.875-.771c-.228-.861.372-1.232.97-1.563 2.8-1.552 5.527-3.256 8.305-4.852Z" fill="#2C4345"/><path d="M167.215 239.343c-1.221 1.818-3.3 2.432-5.044 3.464-6.176 3.647-12.432 7.157-18.651 10.734a2.273 2.273 0 0 0-1.351 1.617l-1.57.1c-.691.283-1.447-.039-2.139.234-2.58.394-5.195.51-7.8.345-.376-1.024.532-1.249 1.083-1.568 4.457-2.579 8.886-5.207 13.37-7.74a21.224 21.224 0 0 0 3.972-2.767c5.6-1.367 11.235-2.633 16.7-4.5.47-.161.978-.339 1.43.081Z" fill="#389282"/><path d="M10.027 78.195c2.052-.338 3.593-1.722 5.343-2.663 2.5-1.345 4.912-2.854 7.387-4.249.474-.268 1.02-.854 1.627-.15a2.011 2.011 0 0 1-.365 1.907 94.267 94.267 0 0 0-4.535 9.608c-.255.556-.386 1.194-1.032 1.474a7.158 7.158 0 0 0-3.41 1.334c-2.353 1.423-4.758 2.757-7.143 4.125-.641.368-1.274 1.017-2.144.5 1.07-4.08 2.5-8.058 4.272-11.886Z" fill="#2A373B"/><path d="M119.386 255.59a63.068 63.068 0 0 1-12.127-1.369 3.301 3.301 0 0 1 1.593-1.431 345.152 345.152 0 0 1 9.335-5.369c1.081-.6 2.013-1.408 3.073-2.037 4.584.447 9.168-.412 13.747.019 1.3.971.114 1.43-.472 1.819-1.77 1.178-3.633 2.209-5.48 3.266-2.72 1.556-5.467 3.067-8.112 4.753-.469.3-.951.625-1.557.349Z" fill="#388D7E"/><path d="M129.987 9.877c1.55-2.05 4.026-2.717 6.071-4.023 2.111-1.348 4.327-2.531 6.5-3.783.441-.247.8-.618 1.034-1.067 3.829.252 7.616.94 11.289 2.053a5.06 5.06 0 0 0 1.165.1c.393 1.134-.643 1.31-1.224 1.649-2.13 1.245-4.237 2.531-6.393 3.733-1.452.811-2.967 1.528-3.929 2.984-3.394-.133-6.74-.756-10.128-.952a9.042 9.042 0 0 0-2.662-.228c-.608-.023-1.252.058-1.723-.466Z" fill="#2A373B"/><path d="M165.19 5.533a79.476 79.476 0 0 1 12.178 4.383c.473 1.062-.426 1.386-1.033 1.764-2.932 1.823-5.951 3.5-8.941 5.23-2.332-.066-4.387-1.183-6.57-1.8-2.071-.584-4.3-.705-6.192-1.872-.3-1.13.594-1.468 1.3-1.873 2.4-1.375 4.744-2.831 7.178-4.14a5.739 5.739 0 0 0 2.08-1.692ZM1.021 112.077a71.534 71.534 0 0 1 2.356-13.246c1.331.028 2.265-.881 3.325-1.457 2.207-1.2 4.338-2.543 6.572-3.7.6-.31 1.453-.992 1.853.326-.959 4.223-1.665 8.506-3.041 12.629-3.167 1.684-6.274 3.475-9.374 5.281-.526.31-1.073.7-1.691.167Z" fill="#2A3C3F"/><path d="M167.552 16.665c1.956-1.927 4.647-2.688 6.8-4.29 1.037-.772 2.65-.868 3.022-2.459a61.06 61.06 0 0 1 11.168 5.43c-1.353 1.825-3.555 2.4-5.328 3.612-.993.63-2.02 1.205-3.077 1.722a1.154 1.154 0 0 0-.73 1.035c-.561.438-1.083.11-1.567-.133a94.988 94.988 0 0 0-8.988-3.83c-.517-.2-1.268-.25-1.3-1.087Z" fill="#2B4042"/><path d="M54.805 232.978a76.605 76.605 0 0 1-10.159-7.866c2.921-2 6.046-3.644 9.137-5.352a1.82 1.82 0 0 1 1.379.523c2.488 1.944 5 3.862 7.649 5.58a1.782 1.782 0 0 1 1.026 1.266 1.47 1.47 0 0 1-.825 1.2c-2.758 1.514-5.372 3.278-8.207 4.649Z" fill="#34736A"/><path d="M249.39 168.586a73.728 73.728 0 0 1-4.041 10.492c-4.352 2.763-8.891 5.208-13.349 7.79a1.964 1.964 0 0 1-1.9.337c-.287-.537.017-.973.261-1.4a88.695 88.695 0 0 0 4.847-9.558c.164-.482.499-.887.942-1.139 3.411-1.259 6.305-3.471 9.481-5.164.744-.4 1.476-.822 2.217-1.229.484-.27.986-.621 1.542-.129Z" fill="#388C7D"/><path d="M1.02 112.076c1.975-.387 3.413-1.817 5.157-2.658 1.4-.677 2.724-1.532 4.087-2.3a2.629 2.629 0 0 1 1.587-.458 3.5 3.5 0 0 1 .113 2.143c-.43 3.1-.815 6.207-1.02 9.333a1.802 1.802 0 0 1-.315.941c-3.1.919-5.631 2.919-8.44 4.391-.65.339-1.251 1.08-2.12.45v-.348c.325-1.257-.106-2.562.243-3.817a35.676 35.676 0 0 1 .709-7.677Z" fill="#2B4042"/><path d="m119.387 255.594 6.2-3.593c2.9-1.681 5.81-3.345 8.689-5.062.442-.264 1.061-.466 1.124-1.148.8-.785 1.884-.685 2.844-.771 2.955-.265 5.884-.687 8.81-1.154.635-.1 1.333-.362 1.884.265-.6 1.445-2.043 1.838-3.216 2.524-4.628 2.708-9.3 5.341-13.933 8.039-.443.258-1.062.462-1.127 1.144a58.923 58.923 0 0 1-11.275-.244Z" fill="#389081"/><path d="M253.905 105.217a53.442 53.442 0 0 1 1.347 9.8c.313 2.534.307 2.523-1.78 3.7-1.854 1.047-3.675 2.154-5.53 3.2a2.515 2.515 0 0 0-1.438 2.421c-.005.686.363 1.618-.689 1.987a1.317 1.317 0 0 1-.531-1.176c.072-4.694-.535-9.345-.872-14.011.132-.569.628-.737 1.07-.981 2.848-1.574 5.669-3.2 8.423-4.94Z" fill="#34736A"/><path d="M191.583 28.503c2.276-1.821 4.988-2.93 7.389-4.548.6-.4 1.177-.826 1.765-1.24a63.583 63.583 0 0 1 8.828 6.7c.148 1.259-.952 1.537-1.691 1.977-2.246 1.339-4.542 2.6-6.762 3.981a.513.513 0 0 1-.328 0c-3.2-1.915-6.1-4.253-9.131-6.409-.131-.092-.123-.294-.07-.461Z" fill="#2D4949"/><path d="M216.295 35.355a76.189 76.189 0 0 1 7.76 8.093c.041 1.141-.96 1.39-1.653 1.854-2.071 1.386-4.418 2.326-6.376 3.9-.592.145-.96-.244-1.315-.593a554.964 554.964 0 0 1-6.45-6.452 1.657 1.657 0 0 1-.6-1.169c.294-.906 1.148-1.169 1.854-1.594 2.252-1.357 4.634-2.5 6.78-4.039ZM6.818 169.26a61.58 61.58 0 0 1-3.05-10.492c.307-.83 1.122-1.069 1.78-1.451 1.887-1.1 3.783-2.181 5.678-3.268.641-.367 1.31-.759 1.932.055 1.024 3.387 2.24 6.725 2.635 10.274a50.702 50.702 0 0 1-8.329 4.918.748.748 0 0 1-.646-.036Z" fill="#2E504F"/><path d="M253.906 105.217c-.045.162-.037.4-.142.473-2.9 1.865-5.711 3.877-9 5.034a1.689 1.689 0 0 1-.716-1.283c-.38-2.67-1.05-5.286-1.461-7.948a2.404 2.404 0 0 1 1.417-2.424c2.525-1.435 5.027-2.912 7.543-4.363a60.508 60.508 0 0 1 2.359 10.511Z" fill="#336E66"/><path d="M251.545 94.707c-.45 1.37-1.89 1.463-2.861 2.137a43.751 43.751 0 0 1-4.811 2.769 1.463 1.463 0 0 0-.845 1.641.52.52 0 0 1-.619-.427c-.842-3.426-2.063-6.75-2.759-10.216a1.472 1.472 0 0 1 .644-1.137c2.686-1.6 5.23-3.448 8.19-4.552a53.805 53.805 0 0 1 3.063 9.785h-.002Z" fill="#326962"/><path d="M53.885 219.989c-2.757 1.65-5.509 3.308-8.278 4.936a3.01 3.01 0 0 1-.966.188 83.717 83.717 0 0 1-7.391-6.789c.028-.167.059-.37.19-.453 2.862-1.8 5.616-3.8 8.866-4.9 2.063 1.068 3.464 2.935 5.219 4.376.9.745 2.223 1.2 2.36 2.642Z" fill="#336E66"/><path d="M54.807 232.979c1.291-1.474 3.187-2.032 4.727-3.128 1.354-.963 3.145-1.28 4.127-2.79 2.62.731 4.771 2.378 7.1 3.663.87.479 2.11.581 2.43 1.83-2.3 1.979-5.083 3.2-7.668 4.724-.727.429-1.313 1.277-2.346 1.075a59.16 59.16 0 0 1-8.37-5.374Z" fill="#34786D"/><path d="M14.904 93.803c-.6-.615-1.05.022-1.46.25-2.879 1.6-5.717 3.262-8.601 4.855-.42.233-1.061 1.27-1.47-.075a46.092 46.092 0 0 1 2.375-8.756c3.093-1.214 5.783-3.161 8.67-4.752.884-.487 1.785-.945 2.68-1.413.411-.215.826-.418 1.188.083a1.01 1.01 0 0 1 .076 1.11c-.912 2.6-1.77 5.213-2.638 7.826-.127.392-.18.929-.82.872ZM165.19 5.533c.435.857-.3 1.061-.79 1.351a928.671 928.671 0 0 1-8.068 4.7c-.628.361-1.323.619-1.642 1.348a1.434 1.434 0 0 1-1.417.281c-2.416-.479-4.819-1.016-7.265-1.336a1.55 1.55 0 0 1-1.129-.658c-.549-.834 0-1.144.647-1.51a649.283 649.283 0 0 0 9.118-5.243c.548-.322 1.253-.54 1.4-1.314 2.7.231 5.162 1.349 7.716 2.107.482.058.96.148 1.43.269v.005Z" fill="#2A393D"/><path d="M248.486 84.925a73.823 73.823 0 0 1-6.862 4.155c-.622.377-1.327.628-1.646 1.361-.517.056-.679-.346-.805-.7-.963-2.685-2.025-5.331-3.025-8a1.753 1.753 0 0 1-.09-.99c.847-1.284 2.287-1.726 3.527-2.434a28.544 28.544 0 0 1 5.136-2.772 55.662 55.662 0 0 1 3.765 9.38Z" fill="#31655F"/><path d="M46.36 213.256c-3.222 1.357-6.068 3.388-9.109 5.067a89.718 89.718 0 0 1-6.8-7.432c1.034-1.356 2.66-1.819 4.041-2.643a33.538 33.538 0 0 1 4.7-2.629c1.258.494 1.88 1.7 2.817 2.553 1.241 1.129 2.407 2.343 3.566 3.558.395.416 1.028.76.78 1.526h.004Z" fill="#326962"/><path d="M255.158 142.203a75.875 75.875 0 0 1-1.7 11.157c-3.131 1.406-6.025 3.241-8.994 4.941-.778.445-1.588 1.216-2.6.407-.371-.912.077-1.751.259-2.6.476-2.228.918-4.466 1.6-6.645a2.844 2.844 0 0 1 1.321-1.266c2.661-1.364 5.126-3.081 7.809-4.4.871-.43 1.381-1.3 2.305-1.6v.006Z" fill="#368275"/><path d="M39.24 205.82a95.15 95.15 0 0 1-8.79 5.078 65.471 65.471 0 0 1-6.092-7.783c.236-.717.888-1 1.46-1.321 1.859-1.051 3.716-2.1 5.553-3.189a2.084 2.084 0 0 1 1.73-.46c2.068 1.508 3.294 3.762 4.95 5.636.505.571 1.432.995 1.189 2.039Z" fill="#31655F"/><path d="M246.07 126.309c-.629-2.992.689-4.765 3.435-5.84 1.281-.5 2.349-1.545 3.628-2.056 1.634-.655 2.41-1.64 2.12-3.4a39.44 39.44 0 0 1 .614 6.443c.09 1.83.043 3.668.057 5.5a3.713 3.713 0 0 1-1.55 1.259c-2.345 1.237-4.571 2.685-6.91 3.931a2.192 2.192 0 0 0-1.038 1.8c-.1.486-.2 1.3-.984.449a17.136 17.136 0 0 1 .628-8.086Z" fill="#34786D"/><path d="M249.392 168.587c-2.732.912-4.976 2.732-7.506 4.016-1.876.952-3.458 2.529-5.694 2.73a1.18 1.18 0 0 1-.054-1.268c1.041-2.4 1.986-4.84 2.867-7.3.107-.26.279-.488.5-.661 3.378-1.554 6.5-3.562 9.73-5.4.781-.445 1.542-1.258 2.6-.578a50.178 50.178 0 0 1-2.443 8.461Z" fill="#37887A"/><path d="M.068 123.918c1.95-.433 3.392-1.842 5.132-2.684 1.2-.581 2.309-1.348 3.487-1.98.448-.241.96-.722 1.48-.068a3.423 3.423 0 0 1 .485 2.9c-.392 3.09.153 6.161.035 9.24a8.405 8.405 0 0 1-.192 2.335c-.628.9-.88.283-1-.3a16.537 16.537 0 0 1-.106-3.374c0-1.087-.377-1.313-1.315-.746-2.073 1.255-4.136 2.535-6.327 3.579-.618.294-1.4.794-1.676-.428l-.003-8.474Z" fill="#2C4345"/><path d="M86.66 249.091a51.25 51.25 0 0 1-8.79-3.353c-.012-.735.527-1.087 1.045-1.4 2.913-1.746 5.947-3.287 8.76-5.2a1.59 1.59 0 0 1 .8-.2 45.89 45.89 0 0 1 8.724 2.8c.162.939-.56 1.285-1.172 1.649-2.13 1.268-4.253 2.545-6.42 3.746a24.346 24.346 0 0 0-2.947 1.958Z" fill="#368275"/><path d="M12.849 154.04c-1.872.1-3.11 1.538-4.693 2.257-1.523.691-2.93 1.638-4.387 2.473a55.84 55.84 0 0 1-2-9.461c2.6-1.3 5.074-2.84 7.623-4.239.6-.332 1.258-1.131 2.053-.243.464 2.431 1.041 4.838 1.482 7.271.119.635.422 1.315-.078 1.942Z" fill="#2D4C4B"/><path d="M.073 132.386c.422.719.925.376 1.41.1 2.29-1.306 4.589-2.6 6.857-3.938 1.14-.675 1.5-.475 1.522.9.02 1.541-.407 3.128.289 4.63.766.956.508 2.021.33 3.076-1.167 1.465-3.028 1.873-4.482 2.911a30.801 30.801 0 0 1-3.37 1.939c-.6.321-1.324.87-1.874-.136l-.1-1.265c-.331-.794.058-1.661-.251-2.457a27.845 27.845 0 0 1-.331-5.76Z" fill="#2C4647"/><path d="M216.288 35.355c-.7 1.785-2.644 1.88-3.939 2.862-1.411 1.069-3.182 1.6-4.523 2.81-.752.19-1.082-.446-1.548-.8-1.512-1.155-2.886-2.477-4.369-3.67-.4-.325-1.031-.558-.849-1.291 1.547-1.811 3.856-2.442 5.755-3.71.971-.649 2.141-1.023 2.748-2.136 1.7 1.17 3.236 2.56 4.569 4.135a6.764 6.764 0 0 0 2.156 1.8Z" fill="#2D4C4B"/><path d="M230.164 187.198c3.86-1.682 7.328-4.075 11.017-6.066 1.36-.733 2.518-1.9 4.169-2.053a55.583 55.583 0 0 1-3.538 7.484c-2.558.483-4.513 2.185-6.721 3.365-2.871 1.534-5.667 3.21-8.5 4.809-.454.34-1 .536-1.567.562-.277-.477-.022-.878.221-1.25 1.385-2.121 2.8-4.222 4.122-6.384.167-.28.375-.582.8-.467h-.003Z" fill="#388E7E"/><path d="M215.95 49.157c.634-1.653 2.416-1.76 3.62-2.644 1.457-1.071 3.287-1.607 4.485-3.07a51.049 51.049 0 0 1 5.459 6.66c.4.667-.027 1.08-.512 1.371a55.562 55.562 0 0 1-7.561 4.236 1.194 1.194 0 0 1-1.038-.449c-1.394-1.669-2.807-3.322-4.167-5.022a1.067 1.067 0 0 1-.286-1.082ZM6.818 169.259c2.358-1.351 4.71-2.715 7.082-4.044a14.197 14.197 0 0 1 1.684-.689c.11.032.255.055.3.14a23.903 23.903 0 0 1 2.88 7.967c-2.442 1.649-5.032 3.053-7.6 4.5a1.224 1.224 0 0 1-1.417-.056 48.642 48.642 0 0 1-2.93-7.818Z" fill="#2F5552"/><path d="M88.404 239.287c-3.436 2.273-7.3 3.852-10.534 6.45a43.929 43.929 0 0 1-7.858-3.691c1.457-1.615 3.511-2.322 5.287-3.448 1.55-.984 3.151-1.888 4.7-2.882a38.308 38.308 0 0 1 8.24 3.124c.147.07.164.276.165.447Z" fill="#367F73"/><path d="M120.847 245.794c-.148 1.207-1.328 1.3-2.067 1.746-3.8 2.3-7.673 4.47-11.521 6.686a31.76 31.76 0 0 1-7.064-1.365c-.208-.628.232-.982.639-1.234 3.913-2.423 7.867-4.775 11.916-6.973 2.211.045 4.417.218 6.608.519a1.962 1.962 0 0 1 1.489.621Z" fill="#378A7B"/><path d="M255.157 142.204c-.861 2.024-3.04 2.245-4.6 3.294-2.069 1.393-4.3 2.547-6.461 3.8a.799.799 0 0 1-.325-.733 57.727 57.727 0 0 1 1.331-7.891c2.3-1.587 4.768-2.9 7.21-4.252a9.021 9.021 0 0 0 3.522-3.021 51.672 51.672 0 0 1-.677 8.8v.003Z" fill="#367F73"/><path d="M255.834 133.406a3.347 3.347 0 0 1-2.147 2.747c-2.379 1.247-4.664 2.677-6.986 4.033a2.217 2.217 0 0 1-1.289.315c-.971-1.991-.495-3.885.386-5.751-.081-2.155 1.379-3.063 3.035-3.914 2.4-1.231 4.73-2.579 7.091-3.877a45.045 45.045 0 0 1-.09 6.447ZM79.9 235.867c-.865 1.455-2.47 1.871-3.8 2.667-2.01 1.206-4.061 2.345-6.1 3.513a39.012 39.012 0 0 1-6.827-3.694c3.208-2.1 6.532-4.009 9.92-5.8a1.082 1.082 0 0 1 1.115.1c1.5.752 3.039 1.426 4.573 2.112.492.211 1.094.391 1.12 1.102Z" fill="#357B70"/><path d="M33.142 198.367c-1.924.362-3.3 1.8-5.011 2.582-1.312.6-2.52 1.434-3.773 2.164a50.85 50.85 0 0 1-4.411-6.427 1.001 1.001 0 0 1 .435-.7 92.467 92.467 0 0 1 8.037-4.578 1.463 1.463 0 0 1 1.015.8c1.074 1.625 2.247 3.18 3.323 4.8.262.398.657.797.385 1.359Z" fill="#31615C"/><path d="M15.949 189.907a46.087 46.087 0 0 1-3.773-7.441c2.567-.634 4.6-2.324 6.892-3.5.732-.375 1.392-1.028 2.338-.656 1.236 1.907 2.206 3.964 3.3 5.95a1.35 1.35 0 0 1 .123 1.278c-2.377 1.659-4.981 2.936-7.474 4.4a1.148 1.148 0 0 1-1.406-.031Z" fill="#2F5A56"/><path d="M244.72 75.545c-2.609 2.067-5.638 3.427-8.5 5.07-.171.016-.388.013-.458-.129-1.123-2.274-2.622-4.384-3.05-6.963 1.8-1.63 4.075-2.5 6.1-3.771a4.663 4.663 0 0 1 2.59-1.1 41.258 41.258 0 0 1 3.318 6.893Z" fill="#31615C"/><path d="M233.725 55.848a44.345 44.345 0 0 1 3.9 6.126c.184.848-.538 1.034-1.03 1.324-2.375 1.4-4.746 2.81-7.113 4.228-.056 0-.135.018-.165-.012a16.6 16.6 0 0 1-4.38-6.917 3.256 3.256 0 0 1 1.519-1.284c1.808-1.024 3.617-2.046 5.394-3.123.575-.346 1.156-.74 1.875-.342Z" fill="#2F5A56"/><path d="M251.83 160.127c-2.555.465-4.361 2.387-6.629 3.411-1.864.842-3.383 2.393-5.515 2.682a.842.842 0 0 1-.2-.919c.576-1.963 1.208-3.909 1.84-5.854a1.037 1.037 0 0 1 .685-.675c2.557-.449 4.346-2.4 6.623-3.389 1.6-.7 2.84-2.242 4.821-2.025a39.047 39.047 0 0 1-1.625 6.769Z" fill="#368578"/><path d="M15.95 189.906c2.44-.588 4.318-2.273 6.505-3.357a8.137 8.137 0 0 1 2.267-1.043c1.49 1.05 3.768 4.773 3.728 6.09l-8.5 5.093a49.849 49.849 0 0 1-4-6.783ZM229.474 67.45c1.351-1.674 3.417-2.284 5.12-3.433 1.01-.683 2.231-1.052 3.033-2.042a42.889 42.889 0 0 1 3.774 6.678c-2.811 1.7-5.593 3.442-8.564 4.857a.66.66 0 0 1-.739-.272 50.738 50.738 0 0 1-2.764-5.166.586.586 0 0 1 .14-.622Z" fill="#305E59"/><path d="M112.408 245.056c-3.113 2.286-6.606 3.943-9.88 5.96a5.518 5.518 0 0 0-2.33 1.843 31.85 31.85 0 0 1-6.772-1.68c-.458-.986.37-1.27.943-1.629 2.033-1.277 4.133-2.443 6.236-3.6 1.377-.756 2.6-1.724 3.931-2.541 2.533-.081 4.94.733 7.419 1.039a.538.538 0 0 1 .354.209.534.534 0 0 1 .099.399Z" fill="#37877A"/><path d="M104.266 243.679c-1.192 2-3.477 2.435-5.23 3.629-1.51 1.03-3.16 1.859-4.765 2.747-.472.261-.84.542-.849 1.125a34.531 34.531 0 0 1-6.76-2.089c.47-1.652 2.138-1.825 3.292-2.6 2.352-1.581 5.021-2.66 7.227-4.483a1.26 1.26 0 0 1 1.26-.212c1.628.378 3.259.75 4.891 1.115.411.092.913.161.934.768Z" fill="#368577"/><path d="M.75 141.86c1.012.6 1.649-.268 2.4-.633 2.389-1.167 4.431-2.982 7.023-3.774a11.551 11.551 0 0 1 .978 7.11c-2.267 1.3-4.512 2.642-6.815 3.875-.783.42-1.484 1.259-2.564.871A43.99 43.99 0 0 1 .75 141.86Z" fill="#2D4949"/><path d="M233.729 55.85c-3.071 1.27-5.764 3.224-8.666 4.8a7.699 7.699 0 0 1-3.7-5.052c2.338-1.4 4.672-2.812 7.018-4.2.533-.315 1.139-.529 1.139-1.3a41.622 41.622 0 0 1 4.209 5.752ZM21.289 178.404a54.985 54.985 0 0 0-6.974 3.8c-.712.4-1.35.783-2.139.258a28.608 28.608 0 0 1-2.426-5.39c2.3-.462 4.018-2.042 6.01-3.1a11.548 11.548 0 0 1 2.85-1.333 9.71 9.71 0 0 1 2.679 5.765Z" fill="#2F5754"/><path d="M.316 119.754c-.059 1.274.321 2.576-.243 3.817a10.6 10.6 0 0 1 .243-3.817Z" fill="#2C4345"/><path d="M.407 138.14c.545.772.192 1.635.251 2.457a4.712 4.712 0 0 1-.251-2.457Z" fill="#2D4949"/><path d="M138.459 255.488c.666-.509 1.421-.2 2.139-.233a3.36 3.36 0 0 1-2.139.233Z" fill="#399584"/><path d="m21.29 178.404-2.679-5.754c-1.01-2.707-2.018-5.414-3.026-8.122-.91-3.496-1.822-6.992-2.734-10.487-.494-3.172-1.579-6.237-1.7-9.476l-.979-7.109-.022-3.382c.082-4.961-.319-9.925.017-14.886.576-1.764.376-3.622.664-5.423.38-2.361.683-4.733 1.02-7.1 1-4.292 1.76-8.638 3.052-12.859l3.387-9.808c1.291-2.291 2.154-4.776 3.256-7.151.9-1.927 1.886-3.809 2.835-5.71 2.217-3.541 4.376-7.119 6.674-10.607a40.162 40.162 0 0 1 4.493-5.987c2.945-3.469 6.081-6.76 9.165-10.1 3.673-3.981 7.96-7.228 11.972-10.8a24.868 24.868 0 0 1 3.233-2.1 113.983 113.983 0 0 1 18.251-10.5c.144-.062.246-.222.367-.336a113.915 113.915 0 0 1 26.617-8.483 23.293 23.293 0 0 0 4.861-.991c2.4.04 4.7-.839 7.111-.686.511-.383 1.187.081 1.693-.329l3.046-.009c4.169-.26 8.35-.26 12.518 0a85.56 85.56 0 0 1 10.5 1.013l9.812 1.713 12.859 3.728 11.849 5.052c4.224 1.968 8.109 4.543 12.18 6.785l9.48 6.761 6.766 5.762a140.165 140.165 0 0 0 8.119 8.134 68.19 68.19 0 0 0 5.409 6.44 29.508 29.508 0 0 0 3.7 5.051 57.834 57.834 0 0 0 4.413 6.8 37.906 37.906 0 0 0 3.365 6.059l3.381 7.105 3.759 9.826 3.052 10.815 1.731 9.47a114.152 114.152 0 0 1 1.076 15.154c0 .143.153.287.234.43.052 2.82-.5 5.618-.275 8.442-.039 1.923-.55 3.814-.385 5.75l-1.316 8.8-2.086 9.473-2.324 7.447a8505.459 8505.459 0 0 1-3.5 9.112l-6.028 11.865-5.143 8.1a153.802 153.802 0 0 1-15.784 18.31c-3.828 3.4-7.686 6.756-11.829 9.774a117.151 117.151 0 0 1-29.425 15.61c-.263.1-.51.234-.764.352a151.422 151.422 0 0 1-18.277 4.788c-4.5.686-9 1.312-13.538 1.661-4.851-.108-9.7.508-14.554 0l-8.443-.737-8.138-1.377-7.087-1.672-8.776-2.721-8.5-3.42-6.8-3.32c-2.436-1.388-4.875-2.77-7.3-4.168-.725-.416-1.425-.877-2.137-1.318l-9.776-7.072-7.527-6.731-7.12-7.442-6.1-7.45-4.69-6.773a67.857 67.857 0 0 0-3.729-6.089c-.784-2.529-2.617-4.564-3.425-7.1v.003Z" fill="#192123"/><path d="M134.382 10.213h-12.518c1.489-.708 3.066-.2 4.6-.315 1.169-.085 2.349-.018 3.523-.019 1.457.191 2.976-.393 4.395.334Zm-15.564.007c-.478.552-1.121.259-1.693.329.477-.554 1.122-.251 1.693-.329Z" fill="#293237"/><path d="M98.17 158.533a6.505 6.505 0 0 1-7.065.256c-1.638-5.384-2.86-10.878-4.342-16.3-3.763-13.783-7.381-27.606-11.084-41.406a4.735 4.735 0 0 1-.2-2.307c.04-.447.373-.676.687-.919 3.51-1.708 7.418-1.975 11.1-3.05a17.5 17.5 0 0 1 2.287-.5 4.061 4.061 0 0 1 2.109 4.158c1.178-2.223 1.4-5.1 4.466-5.741.943-.12 1.878-.3 2.8-.535.277-.02.552.053.783.207.434.45.708 1.03.78 1.651 3.2 13.61 6.433 27.213 9.7 40.808.13.432.205.878.225 1.329-.161 1.818-1.335 3.184-2.161 4.694-2.906 5.314-5.773 10.65-8.774 15.913a8.26 8.26 0 0 1-1.31 1.742Zm82.537-1.417a2.836 2.836 0 0 1-1.288 1.335c-2.686 1.252-5.618 1.624-8.457 2.294-11.734 2.77-23.458 5.579-35.2 8.329-5.76 1.348-11.506 2.754-17.275 4.065a3.142 3.142 0 0 1-1.826.094c-.83-.605-.235-1.207.048-1.762 2.206-4.309 4.639-8.494 6.97-12.734 4.093-7.444 8.144-14.912 12.3-22.319.775-1.379 1.163-3.082 2.751-3.909a13.89 13.89 0 0 1 4.43 1.984c7.351 4.014 14.717 8 22.064 12.024 4.878 2.67 9.848 5.177 14.6 8.083a9.45 9.45 0 0 1 .883 2.516Z" fill="#1FC8A7"/><path d="M116.479 173.009c5.145-.9 10.175-2.3 15.253-3.488 15.513-3.626 31.008-7.327 46.513-10.989.388-.061.78-.09 1.173-.086a86 86 0 0 1-9.21 5.88 21696.69 21696.69 0 0 1-53.343 32.761c-2.109 1.295-4.2 2.614-6.328 3.882a6.468 6.468 0 0 1-8.655-1.3c-.377-.54 0-.965.233-1.392 4.425-8.089 8.847-16.179 13.341-24.23.243-.436.444-.927 1.023-1.038ZM99.554 92.457l-.7.007c-.352.225-.623.183-.774-.24-.926-.21 1.3-.24.015-.66-1.872-.611-3.953-1.057-4.8-3.241-.159-.408-.42-.8-.165-1.267 4.333-2.607 8.684-5.184 13-7.826 13-7.968 25.992-15.948 38.976-23.939 3.372-2.067 6.536-1.6 9.245 1.265-1.255 3.216-3.178 6.083-4.808 9.1-2.838 5.253-5.753 10.464-8.623 15.7a4.716 4.716 0 0 1-1.551 1.964 181.334 181.334 0 0 1-15.713 3.7c-1.56.416-3.118.845-4.7 1.192-2.716.716-5.432 1.43-8.192 1.966a356.131 356.131 0 0 0-9.05 2.118 3.51 3.51 0 0 1-2.16.161Z" fill="#198889"/><path d="m116.477 173.016-14.6 26.661a5.716 5.716 0 0 1-1.789-5.781 3131.388 3131.388 0 0 1 3.864-16.006 8.146 8.146 0 0 1 1.209-2.575c16.786-25.211 33.568-50.425 50.348-75.642a4.85 4.85 0 0 1 2.218-2.235c.357.744-.157 1.3-.447 1.874-1.553 3.06-3.295 6.019-4.927 9.037-.507.875-.93 1.797-1.263 2.752a53.027 53.027 0 0 0-3.253 5.5 203.245 203.245 0 0 0-4.28 7.847c-1.3 2.459-2.764 4.827-4.014 7.313a1.72 1.72 0 0 1-.746.869c-1.572 1.8-2.467 4.006-3.607 6.054-6.258 11.254-12.433 22.555-18.63 33.843a1.598 1.598 0 0 0-.083.489Zm22.985-90.047c4.081-7.388 8.142-14.788 12.259-22.155.812-1.453 1.366-3.078 2.618-4.266a7.065 7.065 0 0 1 1.294 6.659c-1.266 4.931-2.443 9.886-3.666 14.829a8.682 8.682 0 0 1-1.287 2.721 159645.433 159645.433 0 0 0-50.277 75.549 4.935 4.935 0 0 1-2.229 2.227c3.503-6.417 7.007-12.835 10.512-19.252a13.97 13.97 0 0 0 1.4-2.874c.879-2.888 2.65-5.33 4.03-7.965 1.227-2.344 2.562-4.634 3.789-6.981 2.171-3.52 4.05-7.2 6.053-10.818 1.339-2.507 2.678-5.016 4.074-7.493 3.117-5.453 6.082-10.99 9.122-16.485a18.15 18.15 0 0 1 2.308-3.7v.004Zm41.242 74.15c-.977-.506-.7-1.54-.989-2.339-1.49-2.557-1.684-5.52-2.57-8.268a34.84 34.84 0 0 0-1.472-4.609c-.792-3.827-2.086-7.53-2.839-11.366a73.408 73.408 0 0 0-2.467-8.867 6942.022 6942.022 0 0 1-5.917-22.367c-.192-.726-.789-1.6.353-2.148a6.017 6.017 0 0 1 2.965 3.087 35637.121 35637.121 0 0 1 17.878 36.144 5.618 5.618 0 0 1 .547 4.379c-1.783 5.467-3.369 11-5.489 16.354ZM75.48 98.772a74634.55 74634.55 0 0 1 5.962 22.135c3.164 11.834 6.308 23.673 9.433 35.518.2.741.88 1.512.232 2.364a6.01 6.01 0 0 1-2.757-2.85 28532.878 28532.878 0 0 0-17.86-36 7.367 7.367 0 0 1-.382-5.866c1.474-4.458 2.917-8.928 4.4-13.382.131-.72.47-1.387.972-1.919Z" fill="#68FDE1"/><path d="M164.806 97.158c-.535.5-.2 1.023-.055 1.556 1.961 7.367 3.916 14.736 5.867 22.106.07.262.221.53-.007.791a2.162 2.162 0 0 1-1.732-.459c-5.689-3.034-11.327-6.163-17.017-9.194-.4-.21-.8-.43-.9-.932-.409-1.16.527-1.87.961-2.72 1.867-3.658 4.127-7.106 5.808-10.865a6.406 6.406 0 0 1 7.075-.283Z" fill="#1FC8A7"/><path d="M93.12 87.053c.594 2.7 2.881 3.378 5.041 4.163 1.013.368.823.616.022.952-.567.7-1.451.641-2.191.929-1.606.394-2.3 1.657-2.881 3.027-.367.87-.719 1.745-1.127 2.737-.868-1.54-1.117-3.2-2.166-4.459-1.578-.857-3.427-1.2-4.76-2.523-.2-.234-.139-.368.155-.437 3.63-.854 5.9-3.07 6.6-7.218l1.307 2.829Z" fill="#FDFEFE"/><path d="M85.058 91.877c1.63.757 3.515 1.036 4.76 2.522-1.8 1.1-3.918 1.108-5.874 1.671-2.553.736-5.183 1.2-7.78 1.787 2.36-2.025 5.207-3.3 7.753-5.033.412-.281.922-.434 1.141-.947Z" fill="#19898A"/><path d="M118.191 121.516c-1.364 3.332-3.371 6.324-5.021 9.507-.951 1.836-2.053 3.593-3.087 5.385a275528.69 275528.69 0 0 0-10.238-42.991c-.078-.327-.2-.645-.294-.967 3.652-1.139 7.4-1.895 11.131-2.7a3.05 3.05 0 0 1 .979 1.906 4361.93 4361.93 0 0 1 6.635 27.892 2.603 2.603 0 0 1-.105 1.968Z" fill="#A4E8DB"/><path d="M95.99 93.096a5.583 5.583 0 0 1 2.2-.933l.663.292a5.08 5.08 0 0 1-2.864.641Z" fill="#2AA197"/><path d="M176.027 141.887c1.217 1.688 1.27 3.754 1.815 5.656.685 2.4 1.257 4.822 1.877 7.235-5.244-2.823-10.486-5.648-15.728-8.473-8.4-4.551-16.797-9.111-25.19-13.68 1.1-3.006 3.04-5.574 4.413-8.438.737-.34 1.312.1 1.89.425 9.81 5.43 19.686 10.738 29.542 16.083.569.25 1.05.665 1.381 1.192Z" fill="#A4E8DB"/><path d="M135.296 173.138a4.244 4.244 0 0 0 3.041-3.534 4.418 4.418 0 0 0 3.683 3.5 4.197 4.197 0 0 0-3.618 3.517c-.55-1.996-1.477-3.06-3.106-3.483Z" fill="#F9FBFB"/><path d="M118.192 121.518c-1.141-4.916-2.267-9.835-3.429-14.746-1.343-5.677-2.718-11.346-4.079-17.018l8.156-1.993a2.95 2.95 0 0 1 .765 1.646c1.5 6.326 2.989 12.654 4.527 18.971.268.741.321 1.542.152 2.311a87.379 87.379 0 0 1-6.092 10.829Zm21.271-38.544a65.157 65.157 0 0 1-3.9 7.426c-2.058 3.861-4.178 7.689-6.29 11.521-.294.471-.616.925-.963 1.358-.77-.465-.83-1.3-1-2.041-.84-3.652-1.728-7.291-2.576-10.941a20.577 20.577 0 0 0-1.163-3.667l15.892-3.656Z" fill="#1FC8A7"/><path d="M123.573 86.63c.838.031.89.653 1.039 1.28 1.218 5.127 2.463 10.247 3.7 15.369l-4.028 7.411c-1.96-7.609-3.806-15.244-5.442-22.929l4.731-1.131Z" fill="#A4E8DB"/><path d="M176.025 141.889c-10.329-5.612-20.66-11.223-30.991-16.832-.59-.321-1.215-.58-1.823-.868 1.462-2.587 2.688-5.308 4.387-7.761 1.055-.191 1.829.484 2.638.935 7.134 3.982 14.376 7.764 21.515 11.736a3.38 3.38 0 0 1 1.532 1.274c.843 3.346 1.693 6.689 2.524 10.037.098.489.17.983.218 1.479Z" fill="#1FC8A7"/><path d="m173.284 130.374-25.685-13.945c1.052-1.844 1.6-4 3.363-5.4l19.648 10.586c1.278 1.672 1.19 3.812 1.928 5.675.324 1.008.573 2.039.746 3.084Z" fill="#A4E8DB"/><path d="M114.001 98.08a4.131 4.131 0 0 0 3.521-3.47 4.186 4.186 0 0 0 3.492 3.4c-1.8.645-3.058 1.425-3.418 3.214a4.526 4.526 0 0 0-3.595-3.144Z" fill="#FAFDFC"/></g><defs><clipPath id="a"><path fill="#fff" d="M0 0h256v256H0z"/></clipPath></defs></svg>
