<svg xmlns="http://www.w3.org/2000/svg" width="24" height="24" fill="none"><g clip-path="url(#a)"><path d="M12.5 25C19.404 25 25 19.404 25 12.5S19.404 0 12.5 0 0 5.596 0 12.5 5.596 25 12.5 25z" fill="#0e3158"/><path d="m7.443 7.687 1.22-.701.164.283 4.496-2.595-.329-.189-.33-.192-.164-.094L5.176 8.43v.189L7.28 7.403l.164.283zm0 2.663 3.524-2.036.165.286 4.496-2.595-.329-.192-.33-.189-.165-.094-9.629 5.559v.189l2.104-1.216.164.287zm0 1.332 4.676-2.701.165.283 4.496-2.598-.33-.185-.329-.193-.165-.094-10.78 6.225v.193l2.104-1.216.164.286zm0 1.33 5.861-3.384.165.283 4.463-2.576-.33-.192-.329-.189-.165-.094-11.933 6.891v.189l2.104-1.216.164.287zm0 1.328 7.014-4.048.165.287L19.085 8l-.33-.19-.329-.192-.165-.094-13.085 7.557v.189l2.104-1.213.164.283zm12.135-6.053-.165-.097-14.237 8.223v.189l2.104-1.214.164.283 7.014-4.047.165.283 5.203-3.002V8.43l-.246-.144zm-13.5 9.122 1.18-.68.164.283 7.002-4.041.165.286 5.236-3.023v-.951L5.917 17.315l.161.095zm8.346-3.105.165.286 5.236-3.023v-.951L7.069 17.979l.164.096 1.198-.692.165.286m-.211 1.072 1.197-.694.165.286 4.676-2.7.165.286 5.236-3.023v-.951l-11.607 6.7.168.097zm1.153.665 1.198-.692.165.283 3.524-2.033.165.283 5.236-3.024v-.947L9.373 19.312l.165.094zm.987.57.165.094 1.201-.692.161.286 2.371-1.372.165.287 5.236-3.024v-.95l-9.299 5.37zm1.317.762 1.198-.696.165.288 1.219-.708.165.287 5.236-3.022v-.95l-8.147 4.706.165.095zM14.475 5.34l-.329-.189-.33-.189-.164-.099-8.477 4.895v.189l2.104-1.212.164.283 2.372-1.369.168.287 4.492-2.597z" fill="#fff"/></g><defs><clipPath id="a"><path fill="#fff" d="M0 0h25v25H0z"/></clipPath></defs></svg>
