<svg width="256" height="256" viewBox="0 0 256 256" fill="none" xmlns="http://www.w3.org/2000/svg"><path fill-rule="evenodd" clip-rule="evenodd" d="M18.872 194.93a128.152 128.152 0 0 0 6.775 9.945l15.724-9.078a110.243 110.243 0 0 1-6.902-9.872l-15.597 9.005ZM224.936 75.96a109.765 109.765 0 0 1 5.114 10.903l15.725-9.078a127.547 127.547 0 0 0-5.242-10.83l-15.597 9.005Zm9.376-19.27-15.632 9.025a110.62 110.62 0 0 0-7.401-9.583l15.83-9.14a128.423 128.423 0 0 1 7.203 9.698ZM28.706 175.396l-15.632 9.025a127.242 127.242 0 0 1-4.81-11.078l15.832-9.141a109.304 109.304 0 0 0 4.61 11.194ZM1.565 107.928a127.23 127.23 0 0 1 3.563-15.914l25.117-14.5a109.297 109.297 0 0 0-7.41 18.134l-21.27 12.28Zm44.653-53.493C61.514 37.44 82.03 25.24 105.242 20.357L139.603.52A129.643 129.643 0 0 0 128 0C76.474 0 32.06 30.445 11.763 74.327l34.455-19.892Zm106.34-33.683a110.018 110.018 0 0 0-19.436-2.635L158.267 3.6a127.021 127.021 0 0 1 15.585 4.859l-21.294 12.294ZM107.832 254.42A128.93 128.93 0 0 0 128 256c54.58 0 101.181-34.161 119.589-82.268l-29.067 16.781c-18.269 26.405-47.793 44.428-81.637 47.133l-29.053 16.774Zm121.753-84.151 23.136-13.357a127.767 127.767 0 0 0 2.568-15.338l-20.197 11.66a109.097 109.097 0 0 1-5.507 17.035Zm-115.748 66.828-23.166 13.374a126.97 126.97 0 0 1-14.583-5.436l20.215-11.671a109.37 109.37 0 0 0 17.534 3.733ZM4.475 161.673a127.248 127.248 0 0 1-2.698-12.298l16.833-9.719a109.767 109.767 0 0 0 2.085 12.653l-16.22 9.364ZM202.683 47.238c-3.135-2.9-6.438-5.62-9.895-8.144l16.819-9.71a128.643 128.643 0 0 1 9.288 8.494l-16.212 9.36ZM181.404 31.81l17.733-10.239a127.843 127.843 0 0 0-11.824-7.03L168.2 25.577a109.447 109.447 0 0 1 13.204 6.233ZM.27 136.387l17.745-10.245c.082-4.936.489-9.792 1.2-14.549L.111 122.624a130.214 130.214 0 0 0 .16 13.764Zm51.9 94.743c3.598 2.65 7.34 5.116 11.21 7.384l18.443-10.647a109.882 109.882 0 0 1-12.36-6.72L52.17 231.13Zm185.754-107.245a111.448 111.448 0 0 1-.368 14.069l18.442-10.647a129.416 129.416 0 0 0-.766-13.414l-17.308 9.992Zm15.269-22.672-16.536 9.547a109.254 109.254 0 0 0-2.672-12.313l16.027-9.253a127.069 127.069 0 0 1 3.181 12.019Zm-194.44 112.26-16.523 9.54a128.92 128.92 0 0 1-8.813-8.768l16.022-9.251c2.94 2.999 6.05 5.831 9.315 8.479Z" fill="#B3BDC7"/><circle cx="128" cy="128" r="100" fill="#fff"/><path fill-rule="evenodd" clip-rule="evenodd" d="M128.374 28.004c-55.43-.5-99.875 44.5-100.374 99.498C28 183 72.944 228 127.875 228c55.159.137 99.986-44.521 100.125-99.748.137-55.227-44.466-100.11-99.626-100.248Zm47.441 45c-1.998 1.499-4.495.999-6.492-1-1.498-1.5-2.497-3-4.049-4.5-2.996-4.055-7.491-4.5-10.986-1a32.025 32.025 0 0 0-6.492 9.458c-3.496 10.5-5.993 21.5-9.448 32.432l27.466 4.054-1.998 7.5-26.494-3.946-2.955 16.054 28.464 4.054-1.997 7.499-27.965-4.053c-1.998 6.499-2.997 13.513-5.494 19.499-2.496 7-4.993 14-7.99 20.5-4.048 8.499-10.986 14.499-20.474 15.999-5.493 1-11.486.5-15.98-3a6.662 6.662 0 0 1-2.996-4.5 7.168 7.168 0 0 1 2.497-5.5c.998-.499 3.495 0 4.993.5a22.225 22.225 0 0 1 4.05 5.5c2.996 4.054 6.99 4.5 10.986 1.5 4.494-4.054 6.991-9.459 8.489-14.999 2.996-12 5.993-23.5 8.489-35.499v-2.095l-26.466-4.054.998-7.5 27.466 4.054 3.442-15.472-28.465-4.487.999-8 29.463 4.054c.999-3 1.498-5.5 2.497-8 2.497-9 4.994-18 10.986-25.999 5.993-8 12.984-13 23.471-12.5a15.486 15.486 0 0 1 11.985 5 4.262 4.262 0 0 1 1.498 2.5c0 1.946 0 4.446-1.498 5.946Z" fill="#0090FF"/></svg>
