<svg xmlns="http://www.w3.org/2000/svg" width="24" height="24" fill="none"><g clip-path="url(#a)"><path fill-rule="evenodd" d="m1.843 19.036.662.971 1.536-.887a10.76 10.76 0 0 1-.674-.964l-1.523.879zM21.966 7.418c.186.346.352.701.499 1.065l1.536-.887-.512-1.058-1.523.879zm.916-1.882-1.527.881a10.902 10.902 0 0 0-.723-.936l1.546-.893.703.947zM2.803 17.129l-1.527.881-.47-1.082 1.546-.893c.13.372.28.737.45 1.093zM.153 10.54c.083-.525.199-1.044.348-1.554L2.954 7.57c-.294.567-.536 1.16-.724 1.771L.153 10.54zm4.361-5.224a10.73 10.73 0 0 1 5.764-3.328L13.633.051 12.5 0C7.468 0 3.131 2.973 1.149 7.259l3.365-1.943zm10.385-3.289A10.74 10.74 0 0 0 13 1.769L15.456.352a12.4 12.4 0 0 1 1.522.475l-2.079 1.2zm-4.368 22.819A12.6 12.6 0 0 0 12.5 25c5.33 0 9.881-3.336 11.679-8.034l-2.839 1.639a10.731 10.731 0 0 1-7.972 4.603l-2.837 1.638zm11.89-8.218 2.259-1.304a12.48 12.48 0 0 0 .251-1.498l-1.972 1.139a10.66 10.66 0 0 1-.538 1.664zm-11.304 6.526L8.855 24.46a12.41 12.41 0 0 1-1.424-.531l1.974-1.14c.56.168 1.133.29 1.712.364zM.437 15.788a12.073 12.073 0 0 1-.263-1.201l1.644-.949c.044.416.112.828.204 1.236l-1.584.914zM19.793 4.613a10.818 10.818 0 0 0-.966-.795l1.643-.948c.316.262.618.538.907.829l-1.583.914zm-2.078-1.507 1.732-1a12.49 12.49 0 0 0-1.155-.687l-1.867 1.078c.443.174.874.377 1.289.609zM.026 13.319l1.733-1a10.82 10.82 0 0 1 .117-1.421L.011 11.975c-.018.448-.013.897.016 1.344zm5.068 9.252c.351.259.717.5 1.095.721l1.801-1.04a10.823 10.823 0 0 1-1.207-.656l-1.689.975zm18.14-10.473c.017.458.005.917-.036 1.374L25 12.432a12.459 12.459 0 0 0-.075-1.31l-1.69.976zm1.491-2.214-1.615.932a10.68 10.68 0 0 0-.261-1.202l1.565-.904a12.41 12.41 0 0 1 .311 1.174zM5.738 20.847l-1.614.932a12.64 12.64 0 0 1-.861-.856l1.565-.904c.287.293.591.57.91.828z" fill="#b3bdc7"/><path d="M12.5 22.266a9.77 9.77 0 0 0 9.766-9.766A9.77 9.77 0 0 0 12.5 2.734 9.77 9.77 0 0 0 2.734 12.5a9.77 9.77 0 0 0 9.766 9.766z" fill="#fff"/><path fill-rule="evenodd" d="M12.537 2.735c-5.413-.049-9.753 4.346-9.802 9.717 0 5.42 4.389 9.814 9.753 9.814 5.387.013 9.764-4.348 9.778-9.741s-4.342-9.776-9.729-9.79zM17.17 7.13c-.195.146-.439.098-.634-.098-.146-.146-.244-.293-.395-.439-.293-.396-.732-.439-1.073-.098-.265.267-.48.58-.634.924-.341 1.025-.585 2.1-.923 3.167l2.682.396-.195.732-2.587-.385-.289 1.568 2.78.396-.195.732-2.731-.396c-.195.635-.293 1.32-.537 1.904-.244.684-.488 1.367-.78 2.002-.395.83-1.073 1.416-1.999 1.562-.536.098-1.122.049-1.561-.293a.65.65 0 0 1-.293-.439.7.7 0 0 1 .244-.537c.097-.049.341 0 .488.049a2.17 2.17 0 0 1 .396.537c.293.396.683.439 1.073.146.439-.396.683-.924.829-1.465.292-1.172.585-2.295.829-3.467v-.205l-2.585-.396.097-.732 2.682.396.336-1.511-2.78-.438.098-.781 2.877.396c.098-.293.146-.537.244-.781.244-.879.488-1.758 1.073-2.539s1.268-1.27 2.292-1.221a1.51 1.51 0 0 1 1.17.488.413.413 0 0 1 .146.244c0 .19 0 .434-.146.581z" fill="#0090ff"/></g><defs><clipPath id="a"><path fill="#fff" d="M0 0h25v25H0z"/></clipPath></defs></svg>
