<svg xmlns="http://www.w3.org/2000/svg" width="24" height="24" fill="none"><g clip-path="url(#a)"><path d="M24.976 12.5A12.48 12.48 0 0 1 12.5 24.976 12.48 12.48 0 0 1 .024 12.5 12.48 12.48 0 0 1 12.5.024 12.48 12.48 0 0 1 24.976 12.5z" fill="#fff" stroke="#383d51" stroke-width=".5"/><path d="m21.683 17.134-8.43-15.12a.842.842 0 0 0-.735-.438.835.835 0 0 0-.735.438l-8.427 15.12a.836.836 0 0 0 .3 1.128l8.44 5.046a.888.888 0 0 0 .876 0l8.427-5.037a.853.853 0 0 0 .283-1.138zm-6.371-6.094-.206-.174-.013-.013a1.986 1.986 0 0 0-.206-.148l-.013-.013-.219-.139c-.013 0-.013-.013-.023-.013a2.085 2.085 0 0 0-.219-.116c-.013 0-.013-.013-.023-.013-.068-.035-.148-.068-.229-.103-.013 0-.013-.013-.022-.013l-.206-.081a3.52 3.52 0 0 0-.574-.161c-.152.284-.35.54-.587.757.348.026.69.107 1.012.242.183.079.36.171.528.277a.82.82 0 0 1 .149.106.232.232 0 0 1 .058.045.702.702 0 0 1 .116.094c.023.023.045.035.068.058l.103.094.068.068.094.094.068.068a.71.71 0 0 0 .081.093l.068.081.068.103a.5.5 0 0 1 .058.094l.068.103a.767.767 0 0 0 .058.094c.022.035.035.068.058.103s.035.068.058.103c.013.036.035.068.045.103a1.18 1.18 0 0 0 .058.126c.097.236.163.482.197.735l.103.403c.045.174.461 1.643 1.424 2.14l3.139 1.563-7.573 4.531v-3.103c0-.493.977-1.07 1.424-1.263l.023-.013.277-.148.035-.023c.196-.116.381-.251.551-.403.013-.013.035-.023.045-.045.023-.013.036-.035.058-.045.058-.045.103-.103.161-.148l.022-.023c.06-.056.114-.117.161-.184.013-.023.035-.036.045-.058.045-.051.087-.105.126-.161.013-.013.022-.035.035-.045l.139-.206c0-.013.013-.013.013-.023l.174-.287a4.425 4.425 0 0 1-.541-.851 3.13 3.13 0 0 1-.219.493l-.116.206c-.013.013-.013.023-.022.023a1.76 1.76 0 0 1-.116.161c-.013.013-.023.036-.035.045a.8.8 0 0 1-.126.148c-.013.013-.013.023-.023.023a3.195 3.195 0 0 1-.989.757l-.068.035c-.196.081-1.885.851-1.885 2.011v3.103l-7.589-4.518c.493-.3 1.921-1.15 3.094-1.518.461-.148 1.437.471 1.988.918l.035.035a1.94 1.94 0 0 0 .229.197l.023.023c.174.146.363.273.564.38l.139.068c.016.006.02.009.023.013l.39.184a.583.583 0 0 0 .058.023c.013 0 .023.013.045.013l.586.174c.155-.285.358-.541.6-.757a3.29 3.29 0 0 1-.944-.206c-.013-.013-.035-.013-.045-.023a.473.473 0 0 1-.103-.045c-.013-.013-.036-.013-.045-.022-.035-.013-.068-.036-.093-.045a3.32 3.32 0 0 1-.632-.403l-.3-.277a5.68 5.68 0 0 0-.896-.645c-.748-.425-1.379-.564-1.863-.412-.999.322-2.14.931-2.829 1.334l7.576-13.612v5.968c0 .206-.309.757-1.357 1.231l-.068.036c-.103.045-.197.103-.3.161l-.023.013a4.42 4.42 0 0 0-.564.403 2.434 2.434 0 0 0-.309.3l-.013.013a2.354 2.354 0 0 0-.277.322l-.013.013-.126.174c0 .013-.013.013-.013.023L8.938 12c0 .013-.013.013-.013.023l-.103.174c-.013.013-.013.022-.022.045-.036.058-.058.116-.081.161-.006.017-.009.02-.013.023l-.068.161a.407.407 0 0 0-.022.058l-.068.174a.407.407 0 0 0-.022.058.729.729 0 0 1-.045.126.56.56 0 0 0-.022.068c-.013.058-.036.116-.045.161a.536.536 0 0 0-.022.081c-.013.035-.013.081-.023.116s-.013.068-.022.103c-.013.045-.013.093-.023.139 0 .036-.013.058-.013.094 0 .045-.013.081-.013.126s-.002.085-.013.126v.174a3.95 3.95 0 0 0 .045.622 4.54 4.54 0 0 1 .944.358 3.45 3.45 0 0 1-.148-.931v-.058a1.37 1.37 0 0 1 .013-.229v-.058c.003-.066.01-.132.023-.197v-.023l.035-.219c0-.023.013-.035.013-.058l.045-.174c0-.013.013-.023.013-.035l.068-.206c.013-.013.013-.035.023-.045l.068-.161c.013-.013.013-.023.023-.045a1.13 1.13 0 0 1 .103-.184.21.21 0 0 0 .023-.035l.093-.161c.009-.011.016-.023.023-.035.039-.06.081-.118.126-.174l.139-.174a.22.22 0 0 0 .023-.036c.208-.229.444-.431.703-.599l.358-.174c.197-.081 1.876-.873 1.876-2.037V3.174l7.647 13.728-2.816-1.415c-.541-.277-.896-1.253-.999-1.611l-.103-.412a2.21 2.21 0 0 0-.126-.654 4.24 4.24 0 0 0-1.202-1.769" fill="#553680"/></g><defs><clipPath id="a"><path fill="#fff" d="M0 0h25v25H0z"/></clipPath></defs></svg>
