<svg xmlns="http://www.w3.org/2000/svg" xmlns:xlink="http://www.w3.org/1999/xlink" viewBox="0 0 40 44"><defs><path id="a" d="M0 0h40.473v43.768H0z"/></defs><g fill="none" fill-rule="evenodd"><mask id="b" fill="#fff"><use xlink:href="#a"/></mask><path fill="#553580" d="M27.302 24.204l.07.414.023.164c.294 2.279 1.18 2.945 3.38 3.916.005.002.01.001.014.003l7.977 3.514L20.755 42.47V36.6c0-2.153.13-2.54 2.046-3.596.376-.207.757-.423 1.174-.66l.26-.148c1.193-.636 2.165-1.575 2.882-2.69.026-.04.218-.329.243-.37a1.997 1.997 0 01-.411-.298 1.653 1.653 0 01-.33-.404c-.627 1.218-1.58 2.248-2.8 2.919l-.296.168c-.411.233-.83.462-1.206.668-2.35 1.295-2.537 2.09-2.537 4.412v5.876L1.602 32.035l7.779-3.393.506-.217c.198-.096.82-.35 1.3-.364.49-.03 1.234.001 1.635.51a3055.9 3055.9 0 001.112 1.405c.858 1.11 1.98 2.017 3.32 2.561a.099.099 0 00.012.007c.353.144.733.227 1.11.315.078-.149.2-.322.312-.462.081-.101.202-.226.315-.343-.57-.111-1.225-.292-1.735-.536l-.002-.001c-1.018-.483-1.898-1.16-2.574-2.03a.939.939 0 01-.09-.12c-.069-.09-.138-.178-.201-.273-.18-.242-.454-.603-.837-1.085-.257-.326-.617-.541-1-.68l.001.002c-.413-.148-.89-.214-1.411-.21-.79.026-1.666.446-1.684.454l-.273.118-.021.008-.708.305c-.005.001-.005.006-.009.008L1.661 30.98 19.764 2.16v12.2c0 2.108-.155 2.569-2.088 3.634a8.262 8.262 0 01-.467.233l-.25.123c-.063.028-.123.061-.184.091l-.003.001h-.001c-2.536 1.215-4.307 3.679-4.461 6.554.166.045.418.116.559.159.103.03.259.108.39.178.025-2.657 1.633-4.949 3.956-6.055l.001-.001c.007-.003.012-.002.018-.005a14.2 14.2 0 01.408-.2 9.82 9.82 0 001.414-.806c.071-.046.13-.095.195-.141.142-.103.275-.208.391-.31.068-.059.13-.114.173-.168.774-.783.926-1.665.926-3.287V2.155L38.9 31.241l-8.015-3.53h-.004c-1.778-.784-2.318-1.44-2.556-3.326-.004-.025-.011-.09-.017-.114-.458-3.015-2.716-5.434-5.682-6.28l-.4-.115a2.256 2.256 0 01-.198.442 2.387 2.387 0 01-.317.416l.373.083c2.667.65 4.73 2.742 5.218 5.387m13.1 7.62L20.675.227A.49.49 0 0020.258 0a.49.49 0 00-.417.227L.071 31.697a.465.465 0 00.168.647l19.77 11.358a.502.502 0 00.496 0l19.728-11.23a.478.478 0 00.225-.29.45.45 0 00-.056-.358" mask="url(#b)"/></g></svg>