<svg width="256" height="256" viewBox="0 0 256 256" fill="none" xmlns="http://www.w3.org/2000/svg"><path d="M255.75 128c0 70.554-57.196 127.75-127.75 127.75S.25 198.554.25 128 57.446.25 128 .25 255.75 57.446 255.75 128Z" fill="#fff" stroke="#383D51" stroke-width=".5"/><path d="M222.034 175.452 135.709 20.623a8.555 8.555 0 0 0-7.523-4.488 8.552 8.552 0 0 0-7.524 4.488L34.37 175.453a8.567 8.567 0 0 0 3.07 11.55l86.422 51.676a9.08 9.08 0 0 0 8.976 0l86.292-51.577a8.753 8.753 0 0 0 2.9-11.649l.004-.001Zm-65.242-62.399-2.112-1.782-.132-.132a21.013 21.013 0 0 0-2.112-1.518l-.132-.132c-.693-.462-1.419-.957-2.244-1.419-.132 0-.132-.132-.231-.132a20.812 20.812 0 0 0-2.244-1.188c-.132 0-.132-.132-.231-.132-.693-.363-1.518-.693-2.343-1.056-.132 0-.132-.132-.231-.132-.693-.231-1.419-.594-2.112-.825a36.055 36.055 0 0 0-5.874-1.65 29.421 29.421 0 0 1-6.006 7.755 33.33 33.33 0 0 1 10.362 2.475 39.985 39.985 0 0 1 5.412 2.838.331.331 0 0 1 .231.132c.46.276.891.596 1.287.957.221.122.421.278.594.462.427.278.825.599 1.188.957.231.231.462.363.693.594.363.363.693.594 1.056.957l.693.693.957.957.693.693c.25.34.526.66.825.957.231.264.462.594.693.825l.693 1.056c.233.296.432.617.594.957l.693 1.056c.176.332.374.652.594.957.231.363.363.693.594 1.056.231.363.363.693.594 1.056.132.363.363.693.462 1.056.173.44.371.87.594 1.287a30.362 30.362 0 0 1 2.013 7.524l1.056 4.125c.462 1.782 4.719 16.829 14.585 21.911 11.319 5.874 26.267 13.2 32.141 16l-77.547 46.4v-31.779c0-5.049 10-10.956 14.585-12.936l.231-.132a39.565 39.565 0 0 0 2.838-1.518l.363-.231a36.387 36.387 0 0 0 5.643-4.125c.132-.132.363-.231.462-.462.231-.132.363-.363.594-.462.594-.462 1.056-1.056 1.65-1.518l.231-.231a12.671 12.671 0 0 0 1.65-1.881c.132-.231.363-.363.462-.594.461-.525.891-1.075 1.287-1.65.132-.132.231-.363.363-.462l1.419-2.112c0-.132.132-.132.132-.231.594-.957 1.188-2.013 1.782-2.937a45.712 45.712 0 0 1-5.544-8.712 31.988 31.988 0 0 1-2.244 5.049c-.363.693-.825 1.419-1.188 2.112-.132.132-.132.231-.231.231a17.813 17.813 0 0 1-1.188 1.65c-.132.132-.231.363-.363.462a8.227 8.227 0 0 1-1.287 1.518c-.132.132-.132.231-.231.231a32.918 32.918 0 0 1-10.131 7.755l-.693.363c-2.013.825-19.3 8.712-19.3 20.591v31.778l-77.71-46.264c5.048-3.069 19.666-11.78 31.678-15.542 4.72-1.518 14.717 4.818 20.36 9.4l.363.363a19.87 19.87 0 0 0 2.343 2.013l.231.231a33.39 33.39 0 0 0 5.775 3.894l1.419.693a.331.331 0 0 1 .231.132 44.557 44.557 0 0 0 3.993 1.881c.192.091.391.168.594.231.132 0 .231.132.462.132a68.953 68.953 0 0 0 6.006 1.782 29.255 29.255 0 0 1 6.138-7.755 33.73 33.73 0 0 1-9.669-2.112c-.132-.132-.363-.132-.462-.231a4.912 4.912 0 0 1-1.056-.462c-.132-.132-.363-.132-.462-.231-.363-.132-.693-.363-.957-.462a33.671 33.671 0 0 1-6.468-4.125l-3.069-2.838a58.107 58.107 0 0 0-9.174-6.6c-7.656-4.356-14.123-5.775-19.073-4.224-10.23 3.3-21.91 9.537-28.973 13.661l77.58-139.387v61.114c0 2.112-3.168 7.755-13.892 12.605l-.693.363c-1.056.462-2.013 1.056-3.069 1.65l-.231.132a45.286 45.286 0 0 0-5.775 4.125 25.497 25.497 0 0 0-3.168 3.069l-.132.132a24.158 24.158 0 0 0-2.838 3.3l-.132.132c-.462.594-.825 1.188-1.287 1.782 0 .132-.132.132-.132.231-.363.594-.693 1.056-1.056 1.65 0 .132-.132.132-.132.231l-1.056 1.782c-.132.132-.132.231-.23.462-.364.594-.595 1.188-.826 1.65a.323.323 0 0 1-.132.231c-.23.594-.462 1.056-.693 1.65a4.424 4.424 0 0 0-.23.594l-.694 1.782a4.398 4.398 0 0 0-.23.594 6.7 6.7 0 0 1-.463 1.287 5.699 5.699 0 0 0-.23.693c-.133.594-.364 1.188-.463 1.65-.092.27-.17.546-.23.825-.133.363-.133.825-.232 1.188-.132.363-.132.693-.23 1.056-.133.462-.133.957-.232 1.419 0 .363-.132.594-.132.957 0 .462-.132.825-.132 1.287.022.433-.023.867-.132 1.287v1.782a40.45 40.45 0 0 0 .462 6.369 46.553 46.553 0 0 1 9.67 3.663 35.35 35.35 0 0 1-1.519-9.537v-.594c-.022-.783.023-1.567.132-2.343v-.594c.03-.676.107-1.348.231-2.013v-.231c.132-.693.231-1.419.363-2.244 0-.231.132-.363.132-.594.132-.594.363-1.188.462-1.782 0-.132.132-.231.132-.363l.693-2.112c.132-.132.132-.363.231-.462.231-.594.462-1.188.693-1.65.132-.132.132-.231.231-.462.293-.659.646-1.288 1.056-1.881.089-.113.166-.235.231-.363.363-.594.594-1.056.957-1.65.089-.113.166-.235.231-.363.396-.617.826-1.212 1.287-1.782 0-.017.003-.035.009-.051a.142.142 0 0 1 .029-.043.126.126 0 0 1 .094-.038c.462-.594.825-1.056 1.287-1.65.089-.113.166-.235.231-.363a36.919 36.919 0 0 1 7.194-6.138l3.663-1.782c2.013-.825 19.205-8.942 19.205-20.855V32.502l78.306 140.574c-6.963-3.4-19.3-9.537-28.841-14.486-5.544-2.838-9.174-12.836-10.23-16.5l-1.056-4.224a22.706 22.706 0 0 0-1.287-6.7 43.392 43.392 0 0 0-12.308-18.116" fill="#553680"/></svg>
