<svg width="91" height="91" viewBox="0 0 91 91" fill="none" xmlns="http://www.w3.org/2000/svg"><rect width="90.546" height="90.546" rx="45.273" fill="#C4FF61"/><g opacity=".7" fill="#000"><path d="M46.357 21.894c1.536-.008 3.03.145 4.46.435l-.127 2.93a21.925 21.925 0 0 0-4.46-.435l.127-2.93Z" fill-opacity=".7"/><path d="M50.816 22.33c1.19.233 2.354.57 3.455.999l-.128 2.93a20.407 20.407 0 0 0-3.454-1l.127-2.93Zm-6.658-.323c.73-.072 1.46-.11 2.199-.114l-.128 2.93a23.51 23.51 0 0 0-2.199.114l.128-2.93Zm10.114 1.323c.567.213 1.122.462 1.665.722l-.128 2.93a21.139 21.139 0 0 0-1.665-.723l.128-2.93Z" fill-opacity=".7"/><path d="M55.938 24.052a21.423 21.423 0 0 1 2.881 1.698l-.128 2.93a21.435 21.435 0 0 0-2.881-1.698l.127-2.93Zm-25.159 4.024c3.62-3.328 8.277-5.554 13.38-6.07l-.128 2.931c-5.103.515-9.76 2.741-13.38 6.07l.128-2.931Z"/><path d="M50.127 27.322c-.184-.034-.355-.079-.526-.112l-.128 2.93c.172.034.343.078.526.112l.128-2.93Zm-.527-.112a17.306 17.306 0 0 0-3.45-.326l-.127 2.93a17.314 17.314 0 0 1 3.45.326l.127-2.93Z" fill-opacity=".7"/><path d="M46.15 26.884c-4.422.021-8.663 1.697-11.97 4.738l-.129 2.93c3.308-3.04 7.549-4.716 11.972-4.738l.127-2.93Zm-15.384 1.204.012-.012-.128 2.93-.012.012.128-2.93Z" fill-opacity=".7"/><path d="M65.712 34.212A19.548 19.548 0 0 0 64.1 31.24l-.128 2.93a19.543 19.543 0 0 1 1.614 2.972l.127-2.93Zm-35.669-5.436.723-.688-.128 2.93-.723.688.128-2.93Z"/><path d="m30.03 28.788.013-.012-.128 2.93-.012.012.128-2.93Z" fill-opacity=".7"/><path d="M66.356 35.864a20.042 20.042 0 0 0-.644-1.653l-.128 2.93c.242.536.449 1.095.644 1.653l.128-2.93Z"/><path d="m34.18 31.622-.013.011-.127 2.93.012-.01.127-2.931Z" fill-opacity=".7"/><path d="m34.167 31.634-.627.608-.127 2.93.626-.608.128-2.93Z" fill-opacity=".7"/><path d="m33.54 32.242-.011.011-.128 2.93.012-.01.128-2.931Zm-10.024 9.615c.67-5.038 3.05-9.593 6.515-13.07l-.127 2.93c-3.465 3.477-5.846 8.032-6.516 13.07l.128-2.93Zm5.232 6.026 21.378-20.561-.128 2.93-21.377 20.56.127-2.93Z" fill-opacity=".7"/><path d="M33.528 32.253c-3.115 3.132-4.92 7.205-5.109 11.521l-.128 2.93c.189-4.316 1.994-8.389 5.11-11.52l.127-2.93Zm25.291-6.503L26.897 56.444l-.127 2.93 31.92-30.693.128-2.93Zm8.448 19.905c.002-.034.016-.08.017-.114l-.128 2.93c-.001.035-.015.08-.016.115l.127-2.93Zm-43.819-3.228c.02-.19.043-.381.068-.57l-.128 2.93c-.025.19-.048.38-.067.57l.127-2.93Zm-.036.391c.01-.13.023-.261.036-.391l-.128 2.93c-.013.13-.025.26-.036.391l.128-2.93Z" fill-opacity=".7"/><path d="m23.405 42.91.008-.092-.128 2.93-.008.092.128-2.93Zm-.008.104.008-.104-.128 2.93-.008.104.128-2.93Z" fill-opacity=".7"/><path d="m23.377 43.304.02-.29-.128 2.93-.02.29.128-2.93Z"/><path d="M28.42 43.774a17.61 17.61 0 0 0-.006.146l-.128 2.93.006-.145.128-2.93ZM64.098 31.24l-31.813 30.6-.128 2.93 31.814-30.6.127-2.93Z" fill-opacity=".7"/><path d="m28.414 43.92-.004.145-.128 2.93.004-.145.128-2.93Zm-5.047-.458.01-.158-.128 2.931-.01.157.128-2.93Z" fill-opacity=".7"/><path d="m28.41 44.065-.003.15-.128 2.93.003-.15.128-2.93Zm-5.046-.543.004-.06-.128 2.93-.003.06.128-2.93Zm-.004.072.004-.072-.128 2.93-.004.072.128-2.93Z" fill-opacity=".7"/><path d="m23.358 43.66.003-.066-.128 2.93-.003.066.128-2.93Zm-.008.138.007-.138-.128 2.93-.006.139.127-2.93Z" fill-opacity=".7"/><path d="m23.343 43.989.008-.191-.128 2.93-.008.191.128-2.93Zm-.005.191c.002-.064.003-.127.006-.19l-.128 2.93a17.42 17.42 0 0 0-.006.19l.128-2.93Z" fill-opacity=".7"/><path d="m23.335 44.237.002-.058-.128 2.93-.001.059.128-2.93Z" fill-opacity=".7"/><path d="M23.333 44.377c0-.047.002-.093.003-.14l-.128 2.93c0 .047-.002.094-.003.14l.128-2.93Zm5.073-.162c-.018 1.085.07 2.166.258 3.211l-.127 2.93a16.57 16.57 0 0 1-.258-3.21l.127-2.931Zm8.497 19.989 29.452-28.34-.127 2.93-29.452 28.34.127-2.93Zm-13.24-15.669a21.73 21.73 0 0 1-.33-4.158l-.128 2.93a21.81 21.81 0 0 0 .33 4.158l.128-2.93Z" fill-opacity=".7"/><path d="m28.664 47.438.085.445-.128 2.93-.085-.445.128-2.93Z" fill-opacity=".7"/><path d="M24.567 51.887c-.392-1.071-.7-2.2-.904-3.352l-.128 2.93c.204 1.152.513 2.28.905 3.352l.127-2.93Z"/><path d="m67.284 45.541-20.63 19.838-.128 2.93 20.63-19.838.128-2.93Z" fill-opacity=".7"/><path d="M46.863 65.355c10.253-1.1 18.991-9.27 20.404-19.7l-.127 2.93c-1.413 10.43-10.151 18.601-20.405 19.7l.128-2.93Z" fill-opacity=".7"/><path d="M25.289 53.63a22.157 22.157 0 0 1-.72-1.743l-.128 2.93c.216.593.456 1.174.72 1.744l.128-2.93Z"/><path d="M26.898 56.443a20.68 20.68 0 0 1-1.609-2.813l-.128 2.93a20.68 20.68 0 0 0 1.61 2.813l.127-2.93Z"/><path d="M32.284 61.84a20.55 20.55 0 0 0 3.042 1.72l-.127 2.93a20.542 20.542 0 0 1-3.043-1.72l.128-2.93Zm3.043 1.72a26.37 26.37 0 0 0 1.577.644l-.128 2.93a26.34 26.34 0 0 1-1.577-.643l.128-2.93Zm11.327 1.82c.07-.013.14-.013.209-.025l-.128 2.93c-.07.012-.139.013-.209.024l.128-2.93Z" fill-opacity=".7"/></g><path d="M67.284 45.541c-.001.035-.015.08-.016.115-1.413 10.43-10.151 18.6-20.405 19.7-.07.011-.14.012-.21.023l20.631-19.838ZM55.937 24.052a21.14 21.14 0 0 0-1.665-.723 20.417 20.417 0 0 0-3.455-1 21.925 21.925 0 0 0-4.46-.435 23.51 23.51 0 0 0-2.199.113c-5.102.516-9.76 2.741-13.38 6.07l-.012.01-.723.69-.012.01c-3.465 3.477-5.845 8.032-6.515 13.07a19.083 19.083 0 0 0-.14 1.448l-.009.157-.003.06-.004.072-.003.066-.007.139a24.708 24.708 0 0 0-.013.38l-.002.059-.002.14c-.024 1.428.093 2.82.33 4.157a19.87 19.87 0 0 0 .905 3.352c.216.593.456 1.174.72 1.744.465.98 1.002 1.924 1.61 2.812l31.92-30.692a21.416 21.416 0 0 0-2.88-1.7Zm-27.189 23.83-.084-.444v-.006a.06.06 0 0 0 0-.004v-.001a16.57 16.57 0 0 1-.244-3.653c.188-4.316 1.993-8.389 5.108-11.52l.013-.012.626-.608.012-.012c3.308-3.041 7.549-4.717 11.971-4.738a17.306 17.306 0 0 1 3.45.326c.172.034.343.079.526.112l-21.378 20.56Zm8.155 16.322a26.3 26.3 0 0 1-1.576-.643 20.542 20.542 0 0 1-3.042-1.72L64.097 31.24a19.543 19.543 0 0 1 1.614 2.972 20.1 20.1 0 0 1 .643 1.652l-29.452 28.34Z" fill="#000"/></svg>
