<svg version="1.1" id="Layer_1" xmlns="http://www.w3.org/2000/svg" xmlns:xlink="http://www.w3.org/1999/xlink" x="0px" y="0px"
	 width="100%" viewBox="0 0 224 224" enable-background="new 0 0 224 224" xml:space="preserve">
<path fill="#FDFEFE" opacity="1.000000" stroke="none"
	d="
M1.000000,130.000000
	C1.000000,118.979103 1.000000,107.958214 1.290435,96.750771
	C1.810383,98.192558 2.039896,99.820892 2.307702,101.878075
	C2.395360,109.868980 2.444727,117.431046 2.342595,125.300430
	C1.794064,127.071831 1.397032,128.535919 1.000000,130.000000
z"/>
<path fill="#F4F7FC" opacity="1.000000" stroke="none"
	d="
M2.269411,101.449226
	C2.039896,99.820892 1.810383,98.192558 1.290435,96.282112
	C1.000000,94.933327 1.000000,93.866661 1.000000,92.399994
	C2.374158,89.472351 3.748317,86.944702 5.431921,84.592857
	C4.584047,90.328850 3.426729,95.889038 2.269411,101.449226
z"/>
<path fill="#F4F7FC" opacity="1.000000" stroke="none"
	d="
M1.000000,130.399994
	C1.397032,128.535919 1.794064,127.071831 2.493925,125.700912
	C3.478527,130.199722 4.160300,134.605362 4.842072,139.011002
	C4.252457,138.545822 3.662842,138.080627 3.031104,136.953827
	C2.325989,135.528137 1.662997,134.764069 1.000002,134.000000
	C1.000000,132.933334 1.000000,131.866653 1.000000,130.399994
z"/>
<path fill="#FDFEFE" opacity="1.000000" stroke="none"
	d="
M1.000002,134.375000
	C1.662997,134.764069 2.325989,135.528137 2.994761,136.646118
	C2.555974,137.000000 2.111407,137.000000 1.333420,137.000000
	C1.000000,136.250000 1.000000,135.500000 1.000002,134.375000
z"/>
<path fill="#F4F7FC" opacity="1.000000" stroke="none"
	d="
M1.000000,145.333328
	C1.517234,145.233734 2.034467,145.467453 2.551700,145.701187
	C2.233139,146.107727 1.914579,146.514282 1.298009,146.960419
	C1.000000,146.555557 1.000000,146.111099 1.000000,145.333328
z"/>
<path fill="#496CF4" opacity="1.000000" stroke="none"
	d="
M4.953740,139.220078
	C4.160300,134.605362 3.478527,130.199722 2.645424,125.393585
	C2.444727,117.431046 2.395360,109.868980 2.307703,101.878075
	C3.426729,95.889038 4.584047,90.328850 5.698932,84.375961
	C5.853789,83.360733 6.051080,82.738197 6.447669,81.506607
	C7.110429,79.265381 7.573891,77.633224 8.037353,76.001068
	C19.558807,46.855923 38.921616,25.015127 67.709053,11.960146
	C70.122139,10.865819 72.561806,9.830102 75.211105,8.469474
	C76.178322,8.100261 76.923576,8.028728 78.205406,7.818031
	C80.244133,7.155397 81.746269,6.631926 83.248413,6.108454
	C83.248413,6.108454 83.647850,6.146663 84.149078,6.085221
	C85.455650,5.743265 86.260994,5.462749 87.066338,5.182234
	C87.511436,5.133290 87.956543,5.084346 88.954010,4.933854
	C89.506386,4.832305 89.948997,4.619564 89.948997,4.619564
	C92.108170,4.308763 94.267349,3.997962 97.043106,3.622002
	C98.125145,3.379205 98.590599,3.201567 99.056061,3.023927
	C100.793114,2.963959 102.530174,2.903993 105.019295,2.797979
	C106.657295,2.553114 107.543236,2.354295 108.429169,2.155475
	C111.422028,2.292794 114.414886,2.430113 118.167496,2.647701
	C120.270348,2.745421 121.613464,2.762871 122.956573,2.780321
	C123.415756,2.854842 123.874931,2.929364 124.956543,3.146581
	C126.683495,3.371371 127.788017,3.453465 128.892548,3.535559
	C129.670166,3.689786 130.447800,3.844012 131.929871,4.181047
	C134.412247,4.614141 136.190186,4.864428 137.968124,5.114714
	C137.968124,5.114714 137.970612,5.029206 138.130798,5.264368
	C138.839340,5.557901 139.387665,5.616273 139.936005,5.674644
	C141.075943,6.048292 142.215866,6.421940 143.826630,6.944952
	C144.297470,7.094316 144.679138,7.223150 144.679138,7.223150
	C144.679138,7.223150 145.031601,7.028103 145.031601,7.028103
	C163.237076,13.334636 179.373764,22.853821 192.756348,36.943657
	C238.321350,84.916672 231.763580,162.107925 178.672974,201.582123
	C120.486809,244.844986 37.449261,221.579865 9.942533,154.307297
	C9.438972,153.075745 8.946070,151.839844 8.266762,149.976715
	C7.725430,148.560730 7.365531,147.773987 7.005633,146.987259
	C7.007164,146.815292 7.008696,146.643326 6.928643,146.022781
	C6.810722,145.251358 6.648262,145.015305 6.359678,144.866058
	C6.229751,144.113770 6.099824,143.361465 5.861669,141.988403
	C5.515444,140.879272 5.277447,140.390900 5.039450,139.902527
	C5.039449,139.902527 5.065407,139.429153 4.953740,139.220078
M66.892632,87.242630
	C63.435455,88.871155 59.540710,89.939354 56.603226,92.233353
	C47.822598,99.090500 44.341244,108.273605 47.036209,119.233437
	C49.620918,129.744888 56.588737,136.420425 67.046783,138.632233
	C78.001717,140.949158 86.994347,136.946152 93.847122,128.131943
	C95.174446,126.424698 96.331680,124.551163 97.843086,123.027893
	C101.420273,119.422623 105.996315,118.899208 110.163208,121.380516
	C114.304184,123.846397 115.968552,128.132553 114.455605,133.031418
	C113.722046,135.406662 112.578079,137.652603 111.674042,139.978119
	C106.118500,154.268967 113.571716,170.199829 127.888916,174.665237
	C142.381592,179.185364 158.087418,170.574173 161.587341,156.189056
	C165.188141,141.389343 155.796951,126.882462 140.722275,124.022980
	C138.110184,123.527489 135.430725,123.368690 132.834610,122.811234
	C127.622116,121.691978 124.362297,117.898506 124.297211,113.138290
	C124.229988,108.222389 127.700264,104.168922 133.035477,103.109459
	C135.479813,102.624077 137.985367,102.453110 140.438324,102.003983
	C155.829239,99.185966 165.315109,84.586220 161.530136,69.594048
	C157.897110,55.203712 142.121841,46.727703 127.682793,51.407955
	C113.351952,56.053135 106.093124,71.907852 111.745560,86.228455
	C112.722374,88.703247 114.014137,91.096687 114.647133,93.654724
	C115.753845,98.127045 114.397789,101.920372 110.388962,104.446938
	C106.416992,106.950264 102.459587,106.813828 98.863121,103.711960
	C97.371384,102.425369 96.035690,100.888474 94.892845,99.278183
	C88.228523,89.887962 79.398499,85.448524 66.892632,87.242630
z"/>
<path fill="#F0F4FC" opacity="1.000000" stroke="none"
	d="
M137.776077,4.826412
	C136.190186,4.864428 134.412247,4.614141 132.327606,4.147058
	C133.875290,4.132878 135.729660,4.335495 137.776077,4.826412
z"/>
<path fill="#F0F4FC" opacity="1.000000" stroke="none"
	d="
M82.927811,6.054415
	C81.746269,6.631926 80.244133,7.155397 78.397148,7.669396
	C79.570610,7.106742 81.088913,6.553559 82.927811,6.054415
z"/>
<path fill="#F0F4FC" opacity="1.000000" stroke="none"
	d="
M86.884163,4.902933
	C86.260994,5.462749 85.455650,5.743265 84.322418,5.984201
	C84.897018,5.504292 85.799500,5.063962 86.884163,4.902933
z"/>
<path fill="#F0F4FC" opacity="1.000000" stroke="none"
	d="
M128.677399,3.355314
	C127.788017,3.453465 126.683495,3.371371 125.303528,3.098152
	C126.172813,2.996375 127.317535,3.085721 128.677399,3.355314
z"/>
<path fill="#F0F4FC" opacity="1.000000" stroke="none"
	d="
M122.723892,2.560592
	C121.613464,2.762871 120.270348,2.745421 118.560730,2.560433
	C119.626556,2.375552 121.058884,2.358207 122.723892,2.560592
z"/>
<path fill="#F4F7FC" opacity="1.000000" stroke="none"
	d="
M6.996593,147.331360
	C7.365531,147.773987 7.725430,148.560730 8.067349,149.680283
	C7.695432,149.233902 7.341493,148.454681 6.996593,147.331360
z"/>
<path fill="#F0F4FC" opacity="1.000000" stroke="none"
	d="
M108.076935,2.103203
	C107.543236,2.354295 106.657295,2.553114 105.435127,2.670988
	C105.974167,2.410338 106.849434,2.230634 108.076935,2.103203
z"/>
<path fill="#F0F4FC" opacity="1.000000" stroke="none"
	d="
M144.981812,6.890063
	C145.031601,7.028103 144.679138,7.223150 144.679138,7.223150
	C144.679138,7.223150 144.297470,7.094316 144.186249,6.925037
	C144.360672,6.754514 144.646347,6.753269 144.981812,6.890063
z"/>
<path fill="#F0F4FC" opacity="1.000000" stroke="none"
	d="
M139.735809,5.481494
	C139.387665,5.616273 138.839340,5.557901 138.097290,5.290943
	C138.447601,5.151019 138.991623,5.219681 139.735809,5.481494
z"/>
<path fill="#F4F7FC" opacity="1.000000" stroke="none"
	d="
M5.025690,140.179047
	C5.277447,140.390900 5.515444,140.879272 5.696019,141.642593
	C5.429708,141.430222 5.220819,140.942886 5.025690,140.179047
z"/>
<path fill="#F0F4FC" opacity="1.000000" stroke="none"
	d="
M98.812195,3.003482
	C98.590599,3.201567 98.125145,3.379205 97.425995,3.450183
	C97.650970,3.223361 98.109650,3.103198 98.812195,3.003482
z"/>
<path fill="#F4F7FC" opacity="1.000000" stroke="none"
	d="
M6.146152,144.957977
	C6.648262,145.015305 6.810722,145.251358 6.809795,145.793823
	C6.492564,145.692245 6.212595,145.371078 6.146152,144.957977
z"/>
<path fill="#F0F4FC" opacity="1.000000" stroke="none"
	d="
M89.841309,4.508908
	C89.948997,4.619564 89.506386,4.832305 89.263245,4.798279
	C89.160156,4.418436 89.397995,4.296436 89.841309,4.508908
z"/>
<path fill="#F4F7FC" opacity="1.000000" stroke="none"
	d="
M7.648186,76.078102
	C7.573891,77.633224 7.110429,79.265381 6.400219,81.180054
	C6.521987,79.693420 6.890503,77.924278 7.648186,76.078102
z"/>
<path fill="#FBFCFE" opacity="1.000000" stroke="none"
	d="
M67.342873,87.201630
	C79.398499,85.448524 88.228523,89.887962 94.892845,99.278183
	C96.035690,100.888474 97.371384,102.425369 98.863121,103.711960
	C102.459587,106.813828 106.416992,106.950264 110.388962,104.446938
	C114.397789,101.920372 115.753845,98.127045 114.647133,93.654724
	C114.014137,91.096687 112.722374,88.703247 111.745560,86.228455
	C106.093124,71.907852 113.351952,56.053135 127.682793,51.407955
	C142.121841,46.727703 157.897110,55.203712 161.530136,69.594048
	C165.315109,84.586220 155.829239,99.185966 140.438324,102.003983
	C137.985367,102.453110 135.479813,102.624077 133.035477,103.109459
	C127.700264,104.168922 124.229988,108.222389 124.297211,113.138290
	C124.362297,117.898506 127.622116,121.691978 132.834610,122.811234
	C135.430725,123.368690 138.110184,123.527489 140.722275,124.022980
	C155.796951,126.882462 165.188141,141.389343 161.587341,156.189056
	C158.087418,170.574173 142.381592,179.185364 127.888916,174.665237
	C113.571716,170.199829 106.118500,154.268967 111.674042,139.978119
	C112.578079,137.652603 113.722046,135.406662 114.455605,133.031418
	C115.968552,128.132553 114.304184,123.846397 110.163208,121.380516
	C105.996315,118.899208 101.420273,119.422623 97.843086,123.027893
	C96.331680,124.551163 95.174446,126.424698 93.847122,128.131943
	C86.994347,136.946152 78.001717,140.949158 67.046783,138.632233
	C56.588737,136.420425 49.620918,129.744888 47.036209,119.233437
	C44.341244,108.273605 47.822598,99.090500 56.603226,92.233353
	C59.540710,89.939354 63.435455,88.871155 67.342873,87.201630
z"/>
</svg>
