<svg xmlns="http://www.w3.org/2000/svg" viewBox="0 0 224 224"><path fill="#496CF4" d="M4.954 139.22c-.794-4.615-1.475-9.02-2.309-13.826-.2-7.963-.25-15.525-.337-23.516 1.119-5.989 2.276-11.55 3.39-17.502.156-1.015.353-1.638.75-2.87.662-2.24 1.126-3.873 1.59-5.505 11.52-29.145 30.884-50.986 59.671-64.04 2.413-1.095 4.853-2.13 7.502-3.492.967-.369 1.713-.44 2.994-.651 2.04-.663 3.541-1.186 5.043-1.71 0 0 .4.039.901-.023a33.968 33.968 0 0 0 2.917-.903c.445-.049.89-.098 1.888-.248.552-.102.995-.314.995-.314 2.16-.311 4.318-.622 7.094-.998 1.082-.243 1.548-.42 2.013-.598 1.737-.06 3.474-.12 5.963-.226a41.595 41.595 0 0 0 3.41-.643c2.993.138 5.986.275 9.738.493 2.103.097 3.446.115 4.79.132.459.075.918.15 2 .367 1.726.224 2.831.306 3.936.389.777.154 1.555.308 3.037.645 2.482.433 4.26.683 6.038.934 0 0 .003-.086.163.15.708.293 1.257.351 1.805.41 1.14.373 2.28.747 3.89 1.27.471.15.853.278.853.278l.353-.195c18.205 6.307 34.342 15.826 47.724 29.916 45.565 47.973 39.008 125.164-14.083 164.638-58.186 43.263-141.224 19.998-168.73-47.275a111.028 111.028 0 0 1-1.676-4.33 44.318 44.318 0 0 0-1.261-2.99c.001-.172.003-.344-.077-.964-.118-.772-.28-1.008-.57-1.157l-.497-2.878c-.347-1.109-.585-1.597-.823-2.085 0 0 .026-.474-.085-.683z"/><path fill="#FBFCFE" d="M67.343 87.202c12.055-1.753 20.886 2.686 27.55 12.076 1.143 1.61 2.478 3.147 3.97 4.434 3.597 3.102 7.554 3.238 11.526.735 4.009-2.527 5.365-6.32 4.258-10.792-.633-2.558-1.925-4.952-2.901-7.427-5.653-14.32 1.606-30.175 15.937-34.82 14.439-4.68 30.214 3.796 33.847 18.186 3.785 14.992-5.7 29.592-21.092 32.41-2.453.45-4.958.62-7.403 1.105-5.335 1.06-8.805 5.113-8.738 10.03.065 4.76 3.325 8.553 8.538 9.672 2.596.558 5.275.716 7.887 1.212 15.075 2.86 24.466 17.366 20.865 32.166-3.5 14.385-19.205 22.996-33.698 18.476-14.317-4.465-21.77-20.396-16.215-34.687.904-2.325 2.048-4.571 2.782-6.947 1.513-4.898-.152-9.185-4.293-11.65-4.167-2.482-8.743-1.958-12.32 1.647-1.511 1.523-2.669 3.397-3.996 5.104-6.853 8.814-15.845 12.817-26.8 10.5-10.458-2.212-17.426-8.887-20.01-19.399-2.696-10.96.786-20.142 9.566-27 2.938-2.294 6.832-3.362 10.74-5.031z"/></svg>
