<svg width="1500" height="1500" viewBox="0 0 1500 1500" fill="none" xmlns="http://www.w3.org/2000/svg"><path d="m903.45 239.478-158.536 89.686c-57.305 32.418-62.403 113.024-9.639 152.402l161.868 120.806c32.969 24.606 29.794 74.969-6.005 95.24l-146.066 82.711c-57.339 32.468-62.354 113.166-9.475 152.482l154.111 114.585a63.01 63.01 0 0 1 25.415 50.56v4.72c0 14.5 15.663 23.61 28.266 16.42l159.371-90.82c57.33-32.679 62.03-113.55 8.87-152.646L949.873 756.673c-33.208-24.421-30.297-74.929 5.496-95.374l147.681-84.356c57.24-32.698 61.93-113.465 8.84-152.559l-154.581-113.85a63.009 63.009 0 0 1-25.644-50.734v-3.869c0-14.479-15.612-23.582-28.215-16.453Z" fill="url(#a)"/><path d="m903.45 239.478-158.536 89.686c-57.305 32.418-62.403 113.024-9.639 152.402l161.868 120.806c32.969 24.606 29.794 74.969-6.005 95.24l-146.066 82.711c-57.339 32.468-62.354 113.166-9.475 152.482l154.111 114.585a63.01 63.01 0 0 1 25.415 50.56v4.72c0 14.5 15.663 23.61 28.266 16.42l159.371-90.82c57.33-32.679 62.03-113.55 8.87-152.646L949.873 756.673c-33.208-24.421-30.297-74.929 5.496-95.374l147.681-84.356c57.24-32.698 61.93-113.465 8.84-152.559l-154.581-113.85a63.009 63.009 0 0 1-25.644-50.734v-3.869c0-14.479-15.612-23.582-28.215-16.453Z" fill="url(#b)"/><path d="M555.816 381.878 397.28 471.564c-57.305 32.418-62.403 113.023-9.639 152.402l161.868 120.806c32.969 24.605 29.794 74.968-6.005 95.239l-146.066 82.711c-57.339 32.469-62.354 113.168-9.475 152.478l154.111 114.59a63.01 63.01 0 0 1 25.415 50.56v4.72c0 14.5 15.663 23.6 28.266 16.42l159.368-90.82c57.334-32.68 62.034-113.55 8.87-152.65L602.239 899.072c-33.208-24.42-30.297-74.928 5.496-95.374l147.68-84.355c57.245-32.699 61.928-113.466 8.846-152.56L609.675 452.934a63.009 63.009 0 0 1-25.644-50.734v-3.87c0-14.478-15.612-23.582-28.215-16.452Z" fill="url(#c)"/><path d="M555.816 381.878 397.28 471.564c-57.305 32.418-62.403 113.023-9.639 152.402l161.868 120.806c32.969 24.605 29.794 74.968-6.005 95.239l-146.066 82.711c-57.339 32.469-62.354 113.168-9.475 152.478l154.111 114.59a63.01 63.01 0 0 1 25.415 50.56v4.72c0 14.5 15.663 23.6 28.266 16.42l159.368-90.82c57.334-32.68 62.034-113.55 8.87-152.65L602.239 899.072c-33.208-24.42-30.297-74.928 5.496-95.374l147.68-84.355c57.245-32.699 61.928-113.466 8.846-152.56L609.675 452.934a63.009 63.009 0 0 1-25.644-50.734v-3.87c0-14.478-15.612-23.582-28.215-16.452Z" fill="url(#d)"/><defs><radialGradient id="b" cx="0" cy="0" r="1" gradientUnits="userSpaceOnUse" gradientTransform="matrix(525.916 0 0 1146.15 733.111 166.154)"><stop stop-color="#197A7B"/><stop offset=".76" stop-color="#075A5A"/></radialGradient><radialGradient id="d" cx="0" cy="0" r="1" gradientUnits="userSpaceOnUse" gradientTransform="matrix(525.916 0 0 1146.15 733.111 166.154)"><stop stop-color="#197A7B"/><stop offset=".76" stop-color="#075A5A"/></radialGradient><linearGradient id="a" x1="750" y1="237" x2="750" y2="1264" gradientUnits="userSpaceOnUse"><stop stop-color="#D8F0F0"/><stop offset="1" stop-color="#C5E4E4"/></linearGradient><linearGradient id="c" x1="750" y1="237" x2="750" y2="1264" gradientUnits="userSpaceOnUse"><stop stop-color="#D8F0F0"/><stop offset="1" stop-color="#C5E4E4"/></linearGradient></defs></svg>
