<svg data-name="Layer 1" xmlns="http://www.w3.org/2000/svg" viewBox="0 0 309.99 309.99"><path d="m180.26 185.07.03-.02s-.03.02-.05.03h.03Zm-.02.01c-46.81 14.06-85.52 34.57-109.77 58.59l-1.07 1.07c6.45 6.1 13.52 11.56 21.16 16.2l1.64-2.01a310.24 310.24 0 0 1 21.11-23.26c19.83-19.76 42.51-36.86 66.93-50.59Zm5.41-20.84H31.12A123.044 123.044 0 0 0 56.91 231l.67-.67c15.01-14.81 34.55-28.27 58.12-40 20.66-10.29 44.38-19.12 69.95-26.09ZM126.41 61.2c41.89 41.74 94.61 69.34 152.44 79.81C271.88 79.13 219.21 31 155.21 31c-16.9 0-33.01 3.37-47.72 9.45 5.97 7.19 12.35 14.19 18.92 20.76Zm-55.94 5.11c24.25 24.06 62.98 44.54 109.8 58.63-24.44-13.76-47.14-30.85-66.98-50.62a313.23 313.23 0 0 1-21.11-23.26l-1.64-2.01a124.61 124.61 0 0 0-21.13 16.19l1.07 1.07h-.01Zm55.94 182.47c-6.6 6.57-12.97 13.57-18.92 20.76 14.69 6.08 30.82 9.45 47.72 9.45 64 0 116.67-48.14 123.66-110.04-57.82 10.47-110.54 38.07-152.44 79.81l-.02.02Zm-10.74-129.16v.02c-23.55-11.73-43.08-25.2-58.09-39.99l-.67-.67a123.044 123.044 0 0 0-25.79 66.76h154.5c-25.56-6.97-49.26-15.8-69.95-26.12Z" style="fill:#f5f5f5"/></svg>
