<svg xmlns="http://www.w3.org/2000/svg" width="24" height="24" fill="none"><g clip-path="url(#a)"><path d="M12.5 25C19.404 25 25 19.404 25 12.5S19.404 0 12.5 0 0 5.596 0 12.5 5.596 25 12.5 25z" fill="#00b3ed"/><path d="M20.384 18.934h-4.365l.025-.021.094-.083.059-.053.093-.083.059-.054.098-.097.05-.05.12-.131.023-.025.138-.167.037-.047.094-.125.046-.066.078-.113.047-.075.069-.114.045-.083.063-.118.042-.083.059-.125.035-.083.054-.145.027-.071.068-.224a4.82 4.82 0 0 0-.706-3.736l.075-.128c.072-.127.163-.242.269-.341a.894.894 0 0 1 .23-.155.714.714 0 0 1 .158-.052.64.64 0 0 1 .16-.011.63.63 0 0 1 .106.015.735.735 0 0 1 .238.1.68.68 0 0 1 .059.039 1.12 1.12 0 0 1 .094.078c.065.062.124.129.175.203a1.09 1.09 0 0 1 .083.125l2.696 4.735c.043.074.08.152.111.232l.025.075c.015.047.026.095.035.144a.84.84 0 0 1 .008.147.75.75 0 0 1-.018.168.65.65 0 0 1-.075.2.68.68 0 0 1-.137.167.813.813 0 0 1-.141.099l-.054.027a1.31 1.31 0 0 1-.548.107zM15.316 17.2l-.015-.141a.107.107 0 0 0-.005-.04l-.023-.16-.005-.029-.027-.145a.23.23 0 0 0-.008-.038c-.01-.056-.025-.112-.039-.166a.234.234 0 0 0-.009-.038l-.042-.155-.009-.032-.057-.182-.014-.043-.9 1.55a1.614 1.614 0 0 0-.083.173 1.2 1.2 0 0 0-.088.325.836.836 0 0 0-.004.15.78.78 0 0 0 .015.112.664.664 0 0 0 .213.368.789.789 0 0 0 .193.125c.171.075.357.111.544.107h.1l.008-.02.04-.104.005-.013.034-.092.01-.027.034-.104.007-.022.027-.094c.002-.01.004-.02.008-.03l.027-.113.006-.029.02-.1.005-.029.018-.122a.1.1 0 0 1 .004-.034l.012-.113v-.025c0-.045.008-.088.008-.133v-.364c0-.05-.005-.1-.009-.15l.003-.02zm-3.396-5.469c-1.25-2.052-.531-4.82 1.873-5.369 0 0-1.464 2.361.675 4.009l.222.175.584-1 .027-.06.078-.189c.046-.127.082-.257.107-.389l.03-.2v-.002a2.51 2.51 0 0 0 0-.578l-.03-.2-.033-.147-.066-.219-.084-.212-.027-.061-1.418-2.491-.6-1.081a1.625 1.625 0 0 0-.173-.246 1.12 1.12 0 0 0-.191-.177.941.941 0 0 0-.101-.062.654.654 0 0 0-.624 0 .92.92 0 0 0-.198.14c-.068.063-.13.134-.184.21l-.083.132-7.865 13.853a1.368 1.368 0 0 0-.175.471.836.836 0 0 0-.01.122v.059a.73.73 0 0 0 .014.112.62.62 0 0 0 .03.104l.021.05a.58.58 0 0 0 .115.165.68.68 0 0 0 .05.048.75.75 0 0 0 .065.05.98.98 0 0 0 .344.144c.071.016.143.026.216.031h4.065a.98.98 0 0 0 .133-.013l.04-.005.097-.015.04-.007.128-.027h.014c.038-.008.075-.018.112-.029l.043-.013.083-.029.043-.015.118-.047a4.408 4.408 0 0 1-.64-.976c-1.092-2.243.518-4.964.518-4.964s-.24 2.579 1.442 2.697a1.59 1.59 0 0 0 1.278-.416c.092-.087.171-.186.233-.296l.046-.079c.063-.109.111-.227.14-.35a3.156 3.156 0 0 0-.519-2.607z" fill="#fff"/></g><defs><clipPath id="a"><path fill="#fff" d="M0 0h25v25H0z"/></clipPath></defs></svg>
