<svg version="1.1" id="Layer_1" xmlns="http://www.w3.org/2000/svg" x="0" y="0" viewBox="0 0 444 444" style="enable-background:new 0 0 444 444" xml:space="preserve"><style>.st0{fill:#ffeeda}.st2{fill:#101010}</style><defs><clipPath id="circleCrop"><circle cx="222" cy="222" r="222"/></clipPath></defs><g clip-path="url(#circleCrop)"><path class="st0" d="M0 0h444v444H0z"/><path class="st0" d="M333.4 262V110.6c-.2-12.7-10.3-22.9-23-22.9h-158c-34.1.5-61.5 28.4-61.5 62.6 0 11.5 3.1 21.4 7.8 30.1 4 7.2 10.3 14 16.5 19.1 1.8 1.4.9.8 6.3 4.1 7.4 4.5 15.9 6.8 15.9 6.8l-.1 90.6c.2 4.3.6 8.4 1.8 12.3 3.5 12.8 12.4 22.6 24.4 27.3 5 2 10.7 3.3 16.8 3.4l126.2.4c25.1 0 45.5-20.4 45.5-45.6.1-15-7.4-28.4-18.6-36.8z"/><path d="M336.5 299.9C336 316 322.7 329 306.4 329l-86.8-.3c6.9-8 11.1-18.4 11.1-29.8 0-17.8-10.6-30.1-10.6-30.1h86.4c16.6 0 30.1 13.5 30.1 30.1l-.1 1z" style="fill:#ebc28e"/><path class="st2" d="M123.5 186.7c-10-9.5-17-21.7-17-36.3v-1.5c.8-24.8 21.2-44.8 46-45.5h158c4.1.2 7.4 3.1 7.4 7.3v133.7c3.6.6 5.4 1.1 8.9 2.4 2.8 1 6.6 3.2 6.6 3.2V110.7c-.2-12.7-10.3-22.9-23-22.9h-158c-34.1.5-61.5 28.4-61.5 62.6 0 19.9 9.1 36.9 23.9 48.8 1 .8 2 1.9 4.6 1.9 4.6 0 7.9-3.7 7.7-7.7 0-3.4-1.5-4.6-3.6-6.7z"/><path class="st2" d="M306.4 253.2H182.5c-8.3.1-15 6.8-15 15.1v17.8c.2 8.2 7.2 15.2 15.6 15.2h9.2v-15.2H183v-17.4h5c15.7 0 27.2 14.5 27.2 30.1 0 13.8-12.6 31.4-33.6 30-18.6-1.2-28.7-17.8-28.7-30v-151c0-6.8-5.6-12.4-12.4-12.4h-12.4v15.5h9.2v148c-.5 30.1 21.4 45.2 44.3 45.2l124.9.4c25.1 0 45.5-20.4 45.5-45.6.1-25.2-20.4-45.7-45.6-45.7zm30.1 46.7C336 316 322.7 329 306.4 329l-86.8-.3c6.9-8 11.1-18.4 11.1-29.8 0-17.8-10.6-30.1-10.6-30.1h86.4c16.6 0 30.1 13.5 30.1 30.1l-.1 1zM273 153.7h-93.4v-15.5H273c4.2 0 7.7 3.4 7.7 7.7.1 4.3-3.3 7.8-7.7 7.8z"/><path class="st2" d="M273 226.4h-93.4V211H273c4.2 0 7.7 3.4 7.7 7.7.1 4.2-3.3 7.7-7.7 7.7zm16.5-36.4H179.6v-15.5h109.8c4.2 0 7.7 3.4 7.7 7.7.2 4.3-3.3 7.8-7.6 7.8z"/></g></svg>
