<svg width="256" height="256" viewBox="0 0 256 256" fill="none" xmlns="http://www.w3.org/2000/svg"><g clip-path="url(#a)"><path d="M256 128C256 57.308 198.692 0 128 0 57.308 0 0 57.308 0 128c0 70.692 57.308 128 128 128 70.692 0 128-57.308 128-128Z" fill="#fff"/><path d="M131.799 192.285v-10.969l27.09-15.955v-32.576l9.806-5.152.333 43.378-37.229 21.274Z" fill="#2C2C2E"/><path d="m139.61 112.176 11.136-6.315 27.423 17.285.166 52.186-9.307-4.321-.333-43.378-29.085-15.457Zm-8.309-59.831 46.702 26.758V90.24l-46.702-26.26V52.345Zm-46.371 81.77-.165-54.513L131.3 52.179v11.634L93.407 85.419v42.547l-8.476 6.149Z" fill="#2C2C2E"/><path d="m112.354 149.406-27.423-15.291 8.476-6.315 47.035 27.09-28.088 15.956-9.307 5.318 28.752 16.287 37.229-21.439 9.307 4.321-46.868 27.921-46.536-26.591 37.063-21.939-9.64-5.318ZM93.407 85.419l37.894-21.44 46.702 26.26-27.257 15.622-11.135 6.316 28.918 15.456-9.639 5.153-37.229-21.108 37.063-21.938-8.809-5.152-18.448-10.637-27.589 15.955-10.47-4.487Z" fill="#2C2C2E"/><path d="m103.046 176.164 9.308-5.319 19.279 10.637v10.969l-28.587-16.287Zm-17.949.499v-11.634l27.257-15.623 9.806 5.318-37.063 21.939Zm36.564-64.985.166-11.135 28.088-15.79 8.809 5.153-37.063 21.772Zm-28.254 16.288.166-42.547 10.305 4.654.166 33.406 36.398 20.276v11.468l-47.035-27.257Z" fill="#2C2C2E"/><path fill-rule="evenodd" clip-rule="evenodd" d="M168.952 127.204a.5.5 0 0 1 .243.425l.333 43.379a.502.502 0 0 1-.252.438l-37.229 21.273a.5.5 0 0 1-.748-.434v-10.969a.5.5 0 0 1 .246-.431l26.844-15.81v-32.29c0-.185.103-.356.268-.442l9.806-5.152a.501.501 0 0 1 .489.013Zm-9.563 5.884v32.273a.497.497 0 0 1-.246.43l-26.844 15.811v9.821l36.226-20.7-.324-42.265-8.812 4.63Z" fill="#fff"/><path fill-rule="evenodd" clip-rule="evenodd" d="M150.499 105.426a.5.5 0 0 1 .513.012l27.423 17.285a.5.5 0 0 1 .234.421l.166 52.187a.5.5 0 0 1-.711.455l-9.307-4.321a.5.5 0 0 1-.289-.45l-.33-43.08-28.822-15.317a.5.5 0 0 1-.012-.876l11.135-6.316Zm-9.85 6.736 28.281 15.029a.501.501 0 0 1 .265.438l.33 43.062 8.307 3.857-.162-51.126-26.938-16.979-10.083 5.719Zm-9.599-60.249a.5.5 0 0 1 .499-.002l46.702 26.758a.5.5 0 0 1 .252.434V90.24a.499.499 0 0 1-.745.436l-46.702-26.26a.499.499 0 0 1-.255-.436V52.345a.5.5 0 0 1 .249-.432Zm.751 1.295v10.479l45.702 25.697v-9.99l-45.702-26.186Z" fill="#fff"/><path fill-rule="evenodd" clip-rule="evenodd" d="M131.549 51.745a.502.502 0 0 1 .252.434v11.634a.5.5 0 0 1-.253.434L93.907 85.709v42.257a.5.5 0 0 1-.206.404l-8.476 6.15a.5.5 0 0 1-.794-.403l-.166-54.514a.5.5 0 0 1 .246-.432l46.536-27.423a.5.5 0 0 1 .502-.003ZM85.265 79.887l.163 53.25 7.479-5.426V85.419a.5.5 0 0 1 .252-.435l37.642-21.462V53.054L85.266 79.887Z" fill="#fff"/><path fill-rule="evenodd" clip-rule="evenodd" d="M93.109 127.399a.5.5 0 0 1 .548-.032l47.034 27.09a.5.5 0 0 1-.002.868l-28.087 15.955-8.544 4.882 27.739 15.714 36.982-21.298a.502.502 0 0 1 .46-.02l9.307 4.321a.502.502 0 0 1 .045.883l-46.868 27.922a.502.502 0 0 1-.504.005l-46.536-26.592a.502.502 0 0 1-.007-.865l36.31-21.493-8.873-4.895-.002-.002-27.423-15.29a.499.499 0 0 1-.056-.838l8.477-6.315Zm.334.998-7.594 5.658 26.747 14.913.002.001 9.637 5.317a.5.5 0 0 1 .013.868l-36.322 21.501 45.536 26.021 45.804-27.288-8.213-3.814-37.004 21.311a.501.501 0 0 1-.496.002L102.8 176.599a.5.5 0 0 1-.001-.869l9.308-5.319 27.328-15.524-45.992-26.49Zm37.612-64.853a.5.5 0 0 1 .491 0l46.702 26.259a.5.5 0 0 1 .003.87l-27.256 15.622-.002.001-10.346 5.868 28.118 15.029a.499.499 0 0 1 0 .881l-9.639 5.153a.505.505 0 0 1-.483-.006l-37.228-21.108a.5.5 0 0 1-.009-.865l36.332-21.505-8.073-4.722-.002-.002-18.196-10.49-27.339 15.81a.5.5 0 0 1-.447.027l-10.47-4.488a.5.5 0 0 1-.05-.894l37.894-21.44Zm.247 1.01-36.77 20.803 9.312 3.99 27.373-15.829a.5.5 0 0 1 .5 0l18.451 10.638 8.808 5.152a.501.501 0 0 1 .002.862l-36.319 21.499 36.238 20.546 8.572-4.582-28.094-15.015a.5.5 0 0 1-.011-.876l11.133-6.314.002-.002 26.491-15.183-45.688-25.69Z" fill="#fff"/><path fill-rule="evenodd" clip-rule="evenodd" d="M112.105 170.411a.503.503 0 0 1 .49-.004l19.279 10.637a.5.5 0 0 1 .259.438v10.969a.5.5 0 0 1-.748.435l-28.586-16.288a.5.5 0 0 1-.001-.869l9.307-5.318Zm.253 1.008-8.303 4.744 27.078 15.428v-9.814l-18.775-10.358Zm-.253-22.447a.502.502 0 0 1 .487-.006l9.806 5.319a.501.501 0 0 1 .016.869l-37.062 21.939a.501.501 0 0 1-.755-.43v-11.634a.5.5 0 0 1 .252-.434l27.256-15.623Zm.256 1.006-26.764 15.34v10.468l35.549-21.043-8.785-4.765Zm37.309-65.66a.501.501 0 0 1 .498.004l8.808 5.153a.5.5 0 0 1 .001.863l-37.063 21.771a.498.498 0 0 1-.753-.438l.166-11.136a.5.5 0 0 1 .255-.428l28.088-15.789Zm-27.347 16.52-.149 9.959 35.561-20.89-7.825-4.577-27.587 15.508Zm-29.02-15.84a.5.5 0 0 1 .476-.035l10.305 4.654a.5.5 0 0 1 .294.453l.165 33.114 36.142 20.134a.5.5 0 0 1 .257.437v11.468a.5.5 0 0 1-.751.432l-47.035-27.256a.501.501 0 0 1-.249-.435l.166-42.547a.5.5 0 0 1 .23-.419Zm.767 1.194-.162 41.487 46.034 26.676v-10.306l-36.141-20.134a.498.498 0 0 1-.257-.434l-.165-33.085-9.309-4.204Z" fill="#fff"/><path d="M243.2 128c0-63.623-51.577-115.2-115.2-115.2C64.377 12.8 12.8 64.377 12.8 128c0 63.623 51.577 115.2 115.2 115.2 63.623 0 115.2-51.577 115.2-115.2Z" stroke="#fff" stroke-width="1.2"/></g><defs><clipPath id="a"><path fill="#fff" d="M0 0h256v256H0z"/></clipPath></defs></svg>
