<svg xmlns="http://www.w3.org/2000/svg" width="24" height="24" fill="none"><style>.B{fill:#fff}.C{fill-rule:evenodd}.D{fill:#2c2c2e}</style><g clip-path="url(#B)"><mask id="A" maskUnits="userSpaceOnUse" x="0" y="0" width="25" height="25"><path d="M0 0h25v25H0V0Z" class="B"/></mask><g mask="url(#A)"><path d="M25 12.5C25 5.596 19.404 0 12.5 0S0 5.596 0 12.5 5.596 25 12.5 25 25 19.404 25 12.5z" class="B"/><path d="M12.871 18.778v-1.071l2.646-1.558v-3.181l.958-.503.032 4.236-3.636 2.078z" class="D"/><path d="m13.634 10.955 1.087-.617 2.678 1.688.016 5.096-.909-.422-.032-4.236-2.84-1.509zm-.811-5.843 4.561 2.613v1.088l-4.561-2.564V5.112zm-4.528 7.985-.016-5.323 4.544-2.678v1.136l-3.701 2.11v4.155l-.828.6z" class="D"/><path d="m10.972 14.59-2.678-1.493.828-.617 4.593 2.646-2.743 1.558-.909.519 2.808 1.591 3.636-2.094.909.422-4.577 2.727-4.545-2.597 3.619-2.142-.941-.519zm-1.85-6.249 3.701-2.094 4.561 2.564-2.662 1.526-1.087.617 2.824 1.509-.941.503-3.636-2.061L15.5 8.764l-.86-.503-1.802-1.039-2.694 1.558-1.023-.438z" class="D"/><path d="m10.063 17.204.909-.519 1.883 1.039v1.071l-2.792-1.591zm-1.753.049v-1.136l2.662-1.526.958.519-3.619 2.143zm3.571-6.346.016-1.087 2.743-1.542.86.503-3.62 2.126zm-2.759 1.591.016-4.155 1.006.454.016 3.262 3.554 1.98v1.12l-4.593-2.662z" class="D"/><path d="M16.499 12.422c.007.004.013.01.017.018s.006.015.006.024l.032 4.236c0 .009-.002.017-.006.025s-.011.014-.018.018l-3.636 2.077c-.007.004-.016.006-.024.006s-.017-.002-.024-.007-.014-.011-.018-.018-.007-.016-.007-.024v-1.071a.048.048 0 0 1 .024-.042l2.622-1.544v-3.153c0-.018.01-.035.026-.043l.958-.503c.007-.004.016-.006.024-.006s.017.003.024.007zm-.934.575v3.152c0 .008-.002.017-.006.024s-.01.014-.018.018l-2.621 1.544v.959l3.538-2.021-.032-4.127-.861.452z" class="B C"/><path d="M14.697 10.296c.008-.004.016-.007.025-.006s.017.003.025.008l2.678 1.688a.049.049 0 0 1 .023.042l.016 5.096a.049.049 0 0 1-.023.042.049.049 0 0 1-.047.004l-.909-.422c-.008-.004-.015-.01-.021-.018s-.008-.017-.008-.026l-.032-4.207-2.815-1.496c-.008-.004-.014-.01-.019-.018s-.007-.016-.007-.025.002-.017.006-.025.011-.014.018-.018l1.087-.617zm-.962.658 2.762 1.468c.008.004.014.01.019.018s.007.016.007.025l.032 4.205.811.377-.016-4.993-2.631-1.658-.985.559zm-.937-5.884c.007-.004.016-.007.024-.007s.017.002.024.006l4.561 2.613c.008.004.014.01.018.018s.007.016.007.024v1.088a.048.048 0 0 1-.024.042c-.008.004-.016.007-.024.007s-.017-.002-.024-.006l-4.561-2.564c-.008-.004-.014-.01-.018-.018s-.007-.016-.007-.025V5.112a.048.048 0 0 1 .024-.042zm.073.126v1.023l4.463 2.509v-.976l-4.463-2.557z" class="B C"/><path d="M12.847 5.053a.05.05 0 0 1 .018.018.051.051 0 0 1 .007.024v1.136a.052.052 0 0 1-.025.043L9.171 8.37v4.127c0 .008-.002.015-.005.022s-.009.013-.015.017l-.828.601c-.007.005-.016.009-.025.009s-.018-.001-.026-.005-.015-.01-.019-.018-.007-.017-.007-.025L8.23 7.774a.048.048 0 0 1 .024-.042l4.545-2.678c.007-.004.016-.007.024-.007s.017.002.025.006zm-4.52 2.748.016 5.2.73-.53v-4.13a.052.052 0 0 1 .025-.043l3.676-2.096V5.181l-4.447 2.62z" class="B C"/><path d="M9.093 12.441c.008-.006.017-.009.026-.01s.019.002.027.007l4.593 2.646c.007.004.014.01.018.018s.007.016.006.024-.002.017-.007.025-.011.014-.018.018l-2.743 1.558-.834.477 2.709 1.535 3.611-2.08c.007-.004.014-.006.022-.006s.016.001.023.004l.909.422c.008.004.015.01.02.017a.05.05 0 0 1 .008.025c0 .009-.002.018-.006.025s-.01.014-.018.019l-4.577 2.727c-.008.004-.016.007-.025.007s-.017-.002-.025-.006L8.27 17.295c-.007-.004-.014-.01-.018-.018s-.007-.016-.007-.024.002-.017.006-.024.01-.014.018-.018l3.546-2.099-.867-.478L8.27 13.14c-.007-.004-.013-.01-.018-.016s-.007-.015-.008-.023.001-.016.004-.024.009-.014.015-.019l.828-.617zm.033.097-.742.553 2.612 1.456.941.519c.008.004.014.01.018.018s.007.016.007.024-.002.017-.006.025-.01.014-.018.018l-3.547 2.1 4.447 2.541 4.473-2.665-.802-.372-3.614 2.081a.05.05 0 0 1-.048 0l-2.808-1.591c-.008-.004-.014-.01-.018-.018s-.007-.016-.007-.024.002-.017.006-.025a.05.05 0 0 1 .018-.018l.909-.519 2.669-1.516-4.491-2.587zm3.673-6.333a.05.05 0 0 1 .048 0l4.561 2.564c.008.004.014.01.018.018s.007.016.007.025-.002.017-.006.025-.011.014-.018.018l-2.662 1.526-1.01.573 2.746 1.468c.008.004.014.01.019.018s.007.016.007.025-.002.018-.007.025-.011.014-.019.018l-.941.503a.05.05 0 0 1-.048 0l-3.636-2.061c-.007-.004-.014-.01-.018-.018s-.007-.016-.007-.024.002-.017.006-.024.01-.014.018-.018l3.548-2.1-.788-.461-1.777-1.024-2.67 1.544c-.007.004-.014.006-.022.006s-.015-.001-.022-.004l-1.022-.438a.05.05 0 0 1-.03-.042c-.001-.009.002-.018.006-.026s.011-.015.019-.019L12.8 6.208zm.024.099L9.232 8.336l.909.39 2.673-1.546c.007-.004.016-.007.024-.007s.017.002.024.007l1.802 1.039.86.503c.007.004.013.01.018.018s.006.016.006.024-.002.017-.006.024-.01.014-.018.018l-3.547 2.1 3.539 2.006.837-.447-2.744-1.466c-.008-.004-.014-.01-.019-.018s-.007-.016-.007-.025.002-.017.006-.025.011-.014.018-.018l1.087-.617 2.587-1.483-4.462-2.509z" class="B C"/><path d="M10.948 16.642a.05.05 0 0 1 .024-.006.05.05 0 0 1 .024.006l1.883 1.039c.008.004.014.01.019.018s.007.016.007.025v1.071c0 .009-.002.017-.007.024s-.01.014-.018.018-.016.007-.024.007-.017-.002-.024-.006l-2.792-1.591c-.008-.004-.014-.01-.018-.018s-.007-.016-.007-.025.002-.017.007-.025.011-.014.018-.018l.909-.519zm.025.098-.811.463 2.644 1.507v-.958l-1.833-1.012zm-.025-2.192c.007-.004.015-.006.024-.006s.017.002.024.006l.958.519c.008.004.014.01.018.018s.007.016.007.024-.002.017-.006.025-.01.014-.018.018l-3.619 2.142c-.007.004-.016.007-.024.007s-.017-.002-.025-.006-.014-.01-.018-.018-.007-.016-.007-.025v-1.136c0-.009.002-.017.007-.024s.011-.014.018-.018l2.662-1.526zm.025.098-2.614 1.498v1.022l3.472-2.055-.858-.465zm3.643-6.412c.007-.004.016-.006.024-.006s.017.002.024.007l.86.503c.007.004.014.01.018.018s.007.016.007.024-.002.017-.006.024a.05.05 0 0 1-.018.018l-3.619 2.126c-.008.005-.016.007-.025.007s-.017-.002-.025-.007-.014-.011-.018-.018-.006-.016-.006-.025l.016-1.088c0-.009.002-.017.007-.024s.011-.013.018-.018l2.743-1.542zm-2.671 1.613-.015.973 3.473-2.04-.764-.447-2.694 1.514zM9.112 8.301c.007-.004.015-.007.023-.008s.016.001.024.004l1.006.454a.05.05 0 0 1 .029.044l.016 3.234 3.529 1.966c.008.004.014.01.018.018s.007.016.007.025v1.12c0 .009-.002.017-.007.024s-.011.014-.018.018-.016.007-.024.007-.017-.002-.024-.007l-4.593-2.662a.05.05 0 0 1-.018-.018.054.054 0 0 1-.006-.025L9.09 8.34c0-.008.002-.016.006-.023s.01-.013.016-.018zm.075.117-.016 4.052 4.496 2.605v-1.006l-3.529-1.966c-.008-.004-.014-.01-.018-.018s-.007-.016-.007-.025l-.016-3.231-.909-.411z" class="B C"/><path d="M23.75 12.5c0-6.213-5.037-11.25-11.25-11.25S1.25 6.287 1.25 12.5 6.287 23.75 12.5 23.75s11.25-5.037 11.25-11.25z" stroke="#fff" stroke-width="1.2"/></g></g><defs><clipPath id="B"><path d="M0 0h25v25H0z" class="B"/></clipPath></defs></svg>
