<svg width="93" height="93" viewBox="0 0 93 93" fill="none" xmlns="http://www.w3.org/2000/svg"><path fill-rule="evenodd" clip-rule="evenodd" d="M70.697 2.948A2.71 2.71 0 0 1 72.94 6.54l-8.444 23.995c-.754 2.143-3.651 2.463-4.855.537l-1.802-2.884L25.25 48.55l-3.35-5.363c-5.354-8.568-2.749-19.852 5.818-25.206l17.077-10.67-1.977-3.165c-1.204-1.926.354-4.39 2.61-4.128l25.269 2.93ZM36.53 58.586c-11.774 6.798-15.808 21.853-9.01 33.627l33.16-19.145c8.748-5.051 11.746-16.238 6.694-24.987l-3.162-5.477L36.53 58.586Z" fill="#07C166"/></svg>
