<svg width="256" height="256" viewBox="0 0 256 256" fill="none" xmlns="http://www.w3.org/2000/svg"><g clip-path="url(#a)"><path d="M128 256c70.692 0 128-57.308 128-128C256 57.308 198.692 0 128 0 57.308 0 0 57.308 0 128c0 70.692 57.308 128 128 128Z" fill="url(#b)"/><path d="M203.904 106.88h-15.191c-8.361-23.209-30.848-39.127-60.503-39.127H79.442v39.127H62.505v14.039h16.937v14.72H62.505v14.034h16.937v38.656h48.768c29.312 0 51.625-15.785 60.201-38.656h15.488v-14.039h-12.073a63.81 63.81 0 0 0 .471-7.593v-.343c0-2.304-.128-4.567-.343-6.784h11.991v-14.039l-.041.005ZM93.097 80.256h35.113c21.76 0 37.929 10.711 45.399 26.583H93.097V80.256Zm35.113 95.447H93.097v-26.071h80.425c-7.506 15.616-23.634 26.071-45.312 26.071Zm49.961-47.36a50.46 50.46 0 0 1-.512 7.255H93.097v-14.72h84.608c.31 2.363.467 4.744.471 7.127l-.005.338Z" fill="#fff"/></g><defs><linearGradient id="b" x1="128" y1="0" x2="128" y2="256" gradientUnits="userSpaceOnUse"><stop stop-color="#85C14B"/><stop offset="1" stop-color="#55B150"/></linearGradient><clipPath id="a"><path fill="#fff" d="M0 0h256v256H0z"/></clipPath></defs></svg>
