<svg xmlns="http://www.w3.org/2000/svg" width="256" height="256"><path d="M0 0h256v256H0V0Z" fill="#162B22"/><path d="M83 64c8.079-.084 16.156-.164 24.234-.207 3.764-.021 7.527-.049 11.29-.095 3.638-.044 7.275-.067 10.913-.078a387.73 387.73 0 0 0 4.125-.043c19.26-.294 35.839 5.38 49.968 18.737 10.934 10.857 18.527 26.476 18.85 42.027-.047 19.018-5.923 36.39-19.556 50.034-14.408 13.392-30.787 18.142-50.117 17.918a1919.309 1919.309 0 0 1-15.594-.087c-4.527-.036-9.054-.05-13.582-.067-6.844-.03-13.687-.087-20.531-.139v-36H67c-.536-12.054-.536-12.054 1.813-15.625 2.32-2.52 3.94-4.267 7.449-4.57L83 136v-16l-4.188.25c-3.481 0-4.66-.16-7.75-2-5.17-5.641-4.223-10.856-4.062-18.25h16V64Z" fill="#FDBC33"/><path d="M103 84c5.6-.1 11.201-.172 16.803-.22 1.9-.02 3.8-.047 5.7-.082 16.812-.3 30.081 1.097 43.184 12.677 8.994 10.209 13.815 19.512 13.563 33.285-.829 11.071-5.346 22.436-13.25 30.34-10.602 8.755-21.695 12.18-35.238 12.098l-2.67-.005c-2.801-.005-5.603-.018-8.405-.03-1.904-.006-3.808-.01-5.712-.014A6507.86 6507.86 0 0 1 103 172v-16l4.112-.028c5.052-.04 10.104-.106 15.157-.18 2.183-.028 4.366-.049 6.55-.063 3.145-.021 6.29-.068 9.435-.12l2.94-.003c6.163-.132 9.673-1.196 14.806-4.606h2c2.408-4.817 4.16-9.94 6-15h-61v-16h60c-1.327-7.733-1.327-7.733-5-13v-2l-2.188-.875C153 103 153 103 150.97 101.955c-4.406-1.417-8.7-1.314-13.302-1.37-.992-.018-1.984-.038-3.005-.058-3.159-.06-6.317-.106-9.476-.152l-6.435-.117c-5.25-.096-10.501-.18-15.752-.258V84Z" fill="#192D22"/><path d="M255 140h1v116H140v-1l3.227-.516c35.255-5.804 66.873-21.859 88.148-51.422C244.6 183.99 251.956 162.933 255 140Z" fill="#FCFDFD"/><path d="M140 0h116v119h-1l-.262-2.832C251.61 85.604 239.277 60.073 218 38l-1.984-2.176C196.215 14.712 167.836 5.15 140 1V0ZM0 0h116v1l-1.781.288C84.702 6.138 60.99 16.228 39 37l-2.273 2.078C15.243 59.431 5.842 86.578 1 115H0V0Zm0 140h1l.516 3.227c4.16 25.27 12.78 48.64 29.972 67.949a119.184 119.184 0 0 1 5.325 6.449C56.314 240.209 86.764 250.064 115 255v1H0V140Z" fill="#FDFDFD"/></svg>
