<svg xmlns="http://www.w3.org/2000/svg" width="24" height="24" fill="none"><g clip-path="url(#a)"><path d="M12.5 25C19.404 25 25 19.404 25 12.5S19.404 0 12.5 0 0 5.596 0 12.5 5.596 25 12.5 25z" fill="#1e1a31"/><g fill-rule="evenodd" fill="#fff"><path d="M10.222 12.092a.617.617 0 0 1 .609.615.616.616 0 0 1-.609.615H8.63a2.8 2.8 0 0 1-2.803-2.803c0-.743.295-1.456.821-1.982a2.8 2.8 0 0 1 1.982-.821h4.105a.617.617 0 0 1 .609.615.616.616 0 0 1-.609.615H8.63a1.57 1.57 0 0 0-1.571 1.571 1.57 1.57 0 0 0 1.571 1.571h1.592z"/><path d="M8.965 13.324a.611.611 0 0 1-.432-1.048.614.614 0 0 1 .432-.182h1.592a2.8 2.8 0 0 1 2.803 2.802c0 .743-.295 1.456-.821 1.982a2.8 2.8 0 0 1-1.982.821H6.452a.611.611 0 0 1-.432-1.048.614.614 0 0 1 .432-.182h4.105a1.57 1.57 0 0 0 1.571-1.571 1.57 1.57 0 0 0-1.571-1.571H8.965z"/><path d="m6.936 17.449-.997-.717 6.271-8.785.997.717-6.271 8.785z" fill-opacity=".5"/></g><path d="M16.571 15.016v1.454h.914v-1.717h.711v2.641h-3.834v-2.646h.714v1.722h.809v-1.454h.687zm-1.496-3.702v1.151h3.121v.925h-3.12v1.13h-.714v-3.205h.714zm3.121-3.595v.919h-1.601v1.361h1.601v.924h-3.834v-.924h1.522V8.637h-1.522v-.919h3.834z" fill="#fff"/></g><defs><clipPath id="a"><path fill="#fff" d="M0 0h25v25H0z"/></clipPath></defs></svg>
