<svg xmlns="http://www.w3.org/2000/svg" width="430" height="430" viewBox="0 0 430 430"><g transform="translate(4995 16437)"><circle cx="215" cy="215" r="215" transform="translate(-4995 -16437)" fill="#1e1a31"/><g fill-rule="evenodd"><path d="M-4819.182-16229.016a10.59 10.59 0 0 1 0 21.179h-27.381a48.203 48.203 0 0 1 0-96.407h70.613a10.59 10.59 0 0 1 0 21.179h-70.613a27.024 27.024 0 0 0 0 54.048z" fill="#fff"/><path d="M-4840.801-16207.837a10.59 10.59 0 0 1 0-21.179h27.383a48.203 48.203 0 0 1 0 96.406h-70.613a10.59 10.59 0 0 1 0-21.179h70.613a27.024 27.024 0 0 0 0-54.048z" fill="#fff"/><path d="m-4875.697-16136.881-17.146-12.336 107.857-151.107 17.149 12.336z" fill="rgba(255,255,255,0.5)"/></g><path d="M-4709.983-16178.734v25h15.717v-29.53h12.229v45.43h-65.947v-45.52h12.274v29.622h13.91v-25zm-25.727-63.683v19.793h53.673v15.9h-53.673v19.429h-12.274v-55.122zm53.673-61.826v15.807h-27.538v23.417h27.538v15.9h-65.947v-15.9h26.184v-23.417h-26.18v-15.808z" fill="#fff"/></g></svg>
