<svg xmlns="http://www.w3.org/2000/svg" width="256" height="256" viewBox="0 0 256 256"><defs><linearGradient id="a" x1=".5" x2=".5" y2="1" gradientUnits="objectBoundingBox"><stop offset="0" stop-color="#090220"/><stop offset="1" stop-color="#170659"/></linearGradient></defs><g data-name="Group 30015"><circle cx="128" cy="128" r="128" fill="url(#a)" data-name="Ellipse 1584"/><g data-name="Group 30014"><path fill="#00d1ff" d="M85.831 96.175a5.385 5.385 0 0 0-4.218-1.96H47.424a.989.989 0 0 1-.739-.288.88.88 0 0 1-.285-.633v-23.04a.883.883 0 0 1 .285-.633.987.987 0 0 1 .739-.289h36.128q13.674 0 23.591 11.174l8.775 10.713-17.094 20.852zm63.139-15.782q9.915-11.06 23.7-11.06h36.014a.931.931 0 0 1 .684.229.956.956 0 0 1 .227.692v23.041a1 1 0 0 1-.227.633.821.821 0 0 1-.684.288H174.5a5.386 5.386 0 0 0-4.218 1.96L145.1 126.818l25.3 30.873a5.4 5.4 0 0 0 4.1 1.845h34.189a.821.821 0 0 1 .684.289 1.182 1.182 0 0 1 .227.747v23.041a1 1 0 0 1-.227.633.82.82 0 0 1-.684.289h-36.014q-13.789 0-23.591-11.174l-20.969-25.574-20.972 25.574q-9.915 11.172-23.705 11.172H47.424a.816.816 0 0 1-.684-.289 1.161 1.161 0 0 1-.227-.75v-23.04a.989.989 0 0 1 .227-.633.818.818 0 0 1 .684-.288h34.189a5.6 5.6 0 0 0 4.218-1.96l24.73-30.181z" data-name="Path 10399"/></g></g></svg>
