<svg xmlns="http://www.w3.org/2000/svg" width="24" height="24" fill="none"><g clip-path="url(#a)"><path d="M12.5 25C19.404 25 25 19.404 25 12.5S19.404 0 12.5 0 0 5.596 0 12.5 5.596 25 12.5 25z" fill="url(#b)"/><path d="M8.382 9.392a.521.521 0 0 0-.412-.191H4.631c-.013.001-.027-.002-.039-.007s-.024-.012-.033-.022-.015-.017-.02-.028-.007-.022-.008-.034V6.86c0-.012.003-.023.008-.034s.012-.02.02-.028.021-.017.033-.022.026-.007.039-.007h3.528c.89 0 1.658.364 2.304 1.091l.857 1.046-1.669 2.036L8.382 9.39zm6.166-1.541c.646-.72 1.417-1.08 2.314-1.08h3.517c.012-.001.024.001.036.004s.022.01.031.018a.093.093 0 0 1 .022.068v2.25a.1.1 0 0 1-.022.062.073.073 0 0 1-.03.022.08.08 0 0 1-.037.006h-3.338a.529.529 0 0 0-.412.191l-2.459 2.992 2.471 3.015a.522.522 0 0 0 .401.18h3.339a.08.08 0 0 1 .037.006.073.073 0 0 1 .03.022.119.119 0 0 1 .022.073v2.25a.102.102 0 0 1-.022.062.08.08 0 0 1-.067.028h-3.517c-.898 0-1.666-.364-2.304-1.091l-2.048-2.498-2.048 2.498c-.646.727-1.417 1.091-2.315 1.091H4.631c-.013.001-.025-.001-.037-.006s-.022-.012-.03-.022a.113.113 0 0 1-.022-.073v-2.25a.1.1 0 0 1 .022-.062.08.08 0 0 1 .067-.028H7.97a.541.541 0 0 0 .412-.191l2.415-2.947 3.751-4.59z" fill="#00d1ff"/></g><defs><linearGradient id="b" x1="12.5" y1="0" x2="12.5" y2="25" gradientUnits="userSpaceOnUse"><stop stop-color="#090220"/><stop offset="1" stop-color="#170659"/></linearGradient><clipPath id="a"><path fill="#fff" d="M0 0h25v25H0z"/></clipPath></defs></svg>
