<svg xmlns="http://www.w3.org/2000/svg" width="48" height="48" fill="none" viewBox="0 0 48 48"><path fill="#7667eb" d="M47.94 23.97c0 13.238-10.732 23.97-23.97 23.97S0 37.208 0 23.97 10.732 0 23.97 0s23.97 10.732 23.97 23.97"/><path fill="#fff" d="M46.655 23.97c0-12.529-10.157-22.685-22.685-22.685S1.285 11.441 1.285 23.97 11.441 46.655 23.97 46.655v1.285l-.618-.007C10.399 47.605 0 37 0 23.97 0 10.732 10.732 0 23.97 0s23.97 10.732 23.97 23.97l-.007.619C47.604 37.54 37 47.94 23.97 47.94v-1.285c12.528 0 22.685-10.157 22.685-22.685"/><rect width="1.285" height="4.755" x="12.981" y="12.082" fill="#fff" rx=".643"/><rect width="1.285" height="4.755" x="12.981" y="31.103" fill="#fff" rx=".643"/><rect width="1.285" height="4.755" x="15.166" y="12.082" fill="#fff" rx=".643"/><rect width="1.285" height="4.755" x="15.166" y="31.103" fill="#fff" rx=".643"/><rect width="1.285" height="23.777" x="17.351" y="12.082" fill="#fff" rx=".643"/><rect width="1.285" height="4.755" x="17.351" y="6.426" fill="#fff" rx=".643"/><rect width="1.285" height="4.755" x="17.351" y="36.758" fill="#fff" rx=".643"/><rect width="1.285" height="23.777" x="19.536" y="12.082" fill="#fff" rx=".643"/><rect width="1.285" height="4.755" x="19.536" y="6.426" fill="#fff" rx=".643"/><rect width="1.285" height="4.755" x="19.536" y="36.758" fill="#fff" rx=".643"/><rect width="1.285" height="4.755" x="21.721" y="12.082" fill="#fff" rx=".643"/><rect width="1.285" height="4.755" x="21.721" y="31.103" fill="#fff" rx=".643"/><rect width="1.285" height="4.755" x="21.721" y="21.592" fill="#fff" rx=".643"/><rect width="1.285" height="4.755" x="23.906" y="12.082" fill="#fff" rx=".643"/><rect width="1.285" height="4.755" x="23.906" y="31.103" fill="#fff" rx=".643"/><rect width="1.285" height="4.755" x="23.906" y="21.592" fill="#fff" rx=".643"/><rect width="1.285" height="4.755" x="26.091" y="6.426" fill="#fff" rx=".643"/><rect width="1.285" height="4.755" x="26.091" y="36.758" fill="#fff" rx=".643"/><rect width="1.285" height="4.755" x="26.091" y="12.082" fill="#fff" rx=".643"/><rect width="1.285" height="4.755" x="26.091" y="31.103" fill="#fff" rx=".643"/><rect width="1.285" height="4.755" x="26.091" y="21.592" fill="#fff" rx=".643"/><rect width="1.285" height="5.655" x="28.276" y="12.082" fill="#fff" rx=".643"/><rect width="1.285" height="5.655" x="28.276" y="30.204" fill="#fff" rx=".643"/><rect width="1.285" height="4.755" x="28.276" y="6.426" fill="#fff" rx=".643"/><rect width="1.285" height="4.755" x="28.276" y="36.758" fill="#fff" rx=".643"/><rect width="1.285" height="6.555" x="28.276" y="20.693" fill="#fff" rx=".643"/><rect width="1.285" height="23.777" x="30.461" y="12.082" fill="#fff" rx=".643"/><rect width="1.285" height="19.022" x="32.646" y="14.459" fill="#fff" rx=".643"/><rect width="1.285" height="4.755" x="34.831" y="16.837" fill="#fff" rx=".643"/><rect width="1.285" height="4.755" x="34.831" y="26.348" fill="#fff" rx=".643"/></svg>
