<svg width="48" height="48" viewBox="0 0 48 48" fill="none" xmlns="http://www.w3.org/2000/svg"><path d="M47.94 23.97c0 13.238-10.732 23.97-23.97 23.97S0 37.208 0 23.97 10.732 0 23.97 0s23.97 10.732 23.97 23.97Z" fill="#7667EB"/><path d="M46.655 23.97c0-12.529-10.157-22.685-22.685-22.685-12.528 0-22.685 10.156-22.685 22.685 0 12.528 10.156 22.685 22.685 22.685v1.285l-.618-.007C10.399 47.605 0 37 0 23.97 0 10.732 10.732 0 23.97 0s23.97 10.732 23.97 23.97l-.007.619C47.604 37.54 37 47.94 23.97 47.94v-1.285c12.528 0 22.685-10.157 22.685-22.685Z" fill="#fff"/><rect x="12.981" y="12.082" width="1.285" height="4.755" rx=".643" fill="#fff"/><rect x="12.981" y="31.103" width="1.285" height="4.755" rx=".643" fill="#fff"/><rect x="15.166" y="12.082" width="1.285" height="4.755" rx=".643" fill="#fff"/><rect x="15.166" y="31.103" width="1.285" height="4.755" rx=".643" fill="#fff"/><rect x="17.351" y="12.082" width="1.285" height="23.777" rx=".643" fill="#fff"/><rect x="17.351" y="6.426" width="1.285" height="4.755" rx=".643" fill="#fff"/><rect x="17.351" y="36.758" width="1.285" height="4.755" rx=".643" fill="#fff"/><rect x="19.536" y="12.082" width="1.285" height="23.777" rx=".643" fill="#fff"/><rect x="19.536" y="6.426" width="1.285" height="4.755" rx=".643" fill="#fff"/><rect x="19.536" y="36.758" width="1.285" height="4.755" rx=".643" fill="#fff"/><rect x="21.721" y="12.082" width="1.285" height="4.755" rx=".643" fill="#fff"/><rect x="21.721" y="31.103" width="1.285" height="4.755" rx=".643" fill="#fff"/><rect x="21.721" y="21.592" width="1.285" height="4.755" rx=".643" fill="#fff"/><rect x="23.906" y="12.082" width="1.285" height="4.755" rx=".643" fill="#fff"/><rect x="23.906" y="31.103" width="1.285" height="4.755" rx=".643" fill="#fff"/><rect x="23.906" y="21.592" width="1.285" height="4.755" rx=".643" fill="#fff"/><rect x="26.091" y="6.426" width="1.285" height="4.755" rx=".643" fill="#fff"/><rect x="26.091" y="36.758" width="1.285" height="4.755" rx=".643" fill="#fff"/><rect x="26.091" y="12.082" width="1.285" height="4.755" rx=".643" fill="#fff"/><rect x="26.091" y="31.103" width="1.285" height="4.755" rx=".643" fill="#fff"/><rect x="26.091" y="21.592" width="1.285" height="4.755" rx=".643" fill="#fff"/><rect x="28.276" y="12.082" width="1.285" height="5.655" rx=".643" fill="#fff"/><rect x="28.276" y="30.204" width="1.285" height="5.655" rx=".643" fill="#fff"/><rect x="28.276" y="6.426" width="1.285" height="4.755" rx=".643" fill="#fff"/><rect x="28.276" y="36.758" width="1.285" height="4.755" rx=".643" fill="#fff"/><rect x="28.276" y="20.693" width="1.285" height="6.555" rx=".643" fill="#fff"/><rect x="30.461" y="12.082" width="1.285" height="23.777" rx=".643" fill="#fff"/><rect x="32.646" y="14.459" width="1.285" height="19.022" rx=".643" fill="#fff"/><rect x="34.831" y="16.837" width="1.285" height="4.755" rx=".643" fill="#fff"/><rect x="34.831" y="26.348" width="1.285" height="4.755" rx=".643" fill="#fff"/></svg>
