<svg width="37" height="37" viewBox="0 0 37 37" xmlns="http://www.w3.org/2000/svg"><g xmlns="http://www.w3.org/2000/svg" fill="none" transform="matrix(.925 0 0 .90244 0 .533)"><g clip-path="url(#a)"><path fill="url(#b)" d="M20 .019c-11.046 0-20 8.953-20 20 0 11.046 8.954 20 20 20s20-8.954 20-20c0-11.047-8.954-20-20-20"/><path stroke="#fff" stroke-opacity=".2" d="M20 .519c10.77 0 19.5 8.73 19.5 19.5s-8.73 19.5-19.5 19.5S.5 30.789.5 20.019 9.23.519 20 .519Z"/><path fill="#fff" fill-rule="evenodd" d="M16.862 3.857C9.276 5.317 3.544 11.996 3.544 20.004S9.276 34.69 16.862 36.15v-1.54c-6.75-1.44-11.806-7.434-11.806-14.606S10.113 6.838 16.86 5.398zm6.285 1.55v-1.54c7.575 1.47 13.286 8.139 13.286 16.137S30.722 34.67 23.147 36.14V34.6c6.729-1.45 11.775-7.434 11.775-14.596S29.876 6.858 23.147 5.408" clip-rule="evenodd"/><path fill="#fff" d="M22.333 19.46c1.259.242 2.226.705 2.921 1.38.695.665 1.037 1.52 1.037 2.558v1.642c0 1.25-.453 2.257-1.35 3.022-.896.756-2.084 1.128-3.545 1.128h-.504v2.61H19.16v-2.61h-.534c-.967 0-1.813-.211-2.559-.644a4.63 4.63 0 0 1-1.732-1.844c-.403-.806-.605-1.722-.605-2.77h1.733c0 1.058.292 1.924.866 2.59.595.644 1.38.976 2.337.976h2.68q1.42 0 2.296-.665c.575-.463.867-1.057.867-1.793v-1.642c0-.584-.222-1.077-.655-1.49-.423-.413-.997-.675-1.733-.796l-4.341-.766c-1.219-.221-2.176-.685-2.85-1.38-.676-.705-1.018-1.581-1.018-2.639v-1.38c0-1.249.433-2.236 1.3-2.971.886-.756 2.054-1.129 3.494-1.129h.434V8.24h1.732v2.608h.554c1.37 0 2.468.444 3.304 1.33.836.866 1.26 2.025 1.26 3.455h-1.733c0-.937-.262-1.692-.776-2.256q-.771-.846-2.055-.846h-2.73c-.916 0-1.652.221-2.195.665-.544.422-.816 1.007-.816 1.742v1.38q0 .891.604 1.511c.423.413.987.685 1.712.816z"/></g><defs><radialGradient id="b" cx="0" cy="0" r="1" gradientTransform="matrix(0 42.1693 -29.683 0 20.04 5.855)" gradientUnits="userSpaceOnUse"><stop offset=".031" stop-color="#27EEFC"/><stop offset=".807" stop-color="#1B50FE"/></radialGradient><clipPath id="a"><path fill="#fff" d="M0 .019h40v40H0z"/></clipPath></defs></g><circle cx="18.5" cy="18.5" r="17.5" stroke="#1BE3C2" stroke-width="2" fill="none"/></svg>
