<svg xmlns="http://www.w3.org/2000/svg" width="24" height="24" fill="none"><g clip-path="url(#a)"><mask id="b" maskUnits="userSpaceOnUse" x="0" y="0" width="24" height="26"><path d="M0 .033h25v25H0v-25z" fill="#fff"/></mask><g mask="url(#b)"><path d="M12.5 25.034c6.904 0 12.5-5.596 12.5-12.5S19.404.034 12.5.034 0 5.63 0 12.534s5.596 12.5 12.5 12.5z" fill="#fff"/><path d="m8.681 11.849-.108.166a4.666 4.666 0 0 0 .656 5.901 4.873 4.873 0 0 0 3.419 1.388l-3.967-7.456z" fill="#00a3ff"/><path opacity=".6" d="M12.647 14.115 8.68 11.849l3.967 7.456v-5.19zm3.973-2.266.108.166a4.666 4.666 0 0 1-.656 5.901 4.873 4.873 0 0 1-3.419 1.388l3.967-7.456z" fill="#00a3ff"/><path opacity=".2" d="m12.652 14.115 3.967-2.266-3.967 7.456v-5.19zm.001-5.062v3.908l3.417-1.953-3.417-1.955z" fill="#00a3ff"/><path opacity=".6" d="m12.653 9.053-3.42 1.955 3.42 1.953V9.053z" fill="#00a3ff"/><path d="m12.653 5.766-3.42 5.243 3.42-1.961V5.766z" fill="#00a3ff"/><path opacity=".6" d="m12.654 9.048 3.42 1.961-3.42-5.246v3.285z" fill="#00a3ff"/></g></g><defs><clipPath id="a"><path fill="#fff" transform="translate(0 .033)" d="M0 0h25v25H0z"/></clipPath></defs></svg>
