<svg width="120" height="120" viewBox="0 0 120 120" fill="none" xmlns="http://www.w3.org/2000/svg"><path d="M0 60C0 26.863 26.863 0 60 0s60 26.863 60 60-26.863 60-60 60S0 93.137 0 60Z" fill="#000"/><path d="M0 60C0 26.863 26.863 0 60 0s60 26.863 60 60-26.863 60-60 60S0 93.137 0 60Z" fill="#000"/><path d="m68.897 15.88 2.596 6.08A50.347 50.347 0 0 0 98.04 48.505l6.081 2.596c1.591.678 2.883 1.651 3.881 2.81C104.972 32.2 87.799 15.026 66.086 12c1.157.995 2.132 2.29 2.811 3.88ZM15.88 51.1l6.082-2.596A50.36 50.36 0 0 0 48.51 21.96l2.593-6.08c.682-1.592 1.655-2.886 2.812-3.881C32.202 15.026 15.028 32.2 12 53.91c.997-1.159 2.29-2.132 3.88-2.81Zm88.24 17.798-6.081 2.596a50.351 50.351 0 0 0-26.546 26.545l-2.596 6.078A10.54 10.54 0 0 1 66.086 108c21.713-3.028 38.886-20.202 41.915-41.913-.998 1.159-2.29 2.132-3.881 2.81Zm-53.016 35.219-2.594-6.078a50.364 50.364 0 0 0-26.548-26.545l-6.081-2.596c-1.591-.679-2.884-1.652-3.881-2.811C15.028 87.798 32.202 104.972 53.915 108c-1.157-.997-2.13-2.292-2.812-3.883Z" fill="#A6A6A6"/><path d="m38.56 55.377 2.904-1.24a24.057 24.057 0 0 0 12.68-12.678l1.24-2.905c1.736-4.068 7.504-4.068 9.24 0l1.24 2.905a24.058 24.058 0 0 0 12.68 12.677l2.905 1.24c4.068 1.737 4.068 7.502 0 9.24l-2.905 1.24a24.054 24.054 0 0 0-12.68 12.679l-1.24 2.902c-1.736 4.068-7.504 4.068-9.24 0l-1.24-2.902a24.052 24.052 0 0 0-12.68-12.68l-2.905-1.24c-4.068-1.737-4.068-7.502 0-9.238Z" fill="#fff"/></svg>
