<svg xmlns="http://www.w3.org/2000/svg" xmlns:xlink="http://www.w3.org/1999/xlink" width="30" height="30" viewBox="0 0 30 30"><defs><linearGradient id="a" x1=".907" x2=".163" y1=".227" y2=".853" gradientUnits="objectBoundingBox"><stop offset="0" stop-color="#b6509e"/><stop offset="1" stop-color="#2ebac6"/></linearGradient><linearGradient id="b" x1=".699" x2=".059" y1=".251" y2="1" xlink:href="#a"/></defs><circle cx="15" cy="15" r="15" fill="url(#a)"/><path fill="#fff" d="M23.46 7.651l-8.229-2.469a.614.614 0 00-.353 0L6.649 7.651a.615.615 0 00-.438.589v9.052a5.847 5.847 0 001.417 3.582 14.645 14.645 0 002.952 2.734 26.482 26.482 0 004.224 2.473.614.614 0 00.5 0 26.485 26.485 0 004.224-2.473 14.646 14.646 0 002.952-2.734 5.846 5.846 0 001.417-3.582V8.239a.614.614 0 00-.437-.588z"/><path fill="url(#b)" d="M12.352 10.146L8.454.725A1.048 1.048 0 007.477 0h-.345a1.048 1.048 0 00-.977.725l-1.7 4.1H3.177a.7.7 0 00-.7.7v.01a.7.7 0 00.7.7h.69l-1.619 3.911a.826.826 0 00-.048.267.737.737 0 00.192.525.672.672 0 00.517.2.7.7 0 00.4-.134.85.85 0 00.278-.353L5.37 6.232h1.235a.7.7 0 00.7-.7v-.015a.7.7 0 00-.7-.7h-.66L7.3 1.432l3.706 9.22a.85.85 0 00.278.353.7.7 0 00.4.134.672.672 0 00.517-.2.737.737 0 00.192-.525.631.631 0 00-.041-.268z" transform="translate(7.761 8.906)"/></svg>