<svg xmlns="http://www.w3.org/2000/svg" width="24" height="24" fill="none"><g clip-path="url(#a)"><path d="M12.5 25C19.404 25 25 19.404 25 12.5S19.404 0 12.5 0 0 5.596 0 12.5 5.596 25 12.5 25z" fill="url(#b)"/><path d="m19.55 6.376-6.857-2.057a.51.51 0 0 0-.294 0L5.541 6.376a.516.516 0 0 0-.365.491v7.543a4.87 4.87 0 0 0 1.181 2.985 12.175 12.175 0 0 0 2.46 2.278 22.06 22.06 0 0 0 3.52 2.061.51.51 0 0 0 .417 0 22.06 22.06 0 0 0 3.52-2.061 12.2 12.2 0 0 0 2.46-2.278 4.87 4.87 0 0 0 1.181-2.985V6.866a.51.51 0 0 0-.364-.49z" fill="#fff"/><path d="m16.761 15.877-3.248-7.851a.87.87 0 0 0-.814-.604h-.287a.872.872 0 0 0-.814.604l-1.417 3.417H9.115a.586.586 0 0 0-.583.583v.008a.586.586 0 0 0 .583.583h.575l-1.349 3.259a.69.69 0 0 0-.04.223.617.617 0 0 0 .16.438.56.56 0 0 0 .431.167.58.58 0 0 0 .333-.112.71.71 0 0 0 .232-.294l1.486-3.682h1.029a.587.587 0 0 0 .223-.044.58.58 0 0 0 .316-.316.59.59 0 0 0 .044-.223v-.013a.583.583 0 0 0-.583-.583h-.55l1.129-2.821 3.088 7.683a.71.71 0 0 0 .232.294.58.58 0 0 0 .333.112.56.56 0 0 0 .431-.167.613.613 0 0 0 .16-.437.53.53 0 0 0-.034-.223z" fill="url(#c)"/></g><defs><linearGradient id="b" x1="22.675" y1="5.675" x2="4.075" y2="21.325" gradientUnits="userSpaceOnUse"><stop stop-color="#b6509e"/><stop offset="1" stop-color="#2ebac6"/></linearGradient><linearGradient id="c" x1="14.239" y1="9.752" x2="8.238" y2="16.179" gradientUnits="userSpaceOnUse"><stop stop-color="#b6509e"/><stop offset="1" stop-color="#2ebac6"/></linearGradient><clipPath id="a"><path fill="#fff" d="M0 0h25v25H0z"/></clipPath></defs></svg>
