<svg width="36" height="36" viewBox="0 0 36 36" fill="none" xmlns="http://www.w3.org/2000/svg"><g clip-path="url(#a)"><g clip-path="url(#b)"><path d="M18 36c9.941 0 18-8.059 18-18S27.941 0 18 0 0 8.059 0 18s8.059 18 18 18Z" fill="#fff"/><path d="M17.973 36V10.06c-2.178-.008-3.937-.6-3.937-1.33 0-.542.974-1.01 2.37-1.216a8.16 8.16 0 0 0 1.608.153 8.205 8.205 0 0 0 1.573-.145l.036-.008c1.396.207 2.37.674 2.37 1.216 0 .723-1.728 1.312-3.88 1.33V36h-.14ZM14.83 6.337c0-.47.912-.869 2.176-1.01a6.479 6.479 0 0 0 1.981.006l.033-.006c1.264.141 2.176.54 2.176 1.01 0 .587-1.425 1.063-3.183 1.063-1.758 0-3.183-.476-3.183-1.063Zm.796-1.941c0-.44 1.068-.797 2.387-.797 1.318 0 2.387.357 2.387.797 0 .44-1.07.798-2.387.798-1.319 0-2.387-.358-2.387-.798Zm2.345-.872V.01h.141v3.514h-.14Z" fill="#000"/><path d="M17.995 36a17.898 17.898 0 0 1-10.061-3.073 18.048 18.048 0 0 1-6.52-7.917 17.905 17.905 0 0 1-1.048-3.378 18.17 18.17 0 0 1 0-7.254 17.897 17.897 0 0 1 2.707-6.434 18.048 18.048 0 0 1 7.918-6.52A17.96 17.96 0 0 1 14.369.375a18.17 18.17 0 0 1 7.253 0 17.896 17.896 0 0 1 6.435 2.708A18.048 18.048 0 0 1 34.577 11c.46 1.089.81 2.22 1.048 3.378a18.17 18.17 0 0 1 0 7.253 17.897 17.897 0 0 1-2.708 6.435A18.048 18.048 0 0 1 25 34.586 17.894 17.894 0 0 1 17.995 36Zm0-34.584A16.499 16.499 0 0 0 8.72 4.249a16.638 16.638 0 0 0-6.01 7.298 16.508 16.508 0 0 0-.967 3.114 16.73 16.73 0 0 0 0 6.687 16.498 16.498 0 0 0 2.496 5.932 16.639 16.639 0 0 0 7.298 6.01c1.004.425 2.047.748 3.114.967 2.207.45 4.481.45 6.687 0a16.499 16.499 0 0 0 5.932-2.496 16.638 16.638 0 0 0 6.01-7.299c.425-1.003.749-2.046.967-3.113a16.73 16.73 0 0 0 0-6.687 16.498 16.498 0 0 0-2.496-5.932 16.638 16.638 0 0 0-7.298-6.01 16.509 16.509 0 0 0-6.458-1.304Z" fill="url(#c)"/><g clip-path="url(#d)"><path d="M31.64 20.672a5.625 5.625 0 1 0-11.25 0 5.625 5.625 0 0 0 11.25 0Z" fill="#00A3FF"/><path opacity=".6" d="m28.323 20.273.063.096a2.713 2.713 0 0 1-.381 3.43 2.832 2.832 0 0 1-1.988.808l2.306-4.334Z" fill="#fff"/><path opacity=".2" d="m26.017 21.59 2.306-1.317-2.306 4.334V21.59Z" fill="#fff"/><path d="m23.708 20.273-.063.096a2.713 2.713 0 0 0 .382 3.43 2.832 2.832 0 0 0 1.987.808l-2.306-4.334Z" fill="#fff"/><path opacity=".6" d="m26.014 21.59-2.306-1.317 2.306 4.334V21.59Z" fill="#fff"/><path opacity=".2" d="M26.018 18.646v2.273l1.986-1.136-1.986-1.137Z" fill="#fff"/><path opacity=".6" d="m26.017 18.646-1.988 1.137 1.988 1.136v-2.273Z" fill="#fff"/><path d="m26.017 16.736-1.988 3.049 1.988-1.14v-1.909Z" fill="#fff"/><path opacity=".6" d="m26.018 18.644 1.988 1.14-1.988-3.05v1.91Z" fill="#fff"/></g><path d="M9.692 26.303a5.625 5.625 0 1 0 0-11.25 5.625 5.625 0 0 0 0 11.25Z" fill="url(#e)"/><path d="M12.153 22.919 10.25 18.32a.512.512 0 0 0-.476-.354h-.17a.512.512 0 0 0-.476.354l-.827 2.003h-.626a.342.342 0 0 0-.341.34v.005a.342.342 0 0 0 .34.34h.337l-.79 1.91a.404.404 0 0 0-.023.13.36.36 0 0 0 .094.256.326.326 0 0 0 .252.099.349.349 0 0 0 .197-.065.414.414 0 0 0 .136-.173l.868-2.157h.603a.343.343 0 0 0 .342-.34v-.01a.342.342 0 0 0-.342-.34h-.322l.664-1.653 1.809 4.5a.414.414 0 0 0 .135.172.341.341 0 0 0 .197.065.328.328 0 0 0 .253-.098.36.36 0 0 0 .093-.256.308.308 0 0 0-.024-.13Z" fill="#fff"/></g></g><defs><clipPath id="a"><path fill="#fff" d="M0 0h36v36H0z"/></clipPath><clipPath id="b"><path fill="#fff" d="M0 0h36v36H0z"/></clipPath><clipPath id="d"><path fill="#fff" transform="translate(20.39 15.047)" d="M0 0h11.25v11.25H0z"/></clipPath><linearGradient id="c" x1="31.96" y1="7.172" x2="17.995" y2="36" gradientUnits="userSpaceOnUse"><stop stop-color="#B6509E"/><stop offset="1" stop-color="#2EBAC6"/></linearGradient><linearGradient id="e" x1="14.271" y1="17.607" x2="5.901" y2="24.649" gradientUnits="userSpaceOnUse"><stop stop-color="#B6509E"/><stop offset="1" stop-color="#2EBAC6"/></linearGradient></defs></svg>
