<svg width="200" height="200" viewBox="0 0 200 200" fill="none" xmlns="http://www.w3.org/2000/svg"><rect width="200" height="200" rx="100" fill="#28D358" style="fill:color(display-p3 .1585 .8276 .3459);fill-opacity:1"/><path d="M100 183c45.84 0 83-37.16 83-83s-37.16-83-83-83-83 37.16-83 83 37.16 83 83 83Z" fill="#fff" style="fill:#fff;fill-opacity:1"/><path d="M69.478 89.166c0 7.464 6.048 13.512 13.513 13.512 7.464 0 13.512-6.048 13.512-13.512 0-7.465-6.048-13.513-13.512-13.513-7.465 0-13.513 6.048-13.513 13.513Zm34.058 0c0 7.464 6.048 13.512 13.512 13.512 7.465 0 13.513-6.048 13.513-13.512 0-7.465-6.048-13.513-13.513-13.513-7.464 0-13.512 6.048-13.512 13.513Z" fill="#28D358" style="fill:color(display-p3 .1585 .8276 .3459);fill-opacity:1"/><path d="M164.037 152.81v-46.054h-17.374c-3.514 23.229-22.676 40.15-46.663 40.15-26.505 0-47.68-20.656-47.68-47.664 0-27.008 21.175-48.052 47.685-48.052 23.108 0 42.153 15.997 46.669 37.987h17.374C159.295 57.913 132.016 33.97 100 33.97c-35.375 0-64.048 29.227-64.048 65.265 0 36.039 28.673 65.266 64.048 65.266 22.261 0 37.782-10.309 47.304-26.543.227.066.46.116.675.182v29.593a83.223 83.223 0 0 0 16.058-14.929v.005Z" fill="#28D358" style="fill:color(display-p3 .1585 .8276 .3459);fill-opacity:1"/></svg>
