<svg width="24" height="24" viewBox="0 0 24 24" fill="none" xmlns="http://www.w3.org/2000/svg"><path d="M12 0c6.627 0 12 5.373 12 12s-5.373 12-12 12S0 18.629 0 12 5.372 0 12 0Z" fill="#fff"/><path d="M15.984 9.277a.998.998 0 0 0-.996 0l-2.285 1.362-1.553.887-2.286 1.362a.998.998 0 0 1-.996 0L6.05 11.822a1.022 1.022 0 0 1-.498-.858V8.863a.961.961 0 0 1 .498-.859l1.79-1.036a.998.998 0 0 1 .996 0l1.787 1.036a1.023 1.023 0 0 1 .498.859v1.361l1.553-.917V7.945a.961.961 0 0 0-.498-.858L8.864 5.133a.998.998 0 0 0-.996 0l-3.37 1.954A.961.961 0 0 0 4 7.945v3.937a.961.961 0 0 0 .498.858l3.37 1.953a.998.998 0 0 0 .996 0l2.285-1.332 1.554-.917 2.285-1.332a.997.997 0 0 1 .996 0l1.787 1.036a1.022 1.022 0 0 1 .499.858v2.102a.961.961 0 0 1-.498.858l-1.788 1.066a.998.998 0 0 1-.996 0l-1.787-1.036a1.022 1.022 0 0 1-.498-.859v-1.361l-1.553.917v1.362a.96.96 0 0 0 .498.858l3.37 1.954a.998.998 0 0 0 .995 0l3.37-1.954a1.023 1.023 0 0 0 .498-.858v-3.937a.962.962 0 0 0-.498-.858l-3.399-1.983Z" fill="url(#a)"/><defs><linearGradient id="a" x1="19.881" y1="4.999" x2="2.946" y2="17.549" gradientUnits="userSpaceOnUse"><stop stop-color="#00A3FF"/><stop offset="1" stop-color="#3ADCFF"/></linearGradient></defs></svg>
