<svg xmlns="http://www.w3.org/2000/svg" width="24" height="24" fill="none"><g clip-path="url(#a)"><path d="M12.5.033c6.903 0 12.5 5.597 12.5 12.5s-5.597 12.5-12.5 12.5a12.5 12.5 0 1 1 0-25z" fill="#fff"/><path d="M16.65 9.697a1.04 1.04 0 0 0-1.037 0l-2.38 1.419-1.618.924-2.381 1.419a1.04 1.04 0 0 1-1.037 0l-1.894-1.11a1.067 1.067 0 0 1-.519-.894V9.266a1 1 0 0 1 .519-.895l1.865-1.079a1.04 1.04 0 0 1 1.037 0l1.861 1.079a1.075 1.075 0 0 1 .519.895v1.418l1.618-.955v-1.42a1 1 0 0 0-.519-.894L9.233 5.38a1.04 1.04 0 0 0-1.037 0l-3.51 2.035a1 1 0 0 0-.519.894v4.101a1 1 0 0 0 .519.894l3.51 2.034a1.04 1.04 0 0 0 1.037 0l2.38-1.387 1.619-.955 2.38-1.387a1.04 1.04 0 0 1 1.037 0l1.862 1.079a1.07 1.07 0 0 1 .52.894v2.19a1 1 0 0 1-.519.894l-1.863 1.11a1.04 1.04 0 0 1-1.037 0l-1.862-1.079a1.058 1.058 0 0 1-.518-.895v-1.418l-1.618.955v1.419a1 1 0 0 0 .519.894l3.511 2.035a1.04 1.04 0 0 0 1.036 0l3.51-2.035a1.075 1.075 0 0 0 .519-.894v-4.101a1 1 0 0 0-.519-.894l-3.54-2.066z" fill="url(#b)"/></g><defs><linearGradient id="b" x1="20.709" y1="5.241" x2="3.069" y2="18.314" gradientUnits="userSpaceOnUse"><stop stop-color="#00a3ff"/><stop offset="1" stop-color="#3adcff"/></linearGradient><clipPath id="a"><path fill="#fff" transform="translate(0 .033)" d="M0 0h25v25H0z"/></clipPath></defs></svg>
