<svg xmlns="http://www.w3.org/2000/svg" width="24" height="24" fill="none"><g clip-path="url(#a)"><g fill="#fff"><path d="M12.5 25C19.404 25 25 19.404 25 12.5S19.404 0 12.5 0 0 5.596 0 12.5 5.596 25 12.5 25z"/><g fill-rule="evenodd"><path d="m21.307 15.114-3.504 4.884c-.551.776-1.62 1.149-3.01 1.035-1.793-.148-4.17-1.096-6.449-2.73s-3.94-3.583-4.664-5.232c-.551-1.278-.543-2.407.016-3.183l3.496-4.884c.559-.776 1.629-1.149 3.01-1.035 1.793.148 4.178 1.096 6.457 2.731s3.94 3.582 4.655 5.231c.559 1.278.543 2.407-.008 3.183zM8.13 5.675c.362-.502 1.086-.632 1.982-.558 1.637.135 3.792 1.026 5.873 2.518s3.619 3.249 4.277 4.754c.354.825.469 1.552.107 2.054l-3.504 4.884c-.354.501-1.078.632-1.974.557-1.637-.134-3.8-1.026-5.881-2.518s-3.619-3.25-4.269-4.754c-.362-.826-.469-1.553-.107-2.054L8.13 5.675z"/><path d="M7.669 5.458c1.143-1.596 5.017-.776 8.653 1.828s5.659 6.016 4.516 7.611l-3.496 4.884c-1.143 1.596-5.026.776-8.661-1.828s-5.659-6.015-4.515-7.611L7.67 5.458z"/></g></g><path fill-rule="evenodd" d="M7.417 5.162c.509-.712 1.492-1.026 2.763-.924 1.755.144 4.077 1.085 6.315 2.679 2.229 1.602 3.865 3.509 4.561 5.12.509 1.17.526 2.204.017 2.916l-3.492 4.883c-.509.712-1.5 1.026-2.763.924-1.755-.153-4.086-1.085-6.315-2.687-2.238-1.594-3.865-3.501-4.569-5.111-.509-1.17-.525-2.204-.017-2.916l3.501-4.883zm13.173 9.435c.407-.559.322-1.39-.076-2.323-.67-1.534-2.238-3.34-4.374-4.866-2.128-1.526-4.34-2.433-6.01-2.568-1.017-.085-1.822.102-2.229.67l-.017.034c-.381.568-.297 1.373.102 2.289.67 1.543 2.238 3.348 4.365 4.874s4.34 2.433 6.01 2.569c1 .076 1.788-.102 2.204-.636l.026-.042zM15.147 8.79c1.068.763 1.856 1.67 2.187 2.441.195.432.246.814.051 1.077-.186.263-.568.339-1.034.297-.839-.068-1.941-.526-3.009-1.288s-1.856-1.661-2.187-2.433c-.186-.432-.237-.814-.051-1.076s.568-.339 1.043-.305c.831.076 1.941.526 3.001 1.288z" fill="#0e0f23"/><path d="m21.215 12.446-.16-.409c-.695-1.61-2.331-3.518-4.56-5.12-2.238-1.594-4.56-2.534-6.315-2.679-1.271-.102-2.255.212-2.763.924l-3.501 4.883c-.509.712-.492 1.746.017 2.916.465 1.064 1.333 2.258 2.515 3.405a2.68 2.68 0 0 0 .312-.049c.629-.14 1.233-.699 1.834-1.255.775-.717 1.546-1.43 2.362-1.238.572.127 1.026.731 1.493 1.35l.609.761c.678.784 1.424 1.126 2.178.965.863-.17 1.519-.927 2.13-1.782-1.504-.341-3.288-1.172-5.016-2.411-2.128-1.526-3.696-3.331-4.365-4.874-.398-.916-.483-1.721-.102-2.289L7.9 5.51c.407-.568 1.212-.754 2.229-.67 1.67.136 3.882 1.043 6.01 2.568 2.133 1.524 3.7 3.326 4.371 4.859l.1.008c.241.026.439.085.605.17z" fill="url(#b)"/><path d="M17.334 11.231c-.331-.771-1.119-1.678-2.187-2.441-1.06-.763-2.17-1.212-3.001-1.288-.475-.034-.856.042-1.043.305s-.136.644.051 1.076c.331.771 1.119 1.67 2.187 2.433s2.17 1.221 3.009 1.288c.466.042.848-.034 1.034-.297.195-.263.144-.644-.051-1.077z" fill="url(#b)"/><path fill-rule="evenodd" d="M17.518 15.945c.661.11 1.271.136 1.78.051a.131.131 0 0 0 .11-.144c-.017-.068-.076-.119-.144-.11-.492.085-1.068.059-1.704-.051-.068-.008-.136.042-.144.11s.034.136.102.144zm-1-.22.5.119c.068.017.136-.025.144-.093a.128.128 0 0 0-.015-.095c-.009-.014-.02-.027-.034-.036s-.029-.017-.045-.021l-.483-.119c-.068-.025-.144.017-.161.085s.025.136.093.161zM7.049 7.697c.475 1.941 2.34 3.755 3.84 5.044a.123.123 0 0 0 .178-.008c.042-.059.042-.136-.017-.178-1.458-1.263-3.289-3.026-3.747-4.916-.017-.068-.093-.11-.161-.093-.016.004-.031.011-.045.021s-.025.022-.033.036-.014.03-.017.046-.002.033.002.049zm-.11-.78c0 .085.009.178.017.263.008.068.076.119.144.11s.119-.068.11-.136l-.017-.246c0-.076-.059-.127-.136-.127-.033.004-.063.021-.085.045s-.034.057-.034.09z" fill="#fff"/></g><defs><linearGradient id="b" x1="10.532" y1="4.213" x2="12.897" y2="16.123" gradientUnits="userSpaceOnUse"><stop stop-color="#27b0e6"/><stop offset=".52" stop-color="#c26bb3"/><stop offset="1" stop-color="#fa52a0"/></linearGradient><clipPath id="a"><path fill="#fff" d="M0 0h25v25H0z"/></clipPath></defs></svg>
