<svg width="256" height="256" viewBox="0 0 256 256" fill="none" xmlns="http://www.w3.org/2000/svg"><path d="M128 256c70.692 0 128-57.308 128-128C256 57.308 198.692 0 128 0 57.308 0 0 57.307 0 128c0 70.692 57.307 128 128 128Z" fill="#fff"/><path fill-rule="evenodd" clip-rule="evenodd" d="m218.182 154.764-35.879 50.013c-5.643 7.942-16.592 11.766-30.826 10.595-18.361-1.516-42.703-11.219-66.033-27.954-23.33-16.744-40.343-36.688-47.755-53.575-5.643-13.089-5.56-24.644.168-32.595l35.796-50.013c5.727-7.943 16.676-11.766 30.826-10.596 18.361 1.516 42.786 11.228 66.116 27.963 23.33 16.736 40.343 36.68 47.671 53.567 5.727 13.089 5.559 24.652-.084 32.595ZM83.255 58.108c3.706-5.138 11.117-6.468 20.297-5.71 16.761 1.38 38.828 10.51 60.137 25.789 21.309 15.27 37.059 33.269 43.797 48.682 3.622 8.448 4.8 15.893 1.094 21.031l4.802 3.428-4.802-3.428-35.879 50.012c-3.622 5.129-11.034 6.469-20.214 5.702-16.761-1.373-38.912-10.511-60.221-25.781-21.309-15.278-37.06-33.277-43.713-48.682-3.706-8.456-4.8-15.901-1.094-21.031l35.796-50.012Z" fill="#fff"/><path fill-rule="evenodd" clip-rule="evenodd" d="M78.528 55.887c11.707-16.34 51.376-7.951 88.603 18.715 37.228 26.673 57.947 61.601 46.24 77.941l-35.795 50.013c-11.708 16.339-51.462 7.95-88.69-18.723-37.227-26.674-57.945-61.594-46.238-77.934l35.88-50.012Z" fill="#fff"/><path fill-rule="evenodd" clip-rule="evenodd" d="M75.945 52.86c5.208-7.29 15.276-10.502 28.296-9.46 17.968 1.476 41.751 11.11 64.666 27.429 22.829 16.405 39.582 35.935 46.7 52.427 5.208 11.979 5.381 22.568.173 29.859l-35.761 49.997c-5.208 7.291-15.364 10.503-28.297 9.461-17.968-1.562-41.838-11.11-64.666-27.515-22.915-16.318-39.581-35.849-46.786-52.341-5.208-11.979-5.38-22.568-.173-29.859l35.848-49.997Zm134.888 96.696v-.086c4.166-5.729 3.298-14.236-.782-23.784-6.857-15.71-22.915-34.2-44.788-49.823-21.787-15.624-44.442-24.912-61.542-26.3-10.416-.868-18.661 1.041-22.828 6.857l-.174.347c-3.906 5.815-3.037 14.061 1.043 23.436 6.857 15.797 22.915 34.286 44.702 49.91 21.786 15.624 44.44 24.912 61.54 26.301 10.242.781 18.314-1.042 22.568-6.51l.261-.434v.086Zm-55.725-59.544c10.936 7.812 19.008 17.099 22.393 24.998 1.996 4.427 2.517 8.333.52 11.024-1.909 2.691-5.814 3.472-10.588 3.038-8.594-.694-19.878-5.382-30.814-13.194-10.937-7.812-19.01-17.013-22.396-24.912-1.909-4.426-2.43-8.333-.52-11.023 1.91-2.691 5.816-3.472 10.677-3.125 8.506.781 19.878 5.382 30.728 13.194Z" fill="#0E0F23"/><path d="M217.242 127.443a58.053 58.053 0 0 0-1.636-4.187c-7.117-16.492-23.871-36.022-46.699-52.427-22.915-16.319-46.698-25.953-64.666-27.429-13.02-1.041-23.089 2.17-28.297 9.46l-35.847 49.998c-5.208 7.291-5.035 17.88.173 29.859 4.76 10.898 13.653 23.124 25.75 34.872a27.374 27.374 0 0 0 3.198-.506c6.444-1.439 12.623-7.157 18.777-12.852 7.936-7.344 15.828-14.648 24.189-12.676 5.854 1.302 10.509 7.482 15.289 13.827 2.024 2.686 4.069 5.402 6.238 7.79 6.944 8.03 14.582 11.529 22.307 9.882 8.836-1.74 15.558-9.495 21.811-18.247-15.4-3.492-33.669-12.003-51.366-24.694C104.676 114.489 88.618 96 81.761 80.203c-4.08-9.375-4.949-17.62-1.043-23.436l.175-.347c4.166-5.816 12.411-7.725 22.827-6.857 17.1 1.388 39.755 10.676 61.542 26.3 21.844 15.603 37.888 34.063 44.761 49.76.339.016.681.042 1.026.078 2.464.263 4.491.868 6.193 1.742Z" fill="url(#a)"/><path d="M177.501 115.01c-3.386-7.899-11.457-17.186-22.394-24.998-10.85-7.812-22.221-12.413-30.727-13.194-4.861-.347-8.768.434-10.678 3.125-1.909 2.69-1.389 6.597.521 11.023 3.385 7.9 11.458 17.1 22.395 24.912 10.937 7.812 22.221 12.5 30.814 13.194 4.774.434 8.679-.347 10.589-3.038 1.996-2.691 1.476-6.597-.52-11.024Z" fill="url(#b)"/><path fill-rule="evenodd" clip-rule="evenodd" d="M179.38 163.276c6.771 1.129 13.02 1.39 18.228.522.695-.087 1.216-.782 1.13-1.476-.174-.694-.783-1.215-1.477-1.128-5.034.868-10.937.607-17.447-.522-.694-.086-1.388.434-1.474 1.129-.087.694.346 1.389 1.04 1.475Zm-10.243-2.256c1.736.434 3.386.868 5.122 1.215.694.173 1.39-.26 1.477-.955a1.295 1.295 0 0 0-.957-1.562c-1.649-.347-3.297-.782-4.947-1.216-.694-.26-1.475.174-1.649.868-.174.695.26 1.39.954 1.65Zm-96.955-82.2c4.861 19.877 23.958 38.453 39.321 51.646.521.521 1.389.435 1.823-.086.434-.608.433-1.39-.175-1.824-14.93-12.933-33.677-30.987-38.365-50.344-.173-.694-.955-1.128-1.65-.954a1.294 1.294 0 0 0-.954 1.562Zm-1.129-7.986c0 .868.088 1.824.175 2.692.087.694.78 1.215 1.475 1.128.694-.087 1.216-.695 1.129-1.39-.087-.867-.175-1.735-.175-2.516 0-.781-.607-1.302-1.388-1.302a1.403 1.403 0 0 0-1.216 1.388Z" fill="#fff"/><defs><linearGradient id="a" x1="107.844" y1="43.143" x2="132.068" y2="165.096" gradientUnits="userSpaceOnUse"><stop stop-color="#27B0E6"/><stop offset=".52" stop-color="#C26BB3"/><stop offset="1" stop-color="#FA52A0"/></linearGradient><linearGradient id="b" x1="107.844" y1="43.143" x2="132.068" y2="165.096" gradientUnits="userSpaceOnUse"><stop stop-color="#27B0E6"/><stop offset=".52" stop-color="#C26BB3"/><stop offset="1" stop-color="#FA52A0"/></linearGradient></defs></svg>
