<svg width="301" height="301" viewBox="0 0 301 301" fill="none" xmlns="http://www.w3.org/2000/svg"><path d="M.617 150.05C.617 67.18 67.797.002 150.665.002c82.87 0 150.049 67.179 150.049 150.048s-67.179 150.048-150.049 150.048C67.796 300.098.617 232.919.617 150.05Z" fill="#FC7A4A"/><path fill-rule="evenodd" clip-rule="evenodd" d="M168.691 163.02v-.019c-1.031.075-6.348.394-18.212.394-9.471 0-16.139-.281-18.484-.394v.028c-36.461-1.603-63.676-7.952-63.676-15.548 0-7.587 27.215-13.936 63.676-15.568v24.796c2.382.168 9.209.572 18.644.572 11.319 0 16.993-.469 18.052-.563v-24.786c36.387 1.622 63.536 7.971 63.536 15.549 0 7.596-27.149 13.926-63.536 15.539Zm0-33.667v-22.189h50.773V73.329H81.223v33.835h50.772v22.179C90.732 131.238 59.7 139.415 59.7 149.206s31.032 17.959 72.295 19.863v71.104h36.696V169.05c41.198-1.894 72.155-10.063 72.155-19.844s-30.957-17.949-72.155-19.853" fill="#fff"/></svg>
