<svg width="301" height="301" viewBox="0 0 301 301" fill="none" xmlns="http://www.w3.org/2000/svg"><path d="M0 150.05C0 67.18 67.179.002 150.048.002c82.87 0 150.048 67.179 150.048 150.048s-67.178 150.048-150.048 150.048S0 232.919 0 150.05Z" fill="#FC7A4A"/><path d="M191.312 173.807c0-21.882-13.13-29.384-39.388-32.51-18.756-2.501-22.507-7.502-22.507-16.256 0-8.754 6.252-14.379 18.756-14.379 11.253 0 17.506 3.751 20.631 13.129.626 1.876 2.502 3.126 4.377 3.126h10.003c2.501 0 4.376-1.876 4.376-4.376v-.625c-2.501-13.755-13.754-24.383-28.134-25.633V81.278c0-2.501-1.875-4.377-5.001-5.003h-9.378c-2.501 0-4.377 1.876-5.002 5.003v14.38c-18.756 2.5-30.634 15.004-30.634 30.635 0 20.631 12.503 28.758 38.762 31.885 17.506 3.125 23.133 6.877 23.133 16.88 0 10.004-8.754 16.881-20.632 16.881-16.256 0-21.883-6.879-23.758-16.257-.625-2.499-2.5-3.751-4.376-3.751h-10.629c-2.5 0-4.376 1.876-4.376 4.377v.626c2.5 15.629 12.504 26.883 33.135 30.01v15.004c0 2.5 1.876 4.376 5.002 5.001h9.378c2.501 0 4.376-1.875 5.002-5.001v-15.004c18.756-3.127 31.26-16.257 31.26-33.137Z" fill="#fff"/><path d="M118.163 239.453c-48.766-17.505-73.774-71.897-55.642-120.039 9.378-26.258 30.01-46.264 55.642-55.642 2.502-1.25 3.751-3.125 3.751-6.252v-8.753c0-2.501-1.249-4.377-3.751-5-.625 0-1.875 0-2.501.623-59.394 18.756-91.905 81.903-73.149 141.296 11.254 35.011 38.138 61.895 73.149 73.149 2.501 1.25 5.003 0 5.627-2.502.625-.624.625-1.25.625-2.499v-8.754c0-1.876-1.875-4.376-3.751-5.627ZM184.435 44.39c-2.501-1.25-5.003 0-5.627 2.502-.626.625-.626 1.25-.626 2.5v8.753c0 2.502 1.876 5.001 3.752 6.253 48.765 17.504 73.774 71.897 55.642 120.038-9.378 26.259-30.01 46.265-55.642 55.643-2.502 1.25-3.752 3.125-3.752 6.252v8.752c0 2.502 1.25 4.377 3.752 5.002.625 0 1.875 0 2.501-.625 59.394-18.756 91.905-81.902 73.149-141.295-11.254-35.637-38.764-62.521-73.149-73.775Z" fill="#fff"/></svg>
