<svg xmlns="http://www.w3.org/2000/svg" viewBox="0 0 400 400" style="enable-background:new 0 0 400 400" xml:space="preserve"><style>.st0{fill:#007fed}.st4{fill:#008ca3}</style><path class="st0" d="m200 358.7-46-102.5-46.1-27.2z"/><linearGradient id="SVGID_1_" gradientUnits="userSpaceOnUse" x1="200" y1="293.85" x2="292.1" y2="293.85"><stop offset="0" style="stop-color:#0069e0"/><stop offset=".985" style="stop-color:#0069e0"/></linearGradient><path style="fill:url(#SVGID_1_)" d="M292.1 229 200 358.7l46-102.5 46.1-27.2"/><path d="M154 265.9zm46-54.4z" style="fill:#393939"/><linearGradient id="SVGID_2_" gradientUnits="userSpaceOnUse" x1="200" y1="296.5" x2="200" y2="214.8"><stop offset=".25" style="stop-color:#00a5e6"/><stop offset="1" style="stop-color:#0098e6"/></linearGradient><path style="fill:url(#SVGID_2_)" d="M200 174.5 107.9 229l46.1 27.2 46-27.2 46 27.2 46.1-27.2z"/><path class="st4" d="M200 194.1V41.3l-46 180z"/><path d="M200 194.1V41.3l46 180zm-92.1 0L200 41.3l-46 180z" style="fill:#28acac"/><path class="st4" d="M292.1 194.1 200 41.3l46 180 46.1-27.2"/><linearGradient id="SVGID_3_" gradientUnits="userSpaceOnUse" x1="154" y1="293.85" x2="200" y2="293.85"><stop offset="0" style="stop-color:#0069e0"/><stop offset=".985" style="stop-color:#0069e0"/></linearGradient><path style="fill:url(#SVGID_3_)" d="m200 358.7-46-102.5 46-27.2z"/><path class="st0" d="m200 358.7 46-102.5-46-27.2z"/><linearGradient id="SVGID_4_" gradientUnits="userSpaceOnUse" x1="200" y1="221.3" x2="200" y2="139.6"><stop offset="0" style="stop-color:#00a5e6;stop-opacity:.8"/><stop offset=".6" style="stop-color:#42e4ae;stop-opacity:.6"/></linearGradient><path style="fill:url(#SVGID_4_)" d="m200 139.6-92.1 54.5 46.1 27.2 46-27.2 46 27.2 46.1-27.2z"/></svg>
