<svg xmlns="http://www.w3.org/2000/svg" width="24" height="24" fill="none"><g clip-path="url(#a)"><path d="M12.5 25C19.404 25 25 19.404 25 12.5S19.404 0 12.5 0 0 5.596 0 12.5 5.596 25 12.5 25z" fill="#178dd0"/><path d="M5.859 6.648c0-1.134.852-2.086 1.983-2.17l4.658-.181 4.658.181c1.132.084 1.983 1.036 1.983 2.17 0 1.128-.841 2.075-1.966 2.159l-4.675.177-4.675-.177C6.7 8.723 5.859 7.777 5.859 6.648zm-.029 6.339a1.31 1.31 0 0 1 .483-.895 1.31 1.31 0 0 1 .978-.28l.905.111c.302.041.578.104.826.18 1.053.319 1.525 1.415 1.525 2.516v4.523a1.17 1.17 0 0 1-1.172 1.17H7.914c-1.109 0-2.049-.789-2.146-1.893a27.697 27.697 0 0 1 .063-5.432zm13.144 0a1.31 1.31 0 0 0-.483-.895 1.31 1.31 0 0 0-.978-.28l-.905.111a5.214 5.214 0 0 0-.826.18c-1.053.319-1.525 1.415-1.525 2.516v4.523a1.17 1.17 0 0 0 1.172 1.17h1.461c1.109 0 2.049-.789 2.145-1.893a27.62 27.62 0 0 0-.062-5.432z" fill="#fff"/></g><defs><clipPath id="a"><path fill="#fff" d="M0 0h25v25H0z"/></clipPath></defs></svg>
