<svg xmlns="http://www.w3.org/2000/svg" width="24" height="24" fill="none"><g clip-path="url(#a)"><path d="M12.5 25C5.625 25 0 19.375 0 12.5S5.625 0 12.5 0 25 5.625 25 12.5 19.375 25 12.5 25z" fill="#002868"/><path d="M18.8 20H6.2c-.66 0-1.2-.54-1.2-1.2V6.2C5 5.54 5.54 5 6.2 5h12.6c.66 0 1.2.54 1.2 1.2v12.6c0 .66-.54 1.2-1.2 1.2z" fill="#fff"/><path d="M7.927 18.49c-.04 0-.072-.036-.072-.075V16.4c0-.04-.032-.076-.071-.076h-.711a.074.074 0 0 1-.075-.072v-.389c0-.04.036-.075.075-.075h2.19c.039 0 .075.035.075.075v.389c0 .04-.036.072-.075.072h-.708a.079.079 0 0 0-.075.076v2.015c0 .04-.032.075-.071.075h-.481zm3.597-2.627c0-.04.032-.075.072-.075h.477c.04 0 .075.035.075.075v1.375c0 .815-.461 1.288-1.192 1.288s-1.184-.473-1.184-1.288v-1.375c0-.04.032-.075.072-.075h.477c.04 0 .075.035.075.075v1.395c0 .401.207.688.565.688s.564-.286.564-.687v-1.395zm2.815.807c-.063 0-.083-.024-.107-.072-.083-.195-.267-.318-.544-.318-.251 0-.461.087-.461.255 0 .183.195.258.624.31.652.076 1.025.274 1.025.791 0 .581-.509.886-1.161.886-.564 0-1.049-.274-1.125-.85-.008-.056.02-.076.075-.076h.438c.056 0 .088.024.104.067.059.191.263.338.556.338.259 0 .485-.096.485-.298 0-.242-.239-.286-.716-.346-.549-.072-.93-.231-.93-.736s.434-.867 1.113-.867c.612 0 1.037.33 1.125.823.012.056-.004.092-.063.092h-.438zm1.077 1.82c-.04 0-.072-.036-.072-.075v-2.552c0-.04.032-.075.072-.075h1.081c.803 0 1.427.553 1.427 1.359 0 .795-.616 1.343-1.427 1.343h-1.081zm1.081-.537c.433 0 .771-.342.771-.815s-.338-.815-.775-.815h-.449a.074.074 0 0 0-.072.075v1.483c0 .04.032.072.072.072h.453zM19.6 14.3H5.4a.2.2 0 0 1-.2-.2V6.2c0-.55.45-1 1-1h12.6c.55 0 1 .45 1 1v7.9a.2.2 0 0 1-.2.2z" fill="#002868"/><g fill="#fff"><path d="M13.237 12.678h-1.3a.15.15 0 0 1-.15-.15v-5.5a.15.15 0 0 1 .15-.15h1.3a.15.15 0 0 1 .15.15v5.5a.15.15 0 0 1-.15.15z"/><path d="M15.45 8.478h-5.9a.15.15 0 0 1-.15-.15v-1.3a.15.15 0 0 1 .15-.15h5.9a.15.15 0 0 1 .15.15v1.3a.15.15 0 0 1-.15.15z"/></g></g><defs><clipPath id="a"><path fill="#fff" d="M0 0h25v25H0z"/></clipPath></defs></svg>
