<svg xmlns="http://www.w3.org/2000/svg" width="240" height="240"><path d="m119.75-.438 2.106.01C133.272-.355 144.059.577 155 4l2.072.633c30.874 9.746 56.145 32.008 71.16 60.48 2.415 4.83 4.342 9.778 6.08 14.887l.699 2.044c3.981 12.458 5.549 24.666 5.427 37.706l-.01 2.106c-.073 11.416-1.005 22.203-4.428 33.144l-.633 2.072c-9.746 30.874-32.008 56.145-60.48 71.16-4.83 2.415-9.778 4.342-14.887 6.08l-2.044.699c-12.458 3.981-24.666 5.549-37.706 5.427l-2.106-.01C106.728 240.355 95.941 239.423 85 236l-2.072-.633c-30.874-9.746-56.145-32.008-71.16-60.48-2.415-4.83-4.342-9.778-6.08-14.887l-.699-2.044C1.008 145.498-.56 133.29-.437 120.25l.009-2.106C-.355 106.728.577 95.941 4 85l.633-2.072c9.746-30.874 32.008-56.145 60.48-71.16C69.943 9.353 74.89 7.426 80 5.688l2.044-.699C94.502 1.008 106.71-.56 119.75-.437ZM52 41l-2.254 1.82c-17.815 14.81-30.402 38.704-33.5 61.606-.99 14.38-1.173 28.614 2.754 42.574l.996 3.68C24.208 164.7 31.372 177 41 188l1.82 2.254C58.818 209.497 83.537 220.854 108 224c3.022.23 6.032.337 9.063.375l2.128.042c6.28-.058 10.171-1.816 14.621-6.167 2.525-3.751 3.266-5.733 3.188-10.25-1.366-4.76-3.02-7.305-7.102-10.2-4.202-2.251-8.082-2.384-12.773-2.425-1.595-.054-3.19-.112-4.785-.176l-2.282-.088C103.773 194.772 98.52 193.657 94 189c-2.707-4.477-2.66-8.907-2-14 2.012-3.952 4.173-6.728 8-9 3.101-.973 5.935-1.123 9.176-1.14l3.01-.06c2.072-.033 4.145-.051 6.218-.054 6.85-.168 10.524-1.037 15.596-5.746 2.227-3.09 3.106-6.31 2.867-10.117-.92-4.438-2.446-7.813-5.867-10.883-7.113-3.493-14.372-3.412-22.137-3.371l-7.623-.053a4021.5 4021.5 0 0 0-11.929-.012c-3.858-.003-7.715-.03-11.573-.06l-3.599.025c-6.306-.057-10.426-.135-15.139-4.529-2.893-4.76-3.422-8.479-2.578-13.852 1.068-3.968 2.902-7.114 6.432-9.292 2.387-.952 4.11-1.109 6.673-1.114l2.736-.021 2.978.008 3.155-.016c2.261-.01 4.522-.016 6.784-.018 3.581-.004 7.162-.02 10.744-.04 10.183-.056 20.366-.087 30.55-.111 6.229-.016 12.458-.046 18.687-.085 2.371-.012 4.743-.018 7.114-.018 3.322 0 6.644-.018 9.966-.04l2.954.014c7.31-.078 13.105-1.002 18.743-6.04 2.557-4.186 3.36-7.492 3.062-12.375-1.825-5.373-4.948-8.474-10-11-2.27-.106-4.544-.146-6.817-.158l-2.125-.015c-1.525-.01-3.05-.02-4.575-.026-2.417-.012-4.835-.031-7.252-.053-6.875-.062-13.75-.116-20.624-.15-4.204-.02-8.408-.056-12.611-.1a701.25 701.25 0 0 0-4.798-.026 687.145 687.145 0 0 1-6.734-.055l-3.864-.025c-5.318-.58-9.252-1.937-12.975-5.954C91.594 64.89 91.519 61.38 92 56c1.556-4.85 3.69-6.863 7.988-9.238 6.098-2.31 12.855-2.023 19.291-2.104 5.666-.206 9.068-1.368 13.721-4.658 2.71-3.034 4.023-6.259 3.969-10.344-.91-5.251-2.7-8.301-6.969-11.656-3.815-2.574-7.872-2.345-12.313-2.313l-2.423.015C91.72 16.158 69.585 25.61 52 41Z" fill="#822EFA"/></svg>
