<svg xmlns="http://www.w3.org/2000/svg" width="24" height="24" fill="none"><g clip-path="url(#a)"><path d="M12.5 25C19.404 25 25 19.404 25 12.5S19.404 0 12.5 0 0 5.597 0 12.5 5.596 25 12.5 25z" fill="#fff"/><g fill="#ff007a"><path d="M12.5 25a12.57 12.57 0 0 1-2.52-.254 12.49 12.49 0 0 1-6.32-3.407 12.52 12.52 0 0 1-2.679-3.973 12.43 12.43 0 0 1-.728-2.346 12.61 12.61 0 0 1 0-5.039 12.447 12.447 0 0 1 1.881-4.47 12.536 12.536 0 0 1 5.5-4.529A12.41 12.41 0 0 1 9.98.254a12.61 12.61 0 0 1 5.039 0 12.44 12.44 0 0 1 4.469 1.881 12.536 12.536 0 0 1 4.529 5.5c.32.756.564 1.542.728 2.346a12.62 12.62 0 0 1 0 5.038 12.43 12.43 0 0 1-1.881 4.47 12.54 12.54 0 0 1-5.499 4.529c-.756.32-1.542.563-2.346.728A12.61 12.61 0 0 1 12.5 25zm0-24.707a12.3 12.3 0 0 0-2.46.248 12.14 12.14 0 0 0-4.365 1.837 12.24 12.24 0 0 0-4.423 5.371A12.16 12.16 0 0 0 .54 10.04a12.313 12.313 0 0 0 0 4.92 12.14 12.14 0 0 0 1.837 4.365 12.24 12.24 0 0 0 5.371 4.423 12.14 12.14 0 0 0 2.291.711c1.623.331 3.297.331 4.92 0a12.14 12.14 0 0 0 4.365-1.837 12.245 12.245 0 0 0 4.423-5.371 12.15 12.15 0 0 0 .711-2.291 12.313 12.313 0 0 0 0-4.92 12.14 12.14 0 0 0-1.837-4.365 12.245 12.245 0 0 0-5.371-4.423 12.16 12.16 0 0 0-2.29-.711A12.323 12.323 0 0 0 12.5.293zM9.684 5.729c-.197-.031-.205-.034-.113-.049a3.07 3.07 0 0 1 .886.078c.674.16 1.288.571 1.943 1.3l.174.194.249-.04a5.25 5.25 0 0 1 3.008.378c.24.109.468.242.681.397a1.06 1.06 0 0 1 .063.264c.066.439.033.776-.101 1.028-.073.137-.077.18-.028.297.023.048.06.089.105.118a.29.29 0 0 0 .152.045c.222 0 .46-.359.571-.858l.044-.198.087.099c.477.541.852 1.278.917 1.803l.017.137-.08-.124a1.54 1.54 0 0 0-.454-.478c-.32-.212-.659-.284-1.556-.331-.81-.043-1.268-.112-1.723-.26-.773-.252-1.163-.588-2.082-1.793a8.78 8.78 0 0 0-.911-1.07c-.57-.541-1.131-.825-1.848-.936z"/><path d="M16.694 6.924a2.18 2.18 0 0 1 .167-.811.923.923 0 0 1 .081-.156.53.53 0 0 1-.037.14 1.84 1.84 0 0 0-.034.83c.062.423.098.485.545.942l.543.601.161.211-.161-.151a6.86 6.86 0 0 0-.75-.596c-.067-.034-.077-.034-.118.007s-.046.095-.051.364c-.008.42-.065.689-.204.959-.075.146-.087.115-.019-.05.05-.123.056-.177.055-.583-.001-.817-.098-1.013-.666-1.35a6.29 6.29 0 0 0-.527-.273 2 2 0 0 1-.258-.126 5.49 5.49 0 0 1 .794.232c.332.128.387.144.427.129.027-.01.04-.088.053-.32zm-6.628 1.398a3.33 3.33 0 0 1-.593-2.024l.017-.195.091.017a2.28 2.28 0 0 1 .603.225c.378.23.542.533.709 1.31l.142.572a3.87 3.87 0 0 0 .373.681c.105.153.035.226-.197.205-.354-.032-.835-.363-1.144-.79zm6.144 4.094c-1.868-.752-2.525-1.405-2.525-2.506a1.79 1.79 0 0 1 .012-.295 1.42 1.42 0 0 1 .161.119c.379.304.803.433 1.977.605.691.101 1.08.182 1.438.301 1.14.378 1.845 1.145 2.013 2.19a3.61 3.61 0 0 1-.059 1.173c-.063.237-.254.664-.304.681-.014.005-.028-.049-.032-.122a1.523 1.523 0 0 0-.55-1.061c-.38-.325-.888-.584-2.131-1.085z"/><path d="M14.899 12.729a3.366 3.366 0 0 0-.09-.395l-.048-.142.089.099a1.58 1.58 0 0 1 .301.548c.063.179.07.232.069.523 0 .285-.008.345-.066.506a1.6 1.6 0 0 1-.394.627c-.341.347-.78.54-1.413.619a14.1 14.1 0 0 1-.713.052c-.71.037-1.178.113-1.598.261a.335.335 0 0 1-.12.029c-.017-.017.269-.187.505-.301.333-.16.665-.248 1.408-.372l.842-.165c.909-.279 1.377-.998 1.227-1.888zm.856 1.52c-.248-.533-.305-1.048-.169-1.529.014-.051.038-.093.052-.093a.5.5 0 0 1 .13.07c.114.077.344.207.955.54.762.416 1.197.738 1.493 1.105a2.4 2.4 0 0 1 .496 1.136 3.87 3.87 0 0 1-.047 1.118 2.79 2.79 0 0 1-.488 1.047 2.784 2.784 0 0 1-.872.758 1.79 1.79 0 0 1-.199.099.725.725 0 0 1 .081-.205 1.85 1.85 0 0 0 .192-.721 1.837 1.837 0 0 0-.11-.738c-.106-.317-.322-.703-.757-1.357l-.756-1.229zM8.74 17.127c.693-.585 1.555-1.001 2.341-1.128a3.653 3.653 0 0 1 1.216.047c.503.129.952.417 1.186.76.228.335.326.628.428 1.278l.098.572c.077.337.226.606.41.742.293.215.799.228 1.296.034a.657.657 0 0 1 .163-.051c.018.018-.232.185-.409.273a1.39 1.39 0 0 1-.678.165c-.455 0-.833-.232-1.149-.704a5.61 5.61 0 0 1-.31-.619c-.333-.76-.498-.991-.884-1.244a1.14 1.14 0 0 0-1.097-.1.71.71 0 0 0-.241 1.106.95.95 0 0 0 .536.28.566.566 0 0 0 .242-.02.58.58 0 0 0 .212-.119.583.583 0 0 0 .144-.196.56.56 0 0 0 .049-.238c0-.228-.088-.359-.309-.458-.302-.136-.626.023-.624.306a.253.253 0 0 0 .174.251c.078.035.079.038.016.025-.277-.057-.342-.391-.119-.613.267-.266.82-.149 1.01.215a.94.94 0 0 1 .02.64c-.156.41-.609.626-1.069.509-.313-.08-.441-.167-.819-.556-.656-.676-.911-.807-1.857-.955l-.181-.028.206-.174z"/><path d="M6.088 5.205 9.53 9.016c.138.192.086.364-.151.498a1.44 1.44 0 0 1-.539.152.69.69 0 0 1-.453-.194c-.089-.084-.449-.621-1.279-1.909L5.927 5.746c-.034-.032-.033-.031 1.116 2.026l.965 1.809c0 .124-.034.189-.187.36-.255.285-.37.605-.452 1.268-.092.742-.352 1.267-1.072 2.165-.421.526-.49.622-.597.834a1.54 1.54 0 0 0-.186.753c-.021.314.021.629.124.927a3.32 3.32 0 0 0 .449.889c.219.34.346.592.346.691 0 .078.015.079.355.002.813-.184 1.474-.507 1.846-.903a.85.85 0 0 0 .286-.716c.001-.22-.007-.266-.066-.392-.097-.206-.273-.377-.66-.642-.508-.347-.725-.627-.785-1.012-.049-.316.008-.538.289-1.127.291-.61.363-.87.412-1.484.032-.397.075-.554.189-.68.119-.131.226-.176.521-.216.48-.066.786-.19 1.037-.422a.9.9 0 0 0 .323-.686l.011-.221-.122-.142C9.627 8.312 5.792 4.8 5.765 4.8c-.006 0 .139.182.323.404zm.594 10.158a.39.39 0 0 0-.12-.515c-.158-.105-.403-.056-.403.081 0 .042.023.072.075.099.088.045.094.096.025.199s-.064.197.016.26c.129.101.311.046.407-.124zm3.811-4.95a.847.847 0 0 0-.322.219.84.84 0 0 0-.19.34c-.041.153-.018.421.044.504.1.134.197.169.459.167.513-.004.96-.224 1.012-.499.043-.226-.154-.538-.424-.676a1.006 1.006 0 0 0-.579-.055zm.6.469c.079-.112.045-.234-.09-.316-.256-.156-.645-.027-.645.215 0 .121.202.252.388.252a.5.5 0 0 0 .347-.15v-.001z" fill-rule="evenodd"/></g></g><defs><clipPath id="a"><path fill="#fff" d="M0 0h25v25H0z"/></clipPath></defs></svg>
