<svg width="32" height="32" viewBox="0 0 32 32" fill="none" xmlns="http://www.w3.org/2000/svg"><rect width="32" height="32" rx="16" fill="#000"/><path d="M14.295 22.219v-6.535h1.42c2.62 0 4.483.926 4.483 4.03 0 2.62-1.115 3.862-3.609 3.862-1.22 0-2.294-.042-2.294-1.357Zm0-7.166v-5.44c0-.831.137-.873 1.21-.873 3.02 0 4.367.652 4.367 2.925 0 2.052-1.147 3.346-3.483 3.388h-2.094Zm-3.588-4.514v10.912c0 1.936-.2 2.114-1.999 2.146v.61h7.85c3.177 0 6.734-.568 6.734-4.356 0-2.746-2.526-3.925-4.735-4.377v-.042c1.936-.358 3.83-1.536 3.83-3.81-.01-3.335-4.093-3.83-6.745-3.83H8.708v.611c1.8.021 2 .2 2 2.136Z" fill="#fff"/></svg>
