<svg width="256" height="256" viewBox="0 0 256 256" fill="none" xmlns="http://www.w3.org/2000/svg"><rect width="256" height="256" rx="128" fill="#0052FF"/><path fill-rule="evenodd" clip-rule="evenodd" d="M120.7 39v47.117c-15.872 2.361-25.007 12.707-25.007 25.113 0 15.862 10.401 22.451 25.155 25.013l8.95 1.587c8.345 1.464 12.336 2.562 12.336 8.663 0 5.856-4.475 10.493-14.029 10.493-9.434 0-15.239-4.149-15.239-12.568H94c0 14.154 10.522 24.281 26.848 26.478v16.35h14.755v-16.472c15.48-2.441 25.397-12.08 25.397-25.868 0-16.716-11.61-22.572-25.881-24.768l-8.587-1.343c-7.619-1.22-11.851-2.928-11.851-9.151 0-4.88 3.628-9.639 12.819-9.639 9.554 0 13.545 4.637 13.545 10.859h18.867c-.242-11.81-8.673-22.042-24.212-24.63V39.116c45.586 4.14 81.3 42.465 81.3 89.13 0 49.429-40.071 89.5-89.5 89.5-49.43 0-89.5-40.071-89.5-89.5C38 81.104 74.447 42.475 120.7 39Z" fill="#fff"/></svg>
