<svg xmlns="http://www.w3.org/2000/svg" width="24" height="24" fill="none"><g clip-path="url(#a)"><path d="M12.5 24.033c6.904 0 12.5-5.596 12.5-12.5S19.404.033 12.5.033 0 5.63 0 12.533s5.596 12.5 12.5 12.5z" fill="#2775c9"/><path d="M12.305 21.518a9.18 9.18 0 0 1-8.481-5.667 9.18 9.18 0 0 1 1.99-10.004 9.18 9.18 0 0 1 10.004-1.99 9.18 9.18 0 0 1 5.667 8.481 9.18 9.18 0 0 1-9.18 9.18zm-.547-12.586a2.016 2.016 0 0 0-1.914 1.93c0 .945.578 1.563 1.805 1.82l.859.203c.836.195 1.18.477 1.18.953s-.602.945-1.383.945a1.485 1.485 0 0 1-1.406-.711.53.53 0 0 0-.476-.305h-.461a.275.275 0 0 0-.219.321 2.13 2.13 0 0 0 .742 1.16c.369.294.825.457 1.297.465v.656a.55.55 0 0 0 .551.551.55.55 0 0 0 .551-.551v-.664a2.045 2.045 0 0 0 1.421-.597 2.05 2.05 0 0 0 .602-1.419c0-.992-.57-1.562-1.922-1.852l-.781-.172c-.781-.195-1.148-.453-1.148-.891s.469-.922 1.25-.922a1.28 1.28 0 0 1 1.242.633.629.629 0 0 0 .562.359h.367a.329.329 0 0 0 .242-.391 2.07 2.07 0 0 0-1.859-1.562v-.539a.55.55 0 0 0-.551-.551.55.55 0 0 0-.551.551v.578zm-6.336 3.406a6.866 6.866 0 0 0 4.688 6.508h.109a.35.35 0 0 0 .351-.352v-.164a.73.73 0 0 0-.453-.68 5.75 5.75 0 0 1-3.598-5.332 5.75 5.75 0 0 1 3.598-5.332.723.723 0 0 0 .453-.672v-.18a.33.33 0 0 0-.036-.152.334.334 0 0 0-.247-.176.33.33 0 0 0-.155.016 6.864 6.864 0 0 0-4.711 6.515zm13.766 0a6.87 6.87 0 0 0-4.687-6.5h-.117a.369.369 0 0 0-.368.368v.117a.78.78 0 0 0 .477.703 5.75 5.75 0 0 1 3.588 5.328 5.75 5.75 0 0 1-3.588 5.328.78.78 0 0 0-.469.695v.133a.37.37 0 0 0 .042.166.37.37 0 0 0 .443.178 6.87 6.87 0 0 0 3.39-2.503 6.868 6.868 0 0 0 1.29-4.012z" fill="#fff"/></g><defs><clipPath id="a"><path fill="#fff" transform="translate(0 .033)" d="M0 0h25v25H0z"/></clipPath></defs></svg>
