<svg width="32" height="32" viewBox="0 0 32 32" fill="none" xmlns="http://www.w3.org/2000/svg"><g clip-path="url(#a)"><path d="M15.456 31.949c-2.352-.106-4.403-.617-6.416-1.592a15.57 15.57 0 0 1-4.352-3.104A15.841 15.841 0 0 1 .355 19.26a16.31 16.31 0 0 1-.16-5.675c.24-1.598.72-3.13 1.453-4.619a15.548 15.548 0 0 1 3.056-4.268A15.913 15.913 0 0 1 13.968.147c.966-.125 2.368-.16 3.264-.083 3.878.326 7.36 1.928 10.064 4.635 2.675 2.676 4.26 6.052 4.624 9.862.064.653.074 2.037.02 2.686-.234 2.733-1.095 5.242-2.577 7.496a16.199 16.199 0 0 1-4.467 4.508 17.859 17.859 0 0 1-2.992 1.576A16.155 16.155 0 0 1 17.28 31.9a21.8 21.8 0 0 1-1.824.048Zm1.856-4.28a11.912 11.912 0 0 0 5.04-1.8c2.694-1.743 4.589-4.495 5.232-7.6.07-.332.192-1.128.192-1.252v-.074H17.024l.006.53.01.531 1.29.515 1.286.515v.108c0 .128-.154.314-.848 1.027-2.429 2.49-5.165 3.916-7.274 3.794-1.27-.073-2.121-.697-2.499-1.825-.144-.435-.195-.812-.195-1.47 0-1.078.202-2.027.694-3.277 1.53-3.881 5.223-7.74 8.634-9.025.806-.304 1.376-.416 2.128-.419.544 0 .787.029 1.152.147 1.632.521 2.23 2.395 1.6 4.997a12.16 12.16 0 0 1-.496 1.525c-.06.144-.112.275-.112.287 0 .013 1.21.026 2.688.026 2.538 0 2.688-.003 2.688-.054 0-.103-.122-.915-.176-1.177a11.99 11.99 0 0 0-2.502-5.23 15.295 15.295 0 0 0-1.735-1.7 11.884 11.884 0 0 0-6.083-2.535c-.563-.07-1.86-.08-2.384-.02-3.002.342-5.658 1.695-7.642 3.89-2.912 3.23-3.814 7.814-2.323 11.842a11.945 11.945 0 0 0 5.485 6.355 11.959 11.959 0 0 0 4.768 1.416c.48.039 1.603.013 2.128-.048Z" fill="#314012"/><path d="M15.088 27.809a11.917 11.917 0 0 1-10.62-8.964c-.385-1.531-.449-3.315-.177-4.939.359-2.142 1.386-4.258 2.867-5.898 1.984-2.196 4.634-3.545 7.642-3.89.538-.061 2.006-.052 2.576.019 2.72.329 5.107 1.48 7.027 3.391.778.77 1.293 1.423 1.811 2.286a11.802 11.802 0 0 1 1.668 5.093l.01.118h-2.846c-2.262 0-2.841-.01-2.828-.038l.163-.387c.557-1.317.848-2.772.755-3.785-.138-1.544-.902-2.478-2.24-2.73-.294-.058-1.011-.048-1.376.016-.938.166-1.962.575-3.008 1.202-4.112 2.468-7.616 7.694-7.616 11.364 0 .966.211 1.685.666 2.264.53.677 1.516 1.026 2.582.917 1.75-.179 3.754-1.227 5.712-2.989.582-.524 1.7-1.685 1.66-1.723a73.16 73.16 0 0 0-1.292-.524l-1.28-.512-.01-.626-.006-.627h10.97l-.013.138c-.122 1.131-.288 1.911-.605 2.835a12.012 12.012 0 0 1-4.832 6.144 11.95 11.95 0 0 1-5.04 1.8c-.512.061-1.82.087-2.32.045Z" fill="#C7E36C"/></g><defs><clipPath id="a"><path fill="#fff" d="M0 0h32v32H0z"/></clipPath></defs></svg>
