<svg xmlns="http://www.w3.org/2000/svg" width="56" height="56" viewBox="0 0 56 56"><defs><clipPath id="a"><circle cx="28" cy="28" r="28"/></clipPath></defs><g clip-path="url(#a)"><path fill="#45CD85" d="M0 0h56v56H0z"/><path d="M34.55 13.05c1.12.1 2.28.3 3.45.62v3.18c-.6-.44-2.08-1.33-4.83-1.33s-3.23 1.18-3.13 1.78c-.08.27.2.93 1.9 1.4.37.1.82.18 1.34.28 2.61.47 6.72 1.23 6.72 5.2 0 2.75-2.31 4.41-5.45 4.75L34.9 31h-3.1l.33-2.06A15.14 15.14 0 0 1 27 27.5v-3.32c1.42.9 9.45 3.73 9.87 0 .13-1.22-1.55-1.58-3.56-2.02-2.83-.6-6.31-1.36-6.31-4.85 0-2.62 2.16-3.97 5.12-4.25L31.8 11h3.11l-.35 2.05ZM27 40a10 10 0 0 0 9.17-6h3.2A13 13 0 1 1 23 17.63v3.2A10 10 0 0 0 27 40Z" fill="#fff"/></g></svg>
