<svg xmlns="http://www.w3.org/2000/svg" xmlns:xlink="http://www.w3.org/1999/xlink" width="24" height="24" fill="none"><g clip-path="url(#a)"><use xlink:href="#b" fill="#00a64f"/><use xlink:href="#b" fill="url(#c)"/><use xlink:href="#b" fill="url(#d)"/><use xlink:href="#b" fill="url(#e)"/><path d="M14.713 11.569h-1.044V8.512h4.538V6.637H13.67V3.706h-2.337V6.65h-.988c-2.131 0-3.913 1.075-3.913 3.431 0 2.056 1.563 3.35 3.856 3.35h1.044v3.056H6.794v1.875h4.538v2.931h2.337V18.35h.988c2.138 0 3.912-1.075 3.912-3.431 0-2.056-1.562-3.35-3.856-3.35zm-3.381 1.863v-1.863h-.744c-.994 0-1.8-.419-1.8-1.531 0-1.1.769-1.519 1.85-1.519h.694v3.056h2.337v1.863l-2.337-.006zm3.031 3.056h-.694v-3.056h.744c.994 0 1.8.419 1.8 1.531 0 1.106-.769 1.525-1.85 1.525z" fill="#fff"/></g><defs><radialGradient id="c" cx="0" cy="0" r="1" gradientUnits="userSpaceOnUse" gradientTransform="translate(1.321 19.312) scale(19.5988)"><stop offset=".09" stop-color="#00522c"/><stop offset="1" stop-color="#00522c" stop-opacity="0"/></radialGradient><radialGradient id="d" cx="0" cy="0" r="1" gradientUnits="userSpaceOnUse" gradientTransform="rotate(-97.18 20.356 2.28) scale(19.5997)"><stop offset=".09" stop-color="#00a64f"/><stop offset="1" stop-color="#00a64f" stop-opacity="0"/></radialGradient><radialGradient id="e" cx="0" cy="0" r="1" gradientUnits="userSpaceOnUse" gradientTransform="translate(23.859 4.564) scale(16.2726)"><stop offset=".098" stop-color="#8ad137"/><stop offset="1" stop-color="#8ad137" stop-opacity="0"/></radialGradient><clipPath id="a"><path fill="#fff" d="M0 0h25v25H0z"/></clipPath><path id="b" d="M12.5 24.769c6.765 0 12.25-5.484 12.25-12.25S19.266.269 12.5.269.25 5.753.25 12.519s5.484 12.25 12.25 12.25z"/></defs></svg>
