<svg width="256" height="256" viewBox="0 0 256 256" fill="none" xmlns="http://www.w3.org/2000/svg"><path d="M128 253.632c69.279 0 125.44-56.161 125.44-125.44S197.279 2.752 128 2.752 2.56 58.913 2.56 128.192 58.721 253.632 128 253.632Z" fill="#00A64F"/><path d="M128 253.632c69.279 0 125.44-56.161 125.44-125.44S197.279 2.752 128 2.752 2.56 58.913 2.56 128.192 58.721 253.632 128 253.632Z" fill="url(#a)"/><path d="M128 253.632c69.279 0 125.44-56.161 125.44-125.44S197.279 2.752 128 2.752 2.56 58.913 2.56 128.192 58.721 253.632 128 253.632Z" fill="url(#b)"/><path d="M128 253.632c69.279 0 125.44-56.161 125.44-125.44S197.279 2.752 128 2.752 2.56 58.913 2.56 128.192 58.721 253.632 128 253.632Z" fill="url(#c)"/><path d="M150.656 118.464h-10.688V87.168h46.464v-19.2h-46.464V37.952h-23.936v30.144H105.92c-21.824 0-40.064 11.008-40.064 35.136 0 21.056 16 34.304 39.488 34.304h10.688v31.296H69.568v19.2h46.464v30.016h23.936v-30.144h10.112c21.888 0 40.064-11.008 40.064-35.136 0-21.056-16-34.304-39.488-34.304Zm-34.624 19.072v-19.072h-7.616c-10.176 0-18.432-4.288-18.432-15.68 0-11.264 7.872-15.552 18.944-15.552h7.104v31.296h23.936V137.6l-23.936-.064Zm31.04 31.296h-7.104v-31.296h7.616c10.176 0 18.432 4.288 18.432 15.68 0 11.328-7.872 15.616-18.944 15.616Z" fill="#fff"/><defs><radialGradient id="a" cx="0" cy="0" r="1" gradientUnits="userSpaceOnUse" gradientTransform="translate(13.529 197.758) scale(200.692)"><stop offset=".09" stop-color="#00522C"/><stop offset="1" stop-color="#00522C" stop-opacity="0"/></radialGradient><radialGradient id="b" cx="0" cy="0" r="1" gradientUnits="userSpaceOnUse" gradientTransform="rotate(-97.18 208.446 23.352) scale(200.701)"><stop offset=".09" stop-color="#00A64F"/><stop offset="1" stop-color="#00A64F" stop-opacity="0"/></radialGradient><radialGradient id="c" cx="0" cy="0" r="1" gradientUnits="userSpaceOnUse" gradientTransform="translate(244.316 46.738) scale(166.631)"><stop offset=".098" stop-color="#8AD137"/><stop offset="1" stop-color="#8AD137" stop-opacity="0"/></radialGradient></defs></svg>
