<svg xmlns="http://www.w3.org/2000/svg" viewBox="0 0 1000 1000"><defs><radialGradient id="a" cx="976.277" cy="23.974" fx="976.277" fy="23.974" r="2.069" gradientTransform="rotate(-90 369551.554 387616.136) scale(774.37903)" gradientUnits="userSpaceOnUse"><stop offset="0" stop-color="#ffd232"/><stop offset="1" stop-color="#ff6d6d"/></radialGradient></defs><circle cx="500" cy="500" r="500" style="stroke-width:0;fill:url(#a)"/><path d="M308.775 631.45h-71.153c5.807 111.087 98.743 207.653 263.558 207.653 164.09 0 268.643-90.032 268.643-206.202 0-220.721-333.261-208.378-333.261-336.165 0-35.577 26.864-77.69 89.304-77.69 69.703 0 151.747 54.457 157.556 124.157h70.427c-7.26-112.54-116.896-190.953-256.3-190.953-144.484 0-253.394 84.223-253.394 203.297 0 227.257 333.261 197.487 333.261 337.617 0 43.564-26.863 79.867-94.387 79.867-84.223 0-169.173-58.81-174.254-141.581Zm59.537-318.014c0 172.801 330.357 138.677 330.357 323.097 0 55.18-36.303 103.827-79.867 116.168 15.247-14.52 26.864-46.467 26.864-76.961 0-170.624-331.083-147.39-331.083-322.37 0-58.813 37.756-106.007 84.95-120.527-18.153 21.78-31.221 50.097-31.221 80.593Z" style="fill:#fff;stroke-width:0"/></svg>
