<svg width="346" height="347" viewBox="0 0 346 347" fill="none" xmlns="http://www.w3.org/2000/svg"><circle cx="173" cy="173.728" r="173" fill="url(#a)"/><path d="M106.836 219.209h-24.62c2.01 38.436 34.166 71.848 91.193 71.848 56.775 0 92.95-31.151 92.95-71.346 0-76.37-115.309-72.099-115.309-116.313 0-12.31 9.295-26.88 30.9-26.88 24.117 0 52.504 18.841 54.514 42.958h24.368c-2.512-38.939-40.446-66.07-88.679-66.07-49.993 0-87.675 29.14-87.675 70.341 0 78.63 115.308 68.331 115.308 116.815 0 15.073-9.295 27.634-32.658 27.634-29.141 0-58.533-20.348-60.292-48.987Zm20.6-110.033c0 59.79 114.304 47.982 114.304 111.791 0 19.093-12.561 35.924-27.634 40.195 5.275-5.024 9.295-16.078 9.295-26.629 0-59.036-114.555-50.997-114.555-111.54 0-20.349 13.063-36.678 29.392-41.702-6.28 7.536-10.802 17.334-10.802 27.885Z" fill="#fff"/><defs><radialGradient id="a" cx="0" cy="0" r="1" gradientUnits="userSpaceOnUse" gradientTransform="matrix(0 -538.897 538.897 0 173 539.624)"><stop stop-color="#FFEF79"/><stop offset="1" stop-color="#00C2A1"/></radialGradient></defs></svg>
