<svg width="62" height="62" viewBox="0 0 62 62" fill="none" xmlns="http://www.w3.org/2000/svg"><path d="M31 1.543c16.27 0 29.457 13.188 29.457 29.456v.002c0 16.268-13.188 29.456-29.456 29.456h-.002c-16.268 0-29.456-13.188-29.456-29.456v-.002c0-16.268 13.188-29.456 29.456-29.456Z" fill="#fff" stroke="#111" stroke-width="1.085"/><path d="M31 1C14.43 1 1 14.431 1 31c0 16.57 13.431 30 30 30 16.569 0 30-13.431 30-30C61 14.43 47.569 1 31 1Z" fill="url(#a)" fill-opacity=".7"/><path d="M31 1C14.43 1 1 14.431 1 31c0 16.57 13.431 30 30 30 16.569 0 30-13.431 30-30C61 14.43 47.569 1 31 1Z" stroke="url(#b)" stroke-width="1.099"/><path fill-rule="evenodd" clip-rule="evenodd" d="M55.64 26.2C53.41 14.614 43.217 5.862 30.98 5.862S8.55 14.614 6.318 26.2h2.354C10.867 15.897 20.021 8.169 30.98 8.169s20.112 7.727 22.308 18.03h2.354Zm-2.362 9.6h2.354C53.384 47.364 43.201 56.094 30.98 56.094S8.574 47.364 6.326 35.8H8.68c2.212 10.281 11.355 17.987 22.298 17.987 10.943 0 20.086-7.706 22.299-17.987Z" fill="#000"/><path d="M34.557 30.139c1.916.365 3.402 1.07 4.459 2.113 1.056 1.017 1.584 2.322 1.584 3.913v2.505c0 1.904-.688 3.443-2.063 4.617-1.376 1.148-3.182 1.722-5.418 1.722h-4.237c-1.475 0-2.777-.327-3.907-.979-1.13-.678-2.015-1.617-2.653-2.817-.614-1.226-.922-2.635-.922-4.226h2.654c0 1.617.442 2.935 1.326 3.952.91.991 2.101 1.487 3.575 1.487h4.09c1.45 0 2.617-.34 3.502-1.017.884-.705 1.326-1.618 1.326-2.74v-2.504c0-.887-.331-1.643-.995-2.27-.639-.626-1.523-1.03-2.653-1.213l-6.633-1.173c-1.868-.34-3.317-1.044-4.349-2.113-1.032-1.07-1.548-2.413-1.548-4.03v-2.114c0-1.904.663-3.417 1.99-4.54 1.352-1.147 3.133-1.72 5.344-1.72h4.164c2.088 0 3.771.677 5.049 2.034 1.277 1.33 1.916 3.091 1.916 5.283h-2.653c0-1.435-.393-2.583-1.18-3.444-.786-.86-1.83-1.291-3.132-1.291H29.03c-1.4 0-2.518.339-3.354 1.017-.835.652-1.253 1.54-1.253 2.661v2.113c0 .913.307 1.683.922 2.309.638.626 1.51 1.043 2.616 1.252l6.597 1.213Z" fill="#000"/><path fill="#000" d="M27.4 13h2.64v4.8H27.4zm4.801 0h2.64v4.8h-2.64zM27.4 44.2h2.64V49H27.4zm4.801 0h2.64V49h-2.64z"/><defs><radialGradient id="a" cx="0" cy="0" r="1" gradientUnits="userSpaceOnUse" gradientTransform="matrix(0 63.253 -44.5238 0 31.064 9.76)"><stop offset=".031" stop-color="#FAFAFA"/><stop offset="1" stop-color="#E3E3E3"/></radialGradient><linearGradient id="b" x1="31" y1=".434" x2="31" y2="61.566" gradientUnits="userSpaceOnUse"><stop stop-color="#F4F4F4"/><stop offset="1" stop-color="#BEBEBE"/></linearGradient></defs></svg>
