<svg width="398" height="398" viewBox="0 0 398 398" fill="none" xmlns="http://www.w3.org/2000/svg"><path d="M198.568 7.098h.007c105.746 0 191.47 85.724 191.47 191.47v.007c0 105.746-85.724 191.47-191.47 191.47h-.007c-105.746 0-191.47-85.724-191.47-191.47v-.007c0-105.746 85.724-191.47 191.47-191.47Z" fill="#fff" stroke="#111" stroke-width="7.054"/><path d="M198.575 3.571h-.007C90.874 3.571 3.571 90.874 3.571 198.568v.007c0 107.694 87.303 194.997 194.997 194.997h.007c107.694 0 194.997-87.303 194.997-194.997v-.007c0-107.694-87.303-194.997-194.997-194.997Z" fill="url(#a)" fill-opacity=".7"/><path d="M198.575 3.571h-.007C90.874 3.571 3.571 90.874 3.571 198.568v.007c0 107.694 87.303 194.997 194.997 194.997h.007c107.694 0 194.997-87.303 194.997-194.997v-.007c0-107.694-87.303-194.997-194.997-194.997Z" stroke="url(#b)" stroke-width="7.143"/><path d="M53.272 230.565c12.23 56.825 57.025 101.545 113.89 113.667v15.304c-65.164-12.552-116.533-63.847-129.196-128.971h15.306Zm305.211 0c-12.645 65.031-63.885 116.27-128.916 128.915v-15.307c56.732-12.208 101.401-56.876 113.61-113.608h15.306ZM229.567 38.962c65.125 12.662 116.42 64.033 128.972 129.197h-15.304c-12.122-56.865-56.842-101.661-113.668-113.89V38.962ZM167.162 54.21C110.204 66.353 65.356 111.2 53.214 168.16H37.91c12.57-65.258 63.995-116.682 129.252-129.252V54.21Zm54.324 139.556c12.457 2.374 22.12 6.953 28.987 13.736 6.868 6.614 10.301 15.093 10.301 25.437v16.28c0 12.38-4.471 22.385-13.415 30.016-8.944 7.462-20.682 11.192-35.216 11.192h-5.03v25.946h-17.249v-25.946h-5.27c-9.583 0-18.047-2.119-25.394-6.359-7.347-4.409-13.096-10.514-17.248-18.315-3.993-7.97-5.989-17.127-5.989-27.472h17.248c0 10.514 2.875 19.078 8.624 25.692 5.909 6.444 13.655 9.666 23.238 9.666h26.591c9.423 0 17.009-2.205 22.759-6.614 5.749-4.579 8.624-10.514 8.624-17.806v-16.28c0-5.765-2.156-10.683-6.468-14.753-4.153-4.07-9.902-6.699-17.249-7.886l-43.121-7.631c-12.138-2.205-21.561-6.783-28.268-13.736-6.708-6.953-10.062-15.686-10.062-26.2v-13.736c0-12.38 4.312-22.216 12.936-29.508 8.784-7.461 20.363-11.192 34.737-11.192h4.312V82.351h17.249v25.946h5.509c13.576 0 24.516 4.409 32.82 13.227 8.305 8.649 12.458 20.096 12.458 34.341h-17.249c0-9.327-2.555-16.789-7.666-22.385-5.11-5.596-11.898-8.394-20.363-8.394h-27.07c-9.103 0-16.37 2.204-21.8 6.613-5.43 4.24-8.145 10.006-8.145 17.298v13.736c0 5.935 1.996 10.938 5.989 15.008 4.152 4.07 9.822 6.783 17.009 8.139l42.881 7.886Z" fill="#000"/><defs><radialGradient id="a" cx="0" cy="0" r="1" gradientUnits="userSpaceOnUse" gradientTransform="scale(289.405 411.145) rotate(90 .27 .417)"><stop offset=".031" stop-color="#FAFAFA"/><stop offset="1" stop-color="#E3E3E3"/></radialGradient><linearGradient id="b" x1="198.571" y1="-.108" x2="198.571" y2="397.251" gradientUnits="userSpaceOnUse"><stop stop-color="#F4F4F4"/><stop offset="1" stop-color="#BEBEBE"/></linearGradient></defs></svg>
