<svg xmlns="http://www.w3.org/2000/svg" width="24" height="24" fill="none"><g clip-path="url(#a)"><path d="M12.5 25.033c6.904 0 12.5-5.596 12.5-12.5S19.404.033 12.5.033 0 5.63 0 12.533s5.596 12.5 12.5 12.5z" fill="#26a17b"/><path fill-rule="evenodd" d="M14.002 13.614v-.002a23.94 23.94 0 0 1-1.517.033 33.37 33.37 0 0 1-1.54-.033v.002c-3.037-.134-5.305-.662-5.305-1.295s2.267-1.161 5.305-1.297v2.066l1.553.048 1.504-.047v-2.065c3.031.135 5.293.664 5.293 1.295s-2.262 1.16-5.293 1.294zm0-2.805V8.961h4.23V6.142H6.715v2.819h4.23v1.848c-3.437.158-6.023.839-6.023 1.655s2.585 1.496 6.023 1.655v5.924h3.057v-5.925c3.432-.158 6.011-.838 6.011-1.653s-2.579-1.495-6.011-1.654z" fill="#fff"/></g><defs><clipPath id="a"><path fill="#fff" transform="translate(0 .033)" d="M0 0h25v25H0z"/></clipPath></defs></svg>
