<svg xmlns="http://www.w3.org/2000/svg" xmlns:xlink="http://www.w3.org/1999/xlink" width="24" height="24" fill="none"><g clip-path="url(#a)"><path d="M12.5 25.033c6.904 0 12.5-5.596 12.5-12.5S19.404.033 12.5.033 0 5.63 0 12.533s5.596 12.5 12.5 12.5z" fill="#fff"/><path d="M12.5 25.033a12.82 12.82 0 0 1-2.52-.254 12.49 12.49 0 0 1-4.473-1.885 12.57 12.57 0 0 1-4.531-5.498 12.323 12.323 0 0 1-.732-2.344 12.51 12.51 0 0 1 0-5.039A12.692 12.692 0 0 1 2.139 5.54a12.57 12.57 0 0 1 5.498-4.53A12.31 12.31 0 0 1 9.98.277a12.51 12.51 0 0 1 5.039 0 12.49 12.49 0 0 1 4.473 1.885 12.57 12.57 0 0 1 4.531 5.498 12.31 12.31 0 0 1 .733 2.344 12.51 12.51 0 0 1 0 5.039 12.49 12.49 0 0 1-1.885 4.473 12.57 12.57 0 0 1-5.498 4.531 12.31 12.31 0 0 1-2.344.732c-.84.166-1.68.254-2.529.254zm0-23.662a11.085 11.085 0 0 0-6.24 1.905 11.15 11.15 0 0 0-4.043 4.912 11.14 11.14 0 0 0-.654 2.1 11.27 11.27 0 0 0 0 4.502 11.1 11.1 0 0 0 1.68 3.994 11.15 11.15 0 0 0 4.912 4.043 11.12 11.12 0 0 0 2.1.654 11.27 11.27 0 0 0 4.502 0 11.085 11.085 0 0 0 3.994-1.68 11.22 11.22 0 0 0 4.043-4.912 11.14 11.14 0 0 0 .654-2.1 11.262 11.262 0 0 0 0-4.502 11.1 11.1 0 0 0-1.68-3.994 11.15 11.15 0 0 0-4.912-4.043 11.12 11.12 0 0 0-2.1-.654 11.741 11.741 0 0 0-2.256-.225z" fill="url(#b)"/><path d="M11.113 15.981c.371 1.367 1.689 2.393 2.353 2.354.02 0 2.529-.459 3.887-2.744 1.055-1.777.703-3.496-.752-3.516-.547.02-6.191 1.338-5.488 3.906zm5.342-8.701a6.345 6.345 0 0 0-6.68-.967l-.391.195c-.088.049-.176.088-.264.156h.02a2.945 2.945 0 0 0-.664.635c-1.816 2.402 4.268 4.141 7.539 4.16 1.494 1.074 1.914-3.037.44-4.18z" fill="#0e3ca5"/><path d="M10.127 7.328c-.84 1.25-3.623 2.158-4.092 2.002l.068-.107a5.49 5.49 0 0 1 .547-.879c.195-.283.42-.527.664-.771s.508-.459.771-.664c.176-.137.352-.244.527-.352a1.9 1.9 0 0 1 .918-.244c1.26.029.615 1.016.596 1.016zm-.684 8.897c.068.391 0 1.953-.088 2.09-.068 0-.215.02-.635-.215a7.99 7.99 0 0 1-.635-.42 6.783 6.783 0 0 1-1.445-1.455l-.547-.879a9.11 9.11 0 0 1-.42-.947 8.92 8.92 0 0 1-.264-1.035 7.2 7.2 0 0 1 0-2.148c.068-.352.127-.703.264-1.035a1.55 1.55 0 0 1 .068-.195l1.514 1.865c.479.635 1.074 1.631 1.191 1.846.82 1.318.928 2.158.996 2.529zm9.277-3.936a6.91 6.91 0 0 1-.459 2.461c-.791.84-6.084-1.23-6.152-1.25-.723-.312-2.92-1.279-3.125-2.812-.283-2.197 4.15-3.711 6.104-3.779.244 0 .947 0 1.367.352a6.612 6.612 0 0 1 2.266 5.029zm-3.584 5.938c-.566.264-1.211.068-1.055-.488.332-1.074 3.096-2.197 3.711-2.236.068 0 .107.039.068.107a6.885 6.885 0 0 1-2.725 2.617z" fill="#5493f7"/><path d="M8.32 19.281a.46.46 0 0 0 .42.508c5.625.039 11.055-.215 11.055-1.055 0-2.578-11.475.547-11.475.547z" fill="url(#c)"/><path d="M8.32 19.281a.46.46 0 0 0 .42.508c5.625.039 11.025-.127 11.055-1.055 0-2.578-11.475.547-11.475.547zm.42.459h-.049a.437.437 0 0 1-.371-.332.438.438 0 0 0 .42.332c5.605-.039 10.937-1.758 10.937-1.006S14.365 19.779 8.74 19.74z" fill="url(#d)"/><path d="M8.74 12.045a.437.437 0 0 0-.439.439v6.787c0 .244.195.439.42.439 5.625-.039 11.055-1.914 11.055-1.016v-7.646c.019-.889-5.41.957-11.035.996z" fill="url(#e)"/><path d="m9.58 16.752.596-.019.566-.039.547-.049.527-.039.508-.039.508-.068.508-.068.479-.068.479-.068.508-.068.508-.088.508-.088.508-.088.527-.088.547-.088.576-.088.615-.088c.264-.039.527-.039.791-.039.244.02.439.088.439.244v-.596c0-.176-.176-.215-.42-.244-.244-.02-.479 0-.723.019l-.566.068a4.59 4.59 0 0 0-.508.088l-.478.088-.479.088-.527.068-.508.088-.527.088-.566.088-.615.088v-.596l.615-.088.566-.088.527-.088.508-.088.479-.088.479-.088.488-.088.508-.088.576-.068c.244-.049.479-.049.723-.02.215.02.42.088.42.244v-.596c0-.176-.176-.215-.42-.244-.244-.02-.479 0-.723.02l-.576.068-.508.088-.488.088-.479.088-.479.088-.508.088-.527.088-.576.088-.615.088v-.596l.615-.088.576-.088.527-.088.508-.088.479-.088.488-.088.479-.088.508-.088.576-.068c.244-.02.479-.039.723-.02.215.02.42.088.42.244v-.596c0-.176-.176-.215-.42-.244-.244-.02-.479 0-.723.02l-.576.068c-.176.02-.332.049-.508.088l-.488.088-.479.088-.479.088-.508.088-.527.088-.566.088-.615.088v-.566l.615-.088.566-.088c.176-.02.352-.068.527-.088l.508-.088.479-.088.479-.088.488-.088a4.59 4.59 0 0 0 .508-.088c.176-.049.332-.049.576-.068.244-.039.479-.039.723-.02.215.02.42.088.42.244v-.596c0-.176-.176-.215-.42-.244s-.479 0-.723.02l-.576.068a4.5 4.5 0 0 0-.508.088l-.488.088-.479.088-.479.088-.508.088-.527.088-.566.088-.615.088v-.596c-1.689.264-3.408.42-5.137.44a.437.437 0 0 0-.439.439v4.287h.635l.615-.02z" fill="url(#f)"/><path d="m9.58 17.914.596-.02.566-.039.547-.039.527-.039.508-.039.508-.068.508-.039.479-.068.479-.068.508-.068.508-.088.508-.088.508-.088.527-.088.547-.088.576-.088.615-.088c.244-.088.508-.088.772-.088.244.02.439.088.439.264v-.596c0-.176-.195-.244-.439-.264l-.791.039c-.244.02-.42.068-.615.088l-.566.088-.547.088-.527.088-.508.088-.508.088c-.176.02-.332.039-.508.088l-.479.088-.479.068-.478.068-.508.068-.508.068-.508.039-.527.049-.547.039-.566.039-.596.019-.615.02-.635.02v.596h.635l.596-.049z" fill="url(#g)"/><path d="M19.356 17.299c-.264 0-.527 0-.791.049-.244.02-.42.068-.615.088l-.566.088-.547.088-.527.088-.508.088-.508.088-.508.088-.479.068-.479.068-.478.068-.508.088-.508.068-.508.039-.527.039-.566.068-.576.039-.596.02-.615.02h-.635v.576h.635l.615-.02c.195-.02.391-.02.596-.02.195 0 .371-.019.576-.039l.547-.039.527-.039.508-.039.508-.068.508-.068.508-.088.479-.068.488-.068.508-.068.508-.088.508-.088.527-.088.547-.088.576-.088.615-.088c.264-.039.527-.039.791-.039.244.019.439.088.439.244v-.596c-.029-.215-.225-.283-.469-.283z" fill="url(#h)"/><path d="m9.531 16.156.547-.02.527-.02.508-.039.508-.039.508-.049.547-.068.566-.068.635-.088v-4.15c-1.69.264-3.408.42-5.147.439a.437.437 0 0 0-.439.439v3.691h.635l.605-.029z" fill="url(#i)"/><use xlink:href="#j" fill="url(#k)"/><path d="M10.127 14.272c-.02.068-.02.107-.049.176h-.176l.127.088c-.019.068-.019.107-.049.176l.137-.107.127.088c-.019-.068-.019-.088-.049-.156l.137-.107h-.176c.02-.068-.01-.098-.029-.156z" fill="url(#l)"/><path d="M10.176 15.238c-.02-.068-.02-.088-.049-.156-.02.068-.02.107-.049.176h-.176l.127.088c-.019.068-.019.107-.039.176l.127-.107.127.088-.039-.156.127-.107h-.156z" fill="url(#m)"/><path d="M9.648 13.871c-.02.068-.02.107-.049.176h-.176l.127.088c-.02.068-.02.107-.039.176l.127-.107.127.088-.039-.156c.039-.049.088-.068.127-.107h-.176c-.01-.068-.01-.088-.029-.156z" fill="url(#n)"/><path d="M9.648 14.692c-.02.068-.02.107-.049.176h-.176l.127.088c-.02.068-.02.107-.039.176l.127-.107.127.088-.039-.156.127-.107h-.176l-.029-.156z" fill="url(#o)"/><path d="M9.648 13.061c-.02.068-.02.107-.049.176h-.176l.127.088c-.02.068-.02.107-.039.176l.127-.107.127.088-.039-.156c.039-.039.088-.068.127-.107h-.176l-.029-.156z" fill="url(#p)"/><path d="M11.113 15.014c-.02.068-.049.107-.049.176l-.176.019.127.088c-.019.068-.019.107-.039.176l.127-.107.127.088-.039-.156.127-.107-.176-.02-.029-.156z" fill="url(#q)"/><path d="M10.127 13.432c-.02.068-.02.107-.049.176h-.176l.127.088c-.019.068-.019.107-.049.176l.137-.107.127.088c-.019-.068-.019-.088-.049-.156l.137-.107h-.176c.02-.049-.01-.088-.029-.156z" fill="url(#r)"/><path d="M10.615 14.643c-.019.068-.019.107-.049.176h-.176l.127.088c-.02.068-.02.107-.049.176l.137-.107.127.088c-.02-.068-.02-.088-.049-.156l.127-.107-.176.02c.019-.088 0-.107-.02-.176z" fill="url(#s)"/><path d="M10.674 15.609c-.02-.068-.02-.088-.049-.156-.02.068-.02.107-.049.176l-.176.02.127.088c-.02.068-.02.107-.039.176l.127-.107.127.088c-.02-.068-.02-.088-.049-.156l.127-.107-.146-.02z" fill="url(#t)"/><path d="M10.127 12.621c-.02.068-.02.107-.049.176h-.176l.127.088c-.019.068-.019.107-.049.176l.137-.107.127.088c-.019-.068-.019-.088-.049-.156l.137-.107h-.176c.02-.068-.01-.088-.029-.156z" fill="url(#u)"/><path d="M10.615 13.813c-.019.068-.019.107-.049.176h-.176l.127.088c-.02.068-.02.107-.049.176l.137-.107.127.088c-.02-.068-.02-.088-.049-.156l.127-.107-.176.02c.019-.068 0-.117-.02-.176z" fill="url(#v)"/><path d="m9.688 15.678-.049-.156c-.02.068-.02.107-.049.176h-.176l.127.088c-.02.068-.02.107-.039.176l.127-.127.127.088-.039-.156.127-.107-.156.019z" fill="url(#w)"/><path d="M8.652 13.891c-.02.068-.02.088-.049.156h-.176l.127.107-.039.156.127-.107.127.107-.039-.156.127-.107h-.176c.02-.039-.01-.088-.029-.156z" fill="url(#x)"/><path d="m8.652 13.08-.049.156h-.176l.127.107-.039.156.127-.107.127.107-.039-.156.127-.107h-.176c.02-.068-.01-.088-.029-.156z" fill="url(#y)"/><path d="m8.721 15.697-.039-.156c-.02.068-.02.107-.049.156h-.176l.127.107-.049.176.137-.107.127.107c-.02-.068-.02-.088-.049-.156l.137-.107-.166-.02z" fill="url(#z)"/><path d="m10.479 13.432.137-.107.127.088c-.02-.068-.02-.088-.049-.156l.127-.107-.176.019c-.02-.068-.02-.088-.049-.156-.02.068-.02.107-.039.176h-.176l.127.088c.02.049-.01.098-.029.156z" fill="url(#A)"/><path d="m10.479 12.621.137-.107.127.088c-.02-.068-.02-.088-.049-.156l.127-.107-.176.02-.049-.156c-.02.068-.02.107-.039.176h-.176l.127.088c.02.049-.01.088-.029.156z" fill="url(#B)"/><path d="M8.652 14.731c-.02.068-.02.107-.049.176h-.176l.127.107c-.02.039-.02.068-.039.156l.127-.107.127.088-.039-.156.127-.107h-.176c.02-.068-.01-.117-.029-.156z" fill="url(#C)"/><path d="M9.16 12.66c-.02.068-.02.107-.039.176h-.176l.137.088-.049.176.127-.107.137.088c-.02-.068-.02-.107-.049-.156l.127-.107h-.176l-.039-.156z" fill="url(#D)"/><path d="M9.16 13.481c-.02.068-.02.107-.039.176h-.176l.137.088-.049.176.127-.107.137.088c-.02-.068-.02-.088-.049-.156l.127-.107h-.176l-.039-.156z" fill="url(#E)"/><path d="M9.199 15.277c-.02-.068-.02-.088-.049-.156-.02.068-.02.107-.039.156h-.176l.137.107c-.02.068-.02.088-.049.156l.127-.107.137.088c-.02-.068-.02-.088-.049-.156l.127-.107-.166.02z" fill="url(#F)"/><path d="M9.16 14.291c-.02.068-.02.107-.039.176h-.176l.137.107-.068.156.137-.107.127.088-.049-.156.137-.107H9.21c-.029-.049-.029-.088-.049-.156z" fill="url(#G)"/><path d="M8.652 12.25c-.02.068-.02.107-.049.156h-.176l.127.107-.039.176.127-.107.127.107-.039-.156.127-.107h-.176l-.029-.176z" fill="url(#H)"/><use xlink:href="#I" fill="url(#J)"/><path d="M13.066 13.979c-.019.068-.019.107-.039.176l-.176.019.137.088c-.02.068-.049.107-.049.176l.137-.107.127.088c-.019-.068-.039-.088-.039-.156l.127-.107-.176.019c-.019-.098-.019-.127-.049-.195z" fill="url(#K)"/><path d="M13.066 13.149c-.019.068-.019.107-.039.176l-.176.02.137.088c-.02.068-.049.107-.049.176l.137-.107.127.088c-.019-.068-.039-.088-.039-.156l.127-.107-.176.02c-.019-.088-.019-.127-.049-.195z" fill="url(#L)"/><path d="M13.115 14.955c-.019-.068-.019-.088-.049-.156-.019.068-.019.107-.039.176l-.176.019.137.088c-.02.068-.049.107-.049.176l.137-.107.127.088c-.019-.068-.039-.088-.039-.156l.127-.107-.176-.02z" fill="url(#M)"/><path d="m12.568 12.817-.049.156-.176.02.127.088c-.02.068-.02.107-.039.176l.127-.107.137.088c-.019-.068-.049-.088-.049-.156l.137-.107-.176.02c0-.088-.02-.127-.039-.176z" fill="url(#N)"/><path d="M13.066 12.338c-.019.068-.019.107-.039.176l-.195.02.127.088c-.019.068-.039.107-.039.176l.127-.107.137.088c-.02-.068-.039-.088-.039-.156l.127-.107c-.068 0-.107.02-.176.02 0-.107 0-.127-.029-.195z" fill="url(#O)"/><path d="m12.568 11.986-.049.176-.176.019.127.088c-.02.068-.02.107-.039.176l.127-.107.137.088c-.019-.068-.049-.088-.049-.156l.137-.107-.176.019c0-.088-.02-.137-.039-.195z" fill="url(#P)"/><path d="M13.555 13.5c-.02.068-.02.107-.049.176l-.176.02.127.088c-.02.068-.039.107-.039.176l.127-.107.137.088-.049-.156.137-.127h-.176l-.039-.156z" fill="url(#Q)"/><path d="M13.555 12.69c-.02.068-.02.107-.049.176l-.176.02.127.088c-.02.068-.039.107-.039.176l.127-.107.137.088c-.019-.068-.049-.088-.049-.156l.137-.107-.176-.019-.039-.156z" fill="url(#R)"/><path d="m13.594 15.297-.039-.156c-.02.068-.02.107-.049.176l-.176.02.127.088-.039.176.127-.107.137.088c-.019-.068-.019-.088-.049-.156l.137-.107-.176-.02z" fill="url(#S)"/><path d="m13.555 11.869-.049.176-.176.02.127.088c-.02.068-.039.107-.039.176.039-.049.088-.068.127-.107l.137.088c-.019-.068-.049-.088-.049-.156l.137-.107-.176-.02c-.02-.059-.02-.107-.039-.156z" fill="url(#T)"/><path d="M13.555 14.33c-.02.068-.02.107-.049.176h-.176l.127.088-.039.176.127-.107.137.088c-.019-.068-.019-.088-.049-.156l.137-.107h-.176l-.039-.156z" fill="url(#U)"/><path d="m12.568 13.627-.049.176-.176.02.127.088c-.02.068-.02.107-.039.176l.127-.107.137.088c-.019-.068-.049-.088-.049-.156l.137-.107-.176.02c0-.098-.02-.127-.039-.195z" fill="url(#V)"/><path d="M11.113 12.553c-.02.068-.049.107-.049.176l-.176.02.127.088c-.019.068-.019.107-.039.176l.127-.107.127.088-.039-.156.127-.107-.176.02-.029-.195z" fill="url(#W)"/><path d="m11.602 14.555-.039.176h-.176l.127.088c-.02.068-.049.107-.049.176l.127-.107.127.088c-.02-.068-.02-.088-.049-.156l.127-.107-.176.019c0-.088 0-.107-.02-.176z" fill="url(#X)"/><path d="m12.568 14.447-.049.176-.176.019.156.088c-.02.068-.02.107-.049.176l.127-.107.127.088c-.02-.068-.039-.088-.039-.156l.137-.107-.176.019c-.02-.088-.039-.137-.059-.195z" fill="url(#Y)"/><path d="m11.602 12.904-.039.176-.176.02.127.088c-.02.068-.049.107-.049.176l.127-.107.127.088c-.02-.068-.02-.088-.049-.156l.127-.107-.176.02c0-.088 0-.127-.02-.195z" fill="url(#Z)"/><path d="m11.602 15.385-.039.176-.176.019.127.088c-.02.068-.049.107-.049.176l.127-.107.127.088c-.02-.068-.02-.088-.049-.156l.127-.107-.176.019c0-.098 0-.146-.02-.195z" fill="url(#aa)"/><path d="M11.113 13.373c-.02.068-.049.107-.049.176l-.176.02.127.088c-.019.068-.019.107-.039.176l.127-.107.127.088-.039-.156.127-.107-.176.02-.029-.195z" fill="url(#ab)"/><path d="M11.602 12.094c-.02.068-.02.107-.039.176l-.176.019.127.088c-.02.068-.049.107-.049.176l.127-.107.127.088c-.02-.068-.02-.088-.049-.156l.127-.107-.176.019c0-.107 0-.127-.02-.195z" fill="url(#ac)"/><path d="M11.602 13.744c-.02.068-.02.107-.039.176l-.176.02.127.088c-.02.068-.02.107-.049.176l.127-.107.127.088c-.02-.068-.02-.088-.049-.156l.127-.107-.176.02c0-.107 0-.127-.02-.195z" fill="url(#ad)"/><path d="m12.627 15.434-.039-.156-.039.176-.176.019.127.088c-.02.068-.02.107-.049.176l.137-.107.127.088c-.02-.068-.039-.088-.039-.156l.127-.107-.176-.02z" fill="url(#ae)"/><path d="m12.129 15.082-.039-.156c-.02.068-.02.107-.049.176l-.176.02.127.088c-.02.068-.049.107-.049.176l.127-.107.127.088c-.02-.068-.039-.088-.039-.156l.127-.107-.156-.019z" fill="url(#af)"/><path d="m12.08 12.445-.039.176-.176.02.127.088c-.02.068-.049.107-.049.176l.127-.107.127.088c-.02-.068-.049-.088-.049-.156l.127-.107-.176.02c.029-.088.01-.127-.02-.195z" fill="url(#ag)"/><path d="M12.08 14.096c-.02.068-.02.107-.049.176l-.176.02.127.088c-.02.068-.049.107-.049.176l.127-.107.127.088c-.02-.068-.039-.088-.039-.156l.127-.107-.176.02c.029-.107.01-.127-.02-.195z" fill="url(#ah)"/><path d="M12.08 13.285c-.02.068-.02.107-.049.176l-.176.019.127.088c-.02.068-.049.107-.049.176l.127-.107.127.088c-.02-.068-.039-.088-.039-.156l.127-.107-.176.019c.029-.107.01-.137-.02-.195z" fill="url(#ai)"/></g><defs><linearGradient id="b" x1="20.589" y1="2.993" x2="4.664" y2="21.768" xlink:href="#aj"><stop stop-color="#b6509e"/><stop offset="1" stop-color="#2ebac6"/></linearGradient><linearGradient id="c" x1="8.323" y1="18.751" x2="19.795" y2="18.751" xlink:href="#aj"><stop stop-color="#600000"/><stop offset=".33" stop-color="#630000"/><stop offset=".59" stop-color="#6d0000"/><stop offset=".83" stop-color="#7e0000"/><stop offset="1" stop-color="#8f0000"/></linearGradient><linearGradient id="d" x1="14.059" y1="17.708" x2="14.059" y2="19.78" xlink:href="#aj"><stop offset=".35" stop-color="#bf1010"/><stop offset=".65" stop-color="#bd1010"/><stop offset=".75" stop-color="#b60f0f"/><stop offset=".83" stop-color="#ab0d0d"/><stop offset=".89" stop-color="#9a0a0a"/><stop offset=".94" stop-color="#840606"/><stop offset=".99" stop-color="#690202"/><stop offset="1" stop-color="#600000"/></linearGradient><linearGradient id="e" x1="8.303" y1="15.266" x2="19.773" y2="15.266" xlink:href="#aj"><stop stop-color="#bf1010"/><stop offset=".02" stop-color="#c11212"/><stop offset=".24" stop-color="#d22323"/><stop offset=".49" stop-color="#dc2d2d"/><stop offset=".79" stop-color="#df3030"/><stop offset=".84" stop-color="#dc2e2e"/><stop offset=".88" stop-color="#d22626"/><stop offset=".92" stop-color="#c11919"/><stop offset=".95" stop-color="#a90808"/><stop offset=".97" stop-color="#9f0000"/><stop offset="1" stop-color="#df3030"/></linearGradient><linearGradient id="f" x1="8.303" y1="14.089" x2="19.777" y2="14.089" xlink:href="#aj"><stop stop-color="#dfdfdf"/><stop offset=".02" stop-color="#e1e1e1"/><stop offset=".24" stop-color="#f2f2f2"/><stop offset=".49" stop-color="#fcfcfc"/><stop offset=".79" stop-color="#fff"/><stop offset=".84" stop-color="#fcfcfc"/><stop offset=".88" stop-color="#f2f2f2"/><stop offset=".92" stop-color="#e1e1e1"/><stop offset=".95" stop-color="#c9c9c9"/><stop offset=".97" stop-color="#bfbfbf"/><stop offset="1" stop-color="#fff"/></linearGradient><linearGradient id="g" x1="8.325" y1="17.038" x2="19.795" y2="17.038" xlink:href="#aj"><stop stop-color="#dfdfdf"/><stop offset=".02" stop-color="#e1e1e1"/><stop offset=".24" stop-color="#f2f2f2"/><stop offset=".49" stop-color="#fcfcfc"/><stop offset=".79" stop-color="#fff"/><stop offset=".84" stop-color="#fcfcfc"/><stop offset=".88" stop-color="#f2f2f2"/><stop offset=".92" stop-color="#e1e1e1"/><stop offset=".95" stop-color="#c9c9c9"/><stop offset=".97" stop-color="#bfbfbf"/><stop offset="1" stop-color="#fff"/></linearGradient><linearGradient id="h" x1="8.303" y1="18.213" x2="19.775" y2="18.213" xlink:href="#aj"><stop stop-color="#dfdfdf"/><stop offset=".02" stop-color="#e1e1e1"/><stop offset=".24" stop-color="#f2f2f2"/><stop offset=".49" stop-color="#fcfcfc"/><stop offset=".79" stop-color="#fff"/><stop offset=".84" stop-color="#fcfcfc"/><stop offset=".88" stop-color="#f2f2f2"/><stop offset=".92" stop-color="#e1e1e1"/><stop offset=".95" stop-color="#c9c9c9"/><stop offset=".97" stop-color="#bfbfbf"/><stop offset="1" stop-color="#fff"/></linearGradient><linearGradient id="i" x1="8.314" y1="13.896" x2="19.788" y2="13.896" xlink:href="#aj"><stop stop-color="#00209f"/><stop offset=".02" stop-color="#0222a1"/><stop offset=".24" stop-color="#1333b2"/><stop offset=".49" stop-color="#1d3dbc"/><stop offset=".79" stop-color="#2040bf"/><stop offset=".84" stop-color="#1e3dbc"/><stop offset=".88" stop-color="#1933b2"/><stop offset=".92" stop-color="#1122a1"/><stop offset=".95" stop-color="#050a89"/><stop offset=".97" stop-color="#00007f"/><stop offset="1" stop-color="#2040bf"/></linearGradient><linearGradient id="k" x1="8.314" y1="12.445" x2="19.788" y2="12.445" xlink:href="#aj"><stop stop-color="#dfdfdf"/><stop offset=".02" stop-color="#e1e1e1"/><stop offset=".24" stop-color="#f2f2f2"/><stop offset=".49" stop-color="#fcfcfc"/><stop offset=".79" stop-color="#fff"/><stop offset=".84" stop-color="#fcfcfc"/><stop offset=".88" stop-color="#f2f2f2"/><stop offset=".92" stop-color="#e1e1e1"/><stop offset=".95" stop-color="#c9c9c9"/><stop offset=".97" stop-color="#bfbfbf"/><stop offset="1" stop-color="#fff"/></linearGradient><linearGradient id="l" x1="8.314" y1="14.489" x2="19.788" y2="14.489" xlink:href="#aj"><stop stop-color="#dfdfdf"/><stop offset=".02" stop-color="#e1e1e1"/><stop offset=".24" stop-color="#f2f2f2"/><stop offset=".49" stop-color="#fcfcfc"/><stop offset=".79" stop-color="#fff"/><stop offset=".84" stop-color="#fcfcfc"/><stop offset=".88" stop-color="#f2f2f2"/><stop offset=".92" stop-color="#e1e1e1"/><stop offset=".95" stop-color="#c9c9c9"/><stop offset=".97" stop-color="#bfbfbf"/><stop offset="1" stop-color="#fff"/></linearGradient><linearGradient id="m" x1="8.314" y1="15.302" x2="19.788" y2="15.302" xlink:href="#aj"><stop stop-color="#dfdfdf"/><stop offset=".02" stop-color="#e1e1e1"/><stop offset=".24" stop-color="#f2f2f2"/><stop offset=".49" stop-color="#fcfcfc"/><stop offset=".79" stop-color="#fff"/><stop offset=".84" stop-color="#fcfcfc"/><stop offset=".88" stop-color="#f2f2f2"/><stop offset=".92" stop-color="#e1e1e1"/><stop offset=".95" stop-color="#c9c9c9"/><stop offset=".97" stop-color="#bfbfbf"/><stop offset="1" stop-color="#fff"/></linearGradient><linearGradient id="n" x1="8.314" y1="14.093" x2="19.788" y2="14.093" xlink:href="#aj"><stop stop-color="#dfdfdf"/><stop offset=".02" stop-color="#e1e1e1"/><stop offset=".24" stop-color="#f2f2f2"/><stop offset=".49" stop-color="#fcfcfc"/><stop offset=".79" stop-color="#fff"/><stop offset=".84" stop-color="#fcfcfc"/><stop offset=".88" stop-color="#f2f2f2"/><stop offset=".92" stop-color="#e1e1e1"/><stop offset=".95" stop-color="#c9c9c9"/><stop offset=".97" stop-color="#bfbfbf"/><stop offset="1" stop-color="#fff"/></linearGradient><linearGradient id="o" x1="8.314" y1="14.906" x2="19.788" y2="14.906" xlink:href="#aj"><stop stop-color="#dfdfdf"/><stop offset=".02" stop-color="#e1e1e1"/><stop offset=".24" stop-color="#f2f2f2"/><stop offset=".49" stop-color="#fcfcfc"/><stop offset=".79" stop-color="#fff"/><stop offset=".84" stop-color="#fcfcfc"/><stop offset=".88" stop-color="#f2f2f2"/><stop offset=".92" stop-color="#e1e1e1"/><stop offset=".95" stop-color="#c9c9c9"/><stop offset=".97" stop-color="#bfbfbf"/><stop offset="1" stop-color="#fff"/></linearGradient><linearGradient id="p" x1="8.314" y1="13.28" x2="19.788" y2="13.28" xlink:href="#aj"><stop stop-color="#dfdfdf"/><stop offset=".02" stop-color="#e1e1e1"/><stop offset=".24" stop-color="#f2f2f2"/><stop offset=".49" stop-color="#fcfcfc"/><stop offset=".79" stop-color="#fff"/><stop offset=".84" stop-color="#fcfcfc"/><stop offset=".88" stop-color="#f2f2f2"/><stop offset=".92" stop-color="#e1e1e1"/><stop offset=".95" stop-color="#c9c9c9"/><stop offset=".97" stop-color="#bfbfbf"/><stop offset="1" stop-color="#fff"/></linearGradient><linearGradient id="q" x1="8.314" y1="15.247" x2="19.791" y2="15.247" xlink:href="#aj"><stop stop-color="#dfdfdf"/><stop offset=".02" stop-color="#e1e1e1"/><stop offset=".24" stop-color="#f2f2f2"/><stop offset=".49" stop-color="#fcfcfc"/><stop offset=".79" stop-color="#fff"/><stop offset=".84" stop-color="#fcfcfc"/><stop offset=".88" stop-color="#f2f2f2"/><stop offset=".92" stop-color="#e1e1e1"/><stop offset=".95" stop-color="#c9c9c9"/><stop offset=".97" stop-color="#bfbfbf"/><stop offset="1" stop-color="#fff"/></linearGradient><linearGradient id="r" x1="8.314" y1="13.654" x2="19.788" y2="13.654" xlink:href="#aj"><stop stop-color="#dfdfdf"/><stop offset=".02" stop-color="#e1e1e1"/><stop offset=".24" stop-color="#f2f2f2"/><stop offset=".49" stop-color="#fcfcfc"/><stop offset=".79" stop-color="#fff"/><stop offset=".84" stop-color="#fcfcfc"/><stop offset=".88" stop-color="#f2f2f2"/><stop offset=".92" stop-color="#e1e1e1"/><stop offset=".95" stop-color="#c9c9c9"/><stop offset=".97" stop-color="#bfbfbf"/><stop offset="1" stop-color="#fff"/></linearGradient><linearGradient id="s" x1="8.314" y1="14.862" x2="19.788" y2="14.862" xlink:href="#aj"><stop stop-color="#dfdfdf"/><stop offset=".02" stop-color="#e1e1e1"/><stop offset=".24" stop-color="#f2f2f2"/><stop offset=".49" stop-color="#fcfcfc"/><stop offset=".79" stop-color="#fff"/><stop offset=".84" stop-color="#fcfcfc"/><stop offset=".88" stop-color="#f2f2f2"/><stop offset=".92" stop-color="#e1e1e1"/><stop offset=".95" stop-color="#c9c9c9"/><stop offset=".97" stop-color="#bfbfbf"/><stop offset="1" stop-color="#fff"/></linearGradient><linearGradient id="t" x1="8.314" y1="15.686" x2="19.788" y2="15.686" xlink:href="#aj"><stop stop-color="#dfdfdf"/><stop offset=".02" stop-color="#e1e1e1"/><stop offset=".24" stop-color="#f2f2f2"/><stop offset=".49" stop-color="#fcfcfc"/><stop offset=".79" stop-color="#fff"/><stop offset=".84" stop-color="#fcfcfc"/><stop offset=".88" stop-color="#f2f2f2"/><stop offset=".92" stop-color="#e1e1e1"/><stop offset=".95" stop-color="#c9c9c9"/><stop offset=".97" stop-color="#bfbfbf"/><stop offset="1" stop-color="#fff"/></linearGradient><linearGradient id="u" x1="8.314" y1="12.841" x2="19.788" y2="12.841" xlink:href="#aj"><stop stop-color="#dfdfdf"/><stop offset=".02" stop-color="#e1e1e1"/><stop offset=".24" stop-color="#f2f2f2"/><stop offset=".49" stop-color="#fcfcfc"/><stop offset=".79" stop-color="#fff"/><stop offset=".84" stop-color="#fcfcfc"/><stop offset=".88" stop-color="#f2f2f2"/><stop offset=".92" stop-color="#e1e1e1"/><stop offset=".95" stop-color="#c9c9c9"/><stop offset=".97" stop-color="#bfbfbf"/><stop offset="1" stop-color="#fff"/></linearGradient><linearGradient id="v" x1="8.314" y1="14.027" x2="19.788" y2="14.027" xlink:href="#aj"><stop stop-color="#dfdfdf"/><stop offset=".02" stop-color="#e1e1e1"/><stop offset=".24" stop-color="#f2f2f2"/><stop offset=".49" stop-color="#fcfcfc"/><stop offset=".79" stop-color="#fff"/><stop offset=".84" stop-color="#fcfcfc"/><stop offset=".88" stop-color="#f2f2f2"/><stop offset=".92" stop-color="#e1e1e1"/><stop offset=".95" stop-color="#c9c9c9"/><stop offset=".97" stop-color="#bfbfbf"/><stop offset="1" stop-color="#fff"/></linearGradient><linearGradient id="w" x1="8.314" y1="15.741" x2="19.788" y2="15.741" xlink:href="#aj"><stop stop-color="#dfdfdf"/><stop offset=".02" stop-color="#e1e1e1"/><stop offset=".24" stop-color="#f2f2f2"/><stop offset=".49" stop-color="#fcfcfc"/><stop offset=".79" stop-color="#fff"/><stop offset=".84" stop-color="#fcfcfc"/><stop offset=".88" stop-color="#f2f2f2"/><stop offset=".92" stop-color="#e1e1e1"/><stop offset=".95" stop-color="#c9c9c9"/><stop offset=".97" stop-color="#bfbfbf"/><stop offset="1" stop-color="#fff"/></linearGradient><linearGradient id="x" x1="8.314" y1="14.104" x2="19.791" y2="14.104" xlink:href="#aj"><stop stop-color="#dfdfdf"/><stop offset=".02" stop-color="#e1e1e1"/><stop offset=".24" stop-color="#f2f2f2"/><stop offset=".49" stop-color="#fcfcfc"/><stop offset=".79" stop-color="#fff"/><stop offset=".84" stop-color="#fcfcfc"/><stop offset=".88" stop-color="#f2f2f2"/><stop offset=".92" stop-color="#e1e1e1"/><stop offset=".95" stop-color="#c9c9c9"/><stop offset=".97" stop-color="#bfbfbf"/><stop offset="1" stop-color="#fff"/></linearGradient><linearGradient id="y" x1="8.314" y1="13.291" x2="19.791" y2="13.291" xlink:href="#aj"><stop stop-color="#dfdfdf"/><stop offset=".02" stop-color="#e1e1e1"/><stop offset=".24" stop-color="#f2f2f2"/><stop offset=".49" stop-color="#fcfcfc"/><stop offset=".79" stop-color="#fff"/><stop offset=".84" stop-color="#fcfcfc"/><stop offset=".88" stop-color="#f2f2f2"/><stop offset=".92" stop-color="#e1e1e1"/><stop offset=".95" stop-color="#c9c9c9"/><stop offset=".97" stop-color="#bfbfbf"/><stop offset="1" stop-color="#fff"/></linearGradient><linearGradient id="z" x1="8.314" y1="15.763" x2="19.786" y2="15.763" xlink:href="#aj"><stop stop-color="#dfdfdf"/><stop offset=".02" stop-color="#e1e1e1"/><stop offset=".24" stop-color="#f2f2f2"/><stop offset=".49" stop-color="#fcfcfc"/><stop offset=".79" stop-color="#fff"/><stop offset=".84" stop-color="#fcfcfc"/><stop offset=".88" stop-color="#f2f2f2"/><stop offset=".92" stop-color="#e1e1e1"/><stop offset=".95" stop-color="#c9c9c9"/><stop offset=".97" stop-color="#bfbfbf"/><stop offset="1" stop-color="#fff"/></linearGradient><linearGradient id="A" x1="8.314" y1="13.225" x2="19.788" y2="13.225" xlink:href="#aj"><stop stop-color="#dfdfdf"/><stop offset=".02" stop-color="#e1e1e1"/><stop offset=".24" stop-color="#f2f2f2"/><stop offset=".49" stop-color="#fcfcfc"/><stop offset=".79" stop-color="#fff"/><stop offset=".84" stop-color="#fcfcfc"/><stop offset=".88" stop-color="#f2f2f2"/><stop offset=".92" stop-color="#e1e1e1"/><stop offset=".95" stop-color="#c9c9c9"/><stop offset=".97" stop-color="#bfbfbf"/><stop offset="1" stop-color="#fff"/></linearGradient><linearGradient id="B" x1="8.314" y1="12.412" x2="19.788" y2="12.412" xlink:href="#aj"><stop stop-color="#dfdfdf"/><stop offset=".02" stop-color="#e1e1e1"/><stop offset=".24" stop-color="#f2f2f2"/><stop offset=".49" stop-color="#fcfcfc"/><stop offset=".79" stop-color="#fff"/><stop offset=".84" stop-color="#fcfcfc"/><stop offset=".88" stop-color="#f2f2f2"/><stop offset=".92" stop-color="#e1e1e1"/><stop offset=".95" stop-color="#c9c9c9"/><stop offset=".97" stop-color="#bfbfbf"/><stop offset="1" stop-color="#fff"/></linearGradient><linearGradient id="C" x1="8.314" y1="14.95" x2="19.788" y2="14.95" xlink:href="#aj"><stop stop-color="#dfdfdf"/><stop offset=".02" stop-color="#e1e1e1"/><stop offset=".24" stop-color="#f2f2f2"/><stop offset=".49" stop-color="#fcfcfc"/><stop offset=".79" stop-color="#fff"/><stop offset=".84" stop-color="#fcfcfc"/><stop offset=".88" stop-color="#f2f2f2"/><stop offset=".92" stop-color="#e1e1e1"/><stop offset=".95" stop-color="#c9c9c9"/><stop offset=".97" stop-color="#bfbfbf"/><stop offset="1" stop-color="#fff"/></linearGradient><linearGradient id="D" x1="8.314" y1="12.885" x2="19.788" y2="12.885" xlink:href="#aj"><stop stop-color="#dfdfdf"/><stop offset=".02" stop-color="#e1e1e1"/><stop offset=".24" stop-color="#f2f2f2"/><stop offset=".49" stop-color="#fcfcfc"/><stop offset=".79" stop-color="#fff"/><stop offset=".84" stop-color="#fcfcfc"/><stop offset=".88" stop-color="#f2f2f2"/><stop offset=".92" stop-color="#e1e1e1"/><stop offset=".95" stop-color="#c9c9c9"/><stop offset=".97" stop-color="#bfbfbf"/><stop offset="1" stop-color="#fff"/></linearGradient><linearGradient id="E" x1="8.314" y1="13.698" x2="19.788" y2="13.698" xlink:href="#aj"><stop stop-color="#dfdfdf"/><stop offset=".02" stop-color="#e1e1e1"/><stop offset=".24" stop-color="#f2f2f2"/><stop offset=".49" stop-color="#fcfcfc"/><stop offset=".79" stop-color="#fff"/><stop offset=".84" stop-color="#fcfcfc"/><stop offset=".88" stop-color="#f2f2f2"/><stop offset=".92" stop-color="#e1e1e1"/><stop offset=".95" stop-color="#c9c9c9"/><stop offset=".97" stop-color="#bfbfbf"/><stop offset="1" stop-color="#fff"/></linearGradient><linearGradient id="F" x1="8.314" y1="15.335" x2="19.788" y2="15.335" xlink:href="#aj"><stop stop-color="#dfdfdf"/><stop offset=".02" stop-color="#e1e1e1"/><stop offset=".24" stop-color="#f2f2f2"/><stop offset=".49" stop-color="#fcfcfc"/><stop offset=".79" stop-color="#fff"/><stop offset=".84" stop-color="#fcfcfc"/><stop offset=".88" stop-color="#f2f2f2"/><stop offset=".92" stop-color="#e1e1e1"/><stop offset=".95" stop-color="#c9c9c9"/><stop offset=".97" stop-color="#bfbfbf"/><stop offset="1" stop-color="#fff"/></linearGradient><linearGradient id="G" x1="8.314" y1="14.511" x2="19.788" y2="14.511" xlink:href="#aj"><stop stop-color="#dfdfdf"/><stop offset=".02" stop-color="#e1e1e1"/><stop offset=".24" stop-color="#f2f2f2"/><stop offset=".49" stop-color="#fcfcfc"/><stop offset=".79" stop-color="#fff"/><stop offset=".84" stop-color="#fcfcfc"/><stop offset=".88" stop-color="#f2f2f2"/><stop offset=".92" stop-color="#e1e1e1"/><stop offset=".95" stop-color="#c9c9c9"/><stop offset=".97" stop-color="#bfbfbf"/><stop offset="1" stop-color="#fff"/></linearGradient><linearGradient id="H" x1="8.314" y1="12.467" x2="19.791" y2="12.467" xlink:href="#aj"><stop stop-color="#dfdfdf"/><stop offset=".02" stop-color="#e1e1e1"/><stop offset=".24" stop-color="#f2f2f2"/><stop offset=".49" stop-color="#fcfcfc"/><stop offset=".79" stop-color="#fff"/><stop offset=".84" stop-color="#fcfcfc"/><stop offset=".88" stop-color="#f2f2f2"/><stop offset=".92" stop-color="#e1e1e1"/><stop offset=".95" stop-color="#c9c9c9"/><stop offset=".97" stop-color="#bfbfbf"/><stop offset="1" stop-color="#fff"/></linearGradient><linearGradient id="J" x1="8.314" y1="14.412" x2="19.791" y2="14.412" xlink:href="#aj"><stop stop-color="#dfdfdf"/><stop offset=".02" stop-color="#e1e1e1"/><stop offset=".24" stop-color="#f2f2f2"/><stop offset=".49" stop-color="#fcfcfc"/><stop offset=".79" stop-color="#fff"/><stop offset=".84" stop-color="#fcfcfc"/><stop offset=".88" stop-color="#f2f2f2"/><stop offset=".92" stop-color="#e1e1e1"/><stop offset=".95" stop-color="#c9c9c9"/><stop offset=".97" stop-color="#bfbfbf"/><stop offset="1" stop-color="#fff"/></linearGradient><linearGradient id="K" x1="8.316" y1="14.214" x2="19.788" y2="14.214" xlink:href="#aj"><stop stop-color="#dfdfdf"/><stop offset=".02" stop-color="#e1e1e1"/><stop offset=".24" stop-color="#f2f2f2"/><stop offset=".49" stop-color="#fcfcfc"/><stop offset=".79" stop-color="#fff"/><stop offset=".84" stop-color="#fcfcfc"/><stop offset=".88" stop-color="#f2f2f2"/><stop offset=".92" stop-color="#e1e1e1"/><stop offset=".95" stop-color="#c9c9c9"/><stop offset=".97" stop-color="#bfbfbf"/><stop offset="1" stop-color="#fff"/></linearGradient><linearGradient id="L" x1="8.316" y1="13.379" x2="19.788" y2="13.379" xlink:href="#aj"><stop stop-color="#dfdfdf"/><stop offset=".02" stop-color="#e1e1e1"/><stop offset=".24" stop-color="#f2f2f2"/><stop offset=".49" stop-color="#fcfcfc"/><stop offset=".79" stop-color="#fff"/><stop offset=".84" stop-color="#fcfcfc"/><stop offset=".88" stop-color="#f2f2f2"/><stop offset=".92" stop-color="#e1e1e1"/><stop offset=".95" stop-color="#c9c9c9"/><stop offset=".97" stop-color="#bfbfbf"/><stop offset="1" stop-color="#fff"/></linearGradient><linearGradient id="M" x1="8.316" y1="15.027" x2="19.788" y2="15.027" xlink:href="#aj"><stop stop-color="#dfdfdf"/><stop offset=".02" stop-color="#e1e1e1"/><stop offset=".24" stop-color="#f2f2f2"/><stop offset=".49" stop-color="#fcfcfc"/><stop offset=".79" stop-color="#fff"/><stop offset=".84" stop-color="#fcfcfc"/><stop offset=".88" stop-color="#f2f2f2"/><stop offset=".92" stop-color="#e1e1e1"/><stop offset=".95" stop-color="#c9c9c9"/><stop offset=".97" stop-color="#bfbfbf"/><stop offset="1" stop-color="#fff"/></linearGradient><linearGradient id="N" x1="8.314" y1="13.039" x2="19.791" y2="13.039" xlink:href="#aj"><stop stop-color="#dfdfdf"/><stop offset=".02" stop-color="#e1e1e1"/><stop offset=".24" stop-color="#f2f2f2"/><stop offset=".49" stop-color="#fcfcfc"/><stop offset=".79" stop-color="#fff"/><stop offset=".84" stop-color="#fcfcfc"/><stop offset=".88" stop-color="#f2f2f2"/><stop offset=".92" stop-color="#e1e1e1"/><stop offset=".95" stop-color="#c9c9c9"/><stop offset=".97" stop-color="#bfbfbf"/><stop offset="1" stop-color="#fff"/></linearGradient><linearGradient id="O" x1="8.316" y1="12.566" x2="19.788" y2="12.566" xlink:href="#aj"><stop stop-color="#dfdfdf"/><stop offset=".02" stop-color="#e1e1e1"/><stop offset=".24" stop-color="#f2f2f2"/><stop offset=".49" stop-color="#fcfcfc"/><stop offset=".79" stop-color="#fff"/><stop offset=".84" stop-color="#fcfcfc"/><stop offset=".88" stop-color="#f2f2f2"/><stop offset=".92" stop-color="#e1e1e1"/><stop offset=".95" stop-color="#c9c9c9"/><stop offset=".97" stop-color="#bfbfbf"/><stop offset="1" stop-color="#fff"/></linearGradient><linearGradient id="P" x1="8.314" y1="12.215" x2="19.791" y2="12.215" xlink:href="#aj"><stop stop-color="#dfdfdf"/><stop offset=".02" stop-color="#e1e1e1"/><stop offset=".24" stop-color="#f2f2f2"/><stop offset=".49" stop-color="#fcfcfc"/><stop offset=".79" stop-color="#fff"/><stop offset=".84" stop-color="#fcfcfc"/><stop offset=".88" stop-color="#f2f2f2"/><stop offset=".92" stop-color="#e1e1e1"/><stop offset=".95" stop-color="#c9c9c9"/><stop offset=".97" stop-color="#bfbfbf"/><stop offset="1" stop-color="#fff"/></linearGradient><linearGradient id="Q" x1="8.314" y1="13.731" x2="19.788" y2="13.731" xlink:href="#aj"><stop stop-color="#dfdfdf"/><stop offset=".02" stop-color="#e1e1e1"/><stop offset=".24" stop-color="#f2f2f2"/><stop offset=".49" stop-color="#fcfcfc"/><stop offset=".79" stop-color="#fff"/><stop offset=".84" stop-color="#fcfcfc"/><stop offset=".88" stop-color="#f2f2f2"/><stop offset=".92" stop-color="#e1e1e1"/><stop offset=".95" stop-color="#c9c9c9"/><stop offset=".97" stop-color="#bfbfbf"/><stop offset="1" stop-color="#fff"/></linearGradient><linearGradient id="R" x1="8.314" y1="12.918" x2="19.788" y2="12.918" xlink:href="#aj"><stop stop-color="#dfdfdf"/><stop offset=".02" stop-color="#e1e1e1"/><stop offset=".24" stop-color="#f2f2f2"/><stop offset=".49" stop-color="#fcfcfc"/><stop offset=".79" stop-color="#fff"/><stop offset=".84" stop-color="#fcfcfc"/><stop offset=".88" stop-color="#f2f2f2"/><stop offset=".92" stop-color="#e1e1e1"/><stop offset=".95" stop-color="#c9c9c9"/><stop offset=".97" stop-color="#bfbfbf"/><stop offset="1" stop-color="#fff"/></linearGradient><linearGradient id="S" x1="8.314" y1="15.379" x2="19.788" y2="15.379" xlink:href="#aj"><stop stop-color="#dfdfdf"/><stop offset=".02" stop-color="#e1e1e1"/><stop offset=".24" stop-color="#f2f2f2"/><stop offset=".49" stop-color="#fcfcfc"/><stop offset=".79" stop-color="#fff"/><stop offset=".84" stop-color="#fcfcfc"/><stop offset=".88" stop-color="#f2f2f2"/><stop offset=".92" stop-color="#e1e1e1"/><stop offset=".95" stop-color="#c9c9c9"/><stop offset=".97" stop-color="#bfbfbf"/><stop offset="1" stop-color="#fff"/></linearGradient><linearGradient id="T" x1="8.314" y1="12.105" x2="19.788" y2="12.105" xlink:href="#aj"><stop stop-color="#dfdfdf"/><stop offset=".02" stop-color="#e1e1e1"/><stop offset=".24" stop-color="#f2f2f2"/><stop offset=".49" stop-color="#fcfcfc"/><stop offset=".79" stop-color="#fff"/><stop offset=".84" stop-color="#fcfcfc"/><stop offset=".88" stop-color="#f2f2f2"/><stop offset=".92" stop-color="#e1e1e1"/><stop offset=".95" stop-color="#c9c9c9"/><stop offset=".97" stop-color="#bfbfbf"/><stop offset="1" stop-color="#fff"/></linearGradient><linearGradient id="U" x1="8.314" y1="14.555" x2="19.788" y2="14.555" xlink:href="#aj"><stop stop-color="#dfdfdf"/><stop offset=".02" stop-color="#e1e1e1"/><stop offset=".24" stop-color="#f2f2f2"/><stop offset=".49" stop-color="#fcfcfc"/><stop offset=".79" stop-color="#fff"/><stop offset=".84" stop-color="#fcfcfc"/><stop offset=".88" stop-color="#f2f2f2"/><stop offset=".92" stop-color="#e1e1e1"/><stop offset=".95" stop-color="#c9c9c9"/><stop offset=".97" stop-color="#bfbfbf"/><stop offset="1" stop-color="#fff"/></linearGradient><linearGradient id="V" x1="8.314" y1="13.863" x2="19.791" y2="13.863" xlink:href="#aj"><stop stop-color="#dfdfdf"/><stop offset=".02" stop-color="#e1e1e1"/><stop offset=".24" stop-color="#f2f2f2"/><stop offset=".49" stop-color="#fcfcfc"/><stop offset=".79" stop-color="#fff"/><stop offset=".84" stop-color="#fcfcfc"/><stop offset=".88" stop-color="#f2f2f2"/><stop offset=".92" stop-color="#e1e1e1"/><stop offset=".95" stop-color="#c9c9c9"/><stop offset=".97" stop-color="#bfbfbf"/><stop offset="1" stop-color="#fff"/></linearGradient><linearGradient id="W" x1="8.314" y1="12.786" x2="19.791" y2="12.786" xlink:href="#aj"><stop stop-color="#dfdfdf"/><stop offset=".02" stop-color="#e1e1e1"/><stop offset=".24" stop-color="#f2f2f2"/><stop offset=".49" stop-color="#fcfcfc"/><stop offset=".79" stop-color="#fff"/><stop offset=".84" stop-color="#fcfcfc"/><stop offset=".88" stop-color="#f2f2f2"/><stop offset=".92" stop-color="#e1e1e1"/><stop offset=".95" stop-color="#c9c9c9"/><stop offset=".97" stop-color="#bfbfbf"/><stop offset="1" stop-color="#fff"/></linearGradient><linearGradient id="X" x1="8.314" y1="14.775" x2="19.788" y2="14.775" xlink:href="#aj"><stop stop-color="#dfdfdf"/><stop offset=".02" stop-color="#e1e1e1"/><stop offset=".24" stop-color="#f2f2f2"/><stop offset=".49" stop-color="#fcfcfc"/><stop offset=".79" stop-color="#fff"/><stop offset=".84" stop-color="#fcfcfc"/><stop offset=".88" stop-color="#f2f2f2"/><stop offset=".92" stop-color="#e1e1e1"/><stop offset=".95" stop-color="#c9c9c9"/><stop offset=".97" stop-color="#bfbfbf"/><stop offset="1" stop-color="#fff"/></linearGradient><linearGradient id="Y" x1="8.314" y1="14.676" x2="19.791" y2="14.676" xlink:href="#aj"><stop stop-color="#dfdfdf"/><stop offset=".02" stop-color="#e1e1e1"/><stop offset=".24" stop-color="#f2f2f2"/><stop offset=".49" stop-color="#fcfcfc"/><stop offset=".79" stop-color="#fff"/><stop offset=".84" stop-color="#fcfcfc"/><stop offset=".88" stop-color="#f2f2f2"/><stop offset=".92" stop-color="#e1e1e1"/><stop offset=".95" stop-color="#c9c9c9"/><stop offset=".97" stop-color="#bfbfbf"/><stop offset="1" stop-color="#fff"/></linearGradient><linearGradient id="Z" x1="8.314" y1="13.138" x2="19.788" y2="13.138" xlink:href="#aj"><stop stop-color="#dfdfdf"/><stop offset=".02" stop-color="#e1e1e1"/><stop offset=".24" stop-color="#f2f2f2"/><stop offset=".49" stop-color="#fcfcfc"/><stop offset=".79" stop-color="#fff"/><stop offset=".84" stop-color="#fcfcfc"/><stop offset=".88" stop-color="#f2f2f2"/><stop offset=".92" stop-color="#e1e1e1"/><stop offset=".95" stop-color="#c9c9c9"/><stop offset=".97" stop-color="#bfbfbf"/><stop offset="1" stop-color="#fff"/></linearGradient><linearGradient id="aa" x1="8.314" y1="15.62" x2="19.788" y2="15.62" xlink:href="#aj"><stop stop-color="#dfdfdf"/><stop offset=".02" stop-color="#e1e1e1"/><stop offset=".24" stop-color="#f2f2f2"/><stop offset=".49" stop-color="#fcfcfc"/><stop offset=".79" stop-color="#fff"/><stop offset=".84" stop-color="#fcfcfc"/><stop offset=".88" stop-color="#f2f2f2"/><stop offset=".92" stop-color="#e1e1e1"/><stop offset=".95" stop-color="#c9c9c9"/><stop offset=".97" stop-color="#bfbfbf"/><stop offset="1" stop-color="#fff"/></linearGradient><linearGradient id="ab" x1="8.314" y1="13.599" x2="19.791" y2="13.599" xlink:href="#aj"><stop stop-color="#dfdfdf"/><stop offset=".02" stop-color="#e1e1e1"/><stop offset=".24" stop-color="#f2f2f2"/><stop offset=".49" stop-color="#fcfcfc"/><stop offset=".79" stop-color="#fff"/><stop offset=".84" stop-color="#fcfcfc"/><stop offset=".88" stop-color="#f2f2f2"/><stop offset=".92" stop-color="#e1e1e1"/><stop offset=".95" stop-color="#c9c9c9"/><stop offset=".97" stop-color="#bfbfbf"/><stop offset="1" stop-color="#fff"/></linearGradient><linearGradient id="ac" x1="8.314" y1="12.325" x2="19.791" y2="12.325" xlink:href="#aj"><stop stop-color="#dfdfdf"/><stop offset=".02" stop-color="#e1e1e1"/><stop offset=".24" stop-color="#f2f2f2"/><stop offset=".49" stop-color="#fcfcfc"/><stop offset=".79" stop-color="#fff"/><stop offset=".84" stop-color="#fcfcfc"/><stop offset=".88" stop-color="#f2f2f2"/><stop offset=".92" stop-color="#e1e1e1"/><stop offset=".95" stop-color="#c9c9c9"/><stop offset=".97" stop-color="#bfbfbf"/><stop offset="1" stop-color="#fff"/></linearGradient><linearGradient id="ad" x1="8.314" y1="13.972" x2="19.788" y2="13.972" xlink:href="#aj"><stop stop-color="#dfdfdf"/><stop offset=".02" stop-color="#e1e1e1"/><stop offset=".24" stop-color="#f2f2f2"/><stop offset=".49" stop-color="#fcfcfc"/><stop offset=".79" stop-color="#fff"/><stop offset=".84" stop-color="#fcfcfc"/><stop offset=".88" stop-color="#f2f2f2"/><stop offset=".92" stop-color="#e1e1e1"/><stop offset=".95" stop-color="#c9c9c9"/><stop offset=".97" stop-color="#bfbfbf"/><stop offset="1" stop-color="#fff"/></linearGradient><linearGradient id="ae" x1="8.314" y1="15.511" x2="19.791" y2="15.511" xlink:href="#aj"><stop stop-color="#dfdfdf"/><stop offset=".02" stop-color="#e1e1e1"/><stop offset=".24" stop-color="#f2f2f2"/><stop offset=".49" stop-color="#fcfcfc"/><stop offset=".79" stop-color="#fff"/><stop offset=".84" stop-color="#fcfcfc"/><stop offset=".88" stop-color="#f2f2f2"/><stop offset=".92" stop-color="#e1e1e1"/><stop offset=".95" stop-color="#c9c9c9"/><stop offset=".97" stop-color="#bfbfbf"/><stop offset="1" stop-color="#fff"/></linearGradient><linearGradient id="af" x1="8.314" y1="15.159" x2="19.788" y2="15.159" xlink:href="#aj"><stop stop-color="#dfdfdf"/><stop offset=".02" stop-color="#e1e1e1"/><stop offset=".24" stop-color="#f2f2f2"/><stop offset=".49" stop-color="#fcfcfc"/><stop offset=".79" stop-color="#fff"/><stop offset=".84" stop-color="#fcfcfc"/><stop offset=".88" stop-color="#f2f2f2"/><stop offset=".92" stop-color="#e1e1e1"/><stop offset=".95" stop-color="#c9c9c9"/><stop offset=".97" stop-color="#bfbfbf"/><stop offset="1" stop-color="#fff"/></linearGradient><linearGradient id="ag" x1="8.314" y1="12.676" x2="19.788" y2="12.676" xlink:href="#aj"><stop stop-color="#dfdfdf"/><stop offset=".02" stop-color="#e1e1e1"/><stop offset=".24" stop-color="#f2f2f2"/><stop offset=".49" stop-color="#fcfcfc"/><stop offset=".79" stop-color="#fff"/><stop offset=".84" stop-color="#fcfcfc"/><stop offset=".88" stop-color="#f2f2f2"/><stop offset=".92" stop-color="#e1e1e1"/><stop offset=".95" stop-color="#c9c9c9"/><stop offset=".97" stop-color="#bfbfbf"/><stop offset="1" stop-color="#fff"/></linearGradient><linearGradient id="ah" x1="8.314" y1="14.324" x2="19.788" y2="14.324" xlink:href="#aj"><stop stop-color="#dfdfdf"/><stop offset=".02" stop-color="#e1e1e1"/><stop offset=".24" stop-color="#f2f2f2"/><stop offset=".49" stop-color="#fcfcfc"/><stop offset=".79" stop-color="#fff"/><stop offset=".84" stop-color="#fcfcfc"/><stop offset=".88" stop-color="#f2f2f2"/><stop offset=".92" stop-color="#e1e1e1"/><stop offset=".95" stop-color="#c9c9c9"/><stop offset=".97" stop-color="#bfbfbf"/><stop offset="1" stop-color="#fff"/></linearGradient><linearGradient id="ai" x1="8.314" y1="13.511" x2="19.788" y2="13.511" xlink:href="#aj"><stop stop-color="#dfdfdf"/><stop offset=".02" stop-color="#e1e1e1"/><stop offset=".24" stop-color="#f2f2f2"/><stop offset=".49" stop-color="#fcfcfc"/><stop offset=".79" stop-color="#fff"/><stop offset=".84" stop-color="#fcfcfc"/><stop offset=".88" stop-color="#f2f2f2"/><stop offset=".92" stop-color="#e1e1e1"/><stop offset=".95" stop-color="#c9c9c9"/><stop offset=".97" stop-color="#bfbfbf"/><stop offset="1" stop-color="#fff"/></linearGradient><linearGradient id="aj" gradientUnits="userSpaceOnUse"/><path id="j" d="M9.648 12.221c-.02.068-.02.107-.049.176h-.176l.127.088c-.02.068-.02.107-.039.176l.127-.107.127.088-.039-.156.127-.107h-.176l-.029-.156z"/><path id="I" d="M11.113 14.184c-.02.068-.049.107-.049.176l-.176.02.127.088c-.019.068-.019.107-.039.176l.127-.107.127.088-.039-.156.127-.107-.176.02-.029-.195z"/><clipPath id="a"><path fill="#fff" transform="translate(0 .033)" d="M0 0h25v25H0z"/></clipPath></defs></svg>
