<svg xmlns="http://www.w3.org/2000/svg" xml:space="preserve" viewBox="0 0 256 256"><circle cx="128" cy="128" r="128" fill="#fff"/><linearGradient id="a" x1="-1162.614" x2="-1163.251" y1="2.759" y2="3.51" gradientTransform="matrix(256.0009 0 0 256.0006 297841.063 -676.002)" gradientUnits="userSpaceOnUse"><stop offset="0" stop-color="#b6509e"/><stop offset="1" stop-color="#2ebac6"/></linearGradient><path fill="url(#a)" d="M128 256c-8.7 0-17.3-.9-25.8-2.6-16.4-3.4-31.9-9.9-45.8-19.3-20.6-13.9-36.7-33.5-46.4-56.3-3.3-7.7-5.8-15.8-7.5-24-3.5-17-3.5-34.6 0-51.6 3.5-16.4 10-31.9 19.4-45.8C35.8 35.8 55.4 19.7 78.2 10c7.7-3.3 15.8-5.8 24-7.5 17-3.5 34.6-3.5 51.6 0 16.4 3.4 31.9 9.9 45.8 19.3 20.6 13.9 36.7 33.5 46.4 56.3 3.3 7.7 5.8 15.8 7.5 24 3.5 17 3.5 34.6 0 51.6-3.4 16.4-9.9 31.9-19.3 45.8-13.9 20.6-33.5 36.7-56.3 46.4-7.7 3.3-15.8 5.8-24 7.5-8.6 1.7-17.2 2.6-25.9 2.6zm0-242.3c-7.7 0-15.5.8-23 2.3-14.6 3-28.5 8.8-40.9 17.2a114.2 114.2 0 0 0-41.4 50.3c-2.9 6.9-5.2 14.1-6.7 21.5-3.1 15.2-3.1 30.9 0 46.1 3 14.6 8.8 28.5 17.2 40.9a114.2 114.2 0 0 0 50.3 41.4c6.9 2.9 14.1 5.2 21.5 6.7 15.2 3.1 30.9 3.1 46.1 0 14.6-3 28.5-8.8 40.9-17.2 18.4-12.4 32.7-29.9 41.4-50.3 2.9-6.9 5.2-14.1 6.7-21.5 3.1-15.2 3.1-30.9 0-46.1-3-14.6-8.8-28.5-17.2-40.9a114.2 114.2 0 0 0-50.3-41.4c-6.9-2.9-14.1-5.2-21.5-6.7-7.6-1.5-15.4-2.3-23.1-2.3z"/><path fill="#0e3ca5" d="M113.8 163.3c3.8 14 17.3 24.5 24.1 24.1.2 0 25.9-4.7 39.8-28.1 10.8-18.2 7.2-35.8-7.7-36-5.6.2-63.4 13.7-56.2 40m54.7-89.1c-19.1-16.2-45.7-20-68.4-9.9-1.3.7-2.7 1.3-4 2-.9.5-1.8.9-2.7 1.6h.2c-2.5 1.8-5 4-6.8 6.5C68.2 99 130.5 116.8 164 117c15.3 11 19.6-31.1 4.5-42.8z"/><path fill="#5493f7" d="M103.7 74.7c-8.6 12.8-37.1 22.1-41.9 20.5l.7-1.1c1.6-3.2 3.4-6.1 5.6-9 2-2.9 4.3-5.4 6.8-7.9s5.2-4.7 7.9-6.8c1.8-1.4 3.6-2.5 5.4-3.6 2.9-1.6 6.1-2.5 9.4-2.5 12.9.3 6.3 10.4 6.1 10.4m-7 91.1c.7 4 0 20-.9 21.4-.7 0-2.2.2-6.5-2.2-2.2-1.3-4.3-2.7-6.5-4.3-5.6-4.1-10.6-9.2-14.8-14.9-2-2.9-4-5.8-5.6-9-1.6-3.1-3.1-6.5-4.3-9.7-1.1-3.4-2-7-2.7-10.6-1.1-7.4-1.1-14.8 0-22 .7-3.6 1.3-7.2 2.7-10.6.2-.7.4-1.3.7-2 5 6.5 10.6 12.6 15.5 19.1s11 16.7 12.2 18.9c8.4 13.5 9.5 22.1 10.2 25.9m95-40.3c0 8.5-1.6 17.1-4.7 25.2-8.1 8.6-62.3-12.6-63-12.8-7.4-3.2-29.9-13.1-32-28.8-2.9-22.5 42.5-38 62.5-38.7 2.5 0 9.7 0 14 3.6 14.8 13 23.4 31.7 23.2 51.5M155 186.3c-5.8 2.7-12.4.7-10.8-5 3.4-11 31.7-22.5 38-22.9.7 0 1.1.4.7 1.1-6.5 11.3-16.2 20.5-27.9 26.8"/><linearGradient id="b" x1="85.231" x2="202.7" y1="706.949" y2="706.949" gradientTransform="translate(0 -515.276)" gradientUnits="userSpaceOnUse"><stop offset="0" stop-color="#600000"/><stop offset=".33" stop-color="#630000"/><stop offset=".59" stop-color="#6d0000"/><stop offset=".83" stop-color="#7e0000"/><stop offset="1" stop-color="#8f0000"/></linearGradient><path fill="url(#b)" d="M85.2 197.1c-.2 2.7 1.6 4.9 4.3 5.2 57.6.4 113.2-2.2 113.2-10.8 0-26.4-117.5 5.6-117.5 5.6z"/><linearGradient id="c" x1="143.965" x2="143.965" y1="696.263" y2="717.481" gradientTransform="translate(0 -515.276)" gradientUnits="userSpaceOnUse"><stop offset=".35" stop-color="#bf1010"/><stop offset=".65" stop-color="#bd1010"/><stop offset=".75" stop-color="#b60f0f"/><stop offset=".83" stop-color="#ab0d0d"/><stop offset=".89" stop-color="#9a0a0a"/><stop offset=".94" stop-color="#840606"/><stop offset=".99" stop-color="#690202"/><stop offset="1" stop-color="#600000"/></linearGradient><path fill="url(#c)" d="M85.2 197.1c-.2 2.7 1.6 4.9 4.3 5.2 57.6.4 112.9-1.3 113.2-10.8 0-26.4-117.5 5.6-117.5 5.6zm4.3 4.7H89c-1.8-.2-3.4-1.6-3.8-3.4.5 2 2.3 3.4 4.3 3.4 57.4-.4 112-18 112-10.3s-54.4 10.7-112 10.3z"/><linearGradient id="d" x1="85.025" x2="202.476" y1="671.259" y2="671.259" gradientTransform="translate(0 -515.276)" gradientUnits="userSpaceOnUse"><stop offset="0" stop-color="#bf1010"/><stop offset=".02" stop-color="#c11212"/><stop offset=".24" stop-color="#d22323"/><stop offset=".49" stop-color="#dc2d2d"/><stop offset=".79" stop-color="#df3030"/><stop offset=".84" stop-color="#dc2e2e"/><stop offset=".88" stop-color="#d22626"/><stop offset=".92" stop-color="#c11919"/><stop offset=".95" stop-color="#a90808"/><stop offset=".97" stop-color="#9f0000"/><stop offset="1" stop-color="#df3030"/></linearGradient><path fill="url(#d)" d="M89.5 123c-2.5 0-4.5 2-4.5 4.5V197c0 2.5 2 4.5 4.3 4.5 57.6-.4 113.2-19.6 113.2-10.4v-78.3c.2-9.1-55.4 9.8-113 10.2z"/><linearGradient id="e" x1="85.025" x2="202.52" y1="659.204" y2="659.204" gradientTransform="translate(0 -515.276)" gradientUnits="userSpaceOnUse"><stop offset="0" stop-color="#dfdfdf"/><stop offset=".02" stop-color="#e1e1e1"/><stop offset=".24" stop-color="#f2f2f2"/><stop offset=".49" stop-color="#fcfcfc"/><stop offset=".79" stop-color="#fff"/><stop offset=".84" stop-color="#fcfcfc"/><stop offset=".88" stop-color="#f2f2f2"/><stop offset=".92" stop-color="#e1e1e1"/><stop offset=".95" stop-color="#c9c9c9"/><stop offset=".97" stop-color="#bfbfbf"/><stop offset="1" stop-color="#fff"/></linearGradient><path fill="url(#e)" d="M98.1 171.2c2 0 4-.2 6.1-.2l5.8-.4c1.8-.2 3.8-.2 5.6-.5l5.4-.4 5.2-.4c1.8-.2 3.4-.5 5.2-.7l5.2-.7 4.9-.7 4.9-.7 5.2-.7 5.2-.9 5.2-.9 5.2-.9 5.4-.9 5.6-.9 5.9-.9c2-.2 3.8-.5 6.3-.9 2.7-.4 5.4-.4 8.1-.4 2.5.2 4.5.9 4.5 2.5v-6.1c0-1.8-1.8-2.2-4.3-2.5-2.5-.2-4.9 0-7.4.2-2.2.2-4.1.4-5.8.7-1.8.2-3.4.5-5.2.9l-4.9.9-4.9.9-5.4.7-5.2.9-5.4.9-5.8.9-6.3.9v-6.1l6.3-.9 5.8-.9 5.4-.9 5.2-.9 4.9-.9 4.9-.9 5-.9 5.2-.9c1.8-.2 3.4-.4 5.9-.7 2.5-.5 4.9-.5 7.4-.2 2.2.2 4.3.9 4.3 2.5v-6.1c0-1.8-1.8-2.2-4.3-2.5-2.5-.2-4.9 0-7.4.2-2.2.2-4.1.5-5.9.7l-5.2.9-5 .9-4.9.9-4.9.9-5.2.9-5.4.9-5.9.9-6.3.9v-6.1l6.3-.9 5.9-.9 5.4-.9 5.2-.9 4.9-.9 5-.9 4.9-.9 5.2-.9c1.8-.2 3.4-.5 5.9-.7 2.5-.2 4.9-.4 7.4-.2 2.2.2 4.3.9 4.3 2.5v-6.1c0-1.8-1.8-2.2-4.3-2.5-2.5-.2-4.9 0-7.4.2-2.2.2-4.1.4-5.9.7-1.8.2-3.4.5-5.2.9l-5 .9-4.9.9-4.9.9-5.2.9-5.4.9-5.8.9-6.3.9v-5.8l6.3-.9 5.8-.9c1.8-.2 3.6-.7 5.4-.9l5.2-.9 4.9-.9 4.9-.9 5-.9c1.8-.2 3.4-.5 5.2-.9 1.8-.5 3.4-.5 5.9-.7 2.5-.4 4.9-.4 7.4-.2 2.2.2 4.3.9 4.3 2.5V119c0-1.8-1.8-2.2-4.3-2.5s-4.9 0-7.4.2c-2.2.2-4.1.5-5.9.7-1.8.2-3.4.5-5.2.9l-5 .9-4.9.9-4.9.9-5.2.9-5.4.9-5.8.9-6.3.9v-6.1c-17.3 2.7-34.9 4.3-52.6 4.5-2.5 0-4.5 2-4.5 4.5v43.9h6.5c1.8 0 4.2-.2 6.3-.2z"/><linearGradient id="f" x1="85.25" x2="202.7" y1="689.401" y2="689.401" gradientTransform="translate(0 -515.276)" gradientUnits="userSpaceOnUse"><stop offset="0" stop-color="#dfdfdf"/><stop offset=".02" stop-color="#e1e1e1"/><stop offset=".24" stop-color="#f2f2f2"/><stop offset=".49" stop-color="#fcfcfc"/><stop offset=".79" stop-color="#fff"/><stop offset=".84" stop-color="#fcfcfc"/><stop offset=".88" stop-color="#f2f2f2"/><stop offset=".92" stop-color="#e1e1e1"/><stop offset=".95" stop-color="#c9c9c9"/><stop offset=".97" stop-color="#bfbfbf"/><stop offset="1" stop-color="#fff"/></linearGradient><path fill="url(#f)" d="m98.1 183.1 6.1-.2 5.8-.4 5.6-.4 5.4-.4 5.2-.4 5.2-.7 5.2-.4 4.9-.7 4.9-.7 5.2-.7 5.2-.9 5.2-.9 5.2-.9 5.4-.9 5.6-.9 5.9-.9c2-.2 3.8-.5 6.3-.9 2.5-.9 5.2-.9 7.9-.9 2.5.2 4.5.9 4.5 2.7v-6.1c0-1.8-2-2.5-4.5-2.7-2.7 0-5.4 0-8.1.4-2.5.2-4.3.7-6.3.9l-5.8.9-5.6.9-5.4.9-5.2.9-5.2.9c-1.8.2-3.4.4-5.2.9l-4.9.9-4.9.7-4.9.7-5.2.7c-1.8.2-3.4.5-5.2.7l-5.2.4-5.4.5c-1.8.2-3.6.4-5.6.4l-5.8.4c-2 0-4.1.2-6.1.2s-4 .2-6.3.2-4.3.2-6.5.2v6.1H92l6.1-.5z"/><linearGradient id="g" x1="85.025" x2="202.498" y1="701.438" y2="701.438" gradientTransform="translate(0 -515.276)" gradientUnits="userSpaceOnUse"><stop offset="0" stop-color="#dfdfdf"/><stop offset=".02" stop-color="#e1e1e1"/><stop offset=".24" stop-color="#f2f2f2"/><stop offset=".49" stop-color="#fcfcfc"/><stop offset=".79" stop-color="#fff"/><stop offset=".84" stop-color="#fcfcfc"/><stop offset=".88" stop-color="#f2f2f2"/><stop offset=".92" stop-color="#e1e1e1"/><stop offset=".95" stop-color="#c9c9c9"/><stop offset=".97" stop-color="#bfbfbf"/><stop offset="1" stop-color="#fff"/></linearGradient><path fill="url(#g)" d="M198.2 176.8c-2.7 0-5.4 0-8.1.5-2.5.2-4.3.7-6.3.9l-5.8.9-5.6.9-5.4.9-5.2.9-5.2.9-5.2.9-4.9.7-4.9.7-4.9.7-5.2.9-5.2.7-5.2.4-5.4.4-5.8.7-5.9.4-6.1.2-6.3.2h-6.5v5.9h6.5c2 0 4.3 0 6.3-.2s4-.2 6.1-.2c2 0 3.8-.2 5.9-.4l5.6-.4 5.4-.4 5.2-.4 5.2-.7 5.2-.7 5.2-.9 4.9-.7 5-.7 5.2-.7 5.2-.9 5.2-.9 5.4-.9 5.6-.9 5.9-.9c2-.2 3.8-.7 6.3-.9 2.7-.4 5.4-.4 8.1-.4 2.5.2 4.5.9 4.5 2.5v-6.1c-.3-2.2-2.3-2.9-4.8-2.9z"/><linearGradient id="h" x1="85.138" x2="202.632" y1="657.226" y2="657.226" gradientTransform="translate(0 -515.276)" gradientUnits="userSpaceOnUse"><stop offset="0" stop-color="#00209f"/><stop offset=".02" stop-color="#0222a1"/><stop offset=".24" stop-color="#1333b2"/><stop offset=".49" stop-color="#1d3dbc"/><stop offset=".79" stop-color="#2040bf"/><stop offset=".84" stop-color="#1e3dbc"/><stop offset=".88" stop-color="#1933b2"/><stop offset=".92" stop-color="#1122a1"/><stop offset=".95" stop-color="#050a89"/><stop offset=".97" stop-color="#00007f"/><stop offset="1" stop-color="#2040bf"/></linearGradient><path fill="url(#h)" d="m97.6 165.1 5.6-.2 5.4-.2 5.2-.4 5.2-.4 5.2-.5c1.8-.2 3.6-.4 5.6-.7l5.8-.7c2-.2 4.3-.7 6.5-.9v-42.5c-17.3 2.7-34.9 4.3-52.7 4.5-2.5 0-4.5 2-4.5 4.5v37.8h6.5l6.2-.3z"/><linearGradient id="i" x1="85.138" x2="202.632" y1="642.375" y2="642.375" gradientTransform="translate(0 -515.276)" gradientUnits="userSpaceOnUse"><stop offset="0" stop-color="#dfdfdf"/><stop offset=".02" stop-color="#e1e1e1"/><stop offset=".24" stop-color="#f2f2f2"/><stop offset=".49" stop-color="#fcfcfc"/><stop offset=".79" stop-color="#fff"/><stop offset=".84" stop-color="#fcfcfc"/><stop offset=".88" stop-color="#f2f2f2"/><stop offset=".92" stop-color="#e1e1e1"/><stop offset=".95" stop-color="#c9c9c9"/><stop offset=".97" stop-color="#bfbfbf"/><stop offset="1" stop-color="#fff"/></linearGradient><path fill="url(#i)" d="M98.8 124.8c-.2.7-.2 1.1-.5 1.8h-1.8l1.3.9c-.2.7-.2 1.1-.4 1.8l1.3-1.1 1.3.9c-.2-.7-.2-.9-.4-1.6l1.3-1.1h-1.8l-.3-1.6z"/><linearGradient id="j" x1="85.138" x2="202.632" y1="663.301" y2="663.301" gradientTransform="translate(0 -515.276)" gradientUnits="userSpaceOnUse"><stop offset="0" stop-color="#dfdfdf"/><stop offset=".02" stop-color="#e1e1e1"/><stop offset=".24" stop-color="#f2f2f2"/><stop offset=".49" stop-color="#fcfcfc"/><stop offset=".79" stop-color="#fff"/><stop offset=".84" stop-color="#fcfcfc"/><stop offset=".88" stop-color="#f2f2f2"/><stop offset=".92" stop-color="#e1e1e1"/><stop offset=".95" stop-color="#c9c9c9"/><stop offset=".97" stop-color="#bfbfbf"/><stop offset="1" stop-color="#fff"/></linearGradient><path fill="url(#j)" d="M103.7 145.8c-.2.7-.2 1.1-.5 1.8h-1.8l1.3.9c-.2.7-.2 1.1-.5 1.8l1.4-1.1 1.3.9c-.2-.7-.2-.9-.5-1.6l1.4-1.1H104c.2-.7-.1-1-.3-1.6z"/><linearGradient id="k" x1="85.138" x2="202.632" y1="671.625" y2="671.625" gradientTransform="translate(0 -515.276)" gradientUnits="userSpaceOnUse"><stop offset="0" stop-color="#dfdfdf"/><stop offset=".02" stop-color="#e1e1e1"/><stop offset=".24" stop-color="#f2f2f2"/><stop offset=".49" stop-color="#fcfcfc"/><stop offset=".79" stop-color="#fff"/><stop offset=".84" stop-color="#fcfcfc"/><stop offset=".88" stop-color="#f2f2f2"/><stop offset=".92" stop-color="#e1e1e1"/><stop offset=".95" stop-color="#c9c9c9"/><stop offset=".97" stop-color="#bfbfbf"/><stop offset="1" stop-color="#fff"/></linearGradient><path fill="url(#k)" d="M104.2 155.7c-.2-.7-.2-.9-.5-1.6-.2.7-.2 1.1-.5 1.8h-1.8l1.3.9c-.2.7-.2 1.1-.4 1.8l1.3-1.1 1.3.9c-.2-.7-.2-.9-.4-1.6l1.3-1.1h-1.6z"/><linearGradient id="l" x1="85.138" x2="202.632" y1="659.25" y2="659.25" gradientTransform="translate(0 -515.276)" gradientUnits="userSpaceOnUse"><stop offset="0" stop-color="#dfdfdf"/><stop offset=".02" stop-color="#e1e1e1"/><stop offset=".24" stop-color="#f2f2f2"/><stop offset=".49" stop-color="#fcfcfc"/><stop offset=".79" stop-color="#fff"/><stop offset=".84" stop-color="#fcfcfc"/><stop offset=".88" stop-color="#f2f2f2"/><stop offset=".92" stop-color="#e1e1e1"/><stop offset=".95" stop-color="#c9c9c9"/><stop offset=".97" stop-color="#bfbfbf"/><stop offset="1" stop-color="#fff"/></linearGradient><path fill="url(#l)" d="M98.8 141.7c-.2.7-.2 1.1-.5 1.8h-1.8l1.3.9c-.2.7-.2 1.1-.4 1.8l1.3-1.1 1.3.9c-.2-.7-.2-.9-.4-1.6.4-.5.9-.7 1.3-1.1h-1.8c-.1-.7-.1-.9-.3-1.6z"/><linearGradient id="m" x1="85.138" x2="202.632" y1="667.576" y2="667.576" gradientTransform="translate(0 -515.276)" gradientUnits="userSpaceOnUse"><stop offset="0" stop-color="#dfdfdf"/><stop offset=".02" stop-color="#e1e1e1"/><stop offset=".24" stop-color="#f2f2f2"/><stop offset=".49" stop-color="#fcfcfc"/><stop offset=".79" stop-color="#fff"/><stop offset=".84" stop-color="#fcfcfc"/><stop offset=".88" stop-color="#f2f2f2"/><stop offset=".92" stop-color="#e1e1e1"/><stop offset=".95" stop-color="#c9c9c9"/><stop offset=".97" stop-color="#bfbfbf"/><stop offset="1" stop-color="#fff"/></linearGradient><path fill="url(#m)" d="M98.8 150.1c-.2.7-.2 1.1-.5 1.8h-1.8l1.3.9c-.2.7-.2 1.1-.4 1.8l1.3-1.1 1.3.9c-.2-.7-.2-.9-.4-1.6l1.3-1.1h-1.8l-.3-1.6z"/><linearGradient id="n" x1="85.138" x2="202.632" y1="650.926" y2="650.926" gradientTransform="translate(0 -515.276)" gradientUnits="userSpaceOnUse"><stop offset="0" stop-color="#dfdfdf"/><stop offset=".02" stop-color="#e1e1e1"/><stop offset=".24" stop-color="#f2f2f2"/><stop offset=".49" stop-color="#fcfcfc"/><stop offset=".79" stop-color="#fff"/><stop offset=".84" stop-color="#fcfcfc"/><stop offset=".88" stop-color="#f2f2f2"/><stop offset=".92" stop-color="#e1e1e1"/><stop offset=".95" stop-color="#c9c9c9"/><stop offset=".97" stop-color="#bfbfbf"/><stop offset="1" stop-color="#fff"/></linearGradient><path fill="url(#n)" d="M98.8 133.4c-.2.7-.2 1.1-.5 1.8h-1.8l1.3.9c-.2.7-.2 1.1-.4 1.8l1.3-1.1 1.3.9c-.2-.7-.2-.9-.4-1.6.4-.4.9-.7 1.3-1.1h-1.8l-.3-1.6z"/><linearGradient id="o" x1="85.138" x2="202.655" y1="671.063" y2="671.063" gradientTransform="translate(0 -515.276)" gradientUnits="userSpaceOnUse"><stop offset="0" stop-color="#dfdfdf"/><stop offset=".02" stop-color="#e1e1e1"/><stop offset=".24" stop-color="#f2f2f2"/><stop offset=".49" stop-color="#fcfcfc"/><stop offset=".79" stop-color="#fff"/><stop offset=".84" stop-color="#fcfcfc"/><stop offset=".88" stop-color="#f2f2f2"/><stop offset=".92" stop-color="#e1e1e1"/><stop offset=".95" stop-color="#c9c9c9"/><stop offset=".97" stop-color="#bfbfbf"/><stop offset="1" stop-color="#fff"/></linearGradient><path fill="url(#o)" d="M113.8 153.4c-.2.7-.5 1.1-.5 1.8l-1.8.2 1.3.9c-.2.7-.2 1.1-.4 1.8l1.3-1.1 1.3.9c-.2-.7-.2-.9-.4-1.6l1.3-1.1-1.8-.2-.3-1.6z"/><linearGradient id="p" x1="85.138" x2="202.632" y1="654.75" y2="654.75" gradientTransform="translate(0 -515.276)" gradientUnits="userSpaceOnUse"><stop offset="0" stop-color="#dfdfdf"/><stop offset=".02" stop-color="#e1e1e1"/><stop offset=".24" stop-color="#f2f2f2"/><stop offset=".49" stop-color="#fcfcfc"/><stop offset=".79" stop-color="#fff"/><stop offset=".84" stop-color="#fcfcfc"/><stop offset=".88" stop-color="#f2f2f2"/><stop offset=".92" stop-color="#e1e1e1"/><stop offset=".95" stop-color="#c9c9c9"/><stop offset=".97" stop-color="#bfbfbf"/><stop offset="1" stop-color="#fff"/></linearGradient><path fill="url(#p)" d="M103.7 137.2c-.2.7-.2 1.1-.5 1.8h-1.8l1.3.9c-.2.7-.2 1.1-.5 1.8l1.4-1.1 1.3.9c-.2-.7-.2-.9-.5-1.6l1.4-1.1H104c.2-.5-.1-.9-.3-1.6z"/><linearGradient id="q" x1="85.138" x2="202.632" y1="667.125" y2="667.125" gradientTransform="translate(0 -515.276)" gradientUnits="userSpaceOnUse"><stop offset="0" stop-color="#dfdfdf"/><stop offset=".02" stop-color="#e1e1e1"/><stop offset=".24" stop-color="#f2f2f2"/><stop offset=".49" stop-color="#fcfcfc"/><stop offset=".79" stop-color="#fff"/><stop offset=".84" stop-color="#fcfcfc"/><stop offset=".88" stop-color="#f2f2f2"/><stop offset=".92" stop-color="#e1e1e1"/><stop offset=".95" stop-color="#c9c9c9"/><stop offset=".97" stop-color="#bfbfbf"/><stop offset="1" stop-color="#fff"/></linearGradient><path fill="url(#q)" d="M108.7 149.6c-.2.7-.2 1.1-.5 1.8h-1.8l1.3.9c-.2.7-.2 1.1-.5 1.8l1.4-1.1 1.3.9c-.2-.7-.2-.9-.5-1.6l1.3-1.1-1.8.2c.2-.9 0-1.1-.2-1.8z"/><linearGradient id="r" x1="85.138" x2="202.632" y1="675.563" y2="675.563" gradientTransform="translate(0 -515.276)" gradientUnits="userSpaceOnUse"><stop offset="0" stop-color="#dfdfdf"/><stop offset=".02" stop-color="#e1e1e1"/><stop offset=".24" stop-color="#f2f2f2"/><stop offset=".49" stop-color="#fcfcfc"/><stop offset=".79" stop-color="#fff"/><stop offset=".84" stop-color="#fcfcfc"/><stop offset=".88" stop-color="#f2f2f2"/><stop offset=".92" stop-color="#e1e1e1"/><stop offset=".95" stop-color="#c9c9c9"/><stop offset=".97" stop-color="#bfbfbf"/><stop offset="1" stop-color="#fff"/></linearGradient><path fill="url(#r)" d="M109.3 159.5c-.2-.7-.2-.9-.5-1.6-.2.7-.2 1.1-.5 1.8l-1.8.2 1.3.9c-.2.7-.2 1.1-.4 1.8l1.3-1.1 1.3.9c-.2-.7-.2-.9-.5-1.6l1.3-1.1-1.5-.2z"/><linearGradient id="s" x1="85.138" x2="202.632" y1="646.426" y2="646.426" gradientTransform="translate(0 -515.276)" gradientUnits="userSpaceOnUse"><stop offset="0" stop-color="#dfdfdf"/><stop offset=".02" stop-color="#e1e1e1"/><stop offset=".24" stop-color="#f2f2f2"/><stop offset=".49" stop-color="#fcfcfc"/><stop offset=".79" stop-color="#fff"/><stop offset=".84" stop-color="#fcfcfc"/><stop offset=".88" stop-color="#f2f2f2"/><stop offset=".92" stop-color="#e1e1e1"/><stop offset=".95" stop-color="#c9c9c9"/><stop offset=".97" stop-color="#bfbfbf"/><stop offset="1" stop-color="#fff"/></linearGradient><path fill="url(#s)" d="M103.7 128.9c-.2.7-.2 1.1-.5 1.8h-1.8l1.3.9c-.2.7-.2 1.1-.5 1.8l1.4-1.1 1.3.9c-.2-.7-.2-.9-.5-1.6l1.4-1.1H104c.2-.7-.1-.9-.3-1.6z"/><linearGradient id="t" x1="85.138" x2="202.632" y1="658.576" y2="658.576" gradientTransform="translate(0 -515.276)" gradientUnits="userSpaceOnUse"><stop offset="0" stop-color="#dfdfdf"/><stop offset=".02" stop-color="#e1e1e1"/><stop offset=".24" stop-color="#f2f2f2"/><stop offset=".49" stop-color="#fcfcfc"/><stop offset=".79" stop-color="#fff"/><stop offset=".84" stop-color="#fcfcfc"/><stop offset=".88" stop-color="#f2f2f2"/><stop offset=".92" stop-color="#e1e1e1"/><stop offset=".95" stop-color="#c9c9c9"/><stop offset=".97" stop-color="#bfbfbf"/><stop offset="1" stop-color="#fff"/></linearGradient><path fill="url(#t)" d="M108.7 141.1c-.2.7-.2 1.1-.5 1.8h-1.8l1.3.9c-.2.7-.2 1.1-.5 1.8l1.4-1.1 1.3.9c-.2-.7-.2-.9-.5-1.6l1.3-1.1-1.8.2c.2-.7 0-1.2-.2-1.8z"/><linearGradient id="u" x1="85.138" x2="202.632" y1="676.125" y2="676.125" gradientTransform="translate(0 -515.276)" gradientUnits="userSpaceOnUse"><stop offset="0" stop-color="#dfdfdf"/><stop offset=".02" stop-color="#e1e1e1"/><stop offset=".24" stop-color="#f2f2f2"/><stop offset=".49" stop-color="#fcfcfc"/><stop offset=".79" stop-color="#fff"/><stop offset=".84" stop-color="#fcfcfc"/><stop offset=".88" stop-color="#f2f2f2"/><stop offset=".92" stop-color="#e1e1e1"/><stop offset=".95" stop-color="#c9c9c9"/><stop offset=".97" stop-color="#bfbfbf"/><stop offset="1" stop-color="#fff"/></linearGradient><path fill="url(#u)" d="m99.2 160.2-.5-1.6c-.2.7-.2 1.1-.5 1.8h-1.8l1.3.9c-.2.7-.2 1.1-.4 1.8l1.3-1.3 1.3.9-.4-1.6 1.3-1.1-1.6.2z"/><linearGradient id="v" x1="85.138" x2="202.655" y1="659.363" y2="659.363" gradientTransform="translate(0 -515.276)" gradientUnits="userSpaceOnUse"><stop offset="0" stop-color="#dfdfdf"/><stop offset=".02" stop-color="#e1e1e1"/><stop offset=".24" stop-color="#f2f2f2"/><stop offset=".49" stop-color="#fcfcfc"/><stop offset=".79" stop-color="#fff"/><stop offset=".84" stop-color="#fcfcfc"/><stop offset=".88" stop-color="#f2f2f2"/><stop offset=".92" stop-color="#e1e1e1"/><stop offset=".95" stop-color="#c9c9c9"/><stop offset=".97" stop-color="#bfbfbf"/><stop offset="1" stop-color="#fff"/></linearGradient><path fill="url(#v)" d="M88.6 141.9c-.2.7-.2.9-.5 1.6h-1.8l1.3 1.1c-.2.7-.2.9-.4 1.6l1.3-1.1 1.3 1.1c-.2-.7-.2-.9-.4-1.6l1.3-1.1h-1.8c.2-.4-.1-.9-.3-1.6z"/><linearGradient id="w" x1="85.138" x2="202.655" y1="651.038" y2="651.038" gradientTransform="translate(0 -515.276)" gradientUnits="userSpaceOnUse"><stop offset="0" stop-color="#dfdfdf"/><stop offset=".02" stop-color="#e1e1e1"/><stop offset=".24" stop-color="#f2f2f2"/><stop offset=".49" stop-color="#fcfcfc"/><stop offset=".79" stop-color="#fff"/><stop offset=".84" stop-color="#fcfcfc"/><stop offset=".88" stop-color="#f2f2f2"/><stop offset=".92" stop-color="#e1e1e1"/><stop offset=".95" stop-color="#c9c9c9"/><stop offset=".97" stop-color="#bfbfbf"/><stop offset="1" stop-color="#fff"/></linearGradient><path fill="url(#w)" d="m88.6 133.6-.5 1.6h-1.8l1.3 1.1c-.2.7-.2.9-.4 1.6l1.3-1.1 1.3 1.1c-.2-.7-.2-.9-.4-1.6l1.3-1.1h-1.8c.2-.7-.1-.9-.3-1.6z"/><linearGradient id="x" x1="85.138" x2="202.61" y1="676.351" y2="676.351" gradientTransform="translate(0 -515.276)" gradientUnits="userSpaceOnUse"><stop offset="0" stop-color="#dfdfdf"/><stop offset=".02" stop-color="#e1e1e1"/><stop offset=".24" stop-color="#f2f2f2"/><stop offset=".49" stop-color="#fcfcfc"/><stop offset=".79" stop-color="#fff"/><stop offset=".84" stop-color="#fcfcfc"/><stop offset=".88" stop-color="#f2f2f2"/><stop offset=".92" stop-color="#e1e1e1"/><stop offset=".95" stop-color="#c9c9c9"/><stop offset=".97" stop-color="#bfbfbf"/><stop offset="1" stop-color="#fff"/></linearGradient><path fill="url(#x)" d="m89.3 160.4-.4-1.6c-.2.7-.2 1.1-.5 1.6h-1.8l1.3 1.1-.5 1.8 1.4-1.1 1.3 1.1c-.2-.7-.2-.9-.5-1.6l1.4-1.1-1.7-.2z"/><linearGradient id="y" x1="85.138" x2="202.632" y1="650.363" y2="650.363" gradientTransform="translate(0 -515.276)" gradientUnits="userSpaceOnUse"><stop offset="0" stop-color="#dfdfdf"/><stop offset=".02" stop-color="#e1e1e1"/><stop offset=".24" stop-color="#f2f2f2"/><stop offset=".49" stop-color="#fcfcfc"/><stop offset=".79" stop-color="#fff"/><stop offset=".84" stop-color="#fcfcfc"/><stop offset=".88" stop-color="#f2f2f2"/><stop offset=".92" stop-color="#e1e1e1"/><stop offset=".95" stop-color="#c9c9c9"/><stop offset=".97" stop-color="#bfbfbf"/><stop offset="1" stop-color="#fff"/></linearGradient><path fill="url(#y)" d="m107.3 137.2 1.4-1.1 1.3.9c-.2-.7-.2-.9-.5-1.6l1.3-1.1-1.8.2c-.2-.7-.2-.9-.5-1.6-.2.7-.2 1.1-.4 1.8h-1.8l1.3.9c.2.5-.1 1-.3 1.6z"/><linearGradient id="z" x1="85.138" x2="202.632" y1="642.038" y2="642.038" gradientTransform="translate(0 -515.276)" gradientUnits="userSpaceOnUse"><stop offset="0" stop-color="#dfdfdf"/><stop offset=".02" stop-color="#e1e1e1"/><stop offset=".24" stop-color="#f2f2f2"/><stop offset=".49" stop-color="#fcfcfc"/><stop offset=".79" stop-color="#fff"/><stop offset=".84" stop-color="#fcfcfc"/><stop offset=".88" stop-color="#f2f2f2"/><stop offset=".92" stop-color="#e1e1e1"/><stop offset=".95" stop-color="#c9c9c9"/><stop offset=".97" stop-color="#bfbfbf"/><stop offset="1" stop-color="#fff"/></linearGradient><path fill="url(#z)" d="m107.3 128.9 1.4-1.1 1.3.9c-.2-.7-.2-.9-.5-1.6l1.3-1.1-1.8.2-.5-1.6c-.2.7-.2 1.1-.4 1.8h-1.8l1.3.9c.2.5-.1.9-.3 1.6z"/><linearGradient id="A" x1="85.138" x2="202.632" y1="668.026" y2="668.026" gradientTransform="translate(0 -515.276)" gradientUnits="userSpaceOnUse"><stop offset="0" stop-color="#dfdfdf"/><stop offset=".02" stop-color="#e1e1e1"/><stop offset=".24" stop-color="#f2f2f2"/><stop offset=".49" stop-color="#fcfcfc"/><stop offset=".79" stop-color="#fff"/><stop offset=".84" stop-color="#fcfcfc"/><stop offset=".88" stop-color="#f2f2f2"/><stop offset=".92" stop-color="#e1e1e1"/><stop offset=".95" stop-color="#c9c9c9"/><stop offset=".97" stop-color="#bfbfbf"/><stop offset="1" stop-color="#fff"/></linearGradient><path fill="url(#A)" d="M88.6 150.5c-.2.7-.2 1.1-.5 1.8h-1.8l1.3 1.1c-.2.4-.2.7-.4 1.6l1.3-1.1 1.3.9-.4-1.6 1.3-1.1h-1.8c.2-.7-.1-1.2-.3-1.6z"/><linearGradient id="B" x1="85.138" x2="202.632" y1="646.875" y2="646.875" gradientTransform="translate(0 -515.276)" gradientUnits="userSpaceOnUse"><stop offset="0" stop-color="#dfdfdf"/><stop offset=".02" stop-color="#e1e1e1"/><stop offset=".24" stop-color="#f2f2f2"/><stop offset=".49" stop-color="#fcfcfc"/><stop offset=".79" stop-color="#fff"/><stop offset=".84" stop-color="#fcfcfc"/><stop offset=".88" stop-color="#f2f2f2"/><stop offset=".92" stop-color="#e1e1e1"/><stop offset=".95" stop-color="#c9c9c9"/><stop offset=".97" stop-color="#bfbfbf"/><stop offset="1" stop-color="#fff"/></linearGradient><path fill="url(#B)" d="M93.8 129.3c-.2.7-.2 1.1-.4 1.8h-1.8l1.4.9-.5 1.8 1.3-1.1 1.4.9c-.2-.7-.2-1.1-.5-1.6l1.3-1.1h-1.8l-.4-1.6z"/><linearGradient id="C" x1="85.138" x2="202.632" y1="655.201" y2="655.201" gradientTransform="translate(0 -515.276)" gradientUnits="userSpaceOnUse"><stop offset="0" stop-color="#dfdfdf"/><stop offset=".02" stop-color="#e1e1e1"/><stop offset=".24" stop-color="#f2f2f2"/><stop offset=".49" stop-color="#fcfcfc"/><stop offset=".79" stop-color="#fff"/><stop offset=".84" stop-color="#fcfcfc"/><stop offset=".88" stop-color="#f2f2f2"/><stop offset=".92" stop-color="#e1e1e1"/><stop offset=".95" stop-color="#c9c9c9"/><stop offset=".97" stop-color="#bfbfbf"/><stop offset="1" stop-color="#fff"/></linearGradient><path fill="url(#C)" d="M93.8 137.7c-.2.7-.2 1.1-.4 1.8h-1.8l1.4.9-.5 1.8 1.3-1.1 1.4.9c-.2-.7-.2-.9-.5-1.6l1.3-1.1h-1.8l-.4-1.6z"/><linearGradient id="D" x1="85.138" x2="202.632" y1="671.963" y2="671.963" gradientTransform="translate(0 -515.276)" gradientUnits="userSpaceOnUse"><stop offset="0" stop-color="#dfdfdf"/><stop offset=".02" stop-color="#e1e1e1"/><stop offset=".24" stop-color="#f2f2f2"/><stop offset=".49" stop-color="#fcfcfc"/><stop offset=".79" stop-color="#fff"/><stop offset=".84" stop-color="#fcfcfc"/><stop offset=".88" stop-color="#f2f2f2"/><stop offset=".92" stop-color="#e1e1e1"/><stop offset=".95" stop-color="#c9c9c9"/><stop offset=".97" stop-color="#bfbfbf"/><stop offset="1" stop-color="#fff"/></linearGradient><path fill="url(#D)" d="M94.2 156.1c-.2-.7-.2-.9-.5-1.6-.2.7-.2 1.1-.4 1.6h-1.8l1.4 1.1c-.2.7-.2.9-.5 1.6l1.3-1.1 1.4.9c-.2-.7-.2-.9-.5-1.6l1.3-1.1-1.7.2z"/><linearGradient id="E" x1="85.138" x2="202.632" y1="663.526" y2="663.526" gradientTransform="translate(0 -515.276)" gradientUnits="userSpaceOnUse"><stop offset="0" stop-color="#dfdfdf"/><stop offset=".02" stop-color="#e1e1e1"/><stop offset=".24" stop-color="#f2f2f2"/><stop offset=".49" stop-color="#fcfcfc"/><stop offset=".79" stop-color="#fff"/><stop offset=".84" stop-color="#fcfcfc"/><stop offset=".88" stop-color="#f2f2f2"/><stop offset=".92" stop-color="#e1e1e1"/><stop offset=".95" stop-color="#c9c9c9"/><stop offset=".97" stop-color="#bfbfbf"/><stop offset="1" stop-color="#fff"/></linearGradient><path fill="url(#E)" d="M93.8 146c-.2.7-.2 1.1-.4 1.8h-1.8l1.4 1.1-.7 1.6 1.4-1.1 1.3.9-.5-1.6 1.4-1.1h-1.6c-.3-.5-.3-.9-.5-1.6z"/><linearGradient id="F" x1="85.138" x2="202.655" y1="642.601" y2="642.601" gradientTransform="translate(0 -515.276)" gradientUnits="userSpaceOnUse"><stop offset="0" stop-color="#dfdfdf"/><stop offset=".02" stop-color="#e1e1e1"/><stop offset=".24" stop-color="#f2f2f2"/><stop offset=".49" stop-color="#fcfcfc"/><stop offset=".79" stop-color="#fff"/><stop offset=".84" stop-color="#fcfcfc"/><stop offset=".88" stop-color="#f2f2f2"/><stop offset=".92" stop-color="#e1e1e1"/><stop offset=".95" stop-color="#c9c9c9"/><stop offset=".97" stop-color="#bfbfbf"/><stop offset="1" stop-color="#fff"/></linearGradient><path fill="url(#F)" d="M88.6 125.1c-.2.7-.2 1.1-.5 1.6h-1.8l1.3 1.1-.4 1.8 1.3-1.1 1.3 1.1c-.2-.7-.2-.9-.4-1.6l1.3-1.1h-1.8l-.3-1.8z"/><linearGradient id="G" x1="85.138" x2="202.655" y1="662.513" y2="662.513" gradientTransform="translate(0 -515.276)" gradientUnits="userSpaceOnUse"><stop offset="0" stop-color="#dfdfdf"/><stop offset=".02" stop-color="#e1e1e1"/><stop offset=".24" stop-color="#f2f2f2"/><stop offset=".49" stop-color="#fcfcfc"/><stop offset=".79" stop-color="#fff"/><stop offset=".84" stop-color="#fcfcfc"/><stop offset=".88" stop-color="#f2f2f2"/><stop offset=".92" stop-color="#e1e1e1"/><stop offset=".95" stop-color="#c9c9c9"/><stop offset=".97" stop-color="#bfbfbf"/><stop offset="1" stop-color="#fff"/></linearGradient><path fill="url(#G)" d="M113.8 144.9c-.2.7-.5 1.1-.5 1.8l-1.8.2 1.3.9c-.2.7-.2 1.1-.4 1.8l1.3-1.1 1.3.9c-.2-.7-.2-.9-.4-1.6l1.3-1.1-1.8.2-.3-2z"/><linearGradient id="H" x1="85.16" x2="202.632" y1="660.488" y2="660.488" gradientTransform="translate(0 -515.276)" gradientUnits="userSpaceOnUse"><stop offset="0" stop-color="#dfdfdf"/><stop offset=".02" stop-color="#e1e1e1"/><stop offset=".24" stop-color="#f2f2f2"/><stop offset=".49" stop-color="#fcfcfc"/><stop offset=".79" stop-color="#fff"/><stop offset=".84" stop-color="#fcfcfc"/><stop offset=".88" stop-color="#f2f2f2"/><stop offset=".92" stop-color="#e1e1e1"/><stop offset=".95" stop-color="#c9c9c9"/><stop offset=".97" stop-color="#bfbfbf"/><stop offset="1" stop-color="#fff"/></linearGradient><path fill="url(#H)" d="M133.8 142.8c-.2.7-.2 1.1-.4 1.8l-1.8.2 1.4.9c-.2.7-.5 1.1-.5 1.8l1.4-1.1 1.3.9c-.2-.7-.4-.9-.4-1.6l1.3-1.1-1.8.2c-.2-1-.2-1.3-.5-2z"/><linearGradient id="I" x1="85.16" x2="202.632" y1="651.938" y2="651.938" gradientTransform="translate(0 -515.276)" gradientUnits="userSpaceOnUse"><stop offset="0" stop-color="#dfdfdf"/><stop offset=".02" stop-color="#e1e1e1"/><stop offset=".24" stop-color="#f2f2f2"/><stop offset=".49" stop-color="#fcfcfc"/><stop offset=".79" stop-color="#fff"/><stop offset=".84" stop-color="#fcfcfc"/><stop offset=".88" stop-color="#f2f2f2"/><stop offset=".92" stop-color="#e1e1e1"/><stop offset=".95" stop-color="#c9c9c9"/><stop offset=".97" stop-color="#bfbfbf"/><stop offset="1" stop-color="#fff"/></linearGradient><path fill="url(#I)" d="M133.8 134.3c-.2.7-.2 1.1-.4 1.8l-1.8.2 1.4.9c-.2.7-.5 1.1-.5 1.8l1.4-1.1 1.3.9c-.2-.7-.4-.9-.4-1.6l1.3-1.1-1.8.2c-.2-.9-.2-1.3-.5-2z"/><linearGradient id="J" x1="85.16" x2="202.632" y1="668.813" y2="668.813" gradientTransform="translate(0 -515.276)" gradientUnits="userSpaceOnUse"><stop offset="0" stop-color="#dfdfdf"/><stop offset=".02" stop-color="#e1e1e1"/><stop offset=".24" stop-color="#f2f2f2"/><stop offset=".49" stop-color="#fcfcfc"/><stop offset=".79" stop-color="#fff"/><stop offset=".84" stop-color="#fcfcfc"/><stop offset=".88" stop-color="#f2f2f2"/><stop offset=".92" stop-color="#e1e1e1"/><stop offset=".95" stop-color="#c9c9c9"/><stop offset=".97" stop-color="#bfbfbf"/><stop offset="1" stop-color="#fff"/></linearGradient><path fill="url(#J)" d="M134.3 152.8c-.2-.7-.2-.9-.5-1.6-.2.7-.2 1.1-.4 1.8l-1.8.2 1.4.9c-.2.7-.5 1.1-.5 1.8l1.4-1.1 1.3.9c-.2-.7-.4-.9-.4-1.6l1.3-1.1-1.8-.2z"/><linearGradient id="K" x1="85.138" x2="202.655" y1="648.451" y2="648.451" gradientTransform="translate(0 -515.276)" gradientUnits="userSpaceOnUse"><stop offset="0" stop-color="#dfdfdf"/><stop offset=".02" stop-color="#e1e1e1"/><stop offset=".24" stop-color="#f2f2f2"/><stop offset=".49" stop-color="#fcfcfc"/><stop offset=".79" stop-color="#fff"/><stop offset=".84" stop-color="#fcfcfc"/><stop offset=".88" stop-color="#f2f2f2"/><stop offset=".92" stop-color="#e1e1e1"/><stop offset=".95" stop-color="#c9c9c9"/><stop offset=".97" stop-color="#bfbfbf"/><stop offset="1" stop-color="#fff"/></linearGradient><path fill="url(#K)" d="m128.7 130.9-.5 1.6-1.8.2 1.3.9c-.2.7-.2 1.1-.4 1.8l1.3-1.1 1.4.9c-.2-.7-.5-.9-.5-1.6l1.4-1.1-1.8.2c0-.9-.2-1.3-.4-1.8z"/><linearGradient id="L" x1="85.16" x2="202.632" y1="643.613" y2="643.613" gradientTransform="translate(0 -515.276)" gradientUnits="userSpaceOnUse"><stop offset="0" stop-color="#dfdfdf"/><stop offset=".02" stop-color="#e1e1e1"/><stop offset=".24" stop-color="#f2f2f2"/><stop offset=".49" stop-color="#fcfcfc"/><stop offset=".79" stop-color="#fff"/><stop offset=".84" stop-color="#fcfcfc"/><stop offset=".88" stop-color="#f2f2f2"/><stop offset=".92" stop-color="#e1e1e1"/><stop offset=".95" stop-color="#c9c9c9"/><stop offset=".97" stop-color="#bfbfbf"/><stop offset="1" stop-color="#fff"/></linearGradient><path fill="url(#L)" d="M133.8 126c-.2.7-.2 1.1-.4 1.8l-2 .2 1.3.9c-.2.7-.4 1.1-.4 1.8l1.3-1.1 1.4.9c-.2-.7-.4-.9-.4-1.6l1.3-1.1c-.7 0-1.1.2-1.8.2 0-1.1 0-1.3-.3-2z"/><linearGradient id="M" x1="85.138" x2="202.655" y1="640.013" y2="640.013" gradientTransform="translate(0 -515.276)" gradientUnits="userSpaceOnUse"><stop offset="0" stop-color="#dfdfdf"/><stop offset=".02" stop-color="#e1e1e1"/><stop offset=".24" stop-color="#f2f2f2"/><stop offset=".49" stop-color="#fcfcfc"/><stop offset=".79" stop-color="#fff"/><stop offset=".84" stop-color="#fcfcfc"/><stop offset=".88" stop-color="#f2f2f2"/><stop offset=".92" stop-color="#e1e1e1"/><stop offset=".95" stop-color="#c9c9c9"/><stop offset=".97" stop-color="#bfbfbf"/><stop offset="1" stop-color="#fff"/></linearGradient><path fill="url(#M)" d="m128.7 122.4-.5 1.8-1.8.2 1.3.9c-.2.7-.2 1.1-.4 1.8l1.3-1.1 1.4.9c-.2-.7-.5-.9-.5-1.6l1.4-1.1-1.8.2c0-.9-.2-1.4-.4-2z"/><linearGradient id="N" x1="85.138" x2="202.632" y1="655.538" y2="655.538" gradientTransform="translate(0 -515.276)" gradientUnits="userSpaceOnUse"><stop offset="0" stop-color="#dfdfdf"/><stop offset=".02" stop-color="#e1e1e1"/><stop offset=".24" stop-color="#f2f2f2"/><stop offset=".49" stop-color="#fcfcfc"/><stop offset=".79" stop-color="#fff"/><stop offset=".84" stop-color="#fcfcfc"/><stop offset=".88" stop-color="#f2f2f2"/><stop offset=".92" stop-color="#e1e1e1"/><stop offset=".95" stop-color="#c9c9c9"/><stop offset=".97" stop-color="#bfbfbf"/><stop offset="1" stop-color="#fff"/></linearGradient><path fill="url(#N)" d="M138.8 137.9c-.2.7-.2 1.1-.5 1.8l-1.8.2 1.3.9c-.2.7-.4 1.1-.4 1.8l1.3-1.1 1.4.9-.5-1.6 1.4-1.3h-1.8c-.2-.7-.2-.9-.4-1.6z"/><linearGradient id="O" x1="85.138" x2="202.632" y1="647.213" y2="647.213" gradientTransform="translate(0 -515.276)" gradientUnits="userSpaceOnUse"><stop offset="0" stop-color="#dfdfdf"/><stop offset=".02" stop-color="#e1e1e1"/><stop offset=".24" stop-color="#f2f2f2"/><stop offset=".49" stop-color="#fcfcfc"/><stop offset=".79" stop-color="#fff"/><stop offset=".84" stop-color="#fcfcfc"/><stop offset=".88" stop-color="#f2f2f2"/><stop offset=".92" stop-color="#e1e1e1"/><stop offset=".95" stop-color="#c9c9c9"/><stop offset=".97" stop-color="#bfbfbf"/><stop offset="1" stop-color="#fff"/></linearGradient><path fill="url(#O)" d="M138.8 129.6c-.2.7-.2 1.1-.5 1.8l-1.8.2 1.3.9c-.2.7-.4 1.1-.4 1.8l1.3-1.1 1.4.9c-.2-.7-.5-.9-.5-1.6l1.4-1.1-1.8-.2c-.2-.7-.2-1-.4-1.6z"/><linearGradient id="P" x1="85.138" x2="202.632" y1="672.413" y2="672.413" gradientTransform="translate(0 -515.276)" gradientUnits="userSpaceOnUse"><stop offset="0" stop-color="#dfdfdf"/><stop offset=".02" stop-color="#e1e1e1"/><stop offset=".24" stop-color="#f2f2f2"/><stop offset=".49" stop-color="#fcfcfc"/><stop offset=".79" stop-color="#fff"/><stop offset=".84" stop-color="#fcfcfc"/><stop offset=".88" stop-color="#f2f2f2"/><stop offset=".92" stop-color="#e1e1e1"/><stop offset=".95" stop-color="#c9c9c9"/><stop offset=".97" stop-color="#bfbfbf"/><stop offset="1" stop-color="#fff"/></linearGradient><path fill="url(#P)" d="M139.2 156.3c-.2-.7-.2-.9-.4-1.6-.2.7-.2 1.1-.5 1.8l-1.8.2 1.3.9-.4 1.8 1.3-1.1 1.4.9c-.2-.7-.2-.9-.5-1.6l1.4-1.1-1.8-.2z"/><linearGradient id="Q" x1="85.138" x2="202.632" y1="638.888" y2="638.888" gradientTransform="translate(0 -515.276)" gradientUnits="userSpaceOnUse"><stop offset="0" stop-color="#dfdfdf"/><stop offset=".02" stop-color="#e1e1e1"/><stop offset=".24" stop-color="#f2f2f2"/><stop offset=".49" stop-color="#fcfcfc"/><stop offset=".79" stop-color="#fff"/><stop offset=".84" stop-color="#fcfcfc"/><stop offset=".88" stop-color="#f2f2f2"/><stop offset=".92" stop-color="#e1e1e1"/><stop offset=".95" stop-color="#c9c9c9"/><stop offset=".97" stop-color="#bfbfbf"/><stop offset="1" stop-color="#fff"/></linearGradient><path fill="url(#Q)" d="m138.8 121.2-.5 1.8-1.8.2 1.3.9c-.2.7-.4 1.1-.4 1.8.4-.5.9-.7 1.3-1.1l1.4.9c-.2-.7-.5-.9-.5-1.6l1.4-1.1-1.8-.2c-.2-.6-.2-1.1-.4-1.6z"/><linearGradient id="R" x1="85.138" x2="202.632" y1="663.976" y2="663.976" gradientTransform="translate(0 -515.276)" gradientUnits="userSpaceOnUse"><stop offset="0" stop-color="#dfdfdf"/><stop offset=".02" stop-color="#e1e1e1"/><stop offset=".24" stop-color="#f2f2f2"/><stop offset=".49" stop-color="#fcfcfc"/><stop offset=".79" stop-color="#fff"/><stop offset=".84" stop-color="#fcfcfc"/><stop offset=".88" stop-color="#f2f2f2"/><stop offset=".92" stop-color="#e1e1e1"/><stop offset=".95" stop-color="#c9c9c9"/><stop offset=".97" stop-color="#bfbfbf"/><stop offset="1" stop-color="#fff"/></linearGradient><path fill="url(#R)" d="M138.8 146.4c-.2.7-.2 1.1-.5 1.8h-1.8l1.3.9-.4 1.8 1.3-1.1 1.4.9c-.2-.7-.2-.9-.5-1.6l1.4-1.1h-1.8c-.2-.7-.2-.9-.4-1.6z"/><linearGradient id="S" x1="85.138" x2="202.655" y1="656.888" y2="656.888" gradientTransform="translate(0 -515.276)" gradientUnits="userSpaceOnUse"><stop offset="0" stop-color="#dfdfdf"/><stop offset=".02" stop-color="#e1e1e1"/><stop offset=".24" stop-color="#f2f2f2"/><stop offset=".49" stop-color="#fcfcfc"/><stop offset=".79" stop-color="#fff"/><stop offset=".84" stop-color="#fcfcfc"/><stop offset=".88" stop-color="#f2f2f2"/><stop offset=".92" stop-color="#e1e1e1"/><stop offset=".95" stop-color="#c9c9c9"/><stop offset=".97" stop-color="#bfbfbf"/><stop offset="1" stop-color="#fff"/></linearGradient><path fill="url(#S)" d="m128.7 139.2-.5 1.8-1.8.2 1.3.9c-.2.7-.2 1.1-.4 1.8l1.3-1.1 1.4.9c-.2-.7-.5-.9-.5-1.6l1.4-1.1-1.8.2c0-1-.2-1.3-.4-2z"/><linearGradient id="T" x1="85.138" x2="202.655" y1="645.863" y2="645.863" gradientTransform="translate(0 -515.276)" gradientUnits="userSpaceOnUse"><stop offset="0" stop-color="#dfdfdf"/><stop offset=".02" stop-color="#e1e1e1"/><stop offset=".24" stop-color="#f2f2f2"/><stop offset=".49" stop-color="#fcfcfc"/><stop offset=".79" stop-color="#fff"/><stop offset=".84" stop-color="#fcfcfc"/><stop offset=".88" stop-color="#f2f2f2"/><stop offset=".92" stop-color="#e1e1e1"/><stop offset=".95" stop-color="#c9c9c9"/><stop offset=".97" stop-color="#bfbfbf"/><stop offset="1" stop-color="#fff"/></linearGradient><path fill="url(#T)" d="M113.8 128.2c-.2.7-.5 1.1-.5 1.8l-1.8.2 1.3.9c-.2.7-.2 1.1-.4 1.8l1.3-1.1 1.3.9c-.2-.7-.2-.9-.4-1.6l1.3-1.1-1.8.2-.3-2z"/><linearGradient id="U" x1="85.138" x2="202.632" y1="666.226" y2="666.226" gradientTransform="translate(0 -515.276)" gradientUnits="userSpaceOnUse"><stop offset="0" stop-color="#dfdfdf"/><stop offset=".02" stop-color="#e1e1e1"/><stop offset=".24" stop-color="#f2f2f2"/><stop offset=".49" stop-color="#fcfcfc"/><stop offset=".79" stop-color="#fff"/><stop offset=".84" stop-color="#fcfcfc"/><stop offset=".88" stop-color="#f2f2f2"/><stop offset=".92" stop-color="#e1e1e1"/><stop offset=".95" stop-color="#c9c9c9"/><stop offset=".97" stop-color="#bfbfbf"/><stop offset="1" stop-color="#fff"/></linearGradient><path fill="url(#U)" d="m118.8 148.7-.4 1.8h-1.8l1.3.9c-.2.7-.5 1.1-.5 1.8l1.3-1.1 1.3.9c-.2-.7-.2-.9-.5-1.6l1.3-1.1-1.8.2c0-.9 0-1.1-.2-1.8z"/><linearGradient id="V" x1="85.138" x2="202.655" y1="665.213" y2="665.213" gradientTransform="translate(0 -515.276)" gradientUnits="userSpaceOnUse"><stop offset="0" stop-color="#dfdfdf"/><stop offset=".02" stop-color="#e1e1e1"/><stop offset=".24" stop-color="#f2f2f2"/><stop offset=".49" stop-color="#fcfcfc"/><stop offset=".79" stop-color="#fff"/><stop offset=".84" stop-color="#fcfcfc"/><stop offset=".88" stop-color="#f2f2f2"/><stop offset=".92" stop-color="#e1e1e1"/><stop offset=".95" stop-color="#c9c9c9"/><stop offset=".97" stop-color="#bfbfbf"/><stop offset="1" stop-color="#fff"/></linearGradient><path fill="url(#V)" d="m128.7 147.6-.5 1.8-1.8.2 1.6.9c-.2.7-.2 1.1-.5 1.8l1.3-1.1 1.3.9c-.2-.7-.4-.9-.4-1.6l1.4-1.1-1.8.2c-.2-.9-.4-1.4-.6-2z"/><linearGradient id="W" x1="85.138" x2="202.632" y1="649.463" y2="649.463" gradientTransform="translate(0 -515.276)" gradientUnits="userSpaceOnUse"><stop offset="0" stop-color="#dfdfdf"/><stop offset=".02" stop-color="#e1e1e1"/><stop offset=".24" stop-color="#f2f2f2"/><stop offset=".49" stop-color="#fcfcfc"/><stop offset=".79" stop-color="#fff"/><stop offset=".84" stop-color="#fcfcfc"/><stop offset=".88" stop-color="#f2f2f2"/><stop offset=".92" stop-color="#e1e1e1"/><stop offset=".95" stop-color="#c9c9c9"/><stop offset=".97" stop-color="#bfbfbf"/><stop offset="1" stop-color="#fff"/></linearGradient><path fill="url(#W)" d="m118.8 131.8-.4 1.8-1.8.2 1.3.9c-.2.7-.5 1.1-.5 1.8l1.3-1.1 1.3.9c-.2-.7-.2-.9-.5-1.6l1.3-1.1-1.8.2c0-.9 0-1.3-.2-2z"/><linearGradient id="X" x1="85.138" x2="202.632" y1="674.888" y2="674.888" gradientTransform="translate(0 -515.276)" gradientUnits="userSpaceOnUse"><stop offset="0" stop-color="#dfdfdf"/><stop offset=".02" stop-color="#e1e1e1"/><stop offset=".24" stop-color="#f2f2f2"/><stop offset=".49" stop-color="#fcfcfc"/><stop offset=".79" stop-color="#fff"/><stop offset=".84" stop-color="#fcfcfc"/><stop offset=".88" stop-color="#f2f2f2"/><stop offset=".92" stop-color="#e1e1e1"/><stop offset=".95" stop-color="#c9c9c9"/><stop offset=".97" stop-color="#bfbfbf"/><stop offset="1" stop-color="#fff"/></linearGradient><path fill="url(#X)" d="m118.8 157.2-.4 1.8-1.8.2 1.3.9c-.2.7-.5 1.1-.5 1.8l1.3-1.1 1.3.9c-.2-.7-.2-.9-.5-1.6l1.3-1.1-1.8.2c0-1 0-1.5-.2-2z"/><linearGradient id="Y" x1="85.138" x2="202.655" y1="654.188" y2="654.188" gradientTransform="translate(0 -515.276)" gradientUnits="userSpaceOnUse"><stop offset="0" stop-color="#dfdfdf"/><stop offset=".02" stop-color="#e1e1e1"/><stop offset=".24" stop-color="#f2f2f2"/><stop offset=".49" stop-color="#fcfcfc"/><stop offset=".79" stop-color="#fff"/><stop offset=".84" stop-color="#fcfcfc"/><stop offset=".88" stop-color="#f2f2f2"/><stop offset=".92" stop-color="#e1e1e1"/><stop offset=".95" stop-color="#c9c9c9"/><stop offset=".97" stop-color="#bfbfbf"/><stop offset="1" stop-color="#fff"/></linearGradient><path fill="url(#Y)" d="M113.8 136.6c-.2.7-.5 1.1-.5 1.8l-1.8.2 1.3.9c-.2.7-.2 1.1-.4 1.8l1.3-1.1 1.3.9c-.2-.7-.2-.9-.4-1.6l1.3-1.1-1.8.2-.3-2z"/><linearGradient id="Z" x1="85.138" x2="202.655" y1="641.138" y2="641.138" gradientTransform="translate(0 -515.276)" gradientUnits="userSpaceOnUse"><stop offset="0" stop-color="#dfdfdf"/><stop offset=".02" stop-color="#e1e1e1"/><stop offset=".24" stop-color="#f2f2f2"/><stop offset=".49" stop-color="#fcfcfc"/><stop offset=".79" stop-color="#fff"/><stop offset=".84" stop-color="#fcfcfc"/><stop offset=".88" stop-color="#f2f2f2"/><stop offset=".92" stop-color="#e1e1e1"/><stop offset=".95" stop-color="#c9c9c9"/><stop offset=".97" stop-color="#bfbfbf"/><stop offset="1" stop-color="#fff"/></linearGradient><path fill="url(#Z)" d="M118.8 123.5c-.2.7-.2 1.1-.4 1.8l-1.8.2 1.3.9c-.2.7-.5 1.1-.5 1.8l1.3-1.1 1.3.9c-.2-.7-.2-.9-.5-1.6l1.3-1.1-1.8.2c0-1.1 0-1.3-.2-2z"/><linearGradient id="aa" x1="85.138" x2="202.632" y1="658.013" y2="658.013" gradientTransform="translate(0 -515.276)" gradientUnits="userSpaceOnUse"><stop offset="0" stop-color="#dfdfdf"/><stop offset=".02" stop-color="#e1e1e1"/><stop offset=".24" stop-color="#f2f2f2"/><stop offset=".49" stop-color="#fcfcfc"/><stop offset=".79" stop-color="#fff"/><stop offset=".84" stop-color="#fcfcfc"/><stop offset=".88" stop-color="#f2f2f2"/><stop offset=".92" stop-color="#e1e1e1"/><stop offset=".95" stop-color="#c9c9c9"/><stop offset=".97" stop-color="#bfbfbf"/><stop offset="1" stop-color="#fff"/></linearGradient><path fill="url(#aa)" d="M118.8 140.4c-.2.7-.2 1.1-.4 1.8l-1.8.2 1.3.9c-.2.7-.2 1.1-.5 1.8l1.3-1.1 1.3.9c-.2-.7-.2-.9-.5-1.6l1.3-1.1-1.8.2c0-1.1 0-1.3-.2-2z"/><linearGradient id="ab" x1="85.138" x2="202.655" y1="673.763" y2="673.763" gradientTransform="translate(0 -515.276)" gradientUnits="userSpaceOnUse"><stop offset="0" stop-color="#dfdfdf"/><stop offset=".02" stop-color="#e1e1e1"/><stop offset=".24" stop-color="#f2f2f2"/><stop offset=".49" stop-color="#fcfcfc"/><stop offset=".79" stop-color="#fff"/><stop offset=".84" stop-color="#fcfcfc"/><stop offset=".88" stop-color="#f2f2f2"/><stop offset=".92" stop-color="#e1e1e1"/><stop offset=".95" stop-color="#c9c9c9"/><stop offset=".97" stop-color="#bfbfbf"/><stop offset="1" stop-color="#fff"/></linearGradient><path fill="url(#ab)" d="M129.3 157.7c-.2-.7-.2-.9-.4-1.6l-.4 1.8-1.8.2 1.3.9c-.2.7-.2 1.1-.5 1.8.5-.4.9-.7 1.4-1.1l1.3.9c-.2-.7-.4-.9-.4-1.6l1.3-1.1-1.8-.2z"/><linearGradient id="ac" x1="85.138" x2="202.632" y1="670.163" y2="670.163" gradientTransform="translate(0 -515.276)" gradientUnits="userSpaceOnUse"><stop offset="0" stop-color="#dfdfdf"/><stop offset=".02" stop-color="#e1e1e1"/><stop offset=".24" stop-color="#f2f2f2"/><stop offset=".49" stop-color="#fcfcfc"/><stop offset=".79" stop-color="#fff"/><stop offset=".84" stop-color="#fcfcfc"/><stop offset=".88" stop-color="#f2f2f2"/><stop offset=".92" stop-color="#e1e1e1"/><stop offset=".95" stop-color="#c9c9c9"/><stop offset=".97" stop-color="#bfbfbf"/><stop offset="1" stop-color="#fff"/></linearGradient><path fill="url(#ac)" d="M124.2 154.1c-.2-.7-.2-.9-.4-1.6-.2.7-.2 1.1-.5 1.8l-1.8.2 1.3.9c-.2.7-.5 1.1-.5 1.8l1.3-1.1 1.3.9c-.2-.7-.4-.9-.4-1.6l1.3-1.1-1.6-.2z"/><linearGradient id="ad" x1="85.138" x2="202.632" y1="644.738" y2="644.738" gradientTransform="translate(0 -515.276)" gradientUnits="userSpaceOnUse"><stop offset="0" stop-color="#dfdfdf"/><stop offset=".02" stop-color="#e1e1e1"/><stop offset=".24" stop-color="#f2f2f2"/><stop offset=".49" stop-color="#fcfcfc"/><stop offset=".79" stop-color="#fff"/><stop offset=".84" stop-color="#fcfcfc"/><stop offset=".88" stop-color="#f2f2f2"/><stop offset=".92" stop-color="#e1e1e1"/><stop offset=".95" stop-color="#c9c9c9"/><stop offset=".97" stop-color="#bfbfbf"/><stop offset="1" stop-color="#fff"/></linearGradient><path fill="url(#ad)" d="M123.7 127.1c-.2.9-.2 1.1-.4 1.8l-1.8.2 1.3.9c-.2.7-.5 1.1-.5 1.8l1.3-1.1 1.3.9c-.2-.7-.5-.9-.5-1.6l1.3-1.1-1.8.2c.3-.9.1-1.3-.2-2z"/><linearGradient id="ae" x1="85.138" x2="202.632" y1="661.613" y2="661.613" gradientTransform="translate(0 -515.276)" gradientUnits="userSpaceOnUse"><stop offset="0" stop-color="#dfdfdf"/><stop offset=".02" stop-color="#e1e1e1"/><stop offset=".24" stop-color="#f2f2f2"/><stop offset=".49" stop-color="#fcfcfc"/><stop offset=".79" stop-color="#fff"/><stop offset=".84" stop-color="#fcfcfc"/><stop offset=".88" stop-color="#f2f2f2"/><stop offset=".92" stop-color="#e1e1e1"/><stop offset=".95" stop-color="#c9c9c9"/><stop offset=".97" stop-color="#bfbfbf"/><stop offset="1" stop-color="#fff"/></linearGradient><path fill="url(#ae)" d="M123.7 144c-.2.7-.2 1.1-.5 1.8l-1.8.2 1.3.9c-.2.7-.5 1.1-.5 1.8l1.3-1.1 1.3.9c-.2-.7-.4-.9-.4-1.6l1.3-1.1-1.8.2c.3-1.1.1-1.3-.2-2z"/><linearGradient id="af" x1="85.138" x2="202.632" y1="653.288" y2="653.288" gradientTransform="translate(0 -515.276)" gradientUnits="userSpaceOnUse"><stop offset="0" stop-color="#dfdfdf"/><stop offset=".02" stop-color="#e1e1e1"/><stop offset=".24" stop-color="#f2f2f2"/><stop offset=".49" stop-color="#fcfcfc"/><stop offset=".79" stop-color="#fff"/><stop offset=".84" stop-color="#fcfcfc"/><stop offset=".88" stop-color="#f2f2f2"/><stop offset=".92" stop-color="#e1e1e1"/><stop offset=".95" stop-color="#c9c9c9"/><stop offset=".97" stop-color="#bfbfbf"/><stop offset="1" stop-color="#fff"/></linearGradient><path fill="url(#af)" d="M123.7 135.7c-.2.7-.2 1.1-.5 1.8l-1.8.2 1.3.9c-.2.7-.5 1.1-.5 1.8l1.3-1.1 1.3.9c-.2-.7-.4-.9-.4-1.6l1.3-1.1-1.8.2c.3-1.1.1-1.4-.2-2z"/></svg>
