<svg width="400" height="400" viewBox="0 0 400 400" fill="none" xmlns="http://www.w3.org/2000/svg"><g clip-path="url(#a)"><path d="M400 200C400 89.543 310.457 0 200 0S0 89.543 0 200s89.543 200 200 200 200-89.543 200-200Z" fill="#1F6F4F"/><path d="M133.164 222.571V178.28c0-2.969 1.975-4.949 4.936-4.949h39.885V128h-41.069C108.681 128 84 149.972 84 179.071v44.293c0 28.9 21.324 48.636 49.756 48.636 17.968 0 34.356-8.255 51.534-24.883l69.896-68.293c2.963-2.969 5.133-5.493 7.7-5.493 2.369 0 3.949 1.93 3.949 4.305v44.084c0 2.97-1.975 4.949-4.936 4.949h-39.884V272h41.266C291.32 272 316 250.027 316 220.73v-43.885C316 147.944 294.676 128 266.242 128c-17.768 0-34.355 8.462-51.532 25.09l-69.896 68.294c-2.963 2.97-5.134 5.285-7.7 5.285-2.37 0-3.95-1.722-3.95-4.098Z" fill="#fff"/></g><defs><clipPath id="a"><path fill="#fff" d="M0 0h400v400H0z"/></clipPath></defs></svg>
