<svg width="32" height="32" viewBox="0 0 32 32" fill="none" xmlns="http://www.w3.org/2000/svg"><rect width="32" height="32" rx="16" fill="#000DCC"/><path d="m25.094 17.66-1.24-.414-2.477-1.654-2.481-2.486v-1.657l-1.652-1.654v-.827h-.827l-2.074.415-1.239 2.074-.827 1.659-1.651 1.657v.819l-1.24 1.239-.411-.412-3.295 1.656-.827.41v1.672l.902.454 1.576-.796 2.074.329v1.654l1.242.415 1.649-1.654h1.239v.824l-.412.827.57.822 1.903-.827-.415-1.242.412-2.074h.827v.827l1.242.415.412 1.255.824.83.825-.828 2.478-.832-.827-.827-.824-1.654h-.827l.425 1.242.412.412-.827.83h-.835l-.824-1.657v-.827l-1.654-1.659.827-.827-1.649-1.654.822-.827v-1.656l.824-.827 1.242 1.242-.412 1.239.824.827 1.654 2.486 1.652.827 2.073 2.074 1.24.414v.83h.827l.803-.835-1.651-.83-.402-1.239Z" fill="#fff"/></svg>
