<svg width="172" height="172" viewBox="41 24 172 172" fill="none" xmlns="http://www.w3.org/2000/svg"><g clip-path="url(#a)"><path d="M126.774 195.548c47.372 0 85.774-38.402 85.774-85.774S174.146 24 126.774 24 41 62.402 41 109.774s38.402 85.774 85.774 85.774Z" fill="#29233B"/><path d="M75.576 142.767c-1.184 1.162-3.159.925-4.003-.503-6.74-11.403-9.792-24.702-8.56-38.405 1.141-12.71 6.096-24.847 14.228-34.68 12.586-15.22 30.763-23.617 50.14-23.431l.297.003c11.703.166 22.88 3.446 32.591 9.428 1.431.882 1.673 2.863.473 4.04l-3.957 3.881a2.562 2.562 0 0 1-3.085.388c-7.864-4.592-16.815-7.106-26.169-7.238l-.61-.007c-9.269-.11-18.46 2.14-26.464 6.817-18.976 11.086-29.058 31.088-26.933 52.314a52.75 52.75 0 0 0 6.44 20.45 2.56 2.56 0 0 1-.447 3.077l-3.941 3.866ZM177.97 76.785l-3.938 3.863a2.56 2.56 0 0 0-.446 3.077 52.772 52.772 0 0 1 6.44 20.459c2.121 21.226-7.964 41.227-26.943 52.31-8.006 4.675-17.199 6.925-26.469 6.812l-.596-.007c-9.354-.132-18.306-2.646-26.17-7.238a2.563 2.563 0 0 0-3.084.387l-3.96 3.885c-1.2 1.178-.96 3.158.472 4.04 9.712 5.982 20.891 9.259 32.594 9.424l.298.004c16.986.163 33.054-6.271 45.238-18.116 13.544-13.167 20.53-31.288 19.248-50.399-.664-9.9-3.673-19.507-8.685-28-.842-1.427-2.816-1.662-3.999-.501Zm-30.725 7.598a9.644 9.644 0 0 0-8.487 4.984l-10.087 18.281-8.329 15.098-2.774 5.028a3.877 3.877 0 0 1-3.41 2.003l-2.285-.01a3.062 3.062 0 0 0-2.695 1.583l-5.978 10.832c-.53.961.162 2.14 1.26 2.145l14.765.067a9.641 9.641 0 0 0 8.486-4.984l9.153-16.589 20.004-36.255a1.447 1.447 0 0 0-1.26-2.145l-8.363-.038Zm-22.123 16.692-6.371-11.799a9.642 9.642 0 0 0-8.441-5.06l-8.363-.038a1.446 1.446 0 0 0-1.279 2.133l15.241 28.225a1.446 1.446 0 0 0 2.539.011l6.668-12.086c.238-.431.24-.953.006-1.386Z" fill="#fff"/></g><defs><clipPath id="a"><path fill="#fff" transform="translate(41 24)" d="M0 0h171.548v171.548H0z"/></clipPath></defs></svg>
