<svg data-name="Layer 2" xmlns="http://www.w3.org/2000/svg" viewBox="0 0 1867.83 1867.83"><g data-name="Layer 1"><circle cx="933.92" cy="933.92" r="933.92" style="fill:#16468e"/><path d="m525.99 1004.61 56.85-207.79h76.84l-96.05 285.41h-75.27l-95.27-285.41h76.25l56.65 207.79Zm154.47 77.63V796.83h102.52c36.72 0 64.65 6.73 83.8 20.19 19.14 13.46 28.72 33 28.72 58.61 0 14.77-3.4 27.38-10.19 37.83-6.8 10.46-16.79 18.17-29.99 23.13 14.9 3.92 26.33 11.24 34.3 21.95 7.97 10.72 11.96 23.79 11.96 39.21 0 27.97-8.85 48.98-26.56 63.02-17.71 14.05-43.94 21.2-78.71 21.46H680.46Zm68.8-166.43h35.87c15.03-.13 25.74-2.88 32.15-8.26 6.4-5.37 9.61-13.3 9.61-23.79 0-12.06-3.46-20.74-10.39-26.05-6.93-5.31-18.1-7.96-33.52-7.96h-33.72v66.06Zm0 45.09v68.41h45.08c12.41 0 21.96-2.84 28.62-8.53 6.66-5.68 10-13.69 10-24.01 0-23.78-11.83-35.74-35.48-35.87h-48.22Zm263.46 121.34h-68.61V796.83h68.61v285.41Zm116.63-52.93h119.77v52.93h-188.58V796.83h68.8v232.49Zm217.59 0h119.77v52.93h-188.58V796.83h68.8v232.49Z" style="fill:#fff"/></g></svg>
