<svg xmlns="http://www.w3.org/2000/svg" width="24" height="24" fill="none"><g clip-path="url(#a)"><mask id="b" maskUnits="userSpaceOnUse" x="0" y="0" width="25" height="26"><path d="M0 .033h25v25H0v-25z" fill="#fff"/></mask><g mask="url(#b)"><path d="M20.536 4.498H4.464v16.071h16.072V4.498z" fill="#000"/><path fill-rule="evenodd" d="M12.5 25.033C5.792 25.041 0 19.241 0 12.533 0 5.565 5.396.026 12.5.033 19.598.04 25 5.565 25 12.533c0 6.701-5.799 12.493-12.5 12.5zm-3.546-6.639H6.531c-.509 0-.76 0-.913-.098a.613.613 0 0 1-.279-.482c-.009-.18.116-.402.368-.843l5.982-10.544c.254-.447.384-.671.546-.755a.614.614 0 0 1 .558 0c.163.083.291.307.546.755l1.229 2.146.006.012c.275.48.414.723.476.979a1.82 1.82 0 0 1 0 .852c-.063.258-.2.503-.479.991l-3.143 5.554-.008.015c-.277.484-.417.73-.611.914a1.83 1.83 0 0 1-.746.433c-.254.071-.539.071-1.11.071zm6.118 0h3.471c.512 0 .77 0 .923-.101.082-.053.15-.124.198-.209s.076-.179.081-.276c.009-.175-.114-.388-.355-.804l-.025-.043-1.739-2.975-.02-.033c-.245-.413-.368-.622-.527-.703a.61.61 0 0 0-.555 0c-.16.083-.288.301-.543.739l-1.732 2.974-.006.011c-.254.437-.38.656-.371.836a.62.62 0 0 0 .279.485c.15.098.407.098.92.098z" fill="#fff"/></g></g><defs><clipPath id="a"><path fill="#fff" transform="translate(0 .033)" d="M0 0h25v25H0z"/></clipPath></defs></svg>
