<svg width="256" height="256" viewBox="0 0 256 256" fill="none" xmlns="http://www.w3.org/2000/svg"><path d="M128 256c70.692 0 128-57.308 128-128C256 57.308 198.692 0 128 0 57.308 0 0 57.307 0 128c0 70.692 57.307 128 128 128Z" fill="#fff"/><path d="M91.036 221.498c47.857 0 47.857-.713 55.972-3.121 10.6-3.148-29.94-31.213-55.972-31.213s-47.133 7.685-47.133 17.165 21.1 17.169 47.133 17.169Z" fill="#000"/><path d="m199.706 75.513 2.2 2.372-1.924 2.6c-62.415 84.39-98.37 122.6-113.625 117.474-9.292-3.121-18.61-12.509-27.929-26.141-3.276-4.791-6.35-9.837-9.149-14.858-1.863-3.343-3.44-6.393-4.258-8.11a20.22 20.22 0 0 1-1.835-5.313l-.042-.213c-.146-.753-.2-.99-.306-1.4a85.088 85.088 0 0 1 123.685-96.148l.324.2c10.291 7.167 21.244 17.012 32.859 29.537Zm-37.159-23.02a77.3 77.3 0 0 0-112.166 87.43c.17.636.245.995.424 1.917l.037.189a12.605 12.605 0 0 0 1.223 3.466c.747 1.567 2.248 4.469 4.031 7.67 2.69 4.826 5.643 9.672 8.774 14.252 8.42 12.316 16.77 20.727 23.972 23.147 9.607 3.227 45.774-35.058 102.931-112.1-10.377-10.955-20.119-19.612-29.226-25.971Z" fill="#000"/><path d="M162.546 52.493a77.3 77.3 0 0 0-112.165 87.43c.169.636.245.995.424 1.917l.037.189a12.617 12.617 0 0 0 1.223 3.464c.747 1.567 2.248 4.469 4.03 7.67 2.69 4.826 5.644 9.672 8.775 14.252 8.419 12.316 16.769 20.727 23.972 23.147 9.607 3.227 45.774-35.058 102.931-112.1-10.377-10.955-20.12-19.611-29.227-25.969Z" fill="#EC1C79"/><path d="M140.663 220.718a85.058 85.058 0 0 1-83.422-101.65 85.056 85.056 0 1 1 83.422 101.65Zm0-7.8a77.246 77.246 0 0 0 42.918-13.02 77.248 77.248 0 0 0 11.707-118.857A77.252 77.252 0 0 0 69.29 165.226a77.257 77.257 0 0 0 41.81 41.809 77.254 77.254 0 0 0 29.563 5.88v.003Z" fill="#000"/><path d="M140.662 212.915a77.256 77.256 0 0 0 71.372-47.689 77.25 77.25 0 0 0-16.746-84.188A77.254 77.254 0 0 0 76.43 92.743a77.25 77.25 0 0 0 64.232 120.172Z" fill="#fff"/><path d="M45.07 111.479a4.37 4.37 0 0 1 3.904-7.817l12.485 6.243a4.381 4.381 0 0 1 2.228 2.525 4.37 4.37 0 0 1-6.136 5.292l-12.482-6.243Zm-1.438 20.701a4.38 4.38 0 0 1-2.311-2.454 4.369 4.369 0 0 1 5.973-5.481l12.485 5.762a4.38 4.38 0 0 1 2.312 2.454 4.369 4.369 0 0 1-5.974 5.481l-12.485-5.762Z" fill="#000"/><mask id="a" mask-type="alpha" maskUnits="userSpaceOnUse" x="84" y="78" width="117" height="117"><path d="M84 78h116.222v116.627H84V78Z" fill="#fff"/></mask><g mask="url(#a)"><path d="M200.222 136.314c0 32.205-26.017 58.313-58.111 58.313-32.094 0-58.111-26.108-58.111-58.313C84 104.108 110.017 78 142.111 78c32.094 0 58.111 26.108 58.111 58.314Z" fill="#E84142"/></g><path d="M123.653 166.069h-12.322a9.883 9.883 0 0 1-4.647-.501 3.131 3.131 0 0 1-1.42-2.443c-.046-.916.592-2.042 1.872-4.274l30.421-53.623c1.295-2.278 1.951-3.417 2.776-3.838a3.14 3.14 0 0 1 2.839 0c.828.421 1.481 1.56 2.776 3.838l6.253 10.918a20.787 20.787 0 0 1 2.442 5.038 9.26 9.26 0 0 1 0 4.335 20.57 20.57 0 0 1-2.442 5.038l-15.981 28.248a20.583 20.583 0 0 1-3.151 4.726 9.306 9.306 0 0 1-3.789 2.199 22.253 22.253 0 0 1-5.627.339Zm48.772.003h-17.657a9.982 9.982 0 0 1-4.677-.498 3.15 3.15 0 0 1-1.42-2.464c-.046-.916.61-2.043 1.917-4.305l8.812-15.129c1.294-2.228 1.951-3.337 2.747-3.758a3.115 3.115 0 0 1 2.825 0c.827.421 1.465 1.527 2.775 3.743l8.854 15.129c1.31 2.262 1.982 3.386 1.933 4.305a3.127 3.127 0 0 1-1.42 2.464 9.807 9.807 0 0 1-4.689.513Z" fill="#fff"/></svg>