<svg viewBox="0 0 90 90" xmlns="http://www.w3.org/2000/svg"><g fill="none" fill-rule="evenodd"><circle cx="45" cy="45" r="45" fill="#1D132F"/><circle cx="45" cy="45" r="41" fill="#F6F6F6"/><path d="M52.732 38.77c0 4.979-7.778 4.375-10.245 4.375v-8.773c2.472 0 10.245-.78 10.245 4.397m2.03 13.618c0 5.441-9.315 4.82-12.284 4.82v-9.635c2.969 0 12.285-.863 12.285 4.837m6.135-15.581c-.497-5.221-4.973-6.947-10.638-7.491v-7.158h-4.35v7.016c-1.155 0-2.33 0-3.5.043v-7.06h-4.374v7.202h-8.87v4.686s3.232-.056 3.184 0a2.26 2.26 0 0 1 2.485 1.925v19.723a1.544 1.544 0 0 1-1.642 1.45c.056.051-3.185 0-3.185 0l-.864 5.234h8.836v7.335h4.377v-7.227h3.496v7.18h4.377v-7.237c7.393-.431 12.53-2.274 13.196-9.199.523-5.58-2.096-8.064-6.283-9.061 2.545-1.295 4.144-3.577 3.764-7.374" fill="#F6A73F"/><path d="M21.31 18.683a35.25 35.25 0 0 1 33.306-7.732l.5.143c.251.073.498.15.744.233.354.112.709.233 1.054.358l.346.125c.471.172.942.358 1.404.552l.056.026a39.808 39.808 0 0 1 10.159 6.317l1.927-2.08c-.26-.259-.527-.496-.79-.742A38.243 38.243 0 0 0 46.051 6.58h-1.512a39.93 39.93 0 0 0-8.499 1.036l-.57.138-.475.125a38.15 38.15 0 0 0-8.003 3.146 30.428 30.428 0 0 0-7.505 5.674l1.823 1.984Zm-2.44 2.421-2.118-1.851c-14.363 15.033-12.271 39.494 0 51.153l2.16-1.687C6.53 55.262 6.513 34.582 18.873 21.104h-.004Zm55.406-.914a24.27 24.27 0 0 0-1.02-1.01l-1.854 2.028c10.889 12.353 13.187 31.964.341 47.062l1.807 2.18c12.76-14.226 13.077-35.665.743-50.26h-.017Zm-5.259 50.967a60.281 60.281 0 0 1-3.746 2.589 35.19 35.19 0 0 1-15.248 6.075 31.68 31.68 0 0 1-8.495.199A35.21 35.21 0 0 1 22.2 71.873l-.865-.626-1.992 1.783c6.97 6.873 16.523 10.178 25.926 10.174h.722a38.235 38.235 0 0 0 23.803-9.117c.302-.285.609-.566.899-.863l-1.677-2.067Z" fill="#534F60" fill-rule="nonzero"/></g></svg>
