<svg width="400" height="400" viewBox="0 0 400 400" fill="none" xmlns="http://www.w3.org/2000/svg"><rect width="400" height="400" rx="200" fill="url(#a)"/><path fill-rule="evenodd" clip-rule="evenodd" d="M295.993 292.292a3.897 3.897 0 0 1-1.811 3.853l-92.646 57.127a3.883 3.883 0 0 1-4.076.005l-91.897-56.415a3.894 3.894 0 0 1-1.837-3.683 3.322 3.322 0 0 1-.019-.372l-.006-70.485c0-.085.005-.17.01-.251a3.884 3.884 0 0 1 5.83-3.616l90.303 52.409 89.47-51.903c.144-.089.298-.161.452-.228a3.861 3.861 0 0 1 2.371-.807 3.893 3.893 0 0 1 3.889 3.89l.006 69.929c0 .188-.015.367-.039.547Zm-184.509-5.637 26.693-16.127-26.698-36.744.005 52.871Zm31.28-9.809c-7.405 4.472-27.69 16.727-27.69 16.727l71.919 44.155-44.229-60.882Zm70.48 60.071 71.421-44.043-27.597-16.593-43.824 60.636Zm48.396-66.963 26.614 16.002-.004-52.821-26.61 36.819Zm-63.747 8.769-76.343-44.312 78.29 107.771 77.564-107.322-75.608 43.863a3.894 3.894 0 0 1-3.903 0Zm-90.434-75.319a3.893 3.893 0 0 1-3.759-3.89l-.008-91.616c0-.229.02-.453.058-.668a3.888 3.888 0 0 1 1.797-3.974l92.65-56.823a3.877 3.877 0 0 1 4.057-.004l91.898 56.105a3.898 3.898 0 0 1 1.865 3.329c0 .059-.005.112-.005.171 0 .058.005.116.005.179l.007 92.822a3.895 3.895 0 0 1-2.457 3.616l-91.85 50.527a3.895 3.895 0 0 1-3.749 0l-90.509-49.774Zm4.011-89.959.006 73.72 33.04-53.851-33.046-19.869Zm176.77-.699-33.352 20.151 33.358 54.362-.006-74.513Zm-37.419 13.519 33.815-20.428-74.117-45.253 40.302 65.681Zm-62.207-64.834-73.54 45.105 33.509 20.15 40.031-65.255ZM113.91 198.076l85.932 47.255 85.914-47.26L199.827 58.03 113.91 198.076Z" fill="url(#b)"/><path fill-rule="evenodd" clip-rule="evenodd" d="M295.993 292.292a3.897 3.897 0 0 1-1.811 3.853l-92.646 57.127a3.883 3.883 0 0 1-4.076.005l-91.897-56.415a3.894 3.894 0 0 1-1.837-3.683 3.322 3.322 0 0 1-.019-.372l-.006-70.485c0-.085.005-.17.01-.251a3.884 3.884 0 0 1 5.83-3.616l90.303 52.409 89.47-51.903c.144-.089.298-.161.452-.228a3.861 3.861 0 0 1 2.371-.807 3.893 3.893 0 0 1 3.889 3.89l.006 69.929c0 .188-.015.367-.039.547Zm-184.509-5.637 26.693-16.127-26.698-36.744.005 52.871Zm31.28-9.809c-7.405 4.472-27.69 16.727-27.69 16.727l71.919 44.155-44.229-60.882Zm70.48 60.071 71.421-44.043-27.597-16.593-43.824 60.636Zm48.396-66.963 26.614 16.002-.004-52.821-26.61 36.819Zm-63.747 8.769-76.343-44.312 78.29 107.771 77.564-107.322-75.608 43.863a3.894 3.894 0 0 1-3.903 0Zm-90.434-75.319a3.893 3.893 0 0 1-3.759-3.89l-.008-91.616c0-.229.02-.453.058-.668a3.888 3.888 0 0 1 1.797-3.974l92.65-56.823a3.877 3.877 0 0 1 4.057-.004l91.898 56.105a3.898 3.898 0 0 1 1.865 3.329c0 .059-.005.112-.005.171 0 .058.005.116.005.179l.007 92.822a3.895 3.895 0 0 1-2.457 3.616l-91.85 50.527a3.895 3.895 0 0 1-3.749 0l-90.509-49.774Zm4.011-89.959.006 73.72 33.04-53.851-33.046-19.869Zm176.77-.699-33.352 20.151 33.358 54.362-.006-74.513Zm-37.419 13.519 33.815-20.428-74.117-45.253 40.302 65.681Zm-62.207-64.834-73.54 45.105 33.509 20.15 40.031-65.255ZM113.91 198.076l85.932 47.255 85.914-47.26L199.827 58.03 113.91 198.076Z" fill="#120370"/><circle cx="200" cy="200" r="184.5" stroke="#120370" stroke-width="7"/><defs><linearGradient id="a" x1="27.715" y1="262.789" x2="374.157" y2="136.805" gradientUnits="userSpaceOnUse"><stop stop-color="#29BCFA"/><stop offset=".43" stop-color="#6464E4"/><stop offset="1" stop-color="#B45AFA"/></linearGradient><linearGradient id="b" x1="198.429" y1="348.481" x2="294.259" y2="107.828" gradientUnits="userSpaceOnUse"><stop stop-color="#29BCFA"/><stop offset=".43" stop-color="#6464E4"/><stop offset="1" stop-color="#B45AFA"/></linearGradient></defs></svg>
