<svg xmlns="http://www.w3.org/2000/svg" width="24" height="24" fill="none"><g clip-path="url(#a)"><path d="M24.864 12.5c0 6.829-5.535 12.364-12.364 12.364S.136 19.329.136 12.5 5.671.136 12.5.136 24.864 5.671 24.864 12.5z" fill="#fff" stroke="#383d51" stroke-width=".5"/><g fill="#000"><path d="M8.89 21.63c4.674 0 4.674-.07 5.466-.304 1.035-.308-2.924-3.048-5.466-3.048s-4.603.75-4.603 1.676S6.348 21.63 8.89 21.63z"/><path d="m19.503 7.374.215.232-.188.254c-6.094 8.241-9.606 11.973-11.096 11.472-.908-.305-1.817-1.222-2.727-2.553a18.8 18.8 0 0 1-.893-1.451c-.146-.26-.285-.524-.416-.792a1.952 1.952 0 0 1-.179-.518l-.004-.021a1.57 1.57 0 0 0-.03-.136 8.31 8.31 0 0 1 2.932-8.693 8.31 8.31 0 0 1 9.147-.697l.032.02c1.005.7 2.074 1.661 3.209 2.885zm-3.629-2.248a7.55 7.55 0 0 0-8.298.65 7.55 7.55 0 0 0-2.656 7.888 2.54 2.54 0 0 1 .041.188l.004.019c.023.118.063.232.12.339a17.717 17.717 0 0 0 1.25 2.14c.822 1.203 1.638 2.024 2.341 2.261.938.315 4.47-3.424 10.052-10.947-1.013-1.07-1.965-1.915-2.854-2.536z"/></g><path d="M15.873 5.126a7.55 7.55 0 0 0-8.297.651 7.55 7.55 0 0 0-2.656 7.887l.041.188.004.019c.023.118.063.232.12.338l.393.749.857 1.391c.822 1.203 1.638 2.024 2.341 2.261.938.315 4.47-3.424 10.052-10.947-1.014-1.07-1.965-1.915-2.854-2.536z" fill="#ec1c79"/><path d="M13.736 21.554a8.31 8.31 0 0 1-3.199-.613 8.32 8.32 0 0 1-4.536-4.499 8.3 8.3 0 0 1 1.818-9.091 8.294 8.294 0 0 1 5.917-2.409 8.305 8.305 0 0 1 5.83 14.156 8.307 8.307 0 0 1-5.83 2.457zm0-.762a7.544 7.544 0 1 0 0-15.088 7.544 7.544 0 0 0 0 15.088z" fill="#000"/><path d="M13.737 20.792a7.545 7.545 0 1 0 0-15.09 7.545 7.545 0 0 0 0 15.09z" fill="#fff"/><g fill="#000"><path fill-rule="evenodd" d="m8.093 14.794-.999-3.008h.875l.521 1.728.576-1.737h.713l.576 1.737.521-1.728h.858l-.999 3.008h-.721l-.602-1.72-.598 1.72h-.721zm3.968-.021v-2.987h2.402v.704H12.88v.453h1.434v.653H12.88v.474h1.604v.704H12.06zm3.576 0v-2.261h-.896v-.726h2.62v.726h-.896v2.261h-.828zm2.087 0v-2.987h.828v1.118h1.063v-1.118h.828v2.987h-.828v-1.135h-1.062v1.135h-.828z"/><path d="M4.401 10.887a.428.428 0 0 1 .382-.764l1.22.61a.426.426 0 0 1 .209.583.427.427 0 0 1-.257.217.43.43 0 0 1-.171.016.432.432 0 0 1-.164-.052l-1.219-.609zm-.14 2.021a.429.429 0 0 1-.209-.566.429.429 0 0 1 .566-.209l1.22.563a.431.431 0 0 1 .267.408.434.434 0 0 1-.141.305.412.412 0 0 1-.319.108.43.43 0 0 1-.165-.048l-1.219-.562z"/></g></g><defs><clipPath id="a"><path fill="#fff" d="M0 0h25v25H0z"/></clipPath></defs></svg>
