<svg xmlns="http://www.w3.org/2000/svg" width="24" height="24" fill="none"><g clip-path="url(#a)"><path d="M12.5 25C19.404 25 25 19.404 25 12.5S19.404 0 12.5 0 0 5.596 0 12.5 5.596 25 12.5 25z" fill="#fff"/><g fill="#000"><path d="M8.89 21.631c4.674 0 4.674-.07 5.466-.305 1.035-.308-2.924-3.048-5.466-3.048s-4.603.75-4.603 1.676 2.061 1.677 4.603 1.677z"/><path d="m19.503 7.374.215.232-.188.254c-6.095 8.241-9.606 11.973-11.096 11.472-.907-.305-1.817-1.222-2.727-2.553a18.777 18.777 0 0 1-1.309-2.243 2.156 2.156 0 0 1-.179-.519l-.004-.021a1.9 1.9 0 0 0-.03-.137 8.31 8.31 0 0 1 2.931-8.693 8.31 8.31 0 0 1 9.147-.697l.032.02c1.005.7 2.075 1.661 3.209 2.884zm-3.629-2.248a7.55 7.55 0 0 0-8.298.65 7.55 7.55 0 0 0-2.656 7.888c.017.062.024.097.041.187l.004.018a1.23 1.23 0 0 0 .119.339c.073.153.22.436.394.749a18.09 18.09 0 0 0 .857 1.392c.822 1.203 1.638 2.024 2.341 2.26.938.315 4.47-3.424 10.052-10.947-1.013-1.07-1.965-1.915-2.854-2.536z"/></g><path d="M15.874 5.126a7.55 7.55 0 0 0-8.298.65 7.55 7.55 0 0 0-2.656 7.888l.041.187.004.018a1.23 1.23 0 0 0 .119.338l.394.749.857 1.392c.822 1.203 1.638 2.024 2.341 2.261.938.315 4.47-3.424 10.052-10.947-1.013-1.07-1.965-1.915-2.854-2.536z" fill="#ec1c79"/><path d="M13.737 21.555a8.306 8.306 0 1 1-.002-16.613 8.306 8.306 0 0 1 .002 16.614zm0-.762a7.541 7.541 0 0 0 7.103-10.085 7.55 7.55 0 0 0-6.364-4.966 7.544 7.544 0 1 0-.74 15.052z" fill="#000"/><path d="M13.737 20.793a7.541 7.541 0 0 0 7.399-9.016 7.543 7.543 0 0 0-8.139-6.037 7.533 7.533 0 0 0-5.533 3.316 7.545 7.545 0 0 0 6.274 11.736z" fill="#fff"/><path d="M13.314 8.153a1.04 1.04 0 0 1 .892 0l2.585 1.363c.153.08.236.2.251.324h.002v6.85c-.003.135-.088.269-.254.357l-2.585 1.363a1.04 1.04 0 0 1-.892 0l-2.585-1.363c-.165-.087-.245-.222-.248-.357V9.839h.001c.011-.125.091-.242.247-.324l2.585-1.363zm3.32 5.495-2.429 1.284a1.04 1.04 0 0 1-.891 0l-2.423-1.282v3.018l2.423 1.275c.143.076.292.151.437.155h.008c.145 0 .285-.073.428-.143l2.446-1.298v-3.01zm-6.559 2.893c0 .263.03.435.09.557.05.101.124.178.261.271l.008.005.103.067.047.029.145.089-.208.348-.163-.099-.027-.017-.122-.079c-.389-.264-.534-.553-.537-1.152v-.018h.403zm3.489-4.714a.493.493 0 0 0-.053.022l-2.581 1.367-.01.005.004.002.006.003 2.581 1.367a.36.36 0 0 0 .053.023v-2.791zm.411 0v2.791a.36.36 0 0 0 .053-.023l2.581-1.367.008-.004.002-.001-.004-.002-.006-.003-2.581-1.367a.31.31 0 0 0-.053-.022zm2.658-1.498-2.321 1.219 2.321 1.219v-2.438zm-5.743 0v2.438l2.321-1.219-2.321-1.219zm3.134-1.812a.642.642 0 0 0-.512 0L10.93 9.883l-.01.006.004.002.006.003 2.583 1.366a.64.64 0 0 0 .512 0l2.583-1.366.01-.005-.004-.002-.006-.003-2.583-1.366zm2.993.138.163.099.027.017.122.079c.389.264.534.553.537 1.152v.018h-.403c0-.263-.03-.435-.09-.557a.697.697 0 0 0-.261-.271l-.008-.005-.103-.067-.047-.029-.145-.088.208-.348z" fill="#1969ff"/><path d="M4.401 10.887a.426.426 0 0 1 .06-.781.428.428 0 0 1 .322.017l1.219.61a.44.44 0 0 1 .217.247.431.431 0 0 1-.125.46.423.423 0 0 1-.474.057l-1.219-.61zm-.14 2.022a.43.43 0 0 1-.226-.24c-.03-.08-.035-.166-.016-.249s.064-.158.127-.215.141-.095.225-.108.17 0 .247.037l1.219.563a.427.427 0 0 1 .137.097.43.43 0 0 1 .089.142.42.42 0 0 1-.111.464.421.421 0 0 1-.472.071l-1.219-.563z" fill="#000"/></g><defs><clipPath id="a"><path fill="#fff" d="M0 0h25v25H0z"/></clipPath></defs></svg>
