<svg width="256" height="256" viewBox="0 0 256 256" fill="none" xmlns="http://www.w3.org/2000/svg"><path d="M128 256c70.692 0 128-57.308 128-128C256 57.308 198.692 0 128 0 57.308 0 0 57.307 0 128c0 70.692 57.307 128 128 128Z" fill="#fff"/><path d="M91.036 221.498c47.857 0 47.857-.713 55.972-3.121 10.6-3.148-29.94-31.213-55.972-31.213s-47.133 7.685-47.133 17.165 21.1 17.169 47.133 17.169Z" fill="#000"/><path d="m199.706 75.513 2.2 2.372-1.924 2.6c-62.415 84.39-98.37 122.6-113.625 117.474-9.292-3.121-18.61-12.509-27.929-26.141-3.276-4.791-6.35-9.837-9.149-14.858-1.863-3.343-3.44-6.393-4.258-8.11a20.22 20.22 0 0 1-1.835-5.313l-.042-.213c-.146-.753-.2-.99-.306-1.4a85.088 85.088 0 0 1 123.685-96.148l.324.2c10.291 7.167 21.244 17.012 32.859 29.537Zm-37.159-23.02a77.3 77.3 0 0 0-112.166 87.43c.17.636.245.995.424 1.917l.037.189a12.605 12.605 0 0 0 1.223 3.466c.747 1.567 2.248 4.469 4.031 7.67 2.69 4.826 5.643 9.672 8.774 14.252 8.42 12.316 16.77 20.727 23.972 23.147 9.607 3.227 45.774-35.058 102.931-112.1-10.377-10.955-20.119-19.612-29.226-25.971Z" fill="#000"/><path d="M162.546 52.493a77.3 77.3 0 0 0-112.165 87.43c.169.636.245.995.424 1.917l.037.189a12.617 12.617 0 0 0 1.223 3.464c.747 1.567 2.248 4.469 4.03 7.67 2.69 4.826 5.644 9.672 8.775 14.252 8.419 12.316 16.769 20.727 23.972 23.147 9.607 3.227 45.774-35.058 102.931-112.1-10.377-10.955-20.12-19.611-29.227-25.969Z" fill="#EC1C79"/><path d="M140.663 220.718a85.058 85.058 0 0 1-83.422-101.65 85.056 85.056 0 1 1 83.422 101.65Zm0-7.8a77.246 77.246 0 0 0 42.918-13.02 77.248 77.248 0 0 0 11.707-118.857A77.252 77.252 0 0 0 69.29 165.226a77.257 77.257 0 0 0 41.81 41.809 77.254 77.254 0 0 0 29.563 5.88v.003Z" fill="#000"/><path d="M140.662 212.915a77.256 77.256 0 0 0 71.372-47.689 77.25 77.25 0 0 0-16.746-84.188A77.254 77.254 0 0 0 76.43 92.743a77.251 77.251 0 0 0 64.232 120.172Z" fill="#fff"/><path d="M136.331 83.487c2.594-1.368 6.541-1.368 9.135 0l26.472 13.955c1.562.824 2.42 2.051 2.574 3.318h.025v70.147c-.034 1.382-.9 2.755-2.599 3.651l-26.472 13.955c-2.594 1.368-6.541 1.368-9.135 0l-26.471-13.955c-1.692-.892-2.504-2.274-2.544-3.651a4.575 4.575 0 0 1 0-.353v-69.322a3.53 3.53 0 0 1 0-.291v-.181h.012c.117-1.28.936-2.477 2.532-3.318l26.471-13.955Zm33.995 56.273-24.868 13.153c-2.59 1.37-6.532 1.37-9.122 0l-24.813-13.124v30.901l24.813 13.055c1.466.784 2.991 1.549 4.475 1.582l.086.001c1.482.005 2.92-.748 4.379-1.462l25.05-13.288V139.76Zm-67.161 29.627c0 2.689.31 4.456.925 5.701.51 1.032 1.275 1.821 2.671 2.781l.08.054c.307.209.644.427 1.055.684l.485.299 1.488.907-2.134 3.56-1.666-1.015-.28-.173c-.482-.3-.881-.558-1.253-.811-3.981-2.708-5.465-5.66-5.495-11.8v-.187h4.124Zm35.73-48.276a3.834 3.834 0 0 0-.538.23l-26.431 14.001c-.028.014-.054.029-.079.043l-.023.013.042.024.06.033 26.431 14c.164.088.345.164.538.231v-28.575Zm4.21 0v28.575c.193-.067.374-.143.538-.231l26.431-14 .079-.044.023-.013-.042-.023-.06-.033-26.431-14.001a3.834 3.834 0 0 0-.538-.23Zm27.221-15.34-23.762 12.483 23.762 12.482v-24.965Zm-58.803 0v24.965l23.762-12.482-23.762-12.483Zm32.097-18.554c-1.375-.727-3.864-.727-5.24 0l-26.454 13.986a1.867 1.867 0 0 0-.079.044l-.023.013.042.024.06.032 26.454 13.986c1.376.728 3.865.728 5.24 0l26.454-13.986c.028-.014.054-.029.079-.043l.023-.013-.042-.024-.06-.033-26.454-13.986Zm30.645 1.41 1.666 1.015.28.173c.482.3.881.558 1.253.811 3.981 2.708 5.465 5.66 5.495 11.8v.187h-4.124c0-2.689-.31-4.456-.925-5.701-.51-1.033-1.275-1.821-2.671-2.78l-.08-.055a32.578 32.578 0 0 0-1.055-.684l-.485-.3-1.488-.906 2.134-3.56Z" fill="#1969FF"/><path d="M45.07 111.479a4.37 4.37 0 0 1 3.904-7.817l12.485 6.243a4.381 4.381 0 0 1 2.228 2.525 4.37 4.37 0 0 1-6.136 5.292l-12.482-6.243Zm-1.438 20.701a4.38 4.38 0 0 1-2.311-2.454 4.369 4.369 0 0 1 5.973-5.481l12.485 5.762a4.38 4.38 0 0 1 2.312 2.454 4.369 4.369 0 0 1-5.974 5.481l-12.485-5.762Z" fill="#000"/></svg>
