<svg xmlns="http://www.w3.org/2000/svg" width="24" height="24" fill="none"><g clip-path="url(#a)"><path d="M12.5 24.779a12.25 12.25 0 0 0 12.245-12.245A12.25 12.25 0 0 0 12.5.288 12.25 12.25 0 0 0 .254 12.533 12.25 12.25 0 0 0 12.5 24.779z" fill="#fff"/><path d="m16.042 15.176 3.464-2a.59.59 0 0 0 .297-.515V8.66a.6.6 0 0 0-.297-.515l-3.464-2a.595.595 0 0 0-.594 0l-3.464 2a.59.59 0 0 0-.297.515v7.15l-2.43 1.402-2.429-1.402v-2.806l2.429-1.402 1.603.925v-1.882l-1.306-.754a.595.595 0 0 0-.594 0l-3.465 2.001a.59.59 0 0 0-.297.515v4c0 .212.114.409.297.515l3.465 2.001a.6.6 0 0 0 .594 0l3.465-2a.6.6 0 0 0 .217-.218.596.596 0 0 0 .08-.297v-7.15l.044-.025 2.385-1.377 2.43 1.402v2.806l-2.43 1.402-1.6-.924v1.882l1.303.753a.6.6 0 0 0 .595 0z" fill="url(#b)"/></g><defs><linearGradient id="b" x1="6.438" y1="16.953" x2="18.992" y2="7.799" gradientUnits="userSpaceOnUse"><stop stop-color="#a726c1"/><stop offset=".88" stop-color="#803bdf"/><stop offset="1" stop-color="#7b3fe4"/></linearGradient><clipPath id="a"><path fill="#fff" transform="translate(0 .033)" d="M0 0h25v25H0z"/></clipPath></defs></svg>
