<svg width="1440" height="1440" viewBox="0 0 1440 1440" xmlns="http://www.w3.org/2000/svg"><defs><clipPath clipPathUnits="userSpaceOnUse" id="a"><path d="M0 1080h1080V0H0Z" transform="translate(-659.29 -671.352)"/></clipPath><clipPath clipPathUnits="userSpaceOnUse" id="b"><path d="M0 1080h1080V0H0Z" transform="translate(-390.842 -939.7)"/></clipPath><clipPath clipPathUnits="userSpaceOnUse" id="c"><path d="M0 1080h1080V0H0Z" transform="translate(-927.524 -939.7)"/></clipPath><clipPath clipPathUnits="userSpaceOnUse" id="d"><path d="M0 1080h1080V0H0Z" transform="translate(-390.842 -403.026)"/></clipPath><clipPath clipPathUnits="userSpaceOnUse" id="e"><path d="M0 1080h1080V0H0Z" transform="translate(-927.524 -403.026)"/></clipPath></defs><path d="M0 0h1080v1080H0Z" style="fill:#000;fill-opacity:1;fill-rule:nonzero;stroke:none" transform="matrix(1.33333 0 0 -1.33333 0 1440)"/><path d="M0 0h-232.56c-9.88 0-17.891-8.007-17.891-17.887V-250.45c0-9.88 8.011-17.891 17.891-17.891H0c9.88 0 17.89 8.011 17.89 17.891v232.563C17.89-8.007 9.88 0 0 0" style="fill:#fff;fill-opacity:1;fill-rule:nonzero;stroke:none" transform="matrix(1.33333 0 0 -1.33333 879.054 544.864)" clip-path="url(#a)"/><path d="M0 0h-232.56c-9.88 0-17.89-8.007-17.89-17.891V-250.45c0-9.88 8.01-17.891 17.89-17.891H0c9.883 0 17.89 8.011 17.89 17.891v232.559C17.89-8.007 9.883 0 0 0" style="fill:#fff;fill-opacity:1;fill-rule:nonzero;stroke:none" transform="matrix(1.33333 0 0 -1.33333 521.122 187.066)" clip-path="url(#b)"/><path d="M0 0h-232.563c-9.88 0-17.891-8.007-17.891-17.891V-250.45c0-9.88 8.011-17.891 17.891-17.891H0c9.88 0 17.887 8.011 17.887 17.891v232.559C17.887-8.007 9.88 0 0 0" style="fill:#fff;fill-opacity:1;fill-rule:nonzero;stroke:none" transform="matrix(1.33333 0 0 -1.33333 1236.698 187.066)" clip-path="url(#c)"/><path d="M0 0h-232.56c-9.88 0-17.89-8.007-17.89-17.887v-232.564c0-9.879 8.01-17.89 17.89-17.89H0c9.883 0 17.89 8.011 17.89 17.89v232.564C17.89-8.007 9.883 0 0 0" style="fill:#fff;fill-opacity:1;fill-rule:nonzero;stroke:none" transform="matrix(1.33333 0 0 -1.33333 521.122 902.632)" clip-path="url(#d)"/><path d="M0 0h-232.563c-9.88 0-17.891-8.007-17.891-17.887v-232.564c0-9.879 8.011-17.89 17.891-17.89H0c9.88 0 17.887 8.011 17.887 17.89v232.564C17.887-8.007 9.88 0 0 0" style="fill:#fff;fill-opacity:1;fill-rule:nonzero;stroke:none" transform="matrix(1.33333 0 0 -1.33333 1236.698 902.632)" clip-path="url(#e)"/></svg>
