<svg width="256" height="256" viewBox="0 0 256 256" fill="none" xmlns="http://www.w3.org/2000/svg"><path d="M128 256c70.692 0 128-57.308 128-128C256 57.308 198.692 0 128 0 57.308 0 0 57.307 0 128c0 70.692 57.307 128 128 128Z" fill="#fff"/><path d="M91.036 221.498c47.857 0 47.857-.713 55.972-3.121 10.6-3.148-29.94-31.213-55.972-31.213s-47.133 7.685-47.133 17.165 21.1 17.169 47.133 17.169Z" fill="#000"/><path d="m199.706 75.513 2.2 2.372-1.924 2.6c-62.415 84.39-98.37 122.6-113.625 117.474-9.292-3.121-18.61-12.509-27.929-26.141-3.276-4.791-6.35-9.837-9.149-14.858-1.863-3.343-3.44-6.393-4.258-8.11a20.22 20.22 0 0 1-1.835-5.313l-.042-.213c-.146-.753-.2-.99-.306-1.4a85.088 85.088 0 0 1 123.685-96.148l.324.2c10.291 7.167 21.244 17.012 32.859 29.537Zm-37.159-23.02a77.3 77.3 0 0 0-112.166 87.43c.17.636.245.995.424 1.917l.037.189a12.605 12.605 0 0 0 1.223 3.466c.747 1.567 2.248 4.469 4.031 7.67 2.69 4.826 5.643 9.672 8.774 14.252 8.42 12.316 16.77 20.727 23.972 23.147 9.607 3.227 45.774-35.058 102.931-112.1-10.377-10.955-20.119-19.612-29.226-25.971Z" fill="#000"/><path d="M162.546 52.493a77.3 77.3 0 0 0-112.165 87.43c.169.636.245.995.424 1.917l.037.189a12.617 12.617 0 0 0 1.223 3.464c.747 1.567 2.248 4.469 4.03 7.67 2.69 4.826 5.644 9.672 8.775 14.252 8.419 12.316 16.769 20.727 23.972 23.147 9.607 3.227 45.774-35.058 102.931-112.1-10.377-10.955-20.12-19.611-29.227-25.969Z" fill="#EC1C79"/><path d="M140.663 220.718a85.058 85.058 0 0 1-83.422-101.65 85.056 85.056 0 1 1 83.422 101.65Zm0-7.8a77.246 77.246 0 0 0 42.918-13.02 77.248 77.248 0 0 0 11.707-118.857A77.252 77.252 0 0 0 69.29 165.226a77.257 77.257 0 0 0 41.81 41.809 77.254 77.254 0 0 0 29.563 5.88v.003Z" fill="#000"/><path d="M140.662 212.915a77.256 77.256 0 0 0 71.372-47.689 77.25 77.25 0 0 0-16.746-84.188A77.254 77.254 0 0 0 76.43 92.743a77.251 77.251 0 0 0 64.232 120.172Z" fill="#fff"/><circle cx="140.41" cy="135.41" r="77" fill="#fff"/><path d="M166.81 89.21c-10.904 0-19.8 8.923-20.087 19.86v22.163c-2.009 0-4.017.288-6.313.288-2.296 0-4.304 0-6.313.288V109.07c0-10.937-9.183-19.86-20.374-19.572-10.617 0-19.226 8.922-19.513 19.572v52.961c.287 10.937 9.183 19.86 20.374 19.572 10.904-.287 19.513-8.922 19.513-19.572v-22.163c2.009 0 4.017-.288 6.313-.288 2.296 0 4.304 0 6.313-.287v22.45c.287 10.938 9.183 19.86 20.374 19.573 10.904-.288 19.513-8.923 19.513-19.573V109.07c0-10.937-8.896-19.86-19.8-19.86Zm-52.513 8.06c6.6 0 11.765 5.18 11.765 11.8v23.314c-5.739.864-11.478 2.591-16.93 4.894-2.296 1.151-4.592 2.302-6.6 4.029V109.07c0-6.332 5.165-11.8 11.765-11.8Zm11.765 64.761c0 6.62-5.165 11.801-11.765 11.801-6.6 0-11.765-5.181-11.765-11.801v-5.181c0-4.605 3.73-9.211 10.043-11.801 4.305-2.015 8.896-3.166 13.774-4.03l-.287 21.012Zm40.748 11.801c-6.6 0-11.765-5.181-11.765-11.801v-23.314c5.739-.864 11.478-2.591 16.93-4.893 2.295-1.152 4.591-2.303 6.6-4.03v32.237c0 6.62-5.452 11.801-11.765 11.801Zm1.721-47.492c-4.304 2.015-8.895 3.166-13.773 4.03v-21.3c0-6.62 5.165-11.8 11.765-11.8 6.6 0 11.765 5.18 11.765 11.8v5.181c.287 4.893-3.444 9.211-9.757 12.089Z" fill="url(#a)"/><path d="M45.07 111.479a4.37 4.37 0 0 1 3.904-7.817l12.485 6.243a4.381 4.381 0 0 1 2.228 2.525 4.37 4.37 0 0 1-6.136 5.292l-12.482-6.243Zm-1.438 20.701a4.38 4.38 0 0 1-2.311-2.454 4.369 4.369 0 0 1 5.973-5.481l12.485 5.762a4.38 4.38 0 0 1 2.312 2.454 4.369 4.369 0 0 1-5.974 5.481l-12.485-5.762Z" fill="#000"/><defs><linearGradient id="a" x1="140.41" y1="89.21" x2="76.511" y2="152.915" gradientUnits="userSpaceOnUse"><stop stop-color="#00E8A2"/><stop offset="1" stop-color="#00ADE8"/></linearGradient></defs></svg>
