<svg xmlns="http://www.w3.org/2000/svg" width="24" height="24" fill="none"><g clip-path="url(#a)"><path d="M12.5 25C19.404 25 25 19.404 25 12.5S19.404 0 12.5 0 0 5.596 0 12.5 5.596 25 12.5 25z" fill="#fff"/><g fill="#000"><path d="M8.89 21.631c4.674 0 4.674-.07 5.466-.305 1.035-.308-2.924-3.048-5.466-3.048s-4.603.75-4.603 1.676 2.061 1.677 4.603 1.677z"/><path d="m19.503 7.374.215.232-.188.254c-6.095 8.241-9.606 11.973-11.096 11.472-.907-.305-1.817-1.222-2.727-2.553a18.777 18.777 0 0 1-1.309-2.243 2.156 2.156 0 0 1-.179-.519l-.004-.021a1.9 1.9 0 0 0-.03-.137 8.31 8.31 0 0 1 2.931-8.693 8.31 8.31 0 0 1 9.147-.697l.032.02c1.005.7 2.075 1.661 3.209 2.884zm-3.629-2.248a7.55 7.55 0 0 0-8.298.65 7.55 7.55 0 0 0-2.656 7.888c.017.062.024.097.041.187l.004.018a1.23 1.23 0 0 0 .119.339c.073.153.22.436.394.749a18.09 18.09 0 0 0 .857 1.392c.822 1.203 1.638 2.024 2.341 2.26.938.315 4.47-3.424 10.052-10.947-1.013-1.07-1.965-1.915-2.854-2.536z"/></g><path d="M15.874 5.126a7.55 7.55 0 0 0-8.298.65 7.55 7.55 0 0 0-2.656 7.888l.041.187.004.018a1.23 1.23 0 0 0 .119.338l.394.749.857 1.392c.822 1.203 1.638 2.024 2.341 2.261.938.315 4.47-3.424 10.052-10.947-1.013-1.07-1.965-1.915-2.854-2.536z" fill="#ec1c79"/><path d="M13.737 21.555a8.306 8.306 0 1 1-.002-16.613 8.306 8.306 0 0 1 .002 16.614zm0-.762a7.541 7.541 0 0 0 7.103-10.085 7.55 7.55 0 0 0-6.364-4.966 7.544 7.544 0 1 0-.74 15.052z" fill="#000"/><g fill="#fff"><path d="M13.737 20.793a7.541 7.541 0 0 0 7.399-9.016 7.55 7.55 0 0 0-4.858-5.632 7.546 7.546 0 0 0-8.814 2.911 7.545 7.545 0 0 0 6.274 11.736z"/><path d="M13.712 20.743a7.52 7.52 0 0 0 7.52-7.52 7.52 7.52 0 0 0-7.52-7.519 7.52 7.52 0 0 0-7.52 7.519 7.52 7.52 0 0 0 7.52 7.52z"/></g><path d="M16.29 8.712c-1.065 0-1.934.871-1.962 1.939v2.164l-.617.028-.617.028V10.65c0-1.068-.897-1.939-1.99-1.911-1.037 0-1.878.871-1.906 1.911v5.172c.028 1.068.897 1.939 1.99 1.911 1.065-.028 1.906-.871 1.906-1.911v-2.164l.617-.028.617-.028v2.192c.028 1.068.897 1.94 1.99 1.911 1.065-.028 1.906-.871 1.906-1.911V10.65a1.94 1.94 0 0 0-1.934-1.939zm-5.128.787c.645 0 1.149.506 1.149 1.152v2.277a6.917 6.917 0 0 0-1.653.478c-.224.112-.448.225-.645.393v-3.148c0-.618.504-1.152 1.149-1.152zm1.149 6.324c0 .646-.504 1.152-1.149 1.152s-1.149-.506-1.149-1.152v-.506c0-.45.364-.899.981-1.152.42-.197.869-.309 1.345-.393l-.028 2.052zm3.979 1.152a1.138 1.138 0 0 1-1.149-1.152v-2.277a6.917 6.917 0 0 0 1.653-.478c.224-.112.448-.225.645-.394v3.148c0 .646-.532 1.152-1.149 1.152zm.168-4.638c-.42.197-.869.309-1.345.394v-2.08c0-.647.504-1.152 1.149-1.152s1.149.506 1.149 1.152v.506c.028.478-.336.9-.953 1.181z" fill="url(#b)"/><path d="M4.401 10.887a.426.426 0 0 1 .06-.781.428.428 0 0 1 .322.017l1.219.61a.44.44 0 0 1 .217.247.431.431 0 0 1-.125.46.423.423 0 0 1-.474.057l-1.219-.61zm-.14 2.022a.43.43 0 0 1-.226-.24c-.03-.08-.035-.166-.016-.249s.064-.158.127-.215.141-.095.225-.108.17 0 .247.037l1.219.563a.427.427 0 0 1 .137.097.43.43 0 0 1 .089.142.42.42 0 0 1-.111.464.421.421 0 0 1-.472.071l-1.219-.563z" fill="#000"/></g><defs><linearGradient id="b" x1="13.712" y1="8.712" x2="7.472" y2="14.933" gradientUnits="userSpaceOnUse"><stop stop-color="#00e8a2"/><stop offset="1" stop-color="#00ade8"/></linearGradient><clipPath id="a"><path fill="#fff" d="M0 0h25v25H0z"/></clipPath></defs></svg>
