<svg width="24" height="24" viewBox="0 0 24 24" fill="none" xmlns="http://www.w3.org/2000/svg"><g clip-path="url(#a)"><path d="M24 12c0-6.627-5.373-12-12-12S0 5.373 0 12s5.373 12 12 12 12-5.373 12-12Z" fill="#F5F5F5"/><path d="M13.836 14.183c-3.402 1.021-6.216 2.51-7.977 4.254l-.078.077a9.13 9.13 0 0 0 1.537 1.176l.12-.146c.48-.587.996-1.154 1.533-1.689a22.613 22.613 0 0 1 4.867-3.673l-.002.001ZM2.999 12.671a8.922 8.922 0 0 0 1.874 4.846l.049-.049c1.09-1.074 2.51-2.052 4.223-2.903 1.501-.747 3.225-1.388 5.082-1.894H3Zm6.924-7.479a20.919 20.919 0 0 0 11.076 5.793C20.493 6.494 16.665 3 12.015 3a9.07 9.07 0 0 0-3.467.686c.434.522.897 1.03 1.375 1.506Zm-4.064.371c1.761 1.746 4.575 3.233 7.977 4.255A22.672 22.672 0 0 1 8.97 6.145c-.535-.533-1.05-1.1-1.533-1.689l-.12-.146a9.046 9.046 0 0 0-1.535 1.176l.078.077Zm4.064 13.245c-.48.477-.943.984-1.375 1.506a9.062 9.062 0 0 0 3.467.686c4.65 0 8.477-3.494 8.986-7.987a20.919 20.919 0 0 0-11.077 5.793l-.001.002Zm-.778-9.373c-1.713-.851-3.133-1.829-4.223-2.903l-.05-.049A8.922 8.922 0 0 0 3 11.329h11.226c-1.857-.506-3.579-1.147-5.082-1.896l.002.002Z" fill="#141416"/></g><defs><clipPath id="a"><path fill="#fff" d="M0 0h24v24H0z"/></clipPath></defs></svg>
