<svg width="256" height="256" viewBox="0 0 256 256" fill="none" xmlns="http://www.w3.org/2000/svg"><g clip-path="url(#a)"><path d="M128 256.006c70.692 0 128-57.308 128-128 0-70.693-57.308-128-128-128-70.692 0-128 57.307-128 128 0 70.692 57.308 128 128 128Z" fill="#fff"/><path d="m88.897 120.994-1.109 1.702c-12.511 19.193-9.717 44.328 6.718 60.431 9.669 9.474 22.341 14.212 35.013 14.213l-40.622-76.346Z" fill="#00A3FF"/><path opacity=".6" d="m129.507 144.197-40.622-23.203 40.622 76.346v-53.143Zm40.679-23.203 1.11 1.702c12.511 19.193 9.716 44.328-6.719 60.431-9.668 9.474-22.34 14.212-35.013 14.213l40.622-76.346Z" fill="#00A3FF"/><path opacity=".2" d="m129.561 144.197 40.621-23.203-40.621 76.346v-53.143Zm.012-51.836v40.02l34.991-19.997-34.991-20.023Z" fill="#00A3FF"/><path opacity=".6" d="m129.563 92.361-35.016 20.022 35.016 19.998v-40.02Z" fill="#00A3FF"/><path d="m129.563 58.705-35.016 53.691 35.016-20.078V58.705Z" fill="#00A3FF"/><path opacity=".6" d="m129.573 92.311 35.018 20.079-35.018-53.718v33.64Z" fill="#00A3FF"/></g><defs><clipPath id="a"><path fill="#fff" d="M0 0h256v256H0z"/></clipPath></defs></svg>
