<svg xmlns="http://www.w3.org/2000/svg" width="24" height="24" fill="none"><g clip-path="url(#a)"><path d="M25 12.5C25 5.596 19.404 0 12.5 0S0 5.596 0 12.5 5.596 25 12.5 25 25 19.404 25 12.5z" fill="#00a3ff"/><g fill="#fff"><path opacity=".6" d="m17.628 11.612.14.215a6.03 6.03 0 0 1-.848 7.624 6.294 6.294 0 0 1-4.417 1.793l5.125-9.632z"/><path opacity=".2" d="m12.502 14.539 5.125-2.927-5.125 9.632V14.54z"/><path d="m7.372 11.612-.14.215a6.03 6.03 0 0 0 .848 7.624 6.294 6.294 0 0 0 4.417 1.793l-5.125-9.632z"/><path opacity=".6" d="m12.496 14.539-5.125-2.927 5.125 9.632V14.54z"/><path opacity=".2" d="M12.504 8v5.049l4.414-2.523L12.504 8z"/><path opacity=".6" d="m12.503 8-4.418 2.526 4.418 2.523V8z"/><path d="m12.503 3.754-4.418 6.774 4.418-2.533V3.754z"/><path opacity=".6" d="m12.504 7.993 4.418 2.533-4.418-6.777v4.244z"/></g></g><defs><clipPath id="a"><path fill="#fff" d="M0 0h25v25H0z"/></clipPath></defs></svg>
