<svg xmlns="http://www.w3.org/2000/svg" width="374" height="374" style="shape-rendering:geometricPrecision;text-rendering:geometricPrecision;image-rendering:optimizeQuality;fill-rule:evenodd;clip-rule:evenodd"><path style="opacity:1" fill="#003370" d="M42.5-.5h288c22.667 6 37 20.333 43 43v288c-6 22.667-20.333 37-43 43h-288c-22.667-6-37-20.333-43-43v-288c6-22.667 20.333-37 43-43Z"/><path style="opacity:1" fill="#0ae13a" d="m187.5 143.5 25 26c7.214 12.826 6.38 25.159-2.5 37a758.977 758.977 0 0 1-23.5 23 3855.335 3855.335 0 0 1-52 52.5c-12.568 9.181-25.568 9.848-39 2-12.957-11.566-15.457-25.066-7.5-40.5a1799.954 1799.954 0 0 1 50-51c2.786-3.467 3.12-7.134 1-11l-49-49c-10.175-16.094-8.342-30.594 5.5-43.5 13.46-7.88 26.46-7.213 39 2a3923.603 3923.603 0 0 0 53 52.5Zm89-4c-16.495 7.536-30.328 4.202-41.5-10-5.687-10.691-5.854-21.357-.5-32 12.155-15.363 26.822-18.196 44-8.5 13.494 12.322 15.661 26.489 6.5 42.5a94.334 94.334 0 0 1-8.5 8Z"/><path style="opacity:1" fill="#04785b" d="M234.5 97.5c-5.354 10.643-5.187 21.309.5 32 11.172 14.202 25.005 17.536 41.5 10a2457.276 2457.276 0 0 1-41.5 42c-1.818 2.916-1.984 5.916-.5 9l-22-21-25-26c15.64-15.306 31.307-30.639 47-46Z"/><path style="opacity:1" fill="#0db40b" d="m212.5 169.5 22 21a3637.059 3637.059 0 0 0 50.5 51c9.067 15.92 6.901 30.087-6.5 42.5-11.445 6.935-23.111 7.269-35 1a1486.664 1486.664 0 0 0-57-55.5 758.977 758.977 0 0 0 23.5-23c8.88-11.841 9.714-24.174 2.5-37Z"/></svg>
