<svg width="240" height="240" viewBox="0 0 240 240" fill="none" xmlns="http://www.w3.org/2000/svg"><rect width="240" height="240" rx="120" fill="#162F29"/><path d="M211.875 120.492c0 .932-.013 1.863-.04 2.795h-44.687v-2.036h-43.009c0-.426.013-.852.013-1.264 0-.413 0-.852-.013-1.265h43.009V116.7h44.647c.053 1.264.08 2.528.08 3.792Zm-88.495-9.168 42.092-5.177.253 2.023 44.447-5.47a93.152 93.152 0 0 0-1.504-6.454l-43.755 5.39.253 2.022-42.292 5.204c.187.825.36 1.65.506 2.488v-.026Zm-2.196-8.145 40.229-10.047.492 1.97 42.691-10.66a97.29 97.29 0 0 0-2.835-6.081l-41.439 10.353.492 1.97-40.561 10.14c.333.785.639 1.57.931 2.369v-.014Zm-3.566-7.625 37.607-14.199.719 1.903 39.789-15.024a86.802 86.802 0 0 0-4.085-5.51l-38.033 14.36.718 1.902-38.059 14.372c.466.719.918 1.45 1.344 2.196Zm-4.937-7.053 33.215-17.313.932 1.81 36.729-19.15a92.483 92.483 0 0 0-5.257-4.697l-34.519 17.992.931 1.81-33.774 17.605c.585.639 1.171 1.278 1.73 1.943h.013Zm-8.011-7.612 30.075-19.123 1.091 1.717 33.189-21.106a90.5 90.5 0 0 0-6.414-3.726l-30.302 19.27 1.092 1.716-30.94 19.669c.758.505 1.49 1.038 2.222 1.583h-.013Zm-7.106-4.444 25.204-20.667 1.291 1.57 28.385-23.288a92.397 92.397 0 0 0-7.386-2.462L119.88 52.252l1.291 1.57-26.123 21.425c.852.373 1.69.772 2.516 1.198Zm-9.409-3.66 19.908-19.815 1.424 1.437 25.298-25.138a95.274 95.274 0 0 0-8.344-.998l-21.572 21.465 1.424 1.438-21.026 20.919c.972.2 1.93.426 2.888.692ZM77.15 71.122l15.876-19.243 1.57 1.29 20.667-25.044a92.62 92.62 0 0 0-9.289.905L89.512 48.978l1.57 1.29-17.192 20.84c.479-.013.97-.026 1.45-.026.612 0 1.211 0 1.81.026v.013Zm-9.515.572 12.23-18.924 1.703 1.105 14.785-22.889a92.282 92.282 0 0 0-9.901 3.18L76.045 50.283l1.704 1.105L64.202 72.36a48.946 48.946 0 0 1 3.433-.678v.013Zm-10.566 2.94 8.796-16.487 1.783.958 11.644-21.811a92.402 92.402 0 0 0-10.765 6.175l-6.694 12.535 1.796.958-10.353 19.403a46.167 46.167 0 0 1 3.78-1.717l.013-.013Zm-7.586 3.873 3.74-10.62 1.916.68 7.266-20.627a93.92 93.92 0 0 0-10.353 9.568l-3.127 8.876 1.916.679-4.897 13.893a48.859 48.859 0 0 1 3.526-2.436l.014-.013Zm-9.328 7.599 1.65-7.719 1.983.426 3.327-15.543a92.799 92.799 0 0 0-9.249 14.266l1.477.32L36.31 90.63a47.948 47.948 0 0 1 3.846-4.524Zm-6.853 9.022v-10.22c-2.476 6.534-4.232 14.665-5.177 22.636a48.687 48.687 0 0 1 5.177-12.416Zm-5.11 37.567a91.77 91.77 0 0 0 5.043 19.602v-7.545a48.748 48.748 0 0 1-5.043-12.057Zm8.437 17.1 2.648 12.35-1.477.319a92.165 92.165 0 0 0 9.248 14.266l-3.327-15.543-1.982.426-1.677-7.812a46.991 46.991 0 0 1-3.433-4.019v.013Zm9.222 9.183 4.923 13.973-1.916.678 3.127 8.876a93.823 93.823 0 0 0 10.354 9.568l-7.266-20.626-1.917.678-3.752-10.672a54.02 54.02 0 0 1-3.54-2.449l-.013-.026Zm7.345 4.617 10.38 19.456-1.796.958 6.693 12.536a92.364 92.364 0 0 0 10.766 6.174l-11.644-21.811-1.796.959-8.823-16.528a48.879 48.879 0 0 1-3.793-1.73l.013-.014Zm10.926 4.019 13.56 20.999-1.703 1.105 10.406 16.115a92.135 92.135 0 0 0 9.901 3.181l-14.785-22.889-1.703 1.104-12.243-18.949a49.783 49.783 0 0 1-3.447-.679l.014.013Zm9.688 1.278 17.193 20.839-1.57 1.291 16.461 19.948c3.047.453 6.148.759 9.289.905l-20.667-25.058-1.57 1.291-15.876-19.243c-.572.027-1.158.027-1.743.027-.506 0-1.025 0-1.53-.027l.013.027Zm11.404-.985 21.013 20.906-1.424 1.437 21.571 21.465a95.037 95.037 0 0 0 8.344-.998l-25.284-25.151-1.437 1.451-19.895-19.802c-.945.253-1.916.492-2.888.692Zm9.794-3.127 26.097 21.412-1.291 1.57 25.177 20.653a92.64 92.64 0 0 0 7.386-2.462l-28.398-23.288-1.291 1.57-25.178-20.653c-.825.426-1.663.825-2.515 1.198h.013Zm7.399-4.072 30.9 19.655-1.091 1.716 30.301 19.27a92.8 92.8 0 0 0 6.415-3.726l-33.189-21.106-1.091 1.717-30.035-19.097a51.489 51.489 0 0 1-2.223 1.584l.013-.013Zm8.517-7.24 33.735 17.58-.932 1.809 34.52 17.992a92.88 92.88 0 0 0 5.256-4.697l-36.728-19.15-.932 1.81-33.175-17.287a40.017 40.017 0 0 1-1.73 1.943h-.014Zm5.337-6.813 38.006 14.359-.719 1.903 38.033 14.358a97.947 97.947 0 0 0 4.085-5.509l-39.789-15.024-.719 1.903-37.553-14.186a47.185 47.185 0 0 1-1.344 2.196Zm3.979-7.452 40.494 10.113-.492 1.97 41.439 10.353a90.23 90.23 0 0 0 2.848-6.081l-42.69-10.66-.493 1.97-40.175-10.034a74.596 74.596 0 0 1-.931 2.369Zm2.634-8.038 42.225 5.19-.253 2.023 43.755 5.389a96.183 96.183 0 0 0 1.504-6.454l-44.447-5.469-.253 2.022-42.025-5.176a50.249 50.249 0 0 1-.506 2.488v-.013Z" fill="#fff"/></svg>
