<svg data-name="Layer 2" xmlns="http://www.w3.org/2000/svg" viewBox="0 0 800 800"><g data-name="Layer 1"><circle cx="400" cy="400" r="400" style="stroke-width:0;fill:#d3b25a"/><path d="M400.49 428.59c68.79 0 126.28-11.63 140.33-27.17-11.93-13.18-55.08-23.56-109.88-26.4v32.83c-9.81.51-20.01.76-30.46.76s-20.65-.25-30.48-.76v-32.83c-54.78 2.84-97.95 13.22-109.88 26.4 14.07 15.54 71.57 27.17 140.36 27.17Zm122.22-154.53v45.21h-91.77v31.35c64.46 3.35 112.83 17.13 113.19 33.62v34.38c-.36 16.49-48.73 30.24-113.19 33.6v76.94h-60.93v-76.94c-64.46-3.35-112.81-17.11-113.17-33.6v-34.38c.36-16.49 48.71-30.27 113.17-33.62v-31.35h-91.77v-45.21h244.48Zm-280.56-71.95h322.16c7.7 0 14.79 4.05 18.63 10.63l93.85 161.16a21.041 21.041 0 0 1-3.52 25.68L414.93 651.76c-8.38 8.17-21.84 8.17-30.2 0L126.71 399.92c-7.09-6.94-8.43-17.79-3.2-26.19l100.33-161.49c3.91-6.28 10.85-10.12 18.32-10.12Z" style="fill:#fff;fill-rule:evenodd;stroke-width:0"/></g></svg>
