<svg width="128" height="128" viewBox="0 0 128 128" fill="none" xmlns="http://www.w3.org/2000/svg"><path fill="#fff" d="M0 0h128v128.001H0z"/><rect width="128" height="128" rx="64" fill="#fff"/><path fill-rule="evenodd" clip-rule="evenodd" d="M64 0c35.346 0 63.999 28.654 64 64 0 35.346-28.654 64-64 64-35.346 0-64-28.654-64-64C0 28.654 28.654 0 64 0Zm45.164 67.813c-1.833 21.992-19.355 39.517-41.348 41.351h41.348V67.812Zm-90.328 41.351H60.18c-22.008-1.837-39.534-19.386-41.344-41.402v41.402ZM64 98.668l18.559-25.633L64 83.16 45.434 73.031 64 98.668ZM44.617 64.992 64 75.566l19.383-10.574L64 57.062l-19.383 7.93ZM18.836 60.23C20.65 38.2 38.203 20.648 60.234 18.837H18.836V60.23Zm48.926-41.394c22.016 1.81 39.565 19.336 41.402 41.344V18.836H67.762ZM45.586 57.39 64 49.859l1.266.516 17.14 7.012L64 29.336 45.586 57.39Z" fill="#000"/></svg>
