<svg width="128" height="128" viewBox="0 0 128 128" fill="none" xmlns="http://www.w3.org/2000/svg"><path fill="#fff" d="M0 0h128v128.001H0z"/><path fill-rule="evenodd" clip-rule="evenodd" d="M18.836 109.165h90.329v-90.33h-90.33v90.33Z" fill="#fff"/><path fill-rule="evenodd" clip-rule="evenodd" d="m69.03 30.61-2.253 9.751c1.623.341 3.26.684 4.852 1.051l2.235-9.686 6.056 1.399-2.298 9.946c7.657 2.49 13.294 6.323 12.328 13.655-.697 5.366-3.62 8.009-7.545 8.985 5.46 2.722 8.286 6.993 5.796 14.526-3.093 9.354-10.81 10.275-21.123 8.508l-2.32 10.044-6.056-1.4 2.29-9.908c-1.57-.36-3.172-.744-4.824-1.162l-2.3 9.957-6.049-1.399 2.32-10.06c-1.413-.338-2.851-.696-4.317-1.036l-7.88-1.818 2.873-6.954c.047.011 4.455 1.1 4.402 1.016 1.713.394 2.452-.733 2.74-1.48l3.664-15.874.114.025c-.24-.091.065-.028-.104-.068l2.616-11.334c.051-1.282-.42-2.891-2.871-3.458.07-.07-4.398-1.01-4.398-1.01l1.49-6.468 8.352 1.931-.007.032c1.256.289 2.55.56 3.868.837l2.296-9.945 6.053 1.397ZM58 79.031c4.104.944 16.78 4.77 18.513-2.749 1.81-7.84-11.33-9.63-15.434-10.579L58 79.031Zm4.486-19.43c3.42.788 13.972 4.064 15.552-2.775 1.647-7.135-9.34-8.526-12.76-9.314L62.486 59.6Z" fill="#000"/><path fill-rule="evenodd" clip-rule="evenodd" d="M64 0c35.346 0 64 28.655 64 64.001 0 35.346-28.654 64-64 64-35.346 0-64-28.654-64-64C0 28.655 28.654.001 64 0ZM18.836 109.165h90.329v-90.33h-90.33v90.33Z" fill="#000"/></svg>
