<svg xmlns="http://www.w3.org/2000/svg" width="553" height="553"><path d="M0 0h553v553H0V0Z" fill="#FEFEFE"/><path d="M197.238 133.844c4.003 3.125 7.481 6.632 10.961 10.312a86.06 86.06 0 0 0 6.08 5.631c6.675 5.814 12.821 12.19 19.065 18.46l4.136 4.14c3.605 3.609 7.208 7.221 10.81 10.834 3.685 3.696 7.374 7.389 11.062 11.082 7.219 7.23 14.434 14.462 21.648 21.697 5.127-4.28 9.88-8.775 14.55-13.547l4.471-4.54 2.366-2.408c4.176-4.246 8.37-8.475 12.56-12.706a5058.37 5058.37 0 0 0 15.91-16.13c4.292-4.373 8.6-8.728 12.921-13.073a884.227 884.227 0 0 0 4.88-4.964c11.342-11.621 22.305-22.506 39.485-22.925 14.521-.122 25.265 3.305 36.08 13.36 8.177 8.544 12.686 19.4 13.09 31.183-.518 20.854-12.937 33.09-26.93 46.82-1.626 1.614-3.25 3.229-4.873 4.845a4171.48 4171.48 0 0 1-12.772 12.632c-6.034 5.953-12.047 11.925-18.062 17.896a4377.95 4377.95 0 0 1-9.612 9.508l-4.36 4.311-2.025 1.99-1.834 1.817-1.601 1.578c-2.49 2.708-2.464 5.032-2.557 8.603l-.113 2.828c.975 6.688 6.585 11.343 11.21 15.87l2.042 2.023c1.457 1.443 2.916 2.883 4.377 4.321 2.318 2.283 4.629 4.573 6.937 6.866a8909.574 8909.574 0 0 0 19.72 19.51c4.033 3.98 8.056 7.969 12.074 11.964 1.526 1.514 3.056 3.024 4.59 4.53C428.88 363.241 428.88 363.241 433 372l.999 2.018c4.878 10.382 3.624 23.458.001 33.982-4.804 9.537-11.415 15.893-20 22l-2.313 1.688c-12.33 6.021-24.85 5.329-37.687 1.312-14.721-5.673-26.796-21.66-37.703-32.605l-4.724-4.729c-4.106-4.11-8.208-8.221-12.31-12.334-4.202-4.212-8.406-8.421-12.61-12.63-8.22-8.232-16.438-16.466-24.653-24.702-2.998 1.345-5.07 2.828-7.375 5.161l-1.962 1.971-2.119 2.16-2.258 2.277a2669.704 2669.704 0 0 0-4.849 4.904c-2.56 2.595-5.127 5.183-7.696 7.769a11215.336 11215.336 0 0 0-21.881 22.09c-4.457 4.51-8.924 9.012-13.397 13.506-1.698 1.71-3.392 3.425-5.083 5.143a1597.32 1597.32 0 0 1-7.148 7.21l-2.082 2.135c-8.81 8.776-19.164 14.974-31.762 15.143l-2.7-.031-2.818-.028c-12.156-.306-20.715-4.381-29.87-12.41-2.305-2.511-4.2-5.11-6-8l-1.176-1.813c-5.519-8.99-7.355-21.197-5.363-31.593 3.782-14.062 12.263-22.979 22.416-32.877a1218.23 1218.23 0 0 0 7.149-7.04c5.04-4.99 10.1-9.96 15.161-14.927a5980.17 5980.17 0 0 0 17.605-17.357c2.34-2.31 4.692-4.608 7.044-6.905 1.437-1.419 2.874-2.838 4.31-4.259l1.978-1.911c4.613-4.6 8.299-9.541 8.314-16.38-.817-7.351-6.088-11.867-11.134-16.83l-2.012-2.002c-1.434-1.427-2.87-2.85-4.308-4.273-2.274-2.247-4.54-4.501-6.806-6.757a10826.7 10826.7 0 0 0-14.428-14.326c-5.59-5.544-11.178-11.09-16.757-16.646a3410.789 3410.789 0 0 0-6.728-6.664l-4.086-4.066-1.908-1.876c-1.462-1.462-2.873-2.975-4.271-4.498v-2l-3-1c-7.55-8.671-9.545-21.274-8.875-32.438 1.678-13.313 7.934-24.154 18.383-32.585 16.062-11.1 36.674-10.945 52.73-.133Z" fill="#09E33A"/><path d="M318 254c4.685 3.912 9.12 7.98 13.414 12.316l1.75 1.755c1.823 1.828 3.642 3.66 5.461 5.491l3.68 3.694c2.707 2.717 5.413 5.437 8.116 8.158a2655.84 2655.84 0 0 0 13.477 13.42 12345.37 12345.37 0 0 1 20.582 20.44c4.14 4.118 8.283 8.233 12.435 12.339 4.028 3.985 8.046 7.979 12.058 11.98 1.523 1.517 3.05 3.03 4.582 4.539C428.87 363.238 428.87 363.238 433 372l.999 2.018c4.878 10.383 3.624 23.458.001 33.982-4.804 9.537-11.415 15.893-20 22l-2.313 1.688c-12.33 6.021-24.85 5.329-37.687 1.312-14.803-5.704-26.958-21.823-37.922-32.824a20057.962 20057.962 0 0 1-17.279-17.308 25749.02 25749.02 0 0 0-12.791-12.811c-8.339-8.35-16.674-16.702-25.008-25.057 6.263-7.406 6.263-7.406 9.34-10.358.58-.562 1.161-1.123 1.76-1.701l1.837-1.765a4780.99 4780.99 0 0 0 3.961-3.87 957.548 957.548 0 0 1 6.162-5.968c8.142-7.82 14.858-14.619 18.94-25.338l1.116-2.553c1.445-3.999 1.266-7.92 1.259-12.135l-.003-2.71c-.117-6.55-1-11.885-4.372-17.602l-1.75-3-1.25-2v-2Z" fill="#0DB50A"/><path d="M417.25 133.188c10.058 7.604 16.835 17.275 19.469 29.734 1.83 13.521-1.518 26.172-9.719 37.078-5.178 6.025-10.951 11.511-16.617 17.07-1.626 1.614-3.25 3.229-4.873 4.845a4171.48 4171.48 0 0 1-12.772 12.632c-6.034 5.953-12.047 11.925-18.062 17.896a4377.95 4377.95 0 0 1-9.612 9.508l-4.36 4.311-2.025 1.99-1.834 1.817-1.601 1.578c-2.833 3.081-2.346 5.944-2.307 9.978l.028 3.602L353 288a198.36 198.36 0 0 1-13.67-12.556l-1.894-1.894c-2.042-2.043-4.081-4.09-6.12-6.136l-4.274-4.279c-3.733-3.736-7.462-7.475-11.19-11.215-3.813-3.823-7.629-7.643-11.444-11.463A45637.364 45637.364 0 0 1 282 218c1.353-3.012 2.868-5.126 5.183-7.471l1.987-2.026 2.179-2.19 2.297-2.332a2859.14 2859.14 0 0 1 7.557-7.626l2.616-2.636c4.104-4.136 8.211-8.268 12.325-12.394 5.19-5.205 10.358-10.43 15.518-15.665a2831.81 2831.81 0 0 1 10.913-10.977 1070.5 1070.5 0 0 0 5.19-5.25c19.302-19.634 43.113-33.427 69.485-16.245Z" fill="#02795B"/><path d="M417.25 133.188c10.058 7.604 16.835 17.275 19.469 29.734 2.061 15.23-2.709 27.766-11.801 39.844-7.666 8.724-17.975 12.735-29.406 13.734-8.412.398-15.932-.674-23.512-4.5l-2.61-1.285c-11.733-6.383-18.363-16.644-22.53-29.133-2.5-10.42-1.37-20.9 3.14-30.582 2.063-2.938 2.063-2.938 4-5l1.313-2.375c5.594-8.703 14.763-14.31 24.643-17.197 12.918-2.708 26.314-.394 37.294 6.76Z" fill="#0AE23A"/></svg>
