<svg width="128" height="128" viewBox="0 0 128 128" fill="none" xmlns="http://www.w3.org/2000/svg"><path fill="#fff" d="M0 0h128v128.001H0z"/><path fill-rule="evenodd" clip-rule="evenodd" d="M18.836 109.165h90.329v-90.33h-90.33v90.33Z" fill="#fff"/><path fill-rule="evenodd" clip-rule="evenodd" d="M64 0c35.346 0 64 28.655 64 64.001 0 35.346-28.654 64-64 64-35.346 0-64-28.654-64-64C0 28.655 28.654.001 64 0ZM18.836 109.165h90.329v-90.33h-90.33v90.33Z" fill="#000"/><path fill-rule="evenodd" clip-rule="evenodd" d="m40 63.011 23.68 14.447L87.36 63.01 63.68 24 40 63.011Zm0 4.053 23.68 34.153 23.68-34.153-23.68 14.15L40 67.063Z" fill="#000"/></svg>
