<svg width="128" height="128" viewBox="0 0 128 128" fill="none" xmlns="http://www.w3.org/2000/svg"><path fill="#fff" d="M0 .006h128v128H0z"/><rect y=".006" width="128" height="128" rx="64" fill="#fff"/><path d="M64 0c35.346 0 64 28.655 64 64.001 0 35.346-28.654 64-64 64-35.346 0-64-28.654-64-64C0 28.655 28.654.001 64 0Zm45.165 67.9c-1.865 21.909-19.308 39.371-41.208 41.265h41.208V67.9Zm-90.33 41.265h41.207c-21.896-1.894-39.337-19.35-41.206-41.254v41.254ZM46.83 74.717c-.48 0-.933.191-1.263.52l-8.609 8.582c-.563.561-.165 1.52.63 1.52H81.17c.48 0 .934-.192 1.264-.52l8.609-8.584c.562-.56.164-1.518-.632-1.518H46.83Zm-9.241-16.125c-.796 0-1.194.958-.631 1.52l8.61 8.581c.329.329.782.52 1.262.52h43.582c.796 0 1.194-.957.632-1.519l-8.61-8.583a1.791 1.791 0 0 0-1.263-.52H37.588Zm30.26-39.756c21.95 1.845 39.449 19.328 41.317 41.272V18.836H67.848ZM18.836 60.098c1.873-21.94 19.368-39.417 41.315-41.262H18.836v41.262Zm27.993-17.426c-.467 0-.92.192-1.263.52l-8.609 8.582c-.563.562-.165 1.52.63 1.52H81.17c.48 0 .934-.192 1.264-.52l8.609-8.583c.563-.56.164-1.519-.632-1.52H46.83Z" fill="#000"/></svg>
