<svg width="128" height="128" viewBox="0 0 128 128" fill="none" xmlns="http://www.w3.org/2000/svg"><path fill="#fff" d="M0 0h128v128.001H0z"/><path fill-rule="evenodd" clip-rule="evenodd" d="M18.836 109.165h90.329v-90.33h-90.33v90.33Z" fill="#fff"/><path fill-rule="evenodd" clip-rule="evenodd" d="M64 0c35.346 0 64 28.655 64 64.001 0 35.346-28.654 64-64 64-35.346 0-64-28.654-64-64C0 28.655 28.654.001 64 0ZM18.836 109.165h90.329v-90.33h-90.33v90.33Z" fill="#000"/><path d="M42.401 77.992a2.102 2.102 0 0 1 1.48-.607H94.96c.933 0 1.4 1.118.74 1.773L85.61 89.17a2.102 2.102 0 0 1-1.48.607H33.05c-.933 0-1.4-1.118-.74-1.773L42.4 77.991Zm-.002-37.385a2.16 2.16 0 0 1 1.48-.607h51.078c.934 0 1.4 1.118.74 1.773l-10.09 10.013a2.102 2.102 0 0 1-1.48.606H33.049c-.933 0-1.4-1.117-.74-1.772l10.09-10.013ZM85.61 59.18a2.102 2.102 0 0 0-1.481-.607H33.05c-.933 0-1.4 1.118-.74 1.772L42.4 70.358c.386.384.917.607 1.48.607h51.08c.933 0 1.4-1.118.74-1.772L85.61 59.18Z" fill="#000"/></svg>
