<svg xmlns="http://www.w3.org/2000/svg" width="24" height="24" fill="none"><g clip-path="url(#a)"><g fill="#fff"><path d="M12.5 25C19.404 25 25 19.404 25 12.5S19.404 0 12.5 0 0 5.596 0 12.5 5.596 25 12.5 25z"/><g fill-rule="evenodd"><path d="m20.741 14.945-3.278 4.57c-.516.726-1.516 1.075-2.817.968-1.678-.139-3.902-1.026-6.034-2.554s-3.686-3.352-4.364-4.895c-.516-1.196-.508-2.252.016-2.979l3.271-4.57c.523-.726 1.523-1.075 2.816-.968 1.678.139 3.91 1.026 6.042 2.555s3.686 3.352 4.355 4.895c.523 1.196.508 2.253-.008 2.979zM8.412 6.113c.338-.47 1.016-.591 1.855-.522 1.532.126 3.548.961 5.495 2.356s3.386 3.04 4.002 4.448c.331.771.439 1.452.1 1.922l-3.278 4.57c-.331.469-1.008.591-1.847.521-1.532-.125-3.555-.96-5.502-2.356s-3.386-3.041-3.994-4.448c-.339-.773-.439-1.453-.1-1.922l3.271-4.57z"/><path d="M7.98 5.91c1.07-1.493 4.695-.726 8.096 1.71s5.295 5.629 4.225 7.122l-3.271 4.57c-1.07 1.493-4.702.726-8.104-1.711S3.631 11.973 4.7 10.48l3.28-4.57z"/></g></g><path fill-rule="evenodd" d="M7.744 5.634c.476-.666 1.395-.96 2.586-.864 1.642.135 3.815 1.016 5.908 2.506 2.086 1.499 3.617 3.284 4.267 4.791.476 1.095.492 2.062.016 2.728l-3.268 4.568c-.476.666-1.403.96-2.585.865-1.642-.143-3.823-1.016-5.909-2.514-2.094-1.491-3.617-3.276-4.275-4.783-.476-1.094-.491-2.062-.016-2.728l3.276-4.569zm12.325 8.828c.381-.524.301-1.301-.072-2.174-.626-1.436-2.093-3.125-4.092-4.552-1.991-1.428-4.061-2.276-5.623-2.403-.952-.079-1.705.095-2.086.626l-.016.032c-.357.531-.277 1.285.095 2.142.626 1.443 2.094 3.132 4.084 4.56s4.061 2.277 5.623 2.403c.936.071 1.674-.095 2.062-.595l.024-.04zm-5.092-5.433c.999.714 1.736 1.563 2.046 2.285.182.404.23.761.047 1.007-.174.246-.531.317-.967.278-.785-.064-1.816-.492-2.816-1.206S11.55 9.839 11.24 9.117c-.174-.405-.222-.762-.047-1.008s.532-.317.976-.285c.777.071 1.816.492 2.808 1.205z" fill="#0e0f23"/><path fill-rule="evenodd" d="M6.848 16.126c-1.109-1.077-1.926-2.195-2.361-3.196-.475-1.094-.492-2.061-.016-2.725l3.275-4.57c.476-.664 1.397-.959 2.586-.861 1.641.135 3.818 1.01 5.908 2.507s3.617 3.277 4.273 4.788l.151.387a1.57 1.57 0 0 0-.571-.161l-.097-.007c-.626-1.439-2.093-3.125-4.083-4.551s-4.062-2.275-5.627-2.404c-.949-.078-1.703.098-2.083.629l-.023.032c-.355.529-.275 1.287.097 2.143.625 1.44 2.093 3.128 4.085 4.555 1.62 1.161 3.292 1.938 4.702 2.258-.572.802-1.187 1.514-1.997 1.675-.706.141-1.404-.177-2.042-.899-.664-.75-1.203-1.817-1.963-1.989-1.363-.309-2.578 2.036-3.926 2.341a2.354 2.354 0 0 1-.287.048zm8.136-7.093c.997.714 1.733 1.557 2.046 2.278.176.406.225.764.048 1.011s-.531.316-.973.279c-.783-.065-1.818-.491-2.815-1.205s-1.734-1.557-2.046-2.278c-.176-.406-.225-.764-.048-1.011s.531-.316.973-.28c.783.065 1.817.491 2.814 1.206z" fill="#ffb260"/><path fill-rule="evenodd" d="M17.195 15.723a5.2 5.2 0 0 0 1.665.047.125.125 0 0 0 .104-.135c-.003-.031-.023-.058-.048-.077s-.056-.028-.087-.026a4.77 4.77 0 0 1-1.594-.047.123.123 0 0 0-.115.19.118.118 0 0 0 .075.048zm-.936-.207.468.111c.015.004.03.005.045.003s.03-.008.042-.016a.108.108 0 0 0 .048-.074c.006-.023.004-.047-.004-.069s-.023-.041-.041-.055a.133.133 0 0 0-.042-.019l-.452-.111a.122.122 0 0 0-.13.037.11.11 0 0 0-.021.042.13.13 0 0 0 .015.092.128.128 0 0 0 .073.058zM7.4 8.006c.444 1.816 2.189 3.513 3.593 4.719a.117.117 0 0 0 .167-.009.115.115 0 0 0 .013-.13.102.102 0 0 0-.03-.035c-1.364-1.182-3.077-2.832-3.506-4.6-.009-.031-.03-.057-.058-.074s-.061-.021-.093-.013a.118.118 0 0 0-.087.142zm-.103-.73c0 .079.008.167.016.246.005.031.022.059.047.078s.057.028.088.025a.115.115 0 0 0 .103-.127l-.016-.23a.114.114 0 0 0-.079-.112.112.112 0 0 0-.048-.007.13.13 0 0 0-.111.127z" fill="#fff"/></g><defs><clipPath id="a"><path fill="#fff" d="M0 0h25v25H0z"/></clipPath></defs></svg>
