<svg xmlns="http://www.w3.org/2000/svg" id="Group_44542" width="256" height="256" viewBox="0 0 256 256">
    <defs>
        <style>
            .cls-3{fill:#fff;fill-rule:evenodd}
        </style>
    </defs>
    <circle id="Ellipse_1480" cx="128" cy="128" r="128" fill="#fff"/>
    <g id="Group_44541" transform="translate(21983.436 17150.432)">
        <g id="XSushi_Logo" transform="translate(-21949 -17116)">
            <g id="Icon-Logo">
                <path id="Rectangle_10724" fill="none" d="M0 0H188V188H0z" transform="translate(-.437 -.432)"/>
                <g id="Group_44540" transform="translate(5.154 11.632)">
                    <g id="Group_44535">
                        <path id="Path_12873" d="M37909.906 15737.949l-33.57 46.795c-5.281 7.432-15.523 11.01-28.844 9.914-17.18-1.418-39.953-10.5-61.785-26.155s-37.746-34.327-44.684-50.128c-5.281-12.246-5.2-23.059.16-30.5l33.492-46.795c5.359-7.43 15.6-11.009 28.84-9.914 17.184 1.419 40.039 10.506 61.867 26.164s37.75 34.32 44.6 50.12c5.359 12.247 5.2 23.066-.078 30.5zm-126.246-90.436c3.465-4.808 10.4-6.053 18.992-5.344 15.684 1.293 36.332 9.836 56.27 24.13s34.672 31.128 40.977 45.55c3.387 7.9 4.492 14.871 1.023 19.678l-33.57 46.795c-3.387 4.8-10.324 6.052-18.914 5.334-15.684-1.284-36.406-9.834-56.344-24.121s-34.676-31.137-40.9-45.549c-3.469-7.913-4.492-14.879-1.027-19.68z" class="cls-3" transform="translate(-37737.113 -15630.975)"/>
                    </g>
                    <g id="Group_44536" transform="translate(5.49 6.651)">
                        <path id="Path_12874" d="M37778.23 15673.943c10.957-15.287 48.074-7.438 82.9 17.512s54.223 57.638 43.266 72.926l-33.492 46.795c-10.953 15.289-48.148 7.439-82.984-17.518s-54.219-57.632-43.266-72.92z" class="cls-3" transform="translate(-37741.598 -15666.135)"/>
                    </g>
                    <g id="Group_44537" transform="translate(2.59 2.598)">
                        <path id="Path_12875" fill="#0e0f23" fill-rule="evenodd" d="M41356.992 35430.9c4.871-6.82 14.289-9.828 26.477-8.852 16.813 1.383 39.063 10.4 60.5 25.664 21.359 15.352 37.035 33.625 43.7 49.055 4.875 11.207 5.035 21.117.16 27.938l-33.461 46.781c-4.871 6.82-14.371 9.824-26.473 8.852-16.816-1.461-39.148-10.4-60.508-25.746-21.441-15.27-37.035-33.543-43.777-48.973-4.871-11.207-5.031-21.117-.16-27.937zm126.211 90.395c3.9-5.363 3.086-13.32-.734-22.254-6.414-14.7-21.437-32-41.906-46.617-20.387-14.621-41.582-23.309-57.582-24.609-9.746-.812-17.461.977-21.359 6.414l-.164.328c-3.656 5.441-2.84 13.156.977 21.93 6.414 14.781 21.441 32.078 41.824 46.7s41.586 23.313 57.582 24.609c9.586.73 17.137-.977 21.117-6.09zm-52.141-55.633c10.23 7.309 17.781 16 20.953 23.391 1.867 4.141 2.352 7.8.484 10.316-1.785 2.516-5.441 3.246-9.906 2.84-8.039-.652-18.6-5.035-28.832-12.344s-17.785-15.918-20.957-23.309c-1.781-4.145-2.273-7.8-.484-10.316s5.445-3.246 9.992-2.922c7.958.729 18.594 5.034 28.751 12.342z" transform="translate(-41319.875 -35421.867)"/>
                    </g>
                    <g id="Group_44538" transform="translate(2.631 2.633)">
                        <path id="Path_12876" fill="#ffb260" fill-rule="evenodd" d="M812.477 155.469c-11.359-11.023-19.725-22.48-24.173-32.728-4.863-11.2-5.035-21.1-.16-27.908l33.534-46.795c4.875-6.8 14.306-9.823 26.479-8.819 16.807 1.386 39.1 10.341 60.492 25.672s37.04 33.56 43.758 49.03q.872 2.011 1.542 3.963a16.071 16.071 0 0 0-5.848-1.645c-.333-.034-.665-.058-.99-.072-6.415-14.74-21.433-32-41.81-46.6-20.4-14.617-41.594-23.294-57.617-24.615-9.717-.8-17.438 1.005-21.329 6.436l-.234.326c-3.632 5.418-2.817 13.175.989 21.942 6.4 14.75 21.431 32.029 41.831 46.647 16.594 11.891 33.71 19.85 48.144 23.117-5.855 8.212-12.156 15.5-20.446 17.156-7.23 1.441-14.375-1.807-20.914-9.2-6.795-7.676-12.321-18.609-20.1-20.371-13.954-3.16-26.4 20.85-40.206 23.975a24.871 24.871 0 0 1-2.942.489zm83.313-72.632c10.21 7.314 17.749 15.943 20.955 23.323 1.806 4.161 2.3 7.827.49 10.354s-5.439 3.236-9.96 2.863c-8.019-.662-18.615-5.028-28.823-12.344S860.7 91.09 857.5 83.709c-1.806-4.161-2.3-7.827-.492-10.354s5.442-3.235 9.963-2.863c8.019.662 18.611 5.03 28.819 12.345z" transform="translate(-784.572 -39.032)"/>
                    </g>
                    <g id="Group_44539" transform="translate(35.127 27.146)">
                        <path id="Path_12877" d="M41446.34 35672.367a53.281 53.281 0 0 0 17.055.484 1.262 1.262 0 0 0 1.059-1.383 1.314 1.314 0 0 0-1.383-1.055 48.837 48.837 0 0 1-16.324-.484 1.255 1.255 0 0 0-1.379 1.055 1.207 1.207 0 0 0 .972 1.383zm-9.582-2.117c1.625.41 3.168.813 4.789 1.141a1.1 1.1 0 0 0 1.383-.895 1.207 1.207 0 0 0-.895-1.461c-1.543-.324-3.086-.73-4.629-1.137a1.184 1.184 0 0 0-1.543.813 1.335 1.335 0 0 0 .895 1.539zm-90.719-76.906c4.547 18.594 22.414 35.977 36.789 48.32a1.181 1.181 0 1 0 1.543-1.785c-13.969-12.1-31.512-29-35.9-47.105a1.292 1.292 0 0 0-1.543-.891 1.207 1.207 0 0 0-.889 1.461zm-1.059-7.473c0 .813.082 1.707.164 2.52a1.263 1.263 0 0 0 1.379 1.055 1.185 1.185 0 0 0 1.059-1.3c-.082-.812-.164-1.625-.164-2.355a1.217 1.217 0 0 0-1.3-1.219 1.32 1.32 0 0 0-1.138 1.299z" class="cls-3" transform="translate(-41344.98 -35584.57)"/>
                    </g>
                </g>
            </g>
        </g>
    </g>
</svg>
