<svg width="256" height="256" viewBox="0 0 256 256" fill="none" xmlns="http://www.w3.org/2000/svg"><path d="M128 256c70.692 0 128-57.308 128-128C256 57.308 198.692 0 128 0 57.308 0 0 57.307 0 128c0 70.692 57.307 128 128 128Z" fill="#fff"/><path fill-rule="evenodd" clip-rule="evenodd" d="m212.384 153.039-33.57 46.795c-5.281 7.432-15.523 11.01-28.844 9.914-17.18-1.418-39.953-10.501-61.785-26.156-21.832-15.655-37.746-34.327-44.684-50.128-5.28-12.246-5.2-23.059.16-30.5L77.153 56.17c5.36-7.43 15.6-11.01 28.84-9.915 17.184 1.42 40.04 10.506 61.868 26.164 21.828 15.659 37.747 34.321 44.597 50.121 5.359 12.247 5.2 23.066-.078 30.5l.004-.001ZM86.138 62.602c3.465-4.808 10.4-6.053 18.992-5.344 15.684 1.293 36.332 9.836 56.27 24.13 19.938 14.294 34.671 31.128 40.976 45.55 3.387 7.9 4.493 14.872 1.024 19.679l-33.571 46.795c-3.387 4.8-10.324 6.052-18.914 5.334-15.684-1.284-36.406-9.834-56.343-24.121-19.939-14.287-34.675-31.137-40.899-45.549-3.469-7.913-4.492-14.88-1.027-19.681l33.492-46.793Z" fill="#fff"/><path fill-rule="evenodd" clip-rule="evenodd" d="M81.713 60.523c10.957-15.287 48.073-7.438 82.899 17.512s54.222 57.638 43.265 72.926l-33.492 46.795c-10.953 15.289-48.144 7.439-82.98-17.518-34.836-24.957-54.223-57.632-43.27-72.92l33.578-46.794Z" fill="#fff"/><path fill-rule="evenodd" clip-rule="evenodd" d="M79.297 57.693c4.871-6.82 14.289-9.827 26.477-8.851 16.813 1.383 39.063 10.4 60.5 25.664 21.359 15.352 37.034 33.625 43.699 49.055 4.875 11.207 5.035 21.116.16 27.937l-33.461 46.781c-4.871 6.82-14.37 9.828-26.472 8.856-16.816-1.461-39.148-10.4-60.508-25.746-21.441-15.27-37.035-33.547-43.777-48.977-4.871-11.207-5.032-21.113-.16-27.933l33.542-46.786Zm126.211 90.399c3.9-5.363 3.086-13.324-.734-22.258-6.414-14.7-21.437-31.996-41.906-46.613-20.387-14.621-41.582-23.31-57.582-24.61-9.746-.812-17.462.977-21.36 6.414l-.164.329c-3.656 5.44-2.84 13.155.977 21.93 6.414 14.78 21.441 32.076 41.824 46.698s41.586 23.314 57.582 24.61c9.586.73 17.137-.977 21.117-6.09l.246-.41Zm-52.14-55.637c10.23 7.31 17.781 16.004 20.953 23.395 1.867 4.141 2.352 7.796.484 10.312-1.785 2.516-5.441 3.25-9.906 2.844-8.039-.652-18.6-5.039-28.832-12.348-10.232-7.309-17.785-15.917-20.957-23.308-1.781-4.145-2.274-7.8-.485-10.317 1.789-2.516 5.446-3.246 9.993-2.922 7.958.73 18.593 5.036 28.75 12.344Z" fill="#0E0F23"/><path fill-rule="evenodd" clip-rule="evenodd" d="M70.126 165.134c-11.359-11.023-19.725-22.48-24.173-32.728-4.863-11.2-5.035-21.1-.16-27.908l33.534-46.795c4.875-6.8 14.306-9.823 26.479-8.819 16.807 1.386 39.1 10.341 60.492 25.672 21.392 15.331 37.04 33.56 43.758 49.03a54.62 54.62 0 0 1 1.542 3.963 16.083 16.083 0 0 0-5.848-1.645 16.96 16.96 0 0 0-.99-.072c-6.415-14.74-21.433-32-41.81-46.6-20.4-14.617-41.594-23.294-57.617-24.615-9.717-.8-17.438 1.005-21.329 6.436l-.234.326c-3.632 5.418-2.817 13.175.989 21.942 6.4 14.75 21.431 32.029 41.831 46.647 16.594 11.891 33.71 19.85 48.144 23.117-5.855 8.212-12.156 15.5-20.446 17.156-7.23 1.441-14.375-1.807-20.914-9.2-6.795-7.676-12.321-18.609-20.1-20.371-13.954-3.16-26.4 20.85-40.206 23.975-.97.222-1.952.385-2.942.489Zm83.313-72.632c10.21 7.314 17.749 15.943 20.955 23.323 1.806 4.161 2.3 7.827.49 10.354-1.81 2.527-5.439 3.236-9.96 2.863-8.019-.662-18.615-5.028-28.823-12.344-10.208-7.316-17.752-15.943-20.952-23.324-1.806-4.161-2.3-7.827-.492-10.354 1.808-2.527 5.442-3.235 9.963-2.863 8.019.662 18.611 5.03 28.819 12.345Z" fill="#FFB260"/><path fill-rule="evenodd" clip-rule="evenodd" d="M176.077 161.006a53.283 53.283 0 0 0 17.054.484 1.259 1.259 0 0 0 1.059-1.382 1.314 1.314 0 0 0-1.383-1.055 48.824 48.824 0 0 1-16.324-.485 1.257 1.257 0 0 0-1.379 1.055 1.21 1.21 0 0 0 .203.891c.182.258.459.435.77.492Zm-9.582-2.117c1.625.41 3.168.812 4.789 1.14a1.104 1.104 0 0 0 .894-.136 1.104 1.104 0 0 0 .489-.758 1.215 1.215 0 0 0-.465-1.266 1.215 1.215 0 0 0-.43-.195c-1.543-.324-3.086-.73-4.629-1.137a1.17 1.17 0 0 0-.48-.066 1.166 1.166 0 0 0-.844.445 1.18 1.18 0 0 0-.219.434c-.066.321-.013.657.152.941.166.284.43.496.743.598Zm-90.72-76.907c4.548 18.595 22.415 35.978 36.79 48.321a1.192 1.192 0 0 0 .871.324 1.195 1.195 0 0 0 .836-.41 1.18 1.18 0 0 0 .141-1.336 1.187 1.187 0 0 0-.305-.363c-13.969-12.1-31.51-29-35.898-47.106a1.292 1.292 0 0 0-1.543-.89 1.215 1.215 0 0 0-.75.546 1.211 1.211 0 0 0-.14.914Zm-1.058-7.472c0 .813.082 1.706.164 2.52a1.261 1.261 0 0 0 1.379 1.055 1.185 1.185 0 0 0 .797-.43 1.185 1.185 0 0 0 .262-.871c-.082-.813-.164-1.626-.164-2.356a1.207 1.207 0 0 0-.809-1.149 1.22 1.22 0 0 0-.492-.07 1.325 1.325 0 0 0-1.137 1.3Z" fill="#fff"/></svg>
