<svg xmlns="http://www.w3.org/2000/svg" width="24" height="24" fill="none"><g clip-path="url(#a)"><path d="M12.5 25C19.404 25 25 19.404 25 12.5S19.404 0 12.5 0 0 5.596 0 12.5 5.596 25 12.5 25z" fill="url(#b)"/><path d="m13.583 12.685.885.604a13.86 13.86 0 0 1 1.007.961c.488.507.698 1.141.8 1.823.171 1.148-.147 2.135-.844 3.061-.982 1.305-3.152 1.81-4.446 1.216-.716-.329-1.363-.738-1.781-1.36-.638-.95-1.041-2.006-.569-3.185L9 14.858l-1.454.29-.22-.918a.257.257 0 0 1 .142-.201l3.215-.661c.191-.041.244.016.265.186l.236 1.827.214 1.357c.035.189-.007.276-.204.293l-.87.096-.27-1.792c-.4.72-.669 1.359-.395 2.109.219.599.523 1.149 1.052 1.506.851.577 1.776.737 2.76.321a2.72 2.72 0 0 0 1.317-1.104 2.76 2.76 0 0 0 .337-2.223c-.192-.709-.57-1.273-1.221-1.65-.202-.117-.36-.294-.327-.589.035-.308.008-.624.008-1.022zm2.492-2.81 1.405-.476.279.836a.314.314 0 0 1-.158.257l-2.838 1.055c-.402.146-.4.112-.508-.299l-.686-2.402-.191-.69a7.77 7.77 0 0 1 .94-.27c.064-.011.204.196.246.324.091.276.135.566.21.848.037.139.101.271.171.456.31-.568.334-1.126.24-1.693a2.71 2.71 0 0 0-.49-1.193 2.714 2.714 0 0 0-.986-.831 3.005 3.005 0 0 0-1.387-.314c-1.026.018-1.835.514-2.38 1.392a2.72 2.72 0 0 0-.388 1.633c.046.572.273 1.114.646 1.549.306.322.643.613 1.007.868.18.135.269.267.261.488l-.003 1.077-.779-.545-1.252-1.064c-.563-.528-.82-1.226-.934-1.965a3.75 3.75 0 0 1 1.156-3.414c1.024-.99 2.27-1.299 3.669-.996 1.037.225 1.832.82 2.392 1.682.583.898.741 1.912.518 2.972l-.161.716zm-3.02-2.51v10.228c-.326 0-.637.005-.947-.002-.225-.005-.156-.186-.156-.306l-.001-4.865-.005-4.707c-.002-.272.065-.382.349-.354.238.023.48.005.761.005z" fill="#fff"/></g><defs><linearGradient id="b" x1="25" y1="13.175" x2="0" y2="13.25" gradientUnits="userSpaceOnUse"><stop stop-color="#075eb6"/><stop offset="1" stop-color="#0377fc"/></linearGradient><clipPath id="a"><path fill="#fff" d="M0 0h25v25H0z"/></clipPath></defs></svg>
