<svg xmlns="http://www.w3.org/2000/svg" width="24" height="24" fill="none"><g clip-path="url(#a)"><path d="M12.5 25C19.404 25 25 19.404 25 12.5S19.404 0 12.5 0 0 5.596 0 12.5 5.596 25 12.5 25z" fill="#302c2c"/><path fill-rule="evenodd" d="m12.106 21.094-.633-.067a8.5 8.5 0 0 1-3.22-1.066c-.015-.008-.028-.02-.057-.039l5.164-3.859.52.505.863.849c.07.07.121.07.203.027a5.587 5.587 0 0 0 2.131-1.867l.084-.123.066.076 1.799 2.393c.052.069.046.109-.009.172a8.55 8.55 0 0 1-5.211 2.891c-.263.042-.529.058-.794.087-.035.004-.07.013-.105.02h-.801zm.758-17.188.438.044a8.53 8.53 0 0 1 3.456 1.094c.016.009.029.02.055.039l-5.248 3.765-.203-.193-1.105-1.08c-.059-.058-.103-.064-.177-.027a5.58 5.58 0 0 0-2.164 1.894l-.078.117L5.91 6.99l.569-.602a8.52 8.52 0 0 1 4.518-2.34c.336-.061.679-.081 1.019-.121.038-.004.077-.013.114-.02h.737zM5.045 8.23l3.902 5.116-.787.808-.591.602c-.056.056-.059.099-.024.168a5.578 5.578 0 0 0 1.893 2.164l.08.055c.005.003.007.011.021.037l-2.547 1.91c-1.523-1.312-2.512-2.928-2.909-4.888-.425-2.098-.081-4.081.962-5.972zm11.074 3.414.717-.745.602-.62c.064-.063.063-.111.026-.186a5.58 5.58 0 0 0-1.914-2.186l-.106-.076 2.562-1.922c1.451 1.242 2.414 2.773 2.856 4.621.552 2.306.06 4.588-.896 6.194l-3.846-5.08z" fill="#fff"/></g><defs><clipPath id="a"><path fill="#fff" d="M0 0h25v25H0z"/></clipPath></defs></svg>
